<svg id="Layer_1" data-name="Layer 1" xmlns="http://www.w3.org/2000/svg" viewBox="0 0 1150 1034">
  <defs>
    <style>
      .cls-2,.cls-21,.cls-22,.cls-23,.cls-8{fill:none}.cls-2,.cls-6{stroke:#384349}.cls-14,.cls-17,.cls-18,.cls-2,.cls-21,.cls-22,.cls-23,.cls-6,.cls-8,.cls-9{stroke-miterlimit:10}.cls-17,.cls-18,.cls-2,.cls-21,.cls-22,.cls-23,.cls-6,.cls-8{stroke-width:3px}.cls-3{fill:#f69c1c}.cls-4{fill:#07c39f}.cls-5{fill:#eb8b22}.cls-10,.cls-14,.cls-17,.cls-6,.cls-9{fill:#fff}.cls-7{fill:#384349}.cls-8{stroke:#f69c1c}.cls-14,.cls-17,.cls-18,.cls-22,.cls-9{stroke:#394349}.cls-9{stroke-width:2.91px}.cls-11{fill:#a453ff}.cls-12{fill:#354249}.cls-14{stroke-width:3.29px}.cls-16{fill:#269d80}.cls-18,.cls-19{fill:#394349}.cls-21{stroke:#07c39f}.cls-23{stroke:#a453ff}
    </style>
  </defs>
  <path d="M999.83 683.59c-81.08 162.69-346.65 205.13-639 192.84C174.34 868.6-84.82 687.71 134.31 308.2c134.33-232.64 428-166.34 590.7-85.26s355.9 297.96 274.82 460.65z" fill="#ebf0f2"/>
  <path class="cls-2" d="M253.78 333.62a90.87 90.87 0 0090.87 90.87M474.43 421.63a90.54 90.54 0 0030.76-15.13"/>
  <path class="cls-3" d="M284.74 475c10.77-28.65 27.42-42.16 51.59-42.16h44.07A20.15 20.15 0 00400.54 453a20.15 20.15 0 0020.15-20.08h44.07c17.12 0 29.95 6.34 40.12 20.53a281.39 281.39 0 0049.94 53.41c20.67 18.53 28.24 12 44.63 47.59l-23.64 22.21-304.43 14.4L241 557.71z"/>
  <path class="cls-3" d="M516 475c-10.77-28.65-27.42-42.16-51.59-42.16H420.3A20.15 20.15 0 01400.15 453 20.15 20.15 0 01380 432.88h-44.06c-17.12 0-29.95 6.34-40.12 20.53a281.39 281.39 0 01-49.94 53.41c-20.67 18.53-30.32 16.86-46.7 52.41l25.71 17.39 304.43 14.44 30.34-33.35z"/>
  <path class="cls-4" d="M526 294c-7.35-13.75-13.85-28-18.21-42.93-10.09-34.64-36.86-59.4-68.31-59.4a59.12 59.12 0 00-14.17 1.73 110.47 110.47 0 00-148.93 75.88 194.68 194.68 0 01-10.26 30.93 84.45 84.45 0 0077.53 117.88 84.9 84.9 0 0012.33-.9c11.11-2.27 18.37-4.86 22.57-7.74-50.68-7.15-88.89-39.91-88.89-93.53v-.47-.45c0-.83.06-1.65.08-2.47s0-1.82.09-2.72.12-1.51.17-2.27c.09-1.14.17-2.28.29-3.41 0-.27.07-.54.1-.82a110.53 110.53 0 0185.13-95.08l.53-.12c1.39-.31 2.8-.59 4.22-.85l1.49-.26c1.16-.2 2.32-.37 3.48-.52.75-.11 1.49-.2 2.24-.29 1-.11 2-.21 3-.29s1.81-.15 2.72-.21 1.82-.1 2.73-.13c.52 0 1-.07 1.54-.08s.88 0 1.32 0H401.73c.94 0 1.88 0 2.81.07s1.94.09 2.9.16 1.85.12 2.76.21 1.92.19 2.87.3 1.82.22 2.72.34 1.88.29 2.82.45 1.79.3 2.68.48 1.85.37 2.77.58 1.76.39 2.64.6 1.81.47 2.72.72l2.57.73c.9.27 1.79.56 2.67.85s1.69.56 2.52.85l2.62 1c.82.32 1.65.64 2.46 1s1.7.73 2.55 1.1 1.61.72 2.4 1.09 1.66.81 2.48 1.22 1.57.79 2.34 1.2 1.62.89 2.42 1.34 1.52.86 2.26 1.3 1.57 1 2.34 1.46 1.48.92 2.2 1.4 1.51 1 2.26 1.57 1.43 1 2.12 1.51 1.47 1.11 2.19 1.67 1.37 1.06 2 1.6 1.41 1.18 2.11 1.78 1.31 1.12 1.95 1.69 1.35 1.25 2 1.88l1.87 1.78c.65.65 1.28 1.32 1.92 2s1.2 1.23 1.78 1.87 1.22 1.38 1.83 2.07 1.14 1.29 1.69 2 1.16 1.44 1.73 2.16 1.07 1.34 1.59 2 1.1 1.51 1.64 2.26 1 1.38 1.48 2.09 1 1.56 1.53 2.34.94 1.43 1.39 2.16 1 1.62 1.42 2.43.86 1.47 1.27 2.22.88 1.68 1.31 2.52.79 1.5 1.17 2.27.8 1.73 1.19 2.6.72 1.54 1.05 2.32.72 1.79 1.08 2.69.63 1.56.93 2.36.64 1.84.95 2.77.56 1.59.81 2.39c.3 1 .55 1.91.82 2.87.23.8.48 1.6.69 2.41.25 1 .47 2 .7 3 .18.81.38 1.6.55 2.41.21 1 .38 2.07.56 3.1.14.79.3 1.58.43 2.37.17 1.11.29 2.23.43 3.35.09.74.2 1.47.28 2.22.13 1.24.2 2.49.29 3.75 0 .63.11 1.26.14 1.9q.15 2.85.15 5.73c0 53.3-37.76 86-88 93.4 8.07 7.1 23.9 8.77 28.86 8.77A84.44 84.44 0 00526 294z"/>
  <path class="cls-5" d="M503.51 552.17l-24.22-49.86 1.43 59.78 22.79-9.92zM293.24 552.17l24.22-49.86-1.44 59.78-22.78-9.92z"/>
  <path class="cls-6" d="M510.62 315.92c0 61-49.46 95-110.47 95s-110.46-34-110.46-95a110.47 110.47 0 11220.93 0z"/>
  <path class="cls-7" d="M453 346.23c0 4.09-3 7.41-6.64 7.41s-6.64-3.32-6.64-7.41 3-7.41 6.64-7.41 6.64 3.32 6.64 7.41zM365.3 346.23c0 4.09-3 7.41-6.63 7.41s-6.64-3.32-6.64-7.41 3-7.41 6.64-7.41 6.63 3.32 6.63 7.41z"/>
  <path class="cls-4" d="M407.35 200a142 142 0 00108.53 125.5c.26-3.16.43-6.36.43-9.59A116.15 116.15 0 00407.35 200z"/>
  <path class="cls-4" d="M453 212.47c-15.27-7.36-33.31-12.47-51.37-12.47-64.15 0-116.08 52.83-116.08 117 0 3 .15 5.87.37 8.77a142.55 142.55 0 0026.64 2.51c69.51-.01 128.2-49.84 140.44-115.81z"/>
  <path class="cls-6" d="M399.89 411.1a154 154 0 01-20-1.3v27.5a20 20 0 0020 20 20 20 0 0020-20v-27.5a154 154 0 01-20 1.3z"/>
  <path class="cls-7" d="M341.95 311.93h35v1.67a3.06 3.06 0 01-3.06 3.06h-32a1.53 1.53 0 01-1.53-1.53v-1.67a1.53 1.53 0 011.53-1.53z" transform="rotate(173.36 358.6862427 314.306698)"/>
  <path class="cls-7" d="M433.58 311.93h32a3.06 3.06 0 013.06 3.06v1.67h-35a1.53 1.53 0 01-1.53-1.53v-1.67a1.53 1.53 0 011.47-1.53z" transform="translate(6 -8.43)"/>
  <circle class="cls-8" cx="349.6" cy="338.82" r="34.55" transform="rotate(-45 349.5950733 338.8229793)"/>
  <circle class="cls-8" cx="450.71" cy="338.82" r="34.55" transform="rotate(-45 450.7132081 338.8184765)"/>
  <path class="cls-8" d="M384.39 338.38h31"/>
  <path class="cls-2" d="M397.59 344a7 7 0 010 14M406.11 370.08s-8.22 5.3-13.72 0M313.52 314.37c62.13 0 114.58-44.53 125.5-103.49M313.52 304.48c56.19 0 103.63-40.27 113.51-93.6M427 247.81a135.32 135.32 0 0089.83 71.56M515.31 399.25a90.6 90.6 0 0028-65.63"/>
  <path class="cls-9" d="M196.41 564.73c1.62 28.17 61.5 26.92 61.5 26.92 18 1.76 79.77.51 104.44 4 3.68.52 11.33 2.42 15 1.87l45.48-7.78c8.29-1.24 41.12 9 45.63 1.91l-46.62-15.88-44.78 10.93-105.95-30.64"/>
  <path class="cls-9" d="M196.41 565.52s7.6-29.48 47.32-25c12 1.36 35 6.17 46.61 9.71 27.66 8.45 106.12 36.47 106.12 36.47 11.06.85 22.49-16.34 32-15.86 6.1.31 0 0 5.73.87a10.37 10.37 0 013.2 1l25.74 12.5c2 1.12 1.78 4.24-.28 5.77-1.77 1.32-4.76 2.91-9.85 2.34-3.78-.42-16.31-7.18-20-7.12-3.2.06-13.83 1.5-20.44 2.42-3.15.43-32.66 20.75-55.38 3"/>
  <path class="cls-2" d="M464.48 588.46s-9.25-1.07-7.82-6.08M477.66 589.74s-9.25-1.07-7.82-6.08"/>
  <path class="cls-9" d="M604.31 564.85c1.15 30.34-61.52 26.8-61.52 26.8-18 1.76-79.77.51-104.45 4-3.68.52-11.32 2.42-15 1.87l-45.47-7.78c-8.29-1.24-41.12 9-45.63 1.91l74.3-9.27 17.21-13.25 105.84-13.07"/>
  <path class="cls-9" d="M604.29 565.52s-7.6-29.48-47.32-25c-12 1.36-35 6.17-46.61 9.71C482.73 558.68 402 581.71 402 581.71c-11.07.85-8.63-10.16-17.8-7.5-25.91 7.52-12.55-3.15-17.67-2.5a9.56 9.56 0 00-3.2 1l-25.74 12.5c-2 1.12-1.78 4.24.27 5.77 1.78 1.32 4.76 2.91 9.86 2.34 3.77-.42 16.31-7.18 20-7.12 3.19.06 13.83 1.5 20.43 2.42 3.15.43 32.66 20.75 55.39 3"/>
  <path class="cls-10" d="M254.62 811.88h259.77V807c-8.39 0-15.55-10.2-15.55-22.79s7.16-22.8 15.55-22.8v-4.56h-260.3c-14.45 0-25.11 12.31-25.11 27.5.02 15.22 11.19 27.53 25.64 27.53z"/>
  <path class="cls-11" d="M254.46 815.88h264.9a4.14 4.14 0 004.19-3.64 4 4 0 00-4-4.36H254.34a23.55 23.55 0 01-23.55-23.55v-.9a23.55 23.55 0 0123.55-23.55h265a4.14 4.14 0 004.19-3.64 4 4 0 00-4-4.36H254.46a31.78 31.78 0 00-31.78 31.79v.42a31.78 31.78 0 0031.78 31.79z"/>
  <path class="cls-10" d="M283.44 719.88h278v2.47c-8.52 0-15.79 5.19-15.79 11.6s7.27 11.61 15.79 11.61v2.32H282.91c-14.68 0-11.37-6.27-11.37-14s-2.78-14 11.9-14z"/>
  <path class="cls-12" d="M560.09 751.88H287.84a17.5 17.5 0 01-17.5-17.5 17.49 17.49 0 0117.5-17.5h272.05a4.15 4.15 0 014.19 3.64 4 4 0 01-4 4.36H288a9.5 9.5 0 00-9.5 9.5 9.5 9.5 0 009.5 9.5h271.89a4.15 4.15 0 014.19 3.64 4 4 0 01-3.99 4.36zM537.39 591.88h12v58h-12zM513.39 591.88h12v58h-12zM291.39 591.88h12v58h-12z"/>
  <path class="cls-10" d="M440.71 875.88H253.16a28.28 28.28 0 01-28.28-28.28v-.44a28.28 28.28 0 0128.28-28.28h187.55c.14 0 9.68.11 9.68.25v56.5c0 .14-9.54.25-9.68.25z"/>
  <path class="cls-12" d="M441.63 879.88H255.06a32.4 32.4 0 01-32.4-32.4v-.2a32.39 32.39 0 0132.4-32.4h186.57l4.94.07 3.34.08c1.36.05 5.48.19 5.48 4.23v56.24c0 4-4.12 4.18-5.48 4.22l-3.34.08c-2.43.05-4.87.08-4.94.08zm-.71-57H256.29a24 24 0 00-24 24 24 24 0 0024 24h184.64c.65 0 3.22 0 5.46-.09V823z"/>
  <path class="cls-10" d="M452.65 819.88h117.74v4.84c-8.39 0-15.55 10.21-15.55 22.8s7.16 22.8 15.55 22.8v4.56H452.13c-14.45 0-11.19-12.31-11.19-27.5s-2.74-27.5 11.71-27.5z"/>
  <path class="cls-12" d="M570.79 878.88H452.31c-9.94.61-17.92-17.42-17.92-17.42V833s8-18 17.92-18.09h118.48a4.21 4.21 0 014.12 4.17 3.72 3.72 0 01-4.12 3.83H452.31c-5.4.29-9.92 10.09-9.92 10.09v28.49s4.52 9.79 9.92 9.42h118.48a4.73 4.73 0 014.12 4.49c0 2.24-1.85 4.09-4.12 3.48z"/>
  <path class="cls-11" d="M423.39 712.88h100a28.28 28.28 0 0028.28-28.28v-.44a28.28 28.28 0 00-28.28-28.28h-100z"/>
  <path class="cls-11" d="M419.39 651.88h103.49a32.5 32.5 0 0132.5 32.5 32.5 32.5 0 01-32.5 32.5H419.39z"/>
  <path class="cls-10" d="M427.87 656.88H235.39v4.84c8.39 0 15.55 10.21 15.55 22.8s-7.16 22.8-15.55 22.8v4.56h193c14.45 0 11.19-12.31 11.19-27.5.01-15.19 2.74-27.5-11.71-27.5z"/>
  <path class="cls-11" d="M234.68 715.88h193.68a18 18 0 0018-18v-41.74a4.26 4.26 0 00-4.26-4.26h-209a1 1 0 00-.7.27c-3.71 3.48-1.23 7.73 2.28 7.73h179.64a24 24 0 0124 24 24 24 0 01-24 24H234.76a4.14 4.14 0 00-4.12 3.19 4 4 0 004.04 4.81z"/>
  <path class="cls-4" d="M266.19 847.09a12.34 12.34 0 10-12.33 12.33 12.34 12.34 0 0012.33-12.33zM273.39 839.88h149v15h-149z"/>
  <path fill="#ff9e18" d="M272.39 779.88h-26v20.98l13-4.32 13 4.32v-20.98z"/>
  <path class="cls-10" d="M576.34 599.6v-4.67h25.05-178v56.9H576.34v-4.92c-13.07 0-24.2-10.6-24.2-23.63s11.13-23.65 24.2-23.68z"/>
  <path class="cls-4" d="M483.32 646.88c-20.15 0-35.7-25.35-12.38-45.89a4.53 4.53 0 013-1.11h102.45v-4.94h25.11l-340.13-.71c-41.39 0-54.57 13.12-54.57 29.35a29.36 29.36 0 0029.41 29.36l340.13-.71V647h-93.02z"/>
  <path class="cls-10" d="M428.5 622.88a10 10 0 00-10-10H289.27a9.88 9.88 0 00-9.88 9.88v.24a9.88 9.88 0 009.88 9.88H418.5a10 10 0 0010-10z"/>
  <circle class="cls-10" cx="243.42" cy="623.37" r="13.69" transform="rotate(-60.57 243.4181513 623.374586)"/>
  <path class="cls-11" d="M387.39 594.88h-183a12.87 12.87 0 01-12.73-13h195.73zM596.44 594.88H413.39v-13h195.77a12.86 12.86 0 01-12.72 13z"/>
  <path class="cls-11" d="M399.89 601.49a16.51 16.51 0 01-16.5-16.49v-4.09h33V585a16.51 16.51 0 01-16.5 16.49z"/>
  <path class="cls-14" d="M596.89 581.51v-32.38s-138.12-22.36-195.41 33.25z"/>
  <path d="M223.92 515.12s117.1 4.34 176.31 67.56" stroke="#fff" stroke-width="3.29" stroke-miterlimit="10" fill="none"/>
  <path class="cls-14" d="M204.89 581.51v-32.38s138.11-22.36 195.4 33.25zM204.83 558.06s86.12-10.52 127.41 1M468.28 564.64s73.76-13.51 128.17-1.29M596.45 571.5s-33.78-6.7-68.68-4.31M204.83 571.5s36.21-5.42 86.39-2.41"/>
  <path class="cls-4" d="M1092.53 844.91l-68.33 25-400.75-2.36s47.54-166.66 52-188.63c6.63-32.84 36.12-56.07 69.63-56.08 81.22 0 156.07 4.38 222.57 7.32a89.7 89.7 0 0177.53 52.11l53.78 131.28a23.88 23.88 0 01-6.43 31.36z"/>
  <path class="cls-16" d="M962.39 746.74v79.69l16.36-13.61-16.36-66.08zM710.24 740.24l5.8 113.01-28.19 4.8 22.39-117.81z"/>
  <path class="cls-17" d="M1102.26 830.83c.54 45.75-105 38.29-105 38.29-26.92 2.17-118.84-1.22-155.69 3.37-5.49.68-16.93 3.33-22.39 2.42L751.6 862.2c-12.33-2.05-61.48 12.37-68 1.72l69.83-22.52 67-8.77 158-16.87"/>
  <path class="cls-18" d="M640.89 878.38H819a4.8 4.8 0 004.8-4.8 19.2 19.2 0 00-19.2-19.2H640.89z"/>
  <path class="cls-3" d="M710.31 449.62l10.21 29.68 10.35-25.04-20.56-4.64z"/>
  <path class="cls-6" d="M717.77 495.48a97.73 97.73 0 01194.75 16.6l-2.32 27.23a97.73 97.73 0 01-194.75-16.6z"/>
  <path class="cls-19" d="M812.65 527.54a7.09 7.09 0 11-6.45-7.8 7.16 7.16 0 016.45 7.8zM740.72 521.41a7.09 7.09 0 11-6.45-7.8 7.15 7.15 0 016.45 7.8z"/>
  <path class="cls-6" d="M900.1 627.45l-12.47-33.58a97.56 97.56 0 01-83.1 34.51c-.4 0-.78-.09-1.18-.13q-3.9-.33-7.74-1l12.71 34.24a49.21 49.21 0 0091.78-34.07z"/>
  <path class="cls-7" d="M749.68 494.59l-39.44-3.36a10.94 10.94 0 0111.82-10l28.54 2.43a5.48 5.48 0 015 5.91 5.47 5.47 0 01-5.92 5.02zM843.89 502.62l-39.43-3.36a5.48 5.48 0 01-5-5.91 5.47 5.47 0 015.91-5l28.55 2.43a10.93 10.93 0 0110 11.82z"/>
  <path class="cls-3" d="M828.39 406.83a97.59 97.59 0 00-10.65-.32l9.61 5 31.31 44L872.79 510l11.56 1A21.58 21.58 0 01904 534.31c-1 11.87-11 20.72-26 19.44l9.1 42.8 1.79.71c17.94-15.88 24.5-36.92 26.26-57.53l2.32-27.23a97.73 97.73 0 00-89.08-105.67z"/>
  <path d="M886.19 529.06s-7.91-1.77-9.36 7.8a6.71 6.71 0 015.57-3.35" stroke-linecap="round" stroke-linejoin="round" stroke-width="3" stroke="#384349" fill="none"/>
  <path class="cls-10" d="M887.7 599.47l-5.89-27.8L834.74 610l13.62 27.85 39.34-38.38z"/>
  <circle class="cls-21" cx="738.9" cy="517.32" r="30.77" transform="rotate(-40.13 738.8923989 517.3229243)"/>
  <circle class="cls-21" cx="813.56" cy="523.69" r="30.77" transform="rotate(-7.71 813.5557806 523.6669371)"/>
  <path class="cls-21" d="M769.57 519.94l12.79 1.09"/>
  <path class="cls-3" d="M860.7 460.82a15.13 15.13 0 01-16.35 13.79l-109.75-9.34c-26.34-2.24-47-24.55-46-51 0-.79.08-1.59.15-2.39 0 0 29 2.52 40 3.51-12.75-10.67-16.7-26.39-15.66-38.53l97.64 8.33 30.08 2.56a26.47 26.47 0 0124.13 28.62l1.84-21.62a56.85 56.85 0 0151.67 61.57c-1.11 13-6.82 26.29-16.52 35.16l-10.47-5a81.67 81.67 0 01-30.76-25.64z"/>
  <path class="cls-2" d="M738.7 390.33l98.37 8.38a17.66 17.66 0 0116.09 19.09l-.62 7.26A17.64 17.64 0 00836.45 406L752 398.78M751.03 426.56l-49.09-4.18M687.85 437.88a44.14 44.14 0 01-5.1-22.5l.73-8.5M789.25 569.05a24.46 24.46 0 01-27.08-3.7"/>
  <path class="cls-21" d="M842.83 515.06l27.31-10.39a18.93 18.93 0 0123.08 9.33"/>
  <path class="cls-2" d="M871.49 510.43l12.83 1.09A21.57 21.57 0 01904 534.85a21.57 21.57 0 01-23.33 19.67l-4.68-.4M775.14 553.45a11.91 11.91 0 012-23.74"/>
  <path class="cls-6" d="M920.77 544.92a207.15 207.15 0 01-5.48 22.39M920.08 481.9s3.59 11 3.71 30.12"/>
  <path class="cls-17" d="M767.48 858.05c-11.24-11.34-28.71-6.55-50.15-9.89-5.11-.8-12.46-3.86-21.68-.25-5.07 2-11.57 4.34-17.14 5.34-4.86.87-12.06-1.34-14.73-3.28-3.1-2.23-3.48-6.88-.54-8.58l58-22.27a10.62 10.62 0 019.59 0c8.81 4.39 60.24 16.22 66.33 20.65"/>
  <path class="cls-17" d="M774 858.05c-11.24-11.34-28.71-6.55-50.15-9.89-5.11-.8-12.46-3.86-21.68-.25-5.07 2-11.57 4.34-17.14 5.34-4.86.87-12.06-1.34-14.73-3.28-3.1-2.23-3.48-6.88-.54-8.58L733 819.71a10.65 10.65 0 019.59-.06c8.81 4.4 55.06 15.64 61.15 20.07"/>
  <path class="cls-17" d="M1102.26 830.83s-12.48-45.36-82.67-37.53c-17.92 2-52.32 8.32-69.66 13.31C908.57 818.51 805 833.9 805 833.9s-26-2.74-40.18-3.52c-9.09-.5-20.37-1.43-29-1a15.28 15.28 0 00-4.91 1l-40.09 14.49c-3.13 1.34-3.3 6-.5 8.59 2.42 2.23 6.59 5 14.23 5 5.66 0 25.29-8.08 30.69-7.41 4.72.58 20.25 4.4 29.9 6.78 4.59 1.14 45.12 35.88 81.57 13.18l11.65-5.94"/>
  <path class="cls-18" d="M416.31 878.38h270.57l-43.46-174.67a17.57 17.57 0 00-17-13.33H380.78a8.79 8.79 0 00-8.53 10.91z"/>
  <path class="cls-10" transform="rotate(-160.19 519.6535524 787.5573303)" d="M502.11 778.92h35.08v17.29h-35.08z"/>
  <path class="cls-3" d="M484.62 774.95l15.59 14.8 5.86-16.26-21.45 1.46zM509.31 783.84a4.59 4.59 0 105.86-2.76 4.58 4.58 0 00-5.86 2.76zM539.07 785.19l19.62 1.84-12.17 5.64 13.36 9.21-15.24-.06 5.26 10.82-16.69-11.18 5.86-16.27z"/>
  <path class="cls-10" d="M421.05 809.13c-8.13.92-24.65-.55-32.22 5.39-16.17 12.68 17.27 11.91 17.27 11.91-22.55.48-20.9 16-7.19 16-11.17 1.53-7.53 10.17-.68 11.79-9.47 8-1.93 14 7.15 13.32 11.2-.88 19.5-3.26 19.85-9.07.19-3.25-4.74-5.47-11.19-5.38h.06s27.52-4.4 25.5-19c0 0 2.76-3.6 1.8-7.72-.54-2.36-8.06-2.53-9.45-6.08-.46-1.17 2.95-3.82 2.37-5.12-1.98-4.37-5.75-6.89-13.27-6.04z"/>
  <path class="cls-22" d="M398.23 854.24c-9.47 8-1.93 14 7.15 13.32 11.2-.88 19.5-3.26 19.85-9.07.22-3.71-6.24-6.08-14-5.2 6.94-1.85 30.6-3.06 28.37-19.14 0 0 8.39-13.39-9.43-12 0 0 4.92-3.9 4.07-7.87-1.42-6.6-10.07-5.8-17.58-5-8.14.92-11.24 1.07-22.52 2.78-16.2 2.46-13.93 16.35 8.79 14.55 13.26-1.05 30.27-5.22 30.27-5.22"/>
  <path class="cls-17" d="M414.1 853.1s-5.87 1-13.05 1.39c-8.48.51-14.77-10.32-2.14-12"/>
  <path class="cls-22" d="M406.1 826.43c-22.55.48-20.9 16-7.19 16 0 0 33.68-1.76 41.55-10M653.89 250.38h161v95H689.72l-6.75 20.04-6.44-20.04h-22.64v-95z"/>
  <circle class="cls-11" cx="756.75" cy="298.57" r="6.32"/>
  <circle class="cls-11" cx="732.88" cy="298.57" r="6.32"/>
  <circle class="cls-11" cx="709.02" cy="298.57" r="6.32"/>
  <path class="cls-22" d="M253.89 430.82l20.11-6.73-20.11-6.42v-25.29h-161v95h161v-56.56z"/>
  <path class="cls-23" d="M110.22 456.49s-2.85-28.93 24.71-28.59c17.43.22 23 25.9 16.23 32s-17.57-30.43 13.54-38.28 39.7 33.12 29.25 38.28c-11.43 5.65-20-36 11.61-37.54C240 420.64 236 461.89 236 461.89"/>
  <g opacity=".2">
    <path class="cls-11" d="M218.39 192.88v11h-39.64l24.64 31.47V241l-24.64 31.88h39.64v10h-54v-10.49L191.72 238l-27.33-34.58v-10.54zM88.39 631.88V674q0 5.12 1.3 7.35a10.45 10.45 0 004.7 3.84l-3.78 9.3q-8-2-11.09-6.27t-3.13-12.74v-43.6l-25 .13v60.87h-12V631a56.6 56.6 0 00-6.47.27 40.82 40.82 0 00-5.53 1.2l-2.16-9.6a34.82 34.82 0 016.41-1.6 61.38 61.38 0 018-.4h59.75v10zM1025.53 321.54a24 24 0 019 10.18 34.6 34.6 0 010 28 23.41 23.41 0 01-9 10.11 27.22 27.22 0 01-14.69 3.77 25.94 25.94 0 01-14.9-4.6 37.92 37.92 0 01-11.47-12.47 39.28 39.28 0 01-11.12 12.61 25.65 25.65 0 01-15.17 4.51 26.59 26.59 0 01-14.63-3.84 23.83 23.83 0 01-9-10.18 34.6 34.6 0 010-28.05 23.33 23.33 0 019-10.11 27.32 27.32 0 0114.7-3.77 26.29 26.29 0 0114.83 4.58 37 37 0 0111.46 12.54 39.54 39.54 0 0111.26-12.67 25.66 25.66 0 0115-4.45 26.59 26.59 0 0114.73 3.84zm-55.42 37.15q4.78-4.72 9.24-13.76a50.66 50.66 0 00-8.56-12.06 16.63 16.63 0 00-12.47-5.06 12.66 12.66 0 00-10.25 4.72q-3.92 4.73-3.91 13.08t3.91 13.08a12.69 12.69 0 0010.25 4.72 16.16 16.16 0 0011.79-4.72zm50.91.13q3.9-4.71 3.91-13.08t-3.93-13.08a12.7 12.7 0 00-10.25-4.72 16 16 0 00-11.67 4.59q-4.65 4.59-9.5 13.75a50.77 50.77 0 008.63 12.14 16.77 16.77 0 0012.54 5.12 12.67 12.67 0 0010.25-4.72zM666 179.38l-37.82 42.35-9.21-7.84 18.56-20.35a51.59 51.59 0 019.63-8.66h-72.77v-11h72.74a31.09 31.09 0 01-4.61-3.37c-1.15-1-2.82-2.82-5-5.29l-18.56-20.35 9.21-7.84z"/>
  </g>
  <path class="cls-23" d="M158.89 204.88v-17.5h32.5M641.03 137.99l37.08 41.53-37.08 41.53M87.39 616.38h17.5v10.5M44.39 697.38h-10.5v-17.5M1038.36 331.77a36.06 36.06 0 010 29.21M926.53 342.74a35.55 35.55 0 013.23-15.28 25.54 25.54 0 019.84-11q6.61-4.11 16-4.11"/>
</svg>
