<svg id="Layer_1" data-name="Layer 1" xmlns="http://www.w3.org/2000/svg" viewBox="0 0 1150 1034">
  <defs>
    <style>
      .cls-2{fill:#33b596}.cls-18,.cls-3{fill:#f69c1c}.cls-4{fill:#a453ff}.cls-15,.cls-24,.cls-5,.cls-6{fill:#fff}.cls-10,.cls-11,.cls-24,.cls-25,.cls-5{stroke:#384349}.cls-10,.cls-12,.cls-14,.cls-19,.cls-23,.cls-29,.cls-30,.cls-31,.cls-5{stroke-miterlimit:10}.cls-10,.cls-11,.cls-12,.cls-15,.cls-18,.cls-19,.cls-23,.cls-24,.cls-25,.cls-5{stroke-width:3px}.cls-10,.cls-11,.cls-12,.cls-14,.cls-19,.cls-23,.cls-25,.cls-29,.cls-31{fill:none}.cls-11,.cls-15,.cls-18{stroke-linecap:round}.cls-9{fill:#384349}.cls-11,.cls-15,.cls-18,.cls-24,.cls-25{stroke-linejoin:round}.cls-12{stroke:#f69c1c}.cls-14,.cls-29,.cls-30,.cls-31{stroke:#fff}.cls-15,.cls-18,.cls-19{stroke:#394349}.cls-30{fill:#07c39f}.cls-22{fill:#394349}.cls-23{stroke:#07c39f}.cls-30{stroke-width:2px}.cls-29{stroke-width:.65px}.cls-31{stroke-width:.76px}
    </style>
  </defs>
  <path d="M1067.14 390.5c0 181.78-242.64 453.6-424.42 453.6S153.38 903 174.77 506c9.77-181.56 251.39-411.77 433.16-411.77s459.21 114.5 459.21 296.27z" fill="#ebf0f2"/>
  <path class="cls-2" d="M829.6 723.65l-11.69 85.8-132.52-49.34v-36.46H829.6z"/>
  <path class="cls-3" d="M618.95 463.52l-70.21 193.96 197.13 22.38-126.92-216.34z"/>
  <path class="cls-4" d="M956.39 483.34c-5.52 0-10-4.08-10-9.12v-185.4c0-5 4.48-9.12 10-9.12s10 4.08 10 9.12v185.4c0 5.04-4.48 9.12-10 9.12zM1084.39 482.89c-5.52 0-10-4.08-10-9.12v-287c0-5 4.48-9.12 10-9.12s10 4.08 10 9.12v287c0 5.04-4.48 9.12-10 9.12zM1138.39 484.24c-5.52 0-10-4.12-10-9.2V89.85c0-5.08 4.48-9.2 10-9.2s10 4.12 10 9.2V475c0 5.12-4.48 9.24-10 9.24z"/>
  <path class="cls-5" d="M1040.05 461.3c-4 15.31-37.46 39.29-37.46 39.29l-56.32 163.28A38 38 0 01922 687.06a38 38 0 01-44.51-17.51l-42.42-92.36s20.29-19.19 55.27-47.38l19.15 41.37"/>
  <path class="cls-6" d="M1020.92 483.51l22.41-38.89-9.59-53.59-29.77 8.98-21.14 29.63-69.15 164.64 74.29-84.93 32.95-25.84z"/>
  <path stroke-linecap="round" stroke="#a453ff" fill="none" stroke-width="3" stroke-miterlimit="10" d="M987.97 325.43l29.11 81.69"/>
  <path class="cls-5" d="M893 604.17l65.38-130.26s6.31-28.11 8.48-41.11c1.08-6.49 8.7-14.95 13.39-18.79a120.86 120.86 0 0016.46-16 12.41 12.41 0 016.52-4.22c3.09-.76 6.76-.38 8.2 4.82 2.69 9.7-15.79 25.21-15.79 25.21s3.67 3.21 2.88 15.27c0 0 10.9-.2 15 5.19M1042.4 457.2s-5.79-2.73-10.17-.56c-3.76 1.86-6.27 5.58-4.54 9.1a8.4 8.4 0 006.64 4.48l7.49.89s6.07.94 8.67-6.54 5.44-14 .73-19"/>
  <path class="cls-5" d="M1046.22 421.84a14.83 14.83 0 016.4 12.16c-.11 8.09-.38 18.82-13.15 20.93-14.08 2.33-21.07-.74-17.72-8.81 5.12-7.2 20.31-7.61 20.31-7.61"/>
  <path class="cls-5" d="M1041.53 405.61s8.23 3.95 8.12 12-2.09 19-14.87 21.06c-14.08 2.33-24.53.08-19.45-10.41 5.12-7.21 21.75-8.94 21.75-8.94"/>
  <path class="cls-5" d="M1011.39 398.62s19-16.1 28.54-14.11 6.7 9.22.65 23.32c-7.66 17.86-19.75 12.35-18 4.06 1.94-9 4.23-15.91 4.23-15.91"/>
  <path class="cls-4" d="M1069.09 550.09l-24.73-78.17a8.24 8.24 0 01-2.69.19l-7.46-.89a9.34 9.34 0 01-7.43-5c-1.78-3.63.23-7.28 3.42-9.5-4.4-.16-7.47-1.26-9.06-3.26s-1.64-4.52-.32-7.68l.11-.2a15.87 15.87 0 016.77-5c-5.35.24-11.05-.4-13.49-3.68-1.66-2.22-1.59-5.24.21-9l.09-.14c2.52-3.55 7.52-5.81 12.17-7.23a4.34 4.34 0 01-.48-.14c-3.49-1.11-5.42-4.76-4.58-8.67.52-2.39 1.06-4.64 1.57-6.65l-25.6-82.65a10.09 10.09 0 00-19.24 6.09l20.36 66.07c1.87-1 5.88-2.87 9.25-1.63 2.14.78 3.62 2.61 4.4 5.44 1.45 5.23-2.62 11.83-7 17.1l8.94 28.27.18.24v.31l35.41 111.9a10.08 10.08 0 008.43 7 10.23 10.23 0 004.23-.4 10.09 10.09 0 006.54-12.72z"/>
  <path class="cls-3" d="M843.66 733.65l-250.2.81 24.23-260.28a46.53 46.53 0 0146.53-46.53h154a46.53 46.53 0 0146.53 46.53l-2.09 27.55z"/>
  <path class="cls-2" d="M637.88 308.86a34.91 34.91 0 007.87-18.2 107.88 107.88 0 01124.34-95.05 58.22 58.22 0 0113.1-4.77c29.53-6.84 60 10.27 77.39 40.25l-17.9 4.15-.28-.24c-.64-.54-1.3-1.05-2-1.57s-1.4-1.13-2.12-1.68-1.36-1-2-1.48-1.46-1.06-2.2-1.56-1.4-.93-2.1-1.39-1.51-1-2.27-1.45-1.45-.86-2.17-1.29l-2.33-1.34c-.74-.4-1.49-.79-2.24-1.18s-1.59-.83-2.39-1.23-1.53-.72-2.29-1.07l-.41-.18 3.66 42.23-3.94 62.59s-15.28 31-37.69 58a81.66 81.66 0 11-142-73.57z"/>
  <path d="M719.15 390.05l60.66-7.33a81.7 81.7 0 01-89.36 58.5c-1.84-.24-3.64-.58-5.44-.94 38.19-11.22 34.14-50.23 34.14-50.23z" fill="#269d80"/>
  <path class="cls-5" d="M780.55 402.68a123.6 123.6 0 01-29-3.35l-8.12 21.79a19.67 19.67 0 0012.92 24.64A19.68 19.68 0 00781 432.83l11.45-30.71c-3.89.36-7.86.56-11.9.56z"/>
  <path class="cls-5" d="M881.05 293.26c13.46 58-22.25 100.41-75.56 112.77s-104-10-117.48-68 18.84-115.11 72.15-127.47 107.43 24.66 120.89 82.7z"/>
  <path class="cls-6" d="M705.54 343.07l-7.89 1.83a12.68 12.68 0 00-9.48 15.21 12.68 12.68 0 0015.21 9.48l2-.47z"/>
  <path class="cls-2" d="M763.9 201.14a138.73 138.73 0 00130.94 95.45c-.46-3.08-1-6.15-1.72-9.23a113.41 113.41 0 00-129.22-86.22z"/>
  <path class="cls-2" d="M810.06 202.92c-16.13-3.63-34.41-4.5-51.6-.52-61 14.15-98.76 75.87-84.61 136.89.66 2.81 3.14 14.85 4 17.56 9.34-6.42 15.53-10.78 24.2-12.79 66.1-15.33 110.95-75.68 108.01-141.14z"/>
  <path class="cls-9" d="M798.83 330.1c1.62 3.92.09 8.28-3.43 9.73s-7.67-.56-9.29-4.48-.09-8.28 3.43-9.73 7.67.55 9.29 4.48zM867.09 310.68c1.38 4-.4 8.27-4 9.51s-7.63-1-9-5 .4-8.27 4-9.52 7.61 1 9 5.01z"/>
  <path class="cls-10" d="M841.31 349a15 15 0 01-23.83 5.53"/>
  <path class="cls-9" d="M763 312.07h35v3.29a1.33 1.33 0 01-1.33 1.33H763a.66.66 0 01-.66-.66v-3.29a.66.66 0 01.66-.66z" transform="rotate(160.31 780.2069487 314.3531426)"/>
  <path class="cls-9" d="M839.7 290.58h33.71a1.33 1.33 0 011.33 1.33v3.29h-35a.66.66 0 01-.66-.66v-3.29a.66.66 0 01.66-.66z" transform="rotate(-11.98 856.776904 292.867135)"/>
  <path class="cls-10" d="M829.16 325.22a6.84 6.84 0 113.09 13.33"/>
  <path class="cls-11" d="M695.7 355.73l9.1 3.12-6.08 1.41"/>
  <path class="cls-10" d="M705.68 343.07l-7.89 1.83a12.67 12.67 0 00-9.48 15.21 12.67 12.67 0 0015.2 9.48l2-.47"/>
  <circle class="cls-12" cx="789.52" cy="334.88" r="25.62" transform="rotate(-53.35 789.5974154 334.8720427)"/>
  <circle class="cls-12" cx="863" cy="312.93" r="25.62" transform="rotate(-36.81 863.0218659 312.92539)"/>
  <path class="cls-12" d="M815.14 325.04l22.28-6.86M764.3 330.42l-58.62 12.65"/>
  <path class="cls-10" d="M890.73 278.87a118.28 118.28 0 01-96.2-50.56M810.76 225.82a99.12 99.12 0 0065.86 35.89M699 331.17c58.38-13.54 98-66.82 95.38-124.62M629.33 370A81.43 81.43 0 01647 308.86M686.91 204.92a107.74 107.74 0 0134.77-14.84M638.79 283.7a108.22 108.22 0 0132.08-65.9"/>
  <path class="cls-3" d="M913.68 547.85l-65.89 82.19-37.87-48.59 50.05-127.69 53.71 94.09z"/>
  <path fill="#eb8b22" d="M852.39 623.92l1.54-133.08 22.22 103.44-23.76 29.64z"/>
  <path class="cls-14" d="M646.99 563.22l3.06-26.75-3.06-12.76"/>
  <path class="cls-15" d="M683.15 775.04l286.65-18.11 140.98 33.88-250.19 29.7-177.44-45.47z"/>
  <path d="M1111.45 789.77l-253 30.2 33.1-154.67a14.2 14.2 0 0112.19-11L1133.1 627a9.93 9.93 0 0110.9 12z" stroke="#394349" stroke-width="3" stroke-miterlimit="10" fill="#33b596"/>
  <path d="M1112.45 790.77L857.54 821l-174.39-45.8.93 7.87L851.25 827a39.27 39.27 0 0014.64 1l239.48-28.43a7.88 7.88 0 006.92-7.12z" fill="#32b292"/>
  <path class="cls-15" transform="rotate(-160.19 1002.7719773 726.3204494)" d="M981.51 715.85h42.5v20.95h-42.5z"/>
  <path class="cls-18" d="M960.32 711.04l18.9 17.94 7.1-19.71-26 1.77z"/>
  <path class="cls-3" d="M990.24 721.82a5.55 5.55 0 107.11-3.35 5.55 5.55 0 00-7.11 3.35z"/>
  <path class="cls-18" d="M1026.3 723.93l23.77 2.23-14.74 6.84 16.19 11.15-18.47-.07 6.37 13.11-20.22-13.54 7.1-19.72z"/>
  <path class="cls-6" d="M330 746.23l-69.5-149.75s-7.62-16.9-43.87-14.86c-30.81 1.73-54.51 6.14-66.37 12.6-6 3.26-7.12 11.7-1.81 16 3 2.42 8.08 4.29 16.4 4.52l-8.71-1.06.78 10.66 22.18 32.11 45.44 18.2 57.37 103.67z"/>
  <path class="cls-19" d="M346.77 746.23l-86.3-149.75s-7.62-16.9-43.87-14.86c-30.81 1.73-54.51 6.14-66.37 12.6-6 3.26-7.12 11.7-1.81 16 3 2.42 8.08 4.29 16.4 4.52l25.89.72M171.94 643.26c-1.44 15.11 24.52 20.58 24.52 20.58l28 10.77L273 762.23M196.46 645.14s-25.89 10.07-33.08-15.1M192.15 634.84s-42.47 3-36-21.2"/>
  <path class="cls-3" d="M189.59 616.77a67.71 67.71 0 00-28.53-52.52l28.21-41a117.58 117.58 0 01-58.17 213.54L129 687a67.85 67.85 0 0060.59-70.23z"/>
  <path d="M116.93 502.1a117.09 117.09 0 0167 17.68l-28.26 41a67.85 67.85 0 00-92.18 24l-42.11-26.36a117.46 117.46 0 0195.55-56.32z" fill="#fbd435"/>
  <path d="M4.33 624.46a116.9 116.9 0 0113.43-59.67l42.35 26.54a67.87 67.87 0 0062.59 96.09l2.06 49.7A117.57 117.57 0 014.33 624.46z" fill="#07c39f"/>
  <path class="cls-6" d="M252.56 618.29s-36-19.41-42.43-23.73-20.14 0-10.07 15.82c6.29 9.89 12.58 18 19.58 24.17a38.26 38.26 0 0112.85 23.37c1.3 9.17 6 26.18 20.07 38.36l24 13.66z"/>
  <path class="cls-19" d="M252.56 618.29s-36-19.41-42.43-23.73-20.14 0-10.07 15.82c6.71 10.55 13.42 19.11 21 25.37a32.77 32.77 0 0111.34 21.39c1.14 9.25 5.75 26.62 20.17 39.14"/>
  <path class="cls-22" d="M756.94 753.8L718.8 629.27c-11.42-34.87-23.93-57-54.8-60.84l-89.93-13.26.44.94A49.2 49.2 0 01486 597.85l-13.07-27.73-17.37 2.56-26.08 4.05c-32.06 3-49.15 26.11-57.81 61.65l-13.22 120.37-47.16-77.4L249 741.9l60.22 121.76c23 34.65 42.54 46.91 80.6 46.91l144.53-13.83-1.35 26.6 196.13-59c55.3-19.99 45.12-63.04 27.81-110.54z"/>
  <path class="cls-3" d="M370.31 395.04l12.7 28.7 8.18-25.82-20.88-2.88z"/>
  <path class="cls-5" d="M381.89 440.13a97.49 97.49 0 0192.87-97.39c55.82-2.61 102.13 42.9 102.13 98.78V466c0 55.87-46.31 101.39-102.13 98.78a97.51 97.51 0 01-92.87-97.39z"/>
  <ellipse class="cls-22" cx="471.81" cy="463.98" rx="7.09" ry="7.22"/>
  <ellipse class="cls-22" cx="399.62" cy="463.98" rx="7.09" ry="7.22"/>
  <path class="cls-5" d="M574.51 556.11l-15.27-32.4a97.58 97.58 0 01-79.87 41.44h-1.18q-3.92 0-7.8-.31l15.57 33a49.2 49.2 0 0088.55-41.74z"/>
  <path class="cls-9" d="M413.46 436.65h-39.83a11 11 0 0111-11h28.83a5.5 5.5 0 015.5 5.5 5.5 5.5 0 01-5.5 5.5zM508.06 436.65h-39.83a5.5 5.5 0 01-5.5-5.5 5.5 5.5 0 015.5-5.5h28.83a11 11 0 0111 11z"/>
  <path class="cls-3" d="M484.66 342.63a98.21 98.21 0 00-10.63.59l10 4.18L519 388.54l18.71 53.11h11.13c11.47 0 21.66 9.35 22 20.81.41 12.27-8.87 22.35-24.26 22.35l12.71 41.87 1.84.56c16.53-17.35 21.28-38.87 21.28-59.56v-27.33a97.72 97.72 0 00-97.75-97.72z"/>
  <path class="cls-11" d="M552.3 459.25s-8-1.09-8.66 8.57a6.7 6.7 0 015.27-3.8"/>
  <path class="cls-6" d="M559.79 529.28l-8.24-27.2-43.64 42.19 15.94 26.59 35.94-41.58z"/>
  <circle class="cls-23" cx="404.55" cy="460.07" r="30.77"/>
  <circle class="cls-23" cx="479.48" cy="460.07" r="30.77"/>
  <path class="cls-23" d="M435.39 460.15h13"/>
  <path class="cls-3" d="M520.94 393.57a15.08 15.08 0 01-15.08 15.08H396c-26.36 0-48.8-20.4-50-46.74 0-.8-.05-1.59-.05-2.39 0 0 29 .05 40 .1-13.65-9.55-18.87-24.84-18.87-37H495a26.4 26.4 0 0126.4 26.4v-21.61a56.67 56.67 0 0156.54 56.8c0 13-4.54 26.69-13.43 36.32l-10.82-4.09a81.39 81.39 0 01-32.74-22.87z"/>
  <path class="cls-10" d="M393.39 334.15h98.85a17.65 17.65 0 0117.65 17.65v6.3c0-9.36-7.9-17-17.65-17h-84.85M409.39 368.15h-50M346.88 385.24a44.09 44.09 0 01-7-22v-8.61M459.11 507.34a24.5 24.5 0 01-27.3-1.39"/>
  <path class="cls-23" d="M507.91 449l26.33-12.68a18.94 18.94 0 0123.76 7.33"/>
  <path class="cls-10" d="M536.39 442.15H549a21.5 21.5 0 0121.5 21.5 21.5 21.5 0 01-21.5 21.5h-4.57M443.73 493a11.92 11.92 0 010-23.83"/>
  <path class="cls-5" d="M588.1 472.12a202.48 202.48 0 01-3.56 22.78M582.06 409.39s4.52 10.66 6.26 29.69"/>
  <path class="cls-14" d="M651.2 741.35c.54 10.66 5.5 33.69 8 40.93-31.86 14.87-81.92 37-81.92 37M358.45 758.75s17.36 45.6 22.3 55.46"/>
  <path class="cls-5" d="M548.67 883.23c1.2 23.39-13.56 39.28-34.9 48.92s-53.75 18.52-90.28 9c-9.18-2.39-15.58-6.87-15-12 .44-4.07 3.47-3.82 3.47-3.82S388 916 389.08 907.2l-9.24-14.32s-9.53-9.94.71-15.12c7.72-3.9 26 8 40.91 6.44 18.44-1.86 36.54-12.14 42.54-21.56 0 0 2.68-3.8-1.31-6-16.83-9.17-25.46-22.67-26.51-33.59s5-17.25 8.12-15.93c4 4.27 23.19 29.8 55.75 37.17 11.3 2.59 46.56-1.29 48.62 38.94z"/>
  <path class="cls-24" d="M409.2 924.19s18.2 8.86 33.41 7.89a90.19 90.19 0 0021.81-4"/>
  <path class="cls-5" d="M457.92 912.39s-24.13 7.32-35.85 4.47C388.51 908.69 386 905.1 386 905.1l-3.42-2a9.07 9.07 0 01-3.8-4.84c-1.32-3.54 2.48-4.46 2.48-4.46"/>
  <path class="cls-25" d="M453.28 894.72s-25.9 11.91-43.28 8.39c-27.88-5.65-31.59-11.57-31.59-11.57"/>
  <path class="cls-14" d="M671.56 572.68s-35.7 7.07-43 51.62"/>
  <path class="cls-22" d="M532.97 923.34l-23.37-77.82 60.21-2.98-2 57.99-34.84 22.81z"/>
  <path class="cls-14" d="M659.2 782.28l14 3.15"/>
  <path d="M759.16 887.65a114.08 114.08 0 00-74.54 0h-26.23v27h0c.4 18 28.67 32.49 63.49 32.49s63.09-14.51 63.49-32.49h0v-27z" stroke-width="2" fill="#fbd435" stroke="#fff" stroke-miterlimit="10"/>
  <ellipse cx="721.68" cy="889.66" rx="63.65" ry="32.56" stroke-width=".65" fill="#fbd435" stroke="#fff" stroke-miterlimit="10"/>
  <path d="M759.16 863.65a114.08 114.08 0 00-74.54 0h-26.23v27h0c.4 18 28.67 32.49 63.49 32.49s63.09-14.51 63.49-32.49h0v-27z" stroke-width="2" stroke="#fff" stroke-miterlimit="10" fill="#f69c1c"/>
  <ellipse class="cls-3" cx="721.68" cy="864.85" rx="63.65" ry="32.56"/>
  <ellipse class="cls-29" cx="721.68" cy="864.85" rx="63.65" ry="32.56"/>
  <path class="cls-29" d="M657.89 864.65v25.4c.4 17.77 28.67 32.1 63.5 32.1s63.1-14.33 63.5-32.1v-23.4"/>
  <path class="cls-30" d="M759.16 838.65a114.08 114.08 0 00-74.54 0h-26.23v27c.4 18 28.67 32.49 63.49 32.49s63.09-14.51 63.49-32.49v-27z"/>
  <ellipse class="cls-30" cx="721.68" cy="840.03" rx="63.65" ry="32.56"/>
  <ellipse class="cls-31" cx="721.68" cy="840.03" rx="63.65" ry="32.56"/>
  <path class="cls-31" d="M784.89 843.65v21.59c-.4 17.76-28.67 32.1-63.5 32.1s-63.1-14.34-63.5-32.1v-25.59"/>
  <path class="cls-6" transform="rotate(-15.03 387.7578796 888.4810005)" d="M306.35 794.66h162.83v187.63H306.35z"/>
  <path class="cls-22" d="M333.47 1001.69a1.49 1.49 0 01-1.45-1.11l-48.66-181.21a1.52 1.52 0 01.15-1.14 1.56 1.56 0 01.91-.7l157.26-42.22a1.5 1.5 0 011.84 1.06l48.66 181.21a1.5 1.5 0 01-1.06 1.83l-157.26 42.23a1.74 1.74 0 01-.39.05zM286.65 820l47.88 178.31 154.36-41.44L441 778.59z"/>
  <path class="cls-6" transform="matrix(.97 -.26 .26 .97 -215.78 128.3)" d="M297 788.19h162.83v187.63H297z"/>
  <path class="cls-22" d="M324.11 995.22a1.5 1.5 0 01-1.45-1.11L274 812.9a1.5 1.5 0 011.06-1.84l157.26-42.22a1.49 1.49 0 011.83 1.06l48.66 181.21a1.5 1.5 0 01-1.06 1.83L324.5 995.17a1.74 1.74 0 01-.39.05zm-46.82-181.65l47.88 178.31 154.36-41.45-47.88-178.31z"/>
  <path class="cls-6" d="M430.71 923.22L329.47 950.4"/>
  <path class="cls-22" d="M329.47 951.9a1.5 1.5 0 01-.39-2.95l101.24-27.18a1.5 1.5 0 11.78 2.9l-101.24 27.18a1.31 1.31 0 01-.39.05z"/>
  <path class="cls-6" d="M449.7 900.89L324.58 933.8"/>
  <path class="cls-22" d="M324.57 935.3a1.5 1.5 0 01-.38-2.95l125.13-32.91a1.49 1.49 0 011.83 1.06 1.51 1.51 0 01-1.07 1.84L325 935.25a1.31 1.31 0 01-.43.05z"/>
  <path class="cls-6" d="M444.8 884.28L319.68 917.2"/>
  <path class="cls-22" d="M319.68 918.7a1.5 1.5 0 01-.38-3l125.12-32.92a1.51 1.51 0 11.77 2.91l-125.13 32.96a1.73 1.73 0 01-.38.05z"/>
  <path class="cls-6" d="M439.91 867.68L314.78 900.6"/>
  <path class="cls-22" d="M314.78 902.1a1.5 1.5 0 01-.38-3l125.13-32.92a1.5 1.5 0 01.76 2.9l-125.13 32.97a1.58 1.58 0 01-.38.05z"/>
  <path class="cls-6" d="M435.01 851.08L309.89 884"/>
  <path class="cls-22" d="M309.89 885.5a1.5 1.5 0 01-.39-3l125.13-32.92a1.5 1.5 0 11.76 2.9l-125.12 32.97a1.73 1.73 0 01-.38.05z"/>
  <path class="cls-6" d="M431.41 834.08L304.99 867.4"/>
  <path class="cls-22" d="M305 868.9a1.51 1.51 0 01-.38-3L431 832.63a1.5 1.5 0 11.76 2.9l-126.39 33.32a1.65 1.65 0 01-.37.05z"/>
  <path class="cls-6" d="M426.52 817.48l-126.43 33.31"/>
  <path class="cls-22" d="M300.09 852.29a1.5 1.5 0 01-.38-2.95L426.13 816a1.5 1.5 0 11.77 2.9l-126.42 33.34a1.31 1.31 0 01-.39.05z"/>
  <path class="cls-6" d="M421.62 800.88L295.2 834.19"/>
  <path class="cls-22" d="M295.2 835.69a1.5 1.5 0 01-.38-3l126.42-33.31a1.5 1.5 0 01.76 2.9l-126.42 33.36a1.28 1.28 0 01-.38.05z"/>
  <path class="cls-5" d="M500 844.32c11.31 2.56 46.57-1.33 48.63 38.91 1.2 23.39-13.56 39.28-34.9 48.92s-53.75 18.52-90.28 9c-9.18-2.39-15.58-6.87-15-12 .44-4.07 3.47-3.82 3.47-3.82S388 916 389.08 907.2l-9.24-14.32s-9.53-9.94.71-15.12c7.72-3.9 26 8 40.91 6.44 18.44-1.86 36.54-12.14 42.54-21.56 0 0 2.68-3.8-1.31-6"/>
  <path class="cls-24" d="M409.2 924.19s18.2 8.86 33.41 7.89a90.19 90.19 0 0021.81-4"/>
  <path class="cls-5" d="M457.92 912.39s-24.13 7.32-35.85 4.47C388.51 908.69 386 905.1 386 905.1l-3.42-2a9.07 9.07 0 01-3.8-4.84c-1.32-3.54 2.48-4.46 2.48-4.46"/>
  <path class="cls-25" d="M453.28 894.72s-25.9 11.91-43.28 8.39c-27.88-5.65-31.59-11.57-31.59-11.57"/>
  <path class="cls-12" d="M1137.39 45.65l-46 88-29-17-73 141-38-33-29 29"/>
  <path class="cls-12" d="M1118.57 50.02l20.26-6.27 5.38 19.8"/>
</svg>
