<svg id="Layer_1" data-name="Layer 1" xmlns="http://www.w3.org/2000/svg" viewBox="0 0 1150 1034">
  <defs>
    <style>
      .cls-2,.cls-4{fill:#f69c1c}.cls-16,.cls-17,.cls-20,.cls-22,.cls-24,.cls-25,.cls-27,.cls-29,.cls-3{fill:none}.cls-11,.cls-17,.cls-18,.cls-21,.cls-23,.cls-24,.cls-3{stroke:#384349}.cls-11,.cls-13,.cls-16,.cls-20,.cls-22,.cls-25,.cls-27,.cls-3,.cls-7{stroke-miterlimit:10}.cls-11,.cls-13,.cls-16,.cls-17,.cls-18,.cls-20,.cls-21,.cls-23,.cls-24,.cls-27,.cls-29,.cls-3,.cls-6,.cls-7{stroke-width:3px}.cls-13,.cls-20,.cls-4,.cls-7{stroke:#394349}.cls-17,.cls-18,.cls-21,.cls-23,.cls-24,.cls-4{stroke-linejoin:round}.cls-4{stroke-width:3.05px}.cls-29,.cls-4{fill-rule:evenodd}.cls-6{fill:#fbd435;stroke:#39444a}.cls-26,.cls-7{fill:#394349}.cls-11,.cls-13,.cls-15,.cls-21,.cls-23{fill:#fff}.cls-12{fill:#384349}.cls-14,.cls-18{fill:#07c39f}.cls-16{stroke:#f69c1c}.cls-17,.cls-18,.cls-21{stroke-linecap:round}.cls-22,.cls-25{stroke:#fff}.cls-22{stroke-width:.55px}.cls-27{stroke:#07c39f}.cls-29{stroke:#a453ff}
    </style>
  </defs>
  <path d="M1115.39 386.56c0 218.75-292 545.86-510.74 545.86S15.78 1003.26 41.51 525.49C53.28 307.06 344 30 562.78 30s552.61 137.81 552.61 356.56z" fill="#ebf0f2"/>
  <path class="cls-2" d="M67.38 746.63c55.75 149.62 189.63 183.69 325 189h98.88c40.16-1.09 78.69-2.88 113.41-2.88 107.77 0 233.31-79.4 333-186.12z"/>
  <path class="cls-3" d="M848.3 65.27s-31.84-36.08-118.42-32.2C665.2 36 627.41 77.89 627.41 77.89"/>
  <path class="cls-4" d="M282.9 499.92L562.18 79.8l84.66 54.5-200.92 453.95-163.02-88.33z"/>
  <path class="cls-4" d="M540.76 166.62a55.3 55.3 0 00.74 14.19 54 54 0 0069.6 41.43L832 151.06a30.33 30.33 0 0020.69-33.42 30 30 0 00-29.88-25.51l-225.9 1.54A55.15 55.15 0 00542.28 145z"/>
  <path d="M703.36 745.59l-218-297.18a114.45 114.45 0 00-152.4-29.93l-10.22 6.3a129.93 129.93 0 00-59.14 137l11.39 185.4z" stroke="#39444a" fill="#fbd435" fill-rule="evenodd" stroke-width="3"/>
  <circle class="cls-6" cx="577.24" cy="157.66" r="94.52" transform="rotate(-45 577.238966 157.6697915)"/>
  <circle class="cls-6" cx="870.3" cy="109.86" r="47.26" transform="rotate(-13.63 870.2954508 109.863657)"/>
  <path class="cls-7" d="M954.82 187.86A78.46 78.46 0 01952.61 31l4.1-.12 59.63 31.86-18.53 10.53-48.15-11.16a47.57 47.57 0 002.7 94.8l47.51-14.06 19 9.66-57.71 35.2-4.1.11c-.74.02-1.49.04-2.24.04z"/>
  <path d="M869.1 158.63a48.77 48.77 0 1141.67-23.38 48.76 48.76 0 01-41.67 23.38z" fill="#fbd435" fill-rule="evenodd"/>
  <path d="M869.19 62.6a47.26 47.26 0 11-40.4 22.66 47.05 47.05 0 0140.4-22.66m0-3a50.27 50.27 0 1026.12 7.4 49.95 49.95 0 00-26.12-7.35z" fill="#39444a"/>
  <circle class="cls-7" cx="869.39" cy="109.63" r="16.5"/>
  <circle cx="577.39" cy="157.63" r="46.5" transform="rotate(-13.28 577.48656 157.6444126)" fill="#fff" stroke="#39444a" stroke-width="3"/>
  <circle class="cls-7" cx="577.39" cy="157.63" r="16.5"/>
  <path class="cls-11" d="M491.83 771.77l9.25 17.43c-13 9.14-25.28 16.38-51 21.5z"/>
  <path class="cls-12" d="M400.5 816.49l-40.89-164.24-6.35 120.62-5.08 78.34 3.46 12c3.81 14.26 25.74 14.94 40.62 5.68l63.36-45.61-5.52-27z"/>
  <path class="cls-12" d="M364.73 681.62c-.64-33-14-55.26-47-54.61l-16.93-.38-115.14-1.33c-33 .65-55.92 24.3-55.27 57.33L130 845.48c58.37 57.81 139.07 79.7 223.25 87-.47-65.35 11.48-250.86 11.48-250.86z"/>
  <path class="cls-12" d="M364.73 681.62c-.64-33-14-55.26-47-54.61l-16.93-.38-115.14-1.33c-33 .65-55.92 24.3-55.27 57.33l-.44 163"/>
  <path class="cls-13" d="M411 806.25l25.63-27.82 11.44-13.95c1.83-2.73 8.57-9.22 11.45-10.79 7-3.83 14-10.44 21.75-19.33 2.44-2.81 7.8-5.75 10.11-1.28 3.22 6.22-12.14 22-12.14 22"/>
  <path class="cls-14" transform="rotate(178.48 275.6314186 607.4875641)" d="M217.38 596.32h116.49v22.34H217.38z"/>
  <path class="cls-14" d="M385.84 518.57a40.26 40.26 0 00-2.77-5.93c0 .74.09 1.47.11 2.21 1.49 56.11-36.33 90.22-86.13 96.13 0 0 13.52 7.56 40.05 6 29.14-1.7 71.56-37.72 48.74-98.41zM306.49 392.88a58.85 58.85 0 00-14 2.09 109.74 109.74 0 00-145.88 79.27 193.33 193.33 0 01-9.37 31A83.84 83.84 0 00229.53 619c11-2.54 17.34-4.64 23.47-8.45 1.16-.93 16.94-11.95 16.94-11.95l43.67-65.6 16.66-61.57 4.94-42.83.37.26c.69.51 1.39 1 2.06 1.54s1.43 1.13 2.14 1.71 1.34 1.07 2 1.63 1.37 1.2 2.05 1.81 1.28 1.14 1.9 1.72 1.31 1.27 2 1.91 1.22 1.2 1.81 1.81 1.25 1.33 1.87 2 1.17 1.25 1.73 1.89 1.19 1.39 1.78 2.1 1.1 1.3 1.63 2c.08.09.15.2.23.29l18.69-.49c-11.25-33.46-38.16-56.71-68.98-55.9zM202 554.51l-5.17.13a12.88 12.88 0 01-13.22-12.53 12.88 12.88 0 0112.54-13.22l8.23-.22z"/>
  <path class="cls-11" d="M284.94 611.87c-10.25.28-25-1.75-34.37-3.75l-2.84 23.5a20 20 0 0013.8 24.71 20 20 0 0024.7-13.81l4.55-32.11c-3.97.48-1.73 1.35-5.84 1.46z"/>
  <path class="cls-11" d="M383.18 514.85c1.61 60.58-42.6 95.55-98.24 97s-101.64-31.07-103.25-91.64 42.19-110.88 97.83-112.36 102.05 46.43 103.66 107z"/>
  <path class="cls-15" d="M198.28 528.83L190 529a12.89 12.89 0 00-12.54 13.23 12.89 12.89 0 0013.23 12.54l2.1-.06z"/>
  <path class="cls-14" d="M285.17 399.22A141.07 141.07 0 00396.24 521c.18-3.15.26-6.33.17-9.54a115.36 115.36 0 00-111.24-112.24z"/>
  <path class="cls-14" d="M330.81 410.39c-15.34-6.91-33.38-11.49-51.32-11-63.69 1.69-113.85 55.52-112.16 119.22.08 2.93.1 15.43.39 18.3 10.61-4.5 17.68-7.58 26.72-7.82 69.02-1.85 125.97-52.87 136.37-118.7z"/>
  <path class="cls-3" d="M317.77 570.85a15.27 15.27 0 01-24.87.66"/>
  <path class="cls-12" d="M246.82 522.07h34.74v1.54a3.15 3.15 0 01-3.15 3.15h-31.59a1.58 1.58 0 01-1.58-1.58v-1.54a1.58 1.58 0 011.58-1.58z" transform="rotate(171.84 263.3906398 524.422298)"/>
  <path class="cls-12" d="M333 519.75h31.24a3.16 3.16 0 013.16 3.16v1.6H333a1.58 1.58 0 01-1.58-1.58v-1.6a1.58 1.58 0 011.58-1.58z" transform="rotate(-.45 350.630541 524.6837629)"/>
  <path class="cls-3" d="M307 544.76a7 7 0 01.37 13.91"/>
  <circle class="cls-16" cx="357.03" cy="538.58" r="34.31" transform="rotate(-87.07 357.0003973 538.5760789)"/>
  <circle class="cls-16" cx="260.93" cy="541.14" r="34.31" transform="rotate(-45 260.927626 541.1402385)"/>
  <path class="cls-16" d="M322.73 539.49l-26.89.72"/>
  <ellipse class="cls-12" cx="265.06" cy="547.26" rx="7.91" ry="7.09" transform="rotate(-69.09 265.0963333 547.2755397)"/>
  <ellipse class="cls-12" cx="348.97" cy="545.03" rx="7.91" ry="7.09" transform="rotate(-72.45 348.9509904 545.0277902)"/>
  <path class="cls-16" d="M198.28 528.83l28.91 6.04"/>
  <path class="cls-17" d="M182.29 538.7l8.43 4.96-6.34.17"/>
  <path class="cls-17" d="M198.28 528.83L190 529a12.89 12.89 0 00-12.54 13.23 12.89 12.89 0 0013.23 12.54l2.1-.06"/>
  <path class="cls-3" d="M391.24 509.78c-48.2-10.39-86.8-48.18-97.11-96.64M390.31 499.4c-41.93-10.4-75.2-43.94-84.31-86.58M213.08 521.85c42.79-4.94 78.85-32.31 97.71-68.73M180.09 522.73s-17.43 7.83-9.77 27M177.48 395.35a110.77 110.77 0 0135.38-16.22M130.12 477.74a111.36 111.36 0 0131.2-68.69"/>
  <path class="cls-18" d="M359 829.93l24.6-114.59a3.68 3.68 0 012.77-2.82l114-21.21a3.68 3.68 0 014.43 4.36L475.5 810a3.68 3.68 0 01-2.78 2.82L363.38 834.3a3.69 3.69 0 01-4.38-4.37z"/>
  <path d="M462.69 728.68l-40 5.63a2 2 0 00-1.48 1.51L412.5 783a2 2 0 002.37 2.34l17.37-1.76c-.49 2-.31 4.92 2 5.46s3.57-.54 4.73-3.94a19.37 19.37 0 00.83-3.17l15.71-2.37a2 2 0 001.49-1.51l8-47.07a2 2 0 00-2.31-2.3z" fill="#269d80"/>
  <path class="cls-15" d="M478.4 743.57c6.79.58 19.36-2.83 26.92 2.94 13.59 10.39-14.09 11.12-14.09 11.12 18.77-.09 17.74 12.87 6.33 13.18 9.34 1 6.5 8.29.83 9.79 8.05 6.41 1.91 11.64-5.67 11.25-9.34-.49-16.3-2.29-16.72-7.11-.23-2.71 3.83-4.66 9.19-4.73s-23-3.06-21.64-15.21c0 0-5.31-10.29 6.27-10.27 1.21 0-2.84-4.3-2.3-5.59 1.48-3.73 4.61-5.94 10.88-5.37z"/>
  <path class="cls-20" d="M498.4 780.61c8.05 6.41 1.91 11.64-5.67 11.25-9.34-.49-16.3-2.29-16.72-7.11-.26-3.09 5.06-5.2 11.54-4.64-5.81-1.39-25.54-1.88-24-15.31 0 0-7.29-11 7.58-10.24 0 0-4.18-3.13-3.56-6.45 1-5.53 8.25-5.06 14.52-4.52 6.79.59 9.37.65 18.81 1.83 13.53 1.68 12 13.3-7 12.3-11.06-.58-25.31-3.68-25.31-3.68"/>
  <path class="cls-13" d="M485.16 780s4.91.68 10.89.87c7.07.24 12.07-8.91 1.51-10.07"/>
  <path class="cls-20" d="M491.23 757.63c18.77-.09 17.74 12.87 6.33 13.18 0 0-28.06-.73-34.8-7.4"/>
  <path class="cls-18" d="M340.33 818.82l24.6-114.59a3.68 3.68 0 012.78-2.82L479.61 681a12.41 12.41 0 018.43 1.47c9.92 5.74 16.18 9.31 16.51 11-.84-1.17-1.13-2.38-4.25-2.22l-114 21.21a3.68 3.68 0 00-2.77 2.82L359 829.93a3.77 3.77 0 000 1.46c-1.83-.5-19.1-10.56-18.67-12.57z"/>
  <path class="cls-11" d="M189.64 819.24l4.41-51.78c-46.9 11.22-53.05 15.87-53.05 15.87L131.23 856c0 24.77 13.29 44.06 25.73 47.39 11.51 3.09 23.65 3.15 38.28-6l139.64-60.67s29.47-1.48 36.94-2.47c16.2-2.16 36.73-5.53 51.29-21.93 4.55-5.12 6.58-10.39 4.21-13.22-1.9-2.26-3.62-.89-3.62-.89s10.56-15.24 6.39-20.1c0 0 3.1-10.34.14-13.86 0 0-3.36-6.9-10.05-3.85-5.69 2.58-9.22 11.84-18.75 16.93-11.81 6.3-26.79 7.41-34.18 4.17 0 0-2.23-.89-1.62-4.11 1.6-8.38 10.51-20 7.47-30.43-2.22-7.61-9.35-5.83-10.7-3.77-.71 4.19-11.41 25.07-24.48 39.4-4.12 4.52-18.83 16.6-18.83 16.6l-146.79 37.1"/>
  <path class="cls-13" d="M424.85 796.33S417.5 809 408 814.49a65 65 0 01-14.68 6.39M390.89 808.83s17.41-5.31 23.3-11.73C431 778.71 432.36 773 432.36 773a6.72 6.72 0 00.34-4.43c-1.17-3.41-3.73-2.07-3.73-2.07"/>
  <path class="cls-20" d="M386.57 796.37s20.32-3.27 29.33-12.37c14.45-14.59 13.15-21.56 13.15-21.56"/>
  <path class="cls-21" d="M270.89 878.13v40"/>
  <path class="cls-14" d="M435.01 696.72l9.52-52.33"/>
  <path class="cls-17" d="M435.01 696.72l8.76-48.11"/>
  <path class="cls-12" d="M448.16 649.64a4.51 4.51 0 10-5.24 3.63 4.52 4.52 0 005.24-3.63zM302.14 800.34l-100.48 22.48 2.85-59.55-3.86-20.17-70.32-64.45L125 859.48c0 24.77 13.29 44.06 25.73 47.39 11.51 3.09 23.93 3.78 45.4-4l118-50.82c-16.54-20.05-11.99-51.71-11.99-51.71z"/>
  <path class="cls-22" d="M184.1 835.27l17.56-12.45M230.27 816.78l-28.61 6.04 2.85-59.55-3.86-20.17"/>
  <path class="cls-14" d="M1050.59 745.63l-33.69-129.78c-10.19-36.37-22.07-59.74-53.65-65l-90.55-14-125.59 9.23-25.47 2.83c-22.35 1.14-38.09 12-49.19 30a90.38 90.38 0 00-13.06 47.14L659 783.46l-61.87 47.73s30.61-9.92 74.78 24.12c27 20.82 32.72 23.56 32.72 23.56l115.63 29.23 196.77-50c57.79-18.1 49.24-62.85 33.56-112.47z"/>
  <path class="cls-21" d="M658.9 783.46A49.64 49.64 0 01680.05 800"/>
  <path class="cls-23" d="M685.27 905.38s18.32 9.93 34 9.61a92.75 92.75 0 0022.61-3.11"/>
  <path class="cls-11" d="M735.91 895.42s-25.15 6.45-37.08 3c-34.15-9.9-36.59-13.7-36.59-13.7l-3.43-2.19a9.3 9.3 0 01-3.7-5.14c-1.2-3.7 2.76-4.47 2.76-4.47"/>
  <path class="cls-24" d="M731.92 877s-27.17 11.09-44.89 6.7c-28.43-7-32-13.31-32-13.31"/>
  <path class="cls-25" d="M970.77 555.54s-37 5.69-46.55 51.17"/>
  <path class="cls-2" d="M673.63 357.73l11.12 30.33 10.14-25.98-21.26-4.35z"/>
  <path class="cls-11" d="M682.26 404.78A100.6 100.6 0 11883 417.85l-1.82 28.08a100.61 100.61 0 01-200.79-13.08z"/>
  <path class="cls-26" d="M780.57 435.82a7.3 7.3 0 11-6.8-7.89 7.37 7.37 0 016.8 7.89zM706.41 431a7.3 7.3 0 11-6.8-7.89 7.36 7.36 0 016.8 7.89z"/>
  <path class="cls-11" d="M872.63 536.86l-13.52-34.31a100.46 100.46 0 01-84.83 37.23c-.4 0-.8-.07-1.21-.11-2.68-.18-5.35-.45-8-.84l13.79 35a50.65 50.65 0 0093.76-36.95z"/>
  <path class="cls-12" d="M715.07 403.2l-40.65-2.64a11.25 11.25 0 0112-10.5l29.39 1.94a5.61 5.61 0 015.24 6 5.61 5.61 0 01-5.98 5.2zM812.21 409.53l-40.66-2.65a5.63 5.63 0 01-5.25-6 5.63 5.63 0 016-5.25l29.43 1.92a11.24 11.24 0 0110.5 12z"/>
  <path class="cls-2" d="M794.29 311.25a100.53 100.53 0 00-11-.1l10 5 33.13 44.6 15.67 55.82 11.91.77a22.21 22.21 0 0120.73 23.61c-.8 12.24-10.9 21.55-26.38 20.54l10.25 43.87 1.86.7c18.13-16.72 24.46-38.51 25.84-59.76l1.83-28.07a100.61 100.61 0 00-93.84-106.98z"/>
  <path class="cls-17" d="M856.29 435.87s-8.18-1.66-9.47 8.22a6.91 6.91 0 015.67-3.55"/>
  <path class="cls-15" d="M859.3 508.31l-6.64-28.49L805 520.25l14.6 28.37 39.7-40.31z"/>
  <circle class="cls-27" cx="704.45" cy="426.82" r="31.68" transform="rotate(-45 704.4565196 426.8245555)"/>
  <circle class="cls-27" cx="781.43" cy="431.84" r="31.68" transform="rotate(-3.7 781.4665526 431.8592556)"/>
  <path class="cls-27" d="M736.07 428.88l13.19.86"/>
  <path class="cls-2" d="M828.65 366.16a15.56 15.56 0 01-16.55 14.53L699 373.33c-27.17-1.76-48.91-24.29-48.35-51.51 0-.82 0-1.64.11-2.46 0 0 29.84 2 41.23 2.79-13.42-10.76-17.77-26.86-17-39.37l100.67 6.56 31 2a27.25 27.25 0 0125.42 29l1.45-22.3A58.53 58.53 0 01888 360.35c-.87 13.36-6.47 27.19-16.28 36.52l-10.88-4.95a84.06 84.06 0 01-32.19-25.76z"/>
  <path class="cls-3" d="M701.63 296.12l101.42 6.6A18.18 18.18 0 01820 322l-.49 7.49a18.18 18.18 0 00-17-19.32l-87.06-5.67M715.07 333.16l-50.61-3.3M650.27 346.1a45.48 45.48 0 01-5.71-23.05l.57-8.76M757.34 479a25.21 25.21 0 01-28-3.25"/>
  <path class="cls-27" d="M811.38 422.36l27.89-11.26a19.49 19.49 0 0124 9.12"/>
  <path class="cls-3" d="M840.78 417l13.22.86a22.22 22.22 0 0120.73 23.61 22.21 22.21 0 01-23.61 20.72l-4.83-.31M742.5 463.26a12.26 12.26 0 111.59-24.47"/>
  <path class="cls-11" d="M892.21 451.49a212.38 212.38 0 01-5.21 23.16M890.2 386.64s3.92 11.25 4.44 30.92"/>
  <path class="cls-21" d="M548.36 777.94S591.09 756.81 667 740l52.12 245.56s-44.63 11.07-111.29 26.1C606 852 548.36 777.94 548.36 777.94z"/>
  <path class="cls-21" d="M688.81 706.38s-69.16 2.76-155.29 33L544.93 768l38.15 7.38 63.54 179.65s56.86 2.46 101.69-15c-1.91-159.64-59.5-233.65-59.5-233.65z"/>
  <path class="cls-21" d="M532.91 753.53L661.65 724c6.47-1.49 17.09 1.56 21.26 6.73 6.33 7.83 36.52 45 57.61 114.73 21.24 70.29 24.85 168.78 24.85 168.78l-137.68 14.64s6.03-212.56-94.78-275.35z"/>
  <path class="cls-21" d="M524.35 806.32c.44.39.89.77 1.35 1.16 0 0 111-24.92 143.86-34-24.07 4.35-42-41.39-3.8-50l-127.07 28.17c-25.16 5.68-33.69 37.66-14.34 54.67zM825.37 877.85c-.32-41.49-35.16-44.52-46.85-46.91-21.45-4.38-35.07-6.16-42.4-5 .6 2.07 4.65 17.12 5.27 19.31 3.73-.63 3-.74 3-.74-6.59 9.43-25.65 19.19-44.7 20.29-15.39.88-33.67-12.12-41.79-8.45-10.76 4.86-1.4 15.52-1.4 15.52l8.83 15.13c-1.47 9 22.69 19.74 22.69 19.74s-3.1-.4-3.74 3.76c-.79 5.21 5.6 10.11 14.93 13 37.15 11.39 70.75 3.75 93.26-5.27s33.09-16.23 32.9-40.38z"/>
  <path class="cls-23" d="M685.27 905.38s18.32 9.93 34 9.61a92.75 92.75 0 0022.61-3.11"/>
  <path class="cls-11" d="M735.91 895.42s-25.15 6.45-37.08 3c-34.15-9.9-36.59-13.7-36.59-13.7l-3.43-2.19a9.3 9.3 0 01-3.7-5.14c-1.2-3.7 2.76-4.47 2.76-4.47"/>
  <path class="cls-24" d="M731.92 877s-27.17 11.09-44.89 6.7c-28.43-7-32-13.31-32-13.31"/>
  <path class="cls-25" d="M942.31 728.11c.09 11 4.16 34.9 6.41 42.45-33.43 13.88-71 28.5-71 28.5"/>
  <path d="M945.64 199.26h-2.27a78.52 78.52 0 01-65-34.62" stroke="#a453ff" stroke-width="3" stroke-miterlimit="10" fill="none"/>
  <path class="cls-29" d="M506.94 70a111.92 111.92 0 0170.3-24.7M469 187.86a112.63 112.63 0 0113.12-90M577.24 270a112.07 112.07 0 01-84.36-38.14M497.6 434.44a124.49 124.49 0 00-76.69-48.82 125.75 125.75 0 00-28.61-2.27M560.12 519.65l-22.78-31M624.92 608l-42.69-58.18M443.1 634a18.3 18.3 0 0118.31 18.3M443.1 670.56a18.3 18.3 0 01-18.3-18.31M463.72 631.63a29.16 29.16 0 010 41.24M422.49 672.87a29.16 29.16 0 010-41.24"/>
</svg>
