<svg id="Layer_1" data-name="Layer 1" xmlns="http://www.w3.org/2000/svg" viewBox="0 0 1150 1034">
  <defs>
    <style>
      .cls-2{fill:#269d80}.cls-3{fill:#07c39f}.cls-14,.cls-4{fill:#f69c1c}.cls-13,.cls-19,.cls-5,.cls-9{fill:#fff}.cls-11,.cls-5,.cls-8{stroke:#384349}.cls-10,.cls-11,.cls-19,.cls-20,.cls-23,.cls-25,.cls-5{stroke-miterlimit:10}.cls-10,.cls-11,.cls-13,.cls-14,.cls-19,.cls-20,.cls-23,.cls-25,.cls-5,.cls-8{stroke-width:3px}.cls-6{fill:#394349}.cls-7{fill:#384349}.cls-10,.cls-11,.cls-20,.cls-23,.cls-25,.cls-8{fill:none}.cls-13,.cls-14,.cls-8{stroke-linecap:round;stroke-linejoin:round}.cls-10{stroke:#07c39f}.cls-13,.cls-14,.cls-19,.cls-25{stroke:#394349}.cls-17,.cls-22{fill:#a453ff}.cls-18{fill:#fbd435}.cls-20{stroke:#f69c1c}.cls-21{fill:#2e383d}.cls-22,.cls-23{opacity:.2}.cls-23{stroke:#a453ff}
    </style>
  </defs>
  <path d="M1093.51 395.13c0 181.78-245.59 421-424.42 453.6-183.61 33.51-489.34 58.87-467.95-338.15C210.91 329.06 452.53 98.86 634.3 98.86s459.21 114.5 459.21 296.27z" fill="#ebf0f2"/>
  <path class="cls-2" d="M540.43 864.65c45.59-2.45 90-9.17 128.87-16.25a314.3 314.3 0 0048.09-13v-40.49h-197v70.52z"/>
  <path class="cls-3" d="M486.53 732.33L514 605c8.41-35.71 19-58.87 49.43-65.28l88.48-20.84-.36 1a49.2 49.2 0 0091.77 34.07L754 525.19l17.52 1.08 26.34 1.82c32.2.3 57.33 20.9 62.83 56.52l14 151.94 124.74 7.51 1 95.9s-106.36 21.75-144.28 25l-139.28-49.49 7.22 66.77-200.43-42.12c-56.83-15.23-50.34-58.99-37.13-107.79z"/>
  <path class="cls-2" d="M548.36 758.73l43.41 4.84 67.3 15.27-72.54-26.44 4.18-31-10.66 28.77-31.69 8.56zM819.39 633v207.09l-19.54-12.15L819.39 633z"/>
  <path class="cls-4" d="M841.5 342.04l-10.22 29.67-10.35-25.03 20.57-4.64z"/>
  <path class="cls-5" d="M834 387.89a97.72 97.72 0 00-194.74 16.6l2.32 27.23a97.72 97.72 0 10194.74-16.59z"/>
  <ellipse class="cls-6" cx="746.22" cy="419.35" rx="7.09" ry="7.22" transform="rotate(-4.86 745.7745873 419.1541537)"/>
  <path class="cls-6" d="M811.08 413.82a7.09 7.09 0 106.45-7.79 7.16 7.16 0 00-6.45 7.79z"/>
  <path class="cls-5" d="M651.71 519.86l12.47-33.58a97.59 97.59 0 0083.1 34.52c.39 0 .78-.1 1.17-.13 2.6-.23 5.19-.55 7.75-1l-12.71 34.24a49.21 49.21 0 01-91.78-34.07z"/>
  <path class="cls-7" d="M802.13 387l39.44-3.36a10.94 10.94 0 00-11.82-10l-28.55 2.43a5.47 5.47 0 00-5 5.91 5.46 5.46 0 005.93 5.02zM707.92 395l39.43-3.36a5.46 5.46 0 005-5.91 5.46 5.46 0 00-5.91-5l-28.54 2.43a10.93 10.93 0 00-10 11.82z"/>
  <path class="cls-4" d="M723.41 299.24a100.33 100.33 0 0110.65-.32l-9.6 5-31.31 44L679 402.41l-11.55 1a21.58 21.58 0 00-19.67 23.33c1 11.88 11 20.72 26 19.44L664.71 489l-1.79.71c-17.94-15.89-24.51-36.93-26.26-57.54l-2.32-27.23a97.71 97.71 0 0189.07-105.7z"/>
  <path class="cls-8" d="M665.62 421.47s7.91-1.77 9.36 7.8a6.71 6.71 0 00-5.58-3.34"/>
  <path class="cls-9" d="M664.1 491.88l5.9-27.8 47.07 38.34-13.63 27.84-39.34-38.38z"/>
  <circle class="cls-10" cx="812.9" cy="409.74" r="30.77" transform="rotate(-29.95 812.9938431 409.7516043)"/>
  <circle class="cls-10" cx="738.24" cy="416.1" r="30.77" transform="rotate(-45 738.2439853 416.099329)"/>
  <path class="cls-10" d="M782.24 412.35l-12.79 1.09"/>
  <path class="cls-4" d="M691.11 353.23A15.11 15.11 0 00707.46 367l109.74-9.34c26.35-2.24 47-24.55 46-51 0-.79-.09-1.59-.15-2.38 0 0-29 2.51-40 3.5 12.83-10.7 16.74-26.42 15.71-38.55l-97.64 8.32-30.12 2.61a26.48 26.48 0 00-24.13 28.63L685 287.16a56.84 56.84 0 00-51.66 61.58c1.1 13 6.81 26.28 16.51 35.15l10.47-5a81.62 81.62 0 0030.77-25.64z"/>
  <path class="cls-11" d="M813.11 282.74l-98.37 8.38a17.65 17.65 0 00-16.09 19.09l.62 7.27a17.65 17.65 0 0116.09-19.09l84.44-7.2M800.78 318.97l49.08-4.18M864 330.29a44.24 44.24 0 005.09-22.5l-.72-8.49M762.56 461.47a24.5 24.5 0 0027.08-3.7"/>
  <path class="cls-10" d="M709 407.47l-27.31-10.39a18.92 18.92 0 00-23.08 9.32"/>
  <path class="cls-11" d="M680.32 402.84l-12.83 1.09a21.59 21.59 0 00-19.67 23.34 21.58 21.58 0 0023.33 19.66l4.69-.4M776.66 445.86a11.91 11.91 0 10-2-23.73"/>
  <path class="cls-5" d="M631 437.33a202 202 0 005.48 22.39M631.73 374.31s-3.59 11-3.71 30.12"/>
  <path d="M556.42 544.61s36.18 4 47.26 47.78" stroke="#fff" fill="none" stroke-miterlimit="10"/>
  <path class="cls-3" d="M724.28 882.24l16.68-79.52-60.24 2.14 6.91 57.61 36.65 19.77z"/>
  <path class="cls-13" d="M671.29 885.9l284.17-41.8 143.3 22.08-246.87 50.33-180.6-30.61z"/>
  <path class="cls-14" d="M1099.33 865.08l-249.59 51.07 20.14-156.88a14.18 14.18 0 0111.23-12l226.32-46.15a9.94 9.94 0 0111.83 11z"/>
  <path class="cls-4" d="M1100.4 866l-251.52 51.29-178.83-31.5 1.23 8.12 171.83 29.85a39.55 39.55 0 0014.67-.2l236.3-48.18a7.88 7.88 0 006.31-7.67z"/>
  <path class="cls-13" transform="matrix(-.97 -.26 .26 -.97 1727.08 1849.96)" d="M964.52 800.4h42.5v20.95h-42.5z"/>
  <path class="cls-14" d="M942.21 799.16l20.31 16.31 5.45-20.23-25.76 3.92z"/>
  <path class="cls-4" d="M972.91 807.42a5.55 5.55 0 106.81-3.93 5.56 5.56 0 00-6.81 3.93z"/>
  <path class="cls-14" d="M1009.01 806.41l23.87.24-14.13 8.04 17.06 9.78-18.41 1.45 7.44 12.55-21.27-11.83 5.44-20.23z"/>
  <path class="cls-5" d="M821.29 827c-29.93-23-58-12-81.57-11.42-8.7.2-19.45-3.71-28.88-5.12l-26.25 59.91c9.56 2.42 49.14 16.85 58.41 16 18.24-1.63 38-14.48 50.18-13.32 15.89 1.5 26 13.2 34.25 10.62 6.63-2.06 3.27-5.89 3.27-5.89l14.47-1.14a6.26 6.26 0 003.55-10 79.17 79.17 0 00-10.85-10.52c.78.61 10.47 8.15 13.81 2.9 3.63-5.67-22.88-26.22-30.39-32.02z"/>
  <path d="M839.63 857.59s-25.11-24.61-39.5-29.65a89.7 89.7 0 00-21.63-4.86" stroke-linejoin="round" stroke-width="3" stroke="#384349" fill="#fff"/>
  <path class="cls-5" d="M778.35 840.09s25.13 2.61 34.75 9.88c24.46 18.5 27.07 22.26 27.07 22.26a5.23 5.23 0 01-.11 7.62c-2.67 2.26-6.28.13-6.28.13l-2.38-.87"/>
  <path d="M832.05 879.11s-12.24-10.64-18.94-14.53c-15.33-8.9-37.38-6.41-37.38-6.41" stroke-linejoin="round" fill="none" stroke-width="3" stroke="#384349"/>
  <path class="cls-3" d="M678.11 872.16l30.67-70.71 10.28 1.79-26.42 71.97-14.53-3.05z"/>
  <path class="cls-4" d="M509.39 865.62v-97.71H305c.19 1.15.4 24.12.62 43.66 57.06 41.75 130.71 54.49 203.77 54.05z"/>
  <path class="cls-17" d="M248.9 474.41a4.44 4.44 0 00-4.37-4.5h-62a4.5 4.5 0 000 9h62a4.44 4.44 0 004.37-4.5z"/>
  <path class="cls-18" d="M151 394.41a4.5 4.5 0 00-4.48-4.5H7.87a4.5 4.5 0 000 9h138.68a4.49 4.49 0 004.45-4.5zM120.72 474.41a4.44 4.44 0 00-4.37-4.5H28.68a4.5 4.5 0 000 9h87.67a4.44 4.44 0 004.37-4.5z"/>
  <path class="cls-17" d="M143.54 434.41a4.44 4.44 0 00-4.37-4.5h-66a4.5 4.5 0 000 9h66a4.44 4.44 0 004.37-4.5z"/>
  <path class="cls-18" d="M224.85 454.41a4.5 4.5 0 00-4.48-4.5H81.69a4.5 4.5 0 000 9h138.68a4.49 4.49 0 004.48-4.5z"/>
  <path class="cls-17" d="M69.91 454.41a4.44 4.44 0 00-4.38-4.5H14a4.5 4.5 0 000 9h51.5a4.44 4.44 0 004.41-4.5zM230.23 454.41a4.44 4.44 0 00-4.37-4.5h-63.47a4.5 4.5 0 000 9h63.47a4.44 4.44 0 004.37-4.5zM185.85 394.41a4.44 4.44 0 00-4.38-4.5h-66a4.5 4.5 0 000 9h66a4.44 4.44 0 004.38-4.5zM236.35 414.41a4.44 4.44 0 00-4.37-4.5H122.62a4.5 4.5 0 000 9H232a4.44 4.44 0 004.35-4.5z"/>
  <path class="cls-18" d="M260.51 434.41a4.44 4.44 0 00-4.38-4.5h-66a4.5 4.5 0 000 9h66a4.44 4.44 0 004.38-4.5z"/>
  <path class="cls-17" d="M221.4 374.41a4.44 4.44 0 00-4.38-4.5h-66a4.5 4.5 0 000 9h66a4.44 4.44 0 004.38-4.5z"/>
  <path class="cls-4" d="M1129.21 515.91h-63.32a4.65 4.65 0 00-4.72 4.1 4.49 4.49 0 004.48 4.9h63.79a4.49 4.49 0 004.48-4.9 4.65 4.65 0 00-4.71-4.1z"/>
  <path class="cls-18" d="M1028.51 435.91H886.05a4.66 4.66 0 00-4.64 3.59 4.54 4.54 0 004.52 5.41h142.7a4.53 4.53 0 004.51-5.41 4.65 4.65 0 00-4.63-3.59zM1022.58 515.91h-89.73a4.66 4.66 0 00-4.72 4.1 4.5 4.5 0 004.48 4.9h90.21a4.5 4.5 0 004.48-4.9 4.66 4.66 0 00-4.72-4.1z"/>
  <path class="cls-4" d="M1020.8 475.91h-67.42a4.65 4.65 0 00-4.71 4.1 4.49 4.49 0 004.48 4.9H1021a4.49 4.49 0 004.48-4.9 4.65 4.65 0 00-4.68-4.1z"/>
  <path class="cls-18" d="M1104.47 495.91H962a4.66 4.66 0 00-4.63 3.59 4.53 4.53 0 004.52 5.41h142.69a4.53 4.53 0 004.52-5.41 4.66 4.66 0 00-4.63-3.59z"/>
  <path class="cls-4" d="M945 495.91h-52.5a4.65 4.65 0 00-4.71 4.1 4.49 4.49 0 004.48 4.9h53a4.5 4.5 0 004.48-4.9 4.66 4.66 0 00-4.75-4.1zM1110 495.91h-64.83a4.65 4.65 0 00-4.71 4.1 4.49 4.49 0 004.48 4.9h65.3a4.49 4.49 0 004.48-4.9 4.66 4.66 0 00-4.72-4.1zM1064.33 435.91h-67.42a4.67 4.67 0 00-4.72 4.1 4.5 4.5 0 004.49 4.9h67.88A4.49 4.49 0 001069 440a4.65 4.65 0 00-4.67-4.09zM1116.29 454.91h-112a4.67 4.67 0 00-4.72 4.1 4.5 4.5 0 004.49 4.9h112.51A4.5 4.5 0 001121 459a4.67 4.67 0 00-4.71-4.09zM1141.14 475.91h-67.41A4.66 4.66 0 001069 480a4.5 4.5 0 004.48 4.9h67.89a4.49 4.49 0 004.48-4.9 4.66 4.66 0 00-4.71-4.09zM1100.9 414.91h-67.41a4.66 4.66 0 00-4.72 4.1 4.5 4.5 0 004.48 4.9h67.89a4.49 4.49 0 004.48-4.9 4.66 4.66 0 00-4.72-4.1zM1129.21 636.91h-63.32a4.66 4.66 0 00-4.72 4.1 4.49 4.49 0 004.48 4.9h63.79a4.49 4.49 0 004.48-4.9 4.65 4.65 0 00-4.71-4.1z"/>
  <path class="cls-18" d="M1112 556.91H969.56a4.64 4.64 0 00-4.63 3.59 4.53 4.53 0 004.51 5.41h142.7a4.53 4.53 0 004.51-5.41 4.64 4.64 0 00-4.65-3.59zM997.32 636.91h-89.74a4.65 4.65 0 00-4.71 4.1 4.49 4.49 0 004.48 4.9h90.2A4.49 4.49 0 001002 641a4.65 4.65 0 00-4.68-4.09z"/>
  <path class="cls-4" d="M1020.8 596.91h-67.42a4.65 4.65 0 00-4.71 4.1 4.49 4.49 0 004.48 4.9H1021a4.49 4.49 0 004.48-4.9 4.65 4.65 0 00-4.68-4.1z"/>
  <path class="cls-18" d="M1104.47 616.91H962a4.66 4.66 0 00-4.63 3.59 4.53 4.53 0 004.52 5.41h142.69a4.53 4.53 0 004.52-5.41 4.66 4.66 0 00-4.63-3.59z"/>
  <path class="cls-4" d="M974 576.91h-52.55a4.66 4.66 0 00-4.72 4.1 4.5 4.5 0 004.48 4.9h53a4.49 4.49 0 004.48-4.9 4.65 4.65 0 00-4.69-4.1zM1110 616.91h-64.83a4.65 4.65 0 00-4.71 4.1 4.49 4.49 0 004.48 4.9h65.3a4.49 4.49 0 004.48-4.9 4.66 4.66 0 00-4.72-4.1zM1064.33 556.91h-67.42a4.67 4.67 0 00-4.72 4.1 4.5 4.5 0 004.49 4.9h67.88A4.49 4.49 0 001069 561a4.65 4.65 0 00-4.67-4.09zM1116.29 576.91h-112a4.67 4.67 0 00-4.72 4.1 4.5 4.5 0 004.49 4.9h112.51A4.5 4.5 0 001121 581a4.67 4.67 0 00-4.71-4.09zM1141.14 596.91h-67.41A4.66 4.66 0 001069 601a4.5 4.5 0 004.48 4.9h67.89a4.49 4.49 0 004.48-4.9 4.66 4.66 0 00-4.71-4.09zM1100.9 536.91h-67.41a4.66 4.66 0 00-4.72 4.1 4.5 4.5 0 004.48 4.9h67.89a4.5 4.5 0 004.48-4.9 4.66 4.66 0 00-4.72-4.1z"/>
  <path class="cls-19" d="M268.65 646.41l7.93-51.85 36.82 8.28-4.13 84.31-2.55 10.46c-3.32 13.94-15 15.74-29.69 7.12l-105.6-77.32c-25.09-4.3-27.61-10.31-40.51-18.84"/>
  <path class="cls-19" d="M258.19 636.74l-74.52-41-11.47-13.26c-1.85-2.6-8.57-8.73-11.4-10.18-6.91-3.54-13.89-9.78-21.62-18.21-2.44-2.66-7.72-5.39-9.85-1-3 6.13 12.35 21.08 12.35 21.08"/>
  <path class="cls-7" d="M300.39 514c0-32.07 13.08-58.07 45.15-58.07h127.58c32.07 0 48.49 16.88 48.49 48.95l-8.62 263h-212.6z"/>
  <path class="cls-3" d="M328.39 428.91h113v22h-113z"/>
  <path class="cls-3" d="M283.52 288.91h18.15l.22-.29c.5-.66 1-1.31 1.53-2s1.1-1.4 1.67-2.08 1.09-1.26 1.63-1.88 1.17-1.35 1.77-2 1.14-1.2 1.72-1.8 1.22-1.28 1.85-1.91 1.2-1.15 1.81-1.72 1.28-1.22 1.94-1.81 1.26-1.09 1.89-1.63 1.34-1.16 2-1.72 1.54-1.21 2.31-1.81l5.99 41.5 17.76 59.36 44.11 62.58s15.6 10.3 16.75 11.17c6.05 3.54 12.29 5.42 23 7.6a81.48 81.48 0 0086.7-112.85 188.51 188.51 0 01-9.9-29.85 106.59 106.59 0 00-143.69-73.21A57.55 57.55 0 00349 232.9c-29.93 0-55.46 23.28-65.48 56.01zm168.13 73h8a12.5 12.5 0 0112.5 12.5 12.49 12.49 0 01-12.5 12.5h-5z"/>
  <path class="cls-5" d="M375.59 444.75c10 0 24.23-2.35 33.28-4.54l3.37 22.79a19.45 19.45 0 01-12.77 24.35 19.45 19.45 0 01-24.35-12.77l-5.24-31.06c3.87.32 1.72 1.23 5.71 1.23z"/>
  <path class="cls-3" d="M275.21 356.75a39.89 39.89 0 012.53-5.83c0 .72-.05 1.43-.05 2.15 0 54.52 37.61 86.67 86.12 91.12 0 0-12.94 7.69-38.74 6.87-28.33-.91-70.45-34.79-49.86-94.31z"/>
  <path class="cls-5" d="M277.69 353.07c0 58.86 43.83 91.68 97.9 91.68s97.89-32.82 97.89-91.68-43.83-106.58-97.89-106.58-97.9 47.72-97.9 106.58z"/>
  <path class="cls-9" d="M457.61 361.91h8a12.5 12.5 0 0112.5 12.5 12.49 12.49 0 01-12.5 12.5h-2z"/>
  <path class="cls-3" d="M369.88 238.26a137 137 0 01-104.71 121.09c-.25-3.06-.41-6.14-.41-9.26a112.06 112.06 0 01105.12-111.83z"/>
  <path class="cls-3" d="M325.86 250.28c14.71-7.1 32.11-12 49.54-12 61.89 0 112 51 112 112.87 0 2.85.31 15 .1 17.79-10.42-4.1-17.36-6.91-26.15-6.91-67.08-.03-123.7-48.09-135.49-111.75z"/>
  <path class="cls-11" d="M342.65 405.76a14.84 14.84 0 0024.17 0"/>
  <path class="cls-7" d="M378.14 357h30.68a3.06 3.06 0 013.06 3.06v1.5h-33.74a1.53 1.53 0 01-1.53-1.53v-1.5a1.53 1.53 0 011.53-1.53z" transform="rotate(6.64 393.999464 359.0498791)"/>
  <path class="cls-7" d="M294.21 357H328v1.5a3.06 3.06 0 01-3.06 3.06h-30.73a1.53 1.53 0 01-1.53-1.53v-1.5a1.53 1.53 0 011.53-1.53z" transform="rotate(178.92 310.311758 359.2663576)"/>
  <path class="cls-11" d="M352.47 380.14a6.76 6.76 0 000 13.52"/>
  <circle class="cls-20" cx="303.7" cy="375.44" r="33.33" transform="rotate(-76.72 303.6862668 375.4359784)"/>
  <circle class="cls-20" cx="397.08" cy="375.44" r="33.33" transform="matrix(.16 -.99 .99 .16 -37.11 707.25)"/>
  <path class="cls-20" d="M337.39 375.41h26"/>
  <ellipse class="cls-7" cx="393.22" cy="381.49" rx="6.88" ry="7.68" transform="rotate(-22.43 393.1851749 381.455112)"/>
  <path class="cls-7" d="M318.2 379.24c1.38 4-.4 8.28-4 9.52s-7.63-1-9-5 .41-8.27 4-9.51 7.61.98 9 4.99z"/>
  <path class="cls-20" d="M457.6 361.87l-27.92 6.62"/>
  <path class="cls-8" d="M473.38 371.38l-8.06 5.03h6.57"/>
  <path class="cls-8" d="M457.89 361.41h7.71a12.5 12.5 0 0112.5 12.5 12.49 12.49 0 01-12.5 12.5h-1.71"/>
  <path class="cls-11" d="M269.74 348.35c46.53-11.33 83-49 91.8-96.35M270.37 338.25C310.81 327 342.26 293.64 350 252M283.25 444.91a87.42 87.42 0 01-27-63.32M443 355.48c-41.68-3.69-77.39-29.34-96.64-64.22M475.11 355.48s17.12 7.15 10.17 26M474.35 231.73a107.74 107.74 0 00-34.77-14.84M522.47 310.51a108.17 108.17 0 00-32.08-65.9"/>
  <path class="cls-21" d="M428.19 653.92l11.31-91.71 3.69 5.82 7.73 55.81 1.08 37.15-23.81-7.07z"/>
  <path class="cls-7" d="M302.18 494.87l-34.53 106.06 32.74 10.4 1.79-116.46z"/>
  <path class="cls-21" d="M289.6 607.97l11.79-105.22-1.21 108.58-10.58-3.36z"/>
  <path class="cls-22" d="M311.35 658.34L284.51 547.7a3.57 3.57 0 00-2.77-2.66L121.6 512.72a3.58 3.58 0 00-4.19 4.35l26.84 110.64a3.6 3.6 0 002.77 2.67l160.15 32.32a3.58 3.58 0 004.18-4.36z"/>
  <path class="cls-22" d="M141.91 579.31l-13.24-54.6 32.9 6.58 11.55 54.79-31.21-6.77z"/>
  <path class="cls-23" d="M180 586.71l-10.64-53.29 32.89 6.57 11.56 53.49-33.81-6.77z"/>
  <path opacity=".2" fill="none" stroke-width="3" stroke-miterlimit="10" stroke="#384349" d="M150.89 627.17l-6.97-35.44 111.86 20.04 7.46 37.33-112.35-21.93z"/>
  <path class="cls-23" d="M220.69 595.42l-10.65-53.3 32.9 6.58 11.55 53.49-33.8-6.77z"/>
  <path class="cls-22" d="M272.26 651.31l-21.53-100.48 25.54 4.74 20.37 99.37-24.38-3.63z"/>
  <path class="cls-9" d="M150.61 562.73c-6.58.75-18.88-2.25-26.06 3.55-12.93 10.44 14 10.44 14 10.44-18.24.4-16.9 13-5.82 13-9 1.23-6.09 8.22-.54 9.53-7.65 6.43-1.56 11.35 5.79 10.77 9.06-.71 15.77-2.63 16.05-7.33.16-2.63-3.83-4.43-9.05-4.36h.02s22.25-3.57 20.62-15.33c0 0 .09-5.56-4.27-15.3-1.61-3.61-4.66-5.65-10.74-4.97z"/>
  <path class="cls-25" d="M132.15 599.22c-7.65 6.43-1.56 11.35 5.79 10.77 9.06-.71 15.77-2.63 16.05-7.33.18-3-5.05-4.92-11.33-4.21 5.62-1.5 24.76-2.48 23-15.48 0 0 6.79-10.83-7.62-9.75 0 0 4-3.15 3.29-6.36-1.15-5.34-8.15-4.69-14.22-4-6.58.75-9.09.87-18.22 2.26-13.1 2-11.26 13.22 7.12 11.76 10.72-.85 24.47-4.22 24.47-4.22"/>
  <path class="cls-19" d="M145 598.3s-4.75.78-10.56 1.12c-6.85.41-11.94-8.35-1.72-9.74"/>
  <path class="cls-25" d="M138.52 576.72c-18.24.4-16.9 13-5.81 13 0 0 27.23-1.43 33.6-8.08"/>
  <path class="cls-17" d="M313.82 655.49L287 544.85a3.57 3.57 0 00-2.77-2.66l-160.16-32.32c-2.08-.42-6.23 3.21-6.54 5.12.79-1.16 1-2.34 4.07-2.27L281.74 545a3.57 3.57 0 012.77 2.66l26.84 110.64a3.41 3.41 0 010 1.42 3.58 3.58 0 002.47-4.23z"/>
  <path class="cls-5" d="M452.89 660.91l-.89-69.23c45.83 9.68 68 15.84 68 15.84l4.85 94.48c.65 24.05-11.77 43.12-23.77 46.68-11.1 3.29-29 .43-43.47-8.11L333.09 664.3s-28.65-.67-35.94-1.44c-15.79-1.68-35.8-4.42-50.37-20-4.54-4.85-6.66-9.91-4.42-12.73 1.78-2.24 3.48-.95 3.48-.95s-10.64-14.53-6.72-19.36c0 0-3.28-10-.49-13.45 0 0 3.09-6.78 9.66-4 5.59 2.36 9.25 11.26 18.65 16 11.63 5.81 26.2 6.5 33.29 3.16 0 0 2.15-.91 1.47-4-1.77-8.09-10.72-19.14-8-29.36 2-7.44 8.93-5.89 10.3-3.93.79 4 11.72 24 24.78 37.63 4.12 4.28 18.71 15.63 18.71 15.63l133.71 41.21"/>
  <path class="cls-7" d="M521.89 505.08l9.91 116a2.67 2.67 0 01-2.66 2.85h-84.73a6 6 0 01-6-6l-1.75-49.83-3.66-5.81"/>
  <path class="cls-19" d="M244.49 627.46s7.46 12.08 16.85 17.21a63.22 63.22 0 0014.41 5.82M277.79 638.73s-17.05-4.71-22.92-10.79C238 610.52 236.6 605 236.6 605a6.43 6.43 0 01-.44-4.29c1-3.35 3.56-2.11 3.56-2.11"/>
  <path class="cls-25" d="M281.66 626.52s-19.81-2.65-28.79-11.25c-14.41-13.8-13.33-20.6-13.33-20.6"/>
  <path class="cls-17" d="M301.53 604.93l-10.32-42.51c-.94.48-1.87 1-2.8 1.48l11.51 47.43c1.48-1.07 1.94-3.33 1.61-6.4z"/>
  <path class="cls-11" d="M380.1 821.41l14.79 8.09v20.41"/>
  <path class="cls-18" d="M546.39 171.91h111v90h-111z"/>
  <path class="cls-4" d="M949.39 329.91h64v51h-64z"/>
  <path class="cls-9" d="M566.61 212.91a4.22 4.22 0 003-1.09 3.51 3.51 0 001-2.92l-.58-8.66a9.93 9.93 0 01.55-4.28 8.75 8.75 0 012.11-3.27 9.37 9.37 0 013.38-2.06 12.74 12.74 0 014.36-.72h4.91v8h-3.21a4 4 0 00-2.65.81 3 3 0 00-.85 2.64l.58 8.68a5.62 5.62 0 01-.46 2.85 5.51 5.51 0 01-1.66 2 8.33 8.33 0 01-2.57 1.26 12 12 0 01-3.18.52v.33a12 12 0 013.18.52 7.63 7.63 0 012.57 1.32 5.85 5.85 0 011.71 2.16 5.77 5.77 0 01.46 2.88l-.58 8.62a2.89 2.89 0 00.91 2.5 3.62 3.62 0 002.59.95h3.21v8h-4.91a12.28 12.28 0 01-4.36-.75 9 9 0 01-5.49-5.52 10.3 10.3 0 01-.55-4.37l.58-8.33a3.55 3.55 0 00-1-2.94 4.26 4.26 0 00-3-1.09h-7.22v-8zM623.3 189.91a12.28 12.28 0 014.36.75 9.17 9.17 0 013.38 2.16 9.27 9.27 0 012.11 3.36 10.3 10.3 0 01.55 4.37l-.58 8.34a3.51 3.51 0 001 2.93 4.19 4.19 0 003 1.09h7.22v8h-7.22a4.23 4.23 0 00-3 1.09 3.5 3.5 0 00-1 2.93l.58 8.66a9.88 9.88 0 01-.55 4.27 8.75 8.75 0 01-2.11 3.27 9.1 9.1 0 01-3.38 2.06 12.74 12.74 0 01-4.36.72h-4.91v-8h3.21a4 4 0 002.65-.8 3 3 0 00.85-2.65l-.59-8.68a5.67 5.67 0 01.47-2.84 5.37 5.37 0 011.66-2.05 8.68 8.68 0 012.57-1.26 12 12 0 013.18-.52v-.28a11.27 11.27 0 01-3.18-.55 8.36 8.36 0 01-2.57-1.35 5.93 5.93 0 01-1.66-2.1 5.69 5.69 0 01-.47-2.85l.59-8.62a3 3 0 00-.91-2.5 3.66 3.66 0 00-2.59-1h-3.21v-8zM961.83 352.91a2.6 2.6 0 001.85-.66 2.1 2.1 0 00.64-1.78l-.32-5.27a6 6 0 01.34-2.61 5.35 5.35 0 011.29-2 5.87 5.87 0 012.08-1.25 8 8 0 012.69-.44h3v5h-2.06a2.66 2.66 0 00-1.71.49 1.76 1.76 0 00-.54 1.6l.37 5.25a3.15 3.15 0 01-1.37 3 5.47 5.47 0 01-1.65.77 8.29 8.29 0 01-2 .31v.17a8.29 8.29 0 012 .32 4.88 4.88 0 011.65.8 3.47 3.47 0 011.07 1.28 3.34 3.34 0 01.3 1.74l-.37 5.22a1.72 1.72 0 00.58 1.52 2.45 2.45 0 001.67.57h2.06v5h-3a7.79 7.79 0 01-2.69-.45 5.74 5.74 0 01-2.08-1.32 5.55 5.55 0 01-1.29-2 6.21 6.21 0 01-.34-2.66l.35-5.08a2.1 2.1 0 00-.64-1.78 2.57 2.57 0 00-1.85-.67h-4.44v-5zM993.41 338.91a7.56 7.56 0 012.69.46 5.72 5.72 0 012.08 1.31 5.64 5.64 0 011.29 2.05 6.19 6.19 0 01.34 2.66l-.35 5.07a2.12 2.12 0 00.64 1.79 2.6 2.6 0 001.85.66h4.44v5H1002a2.57 2.57 0 00-1.85.67 2.09 2.09 0 00-.64 1.78l.35 5.27a6 6 0 01-.34 2.6 5.4 5.4 0 01-1.29 2 5.87 5.87 0 01-2.08 1.25 7.79 7.79 0 01-2.69.44h-3v-5h1.83a2.19 2.19 0 001.52-.49 1.84 1.84 0 00.48-1.6l-.33-5.25a3.42 3.42 0 01.27-1.72 3.15 3.15 0 011-1.24 4.7 4.7 0 011.46-.76 6.67 6.67 0 011.82-.32v-.17a6 6 0 01-1.82-.33 4.61 4.61 0 01-1.46-.82 3.45 3.45 0 01-1.22-3l.33-5.22a1.83 1.83 0 00-.51-1.51 2 2 0 00-1.49-.58h-1.83v-5z"/>
</svg>
