<svg width="176" height="246" viewBox="0 0 176 246" fill="none" xmlns="http://www.w3.org/2000/svg">
<rect width="176" height="246" fill="white"/>
<g clip-path="url(#clip0)">
<path d="M176 0H0V246H176V0Z" fill="#CED8DD"/>
<path d="M170 200V246L6 246C6.14 229.69 6 218.5 6 197C6 175.5 21 166 37.5 166H62.28H114.67H138.5C155.04 166 170 183 170 200Z" fill="#ECF0F2"/>
<path d="M36 90C35.9042 83.0704 37.1863 76.1908 39.7719 69.7608C42.3575 63.3309 46.1949 57.4789 51.0614 52.5446C55.9279 47.6104 61.7263 43.6924 68.1199 41.0181C74.5135 38.3439 81.3747 36.9668 88.305 36.9668C95.2353 36.9668 102.097 38.3439 108.49 41.0181C114.884 43.6924 120.682 47.6104 125.549 52.5446C130.415 57.4789 134.253 63.3309 136.838 69.7608C139.424 76.1908 140.706 83.0704 140.61 90V104.63C140.42 118.377 134.826 131.496 125.037 141.15C115.249 150.804 102.053 156.217 88.305 156.217C74.5568 156.217 61.3613 150.804 51.5728 141.15C41.7844 131.496 36.1901 118.377 36 104.63V90Z" fill="#ECF0F2"/>
<path d="M88.25 157.86C74.1462 157.842 60.6253 152.231 50.6524 142.258C40.6795 132.285 35.0686 118.764 35.05 104.66V90C35.05 83.0137 36.4261 76.0958 39.0997 69.6413C41.7732 63.1868 45.6919 57.322 50.632 52.382C55.572 47.4419 61.4368 43.5232 67.8913 40.8497C74.3458 38.1761 81.2637 36.8 88.25 36.8C95.2364 36.8 102.154 38.1761 108.609 40.8497C115.063 43.5232 120.928 47.4419 125.868 52.382C130.808 57.322 134.727 63.1868 137.4 69.6413C140.074 76.0958 141.45 83.0137 141.45 90V104.63C141.442 118.74 135.836 132.27 125.861 142.25C115.887 152.23 102.36 157.844 88.25 157.86ZM88.25 38.62C74.6253 38.6359 61.5628 44.0533 51.9258 53.6846C42.2889 63.3159 36.8639 76.3753 36.84 90V104.63C37.0285 118.142 42.5283 131.037 52.15 140.525C61.7717 150.013 74.7418 155.333 88.255 155.333C101.768 155.333 114.738 150.013 124.36 140.525C133.982 131.037 139.482 118.142 139.67 104.63V90C139.646 76.3736 134.22 63.3127 124.581 53.6811C114.942 44.0495 101.876 38.6333 88.25 38.62V38.62Z" fill="#CED8DD"/>
<path d="M88.4949 155.127C79.1951 155.131 70.0578 152.673 62 148V167.904C62.6673 174.51 65.7471 180.632 70.6429 185.084C75.5387 189.535 81.9019 192 88.5 192C95.0981 192 101.461 189.535 106.357 185.084C111.253 180.632 114.333 174.51 115 167.904V148C106.939 152.674 97.7982 155.132 88.4949 155.127Z" fill="#ECF0F2"/>
<path fill-rule="evenodd" clip-rule="evenodd" d="M62 148V167.904C62.6673 174.51 65.7471 180.632 70.6429 185.084C75.5387 189.535 81.9019 192 88.5 192C95.0981 192 101.461 189.535 106.357 185.084C111.253 180.632 114.333 174.51 115 167.904V148C114.34 148.382 113.674 148.75 113 149.103C105.442 153.06 97.0369 155.132 88.4949 155.127C79.9564 155.13 71.5548 153.059 64 149.103C63.3264 148.75 62.6596 148.383 62 148ZM64 151.349V167.801C64.6384 173.881 67.4835 179.508 71.9884 183.604C76.5172 187.722 82.4011 190 88.5 190C94.5989 190 100.483 187.722 105.012 183.604C109.516 179.508 112.362 173.881 113 167.801V151.349C105.399 155.147 97.0127 157.132 88.4947 157.127C79.9802 157.13 71.5975 155.146 64 151.349Z" fill="#CED8DD"/>
<path d="M40.7999 84.0699C43.6199 57.8399 61.2799 37.7199 88.2499 37.7199C115.22 37.7199 132.32 57.8399 135.15 84.0699C135.07 83.3699 140.09 82.9699 139.98 82.2699C142.73 82.442 145.334 83.5704 147.34 85.4599C146.407 70.453 139.8 56.3631 128.858 46.0503C117.916 35.7376 103.46 29.9747 88.4242 29.9314C73.3884 29.8881 58.8995 35.5677 47.8985 45.8174C36.8975 56.067 30.2087 70.1186 29.1899 85.1199C31.2336 83.3538 33.8205 82.341 36.5199 82.2499C36.4199 82.9999 40.8799 83.3599 40.7999 84.0699Z" fill="#ECF0F2"/>
<path d="M88.46 130.39C85.8494 130.431 83.2848 129.7 81.0878 128.289C78.8908 126.879 77.1592 124.851 76.11 122.46L77.75 121.75C78.6636 123.821 80.1683 125.575 82.0755 126.794C83.9826 128.013 86.2071 128.641 88.47 128.6V128.6C90.7371 128.643 92.9665 128.016 94.8787 126.797C96.791 125.579 98.3012 123.823 99.22 121.75L100.86 122.47C99.8006 124.863 98.0593 126.891 95.8538 128.299C93.6484 129.708 91.0766 130.435 88.46 130.39V130.39Z" fill="#CED8DD"/>
<path d="M111 103C113.209 103 115 101.209 115 99C115 96.7909 113.209 95 111 95C108.791 95 107 96.7909 107 99C107 101.209 108.791 103 111 103Z" fill="#CED8DD"/>
<path d="M65 103C67.2091 103 69 101.209 69 99C69 96.7909 67.2091 95 65 95C62.7909 95 61 96.7909 61 99C61 101.209 62.7909 103 65 103Z" fill="#CED8DD"/>
<path d="M60.6599 60.29C60.6626 62.4365 61.5172 64.4942 63.0359 66.0111C64.5547 67.528 66.6134 68.38 68.7599 68.38H127.71C141.86 68.38 153.91 57.38 154.53 43.29C154.53 42.86 154.53 42.44 154.53 42.01C154.53 42.01 138.98 42.01 133.04 42.01C136.183 39.755 138.744 36.7838 140.511 33.3425C142.278 29.9011 143.199 26.0884 143.2 22.22H74.5899C70.8326 22.2226 67.23 23.7164 64.5732 26.3732C61.9163 29.03 60.4226 32.6327 60.4199 36.39V24.78C52.3538 24.7985 44.6252 28.0199 38.9338 33.7357C33.2423 39.4515 30.054 47.1938 30.0699 55.26C30.0014 62.4241 32.5673 69.3637 37.2799 74.76L43.0899 72.56C49.8766 69.9962 55.9159 65.7787 60.6599 60.29V60.29Z" fill="#ECF0F2"/>
<path d="M140 82.27C140.386 84.8387 140.58 87.4325 140.58 90.03V104.66C140.58 105.04 140.58 105.42 140.58 105.81C143.476 105.495 146.154 104.121 148.099 101.952C150.044 99.7837 151.12 96.9732 151.12 94.06V94.06C151.118 91.0479 149.965 88.1504 147.899 85.9592C145.832 83.768 143.007 82.4484 140 82.27V82.27Z" fill="#ECF0F2"/>
<path d="M139.62 106.81V105.34C139.62 105.11 139.62 104.89 139.62 104.66V90C139.619 87.4461 139.429 84.8957 139.05 82.37L138.89 81.28L139.99 81.35C143.167 81.5483 146.153 82.9311 148.359 85.2251C150.566 87.5191 151.831 90.5574 151.905 93.7393C151.979 96.9211 150.857 100.015 148.76 102.409C146.663 104.804 143.744 106.324 140.58 106.67L139.62 106.81ZM141 83.29C141.279 85.5258 141.42 87.7768 141.42 90.03V104.76C143.919 104.246 146.158 102.874 147.751 100.881C149.343 98.8881 150.188 96.4008 150.138 93.8504C150.088 91.3 149.147 88.8476 147.478 86.9186C145.809 84.9896 143.517 83.7059 141 83.29V83.29Z" fill="#CED8DD"/>
<path d="M36 104.66V90C36.0018 87.3996 36.1923 84.8028 36.57 82.23C33.5059 82.3286 30.6002 83.6149 28.4672 85.817C26.3342 88.019 25.141 90.9642 25.14 94.03V94.03C25.1352 97.0019 26.2502 99.8666 28.2628 102.053C30.2754 104.24 33.0379 105.589 36 105.83C36 105.44 36 105.05 36 104.66Z" fill="#ECF0F2"/>
<path d="M36.89 106.8L35.89 106.72C32.643 106.478 29.6129 104.999 27.4256 102.587C25.2384 100.175 24.061 97.0149 24.1367 93.7598C24.2125 90.5047 25.5355 87.403 27.8326 85.0955C30.1296 82.7879 33.2252 81.4507 36.48 81.3601H37.56L37.4 82.4201C37.0272 84.9296 36.84 87.4631 36.84 90.0001V104.63C36.84 104.86 36.84 105.1 36.84 105.34L36.89 106.8ZM35.49 83.2301C32.9054 83.5752 30.5296 84.8337 28.7922 86.7781C27.0548 88.7225 26.0705 91.2245 26.0174 93.8315C25.9642 96.4384 26.8457 98.9784 28.5024 100.992C30.1591 103.006 32.4816 104.36 35.05 104.81V90.0001C35.0534 87.7364 35.2003 85.4752 35.49 83.2301V83.2301Z" fill="#CED8DD"/>
<path d="M73.54 88.1H52.36C52.3587 87.3314 52.5091 86.5701 52.8026 85.8597C53.0961 85.1494 53.527 84.504 54.0705 83.9605C54.614 83.417 55.2594 82.9862 55.9697 82.6926C56.6801 82.3991 57.4414 82.2487 58.21 82.25H73.54C74.3153 82.2527 75.058 82.5625 75.6054 83.1117C76.1527 83.6609 76.46 84.4047 76.46 85.18C76.46 85.9544 76.1524 86.6972 75.6047 87.2448C75.0571 87.7924 74.3144 88.1 73.54 88.1V88.1Z" fill="#CED8DD"/>
<path d="M124.15 88.1001H103C102.61 88.1094 102.222 88.0408 101.86 87.8984C101.497 87.756 101.166 87.5425 100.886 87.2706C100.607 86.9986 100.385 86.6736 100.232 86.3147C100.08 85.9557 100.001 85.57 100 85.1801C99.9999 84.7894 100.078 84.4026 100.23 84.0424C100.381 83.6823 100.603 83.3561 100.883 83.0831C101.162 82.8101 101.494 82.5958 101.857 82.4527C102.221 82.3097 102.609 82.2408 103 82.2501H118.3C119.852 82.2501 121.339 82.8664 122.437 83.9635C123.534 85.0606 124.15 86.5486 124.15 88.1001Z" fill="#CED8DD"/>
<path d="M64.15 117C60.7133 117.002 57.3532 115.984 54.495 114.076C51.6367 112.168 49.4088 109.454 48.0932 106.28C46.7776 103.105 46.4333 99.6107 47.104 96.2401C47.7748 92.8694 49.4303 89.7735 51.8611 87.344C54.292 84.9146 57.3889 83.2608 60.7599 82.5921C64.1309 81.9233 67.6246 82.2696 70.7988 83.587C73.973 84.9045 76.685 87.1339 78.5917 89.9933C80.4984 92.8526 81.514 96.2133 81.51 99.65C81.5021 104.251 79.6702 108.661 76.416 111.913C73.1618 115.165 68.7508 116.995 64.15 117V117ZM64.15 84.06C61.069 84.06 58.0572 84.9735 55.4953 86.685C52.9334 88.3965 50.9364 90.8292 49.7569 93.6755C48.5774 96.5218 48.2683 99.6539 48.8687 102.676C49.469 105.698 50.9519 108.474 53.1298 110.653C55.3077 112.833 58.0828 114.317 61.1044 114.919C64.1259 115.522 67.2583 115.215 70.1053 114.037C72.9523 112.859 75.3863 110.864 77.0995 108.303C78.8126 105.742 79.728 102.731 79.73 99.65C79.7247 95.5196 78.0816 91.5598 75.1609 88.6391C72.2402 85.7185 68.2805 84.0753 64.15 84.07V84.06Z" fill="#CED8DD"/>
<path d="M112.36 117C108.924 117.002 105.564 115.985 102.706 114.077C99.848 112.169 97.62 109.456 96.3041 106.282C94.9882 103.107 94.6434 99.6141 95.3133 96.2437C95.9832 92.8734 97.6377 89.7774 100.068 87.3476C102.497 84.9177 105.593 83.2632 108.964 82.5933C112.334 81.9234 115.827 82.2682 119.002 83.5841C122.176 84.9001 124.889 87.128 126.797 89.986C128.705 92.844 129.722 96.2037 129.72 99.64C129.715 104.243 127.884 108.655 124.63 111.91C121.375 115.164 116.963 116.995 112.36 117V117ZM112.36 84.06C109.278 84.058 106.265 84.9701 103.701 86.6809C101.138 88.3916 99.1396 90.8242 97.9588 93.6709C96.7781 96.5176 96.4681 99.6505 97.0681 102.673C97.6682 105.696 99.1512 108.473 101.33 110.653C103.508 112.833 106.284 114.318 109.307 114.92C112.329 115.522 115.462 115.214 118.31 114.035C121.157 112.856 123.591 110.859 125.304 108.297C127.016 105.735 127.93 102.722 127.93 99.64C127.922 95.513 126.279 91.5573 123.361 88.6391C120.443 85.7209 116.487 84.0779 112.36 84.07V84.06Z" fill="#CED8DD"/>
<path d="M96 98H81V101H96V98Z" fill="#CED8DD"/>
<path d="M89.8 119.23C87.8719 119.23 86.0228 118.464 84.6594 117.101C83.296 115.737 82.53 113.888 82.53 111.96C82.53 110.032 83.296 108.183 84.6594 106.819C86.0228 105.456 87.8719 104.69 89.8 104.69V106.48C88.3413 106.48 86.9424 107.059 85.9109 108.091C84.8795 109.122 84.3 110.521 84.3 111.98C84.3 113.439 84.8795 114.838 85.9109 115.869C86.9424 116.9 88.3413 117.48 89.8 117.48V119.23Z" fill="#CED8DD"/>
<path d="M64.06 40H62V36.7C61.9947 33.8709 63.1121 31.1554 65.1069 29.1493C67.1017 27.1432 69.811 26.0106 72.64 26H128V28H72.64C70.6872 28.0021 68.7892 28.4365 67.2387 29.6237C65.6882 30.811 64.5713 32.4753 64.06 34.36C65.0534 33.0199 66.3469 31.9311 67.8369 31.1809C69.3269 30.4307 70.9719 30.04 72.64 30.04H120V32H72.64C70.2909 32.0106 68.0415 32.7705 66.3832 34.4344C64.7249 36.0983 64.0626 37.6509 64.06 40Z" fill="#CED8DD"/>
<path d="M146.41 45.8799H119.15V47.6699H146.41V45.8799Z" fill="#CED8DD"/>
<path d="M154.2 56.4601L152.7 55.4601C154.948 51.9475 156.234 47.906 156.43 43.7401V39.1001H158.22V43.8201C158.022 48.3149 156.635 52.6768 154.2 56.4601V56.4601Z" fill="#ECF0F2"/>
<path d="M140.86 97.56C140.787 97.5694 140.713 97.5694 140.64 97.56C140.438 97.509 140.261 97.3891 140.139 97.2211C140.016 97.0531 139.957 96.8475 139.97 96.64C139.965 95.8196 140.135 95.0075 140.467 94.2576C140.8 93.5076 141.288 92.837 141.9 92.29C142.958 91.4725 144.289 91.0898 145.62 91.22C145.844 91.2653 146.042 91.3941 146.175 91.5803C146.307 91.7664 146.364 91.996 146.333 92.2224C146.303 92.4488 146.187 92.6551 146.01 92.7995C145.833 92.9439 145.608 93.0156 145.38 93C144.536 92.9227 143.694 93.1654 143.02 93.68L142.76 93.92C143.038 93.8425 143.322 93.7922 143.61 93.77C143.846 93.7514 144.08 93.8274 144.26 93.9812C144.44 94.135 144.551 94.354 144.57 94.59C144.589 94.826 144.513 95.0598 144.359 95.2398C144.205 95.4199 143.986 95.5314 143.75 95.55C143.311 95.6002 142.892 95.7591 142.531 96.0123C142.169 96.2656 141.877 96.6051 141.68 97C141.612 97.1627 141.499 97.3023 141.353 97.4017C141.208 97.5011 141.036 97.5561 140.86 97.56V97.56Z" fill="#CED8DD"/>
<path d="M36 97.61C35.8243 97.6096 35.6527 97.5571 35.5067 97.4592C35.3608 97.3613 35.2471 97.2224 35.18 97.06C34.9995 96.6583 34.7224 96.3075 34.3735 96.0388C34.0245 95.7701 33.6145 95.5919 33.18 95.52C33.0631 95.5089 32.9496 95.4748 32.8459 95.4198C32.7422 95.3647 32.6503 95.2898 32.5756 95.1993C32.5008 95.1087 32.4446 95.0044 32.4102 94.8921C32.3758 94.7799 32.3638 94.6619 32.375 94.545C32.3862 94.4282 32.4202 94.3146 32.4753 94.2109C32.5303 94.1072 32.6052 94.0154 32.6958 93.9406C32.7863 93.8659 32.8907 93.8097 33.0029 93.7753C33.1152 93.7409 33.2331 93.7289 33.35 93.74C33.6349 93.7687 33.9163 93.8256 34.19 93.9101C34.1142 93.8195 34.0305 93.7358 33.94 93.6601C33.2713 93.1395 32.436 92.88 31.59 92.93C31.4738 92.9432 31.3561 92.9333 31.2437 92.901C31.1313 92.8686 31.0264 92.8144 30.9349 92.7415C30.8435 92.6687 30.7672 92.5785 30.7106 92.4761C30.654 92.3738 30.6181 92.2613 30.605 92.145C30.5919 92.0288 30.6018 91.9112 30.6341 91.7988C30.6664 91.6864 30.7206 91.5814 30.7935 91.49C30.8664 91.3985 30.9566 91.3223 31.0589 91.2657C31.1613 91.2091 31.2738 91.1732 31.39 91.1601C32.6924 91.0712 33.9807 91.4744 35 92.2901C35.5981 92.8518 36.0717 93.5328 36.3904 94.2889C36.709 95.0451 36.8656 95.8596 36.85 96.68C36.8595 96.89 36.7945 97.0965 36.6663 97.263C36.5382 97.4296 36.3553 97.5454 36.15 97.59L36 97.61Z" fill="#CED8DD"/>
<path fill-rule="evenodd" clip-rule="evenodd" d="M42.772 71.718C49.4185 69.2072 55.333 65.0768 59.9791 59.7014L61.341 60.8785C56.4991 66.4803 50.3353 70.7849 43.4088 73.4016M43.4088 73.4016L38.1193 75.4045L37.4155 82.3507L35.6246 82.1692L36.4408 74.1154L42.772 71.718" fill="#CED8DD"/>
<path fill-rule="evenodd" clip-rule="evenodd" d="M62 59.9988C62.0025 62.0361 62.4985 64.051 63.7427 65.2936C65.0739 66.6232 66.8785 67.37 68.76 67.37H127.738L127.747 67.3702C130.236 67.4119 132.716 67.0558 135.093 66.3153L135.869 66.0734L136.264 66.7842C138.019 69.9402 139.196 73.7917 139.934 76.8129C140.305 78.3314 140.568 79.6567 140.739 80.6036C140.825 81.0773 140.887 81.457 140.928 81.7195C140.949 81.8508 140.964 81.9528 140.975 82.0228L140.986 82.1033L140.989 82.1248L140.99 82.1307L140.991 82.1325C140.991 82.1327 140.991 82.1334 140 82.27C139.009 82.4066 139.009 82.4067 139.009 82.4068L139.009 82.4023L139.006 82.3853L138.996 82.314C138.987 82.2503 138.972 82.1548 138.953 82.0303C138.914 81.7812 138.854 81.4165 138.771 80.959C138.606 80.0433 138.35 78.7587 137.991 77.2872C137.326 74.5612 136.316 71.2497 134.89 68.4588C132.558 69.1026 130.144 69.4098 127.722 69.37H68.76C66.3485 69.37 64.0356 68.4128 62.3293 66.7087C60.536 64.9175 60.0028 62.257 60 60.0012L62 59.9988Z" fill="#CED8DD"/>
<path fill-rule="evenodd" clip-rule="evenodd" d="M79.07 212.9V220.85H71.07L73.77 218.16C72.9751 217.388 72.0028 216.824 70.9386 216.516C69.8743 216.208 68.7507 216.167 67.6667 216.395C66.5826 216.624 65.5714 217.115 64.7219 217.826C63.8724 218.537 63.2106 219.446 62.7949 220.473C62.3792 221.5 62.2222 222.614 62.3378 223.715C62.4535 224.817 62.8381 225.874 63.4579 226.792C64.0777 227.71 64.9137 228.462 65.8923 228.981C66.8709 229.501 67.9621 229.771 69.07 229.77C70.2116 229.768 71.3344 229.479 72.3355 228.931C73.3366 228.382 74.184 227.591 74.8 226.63L77.88 228.53C76.741 230.349 75.066 231.769 73.0858 232.596C71.1055 233.422 68.9177 233.614 66.8238 233.145C64.7299 232.676 62.8332 231.568 61.395 229.976C59.9569 228.383 59.0482 226.384 58.7942 224.253C58.5402 222.122 58.9535 219.965 59.977 218.079C61.0005 216.193 62.5839 214.671 64.5088 213.723C66.4337 212.775 68.6054 212.447 70.7244 212.785C72.8435 213.123 74.8055 214.11 76.34 215.61L79.07 212.9ZM88.32 229.78C86.3825 229.821 84.5058 229.103 83.09 227.78L80.97 230.78C83.0434 232.47 85.6454 233.376 88.32 233.34C92.43 233.42 95.93 230.6 95.85 227.16C95.85 223.94 93.39 221.99 90.33 221.22L87.15 220.41C83.65 219.41 85.22 216.26 88.32 216.26C90.0211 216.213 91.6846 216.765 93.02 217.82L95.11 214.82C93.1491 213.361 90.764 212.585 88.32 212.61C84.57 212.53 81.23 215.17 81.32 218.34C81.32 221.1 83.32 223.06 86.2 223.82L89.6 224.7C93.68 225.85 92 229.78 88.32 229.78ZM114.49 219.4C113.709 218.163 112.547 217.214 111.179 216.694C109.811 216.175 108.312 216.114 106.907 216.521C105.502 216.928 104.266 217.78 103.388 218.949C102.509 220.119 102.033 221.542 102.033 223.005C102.033 224.468 102.509 225.891 103.388 227.061C104.266 228.23 105.502 229.082 106.907 229.489C108.312 229.896 109.811 229.835 111.179 229.315C112.547 228.796 113.709 227.847 114.49 226.61L117.57 228.51C116.376 230.412 114.597 231.875 112.499 232.677C110.401 233.479 108.099 233.577 105.941 232.956C103.782 232.336 101.885 231.029 100.534 229.235C99.1828 227.441 98.4523 225.256 98.4523 223.01C98.4523 220.764 99.1828 218.579 100.534 216.785C101.885 214.99 103.782 213.684 105.941 213.063C108.099 212.442 110.401 212.54 112.499 213.343C114.597 214.145 116.376 215.607 117.57 217.51L114.49 219.4ZM105.6 223C105.596 222.372 105.779 221.757 106.124 221.233C106.47 220.709 106.964 220.3 107.543 220.057C108.122 219.814 108.76 219.748 109.376 219.868C109.992 219.988 110.559 220.289 111.004 220.731C111.45 221.174 111.754 221.739 111.878 222.354C112.001 222.97 111.94 223.608 111.701 224.188C111.461 224.769 111.055 225.265 110.533 225.614C110.011 225.963 109.398 226.15 108.77 226.15C108.355 226.151 107.944 226.071 107.56 225.913C107.176 225.756 106.827 225.524 106.533 225.231C106.238 224.939 106.004 224.591 105.844 224.208C105.684 223.826 105.601 223.415 105.6 223V223Z" fill="#CED8DD"/>
</g>
<defs>
<clipPath id="clip0">
<rect width="176" height="246" fill="white"/>
</clipPath>
</defs>
</svg>
