<svg id="Layer_1" data-name="Layer 1" xmlns="http://www.w3.org/2000/svg" viewBox="0 0 150 150"><defs><style>.cls-1{fill:#ced8dd;}.cls-2{fill:#ecf0f2;}.cls-3{fill:none;stroke:#ced8dd;stroke-miterlimit:10;stroke-width:1.8px;}</style></defs><rect class="cls-1" width="150" height="150"/><path class="cls-2" d="M135.13,150s-.08-6.91-.08-9.43A22.9,22.9,0,0,0,112.18,119H94.68v1.54a19.41,19.41,0,0,1-38.61,0V119H37.91A22.9,22.9,0,0,0,15,141.89c0,2.62,0,8.11,0,8.11Z"/><path class="cls-2" d="M36.67,62a38.54,38.54,0,0,1,77.08,0V72.77a38.54,38.54,0,0,1-77.08,0Z"/><path class="cls-1" d="M75.21,112A39.24,39.24,0,0,1,36,72.77V62a39.2,39.2,0,0,1,78.4,0V72.77A39.24,39.24,0,0,1,75.21,112Zm0-87.86A37.92,37.92,0,0,0,37.33,62V72.77a37.89,37.89,0,1,0,75.77,0V62A37.93,37.93,0,0,0,75.21,24.11Z"/><path class="cls-2" d="M75.37,111.31a38.69,38.69,0,0,1-19.3-5.14v14.4a19.41,19.41,0,0,0,38.61,0v-14.4A38.73,38.73,0,0,1,75.37,111.31Z"/><path class="cls-1" d="M75.37,138.66a20,20,0,0,1-20-18V105l1,.56a38,38,0,0,0,37.95,0l1-.56v15.61A20,20,0,0,1,75.37,138.66ZM56.73,120.54a18.75,18.75,0,0,0,37.29,0V107.29a39.48,39.48,0,0,1-37.29,0Z"/><path class="cls-2" d="M40.24,57.6c2.08-19.33,15.09-34.15,35-34.15s32.48,14.83,34.56,34.15c-.06-.52,3.64-.81,3.56-1.32a8.65,8.65,0,0,1,5.42,2.35,43.62,43.62,0,0,0-87.06-.26,8.75,8.75,0,0,1,5.4-2.11C37,56.78,40.3,57.08,40.24,57.6Z"/><path class="cls-1" d="M75.37,91.73h0a9.76,9.76,0,0,1-9.1-5.84l1.2-.53a8.49,8.49,0,0,0,7.9,5.06h0a8.5,8.5,0,0,0,7.92-5.06l1.2.53A9.78,9.78,0,0,1,75.37,91.73Z"/><circle class="cls-1" cx="58.51" cy="68.97" r="3.06"/><circle class="cls-1" cx="92.46" cy="68.97" r="3.06"/><path class="cls-2" d="M54.88,40.08h0a6,6,0,0,0,6,6h43.44a19.63,19.63,0,0,0,19.76-18.49c0-.32,0-.63,0-.95l-15.83,0A17.94,17.94,0,0,0,115.7,12H65.15A10.44,10.44,0,0,0,54.7,22.47h0V13.91A22.41,22.41,0,0,0,32.34,36.37a21.55,21.55,0,0,0,5.31,14.37l4.28-1.62a32.21,32.21,0,0,0,13-9Z"/><path class="cls-2" d="M113.33,56.28a38.38,38.38,0,0,1,.42,5.71V72.77c0,.28,0,.57,0,.85A8.71,8.71,0,0,0,121.5,65h0A8.7,8.7,0,0,0,113.33,56.28Z"/><path class="cls-1" d="M113.06,74.35l0-1.08c0-.16,0-.33,0-.5V62a38,38,0,0,0-.42-5.62l-.12-.8.81,0a9.36,9.36,0,0,1,.43,18.65Zm1-17.33a39.59,39.59,0,0,1,.31,5V72.85A8.05,8.05,0,0,0,114.1,57Z"/><path class="cls-2" d="M36.67,72.77V62a38.65,38.65,0,0,1,.42-5.73A8.72,8.72,0,0,0,28.67,65h0a8.71,8.71,0,0,0,8,8.68C36.68,73.35,36.67,73.06,36.67,72.77Z"/><path class="cls-1" d="M37.36,74.35l-.72-.06a9.36,9.36,0,0,1,.43-18.68l.79,0-.12.78A39.49,39.49,0,0,0,37.33,62V72.77c0,.18,0,.35,0,.52ZM36.33,57a8,8,0,0,0-7,8A8.1,8.1,0,0,0,36,72.89V62A40.25,40.25,0,0,1,36.33,57Z"/><path class="cls-1" d="M64.37,60.57H48.76a4.31,4.31,0,0,1,4.31-4.31h11.3a2.16,2.16,0,0,1,2.15,2.16h0A2.15,2.15,0,0,1,64.37,60.57Z"/><path class="cls-1" d="M101.66,60.57H86.05a2.15,2.15,0,0,1-2.15-2.15h0a2.16,2.16,0,0,1,2.15-2.16h11.3a4.31,4.31,0,0,1,4.31,4.31Z"/><path class="cls-1" d="M57.45,81.87a12.8,12.8,0,1,1,12.8-12.79A12.81,12.81,0,0,1,57.45,81.87Zm0-24.27A11.48,11.48,0,1,0,68.93,69.08,11.49,11.49,0,0,0,57.45,57.6Z"/><path class="cls-1" d="M93,81.87a12.8,12.8,0,1,1,12.8-12.79A12.81,12.81,0,0,1,93,81.87ZM93,57.6a11.48,11.48,0,1,0,11.48,11.48A11.49,11.49,0,0,0,93,57.6Z"/><rect class="cls-1" x="69.59" y="68.42" width="11.03" height="1.32"/><path class="cls-1" d="M76.35,83.51a5.36,5.36,0,1,1,0-10.71v1.31a4,4,0,0,0,0,8.08Z"/><path class="cls-1" d="M57.45,26H56.13V23A7.87,7.87,0,0,1,64,15.17h40.25v1.31H64a6.56,6.56,0,0,0-6.32,4.85A7.86,7.86,0,0,1,64,18.14H98.54v1.32H64A6.55,6.55,0,0,0,57.45,26Z"/><rect class="cls-1" x="97.98" y="29.46" width="20.09" height="1.32"/><path class="cls-2" d="M123.81,37.26l-1.11-.71a17.52,17.52,0,0,0,2.75-8.64V24.46h1.32v3.48A18.91,18.91,0,0,1,123.81,37.26Z"/><path class="cls-1" d="M114,67.54h-.16a.67.67,0,0,1-.5-.68,4.31,4.31,0,0,1,1.42-3.21,3.83,3.83,0,0,1,2.74-.78.66.66,0,0,1-.17,1.3,2.58,2.58,0,0,0-1.74.51,1.07,1.07,0,0,0-.19.18,3,3,0,0,1,.62-.12.67.67,0,0,1,.71.61.66.66,0,0,1-.6.71,2,2,0,0,0-1.53,1.11A.66.66,0,0,1,114,67.54Z"/><path class="cls-1" d="M36.7,67.58a.67.67,0,0,1-.61-.41A1.93,1.93,0,0,0,34.59,66a.66.66,0,0,1-.59-.72.65.65,0,0,1,.72-.59,3,3,0,0,1,.62.12l-.19-.18a2.55,2.55,0,0,0-1.73-.54.66.66,0,0,1-.72-.58.67.67,0,0,1,.57-.73,3.93,3.93,0,0,1,2.73.84,4.3,4.3,0,0,1,1.36,3.23.65.65,0,0,1-.51.67Z"/><path class="cls-3" d="M54.88,40.08h0"/><path class="cls-3" d="M54.88,40.08a32.21,32.21,0,0,1-13,9l-4.28,1.62-.56,5.52"/><path class="cls-3" d="M113.33,56.28s-.91-6.58-3.4-11a18.11,18.11,0,0,1-5.64.81H60.85a6,6,0,0,1-6-6"/></svg>