<svg width="176" height="246" viewBox="0 0 176 246" fill="none" xmlns="http://www.w3.org/2000/svg">
<rect width="176" height="246" fill="white"/>
<path d="M176 0H0V246H176V0Z" fill="#CED8DD"/>
<path d="M159 108.73C154.807 101.131 151.412 93.1184 148.87 84.8199C143.25 65.5399 128.35 51.7599 110.87 51.7599C108.209 51.773 105.56 52.1088 102.98 52.7599C94.8003 49.4197 85.997 47.8809 77.1693 48.2482C68.3415 48.6155 59.6965 50.8803 51.8226 54.8885C43.9487 58.8966 37.0306 64.554 31.5393 71.4757C26.048 78.3973 22.1122 86.4208 20 94.9999C18.5818 100.89 16.6717 106.65 14.29 112.22C10.974 119.905 9.77015 128.335 10.803 136.641C11.8358 144.947 15.0678 152.826 20.1649 159.464C25.262 166.103 32.0394 171.26 39.7967 174.402C47.5539 177.545 56.0096 178.559 64.29 177.34C70.5 176 74.54 174.6 76.88 173C50.57 169.29 30.3 153.18 27.69 126.81C31.8002 127.473 35.9567 127.807 40.12 127.81C53.062 127.81 65.8098 124.662 77.2643 118.638C88.7188 112.613 98.5362 103.894 105.87 93.2299C116.337 108.916 132.061 120.349 150.21 125.47C148.21 152.47 127.91 169.03 101.4 172.94C105.89 176.88 114.71 177.82 117.47 177.82C125.587 177.828 133.568 175.733 140.636 171.74C147.703 167.747 153.615 161.991 157.797 155.034C161.979 148.077 164.288 140.155 164.499 132.04C164.71 123.926 162.815 115.895 159 108.73V108.73Z" fill="#ECF0F2"/>
<path d="M149 246V222V212C148.421 205.591 144.556 199.631 139.806 195.29C135.056 190.949 128.935 188.001 122.5 188H100H96.806H88.89H80.9739H77.5H55.5C49.0659 188.004 40.7494 190.159 36 194.5C31.2506 198.841 27.5813 205.092 27 211.5V223V246H149Z" fill="#ECF0F2"/>
<path d="M150.39 120.93C150.39 154.93 122.86 173.83 88.89 173.83C54.92 173.83 27.39 154.89 27.39 120.93C27.39 104.619 33.8695 88.9764 45.4029 77.4429C56.9364 65.9094 72.5792 59.4299 88.89 59.4299C105.201 59.4299 120.844 65.9094 132.377 77.4429C143.911 88.9764 150.39 104.619 150.39 120.93V120.93Z" fill="#ECF0F2"/>
<path d="M149.48 122.61C149.06 137.72 142.99 150.44 131.83 159.44C121 168.16 105.78 173 88.89 173C72 173 56.76 168.16 46 159.44C41.2116 155.609 37.2251 150.872 34.2686 145.5C31.3122 140.128 29.4437 134.225 28.7701 128.13L27.05 128.35C28.4667 141.104 34.891 152.773 44.91 160.79C56.03 169.79 71.6601 174.69 88.9101 174.69C106.16 174.69 121.83 169.75 132.91 160.79C144.36 151.55 150.64 138.56 151.19 123.14C150.592 123.072 150.012 122.892 149.48 122.61V122.61Z" fill="#CED8DD"/>
<path d="M87.8803 173.094C83.7908 173.093 80.0549 172.734 76.0007 172.311V190.351C75.9993 191.618 75.9654 192.873 76.5793 194.043C77.1932 195.214 78.0938 196.277 79.2294 197.174C80.3651 198.07 81.7137 198.78 83.1981 199.265C84.6824 199.75 86.2735 200 87.8803 200C91.1265 200 94.2397 198.984 96.535 197.174C98.8304 195.365 100 192.91 100 190.351V172.311C95.9422 172.734 91.9734 173.093 87.8803 173.094Z" fill="#ECF0F2"/>
<path fill-rule="evenodd" clip-rule="evenodd" d="M87.8803 173.094C84.4711 173.093 81.3077 172.844 78.0007 172.516C77.3408 172.45 76.6752 172.382 76.0007 172.311V190.351C76.0007 190.412 76.0005 190.472 76.0004 190.533C75.9976 191.738 75.9947 192.928 76.5793 194.043C77.1932 195.214 78.0938 196.277 79.2294 197.174C80.3651 198.07 81.7137 198.78 83.1981 199.265C84.6824 199.75 86.2735 200 87.8803 200C91.1265 200 94.2397 198.984 96.535 197.174C98.8304 195.365 100 192.91 100 190.351V172.311C99.3312 172.381 98.6649 172.449 98 172.514C94.6306 172.843 91.2989 173.093 87.8803 173.094ZM98 174.523C94.6675 174.846 91.3237 175.093 87.8808 175.094C84.4467 175.093 81.2629 174.847 78.0007 174.526V190.354C77.9992 191.751 78.0098 192.465 78.3505 193.114C78.8221 194.013 79.5321 194.865 80.4683 195.603C81.405 196.342 82.5408 196.947 83.8192 197.364C85.0973 197.782 86.4783 198 87.8803 198C90.7299 198 93.3935 197.104 95.2969 195.603C97.1387 194.151 98 192.264 98 190.351V174.523Z" fill="#CED8DD"/>
<path d="M112.5 139C114.433 139 116 137.209 116 135C116 132.791 114.433 131 112.5 131C110.567 131 109 132.791 109 135C109 137.209 110.567 139 112.5 139Z" fill="#CED8DD"/>
<path d="M64.5 139C66.433 139 68 137.209 68 135C68 132.791 66.433 131 64.5 131C62.567 131 61 132.791 61 135C61 137.209 62.567 139 64.5 139Z" fill="#CED8DD"/>
<path d="M72.2933 121.828L53.4208 124.025C53.3401 123.333 53.538 122.636 53.9709 122.089C54.4038 121.542 55.0362 121.19 55.729 121.109L71.9892 119.216C72.337 119.176 72.6866 119.275 72.9611 119.492C73.2356 119.709 73.4125 120.027 73.453 120.375V120.375C73.4907 120.721 73.3899 121.068 73.1727 121.34C72.9554 121.613 72.6394 121.788 72.2933 121.828V121.828Z" fill="#CED8DD"/>
<path d="M105.621 119.223L121.911 121.12C122.603 121.2 123.236 121.553 123.669 122.1C124.102 122.647 124.3 123.343 124.219 124.036V124.036L105.346 121.839C104.999 121.799 104.681 121.622 104.464 121.347C104.247 121.073 104.147 120.723 104.188 120.375C104.228 120.028 104.405 119.71 104.68 119.493C104.954 119.276 105.304 119.176 105.652 119.217L105.621 119.223Z" fill="#CED8DD"/>
<path d="M60.75 153.77C56.7738 153.772 52.8863 152.595 49.5793 150.387C46.2723 148.179 43.6945 145.04 42.172 141.367C40.6494 137.693 40.2505 133.651 41.0258 129.751C41.801 125.851 43.7155 122.269 46.5272 119.457C49.3388 116.646 52.9212 114.731 56.8212 113.956C60.7211 113.181 64.7634 113.579 68.4366 115.102C72.1098 116.625 75.2489 119.202 77.4567 122.509C79.6646 125.816 80.842 129.704 80.84 133.68C80.8321 139.006 78.7129 144.111 74.947 147.877C71.1811 151.643 66.0758 153.762 60.75 153.77ZM60.75 115.31C57.1164 115.308 53.5637 116.384 50.5415 118.401C47.5192 120.418 45.1631 123.287 43.7712 126.643C42.3793 130 42.0141 133.694 42.7218 137.258C43.4295 140.822 45.1782 144.096 47.7469 146.666C50.3156 149.236 53.5888 150.987 57.1525 151.696C60.7162 152.406 64.4103 152.043 67.7676 150.653C71.1249 149.263 73.9945 146.908 76.0134 143.887C78.0324 140.866 79.11 137.314 79.11 133.68C79.1047 128.811 77.169 124.144 73.7273 120.7C70.2855 117.256 65.6187 115.318 60.75 115.31Z" fill="#CED8DD"/>
<path d="M117 153.77C113.024 153.772 109.136 152.595 105.829 150.387C102.522 148.179 99.9445 145.04 98.422 141.367C96.8994 137.693 96.5005 133.651 97.2758 129.751C98.051 125.851 99.9655 122.269 102.777 119.457C105.589 116.646 109.171 114.731 113.071 113.956C116.971 113.181 121.013 113.579 124.687 115.102C128.36 116.625 131.499 119.202 133.707 122.509C135.915 125.816 137.092 129.704 137.09 133.68C137.085 139.007 134.966 144.114 131.2 147.88C127.433 151.646 122.327 153.765 117 153.77V153.77ZM117 115.31C113.366 115.308 109.814 116.384 106.791 118.401C103.769 120.418 101.413 123.287 100.021 126.643C98.6293 130 98.2641 133.694 98.9718 137.258C99.6795 140.822 101.428 144.096 103.997 146.666C106.566 149.236 109.839 150.987 113.403 151.696C116.966 152.406 120.66 152.043 124.018 150.653C127.375 149.263 130.244 146.908 132.263 143.887C134.282 140.866 135.36 137.314 135.36 133.68C135.355 128.811 133.419 124.144 129.977 120.7C126.536 117.256 121.869 115.318 117 115.31V115.31Z" fill="#CED8DD"/>
<path d="M97 133H80V135H97V133Z" fill="#CED8DD"/>
<path d="M87.46 145.21V143.48C88.2649 143.48 89.0369 143.16 89.606 142.591C90.1752 142.022 90.495 141.25 90.495 140.445C90.495 139.64 90.1752 138.868 89.606 138.299C89.0369 137.73 88.2649 137.41 87.46 137.41V135.68C88.1041 135.651 88.7475 135.752 89.3513 135.978C89.9551 136.204 90.5069 136.55 90.9731 136.996C91.4394 137.441 91.8105 137.976 92.064 138.569C92.3176 139.162 92.4483 139.8 92.4483 140.445C92.4483 141.09 92.3176 141.728 92.064 142.321C91.8105 142.914 91.4394 143.449 90.9731 143.894C90.5069 144.34 89.9551 144.686 89.3513 144.912C88.7475 145.138 88.1041 145.24 87.46 145.21V145.21Z" fill="#CED8DD"/>
<path d="M88.73 155.79C87.222 155.794 85.7355 155.432 84.3979 154.735C83.0603 154.038 81.9116 153.028 81.05 151.79L82.47 150.79C83.1771 151.791 84.1154 152.607 85.2053 153.167C86.2952 153.728 87.5044 154.017 88.73 154.01V154.01C89.9528 154.024 91.1609 153.743 92.2522 153.191C93.3435 152.639 94.286 151.833 95 150.84L96.42 151.84C95.5508 153.069 94.3978 154.07 93.059 154.757C91.7202 155.445 90.2351 155.799 88.73 155.79V155.79Z" fill="#CED8DD"/>
<path d="M40.66 120.93V119.2C57.1243 119.187 73.0665 113.422 85.73 102.9C98.2236 92.5786 106.714 78.2125 109.73 62.29L111.43 62.61C108.35 78.9193 99.6704 93.6405 86.89 104.23C73.9007 115.02 57.5466 120.928 40.66 120.93V120.93Z" fill="#CED8DD"/>
<path d="M40.66 115.42V113.69C55.528 113.691 69.9286 108.495 81.37 99C92.6429 89.6624 100.295 76.6759 103 62.29L104.7 62.61C101.916 77.3803 94.0556 90.7125 82.48 100.3C70.7277 110.059 55.936 115.407 40.66 115.42V115.42Z" fill="#CED8DD"/>
<path d="M153.65 123.69C142.77 121.115 132.594 116.168 123.85 109.201C115.105 102.234 108.01 93.4198 103.07 83.3899L104.62 82.6299C109.449 92.429 116.384 101.04 124.93 107.846C133.475 114.652 143.419 119.485 154.05 122L153.65 123.69Z" fill="#CED8DD"/>
<path d="M58 182.23C44.3578 182.217 31.2779 176.792 21.6305 167.147C11.983 157.501 6.55592 144.422 6.54004 130.78H8.27004C8.28328 143.964 13.5272 156.605 22.8508 165.926C32.1745 175.248 44.8158 180.489 58 180.5V182.23Z" fill="#ECF0F2"/>
<path d="M153.6 167.94L152.4 166.69C157.267 162.064 161.137 156.493 163.773 150.318C166.409 144.143 167.756 137.494 167.73 130.78H169.46C169.487 137.728 168.094 144.608 165.367 150.998C162.64 157.388 158.635 163.153 153.6 167.94Z" fill="#ECF0F2"/>
<path d="M118 182.23V180.5C124.31 180.52 130.566 179.332 136.43 177L137.07 178.61C131.003 181.023 124.529 182.252 118 182.23Z" fill="#ECF0F2"/>
<path fill-rule="evenodd" clip-rule="evenodd" d="M81.07 217.47V223.65H74.88L76.98 221.56C76.2008 220.814 75.2101 220.328 74.1436 220.167C73.0771 220.006 71.987 220.179 71.0225 220.662C70.058 221.145 69.2665 221.914 68.7562 222.864C68.2459 223.814 68.0418 224.899 68.172 225.97C68.3022 227.04 68.7602 228.045 69.4833 228.845C70.2064 229.645 71.1593 230.202 72.2113 230.44C73.2634 230.677 74.3632 230.584 75.3601 230.172C76.357 229.761 77.2022 229.051 77.78 228.14L80.17 229.61C79.2897 231.01 77.9972 232.102 76.4705 232.737C74.9437 233.372 73.2577 233.519 71.6444 233.156C70.0311 232.794 68.5698 231.94 67.4614 230.713C66.3531 229.486 65.6522 227.946 65.4552 226.304C65.2582 224.662 65.5747 223 66.3613 221.545C67.1479 220.091 68.3658 218.916 69.8475 218.182C71.3293 217.448 73.002 217.191 74.6356 217.447C76.2693 217.703 77.7835 218.458 78.97 219.61L81.07 217.47ZM88.25 230.58C86.7422 230.604 85.2849 230.037 84.19 229L82.54 231.31C84.1489 232.628 86.1707 233.336 88.25 233.31C91.44 233.37 94.16 231.18 94.1 228.52C94.1 226.02 92.18 224.52 89.81 223.91L87.34 223.27C84.62 222.49 85.84 220.05 88.25 220.05C89.5681 220.011 90.8574 220.44 91.89 221.26L93.52 219C92.0007 217.862 90.1482 217.258 88.25 217.28C85.34 217.22 82.74 219.28 82.81 221.72C82.81 223.87 84.35 225.39 86.6 225.99L89.23 226.66C92.41 227.52 91.11 230.58 88.25 230.58V230.58ZM108.56 222.52C107.953 221.56 107.051 220.824 105.989 220.421C104.928 220.018 103.764 219.971 102.673 220.287C101.583 220.603 100.624 221.264 99.9419 222.172C99.2597 223.08 98.8909 224.185 98.8909 225.32C98.8909 226.456 99.2597 227.56 99.9419 228.468C100.624 229.376 101.583 230.037 102.673 230.353C103.764 230.669 104.928 230.622 105.989 230.219C107.051 229.817 107.953 229.08 108.56 228.12L110.95 229.59C110.023 231.054 108.645 232.178 107.025 232.792C105.404 233.405 103.628 233.476 101.963 232.994C100.299 232.511 98.8358 231.501 97.7949 230.115C96.754 228.729 96.1912 227.043 96.1912 225.31C96.1912 223.577 96.754 221.891 97.7949 220.505C98.8358 219.119 100.299 218.109 101.963 217.627C103.628 217.144 105.404 217.215 107.025 217.829C108.645 218.442 110.023 219.566 110.95 221.03L108.56 222.52ZM101.66 225.32C101.656 224.831 101.798 224.351 102.067 223.942C102.336 223.534 102.72 223.214 103.171 223.024C103.622 222.834 104.119 222.782 104.6 222.875C105.08 222.968 105.522 223.202 105.869 223.546C106.217 223.891 106.454 224.331 106.551 224.811C106.648 225.29 106.6 225.788 106.414 226.241C106.228 226.693 105.911 227.08 105.504 227.352C105.098 227.625 104.619 227.77 104.13 227.77C103.807 227.771 103.487 227.709 103.188 227.587C102.889 227.464 102.617 227.284 102.388 227.057C102.158 226.829 101.976 226.559 101.851 226.261C101.726 225.963 101.661 225.643 101.66 225.32V225.32Z" fill="#CED8DD"/>
</svg>
