<svg id="Layer_1" data-name="Layer 1" xmlns="http://www.w3.org/2000/svg" viewBox="0 0 150 150"><defs><style>.cls-1{fill:#ced8dd;}.cls-2{fill:#ecf0f2;}</style></defs><rect class="cls-1" width="150" height="150"/><path class="cls-2" d="M126.33,64.6A91.32,91.32,0,0,1,119,47.31c-4.06-13.94-14.84-23.92-27.51-23.92a24,24,0,0,0-5.7.7,44.48,44.48,0,0,0-60,30.56A78,78,0,0,1,21.68,67.1a34,34,0,0,0,36.19,47.11c4.47-.91,7.39-1.95,9.09-3.12-19-2.68-33.7-14.34-35.59-33.41a56.74,56.74,0,0,0,9,.72,57.73,57.73,0,0,0,47.56-25A57.23,57.23,0,0,0,120,76.71c-1.48,19.52-16.13,31.51-35.3,34.33,3.24,2.86,9.62,3.53,11.62,3.54a34,34,0,0,0,30-50Z"/><path class="cls-2" d="M118.55,150V139.31h-.08a18.64,18.64,0,0,0-18.57-17H83.76a8.11,8.11,0,0,1-8.12,8.08h0a8.11,8.11,0,0,1-8.11-8.08H51.39a18.64,18.64,0,0,0-18.57,17h-.08V150Z"/><path class="cls-2" d="M120.13,73.43c0,24.57-19.92,38.26-44.49,38.26S31.16,98,31.16,73.43a44.49,44.49,0,1,1,89,0Z"/><path class="cls-1" d="M119.48,74.64c-.31,10.94-4.7,20.13-12.77,26.65-7.82,6.31-18.85,9.78-31.07,9.78s-23.24-3.47-31.06-9.78A33.76,33.76,0,0,1,32.12,78.64l-1.24.16A34.9,34.9,0,0,0,43.8,102.26c8,6.49,19.35,10.06,31.84,10.06s23.81-3.57,31.85-10.06c8.29-6.68,12.83-16.07,13.23-27.23A3.17,3.17,0,0,1,119.48,74.64Z"/><path class="cls-2" d="M75.64,111.69a63.27,63.27,0,0,1-8.11-.52v11.15a8.11,8.11,0,0,0,8.11,8.11h0a8.11,8.11,0,0,0,8.12-8.11V111.17A63.31,63.31,0,0,1,75.64,111.69Z"/><path class="cls-1" d="M75.64,131.06a8.75,8.75,0,0,1-8.73-8.74V110.45l.7.1a62.64,62.64,0,0,0,16.07,0l.7-.1v11.87A8.75,8.75,0,0,1,75.64,131.06Zm-7.48-19.19v10.45a7.49,7.49,0,1,0,15,0V111.87A62.48,62.48,0,0,1,68.16,111.87Z"/><ellipse class="cls-1" cx="93.3" cy="83.2" rx="2.64" ry="2.94"/><ellipse class="cls-1" cx="57.99" cy="83.2" rx="2.64" ry="2.94"/><path class="cls-1" d="M50.76,72.92H64.53a0,0,0,0,1,0,0v0a1.9,1.9,0,0,1-1.9,1.9H50.76a1,1,0,0,1-1-1v0A1,1,0,0,1,50.76,72.92Z" transform="translate(122.5 140.65) rotate(173.36)"/><path class="cls-1" d="M87.6,72.92H99.47a1.9,1.9,0,0,1,1.9,1.9v0a0,0,0,0,1,0,0H87.6a1,1,0,0,1-1-1v0A1,1,0,0,1,87.6,72.92Z" transform="translate(9.17 -10.37) rotate(6.64)"/><path class="cls-1" d="M55.29,97.19A14.54,14.54,0,1,1,69.82,82.65,14.55,14.55,0,0,1,55.29,97.19Zm0-27.83A13.29,13.29,0,1,0,68.57,82.65,13.3,13.3,0,0,0,55.29,69.36Z"/><path class="cls-1" d="M96,97.19a14.54,14.54,0,1,1,14.54-14.54A14.55,14.55,0,0,1,96,97.19Zm0-27.83a13.29,13.29,0,1,0,13.29,13.29A13.3,13.3,0,0,0,96,69.36Z"/><rect class="cls-1" x="69.2" y="82.03" width="12.64" height="1.25"/><path class="cls-1" d="M74.61,91V89.75a2.2,2.2,0,0,0,0-4.4V84.1a3.45,3.45,0,0,1,0,6.9Z"/><path class="cls-1" d="M75.53,98.65h0A6.77,6.77,0,0,1,70,95.78l1-.71a5.51,5.51,0,0,0,4.53,2.33h0a5.49,5.49,0,0,0,4.53-2.34l1,.72A6.77,6.77,0,0,1,75.53,98.65Z"/><path class="cls-1" d="M40.76,73.43V72.18a51.1,51.1,0,0,0,32.6-11.79A50.22,50.22,0,0,0,90.68,31l1.23.23A51.47,51.47,0,0,1,74.16,61.35,52.33,52.33,0,0,1,40.76,73.43Z"/><path class="cls-1" d="M40.76,69.45V68.2A46.15,46.15,0,0,0,70.21,57.55,45.41,45.41,0,0,0,85.85,31l1.23.23A46.62,46.62,0,0,1,71,58.51,47.39,47.39,0,0,1,40.76,69.45Z"/><path class="cls-1" d="M122.49,75.43A54.9,54.9,0,0,1,85.9,46.28L87,45.72a53.64,53.64,0,0,0,35.76,28.49Z"/><path class="cls-2" d="M53.29,117.78A37.27,37.27,0,0,1,16.07,80.56h1.25a36,36,0,0,0,36,36Z"/><path class="cls-2" d="M122.45,107.44l-.86-.9a35.69,35.69,0,0,0,11.09-26h1.25A36.92,36.92,0,0,1,122.45,107.44Z"/><path class="cls-2" d="M96.71,117.78v-1.25A35.77,35.77,0,0,0,110,114l.47,1.16A37.08,37.08,0,0,1,96.71,117.78Z"/></svg>