<svg xmlns="http://www.w3.org/2000/svg" width="95" height="64">
    <g fill="none" fill-rule="evenodd">
        <path fill="#FFF" stroke="#384349"
              d="M41.052 36.52c0 9.962-8.074 15.515-18.036 15.515-9.96 0-18.036-5.553-18.036-15.514 0-9.961 8.075-18.036 18.036-18.036 9.962 0 18.036 8.075 18.036 18.036zm8.46-11.262c0-9.582 7.53-17.404 16.996-17.872 10.262-.508 18.793 7.854 18.793 18.128v4.491c0 10.275-8.531 18.636-18.793 18.13-9.465-.469-16.996-8.291-16.996-17.873v-5.004z"/>
        <path fill="#2AB79A"
              d="M31.643 40.48c0 .907-.658 1.641-1.47 1.641-.811 0-1.469-.734-1.469-1.64 0-.907.658-1.641 1.47-1.641.811 0 1.469.734 1.469 1.64m-14.314 0c0 .907-.658 1.641-1.47 1.641-.811 0-1.47-.734-1.47-1.64 0-.907.659-1.641 1.47-1.641.812 0 1.47.734 1.47 1.64m6.862-22.884c.883 10.03 8.154 18.225 17.72 20.492.043-.517.07-1.039.07-1.567 0-10.079-7.864-18.318-17.79-18.925"/>
        <path fill="#2AB79A"
              d="M31.641 19.63c-2.49-1.201-5.435-2.033-8.384-2.033-10.474 0-18.951 8.626-18.951 19.1 0 .482.024.958.06 1.431 1.408.268 2.862.41 4.348.41 11.35 0 20.932-8.135 22.927-18.907"/>
        <path fill="#2AB79A"
              d="M43.568 32.943c-1.2-2.245-2.262-4.567-2.974-7.01-1.647-5.655-6.017-9.697-11.152-9.697-.791 0-1.564.098-2.313.28a17.982 17.982 0 00-6.805-1.332c-8.473 0-15.578 5.845-17.51 13.722a31.83 31.83 0 01-1.677 5.05A13.732 13.732 0 00.012 39.42c0 7.613 6.171 13.784 13.784 13.784.684 0 1.356-.051 2.013-.148 1.815-.37 3-.793 3.685-1.264C11.22 50.624 4.98 45.276 4.98 36.521l.002-.076-.001-.073c.001-.136.01-.27.013-.404.005-.148.007-.297.015-.444.007-.125.019-.248.028-.371.014-.186.027-.372.047-.557.004-.044.012-.088.017-.133.87-7.65 6.523-13.845 13.898-15.524l.086-.02c.229-.05.458-.096.69-.138a17.528 17.528 0 011.663-.223 16.137 16.137 0 01.89-.056c.085-.003.168-.01.252-.012.072-.002.143.001.215 0 .074 0 .147-.005.221-.005.088 0 .173.005.26.006a19.689 19.689 0 01.932.037 19.084 19.084 0 01.919.084 18.478 18.478 0 01.904.128 17.723 17.723 0 01.89.173c.144.033.288.065.43.1.15.037.297.076.445.117.14.039.281.077.42.12.147.044.292.09.436.138a16.464 16.464 0 01.839.299c.134.052.269.103.402.158.14.058.278.119.416.18.13.058.262.116.392.178.137.064.27.131.405.199.128.064.256.128.382.196.133.07.264.144.395.218.123.07.247.14.37.213.128.077.255.157.382.237.12.076.24.152.358.23.125.083.247.17.37.256.116.081.232.162.346.246.12.09.239.181.357.273.112.087.223.172.333.261.116.095.23.193.344.291.106.092.214.182.319.276.111.1.22.204.33.307.101.097.204.193.304.291.107.106.21.215.315.323.097.101.195.202.29.305.102.11.2.224.299.338.092.105.186.21.276.318.096.116.189.235.282.353.088.11.176.219.26.33.091.122.179.246.267.37.081.112.164.225.243.34.086.126.167.255.25.383.075.117.152.233.225.352.08.13.155.264.232.397.07.12.141.24.209.362.074.135.143.273.213.41.064.124.13.247.19.372.068.14.131.282.195.424.057.126.117.251.172.38.061.144.117.291.176.438.05.128.103.255.151.385.056.15.105.302.156.453.044.13.09.26.132.39.048.155.09.312.135.468.037.132.077.262.112.394.041.16.076.324.114.486.03.13.063.26.09.392.035.168.062.338.092.508.023.129.05.257.07.387.027.18.047.363.07.546.015.12.033.24.046.362.02.203.033.408.047.612.007.104.018.207.024.311.015.31.024.621.024.935 0 8.703-6.165 14.04-14.366 15.25 1.316 1.158 3.9 1.432 4.712 1.432 7.612 0 13.784-6.171 13.784-13.784 0-2.342-.585-4.546-1.615-6.476"/>
        <path fill="#FFF" stroke="#384349"
              d="M23.049 52.05c-1.12 0-2.214-.075-3.277-.214v4.504a3.276 3.276 0 106.553 0v-4.504c-1.063.14-2.157.213-3.276.213z"/>
        <path fill="#384349"
              d="M16.625 40.48c0 .473-.343.856-.766.856s-.766-.383-.766-.855c0-.473.343-.856.766-.856s.766.383.766.856m14.315 0c0 .472-.343.855-.766.855-.424 0-.767-.383-.767-.855 0-.473.343-.856.767-.856.423 0 .766.383.766.856"/>
        <path stroke="#384349" d="M25.016 45.437c-.974 1.405-3.117 1.406-4.09 0"/>
        <path fill="#F89E1C"
              d="M37.89 63.874v-.32a7.24 7.24 0 00-7.241-7.241h-4.344a3.289 3.289 0 01-6.578 0h-4.343a7.24 7.24 0 00-7.24 7.24v.321"/>
        <path stroke="#384349"
              d="M37.89 63.874v-.32a7.24 7.24 0 00-7.241-7.241h-4.344a3.289 3.289 0 01-6.578 0h-4.343a7.24 7.24 0 00-7.24 7.24v.321"/>
        <path fill="#384349"
              d="M13.285 36.574l4.78-.556a.386.386 0 11.088.767l-5.545.645a.772.772 0 01.677-.856m19.423-.216l-4.81-.09a.386.386 0 10-.015.77l5.582.106a.772.772 0 00-.757-.786"/>
        <path stroke="#F89E1C"
              d="M20.403 40.26a5.64 5.64 0 11-11.282 0 5.64 5.64 0 0111.282 0zm16.508 0a5.64 5.64 0 11-11.281 0 5.64 5.64 0 0111.281 0zM20.402 40.183h5.041"/>
        <path stroke="#384349" d="M22.597 41.102a1.144 1.144 0 110 2.288"/>
        <path fill="#FFF"
              d="M31.076 39.446c-.453.272-.733.637-.626.816.108.18.562.104 1.015-.167.453-.272.733-.637.626-.816-.107-.179-.562-.104-1.015.167m-14.328 0c-.454.272-.734.637-.627.816.108.18.562.104 1.015-.167.453-.272.733-.637.626-.816-.107-.179-.562-.104-1.014.167"/>
        <path stroke="#384349"
              d="M8.872 36.269c10.144 0 18.707-7.27 20.49-16.898M8.872 34.653c9.174 0 16.919-6.575 18.532-15.282m-.001 6.03c2.872 5.8 8.221 10.156 14.666 11.683"/>
        <path fill="#F89E1C"
              d="M49.593 23.317c.966-8.98 8.568-15.974 17.806-15.974 9.237 0 16.839 6.993 17.806 15.973a18.64 18.64 0 00-.092-.717c.974.06 1.852.466 2.52 1.092-.653-10.61-9.46-19.015-20.234-19.015-10.735 0-19.515 8.343-20.225 18.898a4.037 4.037 0 012.51-.98c-.035.239-.065.48-.091.723"/>
        <path stroke="#384349" d="M71.431 36.24c-1.485 3.37-6.43 3.378-7.913 0"/>
        <path fill="#FFF" stroke="#384349"
              d="M67.533 48.19c-3.259 0-6.312-.87-8.948-2.386v6.676a8.995 8.995 0 0017.895 0v-6.676a17.896 17.896 0 01-8.947 2.386z"/>
        <path fill="#2AB79A" d="M61.164 28.5a1.867 1.867 0 11-3.734 0 1.867 1.867 0 013.734 0"/>
        <path fill="#384349" d="M60.17 28.5a.874.874 0 11-1.748-.001.874.874 0 011.748 0"/>
        <path fill="#384349" d="M60.17 28.5a.874.874 0 11-1.748-.001.874.874 0 011.748 0"/>
        <path fill="#2AB79A" d="M77.624 28.5a1.867 1.867 0 11-3.733 0 1.867 1.867 0 013.733 0"/>
        <path fill="#384349" d="M76.631 28.5a.874.874 0 11-1.748-.001.874.874 0 011.748 0"/>
        <path fill="#32B99A"
              d="M95.13 64v-1.577c0-5.88-4.767-10.647-10.647-10.647H76.48v.716c-.46 4.549-4.29 8.1-8.948 8.1-4.657 0-8.487-3.551-8.947-8.1v-.716h-8.507c-5.88 0-10.647 4.767-10.647 10.647V64"/>
        <path stroke="#384349"
              d="M95.13 64v-1.577c0-5.88-4.767-10.647-10.647-10.647H76.48v.716c-.46 4.549-4.29 8.1-8.948 8.1-4.657 0-8.487-3.551-8.947-8.1v-.716h-8.507c-5.88 0-10.647 4.767-10.647 10.647V64"/>
        <path fill="#F89E1C"
              d="M58.038 15.093v.013a2.773 2.773 0 002.772 2.772l20.356.003c4.727 0 8.767-3.58 9.139-8.293.02-.257.03-.517.03-.78 0 0-5.349.01-7.39.02 2.52-1.764 3.484-4.586 3.484-6.828H62.808a4.852 4.852 0 00-4.853 4.852v.022-3.996c-5.765 0-10.44 4.697-10.44 10.488 0 2.395.84 4.928 2.48 6.706l2.015-.762a14.954 14.954 0 006.017-4.204l.011-.013z"/>
        <path fill="#FFF" stroke="#384349"
              d="M85.104 22.6c.128.866.197 1.753.197 2.655v5.01c0 .132-.007.262-.01.394a4.045 4.045 0 00-.187-8.06zm-35.592 7.665v-5.01c0-.904.069-1.793.198-2.662a4.045 4.045 0 00-3.915 4.042 4.046 4.046 0 003.727 4.032c-.003-.135-.01-.268-.01-.402z"/>
        <path fill="#384349"
              d="M62.387 24.683H55.08v-.013c0-1.106.896-2.003 2.003-2.003h5.304c.553 0 1.001.448 1.001 1.001v.013c0 .554-.448 1.002-1.001 1.002m17.33 0h-7.306a1.002 1.002 0 01-1.002-1.002v-.013c0-.553.449-1.001 1.002-1.001h5.304c1.106 0 2.003.897 2.003 2.003v.013z"/>
        <path stroke="#2AB79A"
              d="M64.785 28.549a5.64 5.64 0 11-11.281 0 5.64 5.64 0 0111.281 0zm16.508 0a5.64 5.64 0 11-11.28 0 5.64 5.64 0 0111.28 0zM64.76 28.589h5.041"/>
        <path fill="#FFF" d="M59.145 28.5l-1.179-1.858-.63 1.353zM75.563 28.5l-1.179-1.858-.63 1.353z"/>
        <path stroke="#384349"
              d="M67.927 34.95a2.183 2.183 0 110-4.367M80.89 3.89H62.182a3.345 3.345 0 00-3.345 3.345v.967A3.052 3.052 0 0161.89 5.15h16.229M77.866 10.443h9.325M72.321 18.76l9.192.002c1.405 0 2.747-.33 3.94-.919"/>
        <path stroke="#384349" stroke-linecap="round" stroke-linejoin="round"
              d="M86.898 25.961s-1.472-.2-1.587 1.57c0 0 .28-.643.965-.697m-38.433-.888s1.476-.172 1.558 1.6c0 0-.27-.648-.953-.715"/>
    </g>
</svg>
