<svg width="95" height="64" viewBox="0 0 95 64" xmlns="http://www.w3.org/2000/svg">
  <g fill="none" fill-rule="evenodd">
    <path d="M72.6334649 6.1344083s-3.7709008-4.2715718-14.0226968-3.812347c-7.6599826.3430567-12.1344043 5.3067814-12.1344043 5.3067814" stroke="#384349" stroke-width=".5"/>
    <path fill="#F69C1C" d="M5.6803782 57.605617L38.7521394 7.855163l10.0251441 6.4543696-23.7932423 53.7561775z"/>
    <path stroke="#394349" stroke-width=".5" stroke-linejoin="round" d="M5.6803782 57.605617L38.7521394 7.855163l10.0251441 6.4543696-23.7932423 53.7561775z"/>
    <path d="M36.2155562 18.1367175c-.0394332.5615378-.0185526 1.1274571.0875108 1.6802321.3952791 2.0591694 1.6930213 3.6526012 3.3675693 4.5108944 1.4551196.7459146 3.1946791.9365675 4.8739638.3955159l26.1553249-8.4289887c.8382806-.2699929 1.5168153-.8241888 1.9527118-1.5285387.4358964-.7042315.6291545-1.5587353.4970001-2.429344-.1325097-.8730954-.5755112-1.6313255-1.2060867-2.1697718-.630694-.5384464-1.4489619-.8569906-2.3320045-.8510357l-26.7475329.1829217c-1.705692.011605-3.2630062.67889-4.4238573 1.7684534-1.1609694 1.0896819-1.9251204 2.6018789-2.0444856 4.3033078l-.1801137 2.5663536z" fill="#F69C1C"/>
    <path d="M36.2155562 18.1367175c-.0394332.5615378-.0185526 1.1274571.0875108 1.6802321.3952791 2.0591694 1.6930213 3.6526012 3.3675693 4.5108944 1.4551196.7459146 3.1946791.9365675 4.8739638.3955159l26.1553249-8.4289887c.8382806-.2699929 1.5168153-.8241888 1.9527118-1.5285387.4358964-.7042315.6291545-1.5587353.4970001-2.429344-.1325097-.8730954-.5755112-1.6313255-1.2060867-2.1697718-.630694-.5384464-1.4489619-.8569906-2.3320045-.8510357l-26.7475329.1829217c-1.705692.011605-3.2630062.67889-4.4238573 1.7684534-1.1609694 1.0896819-1.9251204 2.6018789-2.0444856 4.3033078l-.1801137 2.5663536z" stroke="#394349" stroke-width=".5" stroke-linejoin="round"/>
    <path d="M55.4701468 86.6966527l-25.821031-35.190495c-2.0852214-2.8537538-5.0922081-4.6663772-8.3302281-5.3022815-3.2379017-.6359043-6.7070735-.095208-9.7167838 1.7577959l-1.2104681.745204c-2.7566512 1.6972843-4.834886 4.1666535-6.0601564 7.0043026-1.225152 2.8375305-1.5975763 6.0433409-.9428436 9.2138627L4.7374161 86.87949l50.7327307-.1828373z" fill="#FBD435"/>
    <path d="M55.4701468 86.6966527l-25.821031-35.190495c-2.0852214-2.8537538-5.0922081-4.6663772-8.3302281-5.3022815-3.2379017-.6359043-6.7070735-.095208-9.7167838 1.7577959l-1.2104681.745204c-2.7566512 1.6972843-4.834886 4.1666535-6.0601564 7.0043026-1.225152 2.8375305-1.5975763 6.0433409-.9428436 9.2138627L4.7374161 86.87949l50.7327307-.1828373z" stroke="#39444A" stroke-width=".5"/>
    <path d="M40.5345662 5.8834689c6.1815347 0 11.1927449 5.0110918 11.1927449 11.1927449 0 6.1814163-5.0112102 11.1925081-11.1927449 11.1925081-6.1814163 0-11.1926265-5.0110918-11.1926265-11.1925081 0-6.1816531 5.0112102-11.192745 11.1926265-11.192745" fill="#FBD435"/>
    <path d="M40.5345662 5.8834689c6.1815347 0 11.1927449 5.0110918 11.1927449 11.1927449 0 6.1814163-5.0112102 11.1925081-11.1927449 11.1925081-6.1814163 0-11.1926265-5.0110918-11.1926265-11.1925081 0-6.1816531 5.0112102-11.192745 11.1926265-11.192745z" stroke="#39444A" stroke-width=".5"/>
    <path d="M70.4599629 8.5026486c1.6089445-2.6389437 5.0525381-3.474027 7.6914818-1.8650825 2.6389437 1.6089445 3.4739086 5.0525381 1.8649641 7.6914818-1.6089445 2.6389437-5.0525381 3.4739086-7.6914818 1.8649641-2.6389437-1.6089445-3.4739086-5.0524197-1.8649641-7.6913634" fill="#FBD435"/>
    <path d="M70.4599629 8.5026486c1.6089445-2.6389437 5.0525381-3.474027 7.6914818-1.8650825 2.6389437 1.6089445 3.4739086 5.0525381 1.8649641 7.6914818-1.6089445 2.6389437-5.0525381 3.4739086-7.6914818 1.8649641-2.6389437-1.6089445-3.4739086-5.0524197-1.8649641-7.6913634z" stroke="#39444A" stroke-width=".5"/>
    <path d="M85.2468225 20.6513579c-5.0015 0-9.1400885-3.9949475-9.2832558-9.0262888-.145654-5.1206284 3.9018711-9.4049894 9.022381-9.5507618l.4853952-.013855 7.0607878 3.7724403-2.1942843 1.2494276-5.7009947-1.3213073c-2.8869109.3141628-5.1013263 2.808163-5.017368 5.7600852.0839583 2.9519223 2.4369227 5.3156628 5.3368596 5.4655799l5.6253256-1.6647194 2.2531381 1.1437989-6.8349649 4.1680745-.4852767.0137365c-.0894055.0024868-.1789295.0037894-.2677429.0037894" fill="#394349"/>
    <path d="M85.2468225 20.6513579c-5.0015 0-9.1400885-3.9949475-9.2832558-9.0262888-.145654-5.1206284 3.9018711-9.4049894 9.022381-9.5507618l.4853952-.013855 7.0607878 3.7724403-2.1942843 1.2494276-5.7009947-1.3213073c-2.8869109.3141628-5.1013263 2.808163-5.017368 5.7600852.0839583 2.9519223 2.4369227 5.3156628 5.3368596 5.4655799l5.6253256-1.6647194 2.2531381 1.1437989-6.8349649 4.1680745-.4852767.0137365c-.0894055.0024868-.1789295.0037894-.2677429.0037894z" stroke="#394349" stroke-width=".5"/>
    <path d="M75.0964159 17.1905226c-1.0564064 0-2.093866-.292137-3.0004737-.844912-1.3168074-.8027551-2.2421252-2.0703007-2.6056683-3.5691166-.3634246-1.4989342-.1213783-3.0494987.6814953-4.3663061 1.0571169-1.7338754 2.9020683-2.769085 4.9353043-2.769085 1.056288 0 2.0937475.292137 3.0003553.844912 1.3168074.8027551 2.2420067 2.0703007 2.6055498 3.5691165.3634247 1.4988159.1213784 3.0494987-.6814952 4.3664246-1.0569985 1.7338754-2.9018315 2.7689666-4.9350675 2.7689666" fill="#FBD435"/>
    <path d="M75.1075235 5.4634523h-.0005921c-2.0956422.0002368-3.9974343 1.0671824-5.0868793 2.8542275-1.7082971 2.8020052-.8185048 6.4714218 1.983382 8.179719.934436.5695902 2.0038683.870727 3.0928397.870727 2.0957606 0 3.9973158-1.0669456 5.0869977-2.8541091.827623-1.3573064 1.0768927-2.9557117.7023368-4.5007105-.374556-1.5448804-1.3284124-2.8515039-2.6858372-3.6790084-.9343176-.5697087-2.0036315-.8708455-3.0922476-.8708455m-.0005921.3552538c.9930528 0 1.9980658.264072 2.9079893.81886 2.6389437 1.6089445 3.474027 5.0525381 1.864964 7.6914818-1.0542748 1.7291387-2.8965027 2.6838241-4.7836109 2.6838241-.9929344 0-1.9979474-.264072-2.9077524-.8187416-2.6390622-1.6090629-3.474027-5.0526565-1.8650825-7.6916002 1.0541564-1.7290203 2.8965027-2.6835873 4.7834925-2.6838241" fill="#39444A"/>
    <path d="M77.0847715 11.3880437c0-1.0790242-.8748718-1.953896-1.953896-1.953896s-1.9538959.8748718-1.9538959 1.953896c0 1.0790243.8748717 1.953896 1.9538959 1.953896s1.953896-.8748717 1.953896-1.953896" fill="#394349"/>
    <path d="M77.0847715 11.3880437c0-1.0790242-.8748718-1.953896-1.953896-1.953896s-1.9538959.8748718-1.9538959 1.953896c0 1.0790243.8748717 1.953896 1.9538959 1.953896s1.953896-.8748717 1.953896-1.953896z" stroke="#394349" stroke-width=".5"/>
    <path d="M46.0592721 17.0721047c0-3.0412095-2.4652246-5.506434-5.506434-5.506434-3.0412095 0-5.5064341 2.4652245-5.5064341 5.506434 0 3.0412094 2.4652246 5.506434 5.5064341 5.506434 3.0412094 0 5.506434-2.4652246 5.506434-5.506434" fill="#FFF"/>
    <path d="M46.0592721 17.0721047c0-3.0412095-2.4652246-5.506434-5.506434-5.506434-3.0412095 0-5.5064341 2.4652245-5.5064341 5.506434 0 3.0412094 2.4652246 5.506434 5.5064341 5.506434 3.0412094 0 5.506434-2.4652246 5.506434-5.506434z" stroke="#39444A" stroke-width=".5"/>
    <path d="M42.506734 17.0721047c0-1.0790243-.8748717-1.953896-1.9538959-1.953896-1.0790243 0-1.953896.8748717-1.953896 1.953896 0 1.0790242.8748717 1.9538959 1.953896 1.9538959 1.0790242 0 1.9538959-.8748717 1.9538959-1.9538959" fill="#394349"/>
    <path d="M42.506734 17.0721047c0-1.0790243-.8748717-1.953896-1.9538959-1.953896-1.0790243 0-1.953896.8748717-1.953896 1.953896 0 1.0790242.8748717 1.9538959 1.953896 1.9538959 1.0790242 0 1.9538959-.8748717 1.9538959-1.9538959z" stroke="#394349" stroke-width=".5"/>
  </g>
</svg>
