<svg xmlns="http://www.w3.org/2000/svg" width="115" height="46" viewBox="0 0 115 46"><defs/><g fill="none" fill-rule="nonzero"><path fill="#07C39F" d="M62.63 39.92h1v5.81h-1zM67.08 35.47h5.81v1h-5.81zM55.798 42.551l4.109-4.108.707.707-4.109 4.108zM65.599 39.044l.707-.707 4.108 4.109-.707.707zM62.63 26.06h1v5.81h-1zM53.22 35.47h5.81v1h-5.81zM65.598 32.752l4.109-4.108.707.707-4.108 4.108zM55.8 29.234l.707-.707 4.108 4.108-.707.707z"/><path fill="#F59D20" d="M2.75 15.5l1 .65s-2.46 4-1.51 7.5a6 6 0 003.23 3.7c.487.241 1 .426 1.53.55a9.77 9.77 0 01.25-3.51c.91-3.65 3.88-7 6.89-7.86a3.57 3.57 0 013.62.78c1.85 1.86 1.76 4.69-.23 7.4a11.34 11.34 0 01-9 4.64 9.65 9.65 0 002.67 4.06 11.05 11.05 0 003.86 2.49 10.82 10.82 0 014.57-7.64 3.53 3.53 0 013.8-.26 3.44 3.44 0 011.63 3.43 7.31 7.31 0 01-4.82 5.65 7.9 7.9 0 01-3.91.4A4.15 4.15 0 0019 40.73a7.35 7.35 0 006.78-.93l.7 1a8.61 8.61 0 01-8 1.06 5.36 5.36 0 01-3.51-4.66 11.94 11.94 0 01-4.71-2.91 10.81 10.81 0 01-3.14-5.09A8 8 0 015 28.45 7.14 7.14 0 011.1 24a9 9 0 010-4.39 14.88 14.88 0 011.65-4.11zM16.49 24c1.62-2.22 1.75-4.38.34-5.8a2.39 2.39 0 00-2.41-.46c-2.26.63-5.13 3.4-6 7a8.61 8.61 0 00-.18 3.41A10 10 0 0016.49 24zm3.31 12a6.1 6.1 0 004-4.61 2.24 2.24 0 00-1-2.26 2.42 2.42 0 00-2.52.24 9.6 9.6 0 00-4 6.92 6.61 6.61 0 003.52-.35V36z"/><path fill="#07C39F" d="M32.29 21A2.75 2.75 0 1129 23.08 2.77 2.77 0 0132.29 21zM32 22.22a1.51 1.51 0 10-.638 2.952A1.51 1.51 0 0032 22.22z"/><path fill="#FFF" d="M24.39 4.39a2.36 2.36 0 11-2.83 1.78 2.38 2.38 0 012.83-1.78zm-.28 1.2a1.13 1.13 0 10-.428 2.22 1.13 1.13 0 00.428-2.22z"/><path fill="#F59D20" d="M84.6 45.33L83.32 4.59l29.45 28.01z"/><path fill="#07C39F" d="M97.04 17.64L84.02 26.9l.29 9.25 3.03-2.16v-.01l15.38-10.93zM91.67 40l.01.01-7.09 5.04.01.28 28.17-12.73-4.57-4.35zM91.57 12.43l-8.25-7.84.42 13.41z"/><circle cx="83.18" cy="4.65" r="3.37" fill="#F59D20"/><path fill="#FFF" d="M102.72 5.76h3.47v1h-3.47zM108.14 8.63h1v3.47h-1zM104.113 2.4l.707-.706 2.454 2.453-.707.707zM104.117 10.051l2.453-2.453.707.707-2.453 2.453zM111.01 5.76h3.47v1h-3.47zM108.14.35h1v3.47h-1zM109.98 8.251l.707-.707 2.454 2.454-.707.707zM109.983 4.2l2.454-2.453.707.707-2.454 2.454zM47.39 2.62a8.77 8.77 0 01-7.91 8 8.81 8.81 0 015.23 2.41 8.72 8.72 0 012.68 5.62 8.78 8.78 0 017.91-8 8.75 8.75 0 01-7.91-8v-.03z"/></g></svg>