<svg xmlns="http://www.w3.org/2000/svg" width="113" height="48" viewBox="0 0 113 48"><defs/><g fill="none" fill-rule="nonzero"><path fill="#FFF" d="M101.32 25.83v10.73a2.63 2.63 0 00-1.32-.36 2.72 2.72 0 102.71 2.71v-9.74l8-2.24v6.92a2.71 2.71 0 101.36 2.44V22.83l-10.75 3z"/><path fill="#F69C1C" d="M66.61 41.8h1v5.81h-1zM71.06 37.35h5.81v1h-5.81zM59.782 44.432l4.109-4.109.707.708-4.109 4.108zM69.582 40.924l.707-.707 4.108 4.109-.707.707zM66.61 27.94h1v5.81h-1zM57.2 37.35h5.81v1H57.2zM69.582 34.633l4.109-4.109.707.707-4.108 4.109zM59.782 31.125l.707-.707 4.109 4.108-.708.707z"/><path fill="#FFF" d="M107.31.47a5.28 5.28 0 01-1.55 3.31 5.19 5.19 0 01-3.17 1.47 5.26 5.26 0 014.72 4.75A5.24 5.24 0 01112 5.25a5.22 5.22 0 01-4.72-4.78h.03z"/><path fill="#07C39F" d="M40.42 38.56a9.12 9.12 0 01-4.28-1 7.13 7.13 0 01-3.5-4.74 8 8 0 01-.25-2.37 10.82 10.82 0 01-4.26-4.19 12 12 0 01-1.79-5.24 5.37 5.37 0 01-3.76-4.46 8.63 8.63 0 012.8-7.53l.83.92a7.37 7.37 0 00-2.42 6.4 4.19 4.19 0 002.55 3.36A7.89 7.89 0 0127.6 16a7.29 7.29 0 016.58-3.44 3.43 3.43 0 013 2.34 3.55 3.55 0 01-1.08 3.66 10.84 10.84 0 01-8.47 2.76 11.15 11.15 0 001.57 4.32 9.74 9.74 0 003.36 3.51 11.32 11.32 0 016.52-7.71c3.08-1.34 5.86-.79 7.27 1.42a3.57 3.57 0 01-.05 3.7c-1.48 2.76-5.43 4.89-9.2 5a9.53 9.53 0 01-3.48-.56 6.21 6.21 0 00.22 1.53 5.9 5.9 0 002.89 4c3.17 1.71 7.6.22 7.64.2l.41 1.17a14.9 14.9 0 01-4.36.66zm-6.72-8.83a8.54 8.54 0 003.37.59c3.68-.08 7-2.26 8.13-4.32a2.41 2.41 0 00.09-2.46c-1.07-1.69-3.21-2-5.73-.95a10 10 0 00-5.86 7.14zm-6.14-9.64a9.63 9.63 0 007.64-2.36 2.42 2.42 0 00.8-2.41 2.25 2.25 0 00-2-1.52 6.09 6.09 0 00-5.39 2.9 6.63 6.63 0 00-1.05 3.39z"/><path fill="#FFF" d="M18.12 39.18a2.78 2.78 0 11-.02-5.56 2.78 2.78 0 01.02 5.56zm0-4.32a1.54 1.54 0 101.54 1.54 1.55 1.55 0 00-1.54-1.54zM42.6 13.28a2.76 2.76 0 110-5.52 2.76 2.76 0 010 5.52zm0-4.27a1.52 1.52 0 101.52 1.51A1.52 1.52 0 0042.6 9v.01z"/><path fill="#07C39F" d="M54.84 19.71a2.36 2.36 0 110-4.72 2.36 2.36 0 010 4.72zm0-3.48a1.13 1.13 0 10.06 2.26 1.13 1.13 0 00-.06-2.26zM.1 6.75h3.47v1H.1zM5.51 9.62h1v3.47h-1zM1.492 3.387L2.2 2.68l2.454 2.454-.707.707zM1.496 11.047L3.95 8.593l.707.707-2.453 2.454zM8.38 6.75h3.47v1H8.38zM5.51 1.33h1V4.8h-1zM7.343 9.24l.707-.707 2.454 2.453-.707.707zM7.347 5.18L9.8 2.726l.707.707-2.453 2.454z"/><path fill="#FFF" d="M81.08 4.64a8.77 8.77 0 01-7.9 8 8.77 8.77 0 017.9 8 8.8 8.8 0 017.91-8 8.79 8.79 0 01-7.91-8z"/></g></svg>