<svg version="1.1" id="Layer_1" xmlns="http://www.w3.org/2000/svg" x="0" y="0" width="1800" height="700" viewBox="0 0 1800 700" xml:space="preserve">
  <style>
    .st0{fill:#fff}.st1{fill:#ced8dd}.st2{fill:#1d1d1d}.st3{fill:#f59d20}.st4{fill:#07c39f}.st5{fill:#ecf0f2}.st6{fill:#8899a4}.st7{fill:#374148}.st8{opacity:.5}
  </style>
  <path class="st0" d="M1767.5 668.2l-1.4-.2c2.1-14.6 3-29.7 2.5-45-1.3-47.7-13.8-89.8-36.2-121.8-10.6-15.1-23.1-27.6-37.2-37.1-14.1-9.5-29.4-15.7-45.5-18.6l.2-1.4c16.3 2.9 31.8 9.3 46 18.9 14.2 9.6 26.9 22.2 37.6 37.5 22.6 32.3 35.2 74.7 36.5 122.6.5 15.2-.4 30.5-2.5 45.1z"/>
  <path class="st1" d="M1590.8 526.1l45.1 24.8c11.6 5.2 27.2-1 25.1-15.8-3.8-27.9-12.3-102.2-12.3-102.2-2.6-12.3-13.6-21.2-26.2-21.2h-87.1c-9.6 0-18.5 5.2-23.3 13.6l-26.4 49.1"/>
  <path class="st0" d="M1590.8 529v-35.9l-13.5-5.5s-13.3-6.5-28.6-3.9c-2.2.4-13-2.8-14.2-.3-1 2.2 2.9 3.6 2.9 3.6s-3.6 2.2-5.5 3.6c-1.8 1.3-10.7 7.4-10.7 7.4s8.6 18.2 21.6 8.1c1.2-.9 1.1-3.5 5.8.5"/>
  <path class="st2" d="M1630.4 508.9l-53.4-20.6c-.2-.1-24.4-11.5-44.6 3-1.2.9-7.7 4.8-9.4 6.2 2.6 0 11.5-2.3 16.9-6l.8-.6.3 1c0 .1 2.4 8.6 6.9 12.4l-.9 1.1c-4-3.3-6.3-9.8-7-12.2-7.7 5.1-18.5 5.7-18.8 5.6l-1.5-.2 1.2-1c.2-.2 9-6.1 10.8-7.4 11-7.8 22.9-8.3 31-7.2 8.5 1.1 14.5 3.9 15 4.1l53.3 20.6-.6 1.2z"/>
  <path class="st2" d="M1529 504.4l-.4-1.4c8.4-2.2 13.5-6 13.5-6.1l.9 1.1c-.2.3-5.4 4.2-14 6.4zM1571.2 516.6l-24.4-11.4-1.9-2.1c-1.4 1.2-5.4 4.2-12.4 6l-.4-1.4c8.3-2.2 12.3-6.1 12.3-6.1l.5-.5 2.7 3 24.1 11.3-.5 1.2z"/>
  <path class="st0" d="M1590.8 526.1v-32.9"/>
  <path class="st2" d="M1591.5 526.1h-1.4v-33.9l1.4.7zM1536.5 488.2c-1.4-1.3-3.2-3.7-2.5-5.2.3-.5.9-1.1 2.4-.8 4.8.9 14.4.6 14.5.6l-.3 1.3c-.4 0-9.5.3-14.4-.6-.6-.1-.9 0-.9 0-.2.4.5 2 2.2 3.6l-1 1.1z"/>
  <path transform="rotate(-15.971 1539.65232 490.58153)" class="st2" d="M1539.1 489h1.4v3.1h-1.4z"/>
  <path class="st2" d="M1580 437.7c-7.7 0-15-4.3-18.6-11.6-3.4-7.4-.1-14.2 0-14.5l1.3.6c0 .1-3.1 6.5 0 13.3 4.4 8.9 14.7 13 24.1 9.6 9.3-3.5 14.5-13.3 12-23l1.4-.4c2.7 10.3-2.8 20.9-12.9 24.6-2.5.9-4.9 1.4-7.3 1.4z" id="XMLID_307_"/>
  <path class="st2" d="M1644.5 553.4c-3 0-6-.6-8.8-1.9l-64.4-34.9.7-1.2 64.4 34.9c6.3 2.8 13.9 2.2 18.9-1.6 4.1-3.1 6-7.9 5.2-13.4-3.8-27.4-12-100.2-12.2-102.2-2.6-11.9-13.3-20.6-25.5-20.6h-87.1c-9.4 0-18.1 5.1-22.7 13.2l-26.4 49-1.2-.7 26.4-49.1c4.9-8.6 14-14 23.9-14h87.1c12.9 0 24.2 9.1 26.9 21.7v.1c.1.7 8.5 74.6 12.2 102.2.8 6.1-1.2 11.4-5.8 14.8-3.3 2.5-7.4 3.7-11.6 3.7z"/>
  <g id="XMLID_306_">
    <path class="st3" d="M1504.6 491.6l56.6 20.4c.8.3 1.8-.1 2.1-1 1.2-3.4-.5-7.1-3.9-8.3l-52-18.7-2.8 7.6z"/>
    <path class="st2" d="M1561.7 512.7c-.3 0-.5 0-.8-.1l-57.2-20.6 3.2-8.9 52.7 19c3.7 1.3 5.7 5.5 4.3 9.2-.3.8-1.2 1.4-2.2 1.4zm-56.2-21.6l55.9 20.1c.5.2 1-.1 1.2-.6 1.1-3-.5-6.3-3.5-7.4l-51.3-18.5-2.3 6.4z"/>
  </g>
  <g id="XMLID_305_">
    <path class="st3" d="M1433.7 497h85.2l-14.7-59c-.7-2.6-3-4.5-5.8-4.5h-76.8c-1.9 0-3.3 1.8-2.9 3.7l15 59.8z"/>
    <path class="st2" d="M1519.9 497.7h-86.7l-15-60.3c-.3-1.1 0-2.3.7-3.1s1.8-1.4 2.9-1.4h76.8c3.1 0 5.7 2.1 6.4 5l14.9 59.8zm-85.6-1.4h83.8l-14.5-58.1c-.6-2.3-2.7-4-5.1-4h-76.8c-.7 0-1.4.3-1.8.9-.4.6-.6 1.3-.4 1.9l14.8 59.3z"/>
  </g>
  <g id="XMLID_300_">
    <path transform="rotate(-160.186 1466.2299 466.28858)" class="st0" d="M1460.3 463.4h11.8v5.8h-11.8z" id="XMLID_304_"/>
    <path class="st2" d="M1454.4 462l5.2 5 2-5.5z" id="XMLID_303_"/>
    <path class="st3" d="M1462.7 465c-.3.8.1 1.7.9 2 .8.3 1.7-.1 2-.9.3-.8-.1-1.7-.9-2-.8-.3-1.7.1-2 .9z" id="XMLID_302_"/>
    <path class="st2" d="M1472.8 465.5l6.6.6-4.1 1.9 4.5 3.1h-5.2l1.8 3.7-5.6-3.8z" id="XMLID_301_"/>
  </g>
  <g>
    <path class="st0" d="M1521.9 466.8l-4.5 24.2"/>
    <path transform="rotate(-79.537 1519.59285 478.94164)" class="st2" d="M1507.4 478.2h24.6v1.4h-24.6z"/>
  </g>
  <g id="XMLID_267_">
    <g id="XMLID_287_">
      <g id="XMLID_290_">
        <path class="st3" d="M1531.4 352l3.5 10.2 3.5-8.6z" id="XMLID_299_"/>
        <g id="XMLID_298_">
          <path class="st0" d="M1533.9 367.8c1.6-18.5 17.8-32.1 36.3-30.6 18.5 1.6 32.1 17.8 30.6 36.3l-.8 9.3c-1.6 18.5-17.8 32.1-36.3 30.6-18.5-1.6-32.1-17.8-30.6-36.3l.8-9.3z"/>
          <path class="st2" d="M1566.6 414.2c-1 0-1.9 0-2.9-.1-18.8-1.6-32.8-18.2-31.2-37l.8-9.3c.8-9.1 5.1-17.4 12-23.3 7-5.9 15.9-8.7 25-7.9 18.8 1.6 32.8 18.2 31.2 37l-.8 9.3c-1.6 17.8-16.5 31.3-34.1 31.3zm-32.7-46.4l.7.1-.8 9.3c-1.5 18 11.9 34 29.9 35.5s34-11.9 35.5-29.9l.8-9.3c1.5-18-11.9-34-29.9-35.5-8.7-.7-17.2 2-23.9 7.6-6.7 5.7-10.8 13.6-11.6 22.3l-.7-.1z"/>
        </g>
        <path class="st2" d="M1566.5 378.8c-.1 1.4-1.3 2.4-2.6 2.3-1.3-.1-2.3-1.3-2.2-2.7s1.3-2.4 2.6-2.3c1.3.1 2.3 1.3 2.2 2.7z" id="XMLID_297_"/>
        <path class="st2" d="M1541.8 376.7c-.1 1.4-1.3 2.4-2.6 2.3-1.3-.1-2.3-1.3-2.2-2.7.1-1.4 1.3-2.4 2.6-2.3 1.3.1 2.3 1.3 2.2 2.7z" id="XMLID_296_"/>
        <g id="XMLID_295_">
          <path class="st0" d="M1596.5 413l-4.3-11.5c-6.8 8.1-17.2 12.8-28.5 11.8h-.4l-2.7-.3 4.4 11.7c3.8 7.7 12.8 11.4 21 8.4s12.7-11.8 10.5-20.1z"/>
          <path class="st2" d="M1580.1 434.9c-6.5 0-12.7-3.6-15.7-9.8v-.1l-4.8-12.9 1.2.2c.8.1 1.7.2 2.6.3h.4c10.6.9 21-3.4 27.9-11.6l.8-.9 4.7 12.7c2.3 8.8-2.4 17.7-10.9 20.9-2.1.8-4.1 1.2-6.2 1.2zm-14.4-10.4c3.7 7.5 12.3 10.9 20.1 8 7.8-2.9 12.1-11.1 10-19.2l-3.9-10.4c-7.2 7.9-17.7 12.1-28.3 11.2h-.4c-.5 0-1-.1-1.5-.2l4 10.6z"/>
        </g>
        <g id="XMLID_292_">
          <path class="st2" d="M1544.9 367.5l-13.5-1.2c.2-2.1 2-3.6 4.1-3.4l9.8.8c1 .1 1.8 1 1.7 2-.2 1.1-1.1 1.9-2.1 1.8z" id="XMLID_294_"/>
          <path class="st2" d="M1577.2 370.2l-13.5-1.2c-1-.1-1.8-1-1.7-2 .1-1 1-1.8 2-1.7l9.8.8c2.1.2 3.6 2.1 3.4 4.1z" id="XMLID_293_"/>
        </g>
        <path class="st3" d="M1571.9 337.4c-1.2-.1-2.4-.1-3.7-.1l3.3 1.7 10.7 15.1 4.9 18.7 4 .3c4.1.3 7.1 3.9 6.7 8-.3 4.1-3.8 7.1-8.9 6.7l3.1 14.7.6.2c6.2-5.4 8.4-12.7 9-19.7l.8-9.3c1.6-18.5-12.1-34.8-30.5-36.3z" id="XMLID_291_"/>
      </g>
      <path class="st2" d="M1588.5 382.7h-.2c-.3-.1-.5-.4-.5-.8.2-1.3.7-2.2 1.5-2.8 1.2-.8 2.5-.5 2.5-.5.4.1.6.5.5.8-.1.4-.5.6-.8.5 0 0-.6-.1-1.2.1.4 0 .7.3.7.7 0 .4-.3.7-.7.7-.8 0-1.3.8-1.3.8 0 .3-.2.5-.5.5z" id="XMLID_289_"/>
      <path class="st0" d="M1592.2 403.4l-2-9.5-16.1 13.2 4.6 9.5z" id="XMLID_288_"/>
    </g>
    <g id="XMLID_279_">
      <g id="XMLID_280_">
        <g id="XMLID_282_">
          <path class="st4" d="M1541.2 386.3h-1c-2.9-.3-5.6-1.6-7.5-3.9-1.9-2.3-2.8-5.1-2.6-8.1.3-2.9 1.6-5.6 3.9-7.5 2.3-1.9 5.1-2.8 8.1-2.6 6.1.5 10.6 5.9 10.1 12-.3 2.9-1.6 5.6-3.9 7.5-2 1.7-4.5 2.6-7.1 2.6zm0-21.1c-2.4 0-4.6.8-6.5 2.4-2.1 1.7-3.3 4.2-3.5 6.8-.2 2.7.6 5.3 2.3 7.3 1.7 2.1 4.2 3.3 6.8 3.5 2.7.2 5.3-.6 7.3-2.3 2.1-1.7 3.3-4.2 3.5-6.8.5-5.5-3.6-10.4-9.2-10.9h-.7z" id="XMLID_285_"/>
          <path class="st4" d="M1566.8 388.5h-1c-2.9-.3-5.6-1.6-7.5-3.9-1.9-2.3-2.8-5.1-2.6-8.1.5-6.1 5.9-10.6 12-10.1s10.6 5.9 10.1 12c-.3 2.9-1.6 5.6-3.9 7.5-2 1.7-4.5 2.6-7.1 2.6zm0-21.1c-5.2 0-9.6 4-10 9.2-.2 2.7.6 5.3 2.3 7.3 1.7 2.1 4.2 3.3 6.8 3.5 2.7.2 5.3-.6 7.3-2.3 2.1-1.7 3.3-4.2 3.5-6.8.5-5.5-3.6-10.4-9.2-10.9h-.7z" id="XMLID_284_"/>
        </g>
        <path transform="matrix(.0849 -.9964 .9964 .0849 1046.986 1892.6915)" class="st4" d="M1553.4 374.1h1v4.4h-1z" id="XMLID_281_"/>
      </g>
    </g>
    <g id="XMLID_274_">
      <path class="st3" d="M1583 355.9c-.2 2.9-2.8 5-5.6 4.7l-37.7-3.2c-9-.8-16.1-8.4-15.8-17.5 0-.3 0-.5.1-.8 0 0 9.9.9 13.7 1.2-4.4-3.7-5.7-9.1-5.4-13.2l33.5 2.9 10.3.9c5 .4 8.7 4.8 8.3 9.8l.6-7.4c10.7.9 18.6 10.4 17.7 21.1-.4 4.4-2.3 9-5.7 12.1l-3.6-1.7c-4.1-2.1-7.7-5.2-10.4-8.9z" id="XMLID_278_"/>
      <path class="st2" d="M1580.9 343.7l-1.4-.1c.3-2.9-1.9-5.5-4.9-5.8l-29-2.5.1-1.4 29 2.5c1.9.2 3.6 1.1 4.7 2.5-.7-1.9-2.4-3.4-4.6-3.6l-33.7-2.9.1-1.4 33.7 2.9c3.7.3 6.5 3.6 6.2 7.3l-.2 2.5z" id="XMLID_277_"/>
      <path transform="rotate(-85.12981 1536.93333 343.4068) scale(1.00001)" class="st2" d="M1536.2 335h1.4v16.9h-1.4z" id="XMLID_276_"/>
      <path class="st3" d="M1521.5 348.3c-1.3-2.5-1.9-5.3-1.8-8.1l.3-2.9 1.4.1-.2 2.9c-.1 2.5.5 5.1 1.7 7.3l-1.4.7z" id="XMLID_275_"/>
    </g>
    <path class="st2" d="M1554.8 394.6c-2.2 0-4.4-.8-6.1-2.3l1-1c2.2 2.1 5.7 2.5 8.5 1.2l.6 1.3c-1.3.5-2.6.8-4 .8z" id="XMLID_273_"/>
    <path class="st4" d="M1577 375l-.4-1 9.4-3.6c3.3-1.1 7 .3 8.6 3.4l-.9.5c-1.3-2.7-4.5-3.9-7.3-2.9l-9.4 3.6z" id="XMLID_272_"/>
    <path class="st2" d="M1590.5 388.8h-.7l-1.6-.1.1-1.4 1.6.1c1.8.2 3.5-.4 4.9-1.6 1.4-1.2 2.2-2.8 2.4-4.6.3-3.7-2.4-6.9-6.1-7.2l-4.4-.4.1-1.4 4.4.4c4.5.4 7.8 4.3 7.4 8.8-.2 2.2-1.2 4.1-2.9 5.5-1.5 1.2-3.3 1.9-5.2 1.9z" id="XMLID_271_"/>
    <path class="st2" d="M1553.6 388.4c-1.3-.1-2.4-.7-3.3-1.7-.8-1-1.2-2.2-1.1-3.5.1-1.3.7-2.4 1.7-3.3 1-.8 2.2-1.2 3.5-1.1l-.1 1.4c-.9-.1-1.8.2-2.5.8-.7.6-1.1 1.4-1.2 2.3-.1.9.2 1.8.8 2.5.6.7 1.4 1.1 2.3 1.2l-.1 1.4z" id="XMLID_270_"/>
    <path class="st3" d="M1603.8 392.8l-1.3-.4c.8-2.5 1.4-5.1 1.9-7.6l1.4.3c-.5 2.5-1.2 5.2-2 7.7z" id="XMLID_269_"/>
    <path class="st3" d="M1605.4 373.7c0-6.4-1.2-10.1-1.2-10.1l1.3-.4c.1.2 1.3 4 1.3 10.5h-1.4z" id="XMLID_268_"/>
  </g>
  <g>
    <path class="st0" d="M1378.1 655.5l-1.6-.1-1.7-9.7c-2.2-12.3-1-24.9 3.3-36.2.2-.4.3-.8.5-1.3l29-71.7 1.3.5-29 71.7c-.2.4-.3.8-.5 1.2-4.3 11.1-5.4 23.4-3.3 35.5l2 10.1z"/>
    <path class="st5" d="M1445.3 619.5l-7.1 14.6-20.7 14.5-5.8-12.5-12.8-.7 8.8-11.6 10.4-20.2z"/>
    <path class="st2" d="M1417.3 649.3l-5.9-12.8-13.4-.7 9.4-12.3 10.5-20.6 28.1 16.4-7.4 15.1-.1.1-21.2 14.8zm-17.4-14.3l12.1.6 5.7 12.2 20.1-14 6.9-14.1-26.4-15.4-10.1 19.8-8.3 10.9z"/>
    <path class="st4" d="M1451.2 568l-55.6-.2c-11.8-.4-21.1-10-21.1-21.8 0-12 9.8-21.8 21.8-21.8l69.2 1.9-14.3 41.9z"/>
    <path class="st2" d="M1451.7 568.7l-56.1-.2c-12.2-.4-21.8-10.3-21.8-22.5 0-12.4 10.1-22.5 22.5-22.5l70.2 1.9-14.8 43.3zm-55.4-43.8c-11.6 0-21.1 9.5-21.1 21.1 0 11.4 9 20.7 20.4 21.1l55.1.2 13.9-40.5-68.3-1.9z"/>
    <path transform="rotate(-83.921 1411.71324 526.93665)" class="st2" d="M1411.2 506.5h1v41h-1z"/>
    <path class="st4" d="M1563.6 577.2c10.3-6.4 22-10.1 34.1-10.4h48.5v-14.2l-.2-.1c-3.3.2-6.8-.3-10-1.8l-3.6-2-9.4-5.1c-43.6-23.2-135-71.3-135.2-71.4-.3-.1-.6-.3-.9-.4-14.5-5.8-31 1.7-36.7 16.3l-50.1 114 46.2 21.5 39.6-95.4 68.1 54.9 9.6-5.9z"/>
    <path class="st2" d="M1446.5 624.7l-47.6-21.8 50.5-114.8c2.9-7.4 8.4-13.2 15.7-16.3 7.1-3.1 14.8-3.2 21.9-.4.3.1.6.3 1 .4.3.1 92.2 48.6 135.3 71.4l13 7.1c3 1.3 6.3 1.9 9.7 1.7h.1l.8.2v15.4h-49.2c-11.8.2-23.4 3.8-33.8 10.3l-10.2 6.4-67.8-54.6-39.4 95zm-45.6-22.9l45.1 20.5 39.4-95 68.5 55.2 9.3-5.8c10.5-6.6 22.5-10.2 34.5-10.5H1645.5v-12.8c-3.4.2-6.8-.5-9.8-1.9l-13-7.1c-43.8-23.2-134.3-70.9-135.2-71.4-.3-.1-.6-.2-.9-.4-6.7-2.7-14.1-2.6-20.8.4-6.9 3-12.2 8.5-15 15.6l-49.9 113.2z"/>
    <path class="st2" d="M1435.5 618.2l-.9-.4 46.6-112.1c1.1-2.6 3.2-4.6 5.8-5.6 3-1.2 6.4-.9 9.1.8l106.7 65.2-.5.9-106.7-65.2c-2.5-1.5-5.5-1.8-8.2-.7-2.3.9-4.2 2.8-5.2 5.1l-46.7 112z"/>
    <path class="st0" d="M1555.3 583.4l-.5-1.5 8.4-5.3c10.6-6.7 22.7-10.3 34.8-10.5h78.7v1.4h-78.6c-11.9.2-23.7 3.8-34.1 10.3l-8.7 5.6z"/>
    <path transform="rotate(-67.448 1488.74235 519.28571)" class="st2" d="M1478.7 518.6h19.8v1.4h-19.8z"/>
    <path class="st5" d="M1491.7 529.1l15.2.4 15.6 17.1-1.4 15.3-8.4 3.2-10.6-4.9-20.1.5z"/>
    <path class="st2" d="M1512.6 565.6l-10.6-4.9-20.7.5 10-32.6 15.8.4 15.9 17.5-1.4 15.8-9 3.3zm-10.4-5.9l10.5 4.9 8-3 1.3-14.7-15.3-16.8-14.7-.3-9.4 30.5 19.6-.6z"/>
    <g>
      <path class="st4" d="M1484.4 571l-16.1-.2 16.6-42.4h11z"/>
      <path class="st2" d="M1485 571.7l-17.7-.2 17.1-43.7h12.5l-11.9 43.9zm-15.7-1.6l14.6.2 11.1-41.1h-9.7l-16 40.9z"/>
    </g>
    <g>
      <path transform="rotate(-82.715 1487.78756 536.28937)" class="st2" d="M1487.3 530.4h1v11.7h-1z"/>
    </g>
    <g>
      <path class="st6" d="M1345.7 664.4c.6-3.8 2.1-5.5 4.6-8.1l10.7-3.7c19.7 2.5 44.1-17.9 44.1-17.9l23.3 1.7c3.6-11 14-10.3 14-10.3-4.6 17.5-1.6 28.1-4 37.5v.2c.7 3.4-2 6.6-5.5 6.6l-77.6.4c-3.4 0-10.3-2.9-9.8-6.3.2 0 .2 0 .2-.1z"/>
      <path class="st2" d="M1355.5 671.3c-2.7 0-7.3-1.7-9.3-4-.8-.9-1.1-1.9-1-2.8v-.1c.7-4 2.3-5.9 4.8-8.4.1-.1.1-.1.2-.1l10.7-3.7h.2c19.3 2.5 43.5-17.6 43.8-17.8.1-.1.2-.1.4-.1l22.9 1.6c3.8-10.9 14.3-10.2 14.4-10.2.1 0 .3.1.4.2.1.1.1.3.1.4-2.6 10.2-2.8 17.8-2.9 24.6-.1 4.7-.1 8.8-1.1 12.8v.1c.3 1.7-.1 3.5-1.3 4.9-1.2 1.4-2.9 2.2-4.7 2.2l-77.6.4zm-9.8-6.9l.5.1c-.1.7.1 1.4.7 2.1 1.8 2 6.1 3.7 8.5 3.7l77.6-.4c1.5 0 3-.7 3.9-1.9.9-1.2 1.3-2.6 1-4.1v-.1-.3c1-3.9 1-8 1.1-12.7.1-6.7.2-14.3 2.7-24.2-2.2 0-9.9.8-12.9 9.9-.1.2-.3.4-.5.3l-23.1-1.7c-2.1 1.7-25.4 20.3-44.3 17.9l-10.5 3.6c-2.5 2.6-3.8 4.2-4.4 7.8h-.3l.5.1-.5-.1z"/>
      <path class="st0" d="M1433.6 643.3c2.8-9 6.7-9.8 7.4-9.9-2.2 11.2 1.6 15.2-2.4 30.3l-10.4.1c0-.1 2.4-11 5.4-20.5z"/>
      <path class="st2" d="M1428.2 664.2c-.2 0-.3-.1-.4-.2-.1-.1-.1-.3-.1-.4 0-.1 2.4-11 5.4-20.5 2.6-8.4 6.3-10 7.8-10.3.2 0 .3 0 .5.1.1.1.2.3.1.5-1 4.8-.8 8.3-.6 11.9.2 4.8.5 9.8-1.8 18.4-.1.2-.3.4-.5.4l-10.4.1zm5.8-20.8c-2.5 8.1-4.7 17.3-5.2 19.8l9.4-.1c2.1-8.2 1.9-13 1.7-17.7-.2-3.5-.3-6.8.5-11.3-1.6.6-4.3 2.7-6.4 9.3z"/>
      <path class="st7" d="M1401.6 649.1h34.5c1 0 1.9-.9 1.9-1.9v-.2c0-1-.9-1.9-1.9-1.9h-34.5c-1.1 0-1.9.9-1.9 1.9v.3c0 1 .8 1.8 1.9 1.8z"/>
      <g>
        <path class="st0" d="M1382.6 641.8c14.6-8.9 19.4-16 22.6-14.1 5 3 0 7 0 7s-24.4 20.5-44.1 17.9c0 0 16.1-7.5 21.5-10.8z"/>
        <path class="st2" d="M1364.5 653.3c-1.2 0-2.4-.1-3.5-.2-.2 0-.4-.2-.4-.4s.1-.4.3-.5c.2-.1 16.1-7.5 21.5-10.8 6.3-3.8 10.7-7.3 14-9.9 4.5-3.5 7-5.5 9.1-4.2 1.5.9 2.3 2 2.4 3.3.2 2.4-2.3 4.4-2.4 4.5-.2.2-22 18.2-41 18.2zm-1.5-1c19 1.1 41.7-17.8 41.9-18 0 0 2.2-1.8 2-3.6-.1-.9-.7-1.8-1.9-2.5-1.5-.9-3.8.9-8 4.1-3.3 2.6-7.8 6.1-14.1 9.9-4.4 2.7-15.7 8.1-19.9 10.1z"/>
      </g>
      <g>
        <path class="st0" d="M1345.6 663.5c.1-2.6 1.7-6.8 6.9-8 3.5-1.2 5.9 2 6.5 2.7 3.8 4.5 5.2 6.4 11.1 6.3l68.4-1v.1c.8 3.4-1.8 6.7-5.3 6.7l-77.7.4c-7 0-9.8-2.5-9.9-5.6v-1.6z"/>
        <path class="st2" d="M1355.5 671.3c-8.8 0-10.3-3.8-10.4-6.1v-1.7c.2-3.3 2.2-7.2 7.3-8.5 3.6-1.2 6.1 1.8 6.9 2.8l.6.7c3.4 4 4.9 5.7 10.3 5.6l68.8-1 .1.5c.4 1.7 0 3.5-1.1 4.9-1.2 1.5-2.9 2.3-4.8 2.3l-77.7.5zm-9.4-7.7v1.6c.2 3.3 3.5 5.2 9.4 5.2l77.7-.4c1.6 0 3-.7 4-2 .9-1.1 1.2-2.5.9-3.8l-68 1c-5.9.1-7.5-1.8-11-6l-.6-.7c-.8-.9-2.8-3.4-5.8-2.4-6 1.3-6.5 6.4-6.6 7.5z"/>
      </g>
      <g>
        <path class="st0" d="M1369.6 647.7l9.2 3.3"/>
        <path class="st2" d="M1378.8 652c-.1 0-.2 0-.3-.1l-9.2-3.3c-.5-.2-.8-.8-.6-1.3.2-.5.8-.8 1.3-.6l9.2 3.3c.5.2.8.8.6 1.3-.2.4-.6.7-1 .7z"/>
      </g>
      <g>
        <path class="st0" d="M1377.4 643.5l9.9 4"/>
        <path class="st2" d="M1387.3 648.5c-.1 0-.2 0-.4-.1l-9.8-4c-.5-.2-.8-.8-.6-1.3.2-.5.8-.8 1.3-.6l9.8 4c.5.2.8.8.6 1.3-.1.4-.5.7-.9.7z"/>
      </g>
      <g>
        <path class="st0" d="M1384.9 638.5l10.4 4.6"/>
        <path class="st2" d="M1395.3 644.1c-.1 0-.3 0-.4-.1l-10.4-4.6c-.5-.2-.7-.8-.5-1.3.2-.5.8-.7 1.3-.5l10.4 4.6c.5.2.7.8.5 1.3-.2.4-.5.6-.9.6z"/>
      </g>
      <g>
        <path class="st0" d="M1393.2 633.1l10.2 5"/>
        <path class="st2" d="M1403.4 639.1c-.1 0-.3 0-.4-.1l-10.2-5c-.5-.2-.7-.8-.5-1.3.2-.5.8-.7 1.3-.5l10.2 5c.5.2.7.8.5 1.3-.2.3-.5.6-.9.6z"/>
      </g>
      <g>
        <path class="st7" d="M1391.7 656.3h41.8c1.1 0 1.9-.9 1.9-1.9v-.3c0-1-.9-1.9-1.9-1.9h-41.8c-1.1 0-1.9.9-1.9 1.9v.3c0 1 .9 1.9 1.9 1.9z"/>
      </g>
    </g>
    <g>
      <path class="st6" d="M1554.2 617.5c-3.8 0-5.8-1.1-8.8-3.2l-5.4-9.9c-.8-19.9-25.1-40.5-25.1-40.5l-2.2-23.2c-11.5-1.7-12.5-12.1-12.5-12.1 18 1.6 28-3.1 37.7-2.4.1 0 .1-.1.2-.1 3.2-1.2 6.8.9 7.4 4.3l13.3 76.4c.6 3.3-1.2 10.7-4.5 10.7h-.1z"/>
      <path class="st2" d="M1554.1 618c-4.1 0-6.1-1.2-9.1-3.3-.1 0-.1-.1-.2-.2l-5.4-9.9c0-.1-.1-.1-.1-.2-.8-19.4-24.6-40-24.9-40.2-.1-.1-.2-.2-.2-.3l-2.2-22.8c-11.4-2-12.5-12.4-12.5-12.5 0-.1 0-.3.1-.4s.3-.2.4-.1c10.5.9 18.1-.3 24.8-1.3 4.7-.7 8.7-1.4 12.8-1.1h.1c1.7-.6 3.5-.5 5.1.4 1.6.9 2.7 2.5 3 4.3l13.3 76.4c.5 2.7-.5 7.6-2.4 9.9-.8.9-1.7 1.4-2.6 1.4v-.1zm-8.4-4.1c3 2.1 4.8 3.1 8.4 3.1h.1c.7 0 1.3-.4 1.9-1.1 1.7-2.1 2.6-6.7 2.2-9.1l-13.3-76.4c-.3-1.5-1.2-2.8-2.5-3.6-1.3-.7-2.8-.9-4.2-.3l-.1.1c-.1 0-.2.1-.3.1-4-.3-8 .3-12.7 1.1-6.6 1-14.1 2.2-24.4 1.4.4 2.2 2.4 9.6 11.9 11.1.2 0 .4.2.4.4l2.2 23c2.1 1.8 24.2 21.6 25.1 40.6l5.3 9.6z"/>
      <path class="st0" d="M1518.6 534.4c-9.3-1.3-10.8-5-11-5.6 11.5.3 14.7-4.1 30.2-2.7l1.8 10.2c.1 0-11-.6-21-1.9z"/>
      <path class="st2" d="M1539.7 536.8c-.1 0-11.3-.6-21.1-1.9-8.7-1.2-10.9-4.6-11.4-6-.1-.2 0-.3.1-.5s.2-.2.4-.2c4.9.1 8.3-.6 11.8-1.4 4.7-1 9.6-2.1 18.4-1.3.2 0 .4.2.4.4l1.8 10.2c0 .1 0 .3-.1.4-.1.2-.2.3-.3.3zm-31.3-7.5c.9 1.4 3.4 3.7 10.3 4.6 8.5 1.1 17.9 1.7 20.4 1.9l-1.6-9.2c-8.5-.7-13.2.3-17.7 1.3-3.5.7-6.8 1.4-11.4 1.4z"/>
      <path class="st7" d="M1529.8 565l-5.8-34c-.2-1-1.2-1.7-2.2-1.6h-.3c-1 .2-1.7 1.2-1.6 2.2l5.8 34c.2 1 1.2 1.7 2.2 1.6h.3c1-.2 1.7-1.2 1.6-2.2z"/>
      <g>
        <path class="st0" d="M1525.7 584.9c-11.3-12.9-19-16.5-17.7-20 2.1-5.4 6.9-1.1 6.9-1.1s24.3 20.6 25.1 40.5c0 0-10.1-14.6-14.3-19.4z"/>
        <path class="st2" d="M1540 604.8c-.2 0-.3-.1-.4-.2-.1-.1-10.1-14.6-14.2-19.4-4.8-5.5-9-9.4-12.1-12.2-4.2-3.9-6.6-6-5.7-8.3.6-1.7 1.6-2.6 2.9-2.9 2.3-.6 4.7 1.5 4.8 1.6.2.2 24.4 21 25.2 40.9 0 .2-.1.4-.3.5h-.2zm-13.9-20.3c3.4 3.9 10.6 14.1 13.3 18-2.1-18.9-24.5-38.2-24.8-38.4 0 0-2.1-1.8-3.9-1.4-.9.2-1.6 1-2.2 2.3-.7 1.7 1.5 3.6 5.4 7.2 3.1 2.9 7.3 6.8 12.2 12.3z"/>
      </g>
      <g>
        <path class="st0" d="M1553.3 617.7c-2.6.3-7-.6-9.1-5.5-1.8-3.3 1-6.1 1.6-6.9 3.8-4.5 5.5-6.2 4.4-12l-12.4-67.2h.1c3.2-1.4 6.9.7 7.5 4.1l13.4 76.5c1.2 6.9-.9 10-3.9 10.7-.5.1-1.2.2-1.6.3z"/>
        <path class="st2" d="M1552.3 618.3c-3.1 0-6.7-1.5-8.5-5.9-1.8-3.3.7-6.3 1.6-7.3l.6-.7c3.4-4 4.8-5.7 3.9-11.1l-12.5-67.6.5-.2c1.6-.7 3.5-.6 5.1.2 1.7.9 2.8 2.5 3.1 4.3l13.4 76.5c1.5 8.7-2.1 10.8-4.3 11.3-.6.1-1.2.2-1.6.3-.6.1-1 .2-1.3.2zm-13.9-91.9l12.3 66.8c1.1 5.8-.5 7.7-4.1 11.9l-.6.7c-.8.9-2.9 3.4-1.4 6.2 2.4 5.7 7.6 5.4 8.6 5.3.4 0 1-.2 1.6-.3 3.3-.7 4.5-4.3 3.5-10.1l-13.4-76.5c-.3-1.5-1.2-2.8-2.6-3.6-1.2-.8-2.6-.9-3.9-.4z"/>
      </g>
      <g>
        <path class="st0" d="M1533.6 596.7l1.8-9.6"/>
        <path class="st2" d="M1533.6 597.7h-.2c-.5-.1-.9-.6-.8-1.2l1.7-9.6c.1-.5.6-.9 1.2-.8.5.1.9.6.8 1.2l-1.7 9.6c-.1.5-.5.8-1 .8z"/>
      </g>
      <g>
        <path class="st0" d="M1528.3 589.7l2.2-10.4"/>
        <path class="st2" d="M1528.3 590.7h-.2c-.5-.1-.9-.7-.8-1.2l2.3-10.4c.1-.5.7-.9 1.2-.8.5.1.9.7.8 1.2l-2.3 10.4c-.2.5-.6.8-1 .8z"/>
      </g>
      <g>
        <path class="st0" d="M1522.1 583.2l2.8-11"/>
        <path class="st2" d="M1522.1 584.2h-.2c-.5-.1-.9-.7-.7-1.2l2.8-11c.1-.5.7-.9 1.2-.7.5.1.9.7.7 1.2l-2.8 11c-.1.4-.6.7-1 .7z"/>
      </g>
      <g>
        <path class="st0" d="M1515.3 575.9l3.2-10.9"/>
        <path class="st2" d="M1515.3 576.9h-.3c-.5-.2-.8-.7-.7-1.2l3.2-10.9c.2-.5.7-.8 1.2-.7s.8.7.7 1.2l-3.2 10.9c0 .4-.4.7-.9.7z"/>
      </g>
      <g>
        <path class="st7" d="M1538.4 573.5l-7-41.3c-.2-1-1.2-1.7-2.2-1.6h-.3c-1 .2-1.7 1.2-1.6 2.2l7 41.3c.2 1 1.2 1.7 2.2 1.6h.3c1.1-.2 1.8-1.2 1.6-2.2z"/>
      </g>
    </g>
  </g>
  <g>
    <path class="st0" d="M1616.9 467.2V500"/>
    <path class="st2" d="M1616.2 467.2h1.4v35.7h-1.4z"/>
  </g>
  <g id="XMLID_252_" class="st8">
    <path class="st4" d="M1643.7 356.4c-.7 0-1.3-.4-1.5-1l-1.5-3.5c-.1-.2-.3-.4-.5-.4l-3.7-.7c-.6-.1-1.1-.6-1.3-1.2s0-1.3.5-1.7l2.8-2.5c.2-.1.2-.4.2-.6l-.5-3.8c-.1-.6.2-1.3.7-1.6.5-.4 1.2-.4 1.8-.1l3.3 1.9c.2.1.4.1.6 0l3.4-1.6c.6-.3 1.3-.2 1.8.2s.7 1 .6 1.7l-.8 3.7c0 .2 0 .4.2.6l2.6 2.7c.4.5.6 1.1.4 1.7-.2.6-.8 1-1.4 1.1l-3.8.4c-.2 0-.4.2-.5.4l-1.8 3.3c-.4.7-1 1-1.6 1zm-3.9-16.2c-.1 0-.3 0-.4.1-.2.1-.3.4-.3.7l.5 3.7c.1.5-.1 1.1-.5 1.5l-2.8 2.5c-.2.2-.3.4-.2.7.1.3.3.4.5.5l3.7.7c.5.1 1 .5 1.2 1l1.5 3.5c.1.2.3.4.6.4s.5-.1.6-.4l1.8-3.3c.3-.5.8-.8 1.3-.9l3.8-.4c.3 0 .5-.2.6-.4.1-.2 0-.5-.1-.7l-2.6-2.7c-.4-.4-.5-1-.4-1.5l.8-3.7c.1-.3 0-.5-.2-.7-.2-.2-.5-.2-.7-.1l-3.4 1.6c-.5.2-1.1.2-1.6-.1l-3.3-1.9c-.1-.1-.2-.1-.4-.1z"/>
  </g>
  <g id="XMLID_237_" class="st8">
    <path class="st4" d="M1419.6 360.9l-29.4-57.5 50-25.5 29.4 57.5-50 25.5zm-28-57l28.5 55.7 48.2-24.6-28.5-55.7-48.2 24.6z" id="XMLID_249_"/>
    <path class="st4" d="M1430.1 360.9l-2.4-4.7.9-.5 1.9 3.8 48.3-24.6-28.5-55.7-7.9 4.1-.4-.9 8.7-4.5 29.4 57.4z"/>
    <path transform="rotate(-27.064 1434.37726 337.39497)" class="st4" d="M1416.6 336.9h35.5v1h-35.5z" id="XMLID_248_"/>
    <path transform="rotate(-26.81 1435.3882 330.39799)" class="st4" d="M1413.4 330h43.8v1h-43.8z" id="XMLID_244_"/>
    <path transform="rotate(-26.81 1432.59416 325.24534)" class="st4" d="M1410.6 324.8h43.8v1h-43.8z" id="XMLID_243_"/>
    <path transform="rotate(-26.81 1429.80033 320.09274)" class="st4" d="M1407.8 319.7h43.8v1h-43.8z" id="XMLID_242_"/>
    <path transform="rotate(-26.81 1427.00588 314.94)" class="st4" d="M1405 314.5h43.8v1H1405z" id="XMLID_241_"/>
    <path transform="rotate(-26.81 1424.41203 309.67567)" class="st4" d="M1402.2 309.3h44.3v1h-44.3z" id="XMLID_240_"/>
    <path transform="rotate(-26.81 1421.61778 304.52297)" class="st4" d="M1399.4 304.1h44.3v1h-44.3z" id="XMLID_239_"/>
    <path transform="rotate(-26.81 1418.82332 299.37022)" class="st4" d="M1396.6 298.9h44.3v1h-44.3z" id="XMLID_238_"/>
  </g>
  <g class="st8">
    <path class="st4" d="M1564.4 270.1l-43.3-17.7 43.3-17.7.2.1 43.1 17.6-43.3 17.7zm-40.7-17.7l40.7 16.6 40.6-16.6-40.6-16.6-40.7 16.6z"/>
    <path class="st4" d="M1564.4 284.9c-6.4 0-12.9-1.5-17.4-4.5l-.2-.2c-2.3-1.8-3.6-3.9-3.6-6.2v-13h1v13c0 2 1.2 3.9 3.4 5.5l.2.1c8.6 5.6 24.7 5.6 33.3-.1l.1-.1c2.2-1.6 3.4-3.5 3.4-5.5v-13h1v13c0 2.3-1.2 4.4-3.6 6.2l-.2.2c-4.6 3.1-11 4.6-17.4 4.6z" id="XMLID_4_"/>
    <path class="st4" d="M1564.4 255.1c-1.5 0-2.7-1.2-2.7-2.7s1.2-2.7 2.7-2.7 2.7 1.2 2.7 2.7-1.3 2.7-2.7 2.7zm0-4.4c-.9 0-1.7.8-1.7 1.7s.8 1.7 1.7 1.7 1.7-.8 1.7-1.7-.8-1.7-1.7-1.7z"/>
    <path class="st4" d="M1594.9 287.1h-1v-29.4l-27.5-4.8.2-1 28.3 5z"/>
    <path class="st4" d="M1587.4 285.3l-.7-.7 7.6-7.6 7.6 7.6-.7.7-6.9-6.9z"/>
  </g>
  <g id="XMLID_2_" class="st8">
    <path class="st4" d="M1321.2 487.3s-.1 0 0 0c-.7 0-1.3-.4-1.5-1l-1.5-3.5c-.1-.2-.3-.4-.5-.4l-3.7-.7c-.6-.1-1.1-.6-1.3-1.2-.2-.6 0-1.3.5-1.7l2.8-2.5c.2-.2.2-.4.2-.6l-.5-3.7c-.1-.6.2-1.3.7-1.6.5-.4 1.2-.4 1.8-.1l3.3 1.9c.2.1.4.1.6 0l3.4-1.6c.6-.3 1.3-.2 1.8.2s.7 1 .6 1.7l-.5-.1.5.1-.8 3.7c0 .2 0 .4.2.6l2.6 2.7c.4.5.6 1.1.4 1.7-.2.6-.8 1-1.4 1.1l-3.8.4c-.2 0-.4.2-.5.4l-1.8 3.3c-.4.6-1 .9-1.6.9zm-3.9-16.2c-.1 0-.3 0-.4.1-.2.1-.3.4-.3.7l.5 3.7c.1.5-.1 1.1-.5 1.5l-2.8 2.5c-.2.2-.3.4-.2.7.1.3.3.4.5.5l3.7.7c.5.1 1 .5 1.2 1l1.5 3.5c.1.2.3.4.6.4s.5-.1.6-.4l1.8-3.3c.3-.5.8-.8 1.3-.9l3.8-.4c.3 0 .5-.2.6-.4s0-.5-.1-.7l-2.6-2.7c-.4-.4-.5-1-.4-1.5l.8-3.7c.1-.3 0-.5-.2-.7-.2-.2-.5-.2-.7-.1l-3.4 1.6c-.5.2-1.1.2-1.6-.1l-3.3-1.9c-.2-.1-.3-.1-.4-.1z"/>
  </g>
  <g id="XMLID_312_">
    <path class="st5" d="M237.5 594.4L226.1 613l15.1 14.8 9.7-19.8-2-13.6z"/>
    <path class="st2" d="M241.4 628.7l-15.9-15.6 11.8-19.1h12l2.1 14.2-10 20.5zm-14.7-15.8l14.4 14.1 9.3-19.1-1.9-13h-10.6l-11.2 18z"/>
    <path class="st5" d="M259.7 626.7l9.5 16 19.1-5.3-13-24.4-10.3 3.6z"/>
    <path class="st2" d="M269 643.3l-9.8-16.6 5.5-10.5 10.9-3.8 13.4 25.4-20 5.5zm-8.7-16.7l9.2 15.5 18.1-5-12.4-23.5-9.7 3.4-5.2 9.6z"/>
    <path class="st0" d="M268.3 560.9h-72.7l-36.9-114.1h-34.4l26.8 119.1c.1 2.6 2.2 4.7 4.8 4.7h112.4c2.7 0 4.8-2.2 4.8-4.8.1-2.7-2.1-4.9-4.8-4.9zM157.7 448.2L194 560.9h-38.1c-1.6 0-3.1.8-4 2.1l-25.8-114.7h31.6zm110.6 120.9H155.9c-1.9 0-3.4-1.5-3.4-3.4s1.5-3.4 3.4-3.4h112.4c1.9 0 3.4 1.5 3.4 3.4s-1.5 3.4-3.4 3.4z"/>
    <path class="st3" d="M181.5 516.7l-3.6 21c-2.1 12.5 7.5 23.9 20.2 23.9h70.2l26.5-44.9H181.5z"/>
    <path class="st2" d="M268.3 562.4h-70.2c-6.3 0-12.2-2.7-16.2-7.5s-5.8-11.1-4.7-17.2l3.6-21c.1-.4.4-.6.7-.6h113.3c.3 0 .5.1.6.4.1.2.1.5 0 .7L268.9 562c-.1.2-.4.4-.6.4zm-86.2-44.9l-3.5 20.4c-1 5.7.6 11.6 4.4 16 3.8 4.5 9.3 7 15.1 7h69.7l25.6-43.4H182.1z"/>
    <g id="XMLID_352_">
      <path class="st3" d="M262.5 549.3l-31.3 48.8 32.3 20.4 36.1-75.8c3.5-10.8-4.5-21.8-15.8-21.8h-10.6"/>
      <path class="st2" d="M263.5 619.2c-.2 0-.3-.1-.5-.2l-32.3-20.4c-.2-.2-.3-.5-.2-.8l31.3-48.8c.2-.4.6-.6 1-.4.4.2.6.6.4 1L232 597.9l31.1 19.4 35.8-74.9c1.6-4.9.8-10.1-2.2-14.3-3-4.2-7.7-6.6-12.9-6.6h-10.6c-.4 0-.7-.3-.7-.7s.3-.7.7-.7h10.6c5.6 0 10.8 2.6 14.1 7.2 3.3 4.6 4.2 10.3 2.4 15.6l-36.1 75.9c-.1.2-.3.4-.5.5-.1-.1-.2-.1-.2-.1z"/>
    </g>
    <path class="st2" d="M249.7 613h-.2c-.4-.1-.6-.6-.5-.9l23.7-68c.6-1.9.3-3.9-.8-5.5-1.2-1.6-3-2.5-4.9-2.5l-18.9-.2c-.4 0-.7-.3-.7-.7 0-.4.3-.7.7-.7l18.9.2c2.5 0 4.7 1.1 6.1 3.2 1.4 2 1.8 4.5 1 6.8l-23.7 68c-.2.1-.4.3-.7.3z"/>
    <path class="st1" d="M267.9 482.3L255 445.8l-.3-.7c-2.5-6.5-8.8-11.1-16.1-11.1H235l-17.3-.3h-18.2c-1.3 0-2.6.2-3.9.5-.3.1-.7.2-1 .2-.1 0-.2.1-.3.1l-.9.3c-.1 0-.3.1-.4.1l-.9.3c-.1 0-.2.1-.3.1-.9.4-1.9.8-2.7 1.4-.1.1-.3.2-.4.2-.2.1-.4.3-.7.4-.2.1-.3.2-.5.3-.2.1-.4.3-.6.4-.2.1-.4.3-.5.4-.2.1-.4.3-.5.4l-.6.6c-.1.1-.3.2-.4.4-.3.3-.6.6-.9 1-.1.1-.2.3-.3.4-.2.2-.4.5-.6.7-.1.1-.2.3-.3.4-.2.2-.3.5-.5.7-.1.2-.2.3-.3.5-.2.3-.3.5-.5.8-.1.1-.2.3-.2.4-.2.4-.4.8-.6 1.3l-8.7 24.2 10 3.2 13.1 4.3-15.9 35 75.6-.3-.4-25.7 13.5-4.4z"/>
    <path class="st2" d="M273.3 499.9l-19.2-54.6c-2.4-6.3-8.6-10.6-15.4-10.6H235v-1.5h3.7c7.4 0 14.1 4.6 16.8 11.5l19.2 54.6-1.4.6z"/>
    <g id="XMLID_319_">
      <g id="XMLID_320_">
        <g id="XMLID_351_">
          <path class="st2" d="M205.7 518.1v1.5l49.8-1.2-.7-48.1h-1.5l.7 46.6zM205.7 432.9h12v1.5h-12z"/>
        </g>
        <g id="XMLID_350_">
          <path class="st0" d="M225.8 448.7c-5.5 0-10-4.5-10-10v-.2l.3-2.3c.3-2 2-3.5 4-3.5h.2l14.7.6.7 5.4c0 5.6-4.4 10-9.9 10zm-7-9.8c.1 3.7 3.2 6.8 6.9 6.8 3.8 0 6.9-3.1 6.9-6.8l-.4-3.5-12.9 1.3-.5 2.2z"/>
          <path class="st2" d="M220.2 433.4h.1l14.1.5.6 4.8c0 5.1-4.1 9.2-9.2 9.2s-9.2-4.1-9.2-9.2v-.2l.3-2.3c.2-1.5 1.6-2.8 3.3-2.8m5.6 13c4.2 0 7.6-3.4 7.7-7.6l-.5-4.3-14.1 1.4-.7 3c0 4.1 3.4 7.5 7.6 7.5m-5.6-14.4c-2.4 0-4.4 1.8-4.8 4.1l-.3 2.3v.4c0 5.9 4.8 10.7 10.7 10.7 5.9 0 10.7-4.8 10.7-10.7v-.2l-.6-4.8-.2-1.2h-1.2l-14.1-.5c-.1-.1-.1-.1-.2-.1zm-.2 5.3l11.6-1.1.3 2.8c-.1 3.3-2.8 6.1-6.2 6.1-3.3 0-6.1-2.7-6.2-6l.5-1.8z"/>
        </g>
        <path class="st4" d="M271.8 402.4c-.2-.9-.4-1.7-.7-2.3 0 .3 0 .6-.1.8-1.7 15.4-10.7 25.2-22.7 29.3l.2-2.1-23.2-2.5 18.9-21.4 9.3-22 4-15.7.1.1c.2.2.5.4.7.7l.7.7c.2.2.4.5.7.7.2.3.4.5.7.8.2.2.4.5.6.7.2.3.4.5.6.8.2.3.4.5.6.8.2.3.4.6.6.8.2.3.4.5.5.8l.6.9c.2.3.3.5.5.8 0 0 0 .1.1.1l7 .8c-2.5-13-11.3-23-22.8-24.3-1.8-.2-3.6-.2-5.3.1-4.6-2.5-9.6-4.1-15.1-4.7-19.2-2.1-36.8 9.4-43.2 26.8-1.4 3.8-3.1 7.5-5.1 11-2.1 3.6-3.4 7.7-3.9 12.1-1.9 17.3 10.6 32.8 27.8 34.7h.1l42.6 4.7c.2 0 .3 0 .5.1h.4c.4 0 .7.1 1.1.1 11 .8 28.6-10.5 23.2-34.2zm-70.2 4l-1.9-.2c-2.7-.3-4.6-2.7-4.3-5.3.3-2.7 2.7-4.6 5.3-4.3l3.1.3-2.2 9.5z"/>
        <g id="XMLID_349_">
          <path class="st0" d="M232.6 429.3c-3.8 0-9.4-.9-12.9-1.8l-1.3 8.8c-1.2 4 1 8.2 4.9 9.4 4 1.2 8.2-1 9.4-4.9l2-12c-1.3.2-.5.5-2.1.5z"/>
          <path class="st2" d="M225.7 446.8c-.8 0-1.7-.1-2.5-.4-2.1-.7-3.8-2.1-4.8-4s-1.2-4.1-.6-6.2l1.4-9.5.8.2c3.5.8 8.9 1.7 12.7 1.7.6 0 .7 0 .8-.1.3-.2.6-.3 1.4-.4l1-.1-2.2 13c-.7 2.1-2.1 3.8-4 4.8-1.4.7-2.7 1-4 1zm-5.3-18.3l-1.2 8.1c-.5 1.7-.4 3.6.5 5.2.8 1.6 2.3 2.8 4 3.3 1.7.5 3.6.4 5.2-.5 1.6-.8 2.8-2.2 3.3-3.9l1.8-10.8c-.3.1-.6.2-1.3.2-3.7-.1-8.8-.9-12.3-1.6z"/>
        </g>
        <g id="XMLID_348_">
          <path class="st0" d="M271 400.9c-2.5 22.6-20.7 33.4-41.5 31.1-20.8-2.3-36.2-16.7-33.7-39.3s21.3-39.1 42.1-36.8c20.8 2.2 35.6 22.4 33.1 45z"/>
          <path class="st2" d="M234.9 433c-1.8 0-3.6-.1-5.4-.3-10.6-1.2-19.9-5.5-26-12.3-6.7-7.3-9.5-16.9-8.3-27.9 1.2-11.1 6.3-21.1 14.4-28.2 8.1-7.1 18.2-10.4 28.5-9.2 21.1 2.3 36.3 22.9 33.7 45.9-1.2 10.9-6.1 19.7-14.2 25.4-6.2 4.3-14.1 6.6-22.7 6.6zm-.8-76.6c-8.5 0-16.8 3.2-23.5 9.1-7.8 6.8-12.8 16.5-13.9 27.3-1.2 10.5 1.6 19.8 8 26.7 5.9 6.5 14.8 10.7 25.1 11.8 10.3 1.1 19.9-1 27.1-6.1 7.7-5.4 12.4-13.8 13.6-24.3l.7.1-.7-.1c2.4-22.2-12.1-42-32.4-44.2-1.5-.3-2.8-.3-4-.3z"/>
        </g>
        <path class="st0" d="M201.6 396.7l-3.1-.3c-2.7-.3-5 1.6-5.3 4.3-.3 2.7 1.6 5 4.3 5.3l.8.1 3.3-9.4z" id="XMLID_347_"/>
        <path class="st4" d="M240.5 352.9c-.5 23 14 43.4 35.1 50.9.2-1.2.4-2.3.5-3.5 2.5-22.9-13.3-43.5-35.6-47.4z" id="XMLID_346_"/>
        <path class="st4" d="M256.9 359.4c-5.3-3.3-11.8-6-18.5-6.7-23.8-2.6-45.1 14.8-47.8 38.6-.1 1.1-.7 5.7-.8 6.8 4.2-1.1 7-1.9 10.3-1.6 25.8 2.9 49.5-13.2 56.8-37.1z" id="XMLID_345_"/>
        <path class="st2" d="M239.6 421h-.7c-2.1-.2-4-1.5-4.9-3.3l1.3-.7c.8 1.4 2.2 2.3 3.8 2.5 1.6.2 3.2-.4 4.3-1.6l1.1 1c-1.3 1.3-3.1 2.1-4.9 2.1z" id="XMLID_344_"/>
        <g id="XMLID_341_">
          <path class="st2" d="M220.7 395.5l11.7-.1c.4 0 .7.3.7.6v.5c0 .4-.3.7-.6.7l-13 .1v-.5c-.1-.7.5-1.3 1.2-1.3z" id="XMLID_343_"/>
          <path class="st2" d="M264 399.8l-11.6-1.5c-.4 0-.7.2-.7.6l-.1.5c0 .4.2.7.6.7l12.9 1.7.1-.5c0-.8-.5-1.5-1.2-1.5z" id="XMLID_342_"/>
        </g>
        <path class="st2" d="M240.9 414.1h-.4l.2-1.5c.5.1 1-.1 1.4-.4.4-.3.6-.8.7-1.3.1-.5-.1-1-.4-1.4-.3-.4-.8-.6-1.3-.7l.2-1.5c.9.1 1.7.5 2.2 1.2.6.7.8 1.6.7 2.5-.1.9-.5 1.7-1.2 2.2-.6.6-1.4.9-2.1.9z" id="XMLID_340_"/>
        <g id="XMLID_332_">
          <ellipse transform="rotate(-83.73 256.8223 409.04125)" class="st2" cx="256.8" cy="409" rx="2.8" ry="2.5" id="XMLID_339_"/>
          <ellipse transform="rotate(-83.73 225.7401 405.62443)" class="st2" cx="225.8" cy="405.6" rx="2.8" ry="2.5" id="XMLID_338_"/>
          <g id="XMLID_333_">
            <g id="XMLID_335_">
              <path class="st3" d="M260.1 422c-.5 0-1 0-1.5-.1-3.6-.4-6.9-2.2-9.2-5-2.3-2.8-3.3-6.4-2.9-10 .4-3.6 2.2-6.9 5-9.2 2.8-2.3 6.4-3.3 10-2.9 3.6.4 6.9 2.2 9.2 5 2.3 2.8 3.3 6.4 2.9 10-.4 3.6-2.2 6.9-5 9.2-2.4 2-5.4 3-8.5 3zm0-25.7c-6.1 0-11.3 4.6-12 10.8-.7 6.6 4.1 12.6 10.7 13.3 3.2.4 6.4-.6 8.9-2.6s4.1-4.9 4.5-8.1c.4-3.2-.6-6.4-2.6-8.9s-4.9-4.1-8.1-4.5h-1.4z" id="XMLID_337_"/>
              <path class="st3" d="M224.3 418.1c-.5 0-1 0-1.5-.1-3.6-.4-6.9-2.2-9.2-5-2.3-2.8-3.3-6.4-2.9-10 .4-3.6 2.2-6.9 5-9.2 2.8-2.3 6.4-3.3 10-2.9 3.6.4 6.9 2.2 9.2 5 2.3 2.8 3.3 6.4 2.9 10-.4 3.6-2.2 6.9-5 9.2-2.5 2-5.5 3-8.5 3zm-.1-25.8c-2.7 0-5.4.9-7.5 2.7-2.5 2-4.1 4.9-4.5 8.1-.4 3.2.6 6.4 2.6 8.9s4.9 4.1 8.1 4.5c6.6.7 12.6-4.1 13.3-10.7.7-6.6-4.1-12.6-10.7-13.3-.4-.1-.9-.2-1.3-.2z" id="XMLID_336_"/>
            </g>
            <path transform="rotate(-83.725 242.27742 406.42746)" class="st3" d="M241.5 401.4h1.6v10.1h-1.6z" id="XMLID_334_"/>
          </g>
        </g>
        <path class="st2" d="M198 402.5h-1.2c-.4 0-.7-.3-.7-.7 0-.4.3-.7.6-.7l-.7-1.2c-.2-.3-.1-.8.2-1 .3-.2.8-.1 1 .2l1.4 2.3c.1.2.2.5 0 .7-.1.3-.3.4-.6.4z" id="XMLID_331_"/>
        <path class="st2" d="M198.2 406.8l-.9-.1c-1.5-.2-2.8-.9-3.7-2.1-.9-1.2-1.4-2.6-1.2-4.1.2-1.5.9-2.8 2.1-3.7 1.2-.9 2.6-1.4 4.1-1.2l3.1.3c.4 0 .7.4.7.8s-.4.7-.8.7l-3.1-.3c-1.1-.1-2.2.2-3 .9-.9.7-1.4 1.7-1.5 2.7-.1 1.1.2 2.2.9 3 .7.9 1.7 1.4 2.7 1.5l.8.1c.4 0 .7.4.7.8-.2.4-.5.7-.9.7z" id="XMLID_330_"/>
        <path class="st2" d="M274 400.1c-17.9-6.5-30.3-22.8-31.7-41.5l1.5-.1c1.3 18.2 13.4 33.9 30.7 40.2l-.5 1.4z" id="XMLID_328_"/>
        <path class="st2" d="M274.2 396.2c-15.4-6.2-26.2-20.7-27.4-37.1l1.5-.1c1.2 15.8 11.6 29.9 26.5 35.8l-.6 1.4z" id="XMLID_327_"/>
        <path class="st4" d="M177.9 422.5c-6.1-7.3-8.9-16.5-7.9-26l1.5.2c-1 9.1 1.7 17.9 7.5 24.9l-1.1.9z" id="XMLID_326_"/>
        <path class="st2" d="M208.4 395.6h-1v-1.5c15.4.3 30-7.3 39.2-20.3l1.2.8c-9.2 13.2-23.9 21-39.4 21z" id="XMLID_325_"/>
        <path class="st2" d="M189.4 403.2c-2-8.1 5.4-10.4 5.5-10.4l.4 1.4c-.3.1-6.2 1.9-4.5 8.7l-1.4.3z" id="XMLID_321_"/>
      </g>
    </g>
    <path class="st0" d="M268.3 499.2l63 1.3-3 12.5-73.6-.3-.3-25.8 13.5-4.6 6.1 17z"/>
    <path class="st2" d="M328.9 513.7h-.6l-74.4-.3-.3-27 14.7-5.1 6.2 17.3 57.7 1.2-3.3 13.9zm-73.5-1.8l72.3.3 2.6-11-62.1-1.3v-1.5l4.7.1-5.5-15.3-12.3 4.2.3 24.5z"/>
    <path class="st0" d="M271.5 512.4l16.8-45 16.1-13.4h42.7l-22.8 58.9zM235.4 497.3s7.3-1.3 9.9-2.4 1.3 4.8-2 4.2"/>
    <path class="st2" d="M243.9 499.9c-.2 0-.4 0-.6-.1l.3-1.4c1.2.2 1.9-.8 2.1-1.2.4-.8.4-1.5.3-1.7 0 0-.1 0-.3.1-2.7 1.1-9.8 2.4-10.1 2.4l-.3-1.4c.1 0 7.2-1.3 9.8-2.4 1.1-.5 1.8.1 2 .3.7.9.4 2.4-.1 3.4-.8 1.3-1.9 2-3.1 2z"/>
    <path class="st3" d="M234.5 488.6l12.3 21.7 2.9 1.4-.2-3-12.8-21.5z"/>
    <path class="st2" d="M250.4 512.9l-4.2-2.1-12.8-22.5 3.4-2.2 13.4 22.4.2 4.4zm-3.1-3.2l1.5.8-.1-1.5-12.4-20.7-1 .6 12 20.8z"/>
    <path class="st0" d="M171.9 470.3L161.7 500c-2.2 6.2 2.4 12.7 9 12.7H223l13.5-.6c4.7.3 10.1-2.9 8.7-9.6 0 0 1.5.3 2.5 1.7 1.2 1.7 1.9 4.5 1.9 4.5-.9-2.1.7-2.8-.2-6.1-.5-1.9-3.3-3.8-5.5-5.1-1.7-1-3.6-1.6-5.5-1.8l-14.6 4.6-35.4-7.1 7.2-14.6"/>
    <path class="st2" d="M170.7 513.4c-3.4 0-6.4-1.6-8.4-4.3-1.9-2.7-2.4-6.2-1.3-9.3l18.9-53.8v-.1c3.6-7.8 11.5-12.9 20.1-12.9h12.4v1.5H200c-8 0-15.4 4.7-18.8 12l-18.9 53.8c-1 2.7-.5 5.6 1.1 8 1.7 2.4 4.3 3.7 7.2 3.7H223l13.4-.6h.1c2.6.2 5.1-.8 6.6-2.5 1.4-1.6 1.8-3.7 1.3-6.2-.1-.2 0-.5.2-.7.2-.2.4-.3.7-.2.1 0 1.8.4 3 2 .2.3.4.7.6 1.1 0-.5 0-1.2-.2-2-.4-1.3-2.2-3-5.2-4.7-1.6-.9-3.3-1.5-5.1-1.7l-14.5 4.6h-.4l-35.4-7.1c-.2 0-.4-.2-.5-.4-.1-.2-.1-.4 0-.6l11.6-24 1.3.6-11.2 23.2 34.3 6.8 14.5-4.6h.3c2.1.2 4 .9 5.8 1.9 3.4 1.9 5.4 3.8 5.8 5.6.5 1.9.3 3 .1 3.9-.1.5-.2.9-.1 1.3.1.3.2.6.2.8 0 .2.1.3 0 .4-.1.3-.3.6-.6.6s-.6-.1-.8-.5c-.2-.4-.2-.7-.3-1-.3-.9-.8-2.4-1.5-3.4-.3-.4-.6-.7-1-.9.2 2.9-.8 4.9-1.9 6.1-1.8 2.1-4.8 3.2-7.8 3l-13.4.6h-52.2z"/>
    <path class="st0" d="M171.9 470.3l23.8 7.8"/>
    <path transform="rotate(-72.002 183.77275 474.16834)" class="st2" d="M183.1 461.7h1.5v25h-1.5z"/>
    <g>
      <path class="st0" d="M180.8 493.8l7.5-.5"/>
      <path transform="matrix(.9981 -.06185 .06185 .9981 -30.1749 12.3603)" class="st2" d="M180.8 492.8h7.5v1.5h-7.5z"/>
    </g>
    <g>
      <path class="st0" d="M126 512.7h223.1v8.2H126z"/>
      <path class="st2" d="M349.1 521.6H126c-.4 0-.7-.3-.7-.7v-8.2c0-.4.3-.7.7-.7h223.1c.4 0 .7.3.7.7v8.2c0 .4-.3.7-.7.7zm-222.4-1.5h221.6v-6.7H126.7v6.7z"/>
    </g>
    <g>
      <path class="st0" d="M236.7 487.2l-2.2 1.4-1.5-2.3c-.4-.6-.2-1.4.3-1.8.6-.4 1.5-.3 1.9.4l1.5 2.3z"/>
      <path class="st2" d="M234.5 489.3c-.2 0-.5-.1-.6-.3l-1.5-2.3c-.6-.9-.4-2.2.5-2.8.5-.3 1-.5 1.6-.3.6.1 1 .4 1.3.9l1.5 2.3c.2.3.1.8-.2 1l-2.2 1.4c-.1.1-.3.1-.4.1zm-.4-4.3c-.1 0-.2 0-.3.1-.3.2-.3.5-.1.8l1.1 1.7 1-.6-1.1-1.7c-.1-.1-.2-.2-.4-.3h-.2z"/>
    </g>
    <g>
      <path class="st0" d="M223.7 500.4l-1.3 2.8"/>
      <path transform="rotate(-63.717 223.05127 501.79564)" class="st2" d="M221.5 501h3.1v1.5h-3.1z"/>
    </g>
    <g>
      <g id="XMLID_318_">
        <path class="st3" d="M213.2 552.1l43 80.3L293 611l-45.1-75.9c-5.2-8.8-14.7-14.3-25-14.3h-18.3"/>
        <path class="st2" d="M256.2 633.2c-.2 0-.5-.1-.6-.3l-43-80.3c-.2-.3-.1-.8.2-1 .3-.2.8-.1 1 .2l42.7 79.7 35.6-20.8-44.8-75.3c-5-8.5-14.4-13.9-24.3-13.9h-18.3c-.4 0-.7-.3-.7-.7s.3-.7.7-.7H223c10.5 0 20.3 5.6 25.6 14.6l45.1 75.9c.2.4.1.8-.3 1L256.6 633c-.1.2-.2.2-.4.2z"/>
      </g>
      <path class="st2" d="M269.3 625.2c-.3 0-.5-.1-.6-.4l-43.9-76.5c-1.7-2.9-4.9-4.7-8.3-4.7H178c-.4 0-.7-.3-.7-.7s.3-.7.7-.7h38.6c3.9 0 7.5 2.1 9.5 5.4l43.9 76.5c.2.4.1.8-.3 1-.2.1-.3.1-.4.1z"/>
    </g>
    <g id="XMLID_313_">
      <path class="st0" d="M326.7 496.1c2.1.2 6.2-.1 8.1 1.4 4.1 3.2-4.4 3-4.4 3 5.7.1 5.3 4 1.8 4 2.8.4 1.9 2.6.2 3 2.4 2 .5 3.5-1.8 3.4-2.8-.2-4.9-.8-5-2.3 0-.8 1.2-1.4 2.8-1.4s-7-1.1-6.4-4.8c0 0-.7-.9-.5-2 .1-.6 2-.6 2.4-1.5.1-.3-.7-1-.6-1.3.5-1.1 1.5-1.7 3.4-1.5z" id="XMLID_317_"/>
      <path class="st2" d="M331 511.6h-.4c-2.4-.2-5.6-.7-5.7-3 0-.5.2-.9.5-1.3l.1-.1c-2.2-.6-4.6-1.9-4.3-4.7-.3-.5-.8-1.8-.2-2.8.3-.6 1-.9 1.8-1.1-.2-.4-.3-.9-.2-1.5.5-2.4 3.4-2 5.2-1.8.5.1.9.1 1.4.1 1.2.1 2.2.2 4.4.6 2.4.4 3.4 1.7 3.3 2.8-.2 1.4-2 2.6-5.7 2.4-2.5-.2-5.5-.8-6.9-1.1-1-.1-1.8.1-2 .4-.2.4.1 1.2.3 1.5l.1.2v.3c-.3 2.5 2.5 3.2 5.5 3.8.5.1.9.2 1.2.2l-.3 1.4c-1.3-.1-2.3.1-2.7.4l-.1.1c0 .8 1.6 1.4 4.3 1.6 1.1.1 1.9-.3 2.1-.7.1-.3-.2-.8-.8-1.4l.9-1.1c1.6 1.3 1.5 2.5 1.2 3.1-.2 1.1-1.5 1.7-3 1.7zm-6.3-12.9c1.4.3 4.3.9 6.6 1.1 2.9.2 4-.6 4.1-1.1 0-.3-.6-.9-2-1.2-2.1-.3-3.1-.4-4.3-.6-.4 0-.8-.1-1.4-.1-2.2-.2-3.5-.2-3.6.7-.1.4.3.9.6 1.2z" id="XMLID_316_"/>
      <g id="XMLID_315_">
        <path class="st0" d="M328.5 507.2s1.5.2 3.3.4c2.1.1 3.7-2.6.5-3"/>
        <path class="st2" d="M331.9 508.3h-.2c-1.8-.1-3.3-.4-3.4-.4l.2-1.5s1.5.2 3.2.3c.8 0 1.5-.5 1.6-1 0-.3-.4-.5-1.2-.6l.2-1.5c1.9.3 2.5 1.3 2.4 2.2 0 1.5-1.3 2.5-2.8 2.5z"/>
      </g>
      <path class="st2" d="M332.3 505.3c-.9 0-8.9-.5-11-2.8l1.1-1c1.3 1.4 6.8 2.1 10 2.3 1.1 0 1.8-.5 1.8-1 0-.6-1-1.5-3.6-1.6v-1.5c3.8.1 5.1 1.7 5.1 3.1-.1 1.2-1.3 2.5-3.4 2.5z" id="XMLID_314_"/>
    </g>
    <g>
      <path class="st0" d="M294 473.2h36.5"/>
      <path class="st2" d="M294 472.4h36.5v1.5H294z"/>
    </g>
    <g>
      <path class="st0" d="M292.1 481.1h36.5"/>
      <path class="st2" d="M292.1 480.4h36.5v1.5h-36.5z"/>
    </g>
    <g>
      <path class="st0" d="M288.3 489h36.5"/>
      <path class="st2" d="M288.3 488.3h36.5v1.5h-36.5z"/>
    </g>
    <g>
      <path class="st0" d="M282.2 506.1h21.3"/>
      <path class="st2" d="M282.2 505.3h21.3v1.5h-21.3zM269.6 513.2l7.4-19.9 1.4.5-7.1 19.4z"/>
    </g>
    <g>
      <path class="st1" d="M288.3 467.4l16.1-13.4-1.2 13.5z"/>
    </g>
    <g id="XMLID_353_">
      <g id="XMLID_1400_">
        <g id="XMLID_1401_">
          <path class="st0" d="M288.3 634.3l27.6 21.5c2.3 1.7 7.4 3.5 8.4 6.3l-59.1-2.2s-.7-19 .1-21.8l3.5 2.2 16.3-2.8 3.2-3.2z"/>
          <path class="st2" d="M324.9 662.6h-.7l-59.5-2.2v-.5c0-.8-.7-19.2.2-22l.2-.6 3.8 2.5 15.9-2.8 3.5-3.4 27.9 21.8c.7.5 1.6 1 2.7 1.6 2.4 1.3 5.1 2.8 5.9 4.9l.1.7zm-59.3-3.2l57.8 2.1c-1-1.4-3.1-2.6-5.1-3.7-1-.6-2-1.1-2.8-1.7L288.3 635l-3.1 3h-.2l-16.5 2.9-3-2c-.4 3.4-.1 14.4.1 20.5z"/>
        </g>
      </g>
      <g id="XMLID_359_">
        <g id="XMLID_360_">
          <path class="st0" d="M324.9 664.3v.4c0 1.2-1 2.2-2.2 2.2h-55.6c-1.1 0-2.1-.9-2.2-2l-.2-2.5c-.1-1.3 1-2.5 2.3-2.4l55.8 2.1c1.2 0 2.2 1 2.1 2.2z"/>
          <path class="st2" d="M322.7 667.4h-55.6c-1.4 0-2.6-1.1-2.7-2.5l-.2-2.5c-.1-.8.2-1.5.7-2.1.5-.6 1.3-.9 2.1-.8l55.8 2.1c1.5.1 2.6 1.3 2.6 2.7v.4c0 1.5-1.2 2.7-2.7 2.7zm-55.6-1h55.6c.9 0 1.7-.8 1.7-1.7v-.4c0-.9-.7-1.7-1.6-1.7l-55.8-2.1c-.5 0-1 .2-1.3.5-.3.4-.5.8-.5 1.3l.2 2.5c.1.9.8 1.6 1.7 1.6z"/>
        </g>
      </g>
      <path class="st3" d="M264.8 647.4s8.9 2.1 11.5 13L265 660l-.2-12.6z"/>
      <path class="st2" d="M276.4 660.9l-11.3-.4c-.3 0-.5-.2-.5-.5l-.3-12.5c0-.2.1-.3.2-.4.1-.1.3-.1.4-.1.1 0 9.2 2.3 11.9 13.3 0 .2 0 .3-.1.4 0 .1-.2.2-.3.2zm-10.8-1.5l10.1.4c-2.3-8.3-8.4-11.1-10.4-11.8l.3 11.4z"/>
      <g id="XMLID_104_">
        <path class="st2" d="M304.6 655.6c-1 0-2.1-.3-3.3-.9-5.1-2.7-13.3-10.6-15.1-12.4l-2.5 2.3-.7-.7 3.2-2.9.3.3c.1.1 9.6 9.6 15.2 12.5 1.5.8 2.9 1 4.2.5 2.2-.8 3.3-3.3 3.3-3.3l.9.4c0 .1-1.2 2.9-3.8 3.8-.5.3-1.1.4-1.7.4z" id="XMLID_105_"/>
      </g>
      <g id="XMLID_1383_">
        <path class="st2" d="M296.5 661.2c0-.1-.2-5.6 4.9-7.4l.3.9c-4.5 1.6-4.3 6.2-4.3 6.4l-.9.1z" id="XMLID_1384_"/>
      </g>
      <g id="XMLID_366_">
        <g id="XMLID_367_">
          <circle class="st3" cx="280" cy="647.3" r="5.1"/>
          <path class="st2" d="M280 652.9c-.4 0-.9 0-1.3-.2-1.4-.3-2.7-1.2-3.5-2.5-.8-1.3-1-2.8-.7-4.2.3-1.4 1.2-2.7 2.5-3.5 1.3-.8 2.8-1 4.2-.7 1.4.3 2.7 1.2 3.5 2.5 1.6 2.6.8 6-1.8 7.6-.9.7-1.9 1-2.9 1zm-.1-10.1c-.8 0-1.7.2-2.4.7-1 .6-1.8 1.6-2 2.8s-.1 2.4.6 3.4c.6 1 1.6 1.8 2.8 2 1.2.3 2.4.1 3.4-.6 2.1-1.3 2.8-4.1 1.5-6.3-.6-1-1.6-1.8-2.8-2h-1.1z"/>
        </g>
      </g>
      <g id="XMLID_1379_">
        <path class="st0" d="M300.9 644.8l-4.9 5.6"/>
        <path transform="rotate(-48.523 298.48016 647.60636)" class="st2" d="M294.7 647.1h7.5v1h-7.5z"/>
      </g>
      <g id="XMLID_1374_">
        <path class="st0" d="M296.1 641.2l-4.9 5.1"/>
        <path transform="rotate(-46.583 293.6543 643.72054)" class="st2" d="M290.1 643.3h7v1h-7z"/>
      </g>
      <path class="st0" d="M276.2 650.7l-2.9 2.6"/>
      <path transform="rotate(-41.712 274.74244 651.99205)" class="st2" d="M272.8 651.5h3.9v1h-3.9z"/>
      <g id="XMLID_354_">
        <g id="XMLID_356_">
          <path class="st3" d="M301.6 654.3c-5 1.9-4.6 6.9-4.6 6.9l27.2.9s-.8-3.1-3.6-5.3c-2.3-1.8-10.9-5.5-10.9-5.5s-2.4 5.9-8.1 3z"/>
          <path class="st2" d="M324.2 662.6l-27.2-.9c-.3 0-.5-.2-.5-.5 0-.1-.4-5.3 4.9-7.4.1-.1.3 0 .4 0 1.5.8 2.9 1 4.2.5 2.2-.8 3.2-3.2 3.3-3.2l.3-.3c.1-.1.3 0 .4 0 .4.2 8.7 3.7 11 5.6 2.9 2.3 3.7 5.4 3.7 5.5 0 .2 0 .3-.1.4-.1.2-.2.3-.4.3zm-26.7-1.9l26 .9c-.4-1-1.3-2.9-3.2-4.3-1.9-1.5-8.6-4.5-10.4-5.3-.5.8-1.6 2.6-3.6 3.3-1.5.5-3.1.4-4.8-.5-3.5 1.5-4 4.7-4 5.9z"/>
        </g>
      </g>
    </g>
    <g id="XMLID_355_">
      <g id="XMLID_373_">
        <g id="XMLID_374_">
          <path class="st0" d="M244.2 625.1l-.4 34.9c0 2.9-14.2-9.6-14.2-9.6l-19.8-28.2s14.7-12.1 17.4-13.1l.3 4.1 12.1 11.3 4.6.6z"/>
          <path class="st2" d="M243.4 660.9c-2.4 0-10.6-7-14.2-10.2l-.1-.1-20-28.6.4-.3c.6-.5 14.8-12.2 17.6-13.1l.6-.2.3 4.6 11.9 11 4.8.7-.5 35.4c0 .6-.3.8-.5.8h-.3zM230 650c5.5 4.8 11.9 9.8 13.3 9.9l.4-34.4-4.3-.6-12.4-11.5-.3-3.6c-2.9 1.6-11.5 8.5-16.3 12.4L230 650z"/>
        </g>
      </g>
      <path class="st3" d="M219.6 614.3s3.7 8.3-3.4 17l-6.5-9.2 9.9-7.8z"/>
      <path class="st2" d="M216.3 631.8c-.2 0-.3-.1-.4-.2l-6.5-9.2c-.2-.2-.1-.5.1-.7l9.8-7.8c.1-.1.3-.1.4-.1.2 0 .3.1.3.3 0 .1 3.8 8.7-3.4 17.6 0 .1-.2.1-.3.1zm-5.8-9.6l5.8 8.3c5.2-6.8 3.7-13.4 3.1-15.4l-8.9 7.1z"/>
      <g id="XMLID_369_">
        <path class="st2" d="M239.3 654.6c-.5 0-1-.1-1.4-.3-1.2-.5-2-1.7-2.3-3.5-.9-5.8.6-19.7.9-22.4l-3.3-.7.2-1 4.2.8-.1.5c0 .2-2 16.5-1 22.6.2 1.5.8 2.4 1.7 2.7 2 .8 5-1.3 5.1-1.3l.6.8c-.1.1-2.4 1.8-4.6 1.8z" id="XMLID_370_"/>
      </g>
      <g id="XMLID_363_">
        <g id="XMLID_364_">
          <circle class="st3" cx="228.8" cy="626.3" r="5.1"/>
          <path class="st2" d="M228.8 631.9c-.7 0-1.3-.1-2-.4-2.9-1.1-4.3-4.3-3.2-7.2 1.1-2.9 4.3-4.3 7.2-3.2 1.4.5 2.5 1.6 3.1 2.9.6 1.4.6 2.9.1 4.3-.9 2.2-3 3.6-5.2 3.6zm-4.3-7.2c-.9 2.3.3 5 2.6 5.9 2.3.9 5-.3 5.9-2.6.4-1.1.4-2.4-.1-3.5s-1.4-2-2.5-2.4c-2.3-.9-4.9.2-5.9 2.6z"/>
        </g>
      </g>
      <g id="XMLID_362_">
        <path class="st0" d="M243.5 641.5l-7.4-.6"/>
        <path transform="matrix(.07417 -.9972 .9972 .07417 -417.3993 832.775)" class="st2" d="M239.3 637.5h1v7.5h-1z"/>
      </g>
      <g id="XMLID_361_">
        <path class="st0" d="M243.4 635.4l-6.9-.7"/>
        <path transform="rotate(-83.765 239.94132 635.04738)" class="st2" d="M239.5 631.5h1v7h-1z"/>
      </g>
      <path class="st0" d="M223.8 625.3l-3.8-.7"/>
      <path transform="rotate(-78.901 221.93488 624.96272)" class="st2" d="M221.4 623h1v3.9h-1z"/>
      <g id="XMLID_357_">
        <g id="XMLID_358_">
          <path class="st3" d="M235.4 648.7c-3.8-.5-5.9 1.7-5.9 1.7l19 14.2s.7-3.1-.6-6.3c-1.1-2.7-3.9-8.3-3.9-8.3s-5 3.9-8.6-1.3z"/>
          <path class="st2" d="M248.6 665.1c-.1 0-.2 0-.3-.1l-19-14.2c-.1-.1-.2-.2-.2-.4 0-.1 0-.3.1-.4.1-.1 2.3-2.4 6.3-1.8.1 0 .3.1.3.2 1 1.4 2.1 2.2 3.5 2.4 2.3.3 4.4-1.3 4.4-1.3.1-.1.3-.1.4-.1.1 0 .3.1.3.3 0 .1 2.7 5.7 3.9 8.4 1.4 3.4.7 6.5.7 6.6 0 .2-.2.3-.3.4h-.1zm-18.3-14.8l17.8 13.3c.1-1.1.2-3.1-.7-5.2-.9-2.2-2.9-6.3-3.6-7.8-.8.5-2.6 1.5-4.7 1.2-1.6-.2-2.9-1.1-4-2.7-2.4-.2-4 .7-4.8 1.2z"/>
        </g>
      </g>
      <g>
        <path class="st0" d="M247.5 664.3L234.3 654l-23.4-30.4c-.8-1.1-2.3-1.3-3.3-.4l-1.8 1.7c-.8.8-1 2.1-.3 3l24.8 29.8 14.9 10.8c1.1.6 2.4.2 3-.9l.2-.3c.5-1.1.1-2.4-.9-3z"/>
        <path class="st2" d="M246.2 669.2c-.4 0-.9-.1-1.3-.3l-15-10.9-24.8-29.8c-.9-1.1-.7-2.7.3-3.7l1.8-1.7c.6-.5 1.3-.8 2.1-.7.8.1 1.5.5 1.9 1.1l23.4 30.4 13.2 10.2c1.2.8 1.6 2.4.9 3.6l-.2.3c-.4 1.1-1.4 1.5-2.3 1.5zm-15.6-11.8l14.8 10.7c.8.4 1.8.1 2.3-.7l.2-.3c.5-.8.2-1.8-.6-2.3L234 654.5l-23.4-30.4c-.3-.4-.7-.7-1.2-.7-.5-.1-1 .1-1.3.4l-1.8 1.7c-.7.6-.7 1.6-.2 2.3l24.5 29.6z"/>
      </g>
    </g>
  </g>
  <g>
    <path class="st0" d="M202.8 569.1h1.5v93.5h-1.5z"/>
    <path class="st0" d="M254.1 662.6h-1.5v-1.1c0-10.1-8.2-18.4-18.4-18.4h-61.5c-10.1 0-18.4 8.2-18.4 18.4v1.1h-1.5v-1.1c0-10.9 8.9-19.8 19.8-19.8h61.5c10.9 0 19.8 8.9 19.8 19.8v1.1z"/>
    <circle class="st0" cx="153.7" cy="662.6" r="7.7"/>
    <circle class="st0" cx="254.1" cy="662.6" r="7.7"/>
    <path class="st0" d="M204.7 670.7h-2.3c-1.9 0-3.4-1.5-3.4-3.4v-9.1c0-1.9 1.5-3.4 3.4-3.4h2.3c1.9 0 3.4 1.5 3.4 3.4v9.1c-.1 1.9-1.6 3.4-3.4 3.4z"/>
  </g>
  <g id="XMLID_102_" class="st8">
    <path class="st4" d="M456 540.6c-.6 0-1.3-.1-2-.2-5.8-1.1-9.6-6.6-8.6-12.4 1.1-5.8 6.6-9.6 12.4-8.6 2.8.5 5.2 2.1 6.8 4.4 1.6 2.3 2.2 5.2 1.7 8-.5 2.8-2.1 5.2-4.4 6.8-1.7 1.4-3.8 2-5.9 2zm0-20.3c-4.6 0-8.6 3.3-9.5 7.9-1 5.2 2.5 10.3 7.8 11.3 2.5.5 5.1-.1 7.2-1.5 2.1-1.5 3.6-3.7 4-6.2.5-2.5-.1-5.1-1.5-7.2-1.5-2.1-3.7-3.6-6.2-4-.7-.2-1.2-.3-1.8-.3z" id="XMLID_103_"/>
    <path class="st4" d="M485.7 546.1c-.6 0-1.3-.1-1.9-.2-2.8-.5-5.2-2.1-6.8-4.4-1.6-2.3-2.2-5.2-1.7-8 1.1-5.8 6.6-9.6 12.4-8.6 5.8 1.1 9.6 6.6 8.6 12.4-1 5.2-5.5 8.8-10.6 8.8zm0-20.3c-4.6 0-8.6 3.3-9.5 7.9-.5 2.5.1 5.1 1.5 7.2 1.5 2.1 3.7 3.6 6.2 4 5.2 1 10.3-2.5 11.3-7.8 1-5.2-2.5-10.3-7.8-11.3h-1.7z" id="XMLID_265_"/>
    <path class="st4" d="M475.3 533.8s-1.4-2.7-4-3.2c-3.2-.6-4.8 1.4-4.9 1.5l-.8-.6c.1-.1 2.1-2.6 5.8-1.9 3.2.6 4.7 3.6 4.8 3.8l-.9.4z" id="XMLID_264_"/>
    <path class="st4" d="M445.6 528.4l-21.3-31.1c-.6-.9-1.5-1.4-2.5-1.6-2.1-.4-4.2 1-4.6 3.1l-.3 1.6-1-.2.3-1.6c.5-2.7 3.1-4.4 5.7-4 1.3.2 2.4 1 3.2 2.1l21.3 31.1-.8.6z" id="XMLID_263_"/>
    <path class="st4" d="M487.1 525.7l-13.4-19.3c-.6-.9-1.5-1.4-2.5-1.6-2.1-.4-4.2 1-4.6 3.1l-.3 1.6-1-.2.3-1.6c.5-2.7 3.1-4.4 5.7-4 1.3.2 2.4 1 3.2 2l13.4 19.3-.8.7z" id="XMLID_262_"/>
  </g>
  <g id="XMLID_101_" class="st8">
    <path class="st4" d="M392.4 292.1c-.7 0-1.3-.4-1.5-1l-1.5-3.5c-.1-.2-.3-.4-.5-.4l-3.7-.7c-.6-.1-1.1-.6-1.3-1.2s0-1.3.5-1.7l2.8-2.5c.2-.1.2-.4.2-.6l-.5-3.7c-.1-.6.2-1.3.7-1.6.5-.4 1.2-.4 1.8-.1l3.3 1.9c.2.1.4.1.6 0l3.4-1.6c.6-.3 1.3-.2 1.8.2s.7 1 .6 1.7l-.8 3.7c0 .2 0 .4.2.6l2.6 2.7c.4.5.6 1.1.4 1.7-.2.6-.8 1-1.4 1.1l-3.8.4c-.2 0-.4.2-.5.4l-1.8 3.3c-.4.5-.9.9-1.6.9zm-3.8-16.3c-.1 0-.3 0-.4.1-.2.1-.3.4-.3.7l.5 3.7c.1.5-.1 1.1-.5 1.5l-2.8 2.5c-.2.2-.3.4-.2.7.1.3.3.4.5.5l3.7.7c.5.1 1 .5 1.2 1l1.5 3.5c.1.2.3.4.6.4s.5-.1.6-.4l1.8-3.3c.3-.5.8-.8 1.3-.9l3.8-.4c.3 0 .5-.2.6-.4s0-.5-.1-.7l-2.6-2.7c-.4-.4-.5-1-.4-1.5l.8-3.7c.1-.3 0-.5-.2-.7-.2-.2-.5-.2-.7-.1l-3.4 1.6c-.5.2-1.1.2-1.6-.1l-3.3-1.9c-.2 0-.3-.1-.4-.1z"/>
  </g>
  <g class="st8">
    <path class="st4" d="M231.9 289.5l-43.3-17.7 43.3-17.7 43.3 17.7-43.3 17.7zm-40.6-17.7l40.6 16.6 40.7-16.6-40.6-16.6-40.7 16.6z"/>
    <path class="st4" d="M232 304.3c-6.4 0-12.9-1.5-17.4-4.5l-.2-.2c-2.3-1.8-3.6-3.9-3.6-6.2v-13h1v13c0 2 1.2 3.9 3.4 5.5l.2.1c8.6 5.6 24.7 5.6 33.3-.1l.1-.1c2.2-1.6 3.4-3.5 3.4-5.5v-13h1v13c0 2.3-1.2 4.4-3.6 6.2l-.2.2c-4.5 3.1-11 4.6-17.4 4.6z" id="XMLID_1_"/>
    <path class="st4" d="M232 274.5c-1.5 0-2.7-1.2-2.7-2.7s1.2-2.7 2.7-2.7c1.5 0 2.7 1.2 2.7 2.7s-1.3 2.7-2.7 2.7zm0-4.4c-.9 0-1.7.8-1.7 1.7s.8 1.7 1.7 1.7c.9 0 1.7-.8 1.7-1.7s-.8-1.7-1.7-1.7z"/>
    <path class="st4" d="M202.4 306.5h-1v-30.2l28.3-5 .2 1-27.5 4.8z"/>
    <path class="st4" d="M208.9 304.7l-6.9-6.9-6.9 6.9-.7-.7 7.6-7.6 7.6 7.6z"/>
  </g>
  <g id="XMLID_50_" class="st8">
    <g id="XMLID_73_">
      <path class="st4" d="M397.2 640.2c-1 0-2-.6-2.3-1.6l-9.6-26.8c-.5-1.3.2-2.7 1.5-3.1l34.5-12.4c.6-.2 1.3-.2 1.9.1.6.3 1 .8 1.3 1.4l9.6 26.8c.2.6.2 1.3-.1 1.9-.3.6-.8 1-1.4 1.3L398 640c-.3.1-.6.2-.8.2zm24.8-43.1c-.2 0-.3 0-.5.1L387 609.6c-.4.1-.7.4-.8.7-.2.4-.2.7-.1 1.1l9.6 26.8c.3.8 1.1 1.1 1.9.9l34.5-12.4c.4-.1.7-.4.8-.7s.2-.7.1-1.1l-9.6-26.8c-.1-.4-.4-.7-.7-.8-.3-.2-.5-.2-.7-.2z" id="XMLID_82_"/>
      <path class="st4" d="M409.2 622.5c-.9 0-1.8-.2-2.6-.7l-21.3-11.4c-.3-.1-.4-.4-.4-.7 0-.3.2-.5.5-.6l37.2-13.4c.3-.1.6 0 .8.2.2.2.3.5.1.8l-9.2 22.4c-.6 1.4-1.8 2.6-3.2 3.1-.7.2-1.3.3-1.9.3zm-23-12.7L407 621c1.1.6 2.5.7 3.7.3 1.2-.4 2.2-1.4 2.7-2.5l8.9-21.8-36.1 12.8z" id="XMLID_78_"/>
      <path class="st4" d="M396.3 640.4c-.2 0-.4-.1-.5-.2-.2-.2-.3-.5-.1-.8l8.2-20.1 3.1 1.7c1.1.6 2.5.7 3.7.3 1.2-.4 2.2-1.4 2.7-2.5l1.3-3.3 19.2 10.3c.3.1.4.4.4.7s-.2.5-.5.6l-37.2 13.4c-.1-.1-.2-.1-.3-.1zm8.1-19.7l-7.6 18.5 36.1-13-17.7-9.5-.9 2.2c-.6 1.4-1.8 2.6-3.2 3.1-1.5.5-3.1.4-4.5-.3l-2.2-1zm29 5.9z"/>
    </g>
  </g>
  <g id="XMLID_49_" class="st8">
    <path class="st4" d="M317.5 387.5l.8-.9c1.7-1.9 2.7-4.3 2.7-6.8v-17c0-9.6 7.8-17.5 17.5-17.5h20.2c9.6 0 17.5 7.8 17.5 17.5s-7.8 17.5-17.5 17.5h-30.1c-1.6 4.1-5.4 6.9-9.8 7.1l-1.3.1zm4.4-7.3c-.1 2.2-.8 4.3-2.1 6.1 3.6-.6 6.6-3.1 7.9-6.7l.1-.3h30.8c9.1 0 16.5-7.4 16.5-16.5s-7.4-16.5-16.5-16.5h-20.2c-9.1 0-16.5 7.4-16.5 16.5v17.4z"/>
  </g>
  <g id="XMLID_5_" class="st8">
    <path class="st4" d="M365.7 453.5c-.7 0-1.3-.4-1.5-1l-1.5-3.5c-.1-.2-.3-.4-.5-.4l-3.7-.7c-.6-.1-1.1-.6-1.3-1.2s0-1.3.5-1.7l2.8-2.5c.2-.2.2-.4.2-.6l-.5-3.7c-.1-.6.2-1.3.7-1.6.5-.4 1.2-.4 1.8-.1l3.3 1.9c.2.1.4.1.6 0l3.4-1.6c.6-.3 1.3-.2 1.8.2s.7 1 .6 1.7l-.8 3.7c0 .2 0 .4.2.6l2.6 2.7c.4.5.6 1.1.4 1.7-.2.6-.8 1-1.4 1.1l-3.8.4c-.2 0-.4.2-.5.4l-1.8 3.3c-.4.6-1 .9-1.6.9zm-3.9-16.2c-.1 0-.3 0-.4.1-.2.1-.3.4-.3.7l.5 3.7c.1.5-.1 1.1-.5 1.5l-2.8 2.5c-.2.2-.3.4-.2.7.1.3.3.4.5.5l3.7.7c.5.1 1 .5 1.2 1l1.5 3.5c.1.2.3.4.6.4s.5-.1.6-.4l1.8-3.3c.3-.5.8-.8 1.3-.9l3.8-.4c.3 0 .5-.2.6-.4s0-.5-.1-.7l-2.6-2.7c-.4-.4-.5-1-.4-1.5l.8-3.7c.1-.3 0-.5-.2-.7-.2-.2-.5-.2-.7-.1l-3.4 1.6c-.5.2-1.1.2-1.6-.1l-3.3-1.9c-.1-.1-.2-.1-.4-.1z"/>
  </g>
  <g class="st8">
    <path class="st4" d="M1246.5 578.1c-.5 0-1.1-.2-1.4-.7-.4-.5-.5-1.2-.2-1.8l13.2-32.8c.2-.6.8-1 1.4-1.1.6-.1 1.2.2 1.6.7l12.9 16.8-6.3 15.6-20.9 3.2c-.2.1-.3.1-.3.1zm13.2-35.4h-.1c-.3 0-.5.2-.6.5l-13.2 32.8c-.1.3-.1.5.1.8.2.2.4.3.7.3l20.4-3.1 5.9-14.5-12.5-16.4c-.3-.2-.5-.4-.7-.4zM1319.8 611.2c-.3 0-.7-.1-1-.2l-50.4-20.3c-1.4-.6-2.1-2.2-1.5-3.5l15-37.2c.3-.7.8-1.2 1.4-1.5s1.4-.3 2.1 0l50.4 20.3c1.4.6 2.1 2.2 1.5 3.5l-15 37.2c-.3.7-.8 1.2-1.5 1.5-.2.1-.6.2-1 .2zm-35.4-62c-.2 0-.5 0-.7.1-.4.2-.7.5-.9.9l-15 37.2c-.4.9.1 1.9 1 2.2l50.4 20.3c.4.2.9.2 1.3 0s.8-.5.9-.9l15-37.2c.4-.9-.1-1.9-1-2.2l-50.4-20.3c-.2 0-.4-.1-.6-.1z"/>
    <path class="st4" d="M1304.4 592c-.4 0-.7-.2-1-.5l-11.3-14.8c-.3-.3-.3-.8-.2-1.2.2-.4.5-.7.9-.7l18.4-2.8c.4-.1.8.1 1.1.4.3.3.3.8.2 1.2l-7.1 17.6c-.2.4-.5.7-.9.7 0 .1 0 .1-.1.1zm7.1-18.9l-18.4 2.8c-.1 0-.1.1-.1.1v.2l11.3 14.8c.1.1.1.1.2.1 0 0 .1 0 .1-.1l7.1-17.6v-.2c-.1-.1-.1-.1-.2-.1z"/>
  </g>
</svg>
