<svg version="1.1" id="Layer_1" xmlns="http://www.w3.org/2000/svg" x="0" y="0" viewBox="0 0 700 470" xml:space="preserve">
  <style>
    .st0{fill:#fff}.st1{fill:#ced8dd}.st2{fill:#1d1d1d}.st3{fill:#f59d20}.st4{fill:#07c39f}.st5{fill:#ecf0f2}.st6{fill:#8899a4}.st7{fill:#374148}
  </style>
  <path class="st0" d="M791.2 453.4l-1.4-.2c2.1-14.6 3-29.7 2.5-45-1.3-47.7-13.8-89.8-36.2-121.8-10.6-15.1-23.1-27.6-37.2-37.1-14.1-9.5-29.4-15.7-45.5-18.6l.2-1.4c16.3 2.9 31.8 9.3 46 18.9 14.2 9.6 26.9 22.2 37.6 37.5 22.6 32.3 35.2 74.7 36.5 122.6.4 15.3-.4 30.5-2.5 45.1z"/>
  <path class="st1" d="M614.4 311.3l45.1 24.8c11.6 5.2 27.2-1 25.1-15.8-3.8-27.9-12.3-102.2-12.3-102.2-2.6-12.3-13.6-21.2-26.2-21.2H559c-9.6 0-18.5 5.2-23.3 13.6l-26.4 49.1"/>
  <path class="st0" d="M614.4 314.3v-35.9L601 273s-13.3-6.5-28.6-3.9c-2.2.4-13-2.8-14.2-.3-1 2.2 2.9 3.6 2.9 3.6s-3.6 2.2-5.5 3.6c-1.8 1.3-10.7 7.4-10.7 7.4s8.6 18.2 21.6 8.1c1.2-.9 1.1-3.5 5.8.5"/>
  <path class="st2" d="M654 294.2l-53.4-20.6c-.2-.1-24.4-11.5-44.6 3-1.2.9-7.7 4.8-9.4 6.2 2.6 0 11.5-2.3 16.9-6l.8-.6.3 1c0 .1 2.4 8.6 6.9 12.4l-.9 1.1c-4-3.3-6.3-9.8-7-12.2-7.7 5.1-18.5 5.7-18.8 5.6l-1.5-.2 1.2-1c.2-.2 9-6.1 10.8-7.4 11-7.8 22.9-8.3 31-7.2 8.5 1.1 14.5 3.9 15 4.1l53.3 20.6-.6 1.2z"/>
  <path class="st2" d="M552.6 289.7l-.4-1.4c8.3-2.2 13.4-6 13.5-6.1l.9 1.1c-.2.2-5.4 4.1-14 6.4zM594.8 301.9l-24.4-11.4-1.9-2.1c-1.4 1.2-5.4 4.2-12.4 6l-.4-1.4c8.3-2.1 12.3-6.1 12.3-6.1l.5-.5 2.7 3 24.1 11.3-.5 1.2z"/>
  <path class="st0" d="M614.4 311.3v-32.9"/>
  <path class="st2" d="M615.1 311.3h-1.4v-33.8l1.4.6zM560.1 273.5c-1.4-1.3-3.2-3.7-2.5-5.2.3-.5.9-1.1 2.4-.8 4.8.9 14.4.6 14.5.6l-.3 1.3c-.4 0-9.5.3-14.4-.6-.6-.1-.9 0-.9 0-.2.4.5 2 2.2 3.6l-1 1.1z"/>
  <path transform="rotate(-15.971 563.37874 275.78778)" class="st2" d="M562.7 274.2h1.4v3.1h-1.4z"/>
  <path class="st2" d="M603.6 222.9c-7.7 0-15-4.3-18.6-11.6-3.4-7.4-.1-14.2 0-14.5l1.3.6c0 .1-3.1 6.5 0 13.3 4.4 8.9 14.7 13 24.1 9.6 9.3-3.5 14.5-13.3 12-23l1.4-.4c2.7 10.3-2.8 20.9-12.9 24.6-2.4 1-4.9 1.4-7.3 1.4z" id="XMLID_307_"/>
  <path class="st2" d="M668.1 338.6c-3 0-6-.6-8.8-1.9l-64.4-34.9.7-1.2 64.4 34.9c6.3 2.8 13.9 2.2 18.9-1.6 4.1-3.1 6-7.9 5.2-13.4-3.8-27.4-12-100.2-12.2-102.2-2.6-11.9-13.3-20.6-25.5-20.6h-87.1c-9.4 0-18.1 5.1-22.7 13.2l-26.4 49-1.2-.7 26.4-49.1c4.9-8.6 14-14 23.9-14h87.1c12.9 0 24.2 9.1 26.9 21.7v.1c.1.7 8.5 74.6 12.2 102.2.8 6.1-1.2 11.4-5.8 14.8-3.3 2.5-7.4 3.7-11.6 3.7z"/>
  <g id="XMLID_306_">
    <path class="st3" d="M528.2 276.8l56.6 20.4c.8.3 1.8-.1 2.1-1 1.2-3.4-.5-7.1-3.9-8.3l-52-18.7-2.8 7.6z"/>
    <path class="st2" d="M585.4 298c-.3 0-.5 0-.8-.1l-57.2-20.6 3.2-8.9 52.7 19c3.7 1.3 5.7 5.5 4.3 9.2-.4.8-1.3 1.4-2.2 1.4zm-56.3-21.6l55.9 20.1c.5.2 1-.1 1.2-.6 1.1-3-.5-6.3-3.5-7.4L531.4 270l-2.3 6.4z"/>
  </g>
  <g id="XMLID_305_">
    <path class="st3" d="M457.3 282.2h85.2l-14.7-59c-.7-2.6-3-4.5-5.8-4.5h-76.8c-1.9 0-3.3 1.8-2.9 3.7l15 59.8z"/>
    <path class="st2" d="M543.5 282.9h-86.7l-15-60.3c-.3-1.1 0-2.3.7-3.1.7-.9 1.8-1.4 2.9-1.4h76.8c3.1 0 5.7 2.1 6.4 5l14.9 59.8zm-85.6-1.4h83.8l-14.5-58.1c-.6-2.3-2.7-4-5.1-4h-76.8c-.7 0-1.4.3-1.8.9-.4.6-.6 1.3-.4 1.9l14.8 59.3z"/>
  </g>
  <g id="XMLID_300_">
    <path transform="rotate(-160.186 489.83579 251.55088)" class="st0" d="M483.9 248.6h11.8v5.8h-11.8z" id="XMLID_304_"/>
    <path class="st2" d="M478 247.3l5.3 5 1.9-5.5z" id="XMLID_303_"/>
    <path class="st3" d="M486.3 250.3c-.3.8.1 1.7.9 2s1.7-.1 2-.9c.3-.8-.1-1.7-.9-2-.8-.3-1.7.1-2 .9z" id="XMLID_302_"/>
    <path class="st2" d="M496.4 250.8l6.6.6-4.1 1.9 4.5 3.1h-5.1l1.7 3.6-5.6-3.8z" id="XMLID_301_"/>
  </g>
  <path class="st0" d="M545.5 252.1l-4.4 24.2"/>
  <path transform="rotate(-79.537 543.26895 264.18508)" class="st2" d="M531 263.5h24.6v1.4H531z"/>
  <g id="XMLID_267_">
    <g id="XMLID_287_">
      <g id="XMLID_290_">
        <path class="st3" d="M555 137.3l3.5 10.2 3.6-8.6z" id="XMLID_299_"/>
        <g id="XMLID_298_">
          <path class="st0" d="M557.6 153c1.6-18.5 17.8-32.1 36.3-30.6 18.5 1.6 32.1 17.8 30.6 36.3l-.8 9.3c-1.6 18.5-17.8 32.1-36.3 30.6-18.5-1.6-32.1-17.8-30.6-36.3l.8-9.3z"/>
          <path class="st2" d="M590.2 199.4c-1 0-1.9 0-2.9-.1-18.8-1.6-32.8-18.2-31.2-37l.8-9.3c.8-9.1 5.1-17.4 12-23.3 7-5.9 15.9-8.7 25-7.9 18.8 1.6 32.8 18.2 31.2 37l-.8 9.3c-1.5 17.8-16.5 31.3-34.1 31.3zM557.6 153l.7.1-.8 9.3c-1.5 18 11.9 34 29.9 35.5s34-11.9 35.5-29.9l.8-9.3c1.5-18-11.9-34-29.9-35.5-8.7-.7-17.2 2-23.9 7.6-6.7 5.7-10.8 13.6-11.6 22.3l-.7-.1z"/>
        </g>
        <path class="st2" d="M590.1 164c-.1 1.4-1.3 2.4-2.6 2.3-1.3-.1-2.3-1.3-2.2-2.7.1-1.4 1.3-2.4 2.6-2.3 1.3.2 2.3 1.4 2.2 2.7z" id="XMLID_297_"/>
        <path class="st2" d="M565.4 161.9c-.1 1.4-1.3 2.4-2.6 2.3-1.3-.1-2.3-1.3-2.2-2.7.1-1.4 1.3-2.4 2.6-2.3 1.4.2 2.4 1.4 2.2 2.7z" id="XMLID_296_"/>
        <g id="XMLID_295_">
          <path class="st0" d="M620.1 198.3l-4.3-11.5c-6.8 8.1-17.2 12.8-28.5 11.8h-.4l-2.7-.3 4.4 11.7c3.8 7.7 12.8 11.4 21 8.4 8.2-3.1 12.7-11.8 10.5-20.1z"/>
          <path class="st2" d="M603.7 220.1c-6.5 0-12.7-3.6-15.7-9.8v-.1l-4.8-12.9 1.2.2c.8.1 1.7.2 2.6.3h.4c10.6.9 21-3.4 27.9-11.6l.8-.9 4.7 12.7c2.3 8.8-2.4 17.7-10.9 20.9-2 .9-4.1 1.2-6.2 1.2zm-14.4-10.4c3.7 7.5 12.3 10.9 20.1 8 7.8-2.9 12.1-11.1 10-19.2l-3.9-10.4c-7.2 7.9-17.7 12.1-28.3 11.2h-.4c-.5 0-1-.1-1.5-.2l4 10.6z"/>
        </g>
        <g id="XMLID_292_">
          <path class="st2" d="M568.5 152.7l-13.5-1.2c.2-2.1 2-3.6 4.1-3.4l9.8.8c1 .1 1.8 1 1.7 2-.1 1.1-1.1 1.9-2.1 1.8z" id="XMLID_294_"/>
          <path class="st2" d="M600.8 155.5l-13.5-1.2c-1-.1-1.8-1-1.7-2 .1-1 1-1.8 2-1.7l9.8.8c2.1.2 3.6 2 3.4 4.1z" id="XMLID_293_"/>
        </g>
        <path class="st3" d="M595.5 122.6c-1.2-.1-2.4-.1-3.7-.1l3.3 1.7 10.7 15.1 4.9 18.7 4 .3c4.1.3 7.1 3.9 6.7 8s-3.8 7.1-8.9 6.7l3.1 14.7.6.2c6.2-5.4 8.4-12.7 9-19.7l.8-9.3c1.7-18.5-12-34.7-30.5-36.3z" id="XMLID_291_"/>
      </g>
      <path class="st2" d="M612.1 167.9h-.2c-.3-.1-.5-.4-.5-.8.2-1.3.7-2.2 1.5-2.8 1.2-.8 2.5-.5 2.5-.5.4.1.6.5.5.8-.1.4-.5.6-.8.5 0 0-.6-.1-1.2.1.4 0 .7.3.7.7 0 .4-.3.7-.7.7-.8 0-1.3.8-1.3.8 0 .4-.2.5-.5.5z" id="XMLID_289_"/>
      <path class="st0" d="M615.9 188.7l-2.1-9.5-16.1 13.1 4.7 9.6z" id="XMLID_288_"/>
    </g>
    <g id="XMLID_279_">
      <g id="XMLID_280_">
        <g id="XMLID_282_">
          <path class="st4" d="M564.8 171.6h-1c-2.9-.3-5.6-1.6-7.5-3.9-1.9-2.3-2.8-5.1-2.6-8.1.3-2.9 1.6-5.6 3.9-7.5 2.3-1.9 5.1-2.8 8.1-2.6 6.1.5 10.6 5.9 10.1 12-.3 2.9-1.6 5.6-3.9 7.5-2 1.7-4.5 2.6-7.1 2.6zm0-21.1c-2.4 0-4.6.8-6.5 2.4-2.1 1.7-3.3 4.2-3.5 6.8-.2 2.7.6 5.3 2.3 7.3s4.2 3.3 6.8 3.5c2.7.2 5.3-.6 7.3-2.3s3.3-4.2 3.5-6.8c.5-5.5-3.6-10.4-9.2-10.9h-.7z" id="XMLID_285_"/>
          <path class="st4" d="M590.5 173.8h-1c-2.9-.3-5.6-1.6-7.5-3.9-1.9-2.3-2.8-5.1-2.6-8.1.5-6.1 5.9-10.6 12-10.1s10.6 5.9 10.1 12c-.3 2.9-1.6 5.6-3.9 7.5-2 1.7-4.5 2.6-7.1 2.6zm-.1-21.1c-5.2 0-9.6 4-10 9.2-.2 2.7.6 5.3 2.3 7.3 1.7 2.1 4.2 3.3 6.8 3.5 2.7.2 5.3-.6 7.3-2.3s3.3-4.2 3.5-6.8c.5-5.5-3.6-10.4-9.2-10.9h-.7z" id="XMLID_284_"/>
        </g>
        <path transform="matrix(.0849 -.9964 .9964 .0849 367.4799 723.3242)" class="st4" d="M577 159.4h1v4.4h-1z" id="XMLID_281_"/>
      </g>
    </g>
    <g id="XMLID_274_">
      <path class="st3" d="M606.6 141.1c-.2 2.9-2.8 5-5.6 4.7l-37.7-3.2c-9-.8-16.1-8.4-15.8-17.5 0-.3 0-.5.1-.8 0 0 9.9.9 13.7 1.2-4.4-3.7-5.7-9.1-5.4-13.2l33.5 2.9 10.3.9c5 .4 8.7 4.8 8.3 9.8l.6-7.4c10.7.9 18.6 10.4 17.7 21.1-.4 4.4-2.3 9-5.7 12.1L617 150c-4-2.1-7.7-5.1-10.4-8.9z" id="XMLID_278_"/>
      <path class="st2" d="M604.5 128.9l-1.4-.1c.3-2.9-1.9-5.5-4.9-5.8l-29-2.5.1-1.4 29 2.5c1.9.2 3.6 1.1 4.7 2.5-.7-1.9-2.4-3.4-4.6-3.6l-33.7-2.9.1-1.4 33.7 2.9c3.7.3 6.5 3.6 6.2 7.3l-.2 2.5z" id="XMLID_277_"/>
      <path transform="matrix(.0849 -.9964 .9964 .0849 384.7711 676.2679)" class="st2" d="M559.9 120.2h1.4v16.9h-1.4z" id="XMLID_276_"/>
      <path class="st3" d="M545.1 133.6c-1.3-2.5-1.9-5.3-1.8-8.1l.3-2.9 1.4.1-.2 2.9c-.1 2.5.5 5.1 1.7 7.3l-1.4.7z" id="XMLID_275_"/>
    </g>
    <path class="st2" d="M578.4 179.8c-2.2 0-4.4-.8-6.1-2.3l1-1c2.2 2.1 5.7 2.5 8.5 1.2l.6 1.3c-1.2.5-2.6.8-4 .8z" id="XMLID_273_"/>
    <path class="st4" d="M600.7 160.2l-.4-1 9.4-3.6c3.3-1.1 7 .3 8.6 3.4l-.9.5c-1.3-2.7-4.5-3.9-7.3-2.9l-9.4 3.6z" id="XMLID_272_"/>
    <path class="st2" d="M614.1 174h-.7l-1.6-.1.1-1.4 1.6.1c1.8.2 3.5-.4 4.9-1.6 1.4-1.2 2.2-2.8 2.4-4.6.3-3.7-2.4-6.9-6.1-7.2l-4.4-.4.1-1.4 4.4.4c4.5.4 7.8 4.3 7.4 8.8-.2 2.2-1.2 4.1-2.9 5.5-1.5 1.2-3.3 1.9-5.2 1.9z" id="XMLID_271_"/>
    <path class="st2" d="M577.2 173.6c-1.3-.1-2.4-.7-3.3-1.7-.8-1-1.2-2.2-1.1-3.5.1-1.3.7-2.4 1.7-3.3 1-.8 2.2-1.2 3.5-1.1l-.1 1.4c-.9-.1-1.8.2-2.5.8-.7.6-1.1 1.4-1.2 2.3-.1.9.2 1.8.8 2.5.6.7 1.4 1.1 2.3 1.2l-.1 1.4z" id="XMLID_270_"/>
    <path class="st3" d="M627.4 178.1l-1.3-.4c.8-2.5 1.4-5.1 1.9-7.6l1.4.3c-.5 2.5-1.2 5.1-2 7.7z" id="XMLID_269_"/>
    <path class="st3" d="M629 158.9c0-6.4-1.2-10.1-1.2-10.1l1.3-.4c.1.2 1.3 4 1.3 10.5H629z" id="XMLID_268_"/>
  </g>
  <g>
    <path class="st0" d="M401.7 440.8l-1.6-.1-1.7-9.7c-2.2-12.3-1-24.9 3.3-36.2.2-.4.3-.8.5-1.3l29-71.7 1.3.5-29 71.7c-.2.4-.3.8-.5 1.2-4.3 11.1-5.4 23.4-3.3 35.5l2 10.1z"/>
    <path class="st5" d="M468.9 404.8l-7.1 14.5-20.7 14.5-5.7-12.5-12.8-.6 8.8-11.6 10.3-20.2z"/>
    <path class="st2" d="M440.9 434.6l-5.9-12.8-13.4-.7 9.4-12.3 10.5-20.6 28.1 16.4-7.4 15.1-.1.1-21.2 14.8zm-17.4-14.4l12.1.6 5.7 12.2 20.1-14 6.9-14.1-26.4-15.4-10.1 19.8-8.3 10.9z"/>
    <path class="st4" d="M474.8 353.2l-55.6-.2c-11.8-.4-21.1-10-21.1-21.8 0-12 9.8-21.8 21.8-21.8l69.2 1.9-14.3 41.9z"/>
    <path class="st2" d="M475.3 353.9l-56.1-.2c-12.2-.4-21.8-10.3-21.8-22.5 0-12.4 10.1-22.5 22.5-22.5l70.2 1.9-14.8 43.3zm-55.4-43.7c-11.6 0-21.1 9.5-21.1 21.1 0 11.4 9 20.7 20.4 21.1l55.1.2 13.9-40.5-68.3-1.9z"/>
    <path transform="rotate(-83.921 435.3478 312.2016)" class="st2" d="M434.9 291.7h1v41h-1z"/>
    <path class="st4" d="M587.2 362.5c10.3-6.4 22-10.1 34.1-10.4h48.5v-14.2l-.2-.1c-3.3.2-6.8-.3-10-1.8l-3.6-2-9.4-5.1c-43.6-23.2-135-71.3-135.2-71.4-.3-.1-.6-.3-.9-.4-14.5-5.8-31 1.7-36.7 16.3l-50.1 114 46.2 21.5 39.6-95.4 68.1 54.9 9.6-5.9z"/>
    <path class="st2" d="M470.2 409.9l-47.6-21.8L473 273.3c2.9-7.4 8.4-13.2 15.7-16.3 7.1-3.1 14.8-3.2 21.9-.4.3.1.6.3 1 .4.3.1 92.2 48.6 135.3 71.4l13 7.1c3 1.3 6.3 1.9 9.7 1.7h.1l.8.2v15.4h-49.2c-11.8.2-23.4 3.8-33.8 10.3l-10.2 6.4-67.8-54.6-39.3 95zm-45.7-22.8l45.1 20.5 39.4-95 68.5 55.2 9.3-5.8c10.5-6.6 22.5-10.2 34.5-10.5H669v-12.8c-3.4.2-6.8-.5-9.8-1.9l-13-7.1c-43.8-23.2-134.3-70.9-135.2-71.4-.3-.1-.6-.2-.9-.4-6.7-2.7-14.1-2.6-20.8.4-6.9 3-12.2 8.5-15 15.6l-49.8 113.2z"/>
    <path class="st2" d="M459.1 403.5l-.9-.4L504.8 291c1.1-2.6 3.2-4.6 5.8-5.6 3-1.2 6.4-.9 9.1.8l106.7 65.2-.5.9-106.7-65.2c-2.5-1.5-5.5-1.8-8.2-.7-2.3.9-4.2 2.8-5.2 5.1l-46.7 112z"/>
    <path class="st0" d="M579 368.6l-.5-1.5 8.4-5.3c10.6-6.7 22.7-10.3 34.8-10.5h78.7v1.4h-78.7c-11.9.2-23.7 3.8-34.1 10.3l-8.6 5.6z"/>
    <path transform="rotate(-67.448 512.29807 304.541)" class="st2" d="M502.4 303.8h19.8v1.4h-19.8z"/>
    <path class="st5" d="M515.3 314.4l15.2.3 15.6 17.2-1.4 15.2-8.4 3.2-10.6-4.9-20.1.5z"/>
    <path class="st2" d="M536.3 350.9l-10.6-4.9-20.7.5 10-32.6 15.8.4 15.9 17.5-1.4 15.8-9 3.3zm-10.5-6h.1l10.4 4.8 8-3 1.3-14.7-15.3-16.8-14.7-.3-9.4 30.5 19.6-.5z"/>
    <g>
      <path class="st4" d="M508.1 356.2l-16.2-.2 16.6-42.3h11.1z"/>
      <path class="st2" d="M508.6 356.9l-17.7-.2L508 313h12.5l-11.9 43.9zm-15.6-1.6l14.6.2 11.1-41.1H509l-16 40.9z"/>
    </g>
    <g>
      <path transform="rotate(-82.71 511.40717 321.51497)" class="st2" d="M510.9 315.6h1v11.7h-1z"/>
    </g>
    <g>
      <path class="st6" d="M369.4 449.7c.6-3.8 2.1-5.5 4.6-8.1l10.7-3.7c19.7 2.5 44.1-17.9 44.1-17.9l23.3 1.7c3.6-11 14-10.3 14-10.3-4.6 17.5-1.6 28.1-4 37.5v.2c.7 3.4-2 6.6-5.5 6.6l-77.6.4c-3.4 0-10.3-2.9-9.8-6.3.1-.1.1-.1.2-.1z"/>
      <path class="st2" d="M379.1 456.5c-2.7 0-7.3-1.7-9.3-4-.8-.9-1.1-1.9-1-2.8v-.1c.7-4 2.3-5.9 4.8-8.4.1-.1.1-.1.2-.1l10.7-3.7h.2c19.3 2.5 43.5-17.6 43.8-17.8.1-.1.2-.1.4-.1l22.9 1.6c3.8-10.9 14.3-10.2 14.4-10.2.1 0 .3.1.4.2.1.1.1.3.1.4-2.6 10.2-2.8 17.8-2.9 24.6-.1 4.7-.1 8.8-1.1 12.8v.1c.3 1.8-.1 3.6-1.2 5-1.2 1.4-2.9 2.2-4.7 2.2l-77.7.3c.1 0 0 0 0 0zm-9.3-6.7c-.1.7.1 1.4.7 2.1 1.8 2 6.1 3.7 8.6 3.7l77.6-.4c1.5 0 3-.7 3.9-1.9.9-1.2 1.3-2.6 1-4.1v-.2-.2c1-3.9 1-8 1.1-12.7.1-6.7.2-14.3 2.7-24.2-2.2 0-9.9.8-12.9 9.9-.1.2-.3.4-.5.3l-23.1-1.7c-2.1 1.7-25.4 20.3-44.3 17.9l-10.5 3.6c-2.4 2.6-3.7 4.3-4.3 7.9z"/>
      <path class="st0" d="M457.2 428.5c2.8-9 6.7-9.8 7.4-9.9-2.2 11.2 1.6 15.2-2.4 30.3l-10.4.1c0-.1 2.4-10.9 5.4-20.5z"/>
      <path class="st2" d="M451.8 449.4c-.2 0-.3-.1-.4-.2-.1-.1-.1-.3-.1-.4 0-.1 2.4-11 5.4-20.5 2.6-8.4 6.3-10 7.8-10.3.2 0 .3 0 .5.1.1.1.2.3.1.5-1 4.8-.8 8.3-.6 11.9.2 4.8.5 9.8-1.8 18.4-.1.2-.3.4-.5.4l-10.4.1zm5.9-20.7c-2.5 8.1-4.7 17.3-5.2 19.8l9.4-.1c2.1-8.2 1.9-13 1.7-17.7-.2-3.5-.3-6.8.5-11.3-1.7.6-4.4 2.6-6.4 9.3z"/>
      <path class="st7" d="M425.2 434.4h34.5c1.1 0 1.9-.9 1.9-1.9v-.3c0-1.1-.9-1.9-1.9-1.9h-34.5c-1.1 0-1.9.9-1.9 1.9v.3c0 1 .8 1.9 1.9 1.9z"/>
      <g>
        <path class="st0" d="M406.3 427c14.6-8.9 19.4-16 22.6-14.1 5 3 0 7 0 7s-24.4 20.5-44.1 17.9c-.1.1 16-7.4 21.5-10.8z"/>
        <path class="st2" d="M388.2 438.6c-1.2 0-2.4-.1-3.5-.2-.2 0-.4-.2-.4-.4s.1-.4.3-.5c.2-.1 16.1-7.5 21.5-10.8 6.3-3.8 10.7-7.3 14-9.9 4.5-3.5 7-5.5 9.1-4.2 1.5.9 2.3 2 2.4 3.3.2 2.4-2.3 4.4-2.4 4.5-.3.1-22 18.2-41 18.2zm-1.6-1.1c19 1.1 41.7-17.8 41.9-18 0 0 2.2-1.8 2-3.6-.1-.9-.7-1.8-1.9-2.5-1.5-.9-3.8.9-8 4.1-3.3 2.6-7.8 6.1-14.1 9.9-4.4 2.8-15.7 8.1-19.9 10.1z"/>
      </g>
      <g>
        <path class="st0" d="M369.3 448.8c.1-2.6 1.7-6.8 6.9-8 3.5-1.2 5.9 2 6.5 2.7 3.8 4.5 5.2 6.4 11.1 6.3l68.4-1v.1c.8 3.4-1.8 6.7-5.3 6.7l-77.7.4c-7 0-9.8-2.5-9.9-5.6-.1-.5-.1-1.2 0-1.6z"/>
        <path class="st2" d="M379.2 456.5c-8.8 0-10.3-3.8-10.4-6.1v-1.7c.2-3.3 2.2-7.2 7.3-8.5 3.6-1.2 6.1 1.8 6.9 2.7l.6.7c3.4 4.1 4.9 5.7 10.3 5.7l68.7-1 .1.5c.4 1.7 0 3.5-1.1 5-1.2 1.5-2.9 2.3-4.8 2.3l-77.6.4zm-9.4-7.7v1.6c.2 3.3 3.5 5.2 9.4 5.2l77.7-.4c1.6 0 3-.7 4-2 .9-1.1 1.2-2.5.9-3.8l-68 1c-5.9.1-7.5-1.8-11-6l-.6-.7c-.8-.9-2.8-3.4-5.8-2.4-6 1.4-6.6 6.5-6.6 7.5z"/>
      </g>
      <g>
        <path class="st0" d="M393.2 432.9l9.2 3.3"/>
        <path class="st2" d="M402.4 437.2c-.1 0-.2 0-.3-.1l-9.2-3.3c-.5-.2-.8-.8-.6-1.3.2-.5.8-.8 1.3-.6l9.2 3.3c.5.2.8.8.6 1.3-.2.5-.6.7-1 .7z"/>
      </g>
      <g>
        <path class="st0" d="M401.1 428.8l9.8 3.9"/>
        <path class="st2" d="M410.9 433.7c-.1 0-.2 0-.4-.1l-9.8-4c-.5-.2-.8-.8-.6-1.3.2-.5.8-.8 1.3-.6l9.8 4c.5.2.8.8.6 1.3-.1.5-.5.7-.9.7z"/>
      </g>
      <g>
        <path class="st0" d="M408.5 423.8l10.4 4.6"/>
        <path class="st2" d="M418.9 429.4c-.1 0-.3 0-.4-.1l-10.4-4.6c-.5-.2-.7-.8-.5-1.3.2-.5.8-.7 1.3-.5l10.4 4.6c.5.2.7.8.5 1.3-.2.3-.5.6-.9.6z"/>
      </g>
      <g>
        <path class="st0" d="M416.8 418.3l10.2 5"/>
        <path class="st2" d="M427 424.3c-.1 0-.3 0-.4-.1l-10.2-5c-.5-.2-.7-.8-.5-1.3.2-.5.8-.7 1.3-.5l10.2 5c.5.2.7.8.5 1.3-.2.4-.5.6-.9.6z"/>
      </g>
      <g>
        <path class="st7" d="M415.4 441.5h41.8c1.1 0 1.9-.9 1.9-1.9v-.3c0-1.1-.9-1.9-1.9-1.9h-41.8c-1.1 0-1.9.9-1.9 1.9v.3c0 1.1.8 1.9 1.9 1.9z"/>
      </g>
    </g>
    <g>
      <path class="st6" d="M577.8 402.7c-3.8 0-5.8-1.1-8.8-3.2l-5.4-9.9c-.8-19.9-25.1-40.5-25.1-40.5l-2.2-23.2c-11.5-1.7-12.5-12.1-12.5-12.1 18 1.6 28-3.1 37.7-2.4.1 0 .1-.1.2-.1 3.2-1.2 6.8.9 7.4 4.3l13.3 76.4c.6 3.3-1.2 10.7-4.5 10.7h-.1z"/>
      <path class="st2" d="M577.7 403.2c-4.1 0-6.1-1.2-9.1-3.3-.1 0-.1-.1-.2-.2l-5.4-9.9c0-.1-.1-.1-.1-.2-.8-19.4-24.6-40-24.9-40.2-.1-.1-.2-.2-.2-.3l-2.2-22.8c-11.4-2-12.5-12.4-12.5-12.5 0-.1 0-.3.1-.4.1-.1.3-.2.4-.1 10.5.9 18.1-.3 24.8-1.3 4.7-.7 8.7-1.4 12.8-1.1 1.7-.7 3.6-.5 5.1.4 1.6.9 2.7 2.5 3 4.3l13.3 76.4c.5 2.7-.5 7.6-2.4 9.9-.8.9-1.7 1.4-2.6 1.4.3-.1.2-.1.1-.1.1 0 .1 0 0 0zm.1-1v.5-.5c.7 0 1.4-.4 2-1.1 1.7-2.1 2.6-6.7 2.2-9.1l-13.3-76.4c-.3-1.5-1.2-2.8-2.5-3.6-1.3-.7-2.8-.9-4.2-.3l-.2.1h-.2c-4-.3-8 .3-12.7 1.1-6.6 1-14.1 2.2-24.4 1.4.4 2.2 2.4 9.6 11.9 11.1.2 0 .4.2.4.4l2.2 23c2.1 1.8 24.2 21.6 25.1 40.6l5.3 9.7c2.9 2.1 4.7 3.1 8.4 3.1z"/>
      <path class="st0" d="M542.3 319.7c-9.3-1.3-10.8-5-11-5.6 11.5.3 14.7-4.1 30.2-2.7l1.8 10.2s-11.1-.6-21-1.9z"/>
      <path class="st2" d="M563.3 322.1c-.1 0-11.3-.6-21.1-1.9-8.7-1.2-10.9-4.6-11.4-6-.1-.2 0-.3.1-.5s.2-.2.4-.2c4.9.1 8.3-.6 11.8-1.4 4.7-1 9.6-2.1 18.4-1.3.2 0 .4.2.4.4l1.8 10.2c0 .1 0 .3-.1.4 0 .2-.2.3-.3.3zm-31.2-7.6c.9 1.4 3.4 3.7 10.3 4.6 8.5 1.1 17.9 1.7 20.4 1.9l-1.6-9.2c-8.5-.7-13.2.3-17.7 1.3-3.6.8-6.8 1.5-11.4 1.4z"/>
      <path class="st7" d="M553.4 350.2l-5.8-34c-.2-1-1.2-1.7-2.2-1.6h-.3c-1 .2-1.7 1.2-1.6 2.2l5.8 34c.2 1 1.2 1.7 2.2 1.6h.3c1.1-.2 1.8-1.2 1.6-2.2z"/>
      <g>
        <path class="st0" d="M549.3 370.1c-11.3-12.9-19-16.5-17.7-20 2.1-5.4 6.9-1.1 6.9-1.1s24.3 20.6 25.1 40.5c0 .1-10.1-14.6-14.3-19.4z"/>
        <path class="st2" d="M563.6 390.1c-.2 0-.3-.1-.4-.2-.1-.1-10.1-14.6-14.2-19.4-4.8-5.5-9-9.4-12.1-12.2-4.2-3.9-6.6-6-5.7-8.3.6-1.7 1.6-2.6 2.9-2.9 2.3-.6 4.7 1.5 4.8 1.6.2.2 24.4 21 25.2 40.9 0 .2-.1.4-.3.5-.1-.1-.2 0-.2 0zm-13.9-20.3c3.4 3.9 10.6 14.1 13.3 18-2.1-18.9-24.5-38.2-24.8-38.4 0 0-2.1-1.8-3.9-1.4-.9.2-1.6 1-2.2 2.3-.7 1.7 1.5 3.6 5.4 7.2 3.1 2.9 7.3 6.7 12.2 12.3z"/>
      </g>
      <g>
        <path class="st0" d="M576.9 402.9c-2.6.3-7-.6-9.1-5.5-1.8-3.3 1-6.1 1.6-6.9 3.8-4.5 5.5-6.2 4.4-12l-12.4-67.2h.1c3.2-1.4 6.9.7 7.5 4.1l13.4 76.5c1.2 6.9-.9 10-3.9 10.7-.5.2-1.2.3-1.6.3z"/>
        <path class="st2" d="M575.9 403.5c-3.1 0-6.7-1.5-8.5-5.9-1.8-3.3.7-6.3 1.6-7.2l.6-.7c3.4-4 4.8-5.7 3.9-11.1L560.9 311l.5-.2c1.6-.7 3.5-.6 5.1.2 1.7.9 2.8 2.5 3.1 4.3l13.4 76.5c1.5 8.7-2.1 10.8-4.3 11.3-.6.1-1.2.2-1.6.3-.5.1-.8.1-1.2.1zM562 311.6l12.3 66.8c1.1 5.8-.5 7.7-4.1 11.9l-.6.7c-.8.9-2.9 3.4-1.4 6.2 2.4 5.7 7.6 5.4 8.6 5.3.4 0 1-.2 1.6-.3 3.3-.7 4.5-4.3 3.5-10.1l-13.4-76.5c-.3-1.5-1.2-2.8-2.6-3.6-1.2-.7-2.6-.8-3.9-.4z"/>
      </g>
      <g>
        <path class="st0" d="M557.3 382l1.7-9.6"/>
        <path class="st2" d="M557.3 383h-.2c-.5-.1-.9-.6-.8-1.2l1.7-9.6c.1-.5.6-.9 1.2-.8.5.1.9.6.8 1.2l-1.7 9.6c-.1.5-.6.8-1 .8z"/>
      </g>
      <g>
        <path class="st0" d="M551.9 374.9l2.2-10.3"/>
        <path class="st2" d="M551.9 375.9h-.2c-.5-.1-.9-.7-.8-1.2l2.3-10.4c.1-.5.6-.9 1.2-.8.5.1.9.7.8 1.2l-2.3 10.4c-.1.5-.6.8-1 .8z"/>
      </g>
      <g>
        <path class="st0" d="M545.7 368.4l2.8-11"/>
        <path class="st2" d="M545.7 369.4h-.2c-.5-.1-.9-.7-.7-1.2l2.8-11c.1-.5.7-.9 1.2-.7.5.1.9.7.7 1.2l-2.8 11c-.1.4-.5.7-1 .7z"/>
      </g>
      <g>
        <path class="st0" d="M539 361.1l3.1-10.8"/>
        <path class="st2" d="M539 362.1h-.3c-.5-.2-.8-.7-.7-1.2l3.2-10.9c.2-.5.7-.8 1.2-.7.5.2.8.7.7 1.2l-3.2 10.9c-.1.5-.5.7-.9.7z"/>
      </g>
      <g>
        <path class="st7" d="M562.1 358.7l-7-41.3c-.2-1-1.2-1.7-2.2-1.6h-.3c-1 .2-1.7 1.2-1.6 2.2l7 41.3c.2 1 1.2 1.7 2.2 1.6h.3c1-.2 1.7-1.2 1.6-2.2z"/>
      </g>
    </g>
  </g>
  <g>
    <path class="st0" d="M640.6 252.5v32.8"/>
    <path class="st2" d="M639.9 252.5h1.4v35.7h-1.4z"/>
  </g>
  <g id="XMLID_252_">
    <path class="st4" d="M667.3 148.7c-.7 0-1.3-.4-1.5-1l-1.5-3.5c-.1-.2-.3-.4-.5-.4l-3.7-.7c-.6-.1-1.1-.6-1.3-1.2s0-1.3.5-1.7l2.8-2.5c.2-.1.2-.4.2-.6l-.5-3.7c-.1-.6.2-1.3.7-1.6.5-.4 1.2-.4 1.8-.1l3.3 1.9c.2.1.4.1.6 0l3.4-1.6c.6-.3 1.3-.2 1.8.2s.7 1 .6 1.7l-.5-.1.5.1-.8 3.7c0 .2 0 .4.2.6l2.6 2.7c.4.5.6 1.1.4 1.7-.2.6-.8 1-1.4 1.1l-3.8.4c-.2 0-.4.2-.5.4l-1.8 3.3c-.4.6-.9.9-1.6.9zm-3.8-16.2c-.1 0-.3 0-.4.1-.2.1-.3.4-.3.7l.5 3.7c.1.5-.1 1.1-.5 1.5L660 141c-.2.2-.3.4-.2.7s.3.4.5.5l3.7.7c.5.1 1 .5 1.2 1l1.5 3.5c.1.2.3.4.6.4s.5-.1.6-.4l1.8-3.3c.3-.5.8-.8 1.3-.9l3.8-.4c.3 0 .5-.2.6-.4s0-.5-.1-.7l-2.6-2.7c-.4-.4-.5-1-.4-1.5l.8-3.7c.1-.3 0-.5-.2-.7-.2-.2-.5-.2-.7-.1l-3.4 1.6c-.5.2-1.1.2-1.6-.1l-3.3-1.9c-.2-.1-.3-.1-.4-.1z"/>
  </g>
  <g id="XMLID_6_">
    <path class="st4" d="M242.3 397.7c-.7 0-1.3-.4-1.5-1l-1.5-3.5c-.1-.2-.3-.4-.5-.4l-3.7-.7c-.6-.1-1.1-.6-1.3-1.2s0-1.3.5-1.7l2.8-2.5c.2-.1.2-.4.2-.6l-.5-3.7c-.1-.6.2-1.3.7-1.6.5-.4 1.2-.4 1.8-.1l3.3 1.9c.2.1.4.1.6 0l3.4-1.6c.6-.3 1.3-.2 1.8.2s.7 1 .6 1.7l-.5-.1.5.1-.8 3.7c0 .2 0 .4.2.6l2.6 2.7c.4.5.6 1.1.4 1.7-.2.6-.8 1-1.4 1.1l-3.8.4c-.2 0-.4.2-.5.4l-1.8 3.3c-.4.6-.9.9-1.6.9zm-3.8-16.2c-.1 0-.3 0-.4.1-.2.1-.3.4-.3.7l.5 3.7c.1.5-.1 1.1-.5 1.5L235 390c-.2.2-.3.4-.2.7s.3.4.5.5l3.7.7c.5.1 1 .5 1.2 1l1.5 3.5c.1.2.3.4.6.4s.5-.1.6-.4l1.8-3.3c.3-.5.8-.8 1.3-.9l3.8-.4c.3 0 .5-.2.6-.4s0-.5-.1-.7l-2.6-2.7c-.4-.4-.5-1-.4-1.5l.8-3.7c.1-.3 0-.5-.2-.7-.2-.2-.5-.2-.7-.1l-3.4 1.6c-.5.2-1.1.2-1.6-.1l-3.3-1.9c-.2-.1-.3-.1-.4-.1z"/>
  </g>
  <g id="XMLID_237_">
    <path class="st4" d="M403.2 113.1l-29.4-57.5 50-25.5 29.4 57.5-50 25.5zm-28-57l28.5 55.7 48.2-24.6-28.5-55.7-48.2 24.6z" id="XMLID_249_"/>
    <path class="st4" d="M413.7 113.1l-2.4-4.7.9-.4 2 3.8 48.2-24.6-28.5-55.7-7.9 4-.4-.9 8.8-4.5 29.3 57.5z"/>
    <path transform="rotate(-27.064 417.97071 89.66416)" class="st4" d="M400.2 89.2h35.5v1h-35.5z" id="XMLID_248_"/>
    <path transform="rotate(-26.76 418.96565 82.70558)" class="st4" d="M397 82.2h43.8v1H397z" id="XMLID_244_"/>
    <path transform="rotate(-26.76 416.1713 77.5524)" class="st4" d="M394.2 77.1H438v1h-43.8z" id="XMLID_243_"/>
    <path transform="rotate(-26.76 413.3768 72.39986)" class="st4" d="M391.4 71.9h43.8v1h-43.8z" id="XMLID_242_"/>
    <path transform="rotate(-26.76 410.58236 67.2471)" class="st4" d="M388.6 66.8h43.8v1h-43.8z" id="XMLID_241_"/>
    <path transform="rotate(-26.81 407.96846 61.98073)" class="st4" d="M385.8 61.5h44.3v1h-44.3z" id="XMLID_240_"/>
    <path transform="rotate(-26.81 405.17416 56.82825)" class="st4" d="M383 56.4h44.3v1H383z" id="XMLID_239_"/>
    <path transform="rotate(-26.81 402.37996 51.67534)" class="st4" d="M380.2 51.2h44.3v1h-44.3z" id="XMLID_238_"/>
  </g>
  <g>
    <path class="st4" d="M588 55.4l-43.3-17.7L588 20l43.3 17.7L588 55.4zm-40.7-17.7L588 54.3l40.6-16.6L588 21.1l-40.7 16.6z"/>
    <path class="st4" d="M588 70.2c-6.4 0-12.9-1.5-17.4-4.5l-.2-.2c-2.3-1.8-3.6-3.9-3.6-6.2v-13h1v13c0 2 1.2 3.9 3.4 5.5l.2.1c8.6 5.6 24.7 5.6 33.3-.1l.1-.1c2.2-1.6 3.4-3.5 3.4-5.5v-13h1v13c0 2.3-1.2 4.4-3.6 6.2l-.2.2c-4.5 3.1-11 4.6-17.4 4.6z" id="XMLID_4_"/>
    <path class="st4" d="M588 40.3c-1.5 0-2.7-1.2-2.7-2.7s1.2-2.7 2.7-2.7c1.5 0 2.7 1.2 2.7 2.7s-1.3 2.7-2.7 2.7zm0-4.3c-.9 0-1.7.8-1.7 1.7 0 .9.8 1.7 1.7 1.7.9 0 1.7-.8 1.7-1.7 0-1-.8-1.7-1.7-1.7z"/>
    <path class="st4" d="M618.5 72.3h-1V43l-27.4-4.8.1-1 28.3 4.9z"/>
    <path class="st4" d="M611 70.6l-.7-.7 7.7-7.7 7.5 7.6-.7.7-6.8-6.9z"/>
  </g>
  <g id="XMLID_2_">
    <path class="st4" d="M466.8 161.6c-.7 0-1.3-.4-1.5-1l-1.5-3.5c-.1-.2-.3-.4-.5-.4l-3.7-.7c-.6-.1-1.1-.6-1.3-1.2s0-1.3.5-1.7l2.8-2.5c.2-.2.2-.4.2-.6l-.5-3.7c-.1-.6.2-1.3.7-1.6.5-.4 1.2-.4 1.8-.1l3.3 1.9c.2.1.4.1.6 0l3.4-1.6c.6-.3 1.3-.2 1.8.2s.7 1 .6 1.7l-.8 3.7c0 .2 0 .4.2.6l2.6 2.7c.4.5.6 1.1.4 1.7-.2.6-.8 1-1.4 1.1l-3.8.4c-.2 0-.4.2-.5.4l-1.8 3.3c-.4.5-1 .9-1.6.9zm-3.9-16.2c-.1 0-.3 0-.4.1-.2.1-.3.4-.3.7l.5 3.7c.1.5-.1 1.1-.5 1.5l-2.8 2.5c-.2.2-.3.4-.2.7.1.3.3.4.5.5l3.7.7c.5.1 1 .5 1.2 1l1.5 3.5c.1.2.3.4.6.4s.5-.1.6-.4l1.8-3.3c.3-.5.8-.8 1.3-.9l3.8-.4c.3 0 .5-.2.6-.4.1-.2 0-.5-.1-.7l-2.6-2.7c-.4-.4-.5-1-.4-1.5l.8-3.7c.1-.3 0-.5-.2-.7-.2-.2-.5-.2-.7-.1l-3.4 1.6c-.5.2-1.1.2-1.6-.1l-3.3-1.9c-.1-.1-.3-.1-.4-.1z"/>
  </g>
  <g id="XMLID_312_">
    <path class="st5" d="M119.2 379.7l-11.5 18.5 15.1 14.9 9.7-19.8-2-13.6z"/>
    <path class="st2" d="M123 413.9l-15.9-15.6 11.8-19.1h12l2.1 14.2-10 20.5zm-14.7-15.7l14.4 14.1 9.3-19.1-1.9-13h-10.6l-11.2 18z"/>
    <path class="st5" d="M141.4 411.9l9.5 16.1 19-5.3-12.9-24.5-10.4 3.7z"/>
    <path class="st2" d="M150.6 428.5l-9.8-16.6 5.5-10.5 10.9-3.8 13.4 25.4-20 5.5zm-8.7-16.6l9.2 15.5 18.1-5-12.4-23.5-9.7 3.4-5.2 9.6z"/>
    <path class="st0" d="M149.9 346.2H77.3L40.4 232H5.9l26.8 119.1c.1 2.6 2.2 4.7 4.8 4.7h112.4c2.7 0 4.8-2.2 4.8-4.8.1-2.7-2.1-4.8-4.8-4.8zM39.3 233.5l36.3 112.7h-38c-1.6 0-3.1.8-4 2.1L7.8 233.5h31.5zm110.6 120.9H37.6c-1.9 0-3.4-1.5-3.4-3.4s1.5-3.4 3.4-3.4H150c1.9 0 3.4 1.5 3.4 3.4-.1 1.8-1.6 3.4-3.5 3.4z"/>
    <path class="st3" d="M63.1 302l-3.6 21c-2.1 12.5 7.5 23.9 20.2 23.9h70.2l26.5-44.9H63.1z"/>
    <path class="st2" d="M149.9 347.6H79.7c-6.3 0-12.2-2.7-16.2-7.5s-5.8-11.1-4.7-17.2l3.6-21c.1-.4.4-.6.7-.6h113.3c.3 0 .5.1.6.4.1.2.1.5 0 .7l-26.5 44.9c-.1.2-.4.3-.6.3zm-86.2-44.9l-3.5 20.4c-1 5.7.6 11.6 4.4 16 3.8 4.5 9.3 7 15.1 7h69.7l25.6-43.4H63.7z"/>
    <g id="XMLID_352_">
      <path class="st3" d="M144.1 334.6l-31.3 48.8 32.3 20.4 36.1-75.8c3.5-10.8-4.5-21.8-15.8-21.8h-10.6"/>
      <path class="st2" d="M145.1 404.5c-.2 0-.3-.1-.5-.2l-32.3-20.4c-.2-.2-.3-.5-.2-.8l31.3-48.8c.2-.4.6-.6 1-.4.4.2.6.6.4 1l-31.1 48.3 31.1 19.4 35.8-74.9c1.6-4.9.8-10.1-2.2-14.3-3-4.2-7.7-6.6-12.9-6.6h-10.6c-.4 0-.7-.3-.7-.7 0-.4.3-.7.7-.7h10.6c5.6 0 10.8 2.6 14.1 7.2 3.3 4.6 4.2 10.3 2.4 15.6L145.8 404c-.1.2-.3.4-.5.5h-.2z"/>
    </g>
    <path class="st2" d="M131.3 398.2h-.2c-.4-.1-.6-.6-.5-.9l23.7-68c.6-1.9.3-3.9-.8-5.5-1.2-1.6-3-2.5-4.9-2.5l-18.9-.2c-.4 0-.7-.3-.7-.7 0-.4.3-.7.7-.7l18.9.2c2.5 0 4.7 1.1 6.1 3.2 1.4 2 1.8 4.5 1 6.8l-23.7 68c-.1.2-.4.3-.7.3z"/>
    <path class="st1" d="M149.5 267.5L136.7 231l-.3-.7c-2.5-6.5-8.8-11.1-16.1-11.1h-3.7l-17.3-.3H81.2c-1.3 0-2.6.2-3.9.5-.3.1-.7.2-1 .2-.1 0-.2.1-.3.1l-.9.3c-.1 0-.3.1-.4.1l-.9.3c-.1 0-.2.1-.3.1-.9.4-1.9.8-2.7 1.4-.1.1-.3.2-.4.2-.2.1-.4.3-.7.4-.2.1-.3.2-.5.3-.2.1-.4.3-.6.4-.2.1-.4.3-.5.4-.2.1-.4.3-.5.4l-.6.6c-.1.1-.3.2-.4.4-.3.3-.6.6-.9 1-.1.1-.2.3-.3.4-.2.2-.4.5-.6.7-.1.1-.2.3-.3.4-.2.2-.3.5-.5.7-.1.2-.2.3-.3.5-.2.3-.3.5-.5.8-.1.1-.2.3-.2.4-.2.4-.4.8-.6 1.3l-8.7 24.2 10 3.2 13.1 4.3-15.9 35 75.6-.3-.4-25.7 13.4-4.4z"/>
    <path class="st2" d="M154.9 285.1l-19.2-54.6c-2.4-6.3-8.6-10.6-15.4-10.6h-3.7v-1.5h3.7c7.4 0 14.1 4.6 16.8 11.5l19.2 54.6-1.4.6z"/>
    <g id="XMLID_319_">
      <g id="XMLID_320_">
        <g id="XMLID_351_">
          <path class="st2" d="M87.3 303.4v1.5l49.8-1.3-.7-48h-1.5l.7 46.6zM87.3 218.2h12v1.5h-12z"/>
        </g>
        <g id="XMLID_350_">
          <path class="st0" d="M107.4 234c-5.5 0-10-4.5-10-10v-.2l.3-2.3c.3-2 2-3.5 4-3.5h.2l14.7.6.7 5.4c.1 5.5-4.4 10-9.9 10zm-6.9-9.8c.1 3.7 3.2 6.8 6.9 6.8 3.8 0 6.9-3.1 6.9-6.8l-.4-3.5L101 222l-.5 2.2z"/>
          <path class="st2" d="M101.8 218.7h.1l14.1.5.6 4.8c0 5.1-4.1 9.2-9.2 9.2s-9.2-4.1-9.2-9.2v-.2l.3-2.3c.3-1.6 1.7-2.8 3.3-2.8m5.6 13c4.2 0 7.6-3.4 7.7-7.6l-.5-4.3-14.1 1.4-.7 3c0 4.1 3.4 7.5 7.6 7.5m-5.6-14.5c-2.4 0-4.4 1.8-4.8 4.1l-.3 2.3v.4c0 5.9 4.8 10.7 10.7 10.7 5.9 0 10.7-4.8 10.7-10.7v-.2l-.6-4.8-.2-1.2h-1.2l-14.1-.5c-.1-.1-.1-.1-.2-.1zm-.2 5.3l11.6-1.1.3 2.8c-.1 3.3-2.8 6.1-6.2 6.1-3.3 0-6.1-2.7-6.2-6l.5-1.8z"/>
        </g>
        <path class="st4" d="M153.4 187.7c-.2-.9-.4-1.7-.7-2.3 0 .3 0 .6-.1.8-1.7 15.4-10.7 25.2-22.7 29.3l.2-2.1-23.2-2.5 18.9-21.4 9.3-22 4-15.7.1.1c.2.2.5.4.7.7l.7.7c.2.2.4.5.7.7.2.3.4.5.7.8.2.2.4.5.6.7.2.3.4.5.6.8.2.3.4.5.6.8.2.3.4.6.6.8.2.3.4.5.5.8l.6.9c.2.3.3.5.5.8 0 0 0 .1.1.1l7 .8c-2.5-13-11.3-23-22.8-24.3-1.8-.2-3.6-.2-5.3.1-4.6-2.5-9.6-4.1-15.1-4.7-19.2-2.1-36.8 9.4-43.2 26.8-1.4 3.8-3.1 7.5-5.1 11-2.1 3.6-3.4 7.7-3.9 12.1-1.9 17.3 10.6 32.8 27.8 34.7h.1l42.6 4.7c.2 0 .3 0 .5.1h.4c.4 0 .7.1 1.1.1 11 .7 28.6-10.5 23.2-34.2zm-70.1 4l-1.9-.2c-2.7-.3-4.6-2.7-4.3-5.3.3-2.7 2.7-4.6 5.3-4.3l3.1.3-2.2 9.5z"/>
        <g id="XMLID_349_">
          <path class="st0" d="M114.3 214.6c-3.8 0-9.4-.9-12.9-1.8l-1.3 8.8c-1.2 4 1 8.2 4.9 9.4 4 1.2 8.2-1 9.4-4.9l2-12c-1.4.1-.6.5-2.1.5z"/>
          <path class="st2" d="M107.3 232.1c-.8 0-1.7-.1-2.5-.4-2.1-.7-3.8-2.1-4.8-4s-1.2-4.1-.6-6.2l1.4-9.5.8.2c3.5.8 8.9 1.7 12.7 1.7.6 0 .7 0 .8-.1.3-.2.6-.3 1.4-.4l1-.1-2.2 13c-.7 2.1-2.1 3.8-4 4.8-1.4.7-2.7 1-4 1zm-5.3-18.4l-1.2 8.1c-.5 1.7-.4 3.6.5 5.2.8 1.6 2.3 2.8 4 3.3 1.7.5 3.6.4 5.2-.5 1.6-.8 2.8-2.2 3.3-3.9l1.8-10.8c-.3.1-.6.2-1.3.2-3.7 0-8.7-.8-12.3-1.6z"/>
        </g>
        <g id="XMLID_348_">
          <path class="st0" d="M152.6 186.1c-2.5 22.6-20.7 33.4-41.5 31.1-20.8-2.3-36.2-16.7-33.7-39.3 2.5-22.6 21.3-39.1 42.1-36.8s35.6 22.4 33.1 45z"/>
          <path class="st2" d="M116.5 218.2c-1.8 0-3.6-.1-5.4-.3-10.6-1.2-19.9-5.5-26-12.3-6.7-7.3-9.5-16.9-8.3-27.9 1.2-11.1 6.3-21.1 14.4-28.2 8.1-7.1 18.2-10.4 28.5-9.2 21.1 2.3 36.3 22.9 33.7 45.9-1.2 10.9-6.1 19.7-14.2 25.4-6.2 4.4-14.1 6.6-22.7 6.6zm-.8-76.6c-8.5 0-16.8 3.2-23.5 9.1-7.8 6.8-12.8 16.5-13.9 27.3-1.2 10.5 1.6 19.8 8 26.7 5.9 6.5 14.8 10.7 25.1 11.8 10.3 1.1 19.9-1 27.1-6.1 7.7-5.4 12.4-13.8 13.6-24.3l.7.1-.7-.1c2.4-22.2-12.1-42-32.4-44.2-1.5-.2-2.8-.3-4-.3z"/>
        </g>
        <path class="st0" d="M83.2 181.9l-3.1-.3c-2.7-.3-5 1.6-5.3 4.3-.3 2.7 1.6 5 4.3 5.3l.8.1 3.3-9.4z" id="XMLID_347_"/>
        <path class="st4" d="M122.1 138.2c-.5 23 14 43.4 35.1 50.9.2-1.2.4-2.3.5-3.5 2.5-22.9-13.2-43.6-35.6-47.4z" id="XMLID_346_"/>
        <path class="st4" d="M138.5 144.6c-5.3-3.3-11.8-6-18.5-6.7-23.8-2.6-45.1 14.8-47.8 38.6-.1 1.1-.7 5.7-.8 6.8 4.2-1.1 7-1.9 10.3-1.6 25.8 3 49.6-13.1 56.8-37.1z" id="XMLID_345_"/>
        <path class="st2" d="M121.2 206.3h-.7c-2.1-.2-4-1.5-4.9-3.3l1.3-.7c.8 1.4 2.2 2.3 3.8 2.5 1.6.2 3.2-.4 4.3-1.6l1.1 1c-1.3 1.3-3 2.1-4.9 2.1z" id="XMLID_344_"/>
        <g id="XMLID_341_">
          <path class="st2" d="M102.3 180.8l11.7-.1c.4 0 .7.3.7.6v.5c0 .4-.3.7-.6.7l-13 .1v-.5c-.1-.7.5-1.3 1.2-1.3z" id="XMLID_343_"/>
          <path class="st2" d="M145.6 185l-11.6-1.5c-.4 0-.7.2-.7.6l-.1.5c0 .4.2.7.6.7l12.9 1.7.1-.5c.1-.7-.5-1.4-1.2-1.5z" id="XMLID_342_"/>
        </g>
        <path class="st2" d="M122.5 199.3h-.4l.2-1.5c.5.1 1-.1 1.4-.4.4-.3.6-.8.7-1.3.1-.5-.1-1-.4-1.4-.3-.4-.8-.6-1.3-.7l.2-1.5c.9.1 1.7.5 2.2 1.2.6.7.8 1.6.7 2.5-.1.9-.5 1.7-1.2 2.2-.6.7-1.3.9-2.1.9z" id="XMLID_340_"/>
        <g id="XMLID_332_">
          <ellipse transform="rotate(-83.73 138.4517 194.29212)" class="st2" cx="138.5" cy="194.3" rx="2.8" ry="2.5" id="XMLID_339_"/>
          <ellipse transform="rotate(-83.73 107.3695 190.8753)" class="st2" cx="107.4" cy="190.9" rx="2.8" ry="2.5" id="XMLID_338_"/>
          <g id="XMLID_333_">
            <g id="XMLID_335_">
              <path class="st3" d="M141.7 207.3c-.5 0-1 0-1.5-.1-3.6-.4-6.9-2.2-9.2-5-2.3-2.8-3.3-6.4-2.9-10 .4-3.6 2.2-6.9 5-9.2 2.8-2.3 6.4-3.3 10-2.9 3.6.4 6.9 2.2 9.2 5 2.3 2.8 3.3 6.4 2.9 10-.4 3.6-2.2 6.9-5 9.2-2.4 1.9-5.4 3-8.5 3zm0-25.8c-6.1 0-11.3 4.6-12 10.8-.7 6.6 4.1 12.6 10.7 13.3 3.2.4 6.4-.6 8.9-2.6s4.1-4.9 4.5-8.1c.4-3.2-.6-6.4-2.6-8.9s-4.9-4.1-8.1-4.5c-.5.1-1 0-1.4 0z" id="XMLID_337_"/>
              <path class="st3" d="M105.9 203.3c-.5 0-1 0-1.5-.1-3.6-.4-6.9-2.2-9.2-5-2.3-2.8-3.3-6.4-2.9-10 .4-3.6 2.2-6.9 5-9.2 2.8-2.3 6.4-3.3 10-2.9 3.6.4 6.9 2.2 9.2 5 2.3 2.8 3.3 6.4 2.9 10-.4 3.6-2.2 6.9-5 9.2-2.5 2-5.4 3-8.5 3zm-.1-25.7c-2.7 0-5.4.9-7.5 2.7-2.5 2-4.1 4.9-4.5 8.1-.4 3.2.6 6.4 2.6 8.9s4.9 4.1 8.1 4.5c6.6.7 12.6-4.1 13.3-10.7.7-6.6-4.1-12.6-10.7-13.3-.4-.2-.8-.2-1.3-.2z" id="XMLID_336_"/>
            </g>
            <path transform="rotate(-83.725 123.89362 191.6758)" class="st3" d="M123.1 186.6h1.6v10.1h-1.6z" id="XMLID_334_"/>
          </g>
        </g>
        <path class="st2" d="M79.6 187.8h-1.2c-.4 0-.7-.3-.7-.7 0-.4.3-.7.6-.7l-.7-1.2c-.2-.3-.1-.8.2-1 .3-.2.8-.1 1 .2l1.4 2.3c.1.2.2.5 0 .7-.1.2-.3.4-.6.4z" id="XMLID_331_"/>
        <path class="st2" d="M79.8 192l-.9-.1c-1.5-.2-2.8-.9-3.7-2.1-.9-1.2-1.4-2.6-1.2-4.1.2-1.5.9-2.8 2.1-3.7 1.2-.9 2.6-1.4 4.1-1.2l3.1.3c.4 0 .7.4.7.8s-.4.7-.8.7l-3.1-.3c-1.1-.1-2.2.2-3 .9-.9.7-1.4 1.7-1.5 2.7-.1 1.1.2 2.2.9 3s1.7 1.4 2.7 1.5l.8.1c.4 0 .7.4.7.8-.2.4-.5.7-.9.7z" id="XMLID_330_"/>
        <path class="st2" d="M155.6 185.4c-17.9-6.5-30.3-22.8-31.7-41.5l1.5-.1c1.3 18.2 13.4 33.9 30.7 40.2l-.5 1.4z" id="XMLID_328_"/>
        <path class="st2" d="M155.8 181.4c-15.4-6.2-26.2-20.7-27.4-37.1l1.5-.1c1.2 15.8 11.6 29.9 26.5 35.8l-.6 1.4z" id="XMLID_327_"/>
        <path class="st4" d="M59.6 207.8c-6.1-7.3-8.9-16.5-7.9-26l1.5.2c-1 9.1 1.7 17.9 7.5 24.9l-1.1.9z" id="XMLID_326_"/>
        <path class="st2" d="M90 180.8h-1v-1.5c15.4.3 30-7.3 39.2-20.3l1.2.8c-9.2 13.3-23.9 21-39.4 21z" id="XMLID_325_"/>
        <path class="st2" d="M71 188.5c-2-8.1 5.4-10.4 5.5-10.4l.4 1.4c-.3.1-6.2 1.9-4.5 8.7l-1.4.3z" id="XMLID_321_"/>
      </g>
    </g>
    <path class="st0" d="M149.9 284.5l63 1.3-3 12.4-73.6-.3-.3-25.7 13.5-4.7 6.1 17.1z"/>
    <path class="st2" d="M210.5 299h-.6l-74.4-.3-.3-27 14.7-5.1 6.2 17.3 57.7 1.2-3.3 13.9zm-73.5-1.8l72.3.3 2.6-11-62.1-1.3v-1.5l4.7.1-5.5-15.3-12.3 4.2.3 24.5z"/>
    <path class="st0" d="M153.1 297.7l16.8-45 16.1-13.4h42.7l-22.8 58.9zM117 282.6s7.3-1.3 9.9-2.4c2.7-1.1 1.3 4.8-2 4.2"/>
    <path class="st2" d="M125.5 285.2c-.2 0-.4 0-.6-.1l.3-1.4c1.2.2 1.9-.8 2.1-1.2.4-.8.4-1.5.3-1.7 0 0-.1 0-.3.1-2.7 1.1-9.8 2.4-10.1 2.4l-.3-1.4c.1 0 7.2-1.3 9.8-2.4 1.1-.5 1.8.1 2 .3.7.9.4 2.4-.1 3.4-.8 1.3-1.9 2-3.1 2z"/>
    <path class="st3" d="M116.1 273.8l12.3 21.7 2.9 1.4-.2-2.9-12.8-21.6z"/>
    <path class="st2" d="M132.1 298.2l-4.2-2.1-12.8-22.5 3.4-2.2 13.4 22.4.2 4.4zm-3.2-3.2l1.5.8-.1-1.5-12.3-20.8-1 .6 11.9 20.9z"/>
    <path class="st0" d="M53.5 255.6l-10.2 29.6c-2.2 6.2 2.4 12.7 9 12.7h52.3l13.5-.6c4.7.3 10.1-2.9 8.7-9.6 0 0 1.5.3 2.5 1.7 1.2 1.7 1.9 4.5 1.9 4.5-.9-2.1.7-2.8-.2-6.1-.5-1.9-3.3-3.8-5.5-5.1-1.7-1-3.6-1.6-5.5-1.8l-14.6 4.6-35.4-7.1 7.2-14.6"/>
    <path class="st2" d="M52.3 298.6c-3.4 0-6.4-1.6-8.4-4.3-1.9-2.7-2.4-6.2-1.3-9.3l18.9-53.8v-.1c3.6-7.8 11.5-12.9 20.1-12.9H94v1.5H81.7c-8 0-15.4 4.7-18.8 12L44 285.5c-1 2.7-.5 5.6 1.1 8 1.7 2.4 4.3 3.7 7.2 3.7h52.3l13.4-.6h.1c2.6.2 5.1-.8 6.6-2.5 1.4-1.6 1.8-3.7 1.3-6.2-.1-.2 0-.5.2-.7.2-.2.4-.3.7-.2.1 0 1.8.4 3 2 .2.3.4.7.6 1.1 0-.5 0-1.2-.2-2-.4-1.3-2.2-3-5.2-4.7-1.6-.9-3.3-1.5-5.1-1.7l-14.5 4.6h-.4l-35.4-7.1c-.2 0-.4-.2-.5-.4-.1-.2-.1-.4 0-.6l11.6-24 1.3.6L71 278.1l34.3 6.8 14.5-4.6h.3c2.1.2 4 .9 5.8 1.9 3.4 1.9 5.4 3.8 5.8 5.6.5 1.9.3 3 .1 3.9-.1.5-.2.9-.1 1.3.1.3.2.6.2.8 0 .2.1.3 0 .4-.1.3-.3.6-.6.6s-.6-.1-.8-.5c-.2-.4-.2-.7-.3-1-.3-.9-.8-2.4-1.5-3.4-.3-.4-.6-.7-1-.9.2 2.9-.8 4.9-1.9 6.1-1.8 2.1-4.8 3.2-7.8 3l-13.4.6-52.3-.1z"/>
    <path class="st0" d="M53.5 255.6l23.8 7.7"/>
    <path transform="rotate(-72.002 65.40699 259.4319)" class="st2" d="M64.7 246.9h1.5v25h-1.5z"/>
    <g>
      <path class="st0" d="M62.5 279.1l7.4-.5"/>
      <path transform="matrix(.9981 -.06185 .06185 .9981 -17.1191 4.6273)" class="st2" d="M62.4 278.1h7.5v1.5h-7.5z"/>
    </g>
    <g>
      <path class="st0" d="M7.6 297.9h223.1v8.2H7.6z"/>
      <path class="st2" d="M230.7 306.8H7.6c-.4 0-.7-.3-.7-.7v-8.2c0-.4.3-.7.7-.7h223.1c.4 0 .7.3.7.7v8.2c0 .4-.3.7-.7.7zM8.4 305.4H230v-6.7H8.4v6.7z"/>
    </g>
    <g>
      <path class="st0" d="M118.3 272.4l-2.2 1.4-1.5-2.3c-.4-.6-.2-1.4.3-1.8.6-.4 1.5-.3 1.9.4l1.5 2.3z"/>
      <path class="st2" d="M116.1 274.6c-.2 0-.5-.1-.6-.3L114 272c-.6-.9-.4-2.2.5-2.8.5-.3 1-.5 1.6-.3.6.1 1 .4 1.3.9l1.5 2.3c.2.3.1.8-.2 1l-2.2 1.4c-.1 0-.3.1-.4.1zm-.4-4.4c-.1 0-.2 0-.3.1-.3.2-.3.5-.1.8l1.1 1.7 1-.6-1.1-1.7c-.1-.1-.2-.2-.4-.3h-.2z"/>
    </g>
    <g>
      <path class="st0" d="M105.3 285.7l-1.3 2.7"/>
      <path transform="rotate(-63.717 104.66874 287.0404)" class="st2" d="M103.1 286.3h3.1v1.5h-3.1z"/>
    </g>
    <g>
      <g id="XMLID_318_">
        <path class="st3" d="M94.8 337.4l43 80.3 36.8-21.4-45.1-75.9c-5.2-8.8-14.7-14.3-25-14.3H86.2"/>
        <path class="st2" d="M137.9 418.4c-.2 0-.5-.1-.6-.3l-43-80.3c-.2-.3-.1-.8.2-1 .3-.2.8-.1 1 .2l42.7 79.7 35.6-20.8-44.8-75.3c-5-8.5-14.4-13.9-24.3-13.9H86.2c-.4 0-.7-.3-.7-.7 0-.4.3-.7.7-.7h18.3c10.5 0 20.3 5.6 25.6 14.6l45.1 75.9c.2.4.1.8-.3 1l-36.8 21.4c0 .2-.1.2-.2.2z"/>
      </g>
      <path class="st2" d="M150.9 410.5c-.3 0-.5-.1-.6-.4l-43.9-76.5c-1.7-2.9-4.9-4.7-8.3-4.7H59.6c-.4 0-.7-.3-.7-.7 0-.4.3-.7.7-.7h38.6c3.9 0 7.5 2.1 9.5 5.4l43.9 76.5c.2.4.1.8-.3 1-.2 0-.3.1-.4.1z"/>
    </g>
    <g id="XMLID_313_">
      <path class="st0" d="M208.3 281.4c2.1.2 6.2-.1 8.1 1.4 4.1 3.2-4.4 3-4.4 3 5.7.1 5.3 4 1.8 4 2.8.4 1.9 2.6.2 3 2.4 2 .5 3.5-1.8 3.4-2.8-.2-4.9-.8-5-2.3 0-.8 1.2-1.4 2.8-1.4s-7-1.1-6.4-4.8c0 0-.7-.9-.5-2 .1-.6 2-.6 2.4-1.5.1-.3-.7-1-.6-1.3.6-1.1 1.5-1.8 3.4-1.5z" id="XMLID_317_"/>
      <path class="st2" d="M212.7 296.9h-.4c-2.4-.2-5.6-.7-5.7-3 0-.5.2-.9.5-1.3l.1-.1c-2.2-.6-4.6-1.9-4.3-4.7-.3-.5-.8-1.8-.2-2.8.3-.6 1-.9 1.8-1.1-.2-.4-.3-.9-.2-1.5.5-2.4 3.4-2 5.2-1.8.5.1.9.1 1.4.1 1.2.1 2.2.2 4.4.6 2.4.4 3.4 1.7 3.3 2.8-.2 1.4-2 2.6-5.7 2.4-2.5-.2-5.5-.8-6.9-1.1-1-.1-1.8.1-2 .4-.2.4.1 1.2.3 1.5l.1.2v.3c-.3 2.5 2.5 3.2 5.5 3.8.5.1.9.2 1.2.2l-.3 1.4c-1.3-.1-2.3.1-2.7.4l-.1.1c0 .8 1.6 1.4 4.3 1.6 1.1.1 1.9-.3 2.1-.7.1-.3-.2-.8-.8-1.4l.9-1.1c1.6 1.3 1.5 2.5 1.2 3.1-.3 1.1-1.5 1.7-3 1.7zm-6.3-12.9c1.4.3 4.3.9 6.6 1.1 2.9.2 4-.6 4.1-1.1 0-.3-.6-.9-2-1.2-2.1-.3-3.1-.4-4.3-.6-.4 0-.8-.1-1.4-.1-2.2-.2-3.5-.2-3.6.7-.2.4.2.9.6 1.2z" id="XMLID_316_"/>
      <g id="XMLID_315_">
        <path class="st0" d="M210.1 292.5s1.5.2 3.3.4c2.1.1 3.7-2.6.5-3"/>
        <path class="st2" d="M213.5 293.6h-.2c-1.8-.1-3.3-.4-3.4-.4l.2-1.5s1.5.2 3.2.3c.8 0 1.5-.5 1.6-1 0-.3-.4-.5-1.2-.6l.2-1.5c1.9.3 2.5 1.3 2.4 2.2 0 1.4-1.3 2.5-2.8 2.5z"/>
      </g>
      <path class="st2" d="M213.9 290.5c-.9 0-8.9-.5-11-2.8l1.1-1c1.3 1.4 6.8 2.1 10 2.3 1.1 0 1.8-.5 1.8-1 0-.6-1-1.5-3.6-1.6v-1.5c3.8.1 5.1 1.7 5.1 3.1-.1 1.3-1.2 2.5-3.4 2.5z" id="XMLID_314_"/>
    </g>
    <g>
      <path class="st0" d="M175.6 258.4h36.5"/>
      <path class="st2" d="M175.6 257.7h36.5v1.5h-36.5z"/>
    </g>
    <g>
      <path class="st0" d="M173.7 266.4h36.5"/>
      <path class="st2" d="M173.7 265.6h36.5v1.5h-36.5z"/>
    </g>
    <g>
      <path class="st0" d="M169.9 274.3h36.5"/>
      <path class="st2" d="M169.9 273.6h36.5v1.5h-36.5z"/>
    </g>
    <g>
      <path class="st0" d="M163.8 291.3h21.3"/>
      <path class="st2" d="M163.8 290.6h21.3v1.5h-21.3zM151.2 298.5l7.4-20 1.4.5-7.1 19.4z"/>
    </g>
    <g>
      <path class="st1" d="M169.9 252.7l16.1-13.4-1.2 13.4z"/>
    </g>
    <g id="XMLID_353_">
      <g id="XMLID_1400_">
        <g id="XMLID_1401_">
          <path class="st0" d="M169.9 419.6l27.6 21.5c2.3 1.7 7.4 3.5 8.4 6.3l-59.1-2.2s-.7-19 .1-21.8l3.5 2.2 16.3-2.8 3.2-3.2z"/>
          <path class="st2" d="M206.6 447.9h-.7l-59.5-2.2v-.5c0-.8-.7-19.2.2-22l.2-.6 3.8 2.5 15.9-2.8 3.5-3.4 27.9 21.8c.7.5 1.6 1 2.7 1.6 2.4 1.3 5.1 2.8 5.9 4.9l.1.7zm-59.4-3.2l57.8 2.1c-1-1.4-3.1-2.6-5.1-3.7-1-.6-2-1.1-2.8-1.7l-27.2-21.2-3.1 3h-.2l-16.5 2.9-3-2c-.3 3.4-.1 14.4.1 20.6z"/>
        </g>
      </g>
      <g id="XMLID_359_">
        <g id="XMLID_360_">
          <path class="st0" d="M206.6 449.6v.4c0 1.2-1 2.2-2.2 2.2h-55.6c-1.1 0-2.1-.9-2.2-2l-.2-2.5c-.1-1.3 1-2.5 2.3-2.4l55.8 2.1c1.1 0 2.1 1 2.1 2.2z"/>
          <path class="st2" d="M204.4 452.7h-55.6c-1.4 0-2.6-1.1-2.7-2.5l-.2-2.5c-.1-.8.2-1.5.7-2.1.5-.6 1.3-.9 2.1-.8l55.8 2.1c1.5.1 2.6 1.3 2.6 2.7v.4c0 1.4-1.3 2.7-2.7 2.7zm-55.7-1.1h55.6c.9 0 1.7-.8 1.7-1.7v-.4c0-.9-.7-1.7-1.6-1.7l-55.8-2.1c-.5 0-1 .2-1.3.5s-.5.8-.5 1.3l.2 2.5c.1 1 .9 1.6 1.7 1.6z"/>
        </g>
      </g>
      <path class="st3" d="M146.5 432.6s8.9 2.1 11.5 13l-11.3-.4-.2-12.6z"/>
      <path class="st2" d="M158 446.1l-11.3-.4c-.3 0-.5-.2-.5-.5l-.3-12.5c0-.2.1-.3.2-.4s.3-.1.4-.1c.1 0 9.2 2.3 11.9 13.3 0 .2 0 .3-.1.4 0 .1-.1.2-.3.2zm-10.8-1.4l10.1.4c-2.3-8.3-8.4-11.1-10.4-11.8l.3 11.4z"/>
      <g id="XMLID_104_">
        <path class="st2" d="M186.3 440.9c-1 0-2.1-.3-3.3-.9-5.1-2.7-13.3-10.6-15.1-12.4l-2.5 2.3-.7-.7 3.2-2.9.3.3c.1.1 9.6 9.6 15.2 12.5 1.5.8 2.9 1 4.2.5 2.2-.8 3.3-3.3 3.3-3.3l.9.4c0 .1-1.2 2.9-3.8 3.8-.6.3-1.1.4-1.7.4z" id="XMLID_105_"/>
      </g>
      <g id="XMLID_1383_">
        <path class="st2" d="M178.1 446.4c0-.1-.2-5.6 4.9-7.4l.3.9c-4.5 1.6-4.3 6.2-4.3 6.4l-.9.1z" id="XMLID_1384_"/>
      </g>
      <g id="XMLID_366_">
        <g id="XMLID_367_">
          <circle class="st3" cx="161.6" cy="432.6" r="5.1"/>
          <path class="st2" d="M161.6 438.2c-1.9 0-3.7-.9-4.7-2.6-.8-1.3-1-2.8-.7-4.2.3-1.4 1.2-2.7 2.5-3.5 2.6-1.6 6-.8 7.6 1.8 1.6 2.6.8 6-1.8 7.6-.9.6-1.9.9-2.9.9zm0-10.2c-.8 0-1.6.2-2.4.7-1 .6-1.8 1.6-2 2.8-.3 1.2-.1 2.4.6 3.4 1.3 2.1 4.1 2.8 6.3 1.5 2.1-1.3 2.8-4.1 1.5-6.3-1-1.3-2.5-2.1-4-2.1z"/>
        </g>
      </g>
      <g id="XMLID_1379_">
        <path class="st0" d="M182.5 430l-4.9 5.6"/>
        <path transform="rotate(-48.523 180.09244 432.84782)" class="st2" d="M176.3 432.3h7.5v1h-7.5z"/>
      </g>
      <g id="XMLID_1374_">
        <path class="st0" d="M177.7 426.5l-4.8 5.1"/>
        <path transform="rotate(-46.583 175.28042 428.98401)" class="st2" d="M171.8 428.5h7v1h-7z"/>
      </g>
      <path class="st0" d="M157.8 436l-2.9 2.5"/>
      <path transform="rotate(-41.712 156.36168 437.2463)" class="st2" d="M154.4 436.8h3.9v1h-3.9z"/>
      <g id="XMLID_354_">
        <g id="XMLID_356_">
          <path class="st3" d="M183.2 439.5c-5 1.9-4.6 6.9-4.6 6.9l27.2.9s-.8-3.1-3.6-5.3c-2.3-1.8-10.9-5.5-10.9-5.5s-2.4 6-8.1 3z"/>
          <path class="st2" d="M205.8 447.8l-27.2-.9c-.3 0-.5-.2-.5-.5 0-.1-.4-5.3 4.9-7.4.1-.1.3 0 .4 0 1.5.8 2.9 1 4.2.5 2.2-.8 3.3-3.2 3.3-3.2l.3-.3h.4c.4.2 8.7 3.7 11 5.6 2.9 2.3 3.7 5.4 3.7 5.5 0 .2 0 .3-.1.4-.1.3-.2.3-.4.3zm-26.7-1.9l26 .9c-.4-1-1.3-2.9-3.2-4.3-1.9-1.5-8.6-4.5-10.4-5.3-.5.8-1.6 2.6-3.6 3.3-1.5.5-3.1.4-4.8-.5-3.5 1.6-3.9 4.8-4 5.9z"/>
        </g>
      </g>
    </g>
    <g id="XMLID_355_">
      <g id="XMLID_373_">
        <g id="XMLID_374_">
          <path class="st0" d="M125.8 410.3l-.4 34.9c0 2.9-14.2-9.6-14.2-9.6l-19.8-28.2s14.7-12.1 17.4-13.1l.3 4.1 12.1 11.3 4.6.6z"/>
          <path class="st2" d="M125.1 446.2c-2.4 0-10.6-7-14.2-10.2l-.1-.1-20-28.6.4-.3c.6-.5 14.8-12.2 17.6-13.1l.6-.2.3 4.6 11.9 11 4.8.7-.5 35.4c0 .6-.3.8-.5.8-.1-.1-.2 0-.3 0zm-13.5-10.9c5.5 4.8 11.9 9.8 13.3 9.9l.4-34.4-4.3-.6-12.4-11.5-.3-3.6c-2.9 1.6-11.5 8.5-16.3 12.4l19.6 27.8z"/>
        </g>
      </g>
      <path class="st3" d="M101.2 399.6s3.7 8.3-3.4 17l-6.5-9.2 9.9-7.8z"/>
      <path class="st2" d="M97.9 417.1c-.2 0-.3-.1-.4-.2l-6.5-9.2c-.2-.2-.1-.5.1-.7l9.8-7.8c.1-.1.3-.1.4-.1.2 0 .3.1.3.3 0 .1 3.8 8.7-3.4 17.6 0 0-.2.1-.3.1zm-5.8-9.6l5.8 8.3c5.2-6.9 3.7-13.4 3.1-15.4l-8.9 7.1z"/>
      <g id="XMLID_369_">
        <path class="st2" d="M120.9 439.8c-.5 0-1-.1-1.4-.3-1.2-.5-2-1.7-2.3-3.5-.9-5.8.6-19.7.9-22.4l-3.3-.7.2-1 4.2.8-.1.5c0 .2-2 16.5-1 22.6.2 1.5.8 2.4 1.7 2.7 2 .8 5-1.3 5.1-1.3l.6.8c0 .2-2.4 1.8-4.6 1.8z" id="XMLID_370_"/>
      </g>
      <g id="XMLID_363_">
        <g id="XMLID_364_">
          <circle class="st3" cx="110.4" cy="411.6" r="5.1"/>
          <path class="st2" d="M110.4 417.1c-.7 0-1.4-.1-2-.4-2.9-1.1-4.3-4.3-3.2-7.2.5-1.4 1.6-2.5 2.9-3.1s2.9-.6 4.3-.1c2.9 1.1 4.3 4.3 3.2 7.2-.5 1.4-1.6 2.5-2.9 3.1-.7.4-1.5.5-2.3.5zm-4.2-7.2c-.9 2.3.3 5 2.6 5.9 1.1.4 2.4.4 3.5-.1s2-1.4 2.4-2.5c.9-2.3-.3-5-2.6-5.9-2.4-.9-5 .3-5.9 2.6z"/>
        </g>
      </g>
      <g id="XMLID_362_">
        <path class="st0" d="M125.1 426.7l-7.4-.5"/>
        <path transform="matrix(.07417 -.9972 .9972 .07417 -312.8419 515.9019)" class="st2" d="M120.9 422.7h1v7.5h-1z"/>
      </g>
      <g id="XMLID_361_">
        <path class="st0" d="M125.1 420.7l-7-.8"/>
        <path transform="rotate(-83.754 121.57757 420.30291)" class="st2" d="M121.1 416.8h1v7h-1z"/>
      </g>
      <path class="st0" d="M105.5 410.6l-3.8-.8"/>
      <path transform="rotate(-78.918 103.55722 410.23454)" class="st2" d="M103.1 408.3h1v3.9h-1z"/>
      <g id="XMLID_357_">
        <g id="XMLID_358_">
          <path class="st3" d="M117.1 433.9c-3.8-.5-5.9 1.7-5.9 1.7l19 14.2s.7-3.1-.6-6.3c-1.1-2.7-3.9-8.3-3.9-8.3s-5 4-8.6-1.3z"/>
          <path class="st2" d="M130.2 450.3c-.1 0-.2 0-.3-.1l-19-14.2c-.1-.1-.2-.2-.2-.4 0-.1 0-.3.1-.4.1-.1 2.3-2.4 6.3-1.8.1 0 .3.1.3.2 1 1.4 2.1 2.2 3.5 2.4 2.3.3 4.4-1.3 4.4-1.3.1-.1.3-.1.4-.1.1 0 .3.1.3.3 0 .1 2.7 5.7 3.9 8.4 1.4 3.4.7 6.5.7 6.6 0 .2-.2.3-.3.4h-.1zM112 435.6l17.8 13.3c.1-1.1.2-3.1-.7-5.2-.9-2.2-2.9-6.3-3.6-7.8-.8.5-2.6 1.5-4.7 1.2-1.6-.2-2.9-1.1-4-2.7-2.4-.2-4.1.7-4.8 1.2z"/>
        </g>
      </g>
      <g>
        <path class="st0" d="M129.2 449.6L116 439.3l-23.4-30.4c-.8-1.1-2.3-1.3-3.3-.4l-1.8 1.7c-.8.8-1 2.1-.3 3L112 443l14.9 10.8c1.1.6 2.4.2 3-.9l.2-.3c.4-1.1.1-2.4-.9-3z"/>
        <path class="st2" d="M127.8 454.5c-.4 0-.9-.1-1.3-.3l-15-10.9-24.8-29.8c-.9-1.1-.7-2.7.3-3.7l1.8-1.7c.6-.5 1.3-.8 2.1-.7.8.1 1.5.5 1.9 1.1l23.4 30.4 13.2 10.2c1.2.8 1.6 2.4.9 3.6l-.2.3c-.4 1-1.3 1.5-2.3 1.5zm-15.6-11.9l14.8 10.7c.8.4 1.8.1 2.3-.7l.2-.3c.5-.8.2-1.8-.6-2.3l-13.3-10.3-23.4-30.4c-.3-.4-.7-.7-1.2-.7-.5-.1-1 .1-1.3.4l-1.8 1.7c-.7.6-.7 1.6-.2 2.3l24.5 29.6z"/>
      </g>
    </g>
  </g>
  <g>
    <path class="st0" d="M84.4 354.4h1.5v93.5h-1.5z"/>
    <path class="st0" d="M135.7 447.8h-1.5v-1.1c0-10.1-8.2-18.4-18.4-18.4H54.4c-10.1 0-18.4 8.2-18.4 18.4v1.1h-1.5v-1.1c0-10.9 8.9-19.8 19.8-19.8h61.5c10.9 0 19.8 8.9 19.8 19.8v1.1z"/>
    <circle class="st0" cx="35.3" cy="447.8" r="7.7"/>
    <circle class="st0" cx="135.7" cy="447.8" r="7.7"/>
    <path class="st0" d="M86.3 456H84c-1.9 0-3.4-1.5-3.4-3.4v-9.1c0-1.9 1.5-3.4 3.4-3.4h2.3c1.9 0 3.4 1.5 3.4 3.4v9.1c0 1.9-1.5 3.4-3.4 3.4z"/>
  </g>
  <g id="XMLID_102_">
    <path class="st4" d="M325.4 314.9c-1.9 0-3.7-.5-5.4-1.5-2.5-1.4-4.2-3.8-4.9-6.5s-.3-5.6 1.1-8.1c1.4-2.5 3.8-4.2 6.5-4.9 5.7-1.5 11.5 1.9 13 7.6.7 2.8.3 5.6-1.1 8.1-1.4 2.5-3.8 4.2-6.5 4.9-.9.3-1.8.4-2.7.4zm0-20.3c-.8 0-1.6.1-2.4.3-2.5.6-4.6 2.2-5.9 4.5-1.3 2.2-1.7 4.8-1 7.3.6 2.5 2.2 4.6 4.5 5.9 2.2 1.3 4.8 1.7 7.3 1 2.5-.6 4.6-2.2 5.9-4.5 1.3-2.2 1.7-4.8 1-7.3-1.1-4.3-5.1-7.2-9.4-7.2z" id="XMLID_103_"/>
    <path class="st4" d="M354.7 307.3c-1.9 0-3.7-.5-5.4-1.5-2.5-1.4-4.2-3.8-4.9-6.5-1.5-5.7 1.9-11.5 7.6-13 5.7-1.5 11.5 1.9 13 7.6 1.5 5.7-1.9 11.5-7.6 13-.9.3-1.8.4-2.7.4zm0-20.3c-.8 0-1.6.1-2.4.3-5.2 1.3-8.3 6.6-6.9 11.8.6 2.5 2.2 4.6 4.5 5.9 2.2 1.3 4.8 1.7 7.3 1 5.2-1.3 8.3-6.6 6.9-11.8-1.2-4.3-5.1-7.2-9.4-7.2z" id="XMLID_265_"/>
    <path class="st4" d="M335.8 301.8l-1-.2c0-.1.8-3.2 4.5-4.2 3.1-.8 5.8 1.3 5.9 1.4l-.6.8s-2.4-1.9-5-1.2c-3.2.8-3.8 3.3-3.8 3.4z" id="XMLID_264_"/>
    <path class="st4" d="M315.3 307.2L282.9 288c-.9-.5-2-.7-3-.4-2.1.5-3.4 2.7-2.8 4.8l.4 1.6-1 .3-.4-1.6c-.7-2.6.9-5.3 3.5-6 1.3-.3 2.6-.1 3.7.5l32.4 19.2-.4.8z" id="XMLID_263_"/>
    <path class="st4" d="M351.9 287.2l-20.3-11.8c-.9-.5-2-.7-3-.4-1 .3-1.9.9-2.4 1.8s-.7 2-.4 3l.4 1.6-1 .3-.4-1.6c-.3-1.3-.1-2.6.5-3.7.7-1.1 1.7-1.9 3-2.3 1.3-.3 2.6-.1 3.7.5l20.3 11.8-.4.8z" id="XMLID_262_"/>
  </g>
  <g id="XMLID_101_">
    <path class="st4" d="M309.1 120.3c-.1 0-.1 0 0 0-.7 0-1.3-.4-1.5-1l-1.5-3.5c-.1-.2-.3-.4-.5-.4l-3.7-.7c-.6-.1-1.1-.6-1.3-1.2-.2-.6 0-1.3.5-1.7l2.8-2.5c.2-.2.2-.4.2-.6l-.5-3.7c-.1-.6.2-1.3.7-1.6.5-.4 1.2-.4 1.8-.1l3.3 1.9c.2.1.4.1.6 0l3.4-1.6c.6-.3 1.3-.2 1.8.2s.7 1 .6 1.7l-.8 3.7c0 .2 0 .4.2.6l2.6 2.7c.4.5.6 1.1.4 1.7-.2.6-.8 1-1.4 1.1l-3.8.4c-.2 0-.4.2-.5.4l-1.8 3.3c-.5.6-1 .9-1.6.9zm-3.9-16.2c-.1 0-.3 0-.4.1-.2.1-.3.4-.3.7l.5 3.7c.1.5-.1 1.1-.5 1.5l-2.8 2.5c-.2.2-.3.4-.2.7.1.3.3.4.5.5l3.7.7c.5.1 1 .5 1.2 1l1.5 3.5c.1.2.3.4.6.4s.5-.1.6-.4l1.8-3.3c.3-.5.8-.8 1.3-.9l3.8-.4c.3 0 .5-.2.6-.4s0-.5-.1-.7l-2.6-2.7c-.4-.4-.5-1-.4-1.5l.8-3.7c.1-.3 0-.5-.2-.7-.2-.2-.5-.2-.7-.1l-3.4 1.6c-.5.2-1.1.2-1.6-.1l-3.3-1.9c-.2-.1-.3-.1-.4-.1z"/>
  </g>
  <g>
    <path class="st4" d="M113.6 74.7L70.3 57.1l43.3-17.7 43.3 17.7-43.3 17.6zM72.9 57.1l40.6 16.6 40.7-16.6-40.6-16.6-40.7 16.6z"/>
    <path class="st4" d="M113.6 89.6c-6.4 0-12.9-1.5-17.4-4.5l-.2-.2c-2.3-1.8-3.6-3.9-3.6-6.2v-13h1v13c0 2 1.2 3.9 3.4 5.5l.2.1c8.6 5.6 24.7 5.6 33.3-.1l.1-.1c2.2-1.6 3.4-3.5 3.4-5.5v-13h1v13c0 2.3-1.2 4.4-3.6 6.2l-.2.2c-4.5 3.1-11 4.6-17.4 4.6z" id="XMLID_1_"/>
    <path class="st4" d="M113.6 59.7c-1.5 0-2.7-1.2-2.7-2.7s1.2-2.7 2.7-2.7c1.5 0 2.7 1.2 2.7 2.7s-1.2 2.7-2.7 2.7zm0-4.3c-.9 0-1.7.8-1.7 1.7s.8 1.7 1.7 1.7c.9 0 1.7-.8 1.7-1.7s-.8-1.7-1.7-1.7z"/>
    <path class="st4" d="M84 91.7h-1V61.5l28.3-4.9.2 1L84 62.4z"/>
    <path class="st4" d="M90.5 90l-6.9-7-6.9 6.9-.7-.7 7.6-7.6 7.7 7.7z"/>
  </g>
  <g id="XMLID_50_">
    <g id="XMLID_73_">
      <path class="st4" d="M261.8 73.4c-.4 0-.7-.1-1-.2-.6-.3-1-.8-1.3-1.4L249.8 45c-.2-.6-.2-1.3.1-1.9.3-.6.8-1 1.4-1.3l34.5-12.4c.6-.2 1.3-.2 1.9.1.6.3 1 .8 1.3 1.4l9.6 26.8c.2.6.2 1.3-.1 1.9-.3.6-.8 1-1.4 1.3l-34.5 12.4c-.3.1-.5.1-.8.1zm24.8-43.1c-.2 0-.3 0-.5.1l-34.5 12.4c-.4.1-.7.4-.8.7-.2.4-.2.7-.1 1.1l9.6 26.8c.1.4.4.7.7.8.4.2.7.2 1.1.1l34.5-12.4c.4-.1.7-.4.8-.7.2-.4.2-.7.1-1.1L288 31.3c-.1-.4-.4-.7-.7-.8-.3-.1-.5-.2-.7-.2z" id="XMLID_82_"/>
      <path class="st4" d="M273.8 55.8c-.9 0-1.8-.2-2.6-.7l-21.3-11.4c-.3-.1-.4-.4-.4-.7 0-.3.2-.5.5-.6L287.2 29c.3-.1.6 0 .8.2.2.2.3.5.1.8l-9.2 22.4c-.6 1.4-1.8 2.6-3.2 3.1-.6.1-1.3.3-1.9.3zm-22.9-12.7l20.8 11.1c1.1.6 2.5.7 3.7.3 1.2-.4 2.2-1.4 2.7-2.5l8.9-21.8-36.1 12.9zm-.6-.3z" id="XMLID_78_"/>
      <path class="st4" d="M261 73.7c-.2 0-.4-.1-.5-.2-.2-.2-.3-.5-.1-.8l8.2-20.1 3.1 1.7c1.1.6 2.5.7 3.7.3 1.2-.4 2.2-1.4 2.7-2.5l1.3-3.3 19.2 10.3c.3.1.4.4.4.7s-.2.5-.5.6l-37.2 13.4c-.2-.1-.3-.1-.3-.1zm8-19.7l-7.6 18.5 36.1-13-17.7-9.5-.9 2.2c-.6 1.4-1.8 2.6-3.2 3.1-1.5.5-3.1.4-4.5-.3l-2.2-1zm29 5.8z"/>
    </g>
  </g>
  <g id="XMLID_7_">
    <g id="XMLID_8_">
      <path class="st4" d="M353 411.7c-.6 0-1.2-.2-1.7-.6l-27-24.8c-1-.9-1.1-2.5-.2-3.5l19.2-21c.4-.5 1-.8 1.7-.8s1.3.2 1.8.6l27 24.8c.5.4.8 1 .8 1.7s-.2 1.3-.6 1.8l-19.2 21c-.4.5-1 .8-1.7.8h-.1zm-.9-1.4c.3.3.6.4 1 .4s.7-.2 1-.5l19.2-21c.5-.6.5-1.5-.1-2.1l-27-24.8c-.6-.5-1.5-.5-2.1.1l-19.2 21c-.5.6-.5 1.5.1 2.1l27.1 24.8z" id="XMLID_10_"/>
      <path class="st4" d="M350 391c-1.4 0-2.7-.5-3.7-1.5-1.2-1.1-1.8-2.6-1.8-4.1l.2-24.2c0-.3.2-.5.4-.7.3-.1.6-.1.8.1l29.2 26.7c.2.2.3.5.2.8s-.3.5-.6.5l-24.1 2.3c-.3.1-.5.1-.6.1zm-4.4-29.2l-.2 23.6c0 1.3.5 2.5 1.5 3.4.9.9 2.2 1.3 3.5 1.2l23.5-2.2-28.3-26z" id="XMLID_9_"/>
      <path class="st4" d="M353 412.1c-.2 0-.4-.1-.5-.2l-29.2-26.7c-.2-.2-.3-.5-.2-.8.1-.3.3-.5.6-.5l21.7-2.1v3.5c0 1.3.5 2.5 1.5 3.4.9.9 2.2 1.3 3.5 1.2l3.5-.3-.2 21.8c0 .3-.2.5-.4.7h-.3zm-.2-.7zm-28.3-26.5l28.3 25.9.1-20-2.4.2c-1.6.1-3.1-.4-4.3-1.4-1.2-1.1-1.8-2.6-1.8-4.1v-2.4l-19.9 1.8z"/>
    </g>
  </g>
  <g id="XMLID_49_">
    <path class="st4" d="M189.1 182.8l.8-.9c1.7-1.9 2.7-4.3 2.7-6.8v-17c0-9.6 7.8-17.5 17.5-17.5h20.2c9.6 0 17.5 7.8 17.5 17.5 0 9.6-7.8 17.5-17.5 17.5h-30.1c-1.6 4.1-5.4 6.9-9.8 7.1l-1.3.1zm4.4-7.3c-.1 2.2-.8 4.3-2.1 6.1 3.6-.6 6.6-3.1 7.9-6.7l.1-.3h30.8c9.1 0 16.5-7.4 16.5-16.5s-7.4-16.5-16.5-16.5H210c-9.1 0-16.5 7.4-16.5 16.5v17.4z"/>
  </g>
  <g id="XMLID_5_">
    <path class="st4" d="M247.3 238.8c-.7 0-1.3-.4-1.5-1l-1.5-3.5c-.1-.2-.3-.4-.5-.4l-3.7-.7c-.6-.1-1.1-.6-1.3-1.2-.2-.6 0-1.3.5-1.7l2.8-2.5c.2-.2.2-.4.2-.6l-.5-3.7c-.1-.6.2-1.3.7-1.6.5-.4 1.2-.4 1.8-.1l3.3 1.9c.2.1.4.1.6 0l3.4-1.6c.6-.3 1.3-.2 1.8.2s.7 1 .6 1.7l-.5-.1.5.1-.8 3.7c0 .2 0 .4.2.6l2.6 2.7c.4.5.6 1.1.4 1.7-.2.6-.8 1-1.4 1.1l-3.8.4c-.2 0-.4.2-.5.4l-1.8 3.3c-.4.6-.9.9-1.6.9zm-3.8-16.2c-.1 0-.3 0-.4.1-.2.1-.3.4-.3.7l.5 3.7c.1.5-.1 1.1-.5 1.5l-2.8 2.5c-.2.2-.3.4-.2.7.1.3.3.4.5.5l3.7.7c.5.1 1 .5 1.2 1l1.5 3.5c.1.2.3.4.6.4s.5-.1.6-.4l1.8-3.3c.3-.5.8-.8 1.3-.9l3.8-.4c.3 0 .5-.2.6-.4s0-.5-.1-.7l-2.6-2.7c-.4-.4-.5-1-.4-1.5l.8-3.7c.1-.3 0-.5-.2-.7-.2-.2-.5-.2-.7-.1l-3.4 1.6c-.5.2-1.1.2-1.6-.1l-3.3-1.9c-.2-.1-.3-.1-.4-.1z"/>
  </g>
  <g>
    <path class="st4" d="M323.1 200.4c-.5 0-1-.2-1.4-.7-.4-.5-.5-1.2-.2-1.8l13.2-32.8c.2-.6.8-1 1.4-1.1.6-.1 1.2.2 1.6.7l12.9 16.8-6.3 15.6-20.9 3.2c-.1.1-.2.1-.3.1zm13.2-35.4h-.1c-.3 0-.5.2-.6.5l-13.2 32.8c-.1.3-.1.5.1.8.2.2.4.3.7.3l20.4-3.1 5.9-14.5-12.5-16.4c-.2-.3-.5-.4-.7-.4zM396.5 233.4c-.3 0-.7-.1-1-.2L345 212.9c-.7-.3-1.2-.8-1.5-1.5-.3-.7-.3-1.4 0-2.1l15-37.2c.6-1.4 2.1-2 3.5-1.5l50.4 20.3c.7.3 1.2.8 1.5 1.5.3.7.3 1.4 0 2.1l-15 37.2c-.3 1.1-1.4 1.7-2.4 1.7zM361 171.5c-.7 0-1.3.4-1.6 1l-15 37.2c-.2.4-.2.9 0 1.3s.5.8.9.9l50.4 20.3c.9.4 1.9-.1 2.2-1l15-37.2c.2-.4.2-.9 0-1.3s-.5-.8-.9-.9l-50.4-20.3h-.6z"/>
    <path class="st4" d="M381 214.3c-.4 0-.7-.2-1-.5L368.8 199c-.3-.3-.3-.8-.2-1.2.2-.4.5-.7.9-.7l18.4-2.8c.4-.1.8.1 1.1.4.3.3.3.8.2 1.2l-7.1 17.6c-.2.4-.5.7-.9.7-.1.1-.1.1-.2.1zm7.1-19l-18.4 2.8c-.1 0-.1.1-.1.1v.2l11.3 14.8c.1.1.1.1.2.1 0 0 .1 0 .1-.1l7.1-17.6v-.2c-.1 0-.1-.1-.2-.1z"/>
  </g>
</svg>
