<?xml version="1.0" encoding="utf-8"?><svg xmlns="http://www.w3.org/2000/svg" xmlns:xlink="http://www.w3.org/1999/xlink"><defs><svg preserveAspectRatio="xMinYMin meet" viewBox="0 0 95 124" id="courses" xmlns="http://www.w3.org/2000/svg"><g fill="none" fill-rule="evenodd"><path fill="#32B494" d="M1 113.494V31.506c0-.28.227-.506.506-.506h17.988c.279 0 .506.226.506.506v81.988a.507.507 0 01-.506.506H1.506a.507.507 0 01-.506-.506"/><path fill="#3A4349" d="M19.99 31H2.01A1.01 1.01 0 001 32.012v81.976A1.01 1.01 0 002.01 115h17.977c.56 0 1.012-.453 1.012-1.012V32.011A1.01 1.01 0 0019.99 31zM2 114h18V32H2v82z"/><path fill="#FEFEFE" d="M1 31.497V.503C1 .225 1.226 0 1.503 0h17.993c.278 0 .504.226.504.503v30.994a.504.504 0 01-.504.503H1.503A.503.503 0 011 31.497"/><path fill="#3A4349" d="M19.994 0H2.007C1.45 0 1 .451 1 1.006v30.988C1 32.549 1.45 33 2.007 33h17.986C20.55 33 21 32.549 21 31.994V1.006C21 .45 20.55 0 19.994 0zM2 32h18V1H2v31z"/><path fill="#FEFEFE" d="M10.746 110.235a4.62 4.62 0 01-4.615-4.616 4.62 4.62 0 014.615-4.615 4.62 4.62 0 014.616 4.615 4.622 4.622 0 01-4.616 4.616"/><path fill="#3A4349" d="M10.746 100.503a5.122 5.122 0 00-5.115 5.116 5.12 5.12 0 005.115 5.115 5.12 5.12 0 005.116-5.115 5.122 5.122 0 00-5.116-5.116m0 1a4.116 4.116 0 110 8.233 4.116 4.116 0 010-8.233"/><path fill="#FEFEFE" d="M7 93.425v-53.85A2.576 2.576 0 019.576 37h1.849A2.575 2.575 0 0114 39.575v53.85A2.575 2.575 0 0111.424 96H9.575A2.575 2.575 0 017 93.425"/><path fill="#3A4349" d="M11.926 37h-1.848A3.078 3.078 0 007 40.078v53.844C7 95.622 8.378 97 10.078 97h1.844c1.7 0 3.078-1.378 3.078-3.078V40.078A3.079 3.079 0 0011.926 37m0 1c1.146 0 2.074.928 2.074 2.074v53.852A2.073 2.073 0 0111.927 96h-1.854A2.074 2.074 0 018 93.926V40.074C8 38.928 8.929 38 10.073 38H12"/><path fill="#FEFEFE" d="M7 32v-9"/><path fill="#3A4349" d="M6.5 32a.5.5 0 01-.5-.5v-9a.5.5 0 011 0v9a.5.5 0 01-.5.5"/><path fill="#FEFEFE" d="M16 32V18"/><path fill="#3A4349" d="M15.5 32a.5.5 0 01-.5-.5v-14a.5.5 0 011 0v14a.5.5 0 01-.5.5"/><path fill="#FEFEFE" d="M11 1v23"/><path fill="#3A4349" d="M10.5 24a.5.5 0 01-.5-.5V.5a.5.5 0 011 0v23a.5.5 0 01-.5.5"/><path fill="#50545E" d="M36 113.494V31.506c0-.28.227-.506.506-.506h17.988c.279 0 .506.226.506.506v81.988a.507.507 0 01-.506.506H36.506a.507.507 0 01-.506-.506"/><path fill="#3A4349" d="M54.99 31H37.01A1.01 1.01 0 0036 32.012v81.976A1.01 1.01 0 0037.01 115h17.977c.56 0 1.012-.453 1.012-1.012V32.011A1.01 1.01 0 0054.99 31zM37 114h18V32H37v82z"/><path fill="#FEFEFE" d="M36 31.497V.503c0-.277.226-.503.504-.503h17.992c.278 0 .504.226.504.503v30.994a.504.504 0 01-.504.503H36.503a.503.503 0 01-.503-.503"/><path fill="#3A4349" d="M54.994 0H37.007C36.45 0 36 .451 36 1.006v30.988c0 .555.45 1.006 1.007 1.006h17.986C55.55 33 56 32.549 56 31.994V1.006C56 .45 55.55 0 54.994 0zM37 32h18V1H37v31z"/><path fill="#FEFEFE" d="M42 32V13"/><path fill="#3A4349" d="M41.5 32a.5.5 0 01-.5-.5v-19a.5.5 0 011 0v19a.5.5 0 01-.5.5"/><path fill="#FEFEFE" d="M51 32V19"/><path fill="#3A4349" d="M50.5 32a.5.5 0 01-.5-.5v-13a.5.5 0 011 0v13a.5.5 0 01-.5.5"/><path fill="#FEFEFE" d="M46 1v25"/><path fill="#3A4349" d="M45.5 26a.5.5 0 01-.5-.5V.5a.5.5 0 011 0v25a.5.5 0 01-.5.5"/><path fill="#F29A22" d="M19 114h19V31H19z"/><path fill="#3A4349" d="M39 31H19v84h20V31zm-19 83h18V32H20v82z"/><path fill="#FEFEFE" d="M19 31.497V.503c0-.277.226-.503.504-.503h17.992c.278 0 .504.226.504.503v30.994a.504.504 0 01-.504.503H19.503a.503.503 0 01-.503-.503"/><path fill="#3A4349" d="M37.994 0H20.007C19.45 0 19 .451 19 1.006v30.988c0 .555.45 1.006 1.007 1.006h17.986C38.55 33 39 32.549 39 31.994V1.006C39 .45 38.55 0 37.994 0zM20 32h18V1H20v31z"/><path fill="#FEFEFE" d="M25 32V10"/><path fill="#3A4349" d="M24.5 32a.5.5 0 01-.5-.5v-22a.5.5 0 011 0v22a.5.5 0 01-.5.5"/><path fill="#FEFEFE" d="M34 32V18"/><path fill="#3A4349" d="M33.5 32a.5.5 0 01-.5-.5v-14a.5.5 0 011 0v14a.5.5 0 01-.5.5"/><path fill="#FEFEFE" d="M29 1v16"/><path fill="#3A4349" d="M28.5 17a.5.5 0 01-.5-.5V.5a.5.5 0 011 0v16a.5.5 0 01-.5.5"/><path fill="#FEFEFE" d="M20 54.5v-12a.5.5 0 01.5-.5h18a.5.5 0 01.5.5v12a.5.5 0 01-.5.5h-18a.5.5 0 01-.5-.5"/><path fill="#3A4349" d="M38 40.999H20A1 1 0 0018.999 42v12A1 1 0 0020 55.001h18A1 1 0 0039.001 54V42A1 1 0 0038 40.999zM20 54h18V42H20v12z"/><path fill="#32B494" d="M41 107.494V36.506c0-.28.227-.506.506-.506h8.988c.279 0 .506.226.506.506v70.988a.507.507 0 01-.506.506h-8.988a.507.507 0 01-.506-.506"/><path fill="#3A4349" d="M50.991 36h-8.979c-.559 0-1.012.453-1.012 1.011v70.978c0 .558.453 1.011 1.012 1.011h8.976c.56 0 1.012-.453 1.012-1.011V37.011A1.01 1.01 0 0050.991 36zm-8.99 72h9V37h-9v71z"/><path fill="#34B495" d="M52.426 90.028a1.285 1.285 0 00-.994.462 1.36 1.36 0 00-.301 1.102c.689 4.178 2.619 11.102 7.869 11.516V90l-6.574.028zM59 117v-7.188c-7.446-.343-13-8.319-13-18.822v-.128A4.863 4.863 0 0150.864 86H59V76h36v41H59z"/><path fill="#3A4349" d="M58 103.011c-4.51-.82-6.237-7.15-6.876-11.028a.861.861 0 01.189-.698.795.795 0 01.614-.285L58 90.974v12.037zm37-28.01H58v10h-7.638A5.368 5.368 0 0045 90.362v.127c0 10.557 5.521 18.627 13 19.29V117h37V75zm-36 29V90l-7.076.03c-1.133.002-1.971 1.026-1.786 2.145 1.053 6.4 3.725 11.954 8.862 11.954V104zm35-28v40H59v-7.178c-7.789 0-13-8.489-13-18.333v-.127A4.362 4.362 0 0150.362 86H59V76h35z"/><path fill="#EBEDEE" d="M74.702 102.053c-.203.5-.713 0-.713 0h-6.826s-3.999-1.046-3.999-4.111a5.52 5.52 0 014-5.332c.665-2.369 2.865-4.058 5.345-4.058a5.47 5.47 0 013.01.899 5.469 5.469 0 013.007-.899c2.481 0 4.681 1.689 5.347 4.058a5.52 5.52 0 014 5.332c0 2.785-4 4.425-4 4.425l-3.795-.314h-5.376z"/><path fill="#3A4349" d="M75.518 88.864a5.963 5.963 0 00-3.009-.812c-2.61 0-4.936 1.716-5.747 4.16a6.016 6.016 0 00-4.098 5.73c0 3.34 1.437 5.166 4.864 5.166l1.498-.097H71.1l7.993.097 4.934-.097c3.012-.387 4.345-2.033 4.345-5.07a6.017 6.017 0 00-4.099-5.73c-.81-2.443-3.137-4.16-5.747-4.16a5.959 5.959 0 00-3.008.813zm7.943 4.156a5.025 5.025 0 013.911 4.922c0 2.569-1.928 4.693-4.41 4.058h-14.24c-2.789 0-5.058-1.27-5.058-4.058a5.025 5.025 0 013.912-4.922c.504-2.286 2.563-3.968 4.933-3.968a5.03 5.03 0 013.01 1.009 5.024 5.024 0 013.007-1.01c2.37 0 4.43 1.683 4.935 3.969z"/></g></svg><svg preserveAspectRatio="xMinYMin meet" viewBox="0 0 157 124" id="graduate" xmlns="http://www.w3.org/2000/svg"><g fill="none" fill-rule="evenodd"><path fill="#FEFEFE" d="M35.862 111.939a.498.498 0 01-.482-.37L13.911 31.616a.498.498 0 01.352-.613l69.386-18.63a.498.498 0 01.612.353l21.468 79.953a.5.5 0 01-.352.613l-69.385 18.63a.489.489 0 01-.13.017"/><path fill="#3A4349" d="M83.78 11.856a.952.952 0 00-.26.034L14.133 30.52a1 1 0 00-.706 1.226l21.468 79.953c.07.256.237.474.466.607a1.004 1.004 0 00.76.099l69.385-18.631a1 1 0 00.706-1.225L84.745 12.596a1.005 1.005 0 00-.466-.607 1.004 1.004 0 00-.5-.133m0 1l21.468 79.953-69.385 18.63-21.469-79.953 69.386-18.63"/><path fill="#FEFEFE" d="M22.469 109.084a.493.493 0 01-.482-.37L.517 28.761a.5.5 0 01.354-.613l69.385-18.63a.497.497 0 01.612.353l21.468 79.952a.5.5 0 01-.352.613l-69.385 18.631a.527.527 0 01-.13.017"/><path fill="#3A4349" d="M70.386 9c-.087 0-.174.012-.26.035L.74 27.665a1 1 0 00-.706 1.226l21.468 79.953c.069.256.237.474.466.607a1.004 1.004 0 00.759.099l69.386-18.632a1 1 0 00.706-1.225L71.352 9.743A1 1 0 0070.386 9m0 1l21.468 79.954-69.385 18.63L1 28.63 70.386 10"/><path fill="#FEFEFE" d="M69.501 77.478L24.833 89.472"/><path fill="#3A4349" d="M24.833 89.972a.5.5 0 01-.13-.983L69.37 76.995a.5.5 0 11.26.966L24.963 89.955a.489.489 0 01-.13.017"/><path fill="#FEFEFE" d="M77.881 67.624L22.673 82.147"/><path fill="#3A4349" d="M22.673 82.647a.498.498 0 01-.483-.373.498.498 0 01.356-.61L77.754 67.14a.5.5 0 11.254.966L22.8 82.63a.462.462 0 01-.127.017"/><path fill="#FEFEFE" d="M75.721 60.299L20.513 74.822"/><path fill="#3A4349" d="M20.512 75.322a.498.498 0 01-.483-.373.498.498 0 01.357-.61l55.208-14.523c.263-.07.54.09.61.356a.498.498 0 01-.356.61l-55.21 14.523a.462.462 0 01-.127.017"/><path fill="#FEFEFE" d="M73.559 52.975L18.352 67.497"/><path fill="#3A4349" d="M18.352 67.997a.498.498 0 01-.483-.373.498.498 0 01.356-.61l55.207-14.523a.5.5 0 01.254.967L18.48 67.98a.462.462 0 01-.127.017"/><path fill="#FEFEFE" d="M71.399 45.649L16.192 60.172"/><path fill="#3A4349" d="M16.192 60.672a.498.498 0 01-.483-.373.498.498 0 01.356-.61l55.207-14.523a.5.5 0 01.254.966L16.32 60.655a.462.462 0 01-.127.017"/><path fill="#FEFEFE" d="M69.811 38.149L14.032 52.847"/><path fill="#3A4349" d="M14.032 53.348a.499.499 0 01-.127-.983l55.78-14.7a.5.5 0 11.254.967l-55.78 14.699a.462.462 0 01-.127.017"/><path fill="#FEFEFE" d="M67.651 30.824l-55.78 14.698"/><path fill="#3A4349" d="M11.87 46.022a.5.5 0 01-.126-.983l55.78-14.699a.5.5 0 11.254.967l-55.78 14.698a.475.475 0 01-.127.017"/><path fill="#FEFEFE" d="M65.491 23.499L9.711 38.198"/><path fill="#3A4349" d="M9.71 38.698a.5.5 0 01-.127-.983l55.781-14.7a.5.5 0 01.254.968L9.838 38.68a.475.475 0 01-.128.017m79.948 36.255l-30.896-.006v19.719c0 3.39 1.831 6.457 5 8.958v-.234c.184.133.408.25.601.382.427.287.86.57 1.326.842.298.173.611.339.924.504.466.248.947.486 1.446.717.33.153.661.304 1.004.449a38.22 38.22 0 001.756.679c.311.113.607.232.926.338a44.3 44.3 0 002.85.847c.245.063.505.114.753.174.781.19 1.574.369 2.393.527.401.077.814.143 1.225.212a57.732 57.732 0 005.851.698c.41.029.814.065 1.23.087a69.41 69.41 0 003.63.105l.076.002h.017l.077-.002a69.41 69.41 0 003.63-.105c.415-.022.82-.058 1.23-.087a66.695 66.695 0 002.361-.21 57.732 57.732 0 003.489-.489c.411-.068.824-.134 1.225-.211a50.769 50.769 0 002.393-.527c.248-.06.508-.111.753-.174a44.3 44.3 0 002.85-.847c.32-.106.615-.225.926-.338a37.1 37.1 0 001.756-.68 33.24 33.24 0 002.452-1.165c.312-.166.624-.331.921-.503.467-.272.9-.556 1.327-.843.193-.131.417-.25.602-.382v-.07s5.235-5.566 5-8.957v-20.41l-31.104 1z"/><path fill="#3A4349" d="M64.063 102.8a28.511 28.511 0 003.899 2.172c.321.147.641.293.975.432.48.2 1.022.407 1.711.654l.35.128c.181.067.362.135.551.197.932.307 1.87.583 2.79.819.127.033.261.06.394.09.115.026.23.05.344.079.85.204 1.617.37 2.348.51.294.056.594.106.895.156l.308.05a58.053 58.053 0 003.433.475c.694.075 1.456.14 2.325.203l.381.029c.275.02.55.042.831.057 1.272.067 2.443.1 3.578.102h.171a69.817 69.817 0 003.577-.102c.282-.015.556-.036.831-.057l.38-.03a66.93 66.93 0 002.327-.201 58.755 58.755 0 003.433-.475l.312-.052c.3-.05.597-.1.89-.155a49.673 49.673 0 002.348-.51c.114-.028.23-.053.345-.078.132-.03.266-.058.394-.092.918-.235 1.857-.51 2.788-.817.191-.063.371-.131.553-.198l.351-.13a34.468 34.468 0 001.71-.652c.34-.142.666-.29.993-.44.464-.213.93-.44 1.383-.678.333-.174.618-.323.89-.48.475-.273.91-.557 1.274-.8.096-.064.2-.125.302-.187l.108-.064.165-.127c3.31-2.372 5.06-5.178 5.06-8.114V74.953l-30.103 1-30.897-.006v18.567c0 2.936 1.75 5.742 5.061 8.114l.241.173zm25.916 8.247l-.1-.003a69.648 69.648 0 01-3.656-.105 34.332 34.332 0 01-.87-.061l-.37-.028a63.103 63.103 0 01-2.385-.212 61.898 61.898 0 01-3.526-.496l-.303-.051c-.314-.053-.629-.105-.936-.165a52.674 52.674 0 01-2.425-.536c-.1-.025-.202-.047-.305-.07-.154-.035-.309-.07-.457-.107a44.869 44.869 0 01-2.897-.866c-.21-.07-.414-.147-.615-.223l-.327-.121a38.196 38.196 0 01-1.793-.697c-.352-.15-.69-.305-1.027-.462a30.24 30.24 0 01-1.486-.74c-.32-.171-.643-.342-.95-.521a23.612 23.612 0 01-1.372-.875 4.815 4.815 0 00-.225-.141 6.07 6.07 0 01-.398-.258l-.378-.302c-3.546-2.706-5.417-5.954-5.417-9.418V73.953h64v20.636c0 3.464-1.726 6.712-5 9.418v.007l-.378.295a5.872 5.872 0 01-.396.257 6.274 6.274 0 00-.227.143c-.387.262-.853.57-1.372.874-.29.17-.595.333-.9.496-.535.285-1.035.533-1.536.765-.337.157-.674.312-1.026.46a35.64 35.64 0 01-1.792.698l-.329.122c-.2.076-.403.153-.614.223a44.35 44.35 0 01-2.897.865c-.149.039-.303.073-.458.108-.102.023-.205.045-.305.07a52.36 52.36 0 01-2.424.536c-.307.06-.619.112-.933.165l-.305.05a56.972 56.972 0 01-3.527.497 63.17 63.17 0 01-2.385.212l-.37.028c-.289.023-.577.045-.872.06a69.6 69.6 0 01-3.658.106l-.078.003z"/><path fill="#2E383D" d="M90.21 36.318l-.348-.142-66.1 25.267v1.737L89.89 90.175l66.064-26.995.172-1.733z"/><path fill="#3A4349" d="M90.017 34.586l-.347-.142-66.101 27.003 66.128 26.996 66.064-26.996z"/><path fill="#F59D22" d="M135.235 114.028c-.507 0-.917-.411-1.474-.917V69.369l-40.217-7.021a.918.918 0 01.311-1.808l41.535 7.153c.441.076.762.457.371.904v44.514c.391.506-.019.917-.526.917"/><path fill="#F59D22" d="M145.743 111.126a.912.912 0 01-.648-.27l-9.86-9.858-9.859 9.858a.916.916 0 11-1.296-1.295l10.507-10.509a.917.917 0 011.297 0l10.507 10.508a.916.916 0 01-.648 1.566M89.697 58.358a3.089 3.089 0 00-3.086 3.086 3.089 3.089 0 003.086 3.085 3.09 3.09 0 003.086-3.085 3.09 3.09 0 00-3.086-3.086m0 8.005a4.925 4.925 0 01-4.92-4.92 4.925 4.925 0 014.92-4.92 4.925 4.925 0 014.92 4.92 4.925 4.925 0 01-4.92 4.92"/></g></svg><svg viewBox="0 0 103 71" id="logo-csclub" xmlns="http://www.w3.org/2000/svg"><g fill="none" fill-rule="evenodd"><path fill="#010101" fill-rule="nonzero" d="M60.882 35.522h4.767a7.66 7.66 0 00-.05 1.426h-.232a.99.99 0 000-.073c.02-.25.02-.5 0-.75a2.617 2.617 0 00-.809-.169H62.83v2.514h1.655c.113.015.229.015.343 0a.195.195 0 00.074-.12c.008-.102.008-.203 0-.303v-.29h.22V39.8h-.22v-.279a3.514 3.514 0 000-.386.21.21 0 00-.086-.109.96.96 0 00-.344-.072H62.88v2.694h2.28c.185-.018.366-.063.54-.133.053-.162.098-.328.134-.495.06-.254.098-.423.11-.484h.221c-.042.229-.07.459-.086.69v.845H61.605v-.157l.318-.169c.053-.266.074-.539.062-.81v-4.544c.009-.1.009-.201 0-.302a.372.372 0 000-.133l-.098-.06H61.3v-.374h-.417zm-3.517 0H60.037v.229h-.503a.62.62 0 00-.258.072.326.326 0 00-.11.243 3.894 3.894 0 000 .518v4.085a6.158 6.158 0 000 .677c.001.073.022.144.061.206a.332.332 0 00.173.084c.207.017.417.017.624 0v.23h-2.671v-.23h.576a.43.43 0 00.196-.073.356.356 0 00.086-.18 4.538 4.538 0 000-.641v-3.904c.011-.225.011-.45 0-.676a.386.386 0 00-.062-.206.33.33 0 00-.172-.085 4.134 4.134 0 00-.624 0v-.35h.012zm-.771 5.727l-.173.424a4.867 4.867 0 01-2.205.52 3.942 3.942 0 01-2.733-.944 3.16 3.16 0 01-1.054-2.416c-.041-.657.121-1.31.466-1.873a3.225 3.225 0 011.384-1.21 4.645 4.645 0 011.937-.386 6.01 6.01 0 011.225.133 5.31 5.31 0 011.005.315c-.112.414-.178.84-.196 1.269h-.22v-.786a2.554 2.554 0 00-.822-.411 3.392 3.392 0 00-1.004-.145 2.936 2.936 0 00-1.41.338c-.414.22-.75.556-.968.967a3.21 3.21 0 00-.343 1.547c-.01.561.128 1.116.404 1.608.26.45.64.818 1.103 1.063a3.461 3.461 0 001.642.374c.268 0 .535-.029.797-.084a2.809 2.809 0 001.128-.472l.085.097-.048.072zm-11.385-.809h.233c0 .242.02.486.061.725a.59.59 0 00.258.278c.172.112.362.194.563.241.232.063.471.095.71.097.305.004.606-.058.883-.18.254-.114.468-.3.612-.533.148-.232.224-.5.221-.773a1.199 1.199 0 00-.11-.532.886.886 0 00-.294-.362 1.299 1.299 0 00-.429-.206 7.548 7.548 0 00-.723-.145l-.723-.133a2.549 2.549 0 01-.527-.181 1.389 1.389 0 01-.44-.314 1.426 1.426 0 01-.283-.472 1.685 1.685 0 01-.11-.591 1.811 1.811 0 01.6-1.403 2.327 2.327 0 011.63-.555c.297.002.592.034.882.096.302.06.594.158.87.29a6.21 6.21 0 00-.122 1.209h-.246v-.69c0-.084-.146-.217-.428-.35a1.875 1.875 0 00-.883-.217c-.253 0-.504.053-.734.157-.23.1-.415.276-.528.495a1.47 1.47 0 00-.171.69c-.003.167.035.333.11.482.066.13.163.242.283.327.118.083.25.144.39.182.148 0 .43.084.822.144.42.04.832.133 1.226.278.249.109.458.29.6.52.155.26.232.556.22.858a2.017 2.017 0 01-.82 1.691 3.002 3.002 0 01-1.961.653 3.954 3.954 0 01-1.691-.338c0-.194 0-.641.074-1.354l-.025-.084zm49.36-16.073h3.223a2.265 2.265 0 011.593.423c.27.265.42.627.417 1.003a1.56 1.56 0 01-.209.761c-.144.26-.35.479-.601.64-.337.204-.712.34-1.103.4l.466.616.662.859.686.906c.136.2.297.382.478.543a.61.61 0 00.184.073h.245v.218h-1.25a33.76 33.76 0 01-1.017-1.342 31.53 31.53 0 00-1.643-2.042v-.146h.381c.442.016.875-.12 1.225-.386.309-.267.476-.66.453-1.063a1.08 1.08 0 00-.404-.919 1.794 1.794 0 00-1.103-.314 3.086 3.086 0 00-.919.133 9.073 9.073 0 00-.074 1.728v3.02a6.63 6.63 0 000 .678.43.43 0 00.074.206.335.335 0 00.172.084c.203.017.41.017.612 0v.23H94.446v-.23h.576a.405.405 0 00.196-.073.343.343 0 00.086-.181 4.061 4.061 0 000-.64v-4.568a.395.395 0 00-.061-.206.329.329 0 00-.171-.084 3.928 3.928 0 00-.626 0v-.23l.123-.097zm-5.92 0H93.418c-.1.454-.156.914-.172 1.378h-.232v-.073c.02-.25.02-.5 0-.749a2.588 2.588 0 00-.81-.17h-1.728v2.55h1.655c.114.016.23.016.343 0a.194.194 0 00.074-.12c.009-.1.009-.202 0-.302v-.29h.22v2.042h-.208v-.278a3.514 3.514 0 000-.386.204.204 0 00-.086-.11.963.963 0 00-.343-.071h-1.592v2.706h2.278c.186-.018.368-.062.539-.132.055-.163.1-.329.136-.496.06-.254.097-.423.11-.483h.22c-.041.227-.07.457-.085.688v.846h-4.474v-.23l.319-.169c.053-.266.074-.538.061-.81v-4.495c.01-.1.01-.201 0-.302a.336.336 0 000-.133l-.097-.06h-.589v-.23l-.306-.121zm-.808 0v1.438h-.183v-.422a3.973 3.973 0 000-.411.194.194 0 00-.074-.109.823.823 0 00-.307 0H85.82v5.51a.412.412 0 00.06.206.359.359 0 00.172.084c.208.018.417.018.625 0v.23h-2.659v-.23h.576a.423.423 0 00.196-.072.37.37 0 00.086-.181 3.676 3.676 0 000-.64v-4.836h-1.63c-.209 0-.33 0-.356.098-.055.16-.083.327-.086.495l-.049.326h-.22v-1.437h5.405l-.099-.049zm-13.149 0h2.672v.278h-.503a.634.634 0 00-.257.073.324.324 0 00-.11.241c-.01.173-.01.347 0 .52v3.577c.014.195.06.387.135.568.068.156.173.292.306.399.175.131.375.226.588.278.284.075.577.112.87.109.324 0 .647-.048.956-.146.259-.072.492-.215.674-.41a1.4 1.4 0 00.306-.702c.056-.4.08-.804.074-1.208v-2.38a3.099 3.099 0 000-.725.29.29 0 00-.16-.145 2.618 2.618 0 00-.66 0v-.218h2.204v.17h-.575a.407.407 0 00-.185.072.331.331 0 00-.073.157 4.284 4.284 0 000 .604v2.417c.008.44-.013.88-.06 1.318a1.73 1.73 0 01-.295.797c-.148.203-.33.379-.539.52a2.455 2.455 0 01-.796.326c-.33.073-.668.11-1.006.108a4.254 4.254 0 01-1.151-.145 2.18 2.18 0 01-.785-.374 1.482 1.482 0 01-.416-.496 1.834 1.834 0 01-.16-.604V24.935a.412.412 0 00-.061-.205.332.332 0 00-.281-.085 4.146 4.146 0 00-.626 0v-.229l-.086-.049zm-5.87 0h3.186c.365-.008.728.037 1.08.133.28.086.529.255.71.484.19.246.29.548.281.858 0 .276-.067.55-.195.797a1.978 1.978 0 01-.552.653c-.213.168-.453.299-.71.386-.242.08-.494.121-.748.121-.218 0-.435-.02-.65-.06l-.073-.278c.185.043.374.068.564.072.37.021.732-.126.98-.398.25-.28.382-.643.367-1.016a1.317 1.317 0 00-.38-.99 1.61 1.61 0 00-1.163-.375 3.18 3.18 0 00-.932.157V29.65a5.733 5.733 0 000 .676.412.412 0 00.062.205.35.35 0 00.172.085c.207.018.416.018.624 0v.23H68.774v-.23h.576a.44.44 0 00.196-.072.354.354 0 00.085-.181 4.286 4.286 0 000-.64V25.66a6.63 6.63 0 000-.677.377.377 0 00-.061-.206.323.323 0 00-.171-.084 3.917 3.917 0 00-.625 0v-.23l.049-.097zm-.771 0v.278a3.237 3.237 0 00-.638 0 .28.28 0 00-.171.12.778.778 0 000 .34v4.555a2.703 2.703 0 000 .677.27.27 0 00.16.133c.219.025.441.025.66 0v.23h-2.621v-.012c.211.02.425.02.637 0a.282.282 0 00.171-.122.774.774 0 000-.337V25.31l-1.532 3.323c-.4.806-.751 1.587-1.053 2.344h-.184a24.15 24.15 0 00-.429-.942l-2.23-4.568v4.255c-.03.223-.03.45 0 .675.034.063.091.11.159.133.22.027.442.027.661 0v.217h-2.205v-.217c.212.02.426.02.637 0a.301.301 0 00.172-.12.724.724 0 000-.327v-4.519c.027-.23.027-.46 0-.689a.276.276 0 00-.16-.145c-.2-.052-.405-.08-.612-.085v-.241h1.764c.262.595.51 1.13.748 1.607l1.764 3.625 1.594-3.275c.432-.886.723-1.522.87-1.91H68.014l.037-.084zm-15.306 2.985c.005.41.067.816.184 1.208.108.404.295.781.552 1.112.225.29.514.526.845.69a2.721 2.721 0 002.378-.098 2.05 2.05 0 00.857-1.014 3.89 3.89 0 00.294-1.547 4.039 4.039 0 00-.33-1.68 2.236 2.236 0 00-.956-1.088 2.817 2.817 0 00-1.385-.29 2.323 2.323 0 00-1.79.7 2.921 2.921 0 00-.649 2.032v-.025zm-.968.302a4.032 4.032 0 01.196-1.281c.144-.411.378-.786.686-1.1.327-.34.723-.61 1.164-.784a4 4 0 011.544-.279 3.623 3.623 0 012.524.858c.646.604.991 1.456.944 2.332.01.65-.151 1.29-.465 1.862a3.202 3.202 0 01-1.348 1.293 4.033 4.033 0 01-1.937.46 3.826 3.826 0 01-1.396-.254 2.878 2.878 0 01-1.091-.75 3.025 3.025 0 01-.65-1.208 4.059 4.059 0 01-.196-1.21l.025.06zm-.723 2.417l-.171.423a4.863 4.863 0 01-2.206.52c-.982.033-1.94-.299-2.684-.93a3.147 3.147 0 01-1.054-2.418 3.206 3.206 0 01.527-1.824 3.225 3.225 0 011.385-1.21 4.645 4.645 0 011.937-.386c.411.002.822.047 1.225.133.344.072.681.177 1.004.315a5.777 5.777 0 00-.195 1.269H50.6v-.786a2.545 2.545 0 00-.822-.411 3.396 3.396 0 00-1.004-.144 2.954 2.954 0 00-1.41.337c-.413.22-.75.557-.967.967a3.21 3.21 0 00-.344 1.547c-.01.561.129 1.116.405 1.607.259.45.64.819 1.103 1.064a3.459 3.459 0 001.642.374c.267.003.534-.022.796-.072.22-.04.433-.105.637-.193.172-.077.337-.17.49-.278l.074.096h-.147zm16.09 22.72c.24.054.488.084.735.084.359.019.717-.052 1.042-.205.242-.136.435-.342.552-.593.121-.252.184-.529.183-.809a1.462 1.462 0 00-.38-1.064 2.366 2.366 0 00-1.642-.399h-.502v2.973l.012.012zm0-3.348h.527c.475.048.954-.07 1.347-.338.258-.242.397-.581.381-.93a1.13 1.13 0 00-.123-.57.903.903 0 00-.454-.374 2.208 2.208 0 00-.845-.133 3.748 3.748 0 00-.76.073v2.26l-.073.012zm-1.68-2.417v-.23h3.04c.335-.012.67.03.993.121.236.083.441.235.588.435.148.208.225.459.22.713a1.423 1.423 0 01-.367.943 2.169 2.169 0 01-1.226.628c.282.02.56.065.833.133.205.051.396.142.565.266.164.123.295.286.38.472.093.21.139.436.134.664a2.149 2.149 0 01-.097.605 1.779 1.779 0 01-.345.615 2.37 2.37 0 01-.6.52 2.72 2.72 0 01-.722.314c-.302.07-.61.103-.92.096h-2.12v-.277c.11-.044.212-.1.307-.169.056-.267.08-.539.073-.81V47.57c.006-.1.006-.2 0-.3a.23.23 0 000-.135l-.11-.06h-.588l-.037-.048zm-7.694-.266H60.44v.23h-.502a.625.625 0 00-.258.072.326.326 0 00-.11.242c-.01.173-.01.347 0 .52V51.4c.015.196.06.388.134.569.069.155.174.292.306.399.176.131.376.225.59.277.282.075.575.112.869.11.324 0 .647-.05.956-.146a1.46 1.46 0 00.673-.41c.166-.202.273-.445.307-.703.056-.4.08-.803.074-1.207v-2.368a3.206 3.206 0 000-.726.297.297 0 00-.16-.146 2.702 2.702 0 00-.661 0v-.216H64.865v.216h-.577a.413.413 0 00-.183.073.332.332 0 00-.086.158 4.297 4.297 0 000 .604v2.417c.007.44-.014.88-.06 1.317-.03.285-.132.56-.295.797-.148.204-.33.38-.54.52a2.474 2.474 0 01-.796.327c-.33.073-.667.11-1.005.108a4.263 4.263 0 01-1.152-.145 2.197 2.197 0 01-.784-.374 1.472 1.472 0 01-.416-.495 1.818 1.818 0 01-.16-.604V47.34a.425.425 0 00-.061-.207.351.351 0 00-.171-.085 4.146 4.146 0 00-.626 0v-.228l-.183-.061zm-6.042 0H54.4v.23h-.502a.625.625 0 00-.257.072.326.326 0 00-.111.242c-.01.173-.01.347 0 .52v4.954h2.464c.185-.02.366-.064.539-.133.061-.173.11-.35.147-.53.06-.28.098-.437.098-.485h.245c0 .122 0 .362-.074.713s0 .64 0 .859h-4.705v-.158l.319-.181a3.145 3.145 0 000-.592v-4.942a.389.389 0 00-.062-.207.336.336 0 00-.171-.084 3.983 3.983 0 00-.613 0v-.23l.012-.048zm-.674 5.68l-.171.423a4.847 4.847 0 01-2.206.52 3.947 3.947 0 01-2.683-.943 3.141 3.141 0 01-1.054-2.417 3.208 3.208 0 01.526-1.825 3.217 3.217 0 011.385-1.208 4.632 4.632 0 011.936-.387 5.89 5.89 0 011.225.133c.345.071.683.176 1.005.313-.112.416-.178.841-.196 1.27h-.22v-.786a2.586 2.586 0 00-.821-.41 3.457 3.457 0 00-1.005-.146 2.951 2.951 0 00-1.409.338c-.413.22-.75.558-.969.968a3.196 3.196 0 00-.342 1.547 3.148 3.148 0 00.404 1.607c.26.45.64.818 1.103 1.063.507.259 1.07.387 1.641.375.268-.002.535-.03.797-.085.22-.04.433-.105.638-.193.172-.077.336-.17.49-.278l.073.096-.147.025zM82.13 35.57H86.898c-.1.453-.157.914-.172 1.377h-.233a.99.99 0 000-.072c.02-.25.02-.5 0-.75a2.593 2.593 0 00-.809-.169H83.957v2.514h1.654c.114.015.23.015.343 0a.193.193 0 00.074-.121c.009-.1.009-.201 0-.302v-.29h.22V39.8h-.22v-.279a3.514 3.514 0 000-.386.205.205 0 00-.086-.109.96.96 0 00-.344-.073h-1.592v2.695h2.279a1.91 1.91 0 00.54-.133c.053-.163.098-.328.133-.495.062-.254.099-.424.111-.483h.22c-.04.227-.069.458-.085.688v.846H82.731v-.157l.319-.169c.053-.267.073-.539.062-.81v-4.544c.009-.1.009-.201 0-.302a.372.372 0 000-.133l-.356-.06h-.588v-.375l-.038.048zm-.845 5.68l-.171.423a4.856 4.856 0 01-2.207.52 3.945 3.945 0 01-2.732-.943 3.162 3.162 0 01-1.054-2.417 3.211 3.211 0 01.527-1.837 3.224 3.224 0 011.385-1.209 4.645 4.645 0 011.937-.386 5.949 5.949 0 012.23.447c-.113.414-.178.84-.196 1.268h-.221v-.785a2.554 2.554 0 00-.822-.41 3.388 3.388 0 00-1.004-.146 2.934 2.934 0 00-1.41.339c-.413.22-.75.556-.967.966a3.207 3.207 0 00-.344 1.547 3.16 3.16 0 00.405 1.607c.259.45.641.82 1.103 1.064a3.459 3.459 0 001.642.375c.268-.001.535-.03.796-.085.22-.041.433-.106.638-.194.171-.077.335-.17.49-.277l.073.096-.098.037zm-14.362.81v-.254h.453a.347.347 0 00.221-.098.44.44 0 00.062-.204V36.367a.57.57 0 00-.087-.35.376.376 0 00-.232-.145 3.007 3.007 0 00-.502 0v-.218h1.617l1.483 1.898 2.181 2.707c.262.33.531.64.81.93v-5.052a.334.334 0 00-.087-.192.46.46 0 00-.22-.073h-.442v-.218h1.079l.92-.133v.218a3.116 3.116 0 00-.48 0 .295.295 0 00-.208.096.502.502 0 000 .206v6.006a7.764 7.764 0 00-.809-.193l-.33-.387-.993-1.208-3.161-3.892v4.279a5.72 5.72 0 000 .652.359.359 0 000 .157c.044.04.1.07.159.085.17.018.344.018.515 0v.217a6.53 6.53 0 00-.785 0h-1.225l.061.302zM21.485 25.237a10.907 10.907 0 00-8.382-2.9C6.18 23.05 1.35 30.917 2.307 39.883c.956 8.967 7.352 15.71 14.264 14.949a9.056 9.056 0 003.921-1.27c-.87.504-1.873.74-2.88.677-5.196.146-9.631-6.767-10.526-15.214-.895-8.447 1.225-15.77 6.531-15.976a11.25 11.25 0 017.868 2.188"/><path stroke="#010101" stroke-width=".552" d="M21.485 25.238a10.907 10.907 0 00-8.382-2.9C6.18 23.05 1.35 30.917 2.307 39.883c.956 8.967 7.352 15.71 14.264 14.949a9.056 9.056 0 003.921-1.27c-.87.504-1.873.74-2.88.677-5.196.146-9.631-6.767-10.526-15.214-.895-8.447 1.225-15.77 6.531-15.976a11.25 11.25 0 017.868 2.188z"/><path fill="#010101" fill-rule="nonzero" d="M26.962 22.518c1.697.092 3.36.502 4.902 1.208 5.649 2.6 8.578 9.04 7.806 16.182-1.03 8.906-7.402 15.637-14.313 14.949a9.069 9.069 0 01-3.872-1.293c.87.503 1.873.739 2.88.676 5.196.145 9.631-6.767 10.526-15.214.686-6.465-.405-12.278-4.154-14.768a8.026 8.026 0 00-4.216-1.28c-4.742-.23-6.948-3.42-6.752-7.251.196-3.832 2.696-6.683 5.6-6.538a4.567 4.567 0 013.284 1.74 4.701 4.701 0 00-3.112-1.414c-2.205-.254-3.579 2.634-3.774 6.2-.197 3.564 1.225 6.707 5.195 6.803"/><path stroke="#010101" stroke-width=".552" d="M26.962 22.518c1.697.092 3.36.502 4.902 1.208 5.649 2.6 8.578 9.04 7.806 16.182-1.03 8.906-7.402 15.637-14.313 14.949a9.069 9.069 0 01-3.872-1.293c.87.503 1.873.739 2.88.676 5.196.145 9.631-6.767 10.526-15.214.686-6.465-.405-12.278-4.154-14.768a8.026 8.026 0 00-4.216-1.28c-4.742-.23-6.948-3.42-6.752-7.251.196-3.832 2.696-6.683 5.6-6.538a4.567 4.567 0 013.284 1.74 4.701 4.701 0 00-3.112-1.414c-2.205-.254-3.579 2.634-3.774 6.2-.197 3.564 1.225 6.707 5.195 6.803z"/></g></svg><svg viewBox="0 0 96 71" id="logo-fml239" xmlns="http://www.w3.org/2000/svg"><g fill="#1D1D1D"><path d="M59.973 27.517l.09.091.635.413c1.133.826 2.356 1.789 3.715 2.156.906.23 1.223.091 2.039-.092-.09-.092-.317-.183-.634-.504-.227-.184-.408-.322-.635-.505-.906-.734-1.767-1.33-2.99-1.56-.906-.183-1.495-.091-2.22 0zm-19.845-6.192l1.314-.184-.181.322c-.181.229-.499.733-.59 1.009l1.134-.505-.182 1.33.317-.413c.091-.091.182-.32.318-.32l.09 1.33c.227-.23.227-.322.317-.643 0-.183.182-.642.227-.734l.317.734.227.596c0 .092.09.092.09.184.09-.092.09-.092.09-.184v-.504c0-.183-.09-.505 0-.734.227.184.816.642 1.134.734l-.59-1.009 1.133.321-.181-.23c-.181-.183-.498-.504-.589-.733h.816V21.6l-.227-.23c-.09-.09-.317-.183-.408-.32.317 0 .906.091 1.224 0 .18 0 .226 0 .317-.092l-.09-.092c-.318-.183-1.224-.183-1.36-.412.317-.322.181-.184.589-.413.181-.092.498-.23.589-.413-.09 0-1.133.23-1.223.23-.182 0-.182-.092-.182-.092l.635-1.33-.318.091c-.407.184-.589.734-1.042.596 0-.32.499-1.009.318-1.238-.227.23-.227.321-.408.642-.09.184-.227.596-.499.596l-.226-.917c-.09-.183-.181-.734-.408-.734l-.09 1.468c-.091.092-.091 0-.091 0-.227 0-.997-.826-1.042-.917.226.412.317.596.589 1.009.09.183.181.183.181.32h-.816c-.18 0-.634-.183-.724-.183.226.184 1.042.642 1.042.918l-1.722.091.634.321c.181.092.59.184.635.23l-.997.504c-.09.092-.09.046-.09.092zm2.628-1.789c.725-.183 1.314.413 1.36 1.01.18.733-.318 1.33-.907 1.467-.725.183-1.314-.321-1.36-1.01-.09-.733.318-1.283.907-1.467zM41.85 60.172V58.75h-6.162c2.175-1.834 4.576-3.715 5.573-6.512.09-.321.136-.688.136-1.055 0-.872-.317-1.514-.952-1.972-.634-.459-1.54-.734-2.582-.734-.453 0-.952.046-1.36.23-.407.137-.77.366-1.087.595-.317.276-.544.55-.68.78-.135.275-.271.596-.271.872 0 .32.045.596.226.733a.913.913 0 00.634.276c.318 0 .59-.092.725-.23.136-.137.272-.32.272-.55 0-.23-.045-.459-.09-.688-.046-.23-.091-.413-.136-.642.136-.275.362-.413.68-.596.316-.138.634-.23.996-.23.59 0 .997.138 1.36.459.362.32.543.78.543 1.513 0 .46-.045.78-.09 1.055-.272 2.844-3.897 5.458-5.166 6.926v1.1h7.476v.092h-.045zM58.432 53.11c0-1.285-.227-2.248-.634-2.982-.408-.688-.952-1.055-1.631-1.055-.635 0-1.178.275-1.54.872-.363.55-.59 1.33-.59 2.293 0 .871.227 1.605.59 2.155.407.55.95.78 1.585.78.408 0 .77-.046 1.178-.23.362-.137.68-.412.951-.733v-.092-.275-.275c.091-.23.091-.321.091-.459zm1.722.137c0 .963-.136 1.834-.408 2.66a6.978 6.978 0 01-1.269 2.201c-.543.642-1.223 1.101-1.948 1.56a6.808 6.808 0 01-2.582.78l-.136-.734.725-.092c1.178-.367 2.038-.917 2.673-1.697.634-.734 1.042-1.697 1.268-2.89-.407.367-.906.643-1.314.872-.407.137-.951.275-1.495.275-.906 0-1.63-.321-2.265-1.009-.635-.688-.952-1.56-.952-2.614 0-1.1.363-2.064 1.088-2.844.725-.734 1.676-1.192 2.718-1.192 1.224 0 2.175.413 2.855 1.284.634.734 1.042 1.926 1.042 3.44zm-17.036 4.77c0 .32.09.596.272.917.136.275.362.55.68.734.317.183.679.367 1.041.55.408.092.907.23 1.36.23 1.223 0 2.265-.322 3.126-.964.86-.642 1.223-1.513 1.223-2.522 0-.55-.09-.963-.272-1.33-.136-.367-.407-.642-.68-.872a2.427 2.427 0 00-.905-.458c-.318-.092-.68-.138-.952-.23v-.091c.453-.092.861-.321 1.178-.55.317-.23.59-.414.725-.689.136-.23.317-.458.363-.734.045-.275.09-.55.09-.78 0-.229-.045-.458-.136-.779-.09-.321-.272-.596-.453-.871-.272-.276-.589-.55-.997-.688-.407-.23-.951-.321-1.63-.321-.59 0-1.043.045-1.541.229-.408.138-.77.367-1.088.642-.317.275-.543.55-.68.78a2.077 2.077 0 00-.226.871c0 .275.046.459.227.688.09.23.317.321.634.321s.59-.046.725-.275c.136-.138.272-.321.272-.55 0-.23-.045-.46-.09-.688-.046-.276-.091-.459-.137-.642l.227-.23c.09-.092.226-.137.317-.275.09-.046.272-.092.408-.23.136-.045.408-.091.68-.091.588 0 .996.138 1.313.55.318.321.453.872.453 1.56 0 .871-.135 1.422-.453 1.88-.317.413-.86.642-1.585.642h-.68v.918h1.042c.408 0 .77.045 1.087.137.272.092.544.275.68.459.136.23.272.458.317.734.046.275.09.596.09.871 0 .55-.044.963-.226 1.33-.09.321-.317.642-.543.872a2.37 2.37 0 01-.77.55c-.318.138-.59.138-.952.138-.317 0-.634 0-.77-.046-.227-.046-.363-.092-.544-.23a.985.985 0 01-.362-.229l-.227-.23c.045-.091.045-.32.09-.596.046-.275.091-.458.091-.642 0-.229-.09-.367-.272-.55a1.062 1.062 0 00-.725-.275c-.271 0-.453.092-.634.32-.09.276-.181.46-.181.735zM60.948 28.941c-.092-.182-.737-.912-.829-1.05-1.059-1.049-2.624-1.642-4.19-1.14 0 .502.507.912.737 1.05.322.228.737.501 1.15.73 1.014.319 1.981.501 3.132.41zm-.645-3.194c1.336.32 3.132.41 4.56.228 1.427-.182 2.9-.32 4.143-.913-.414-.182-1.473-.82-2.072-1.003-1.657-.32-3.776.82-5.525 1.323l-1.106.365zm-8.426-4.837l-.507.41c-.184.092-.506.229-.598.411l1.657-.228-.092.183c-.092.182-.644.912-.598 1.14l.598-.501c.092-.092.415-.411.645-.411l.092 1.369c.23-.41.184-.32.322-.73.093-.183.185-.64.23-.822l.323.228c.184.183.414.913.645.913l-.092-1.323c.322 0 .644.912 1.013.73.092-.091 0-.183 0-.228-.185-.41-.599-1.004-.599-1.232l1.335.32c-.23-.183-1.15-.64-1.15-.731l1.565-.593-1.474-.091c.323-.183.645-.32 1.013-.594l-1.15-.091.414-.502c.184-.182.322-.32.322-.502l-1.06.228c.185-.182.6-.639.6-.821-.323.182-.6.228-.922.502-.322.228-.414.32-.506.32-.092-.32.184-1.005 0-1.324l-.599 1.369c-.184-.41-.23-.639-.414-1.05-.092-.182-.092-.228-.23-.228l-.092 1.37-.415-.411c-.092-.183-.184-.411-.322-.411l.23 1.232-1.151-.593.322.73c.184.228.415.502.323.639l-1.336-.183 1.06.593-1.244.594 1.842.319zm1.381-1.688c.737-.183 1.244.502 1.336 1.05.092.73-.415 1.322-1.013 1.368-.737.091-1.244-.502-1.336-1.05-.046-.73.46-1.323 1.013-1.368zm5.572 6.114c1.75-.593 3.223-1.642 4.559-2.783-.092-.092-.415-.092-.599-.092-2.072 0-4.467 1.37-5.802 2.784 0 .183-.184.228-.23.41.46.183 1.658-.136 2.072-.319z"/><path d="M83.005 17.077l-1.796-.183.23-.228c.507-.502 1.151-1.323 1.566-1.87.23-.32.644-1.005.506-1.461-.092-.228-.23-.41-.506-.502h-.921c.092-.228.322-.593.506-.821.323-.594.83-1.232.83-1.871 0-.41-.231-.73-.6-.822-.644-.182-1.75.183-2.21.411l-1.15.502c-3.316 1.552-6.54 3.605-9.67 5.567-.507.32-.922.41-1.382.639-1.796.821-3.776 1.643-5.434 2.692-1.473.959-2.532 1.689-3.361 3.286-.092.045-.138.045-.23.091-.139.091-.277.137-.369.183 0 0-.046 0-.046.045v-.137c.184-1.46.092-3.194-.737-4.426-.23-.41-.506-.593-.736-.821-.185-.183-.323-.32-.599-.411h-.092c-.092-.091-.184-.091-.23-.183l-2.579-.502c.322-.638 3.546-2.053 3.868-2.372l.414-.411c-.184-.228-1.059-.228-1.381-.228-2.164 0-4.605.912-6.262 2.053-.921.64-1.013.822-1.658 1.643l-.829-.821c-.322-.32-.599-.594-.92-.822-1.336-1.05-2.902-1.87-4.606-2.19a19.471 19.471 0 00-1.473-.228h-1.52c0 .32.645.73.921.912.737.502 1.474 1.004 2.164 1.46.093.092.185.092.23.183.093 0 .185.091.23.183.185.09.231.228.415.41-.184 0-.414.092-.598.092-1.244.182-2.579.73-3.408 1.551l-.184.183c-.23.273-.506.775-.737 1.186-1.243 2.464-.23 6.16.83 8.67.091.183.506 1.05.506 1.14 0 .092-.092.183-.092.23l-.093.592c-.184 0-.322-.32-.414-.41-.322-.502-.599-1.232-.829-1.734-.322-.73-.737-1.37-1.013-2.282-.506-1.87-.829-3.194-2.072-4.563a3.525 3.525 0 00-.829-.822c-.322-.228-.644-.41-1.013-.638-1.658-1.05-2.578-1.552-4.282-2.282-1.151-.593-2.395-1.004-3.546-1.46-.184-.092-.322-.228-.506-.32-1.474-1.004-3.04-1.87-4.605-2.783-1.566-.913-4.973-2.784-6.677-3.194-1.151-.229-1.98.182-1.473 1.368.184.32.414.73.598 1.05l.645 1.004c-.415 0-1.013-.091-1.336.228-.092.091-.092.183-.184.32v.319l.092.228c.323.913 1.566 2.145 2.21 2.875-.598 0-1.243-.091-1.75.182-.506.32-.506.822-.183 1.324.414.639 1.335 1.369 1.98 1.87-.415.183-1.151.092-1.336.73-.184.64.507 1.142.737 1.324.507.41 1.151.913 1.796 1.232.092.091.23.091.322.183.092 0 .092.091.184.091.185.091.093 0 .185.091-.599.092-1.244.228-1.658.593-.507.411-.184 1.141.322 1.37l3.04 1.323c-.323.182-1.796.502-1.658 1.369.092.228.23.502.506.593.921.502 2.487.639 3.454.821-.092.092-.737.502-.921.594l-.23.228c-.323.41-.415 1.004.184 1.232.829.32 2.624.32 3.637.228-.414.32-1.15.821-1.243 1.369-.184 1.004 1.243.821 1.796.821.507 0 1.06-.091 1.566-.182-.23.091-1.244 1.232-.323 1.642.599.32 2.395-.182 3.04-.41l.644-.228c-.092.182-.184.228-.23.319-.23.32-.507.593-.645 1.004-.23.73.23 1.05 1.013.913.599-.183 1.06-.32 1.566-.594.506-.228.92-.593 1.381-.821 0 .091-.092.228-.184.32 0 .09-.092.228-.184.319-.092.182-.23.41-.322.639-.23.593.092 1.232.828 1.004.921-.32 1.796-1.004 2.579-1.552-.184.502-.645 1.05-.506 1.643.092.228.322.502.644.41.415 0 1.06-.501 1.382-.73.184-.182.414-.319.598-.502.184-.228.323-.319.507-.593l.506-.593c-.184.502-1.013 1.962-.506 2.464.598.639 1.98-.912 2.302-1.369.322-.502.599-1.004.829-1.551.23-.822.414-1.734.599-2.601l.506.228c0 .912 0 1.551.23 2.373.23.912.599 1.551 1.013 2.281.23.228.277.228.277.457 0 .41.092.73.23 1.05.092.319.23.592.414.912l.415.912-.23.229c-.323.228-.6.502-.83.73-.322.41-.644.73-.828 1.323 0 .183-.184.73-.092.913.092.228.322.593.506.593.645 0 1.151-.502 1.566-.593.092.182.23.41.414.502.184.182.507.182.737.09.414-.227.737-.592 1.013-.912.092 0 .23.183.322.228.323.229.507.64.921.822.599.182.83-.502.83-.913v-.502h.183c0 .183-.184.502-.184.822 0 .319.184.593.507.502.322-.092.828-.64 1.059-.913.322.091.598.913.92.913.737-.092.737-.502 1.06-.73.506.09 1.15.593 1.75.501.23 0 .506-.228.414-.593 0-1.232-.737-2.145-2.302-3.194.092-.183.598-1.004.736-1.734l.415-2.054c.092-.09.23-.182.322-.319.322-.32.737-.913.829-1.369l.322-2.555.323-.228c.092.182.184.593.184.82 0 .32.092.594.184.914.184 1.003.737 2.19 1.381 2.874.323.32.645.64 1.152 1.004.644.411 1.15 0 1.013-.821-.092-.228-.23-.593-.323-.821-.184-.411-.184-.502-.23-.64.507.822 1.243 1.552 2.625 2.191.23.183.829.502 1.151.228.414-.228.23-.912.092-1.232l-.322-.639.184.183c.645.593 1.75 1.14 2.486 1.369.415.091.645-.092.737-.41.184-.64-.322-1.37-.737-1.963.093.091.185.182.323.228.322.32 1.98 1.004 2.394 1.05.415.182.83.228 1.06 0 .322-.229.23-.594.091-.913-.322-.502-.322-.593-.736-1.05.644.32 2.9 1.05 3.73.73.644-.228.322-.912 0-1.323l-.323-.32c.737 0 1.98.64 3.131 0 .737-.592-.184-1.368-.644-1.733l-.599-.41c.737 0 1.013.09 1.98.09.599 0 1.335 0 1.796-.228.645-.32.506-.912.092-1.323l-1.335-.822c.322-.09.644-.09 1.013-.09.829-.092 1.98-.32 2.624-.64.645-.32.737-.912.185-1.323l-1.474-.73c.645-.228.921-.228 1.75-.593.598-.228 1.796-.73 2.072-1.324.092-.32-.092-.638-.23-.821-.415-.32-1.06-.502-1.566-.593l-.184-.091h.092l.599-.32c.644-.32 1.335-.821 1.888-1.232.23-.228.92-.73.736-1.323l-1.381-.73.184-.092c.415-.32.737-.639 1.151-1.004a2.79 2.79 0 00.737-.73c.184-.365.184-.958-.322-1.186zM38.753 33.094h.23c-.091.182-.184.32-.23.502-.092.228-.23.502-.322.593l.322-1.095zM12.967 9.73c1.381-.228 6.953 3.012 8.012 3.696l2.717 1.643c.599.32.599.32.737.73.644 1.37 1.243 2.601 1.98 3.925-.415-.092-1.796-.594-2.21-.64-.737-.227-1.382-.501-2.165-.82-.644-.32-1.381-.594-1.98-1.005-.92-.593-1.796-1.05-2.624-1.78a23.298 23.298 0 01-1.888-1.779c-.415-.502-.599-.639-1.013-1.232-.323-.456-1.566-2.19-1.566-2.738zm1.658 5.932l-.645-.73c-.184-.182-1.06-1.323-1.06-1.643.231-.182 1.014 0 1.244.092.23.09.23.182.415.32.414.592 1.059 1.14 1.565 1.642.323.32.599.593 1.013.821 2.901 2.282 6.125 3.514 9.67 4.518.415.091.23 0 .645.73-1.197-.091-3.776-.639-4.743-1.004-2.072-.593-4.052-1.46-5.802-2.692-.23-.183-.599-.411-.829-.64-.46-.501-.967-.82-1.473-1.414zm-1.658 1.734c.414-.228 1.75 0 2.21 0 .23 0 .507.32.737.502.23.183.507.32.737.502 2.21 1.46 4.374 2.373 6.999 2.966 1.381.32 2.717.593 4.19.73l.23.32c-2.9.182-6.354-.091-9.07-1.05-1.336-.502-2.395-1.004-3.408-1.734-.323 0-2.625-1.734-2.625-2.236zm2.901 4.929c-.507-.32-1.796-1.141-1.98-1.46.23-.092 1.381-.32 1.658-.183.414.228.736.502 1.243.73.92.41 1.75.821 2.809 1.14l6.953.913 2.164-.09.322.501-5.11.502c-2.165 0-3.96-.32-5.803-1.004-.875-.32-1.611-.639-2.256-1.05zm.184 2.829c-.322-.228-.506-.32-.737-.502.415-.32 2.21-.593 2.487-.593.184.09.506.182.737.228 2.302.73 4.88.912 7.275.639.599-.092 1.243-.092 1.796-.183l1.796-.228.23.32c-.184.182-1.335.501-1.658.593-3.13 1.05-6.308 1.551-9.531.638a13.647 13.647 0 01-2.395-.912zm3.223 3.468l-1.98-.593c0-.092 0-.092.093-.092l.092-.091c.506-.32 1.335-.593 1.888-.73.322-.091.23-.091.598-.091 2.164.32 4.375.09 6.355-.411 1.335-.32 2.486-.73 3.776-1.14l.23.41c-.184.182-1.75.912-1.888 1.004-2.072 1.14-4.375 1.962-6.861 1.962-.69 0-1.75-.091-2.303-.228zm2.717 2.6c-.184 0-1.888-.182-2.164-.227.184-.32 2.164-1.324 2.487-1.37 1.15-.09 2.21-.227 3.315-.593l5.387-2.372.415.502c-.23.228-1.658 1.232-1.888 1.46-.645.41-1.335.912-2.072 1.232-1.704.821-3.408 1.369-5.48 1.369zm.875 2.145h-.23c.184-.319 2.072-1.642 2.302-1.78.23-.09.645-.182 1.06-.319 1.335-.502 2.578-1.14 3.637-1.87.414-.229.737-.502 1.06-.73.506-.411.506-.411 1.058-.73l.415.592-.921.913c-1.566 1.552-3.131 2.875-5.434 3.605-.598.137-1.934.41-2.947.32zm5.296.822c-.737.41-1.888.639-2.717.73.092-.32 1.151-1.14 1.473-1.46.092-.092.092-.092.23-.183 1.244-.593 2.58-1.369 3.546-2.281.184-.183.322-.229.415-.411.184-.183.736-.73.92-.821l1.06-.64c.092.183.322.32.414.411-.092.183-1.013 1.232-1.06 1.37l-.413.41c-.093.091-.093.183-.185.228-.322.41-1.15 1.05-1.565 1.37-.553.547-1.29.957-2.118 1.277zm2.486 1.369c-.506.182-1.381.639-2.072.73.092-.228.737-1.004.92-1.232.093-.091.093-.183.185-.183.092-.09.184-.09.184-.182.507-.593 2.487-2.464 3.132-3.012l.184-.182c.092-.092.184-.092.184-.183.322-.32.645-.593 1.013-.821l.414.32c-.092.227-1.013 1.55-1.059 1.779-.875 1.186-1.934 2.327-3.085 2.966zm3.96-.41c-.598.638-1.151 1.231-1.98 1.642-.184.091-.645.41-.829.41.23-.82 2.395-3.376 3.04-4.152.322-.41.736-.913 1.058-1.323l.415.228c0 .228-.599 1.369-.737 1.734-.23.593-.645 1.05-.967 1.46zm2.993-.548c-.414 1.05-.829 1.551-1.565 2.372-.323 0-.921.502-1.244.64.092-.32.507-1.005.645-1.233.23-.41.507-.821.737-1.14a28.495 28.495 0 011.565-2.282l.323.182c0 .32-.415 1.141-.46 1.46zm2.026 0a6.932 6.932 0 01-1.059 2.19c-.23.32-.598.639-.829.821.185-.821 1.796-3.696 2.165-4.426 0 .32-.185 1.095-.277 1.415zm29.655-15.47c.598-1.004 1.243-2.373 1.657-3.376.23-.64.185-.502.645-.822.322-.182.599-.41.921-.593.599-.32 1.243-.73 1.796-1.05a71.613 71.613 0 013.73-2.053l4.19-1.552c.092.594-1.796 3.103-2.21 3.605-2.579 3.012-6.032 4.929-9.808 6.07-.323 0-.737.182-1.152.228.093-.137.185-.32.23-.457zm-.875 1.689c.184-.228.092-.228.414-.32.323-.091.737-.182 1.06-.32 3.13-.912 5.94-2.144 8.426-4.152.092-.09.645-.593.737-.639l.736-.638c.415-.411.737-.822 1.152-1.324.092-.091.092-.091.23-.091l1.243-.091c0 .32-.598 1.004-.829 1.323-.23.228-.736.913-1.013 1.14l-.184.183c-2.809 3.012-7 4.518-11.143 5.248-.23 0-.737.183-1.152.183.139-.137.23-.411.323-.502zm-15.196-4.153c2.164-.182 3.868 1.552 3.96 3.514.092 2.053-1.473 3.924-3.453 4.015-2.164.183-3.776-1.551-3.96-3.513-.185-2.145 1.473-3.833 3.453-4.016zM48.47 21.23l.23.32 1.06 1.87c.184.32.184.183-.092.822-.046.046-.093.183-.23.456l-.6 1.643c-.276.685-.506 1.323-.552 1.37-.092-.092-1.335-3.195-1.381-3.423-.23-.64-.184-.32.598-1.552.185-.228.323-.502.507-.73l.46-.776zm-5.11-4.745c2.21-.229 3.867 1.46 4.143 3.422.23 2.19-1.381 3.924-3.407 4.107-2.21.32-3.96-1.369-4.144-3.377-.139-2.099 1.52-3.879 3.407-4.152zM40.64 28.302c-.23.183-.23.183-.506 0-.23-.182-.599-.502-.599-.912.184-.092 1.336-.64 1.658-.822 1.151-.593 2.486-1.14 3.73-1.323l2.21-.228.414 1.14c-.414-.09-1.98.229-2.486.32a29.89 29.89 0 00-2.164.639c-.645.228-1.336.593-1.888.913-.138.09-.277.182-.369.273zm6.355 16.291c-.23-.228-.645-.821-1.013-.821-.323 0-.645.638-.921.821-.092.091-.322.091-.415 0-.184 0-.414-.502-.506-.639-.23-.228-.507 0-.737.183-.184.09-.184.182-.322.228-.092 0-.322.228-.415.228-.322-.183-.092-.639 0-.821.415-.822 1.75-2.054 2.901-1.643.23.091.599.32.737.41.415.32.737.73 1.06 1.324.091.182.091.182.091.41-.046.366-.138.64-.46.32zm1.059-5.43c-.829-1.05-1.013 2.783-2.487 1.232-.506-.502-.736-1.232-1.059-1.871-.092-.228-.23-.41-.23-.73 0-1.05 1.335.32 1.474.593.506.593.828-.593 1.473-1.14.507-.411 1.013.182 1.243.41.23.32.599.821.83 1.05.598.501.828-.183 1.058-.594.23-.182.645-.821 1.06-.821.506.502-.737 2.373-.922 2.692-1.105 1.734-1.611.183-2.44-.821zm5.065 5.339c0 .228-.737-.092-.92-.183-.231-.182-.507-.41-.6-.502-.23-.091-.644 1.004-1.059.913-.184 0-.23-.183-.23-.228l-.23-.228c-.645-.73-.829-.183-1.151.09 0 .183-.322.503-.507.503-.184-.593.323-1.37.599-1.734.23-.411.829-.822 1.566-.822.414 0 .644.092 1.013.183.69.182 1.657 1.186 1.52 2.008zm-2.256-7.849c-.829-.73-.921-3.742-2.21-.913-.23.64-.737 1.46-1.382.594-.23-.32-.506-.913-.737-1.324-.414-.73-.828-.091-1.013.41-.184.32-.322.64-.506.914-.599.593-1.243-.183-1.566-.73-.23-.183-1.013-1.46-1.013-1.78-.092-1.141 1.151 0 1.382.228.414.41.322.593 1.15-.228.738-.913 1.06-1.232 1.797.091 1.013 1.643 1.243.913 2.072-.182.184-.183.506-.594.736-.64.83-.319 1.014 1.05 1.474 1.141.322.092.645-.41.829-.501.092-.092.737-.64.92-.32.323.502-1.104 3.879-1.933 3.24zm3.223-6.343c-.184.502-.414 1.004-.645 1.323-.23.32-.598.822-1.059.913-.644.091-1.243-1.004-1.473-1.46-.092-.228-.23-.639-.507-.41-.506.41-1.013 2.555-1.888 1.642-.644-.639-.828-2.601-1.75-1.05-.184.32-.506 1.05-.92 1.05-.83 0-1.244-2.555-1.98-1.369-.23.41-.415 1.004-.645 1.323-.507.64-.829 0-1.151-.32-.23-.319-.599-.73-.737-1.231 0-.228-.414-1.232-.184-1.552.23 0 .506.411.645.594.322.319.828.912 1.243-.092.23-.502.598-1.551 1.151-1.232.599.32 1.151 1.46 1.473 1.962.415.594 1.014-1.003 1.06-1.323.092-.32.506-.913.92-.593.737.593 1.152 3.012 1.796 1.551.185-.502.645-1.323 1.06-1.551.736-.32.736 1.323 1.75 1.551.506.092.92-.182 1.243-.502.598-.502.184-.228.92-.821.185.41-.138 1.232-.322 1.597zm.322-3.012c-.092-.09-.184-.182-.322-.228-.414-.228-1.013-.502-1.473-.639l-3.592-.365c.046-.137.138-.273.23-.456a4.21 4.21 0 00.184-.593v-.091c.599 0 1.52.182 1.98.273.645.092 1.382.32 2.073.502.644.183.598.228.92.092.921-.502 1.474-.913 2.303-1.552a10.382 10.382 0 012.164-1.415c.092-.045.276-.136.46-.182.277-.137.553-.228.553-.228h.046c1.566-.502 2.901-.639 4.559-.593.092 1.14-1.013 1.642-1.888 2.053l-.645.32c.23.228.184.228.092.319.415-.091 1.658-.593 2.072-.73 1.75-.64 2.81-.73 4.56.182.321.183.598.411.828.594.23.182.599.41.829.638-.092.229-.83.73-1.151.913-.507.228-1.06.32-1.658.41-1.243.183-2.625.183-3.868.229 1.059.091 2.21.821 2.9 1.323.415.32.738.639 1.152 1.004.507.32.645.593 1.151 1.004-.322.183-1.888.593-2.302.593-.921.091-1.75-.091-2.487-.41-1.013-.502-1.795-1.141-2.624-1.78l-.921-.639c.092.183.644.639.736.821l.645.913c-.23.183-1.381.32-1.796.32a8.223 8.223 0 01-1.888-.229c-1.565-.639-2.809-1.369-3.822-2.373zm2.487 6.89c-.092-.09-.092-.227-.184-.319-.184-.228-.23-.41-.415-.638h.23c.139.273.323.638.369.958zm-.23 2.51c-.23-.228-.415-.638-.599-1.003a9.665 9.665 0 01-.645-2.464c.185.09.921 1.734 1.06 1.962a19.285 19.285 0 011.013 2.281c-.277-.09-.645-.502-.83-.775zm2.717-.045c-.645-.639-1.152-1.369-1.474-2.282-.092-.228-.184-.502-.23-.638-.092-.183-.23-.594-.23-.73l.184-.092c.506.639 1.796 2.692 2.21 3.377l.645 1.232c-.369-.228-.921-.73-1.105-.867zm2.578-.41c-1.243-.913-2.21-2.693-2.717-4.244l.185-.092.184.183.184.182c.092.092.184.183.23.32.507.639 1.06 1.232 1.566 1.87.322.411.644.822 1.013 1.324l.92 1.369c-.506-.091-1.335-.685-1.565-.913zm2.81-.822c-.507-.32-1.152-.821-1.567-1.323-.506-.594-.736-.913-1.243-1.552-.322-.593-.644-1.004-1.013-1.46-.092-.183-.184-.183-.184-.228l.184-.183.415.32c.184.09.23.228.414.319.184.091.23.228.414.32.093.09.23.228.415.319l.184.182c.737.64 2.717 2.556 3.223 3.103.415.502.415.411.737 1.004-.69-.091-1.52-.593-1.98-.821zm2.624-1.232c-.737-.32-1.382-.822-1.98-1.232-.092-.091-.184-.091-.23-.183-.093-.091-.185-.091-.23-.182-.231-.183-1.014-1.004-1.244-1.141l-1.474-1.734.323-.183-.092-.182c.092 0 .829.502 1.013.593 1.013.639 1.15 1.05 2.072 1.734.322.228 1.243.73 1.565 1.004l1.06.593c.23.183.644.593.92.73.093.092.185.092.23.183l.6.639c-.783 0-1.935-.411-2.533-.64zm5.295-.913c-1.059.091-2.809-.32-3.73-.73-.644-.32-1.473-.73-2.164-1.232a2.342 2.342 0 01-.598-.41c.184 0 .414 0 .598-.092.645-.091 1.382-.32 1.474-.32.092 0 .644.32.829.32.506.228 1.887 1.05 2.21 1.37l1.381 1.094zm2.81-2.373c-.231.183-1.336.183-1.659.183-.598 0-1.15 0-1.75-.183-.736-.09-1.473-.32-2.164-.593l-.644-.32c.092 0 .092 0 .184-.09h.092l.092-.092c-.184-.091-.23-.182-.322-.228-.23-.228-1.013-.821-1.151-1.05l-.507-.41c-.322-.091-.506-.228-.829-.502.323.091.645.228 1.06.41 1.012.411 2.302.822 3.407 1.05.23.091.414.091.598.183.185 0 .415.09.645.09.092 0 .921.412 1.06.412l1.887 1.14zm2.486-2.874l-3.776.638c-1.336 0-2.625-.228-3.868-.593a27.31 27.31 0 01-2.487-.912c-.092-.092-.644-.229-.737-.32.6-.091 1.06-.091 1.658-.228.415-.091.23-.183.737-.091.23.091.506.091.829.182l3.545.32c1.152 0 1.244-.183 2.303.182l1.796.822zm1.98-3.423c-.415.41-2.072 1.004-2.717 1.232-1.151.32-2.303.502-3.546.502a14.59 14.59 0 01-3.131-.32c-.184 0-.322 0-.414-.09l.23-.229c.184-.182.506-.593.644-.821h.415c1.566 0 2.993-.183 4.466-.502a6.585 6.585 0 011.014-.228c.414-.183.506-.183 1.059 0l1.98.456zm1.243-3.924c-.184.32-1.382 1.14-1.888 1.369-2.302 1.551-4.789 2.053-7.828 2.053h-.921c-.645 0-.414-.091-1.243-.593l-.599-.32c2.164-.09 4.144-.228 6.124-.73 1.336-.319 2.579-.73 3.73-1.369.184-.09 1.06-.593 1.151-.593l1.474.183zm.552-2.692c-.23.228-1.059.912-1.335 1.14-1.151.913-2.579 1.643-4.144 2.145-2.579 1.004-6.217 1.323-8.933 1.232l.23-.41c.322-.092.737-.092 1.059-.183.322-.091.645-.091 1.013-.183 3.638-.639 7-1.78 9.9-4.107.184-.182.184-.182.415-.228l2.21-.091c.092.183-.322.593-.415.685z"/></g></svg><svg viewBox="0 0 136 71" id="logo-gazprom" xmlns="http://www.w3.org/2000/svg"><defs><path id="ea" d="M0 .083h63.147V29.98H0z"/><path id="ec" d="M.025.031H3.74v22.315H.025z"/></defs><g fill="none" fill-rule="evenodd"><path d="M80.773 30.525c.551-2.675.814-3.344 1.378-3.89.426-.42.927-.618 1.653-.618.651 0 1.165.198 1.478.582.238.297.375.78.375 1.238 0 .186 0 .347-.037.57h-1.328c.038-.186.038-.334.038-.496 0-.396-.138-.718-.626-.718-.275 0-.476.087-.639.26-.35.36-.513.892-.964 3.072-.225 1.127-.376 2.043-.376 2.576 0 .483.188.755.639.755a.836.836 0 00.689-.322c.2-.235.325-.52.413-.904h1.34c-.188.892-.463 1.45-.977 1.895-.388.335-.839.508-1.59.508-.777 0-1.253-.26-1.54-.706-.226-.359-.301-.681-.301-1.214 0-.532.137-1.387.375-2.588m7.172-2.654h-1.411l.237-1.103h4.146l-.237 1.103h-1.412l-1.536 7.162H86.41zm4.996 2.832c.642 0 .945-.371 1.155-1.416.046-.232.093-.51.093-.72 0-.464-.186-.696-.711-.696h-.641l-.572 2.832h.676zm-1.12-3.935H93.7c.653 0 1.038.128 1.342.43.28.278.384.684.384 1.125 0 .29-.023.592-.093.964-.408 2.031-1.19 2.519-2.449 2.519h-.84l-.641 3.227h-1.236l1.656-8.265zm4.606 0h3.507l-.235 1.103h-2.197l-.52 2.45h1.89l-.235 1.09h-1.889l-.53 2.52h2.197l-.235 1.102h-3.506zm5.303 0h1.214l.709 4.272 2.58-4.272h1.215l-1.797 8.265h-1.34l1.112-5.13-1.871 3.284h-.747l-.405-3.308-1.125 5.154h-1.341zm7.445 0h1.29l-1.046 4.968 2.945-4.968h1.095l-1.728 8.265h-1.29l1.034-4.957-2.896 4.957h-1.131zm5.328 0h1.215l.708 4.272 2.58-4.272h1.215l-1.796 8.265h-1.341l1.113-5.13-1.872 3.284h-.746l-.405-3.308-1.126 5.154h-1.34zm6.094 3.757c.55-2.675.814-3.344 1.377-3.89.426-.42.927-.618 1.653-.618.652 0 1.165.198 1.478.582.238.297.376.78.376 1.238 0 .186 0 .347-.038.57h-1.327c.037-.186.037-.334.037-.496 0-.396-.138-.718-.626-.718-.275 0-.476.087-.638.26-.351.36-.514.892-.965 3.072-.225 1.127-.375 2.043-.375 2.576 0 .483.187.755.638.755a.836.836 0 00.689-.322c.2-.235.325-.52.413-.904h1.34c-.188.892-.463 1.45-.977 1.895-.388.335-.839.508-1.59.508-.777 0-1.253-.26-1.54-.706-.226-.359-.301-.681-.301-1.214 0-.532.138-1.387.376-2.588" fill="#0078C1"/><path d="M126.97 29.844c0 .5.224.697.791.697h.725l.607-2.67h-.752c-.725 0-1.054.325-1.278 1.335-.053.22-.093.44-.093.638zm-.738 1.474c-.527-.29-.685-.766-.685-1.312 0-.208.039-.464.118-.8.462-2.009 1.173-2.438 2.821-2.438h2.254l-1.885 8.265h-1.397l.791-3.436h-.738l-2.004 3.436h-1.53l2.255-3.715zm-45.72 11.489l2.85-4.017h1.544l-2.956 4.005 1.243 4.26h-1.518l-1.164-4.248zM80 38.79h1.387l-1.857 8.265h-1.387L80 38.79zm7.779 7.162c.634 0 .922-.36 1.142-1.416.046-.22.08-.51.08-.731 0-.464-.173-.697-.692-.697h-.646l-.565 2.844h.68zm-.485-7.162h3.622l-.22 1.103H88.3l-.415 2.113h.645c.646 0 1.027.139 1.327.44.277.28.38.674.38 1.127 0 .29-.034.661-.092.963-.403 2.032-1.176 2.52-2.422 2.52h-2.065l1.638-8.266zm8.309 1.193c0-.446-.163-.768-.662-.768-.25 0-.45.087-.625.26-.325.322-.512.905-.95 3.072-.224 1.115-.387 2.044-.387 2.564 0 .446.163.768.662.768.25 0 .45-.087.625-.26.325-.322.512-.905.95-3.072.224-1.115.387-2.044.387-2.564m-2.186-1.337c.437-.421.936-.607 1.649-.607.8 0 1.286.272 1.561.73.225.347.3.657.3 1.177 0 .545-.137 1.4-.387 2.601-.55 2.688-.787 3.344-1.374 3.901-.425.422-.925.607-1.637.607-.812 0-1.3-.272-1.574-.73-.213-.347-.287-.657-.287-1.177 0-.545.137-1.4.374-2.601.563-2.688.8-3.344 1.375-3.901" fill="#0078C1"/><path d="M95.653 45.952h.12c.696 0 1.151-.417 1.595-2.577l.959-4.585h3.86l-1.702 8.265h-1.283l1.475-7.162h-1.355l-.731 3.529c-.648 3.157-1.307 3.633-2.782 3.633h-.384l.228-1.103zm8.973 0c.728 0 1.06-.36 1.311-1.416.053-.22.093-.51.093-.731 0-.464-.199-.697-.795-.697h-.742l-.65 2.844h.783zm-.557-7.162h1.405l-.73 3.216h.743c.742 0 1.179.139 1.523.44.318.28.438.674.438 1.127 0 .29-.04.661-.107.963-.463 2.032-1.351 2.52-2.782 2.52h-2.371l1.881-8.266zm5.07 0h1.262l-1.465 7.162h1.394l1.464-7.162h1.263l-1.465 7.162h1.393l1.465-7.162h1.263l-1.692 8.265h-6.573zm8.327 0h3.506l-.234 1.103h-2.198l-.518 2.45h1.889l-.235 1.09h-1.889l-.53 2.52h2.197l-.235 1.102h-3.506zm4.551 0h1.215l.708 4.272 2.58-4.272h1.215l-1.796 8.265h-1.341l1.113-5.13-1.872 3.284h-.747l-.404-3.308-1.126 5.154h-1.341zm5.936 7.162c.713 0 1.028-.185 1.318-.847l.338-.743-.616-5.572h1.306l.23 3.9 1.85-3.9h1.367l-3.483 6.675c-.666 1.277-.944 1.59-2.528 1.59l.218-1.103zm6.709-7.162H136l-1.244 5.967h-1.175l1.08-5.967zm-1.386 6.849h1.35l-.281 1.416h-1.35l.281-1.416z" fill="#0078C1"/><g transform="translate(0 17)"><mask id="eb" fill="#fff"><use xlink:href="#ea"/></mask><path d="M42.785 25.29c.238 0 .323.052.323.321v1.456c0 .265-.085.332-.323.332h-.166V25.29h.166zM59.879 26.7c.238 0 .312.058.312.317v.548c0 .257-.074.317-.312.317h-.238v-1.182h.238zM41.088 25.62c0-.264.088-.33.322-.33h.17v2.108h-.17c-.234 0-.322-.062-.322-.327V25.62zm-20.039 4.358h42.098v-6.956H21.049v6.956zm4.571-5.827h-1.068v1.747h-.549v-1.747h-1.067v4.529h1.067v-1.982h.55v1.982h1.067v-4.529zm8.85-.003h-2.562v4.535h2.561v-.86h-1.46v-1.067h1.306V25.9H33.01v-.892h1.46v-.858zm9.672 1.503c0-.925-.454-1.16-1.523-1.16v-.34H41.58v.34c-1.071 0-1.53.235-1.53 1.16v1.415c0 .918.478 1.166 1.53 1.166v.448h1.038v-.448c1.052 0 1.523-.248 1.523-1.166v-1.415zm8.209-1.503h-2.688v.858h.867v3.677h1.015v-3.677h.806v-.858zm8.905 2.898c0-.905-.388-1.148-1.435-1.148h-.18v-1.747h-1.068v4.529h1.068c1.16 0 1.615-.176 1.615-1.168v-.466zm-43.023-7.499v7.136a10.574 10.574 0 01-7.69 3.295C4.722 29.979 0 25.319 0 19.574c0-5.742 4.722-10.4 10.542-10.4v7.82a5.941 5.941 0 00-4.912 2.58 5.787 5.787 0 00.727 7.392 5.955 5.955 0 004.185 1.71 5.94 5.94 0 004.17-1.697c.006-.007.012-.01.018-.015v-.003l.015-.011a2.895 2.895 0 000-4.135 2.987 2.987 0 00-4.203.011v-3.278h7.691zm-1.31-14.071c.635 2.77.623 4.473.347 6.416-.5 3.498-2.103 6.172-2.798 7.069-.476-.609-1.206-1.852-1.692-3.01 0 0-.92-2.207-1.164-4.357a16.943 16.943 0 01.57-6.797C12.837 2.586 14.113.6 14.462.083c.22.367 1.822 2.622 2.461 5.394zM14.46 18.273a7.23 7.23 0 00.835-3.574c-.068-1.7-.648-2.946-.824-3.244-.2.298-.871 1.726-.86 3.395.048 1.721.536 2.839.849 3.423zm2.277-8.093a17.25 17.25 0 00-.604-4.728c-.523-1.874-1.536-3.657-1.685-3.889-.15.232-.951 1.68-1.66 3.946-.186.68-.522 2.153-.58 3.59-.068 1.742.17 3.47.266 3.958 0-.576.011-2.498.371-4.084.361-1.59 1.046-3.418 1.603-4.348.604.979 1.36 3.09 1.625 4.358.269 1.267.408 2.887.35 4.035.162-.666.29-1.781.314-2.838zm43.779-1.06h2.63v10.43h-2.025v-6.542h-.07l-1.041 6.542h-1.618l-1.039-6.542h-.069v6.542H55.26V9.12h2.626l1.311 7.33 1.32-7.33zm-14.45 5.735c.22 0 .378-.192.378-.521v-3.399c0-.327-.158-.52-.378-.52h-.532v4.44h.532zM43.514 9.12h3.176c1.417 0 1.641 1.133 1.641 1.863v3.156c0 .732-.224 1.866-1.64 1.866h-1.156v3.545h-2.02V9.12zm-6.142 0h4.679v10.43h-1.887v-9.136h-.907v9.136h-1.885V9.12zm-3.986 6.777v1.963c0 .27.2.345.317.345.185 0 .315-.165.315-.345v-2.425c0-.326-.056-.684-.808-.684h-.822v-1.147h.85c.578 0 .78-.138.78-.773v-2.075c0-.179-.13-.342-.315-.342-.118 0-.317.075-.317.342v1.7h-2.025v-1.473c0-.73.09-1.863 1.503-1.863h1.677c1.414 0 1.502 1.133 1.502 1.863v1.67c0 1.13-.768 1.442-1.375 1.412v.106c1.357-.032 1.375 1.042 1.375 1.415v2.1c0 .73-.088 1.864-1.502 1.864h-1.677c-1.414 0-1.503-1.133-1.503-1.865v-1.788h2.025zm-5.136-.267l-.347-5.216h-.112l-.35 5.216h.809zm-1.992-6.51h3.178l1.055 10.43h-1.98l-.186-2.773h-.954l-.19 2.773h-1.975l1.052-10.43zm-5.209 0h3.858v1.294h-1.836v9.136h-2.022V9.12zm31.512 0c1.417 0 1.506 1.133 1.506 1.863v6.702c0 .732-.09 1.865-1.506 1.865h-1.673c-1.414 0-1.5-1.133-1.5-1.865v-6.702c0-.73.086-1.863 1.5-1.863h1.673zm-.834 9.14c.244 0 .447-.185.447-.415V10.81l-.004-.033c-.021-.203-.213-.366-.446-.366a.439.439 0 00-.445.366v7.055l-.003.013c0 .23.202.415.451.415z" fill="#0078C1" mask="url(#eb)"/></g><path fill="#0078C1" d="M60.36 26.768h2.756v10.52h-2.122V30.69h-.073l-1.092 6.597h-1.694l-1.09-6.597h-.072v6.597h-2.122V26.768h2.752l1.374 7.392z"/><g transform="translate(69.878 25.265)"><mask id="ed" fill="#fff"><use xlink:href="#ec"/></mask><path fill="#0078C1" mask="url(#ed)" d="M.025.031l2.54 11.158-2.54 11.157H1.2L3.74 11.19 1.2.03z"/></g></g></svg><svg viewBox="0 0 146 71" id="logo-itmo" xmlns="http://www.w3.org/2000/svg"><g fill="none" fill-rule="evenodd"><path fill="#27488C" d="M48.495 26.59a1.726 1.726 0 11-3.453 0 1.726 1.726 0 013.453 0zm87.73 34.72c-.427.568-1.052.855-1.853.855-.793 0-1.412-.287-1.84-.854-.433-.572-.651-1.318-.651-2.216 0-.899.218-1.644.65-2.216.429-.567 1.048-.855 1.84-.855.802 0 1.427.288 1.855.855.431.572.65 1.316.65 2.216 0 .9-.219 1.645-.65 2.216zm1.245-5.459c-.729-.847-1.77-1.277-3.098-1.277-1.327 0-2.368.43-3.091 1.278-.723.844-1.09 1.936-1.09 3.243 0 1.316.367 2.409 1.09 3.25.724.843 1.764 1.27 3.09 1.27 1.328 0 2.37-.427 3.099-1.27.727-.841 1.095-1.934 1.095-3.25 0-1.307-.368-2.399-1.095-3.244zm-9.946-1.15c-.311 0-.575.168-.786.503l-2.474 3.995-2.524-3.983c-.21-.342-.489-.515-.824-.515a.74.74 0 00-.546.21c-.14.14-.211.353-.211.634v7.125c0 .543.255.82.757.82s.756-.277.756-.82v-4.885l1.768 2.772c.194.309.445.465.749.465.294 0 .542-.16.736-.477l1.742-2.818v4.943c0 .239.073.437.215.59.144.152.343.23.591.23.258 0 .46-.079.599-.232a.842.842 0 00.208-.588v-7.137c0-.247-.065-.449-.194-.601-.131-.153-.32-.231-.562-.231zm-9.454 0h-5.966c-.23 0-.418.063-.558.189-.14.127-.212.305-.212.53 0 .214.072.392.212.527.139.135.326.203.558.203h2.176v6.52c0 .239.07.437.209.588.14.153.34.231.598.231.257 0 .459-.078.598-.23a.843.843 0 00.209-.589v-6.52h2.176c.24 0 .432-.068.571-.203a.705.705 0 00.21-.528c0-.224-.07-.402-.211-.529-.14-.126-.331-.19-.57-.19zm-8.144 7.97v-7.138c0-.552-.258-.832-.768-.832-.293 0-.553.15-.772.449l-3.973 5.499v-5.116a.871.871 0 00-.208-.595c-.14-.158-.341-.237-.599-.237-.266 0-.47.08-.605.238a.887.887 0 00-.201.594v7.137c0 .256.068.458.202.602.136.144.326.217.566.217.26 0 .51-.155.747-.462l3.998-5.462v5.105c0 .23.07.426.208.582.14.157.346.237.611.237.259 0 .457-.078.593-.231a.86.86 0 00.201-.588zm-12.058-7.252c0-.224-.072-.402-.213-.529-.139-.126-.33-.19-.569-.19H91.12c-.23 0-.418.064-.557.19-.14.127-.212.305-.212.53 0 .214.07.392.21.527.14.135.328.203.559.203h2.177v6.52c0 .239.07.437.208.588.14.153.34.231.598.231.258 0 .459-.078.599-.23a.842.842 0 00.208-.589v-6.52h2.177c.24 0 .431-.068.57-.203a.705.705 0 00.212-.528zm-8.876 6.62h-3.587v-2.338h2.756c.239 0 .431-.069.57-.204a.704.704 0 00.211-.528c0-.225-.071-.402-.212-.53-.14-.125-.33-.188-.57-.188h-2.755v-2.1h3.46c.232 0 .419-.066.558-.197a.684.684 0 00.211-.522c0-.224-.07-.404-.211-.535-.14-.13-.327-.196-.557-.196H84.61c-.257 0-.46.08-.604.237a.849.849 0 00-.216.595v7.124c0 .24.075.44.222.596.148.156.353.236.61.236h4.369c.23 0 .418-.066.558-.196a.686.686 0 00.21-.523.702.702 0 00-.21-.534c-.14-.13-.328-.196-.558-.196zm-6.607-6.62c0-.224-.073-.402-.213-.529-.14-.126-.331-.19-.57-.19h-5.967c-.23 0-.417.064-.557.19-.14.127-.212.305-.212.53 0 .214.072.392.21.527.14.135.328.203.56.203h2.177v6.52c0 .239.07.437.208.588.139.153.34.231.597.231.258 0 .46-.078.599-.23a.843.843 0 00.209-.589v-6.52h2.176c.24 0 .432-.068.571-.203a.705.705 0 00.212-.528zm-9.695-.718c-.293 0-.553.15-.771.449l-3.974 5.499v-5.116a.871.871 0 00-.208-.595c-.14-.158-.341-.237-.599-.237-.265 0-.47.08-.605.238a.886.886 0 00-.201.594v7.137c0 .256.068.458.203.602.134.144.326.217.566.217.259 0 .51-.155.746-.462l3.999-5.462v5.105c0 .23.07.426.207.582.14.157.346.237.612.237.258 0 .457-.078.592-.231a.856.856 0 00.202-.588v-7.137c0-.552-.259-.832-.769-.832zm-9.241 6.93c-.602.355-1.194.534-1.76.534a2.226 2.226 0 01-1.769-.819c-.463-.546-.699-1.307-.699-2.264 0-.923.219-1.673.65-2.228.7-.9 1.855-1.077 3.41-.48.523.195.868.115 1.022-.228.18-.385.072-.716-.32-.983-.56-.39-1.353-.589-2.358-.589-1.277 0-2.29.415-3.01 1.232-.718.817-1.083 1.923-1.083 3.289 0 1.383.344 2.493 1.02 3.3.678.81 1.695 1.22 3.023 1.22 1.046 0 1.92-.253 2.599-.753.218-.167.354-.358.402-.57.05-.217.015-.405-.102-.557-.224-.323-.571-.362-1.025-.104zm-11.554-5.5c.35-.045.701-.07 1.044-.07 1.16 0 1.723.475 1.723 1.448 0 1.041-.593 1.547-1.812 1.547-.399 0-.72-.015-.955-.044v-2.88zm4.456 1.34c0-.97-.305-1.693-.908-2.15-.598-.454-1.428-.683-2.467-.683-.739 0-1.394.055-1.948.164-.496.098-.747.411-.747.932v6.936c0 .239.07.437.209.588.14.153.34.231.598.231.248 0 .448-.077.591-.23a.828.828 0 00.216-.589v-2.256a7.78 7.78 0 001.044.054c1.006 0 1.834-.254 2.462-.754.63-.503.95-1.258.95-2.243zm-7.878 5.822a.684.684 0 00.212-.523.7.7 0 00-.212-.534c-.139-.13-.326-.196-.557-.196H44.33V59.7h2.755c.24 0 .432-.068.571-.203a.706.706 0 00.21-.528c0-.225-.07-.402-.211-.53-.14-.125-.331-.188-.57-.188H44.33v-2.1h3.46c.23 0 .418-.066.558-.197a.684.684 0 00.21-.522c0-.224-.07-.404-.21-.535-.14-.13-.327-.196-.558-.196h-4.254c-.258 0-.461.08-.605.237a.851.851 0 00-.215.595v7.124c0 .24.075.44.222.596.148.156.353.236.61.236h4.368c.23 0 .418-.066.557-.196zm-9.769-1.395c-.304.202-.766.305-1.374.305-.546 0-1.02-.024-1.41-.07v-2.52h1.397c1.236 0 1.836.419 1.836 1.282 0 .466-.15.804-.449 1.003zm-1.551-3.522H35.92v-2.319c.383-.039.755-.058 1.107-.058 1.151 0 1.711.367 1.711 1.12 0 .846-.519 1.257-1.585 1.257zm2.175.407c.307-.163.558-.4.745-.706.21-.343.317-.716.317-1.11 0-1.546-1.086-2.33-3.224-2.33-.754 0-1.44.051-2.036.153-.504.088-.76.389-.76.893v6.874c0 .497.253.785.749.856.594.093 1.317.139 2.147.139 2.348 0 3.539-.915 3.539-2.72 0-.504-.144-.945-.427-1.309a2.266 2.266 0 00-1.05-.74zM25.723 63.49c.26 0 .51-.155.747-.462l3.998-5.462v5.105c0 .23.07.426.208.582.14.157.345.237.611.237.258 0 .457-.078.593-.231a.856.856 0 00.201-.588v-7.137c0-.552-.259-.832-.768-.832-.293 0-.553.15-.772.449l-3.973 5.499v-5.116a.868.868 0 00-.208-.595c-.14-.158-.341-.237-.599-.237-.266 0-.47.08-.606.238a.886.886 0 00-.201.594v7.137c0 .256.068.458.203.602.135.144.326.217.566.217zm-9.378 0c.249 0 .447-.077.591-.23a.83.83 0 00.215-.589v-2.944h3.901v2.944c0 .239.07.437.208.588.14.153.341.231.599.231.249 0 .447-.077.59-.23a.827.827 0 00.216-.589v-7.137a.854.854 0 00-.214-.595c-.145-.158-.343-.237-.592-.237-.258 0-.46.08-.6.237a.87.87 0 00-.207.595v2.743h-3.9v-2.743c0-.24-.073-.44-.216-.595-.144-.158-.342-.237-.591-.237-.257 0-.459.08-.6.237a.871.871 0 00-.207.595v7.137c0 .239.07.437.21.588.138.153.34.231.597.231zm-2.37-7.597c.135-.324.161-.59.076-.787-.064-.15-.193-.265-.382-.339-.462-.168-.828.052-1.073.647l-1.722 4.176-2.376-4.265c-.14-.265-.309-.444-.502-.531-.197-.09-.413-.077-.644.043a.647.647 0 00-.35.55c-.016.237.046.475.186.705l2.92 5.073c-.13.334-.267.586-.41.748a.644.644 0 01-.503.24c-.089 0-.172-.007-.248-.023a1.614 1.614 0 01-.268-.086 1.595 1.595 0 00-.223-.077c-.44-.143-.739-.02-.883.358-.161.43-.004.777.464 1.033.308.171.723.258 1.233.258.568 0 1.04-.215 1.405-.64.359-.419.74-1.099 1.135-2.022l2.166-5.061zm93.264-44.167a1.01 1.01 0 11-2.02 0 1.01 1.01 0 012.02 0zM99.806 8.01a1.008 1.008 0 11-2.017.002 1.008 1.008 0 012.017-.002zm-22.298 3.716a1.01 1.01 0 11-2.02 0 1.01 1.01 0 012.02 0zm23.015 11.149a1.726 1.726 0 11-3.452.002 1.726 1.726 0 013.452-.002zm-.717 7.432a1.009 1.009 0 11-2.018.002 1.009 1.009 0 012.018-.002zm-5.852-11.148a2.59 2.59 0 11-5.181 0 2.59 2.59 0 015.18 0zm7.433-3.716a2.59 2.59 0 11-5.18-.001 2.59 2.59 0 015.18 0zm-9.013 18.581a1.01 1.01 0 11-2.02 0 1.01 1.01 0 012.02 0zm14.865-14.865a1.01 1.01 0 11-2.019 0 1.01 1.01 0 012.019 0zm-44.596-7.433a1.01 1.01 0 11-2.02 0 1.01 1.01 0 012.02 0zm-14.865 0a1.01 1.01 0 11-2.02 0 1.01 1.01 0 012.02 0zM70.023 37.74a1.01 1.01 0 11-2.019 0 1.01 1.01 0 012.019 0zM55.21 8.01a1.009 1.009 0 11-2.018 0 1.009 1.009 0 012.018 0zm0 22.245a1.01 1.01 0 11-2.018 0 1.01 1.01 0 012.018 0zm-14.865-7.381a1.01 1.01 0 11-2.021-.001 1.01 1.01 0 012.021.001zm0 7.432a1.01 1.01 0 11-2.02 0 1.01 1.01 0 012.02 0zm16.445-7.432a2.59 2.59 0 11-5.179.001 2.59 2.59 0 015.18-.001zm6.57 11.149a1.726 1.726 0 11-3.452.002 1.726 1.726 0 013.452-.002zm7.433-18.581a1.726 1.726 0 11-3.452 0 1.726 1.726 0 013.452 0zM93.09 26.59a1.727 1.727 0 11-3.453-.002 1.727 1.727 0 013.453.002zm0-14.866a1.727 1.727 0 11-3.453 0 1.727 1.727 0 013.453 0zm-6.57 3.717a2.59 2.59 0 11-5.178 0 2.59 2.59 0 015.179 0zM70.794 30.306a1.727 1.727 0 11-3.454.001 1.727 1.727 0 013.454 0zm8.295-11.148a2.59 2.59 0 11-5.18 0 2.59 2.59 0 015.18 0zm7.433 3.716a2.59 2.59 0 11-5.178 0 2.59 2.59 0 015.178 0zm-.863 7.432a1.727 1.727 0 11-3.455 0 1.727 1.727 0 013.455 0zm-7.433 3.717a1.727 1.727 0 11-3.454 0 1.727 1.727 0 013.454 0zm.863-7.432a2.59 2.59 0 11-5.18-.001 2.59 2.59 0 015.18 0zm-14.865 0a2.59 2.59 0 11-5.18 0 2.59 2.59 0 015.18 0zm7.433-3.717a2.59 2.59 0 11-5.18 0 2.59 2.59 0 015.18 0zm-7.433-3.716a2.59 2.59 0 11-5.18 0 2.59 2.59 0 015.18 0zm-7.433-3.716a2.59 2.59 0 11-5.18 0 2.59 2.59 0 015.18 0z"/><path fill="#D91F43" d="M49.358 19.158a2.59 2.59 0 11-5.18 0 2.59 2.59 0 015.18 0"/></g></svg><svg viewBox="0 0 71 71" id="logo-jetbrains" xmlns="http://www.w3.org/2000/svg"><defs><linearGradient id="ga" x1="9.612%" x2="89.899%" y1="85.627%" y2="14.383%"><stop offset="0%" stop-color="#FCEE39"/><stop offset="100%" stop-color="#F37B3D"/></linearGradient><linearGradient id="gb" x1="8.602%" x2="99.641%" y1="9.463%" y2="95.276%"><stop offset="0%" stop-color="#EF5A6B"/><stop offset="57%" stop-color="#F26F4E"/><stop offset="100%" stop-color="#F37B3D"/></linearGradient><linearGradient id="gc" x1="90.119%" x2="17.938%" y1="91.33%" y2="26.418%"><stop offset="0%" stop-color="#7C59A4"/><stop offset="38.5%" stop-color="#AF4C92"/><stop offset="76.5%" stop-color="#DC4183"/><stop offset="95.7%" stop-color="#ED3D7D"/></linearGradient><linearGradient id="gd" x1="91.376%" x2="18.896%" y1="7.597%" y2="77.772%"><stop offset="0%" stop-color="#EF5A6B"/><stop offset="36.4%" stop-color="#EE4E72"/><stop offset="100%" stop-color="#ED3D7D"/></linearGradient></defs><g fill="none"><path fill="url(#ga)" d="M64.196 38.953c.483-.43.752-1.02.805-1.718.054-1.395-.966-2.522-2.362-2.63-.644-.053-1.288.215-1.771.59L15.88 59.832a5.273 5.273 0 00-2.523 2.2c-1.557 2.577-.698 5.905 1.933 7.461 1.825 1.074 4.026.966 5.744-.107.107-.107.268-.161.376-.268l41.874-29.413c.214-.16.805-.59.912-.751z" transform="translate(3)"/><path fill="url(#gb)" d="M64.257 34.593L30.215 1.328A4.15 4.15 0 0027.175 0a4.102 4.102 0 00-4.11 4.092 4.06 4.06 0 001.121 2.816c.214.212.427.372.64.531L60.789 38.1c.427.373.96.638 1.601.691 1.387.054 2.508-.956 2.615-2.338 0-.69-.267-1.381-.747-1.86z" transform="translate(3)"/><path fill="url(#gc)" d="M31.617 32.552c-.053 0-21.092-16.728-21.52-16.998l-.964-.486c-3.105-1.187-6.531.432-7.709 3.562-1.017 2.752.107 5.774 2.463 7.23.374.217.696.378 1.07.486.214.108 24.305 10.145 24.305 10.145a2.288 2.288 0 002.73-.647 2.34 2.34 0 00-.375-3.292z" transform="translate(3)"/><path fill="url(#gd)" d="M26.253 0c-.905 0-1.756.323-2.448.807L2.62 15.223c-.053.053-.106.053-.106.107H2.46c-.905.646-1.65 1.614-2.076 2.744-1.171 3.12.425 6.616 3.513 7.745 1.916.753 3.992.377 5.535-.753.373-.269.692-.538.958-.86L28.808 7.423a4.17 4.17 0 001.597-3.281c0-2.26-1.863-4.142-4.152-4.142z" transform="translate(3)"/><path fill="#000" d="M21.872 19.92h27.26v27.26h-27.26z"/><path fill="#FFF" d="M23.969 41.938h10.484v2.097H23.969z"/><g fill="#FFF"><path d="M24.398 27.155l.805-.734c.214.262.429.42.697.42.322 0 .483-.21.483-.63v-2.778h1.234v2.778c0 .525-.161.944-.43 1.206-.268.262-.697.42-1.233.42-.805.052-1.234-.263-1.556-.682zm3.487-3.67h3.594v.996h-2.36v.682h2.145v.943H29.12v.682h2.413v1.048h-3.594l-.053-4.35zm5.203 1.049h-1.341v-1.049h3.916v1.049h-1.341v3.302h-1.234v-3.302zm-8.583 4.298h2.307c.536 0 .966.158 1.234.367.16.158.268.42.268.734 0 .525-.268.787-.697.996.536.158.858.472.858 1.049 0 .734-.644 1.205-1.663 1.205h-2.307v-4.35zm2.575 1.363c0-.262-.214-.367-.536-.367h-.805v.787h.751c.376-.053.59-.157.59-.42zm-.429 1.259h-.965v.786h.965c.376 0 .59-.157.59-.42 0-.262-.214-.366-.59-.366zm2.038-2.622h2.092c.698 0 1.127.158 1.449.472.268.262.375.577.375.996 0 .682-.375 1.101-.912 1.363l1.073 1.52h-1.394l-.912-1.31h-.537v1.31H28.69v-4.35zm2.039 2.097c.429 0 .644-.21.644-.524 0-.367-.269-.524-.644-.524h-.805v1.048h.805z"/><path d="M34.054 28.832h1.18l1.877 4.404h-1.34l-.323-.786h-1.716l-.322.786h-1.288l1.932-4.404zm1.072 2.622l-.482-1.206-.483 1.206h.965zm2.146-2.622h1.234v4.351h-1.234v-4.35zm1.556 0h1.126l1.824 2.307v-2.307h1.234v4.351h-1.073l-1.878-2.359v2.412h-1.233v-4.404zm4.29 3.722l.698-.786c.43.367.912.524 1.449.524.321 0 .536-.105.536-.314 0-.21-.16-.262-.751-.42-.966-.21-1.663-.471-1.663-1.363 0-.786.644-1.415 1.717-1.415.75 0 1.34.21 1.823.577l-.643.838c-.43-.262-.858-.419-1.234-.419-.322 0-.43.105-.43.262 0 .21.162.262.752.42 1.02.21 1.663.524 1.663 1.363 0 .89-.698 1.415-1.824 1.415-.805.052-1.556-.21-2.092-.682z"/></g></g></svg><svg viewBox="0 0 146 71" id="logo-mkn" xmlns="http://www.w3.org/2000/svg"><g fill="none" fill-rule="evenodd"><path fill="#000" d="M23.687 16L7 25.645v19.901l16.687 9.645 16.686-9.645V25.645z"/><path fill="#006CA7" d="M7.306 25.874l5.205-3.062v6.124l-5.205 3.062zM12.817 35.672l5.205-3.062v6.124l-5.205 3.061zM12.817 42.255l5.205-3.062v6.276l-5.205 2.909zM29.351 45.469l5.205-3.061v6.123l-5.205 3.062zM34.862 42.255l5.205-3.062v6.276l-5.205 2.909zM29.351 32.457l5.205-3.062v6.124l-5.205 3.061zM29.351 25.874l5.205-3.062v6.124l-5.205 3.062zM18.329 32.457l5.205-3.062v6.124l-5.205 3.061zM12.817 22.659l5.205-3.061v6.123l-5.205 3.062z"/><path fill="#48B8B2" d="M7.459 32.304l5.205-2.985 5.205 2.985-5.205 2.985zM18.482 38.887l5.205-2.986 5.205 2.986-5.205 2.985zM23.993 42.102l5.205-2.986 5.205 2.986-5.205 2.985zM29.504 38.887l5.205-2.986 5.205 2.986-5.205 2.985zM12.97 29.089l5.205-2.985 5.205 2.985-5.205 2.985zM18.482 19.291l5.205-2.985 5.205 2.985-5.205 2.986zM23.993 22.506l5.205-2.985 5.205 2.985-5.205 2.985z"/><path fill="#E98537" d="M12.511 35.672L7.306 32.61v6.124l5.205 3.061zM12.511 42.255l-5.205-3.062v6.276l5.205 2.909zM23.534 42.255l-5.205-3.062v6.276l5.205 2.909zM29.045 45.469l-5.205-3.061v6.123l5.205 3.062zM40.067 32.457l-5.205-3.062v6.124l5.205 3.061zM29.045 32.457l-5.205-3.062v6.124l5.205 3.061zM29.045 25.874l-5.205-3.062v6.124l5.205 3.062zM23.534 22.659l-5.205-3.061v6.123l5.205 3.062zM40.067 25.874l-5.205-3.062v6.124l5.205 3.062z"/><path fill="#48B8B2" d="M12.97 48.684l5.205-2.985 5.205 2.985-5.205 2.986zM18.482 51.899l5.205-2.985 5.205 2.985-5.205 2.985z"/><path fill="#000" d="M51.159 41.411V30.694h1.117l3.874 5.19 3.873-5.19h1.102v10.717h-1.117v-9.002l-3.506 4.684h-.689l-3.537-4.684v9.002zM65.053 30.694v4.654l4.96-4.654h1.501l-5.267 4.899 6.078 5.818h-1.592l-5.68-5.45v5.45H63.92V30.694zM74.034 41.411V30.694h1.133v4.455h6.369v-4.455h1.133v10.717h-1.133v-5.236h-6.369v5.236zM90.843 40.033c-1.04-1.041-1.562-2.373-1.562-3.98 0-1.608.521-2.925 1.562-3.966 1.056-1.056 2.358-1.577 3.935-1.577 1.163 0 2.158.26 3 .796v1.164c-.933-.597-1.929-.903-2.985-.903-1.24 0-2.266.428-3.108 1.286-.842.842-1.255 1.913-1.255 3.2 0 1.3.413 2.373 1.255 3.215.842.842 1.898 1.27 3.139 1.27 1.24 0 2.296-.352 3.184-1.072v1.18c-.873.627-1.944.949-3.23.949-1.577 0-2.879-.521-3.935-1.562M99.982 41.411V30.694h8.405v10.717h-1.133V31.72h-6.139v9.691zM112.307 40.385h3.139c1.76 0 2.771-.842 2.771-2.312 0-1.454-1.01-2.296-2.771-2.296h-3.139v4.608zm-1.133 1.026V30.694h7.318v1.026h-6.185v3.031h3.246c1.194 0 2.128.306 2.786.919.674.612 1.01 1.424 1.01 2.419 0 2.005-1.408 3.322-3.796 3.322h-4.379zM121.425 41.411V30.694h7.18v1.026h-6.047v9.691zM130.936 41.38v-1.056c.352.138.75.214 1.164.214.536 0 .949-.184 1.317-.673.183-.246.32-.46.428-.644a16.6 16.6 0 00.429-.826l-4.317-7.7h1.255l3.613 6.536 3.016-6.537h1.21l-3.95 8.45c-.842 1.792-1.73 2.45-2.817 2.45-.567 0-1.01-.076-1.348-.214"/></g></svg><svg viewBox="0 0 146 71" id="logo-ngu" xmlns="http://www.w3.org/2000/svg"><g fill="none"><path fill="#434343" d="M51.21 26.604v-7.095h-.479v3.26h-4.29v-3.26h-.48v7.095h.48v-3.371h4.29v3.37h.479zm4.313-5.152a2.598 2.598 0 10.03 5.196 2.598 2.598 0 00-.03-5.196zm0 .441a2.164 2.164 0 11-2.142 2.208 2.142 2.142 0 012.142-2.17v-.038zm4.261-.353v5.064h2.672c1.25 0 1.788-.508 1.788-1.399a1.2 1.2 0 00-1.016-1.25c.472-.176.771-.64.736-1.142 0-.691-.434-1.273-1.575-1.273h-2.605zm.456.398h2.208c.847 0 1.126.42 1.126.927 0 .508-.28.92-1.126.92H60.24v-1.847zm0 4.268v-2.068h2.208c.964 0 1.303.405 1.303 1.016 0 .61-.339 1.038-1.325 1.038l-2.186.014zm7.979-4.74a2.598 2.598 0 101.844.761 2.598 2.598 0 00-1.852-.76h.008zm0 .442a2.164 2.164 0 11-2.142 2.208 2.142 2.142 0 012.142-2.171v-.037zm6.535-.441a2.598 2.598 0 102.002 4.276l-.294-.31c-.42.51-1.047.804-1.708.803a2.127 2.127 0 01-2.134-2.157 2.127 2.127 0 012.134-2.17 2.208 2.208 0 011.722.801l.295-.294a2.59 2.59 0 00-2.002-.95h-.015zm8.096 5.152V21.54h-.25l-3.768 4.247V21.54h-.45v5.064h.251l3.754-4.247v4.247l.463.015zm5.97-7.095c0 .412-.28.537-1.304.537-1.884 0-3.017.846-3.017 2.598v1.39a2.598 2.598 0 005.196 0 2.524 2.524 0 00-2.554-2.553 2.407 2.407 0 00-2.208 1.413v-.368c0-1.472.957-2.09 2.525-2.09h.14c1.17 0 1.663-.25 1.663-.942l-.442.015zm-1.723 2.443a2.15 2.15 0 11-2.142 2.142 2.127 2.127 0 012.142-2.142zm8.751 4.637V21.54h-.243l-3.768 4.247V21.54h-.464v5.064h.265l3.754-4.247v4.247h.456zm4.622-5.152a2.473 2.473 0 00-2.208 1.428v-1.355h-.36v6.926h.448v-3.143a2.377 2.377 0 002.157 1.355 2.561 2.561 0 002.569-2.584 2.569 2.569 0 00-2.57-2.612l-.036-.015zm0 .441a2.127 2.127 0 012.134 2.208 2.134 2.134 0 11-4.261 0 2.134 2.134 0 012.127-2.17v-.038zm6.536-.441a2.598 2.598 0 102.002 4.276l-.295-.31c-.42.51-1.047.805-1.707.803a2.164 2.164 0 010-4.328c.642.02 1.244.318 1.648.817l.295-.294a2.59 2.59 0 00-2.002-.95l.059-.014zm7.478 5.152h.5l-.95-1.472c-.434-.663-.677-1.045-1.14-1.185.368-.155.618-.523 1-1.119l.862-1.295h-.537l-.707 1.082c-.56.846-.736 1.155-1.59 1.155h-.846v-2.208h-.508v5.064h.456v-2.422h1.016c.846 0 1.045.288 1.59 1.156l.854 1.244zm6.359 0V21.54h-.25l-3.769 4.247V21.54h-.464v5.064h.25l3.769-4.247v4.247h.464zm4.187-5.726a1.295 1.295 0 001.384-1.215h-.39a.935.935 0 01-1.03.861.92.92 0 01-1.016-.86h-.375a1.295 1.295 0 001.39 1.214h.037zm2.245 5.726V21.54h-.25l-3.768 4.247V21.54h-.464v5.064h.265l3.702-4.247v4.247h.515zm-80.96 4.644h3.496v-.442H45.86v5.079h.456v-4.637zm6.911-.508a2.606 2.606 0 102.598 2.606 2.583 2.583 0 00-2.598-2.606zm0 .434a2.164 2.164 0 010 4.32 2.164 2.164 0 010-4.32zm6.558-.449a2.605 2.605 0 101.995 4.262l-.273-.302a2.26 2.26 0 01-1.722.795 2.156 2.156 0 010-4.306c.662 0 1.288.298 1.708.81l.272-.287a2.547 2.547 0 00-1.98-.972zm8.339.067h-.479v2.333c0 1.472-.802 2.326-2.016 2.326-1.075 0-1.781-.633-1.781-1.966v-2.693h-.464v2.723c0 1.523.861 2.385 2.208 2.385a2.208 2.208 0 002.06-1.34v.736c0 1.325-.647 2.06-1.95 2.076a2.944 2.944 0 01-1.862-.64l-.28.286c.585.51 1.337.786 2.113.773 1.582 0 2.429-1 2.429-2.554l.022-4.445zm7.117 6.292v-1.663h-.648l-2.149-4.63H72.2l-2.112 4.63h-.64v1.663h.456V35.87h4.894v1.214h.442zm-2.944-5.527l1.781 3.864h-3.54l1.759-3.864zm8.832 4.313v-5.078h-.368v1.354a2.444 2.444 0 00-2.208-1.42 2.605 2.605 0 000 5.203 2.473 2.473 0 002.208-1.413v1.354h.368zm-2.569-.39a2.164 2.164 0 010-4.32 2.164 2.164 0 010 4.32zm7.184-4.755a2.466 2.466 0 00-2.208 1.42v-1.353h-.354v6.933h.457V34.56a2.392 2.392 0 002.156 1.369 2.605 2.605 0 000-5.204h-.051zm0 .45A2.156 2.156 0 1183.6 33.33a2.112 2.112 0 012.142-2.157zm6.535-.45a2.605 2.605 0 102.002 4.262l-.294-.302a2.208 2.208 0 01-1.708.795 2.156 2.156 0 010-4.306c.647.014 1.255.31 1.664.81l.294-.287a2.561 2.561 0 00-2.002-.942l.044-.03zm5.469.508h1.994v-.441h-4.416v.456h1.988v4.637h.463v-4.637l-.03-.015zm3.363-.441v5.078h2.68c1.265 0 1.788-.53 1.788-1.42a1.192 1.192 0 00-1.001-1.244c.474-.171.776-.638.736-1.141 0-.692-.442-1.273-1.568-1.273h-2.635zm.479.412h2.208c.846 0 1.126.412 1.126.905 0 .493-.28.927-1.126.927h-2.208v-1.832zm0 4.247v-2.047h2.208c.971 0 1.31.413 1.31 1.03 0 .62-.339 1.017-1.31 1.017h-2.208zm7.956-4.726a2.532 2.532 0 00-2.657 2.606 2.517 2.517 0 002.694 2.598c.778 0 1.53-.279 2.12-.788l-.258-.272a2.944 2.944 0 01-1.862.648 2.046 2.046 0 01-2.208-2.113h4.504a2.076 2.076 0 00-.103-1.14 2.37 2.37 0 00-2.296-1.539h.066zm0 .42a1.928 1.928 0 011.877 1.244c.082.216.12.446.11.677h-4.092a2.046 2.046 0 012.105-1.921zm8.56 4.725v-5.078h-.464v2.303h-3.614v-2.303h-.449v5.078h.45v-2.34h3.584v2.34h.493zm6.432 0v-5.078h-.449v2.303h-3.584v-2.303h-.449v5.078h.449v-2.34h3.584v2.34h.45zm2.414-3.341v-1.737h-.463v5.078h2.48c1.472 0 1.972-.832 1.972-1.678s-.5-1.663-1.972-1.663h-2.017zm5.152 3.341v-5.078h-.463v5.078h.463zm-5.152-.434v-2.48h2.017c1.111 0 1.472.574 1.472 1.236s-.353 1.244-1.472 1.244h-2.017zm9.325-5.307a1.273 1.273 0 001.37-1.221h-.354a.935.935 0 01-1.03.868.942.942 0 01-1.03-.868h-.376a1.295 1.295 0 001.384 1.221h.036zm2.245 5.741v-5.078h-.257l-3.769 4.246v-4.246h-.449v5.078h.243l3.761-4.254v4.254h.471zM50.6 40.08h-.479v2.34c0 1.472-.802 2.312-2.016 2.312-1.082 0-1.789-.619-1.789-1.958V40.08h-.456v2.708c0 1.524.861 2.385 2.208 2.385a2.208 2.208 0 002.06-1.34v.737c0 1.31-.647 2.046-1.957 2.06a2.944 2.944 0 01-1.87-.662l-.272.294c.593.51 1.352.788 2.135.78 1.604 0 2.428-1.015 2.428-2.568V40.08h.008zm6.38 5.064V40.08h-.44v2.296h-3.592V40.08h-.457v5.064h.457v-2.37h3.591v2.34l.442.03zm6.433 0V40.08h-.242l-3.776 4.232V40.08h-.456v5.064h.257l3.761-4.247v4.247h.456zm1.958-5.064v5.064h2.68c1.258 0 1.78-.523 1.78-1.413a1.192 1.192 0 00-1-1.252c.471-.17.772-.633.735-1.133 0-.692-.434-1.266-1.575-1.266h-2.62zm.479.405h2.163c.862 0 1.127.412 1.127.905 0 .493-.265.898-1.127.898H65.85v-1.803zm0 4.247v-2.076h2.208c.95 0 1.288.412 1.288 1.03 0 .619-.339 1.016-1.303 1.016l-2.193.03zm7.956-4.726a2.54 2.54 0 00-2.59 2.598 2.51 2.51 0 002.693 2.599 3.327 3.327 0 002.127-.736l-.265-.295a2.9 2.9 0 01-1.862.648 2.039 2.039 0 01-2.208-2.105h4.512c.065-.39.03-.79-.104-1.163a2.407 2.407 0 00-2.303-1.538v-.008zm0 .427a1.936 1.936 0 011.877 1.251c.077.218.112.447.103.678h-4.063a2.024 2.024 0 012.098-1.929h-.015zm7.058-.427a2.466 2.466 0 00-2.208 1.414v-1.34h-.353v6.926h.463v-3.202a2.333 2.333 0 002.15 1.37 2.598 2.598 0 000-5.197l-.052.03zm0 .442a2.156 2.156 0 11-2.142 2.156 2.134 2.134 0 012.142-2.156zm6.543-.442a2.598 2.598 0 000 5.197c.766-.001 1.492-.344 1.98-.935l-.272-.31c-.42.51-1.047.804-1.708.803a2.156 2.156 0 010-4.313 2.208 2.208 0 011.708.788l.272-.295a2.569 2.569 0 00-1.98-.935zm8.06 5.152V40.08h-.244l-3.79 4.203V40.08h-.464v5.064h.258l3.76-4.247v4.247l.48.014zM99.3 40.53h2.002v-.449h-4.468v.434h1.958v4.63h.464l.044-4.615zm5.645-.508a2.532 2.532 0 00-2.583 2.598 2.51 2.51 0 002.693 2.598 3.341 3.341 0 002.127-.736l-.265-.294a2.944 2.944 0 01-1.862.648 2.039 2.039 0 01-2.208-2.105h4.505a2.09 2.09 0 00-.103-1.141 2.37 2.37 0 00-2.297-1.538l-.007-.03zm0 .427a1.921 1.921 0 011.877 1.251c.083.216.12.446.11.677h-4.077a2.01 2.01 0 012.09-1.928zm5.755.081h2.002v-.449h-4.46v.434h2.002v4.63h.456v-4.615zm-89.666 15.42v-6.404h-.994v2.708h-2.944v-2.708h-.986v6.403h.986v-2.752h2.944v2.752h.994zm2.944-1.429h2.495l.581 1.428h1.082l-2.62-6.403h-.582l-2.686 6.403h1.097l.633-1.428zm1.214-3.172l.905 2.208H24.31l.883-2.208zm6.55-1.862a3.275 3.275 0 000 6.543 3.364 3.364 0 002.422-1.067l-.648-.596a2.495 2.495 0 01-1.774.736 2.333 2.333 0 010-4.666 2.473 2.473 0 011.774.736l.648-.604a3.356 3.356 0 00-2.422-1.06v-.022zm6.175 1.001h1.877v-.942H35.07v.942h1.899v5.461h.986v-5.461h-.037zm5.984-1a3.275 3.275 0 103.275 3.26 3.253 3.253 0 00-3.275-3.26zm0 .934a2.333 2.333 0 11-2.26 2.326 2.26 2.26 0 012.26-2.326zm9.259 5.527v-6.403h-2.105c-1.722 0-2.767.971-2.767 2.37a2.06 2.06 0 001.472 2.031 2.797 2.797 0 00-1.016 1.097l-.589.905h1.112l.463-.736c.523-.802.736-.942 1.399-.957h1.015v1.678l1.016.015zm-.986-5.461v2.841h-1.222c-.972 0-1.759-.434-1.759-1.472s.802-1.369 1.759-1.369h1.222zm11.46 6.624v-2.083h-.818v-5.483h-.986v5.483h-2.4v-5.483h-.986v5.483H56.06v-5.483h-.986v6.403h7.588v1.185l.971-.022zm2.649-2.613h2.495l.574 1.45h1.082l-2.62-6.403h-.567l-2.65 6.403h1.097l.589-1.45zm1.251-3.172l.905 2.208h-1.81l.905-2.208zm8.707 4.6v-6.403h-2.098c-1.715 0-2.774.971-2.774 2.37a2.068 2.068 0 001.508 2.031c-.427.272-.777.65-1.015 1.097l-.582.905h1.104l.479-.736c.522-.802.736-.942 1.398-.957h.979v1.678l1.001.015zm-1.001-5.439v2.841h-1.192c-.957 0-1.752-.434-1.752-1.472s.795-1.428 1.752-1.428l1.192.059zm10.82 5.461v-6.403h-.987v2.708h-2.944v-2.708h-1.001v6.403h.986v-2.752h2.944v2.752h1.001zm2.943-1.428h2.495l.582 1.428h1.096l-2.612-6.403h-.604l-2.65 6.403h1.097l.596-1.428zm1.266-3.172l.89 2.208h-1.803l.913-2.208zm5.461 4.6l3.724-6.403h-1.126l-1.81 3.099-1.833-3.099H93.56l2.385 4.114-1.355 2.29h1.141zm9.2 0h1.126l-1.523-2.355c-.383-.596-.589-.817-.861-.905.33-.227.605-.527.802-.876l1.472-2.267h-1.14l-1.23 1.958c-.368.537-.523.736-1.06.736h-.736v-2.694h-.986v6.403h.942v-2.767h.817c.56 0 .736.184 1.06.736l1.317 2.031zm3.621-1.428h2.488l.574 1.428h1.09l-2.613-6.403h-.574l-2.628 6.403h1.09l.573-1.428zm1.281-3.172l.905 2.208h-1.81l.905-2.208z"/><path fill="#1DBFEA" d="M32.302 22.953l3.68 1.215-2.208 3.047 2.016 1.472 2.172-2.944 2.09 2.892 2.031-1.472-2.171-3.054 3.555-1.156-.736-2.37-3.599 1.156V18h-2.51v3.739l-3.54-1.156z"/><path fill="#434343" d="M14.8 50.796l-1.921.611 1.155 1.605-1.045.736-1.141-1.524-1.096 1.472-1.016-.729 1.141-1.575L9 50.796l.397-1.251 1.848.603v-1.972h1.31v1.943l1.847-.603zM29.807 45.114V19.509h-6.219v14.079L12.989 19.509H9.25v25.605h6.212V31.035l10.606 14.079z"/></g></svg><svg viewBox="0 0 103 71" id="logo-shad" xmlns="http://www.w3.org/2000/svg"><defs><path id="ja" d="M0 40.79h95.19V0H0z"/><path id="jc" d="M0 40.79h95.19V0H0z"/><path id="je" d="M0 40.79h95.19V0H0z"/><path id="jg" d="M0 40.79h95.19V0H0z"/><path id="ji" d="M0 40.79h95.19V0H0z"/><path id="jk" d="M0 40.79h95.19V0H0z"/><path id="jm" d="M0 40.79h95.19V0H0z"/><path id="jo" d="M0 40.79h95.19V0H0z"/><path id="jq" d="M0 40.79h95.19V0H0z"/><path id="js" d="M0 40.79h95.19V0H0z"/><path id="ju" d="M0 40.79h95.19V0H0z"/><path id="jw" d="M0 40.79h95.19V0H0z"/><path id="jy" d="M0 40.79h95.19V0H0z"/><path id="jA" d="M0 40.79h95.19V0H0z"/><path id="jC" d="M0 40.79h95.19V0H0z"/><path id="jE" d="M0 40.79h95.19V0H0z"/><path id="jG" d="M0 40.79h95.19V0H0z"/><path id="jI" d="M0 40.79h95.19V0H0z"/><path id="jK" d="M0 40.79h95.19V0H0z"/><path id="jM" d="M0 40.79h95.19V0H0z"/></defs><g fill="none" fill-rule="evenodd" transform="translate(4 15)"><path fill="#DA3229" fill-rule="nonzero" d="M48.495 1.071c-7.015 0-12.702 5.685-12.702 12.697 0 7.013 5.687 12.698 12.702 12.698s12.702-5.685 12.702-12.698c0-7.012-5.687-12.697-12.702-12.697"/><mask id="jb" fill="#fff"><use xlink:href="#ja"/></mask><path fill="#000" fill-rule="nonzero" mask="url(#jb)" d="M71.281 25.541h23.605V1.944H71.281z"/><mask id="jd" fill="#fff"><use xlink:href="#jc"/></mask><path fill="#FACB26" fill-rule="nonzero" mask="url(#jd)" d="M7.635 12.75L.252 25.541h29.494L22.375 12.75 15.005 0z"/><mask id="jf" fill="#fff"><use xlink:href="#je"/></mask><path fill="#000" fill-rule="nonzero" mask="url(#jf)" d="M2.355 39.15v-4.193h.662v4.193H4.71v-4.193h.662v4.722H0v-4.761h.662v4.232z"/><mask id="jh" fill="#fff"><use xlink:href="#jg"/></mask><path fill="#000" fill-rule="nonzero" d="M7.582 36.901h.159c.253.013.504-.056.714-.198.15-.169.27-.361.357-.57l.146-.422c.049-.221.154-.426.304-.595.225-.198.524-.289.82-.251v.515a.671.671 0 00-.41.16.77.77 0 00-.198.41l-.199.461c-.07.174-.174.33-.303.464a.827.827 0 01-.517.252c.229.038.44.144.609.303.148.17.269.362.357.57l.304.66c.05.171.135.33.252.463.1.082.228.12.357.106v.569c-.257.06-.528.018-.754-.119-.153-.2-.261-.43-.318-.674l-.304-.768a2.357 2.357 0 00-.357-.568 1.122 1.122 0 00-.662-.199h-.304v2.21h-.662v-4.763h.662v1.984h-.053z" mask="url(#jh)"/><mask id="jj" fill="#fff"><use xlink:href="#ji"/></mask><path fill="#000" fill-rule="nonzero" d="M14.74 39.255c-.4.378-.932.582-1.482.57a1.838 1.838 0 01-1.482-.57 3.172 3.172 0 010-3.887 2.086 2.086 0 011.456-.57c.554-.044 1.1.165 1.482.57a3.172 3.172 0 010 3.887m-2.422-3.425c-.334.418-.499.947-.463 1.482-.011.53.151 1.05.463 1.48a1.322 1.322 0 001.945 0c.335-.417.5-.946.463-1.48a2.433 2.433 0 00-.463-1.482 1.324 1.324 0 00-.98-.41 1.165 1.165 0 00-.978.41" mask="url(#jj)"/><mask id="jl" fill="#fff"><use xlink:href="#jk"/></mask><path fill="#000" fill-rule="nonzero" d="M17.823 35.526v1.772a3.967 3.967 0 01-.622 2.17 1.32 1.32 0 01-.979.356l-.106-.569c.205-.01.403-.079.57-.198.378-.56.56-1.23.515-1.904v-2.249h2.713v4.775h-.662v-4.206h-1.429v.053z" mask="url(#jl)"/><mask id="jn" fill="#fff"><use xlink:href="#jm"/></mask><path fill="#000" fill-rule="nonzero" d="M21.66 39.68h-.714l1.998-4.763h.57l1.984 4.762h-.715l-.516-1.323h-2.09l-.516 1.323zm1.535-3.97l-.82 2.103h1.64l-.82-2.102z" mask="url(#jn)"/><mask id="jp" fill="#fff"><use xlink:href="#jo"/></mask><path fill="#000" fill-rule="nonzero" d="M28.78 39.68h-.768l1.997-4.763h.57l1.985 4.762h-.715l-.516-1.323h-2.09l-.464 1.323zm1.534-3.97l-.82 2.103h1.64l-.82-2.102z" mask="url(#jp)"/><mask id="jr" fill="#fff"><use xlink:href="#jq"/></mask><path fill="#000" fill-rule="nonzero" mask="url(#jr)" d="M34.258 39.679h-.662v-4.762h.662v1.998h2.196v-1.958h.662v4.722h-.662v-2.156h-2.196z"/><mask id="jt" fill="#fff"><use xlink:href="#js"/></mask><path fill="#000" fill-rule="nonzero" d="M38.862 39.68h-.715l1.999-4.763h.569l1.984 4.762h-.714l-.516-1.323h-2.09l-.517 1.323zm1.534-3.97l-.82 2.103h1.641l-.82-2.102z" mask="url(#jt)"/><mask id="jv" fill="#fff"><use xlink:href="#ju"/></mask><path fill="#000" fill-rule="nonzero" d="M44.988 35.526v1.772a3.964 3.964 0 01-.569 2.196 1.32 1.32 0 01-.98.357l-.105-.569a1.07 1.07 0 00.57-.198c.357-.563.52-1.228.462-1.891v-2.249h2.74v4.735h-.662v-4.206h-1.456v.053z" mask="url(#jv)"/><mask id="jx" fill="#fff"><use xlink:href="#jw"/></mask><path fill="#000" fill-rule="nonzero" mask="url(#jx)" d="M51.459 35.42v-.463h.662v4.722h-.662v-3.386l-2.157 2.963v.515h-.661v-4.76h.661v3.425z"/><mask id="jz" fill="#fff"><use xlink:href="#jy"/></mask><path fill="#000" fill-rule="nonzero" d="M53.51 35.367c.422-.374.97-.578 1.534-.568.479-.043.954.105 1.324.41.234.25.362.582.357.925a.938.938 0 01-.304.767 1.212 1.212 0 01-.57.305c.242.049.468.153.662.304.21.22.32.516.304.82.008.419-.183.816-.515 1.072-.393.255-.856.38-1.324.357a3.534 3.534 0 01-1.124-.16 2.129 2.129 0 01-.662-.41l.358-.462c.177.136.368.255.569.357.261.101.539.156.82.159.27.028.543-.043.767-.199a.937.937 0 00.304-.715.715.715 0 00-.304-.608 2.201 2.201 0 00-1.125-.197h-.159v-.49h.159c.3.014.599-.04.874-.159a.661.661 0 00.41-.661.61.61 0 00-.29-.503 1.336 1.336 0 00-.716-.199c-.441.011-.87.154-1.23.411l-.12-.556z" mask="url(#jz)"/><mask id="jB" fill="#fff"><use xlink:href="#jA"/></mask><path fill="#000" fill-rule="nonzero" d="M58.326 39.68h-.715l1.932-4.723h.57l2.077 4.722h-.715l-.515-1.323h-2.13l-.504 1.323zm1.588-3.97l-.82 2.103h1.64l-.82-2.102z" mask="url(#jB)"/><mask id="jD" fill="#fff"><use xlink:href="#jC"/></mask><path fill="#000" fill-rule="nonzero" d="M65.193 39.163c.226-.418.4-.862.516-1.323.15-.7.213-1.414.186-2.129v-.767h2.712v4.206h.57v1.64h-.61v-1.11H65.34v1.07h-.609v-1.6l.463.013zm1.324-3.637v.185a9.904 9.904 0 01-.199 2.301c-.11.409-.264.804-.463 1.177h2.05v-3.663h-1.388z" mask="url(#jD)"/><mask id="jF" fill="#fff"><use xlink:href="#jE"/></mask><path fill="#000" fill-rule="nonzero" d="M70.46 39.68h-.715l1.998-4.763h.57l1.984 4.762h-.715l-.516-1.323h-2.103l-.503 1.323zm1.587-3.97l-.82 2.103h1.64l-.82-2.102z" mask="url(#jF)"/><mask id="jH" fill="#fff"><use xlink:href="#jG"/></mask><path fill="#000" fill-rule="nonzero" mask="url(#jH)" d="M75.991 39.679h-.662v-4.762h.662v1.998h2.196v-1.958h.662v4.722h-.662v-2.156h-2.196z"/><mask id="jJ" fill="#fff"><use xlink:href="#jI"/></mask><path fill="#000" fill-rule="nonzero" mask="url(#jJ)" d="M81.006 39.679h-.662v-4.762h.662v1.998h2.196v-1.958h.662v4.722h-.662v-2.156h-2.196z"/><mask id="jL" fill="#fff"><use xlink:href="#jK"/></mask><path fill="#000" fill-rule="nonzero" d="M86.007 36.796h.874a1.918 1.918 0 011.428.41c.259.273.39.643.358 1.018.017.373-.11.738-.358 1.018-.42.328-.953.476-1.481.41h-1.416v-4.76h.595v1.904zm.887 2.354c.328.026.656-.062.926-.252a.886.886 0 00.251-.608.792.792 0 00-.25-.661 1.572 1.572 0 00-.927-.252h-.887v1.773h.887zm2.514.53h.661v-4.722h-.661v4.721z" mask="url(#jL)"/><mask id="jN" fill="#fff"><use xlink:href="#jM"/></mask><path fill="#000" fill-rule="nonzero" mask="url(#jN)" d="M93.139 37.722l-1.323 1.996h-.768l1.641-2.512-1.389-2.248h.714l1.125 1.745 1.124-1.745h.715l-1.428 2.248 1.64 2.473h-.768z"/></g></svg><svg viewBox="0 0 103 71" id="logo-yandex" xmlns="http://www.w3.org/2000/svg"><defs><path id="ka" d="M0 .107h14.565v21.767H0z"/><path id="kc" d="M.13.049h15.353v19.355H.13z"/><path id="ke" d="M.037-.001h11.318V16.38H.037z"/></defs><g fill="none" fill-rule="evenodd"><g transform="translate(7 22.025)"><mask id="kb" fill="#fff"><use xlink:href="#ka"/></mask><path fill="#FC3F1D" d="M10.75 3.051H9.048c-3.121 0-4.76 1.566-4.76 3.884 0 2.63 1.135 3.852 3.468 5.418l1.922 1.284-5.548 8.237H0l4.981-7.36C2.112 12.478.504 10.505.504 7.154.504 2.957 3.436.107 9.017.107h5.548v21.767H10.75V3.051z" mask="url(#kb)"/></g><g transform="translate(38.68 28.097)"><mask id="kd" fill="#fff"><use xlink:href="#kc"/></mask><path fill="#000" d="M10.06 12.858H4.765c1.04-2.38 1.324-6.67 1.324-9.396v-.47h3.973v9.866zM13.813.048H2.872v1.347c0 3.853-.252 8.832-1.576 11.463H.13v6.546h3.468v-3.602h8.417v3.602h3.468v-6.546h-1.67V.048z" mask="url(#kd)"/></g><path fill="#000" d="M33.482 34.378h-5.013v-6.233h-3.751v15.754h3.751v-6.577h5.013v6.577h3.752V28.145h-3.752z"/><g transform="translate(83.824 27.833)"><mask id="kf" fill="#fff"><use xlink:href="#ke"/></mask><path fill="#000" d="M7.73 2.943c1.45 0 2.868.502 3.625.971V.751C10.566.313 9.179 0 7.319 0 2.527 0 .037 3.413.037 8.205c0 5.262 2.427 8.175 7.44 8.175 1.734 0 2.963-.314 3.878-.971V12.37c-.946.657-2.081 1.064-3.657 1.064-2.68 0-3.783-2.067-3.783-5.324 0-3.414 1.355-5.168 3.814-5.168" mask="url(#kf)"/></g><path fill="#000" d="M83.356 28.145h-3.783l-5.296 7.266v-7.266h-3.752v15.754h3.752v-7.736l5.548 7.736h4.256l-6.021-8.488zm-19.168 6.452h-5.233c.095-2.505 1.009-3.82 2.806-3.82 1.86 0 2.427 1.534 2.427 3.507v.313zm-2.364-6.765c-4.571 0-6.746 3.477-6.746 8.237 0 5.481 2.71 8.143 7.503 8.143 2.396 0 4.161-.626 5.264-1.378v-3.038c-1.166.783-3.12 1.472-4.95 1.472-2.742 0-3.782-1.284-3.94-3.915h9.048V35.38c0-5.48-2.427-7.548-6.179-7.548z"/></g></svg><svg preserveAspectRatio="xMinYMin meet" viewBox="0 0 148 124" id="practice" xmlns="http://www.w3.org/2000/svg"><defs><path id="la" d="M0 0h146v12H0z"/><path id="lc" d="M0 99h147V0H0z"/></defs><g fill="none" fill-rule="evenodd" transform="translate(1 12)"><path fill="#32B494" d="M14 88.89V8.11A7.11 7.11 0 0121.111 1h105.778A7.11 7.11 0 01134 8.11v80.78a7.111 7.111 0 01-7.111 7.11H21.111A7.111 7.111 0 0114 88.89"/><path fill="#3A4349" d="M126.39 0H20.61C16.415 0 13 3.414 13 7.61v80.78c0 4.196 3.414 7.61 7.61 7.61h105.78c4.196 0 7.61-3.414 7.61-7.61V7.61c0-4.196-3.414-7.61-7.61-7.61m0 1A6.61 6.61 0 01133 7.61v80.78a6.61 6.61 0 01-6.61 6.61H20.61A6.61 6.61 0 0114 88.389V7.61A6.61 6.61 0 0120.61 1H126"/><g transform="translate(1 87)"><mask id="lb" fill="#fff"><use xlink:href="#la"/></mask><path fill="#F39A23" d="M0 5.162V0h146v5.162A6.839 6.839 0 01139.162 12H6.838A6.839 6.839 0 010 5.162" mask="url(#lb)"/></g><path fill="#3A4349" d="M147 86H0v5.662C0 95.708 3.292 99 7.338 99h132.324c4.046 0 7.338-3.292 7.338-7.338V86zm-1 1v4.662A6.337 6.337 0 01139.662 98H7.338A6.337 6.337 0 011 91.662V87h145z"/><mask id="ld" fill="#fff"><use xlink:href="#lc"/></mask><path fill="#EBEDEE" mask="url(#ld)" d="M20 84h108V9H20z"/><path fill="#3A4349" d="M128 8H19v76h109V8zM20 83h107V9H20v74z" mask="url(#ld)"/><path fill="#EBEDEE" mask="url(#ld)" d="M58 91h33v-4H58z"/><path fill="#3A4349" d="M91 86H57v5h34v-5zm-33 4h32v-3H58v3z" mask="url(#ld)"/><path fill="#384349" d="M114.426 75H31.573A4.574 4.574 0 0127 70.426V21.915C27 19.201 29.2 17 31.915 17h82.17A4.916 4.916 0 01119 21.915v48.511A4.574 4.574 0 01114.426 75" mask="url(#ld)"/><path fill="#EAECEC" d="M101.769 21.169a1.689 1.689 0 11-3.378 0 1.689 1.689 0 013.378 0" mask="url(#ld)"/><path fill="#33B292" d="M108.881 21.169a1.689 1.689 0 11-3.377 0 1.689 1.689 0 013.377 0" mask="url(#ld)"/><path fill="#F29923" d="M115.993 21.169a1.689 1.689 0 11-3.377 0 1.689 1.689 0 013.377 0" mask="url(#ld)"/><path fill="#B8C1CA" mask="url(#ld)" d="M34 31h6v-3h-6zm0 7h6v-3h-6z"/><path fill="#EAECEC" mask="url(#ld)" d="M44 38h25v-3H44zm0 7h10v-3H44zm1 17h15v-3H45zm12-17h11v-3H57zm5 17h7v-3h-7zm10 0h8v-3h-8zm0-24h8v-3h-8z"/><path fill="#B8C1CA" mask="url(#ld)" d="M34 45h6v-3h-6zm0 6h6v-3h-6z"/><path fill="#EAECEC" mask="url(#ld)" d="M44 51h32v-3H44z"/><path fill="#B8C1CA" mask="url(#ld)" d="M34 62h6v-3h-6zm0 7h6v-3h-6z"/><path fill="#EAECEC" mask="url(#ld)" d="M44 69h7v-3h-7zm10 0h10v-3H54zm12 0h7v-3h-7zM44 31h13v-3H44zm16 0h22v-3H60z"/></g></svg></defs></svg>