<svg width="280" height="260" viewBox="0 0 280 260" fill="none" xmlns="http://www.w3.org/2000/svg">
<g clip-path="url(#clip0)">
<path d="M10.5699 195.48C31.5699 226.7 94.1399 249.94 148.57 248.96C173.576 248.661 197.933 240.964 218.57 226.84C235.11 215.76 261.53 190.5 266.89 162.61C271.95 136.25 281.42 94.69 245.16 46.61C211.04 1.27002 140.11 -6.40998 77.8999 38.87C32.1099 72.24 -21.0601 148.41 10.5699 195.48Z" fill="#E1E7EB"/>
<path d="M250.64 244.62V228.89H177.34V244.62H250.64Z" fill="#50545E" stroke="#394349" stroke-width="2" stroke-linecap="round" stroke-linejoin="round"/>
<path d="M278.63 244.62V228.89H250.64V244.62H278.63Z" fill="white" stroke="#394349" stroke-width="2" stroke-linecap="round" stroke-linejoin="round"/>
<path d="M236.96 228.89V213.16H163.66V228.89H236.96Z" fill="#F39A21" stroke="#394349" stroke-width="2" stroke-miterlimit="10"/>
<path d="M264.95 228.9V213.17H236.96V228.9H264.95Z" fill="white" stroke="#394349" stroke-width="2" stroke-linecap="round" stroke-linejoin="round"/>
<path d="M228.22 228.9V213.17H217.26V228.9H228.22Z" fill="white" stroke="#394349" stroke-width="2" stroke-linecap="round" stroke-linejoin="round"/>
<path d="M246.05 240.66V232.8H182.57V240.66H246.05Z" fill="#00AF9A"/>
<path d="M92.1599 45.14H278.7V175.91C278.7 178.406 277.709 180.799 275.944 182.564C274.179 184.329 271.786 185.32 269.29 185.32H101.57C99.0742 185.32 96.6807 184.329 94.916 182.564C93.1513 180.799 92.1599 178.406 92.1599 175.91V45.14Z" fill="white" stroke="#394349" stroke-width="2" stroke-miterlimit="10"/>
<path d="M267.92 24.45H102.92C100.061 24.45 97.3189 25.5858 95.2973 27.6074C93.2756 29.629 92.1399 32.371 92.1399 35.23V43.37C92.1399 43.8394 92.3264 44.2897 92.6583 44.6216C92.9903 44.9535 93.4405 45.14 93.9099 45.14H276.91C277.142 45.14 277.372 45.0942 277.586 45.0051C277.8 44.916 277.994 44.7855 278.158 44.621C278.322 44.4565 278.451 44.2613 278.539 44.0466C278.627 43.8319 278.671 43.602 278.67 43.37V35.23C278.673 32.3754 277.542 29.6364 275.526 27.6151C273.51 25.5937 270.775 24.4553 267.92 24.45V24.45Z" fill="white" stroke="#394349" stroke-width="2" stroke-miterlimit="10"/>
<path d="M125.73 38C127.503 38 128.94 36.5629 128.94 34.79C128.94 33.0172 127.503 31.58 125.73 31.58C123.957 31.58 122.52 33.0172 122.52 34.79C122.52 36.5629 123.957 38 125.73 38Z" fill="#00AF9A"/>
<path d="M113.84 38C115.613 38 117.05 36.5629 117.05 34.79C117.05 33.0172 115.613 31.58 113.84 31.58C112.067 31.58 110.63 33.0172 110.63 34.79C110.63 36.5629 112.067 38 113.84 38Z" fill="#F39922"/>
<path d="M101.94 38C103.713 38 105.15 36.5629 105.15 34.79C105.15 33.0172 103.713 31.58 101.94 31.58C100.167 31.58 98.73 33.0172 98.73 34.79C98.73 36.5629 100.167 38 101.94 38Z" fill="#394349"/>
<path d="M177.42 106.19L193.44 115.23L177.42 124.26V106.19Z" fill="#394349"/>
<path d="M47.1101 193.53C52.2201 179.95 60.1101 173.53 71.5601 173.53H92.4401C92.4507 176.056 93.4615 178.475 95.2513 180.257C97.0412 182.039 99.4642 183.04 101.99 183.04V183.04C104.516 183.043 106.939 182.043 108.728 180.259C110.517 178.476 111.525 176.056 111.53 173.53H132.42C140.53 173.53 146.61 176.53 151.42 183.26C158.172 192.69 166.126 201.198 175.08 208.57V208.57C184.88 217.35 191.69 219.2 199.45 236.05L185.03 241.65L40.7401 248.51L26.3601 232.7L47.1101 193.53Z" fill="#384349"/>
<path d="M32.3999 128.59C32.3999 140.01 36.9366 150.963 45.0119 159.038C53.0872 167.113 64.0397 171.65 75.4599 171.65" stroke="#384349" stroke-width="2" stroke-miterlimit="10"/>
<path d="M136.96 170.3C142.23 168.854 147.177 166.421 151.54 163.13" stroke="#384349" stroke-width="2" stroke-miterlimit="10"/>
<path d="M156.64 193.53C151.54 179.95 143.64 173.53 132.19 173.53H111.31C111.302 176.057 110.292 178.477 108.502 180.26C106.711 182.043 104.287 183.043 101.76 183.04V183.04C99.2349 183.04 96.8129 182.039 95.0247 180.256C93.2365 178.474 92.2279 176.055 92.2199 173.53H71.3299C63.2199 173.53 57.1399 176.53 52.3299 183.26C45.5777 192.69 37.6238 201.198 28.6699 208.57V208.57C18.8699 217.35 12.4599 220.02 4.66992 236.86L18.6699 241.65L162.93 248.49L177.31 232.68L156.64 193.53Z" fill="#384349"/>
<path d="M161.41 109.82C157.841 103.352 154.949 96.5321 152.78 89.47C148 73.06 135.32 61.33 120.42 61.33C118.156 61.3301 115.9 61.602 113.7 62.14C106.738 59.3051 99.2471 58.0032 91.7369 58.3227C84.2266 58.6422 76.8733 60.5757 70.1772 63.9916C63.4812 67.4074 57.5994 72.2256 52.9322 78.1182C48.265 84.0108 44.9218 90.8396 43.1301 98.14C41.9171 103.141 40.2881 108.031 38.2601 112.76C35.6311 118.847 34.5565 125.492 35.1329 132.097C35.7093 138.702 37.9185 145.061 41.562 150.6C45.2055 156.14 50.1689 160.687 56.0057 163.832C61.8425 166.978 68.3697 168.623 75.0001 168.62C76.9579 168.619 78.9131 168.475 80.8501 168.19C86.1101 167.12 89.5501 165.89 91.5401 164.52C67.5401 161.14 49.4201 145.61 49.4201 120.2V119.76C49.4201 119.37 49.4201 118.98 49.4201 118.59C49.4201 118.2 49.4201 117.73 49.4201 117.3C49.4201 116.87 49.4201 116.58 49.5001 116.22C49.5001 115.68 49.5801 115.14 49.6401 114.61C49.6401 114.48 49.6401 114.35 49.6401 114.22C50.8906 103.445 55.4556 93.3234 62.7049 85.2537C69.9541 77.1841 79.53 71.5642 90.1101 69.17H90.3601C91.0301 69.02 91.6901 68.89 92.3601 68.76L93.0701 68.64C93.6201 68.55 94.1701 68.46 94.7201 68.39L95.7801 68.26C96.2501 68.2 96.7201 68.16 97.1901 68.12C97.6601 68.08 98.0501 68.04 98.4801 68.02L99.7801 67.95C100.02 67.95 100.26 67.95 100.51 67.95C100.76 67.95 100.92 67.95 101.13 67.95H101.77H102.53H103.86C104.32 67.95 104.77 67.95 105.23 68.02L106.54 68.12L107.9 68.26L109.19 68.43C109.64 68.49 110.08 68.56 110.52 68.64L111.8 68.86L113.11 69.14C113.53 69.23 113.94 69.32 114.36 69.43C114.78 69.54 115.22 69.65 115.64 69.77L116.87 70.11L118.13 70.51L119.33 70.92L120.57 71.38L121.73 71.84L122.94 72.36L124.08 72.88L125.25 73.46C125.62 73.64 126 73.83 126.36 74.03C126.72 74.23 127.13 74.45 127.51 74.66L128.58 75.28C128.953 75.5 129.323 75.73 129.69 75.97L130.69 76.63L131.76 77.38L132.76 78.09L133.76 78.88L134.76 79.64L135.76 80.49C136.07 80.75 136.38 81.01 136.68 81.29C136.98 81.57 137.32 81.88 137.68 82.18L138.57 83.02C138.88 83.33 139.18 83.64 139.48 83.96C139.78 84.28 140.05 84.54 140.32 84.84L141.19 85.84L141.99 86.77C142.27 87.1 142.54 87.45 142.81 87.77C143.08 88.09 143.32 88.41 143.56 88.77C143.8 89.13 144.08 89.48 144.34 89.84L145.04 90.84C145.29 91.21 145.53 91.58 145.77 91.95C146.01 92.32 146.21 92.63 146.42 92.95C146.63 93.27 146.87 93.71 147.1 94.1C147.33 94.49 147.51 94.79 147.7 95.1C147.89 95.41 148.12 95.89 148.32 96.29C148.52 96.69 148.7 97 148.87 97.37C149.04 97.74 149.25 98.19 149.44 98.6C149.63 99.01 149.78 99.33 149.94 99.7C150.1 100.07 150.28 100.55 150.45 100.97C150.62 101.39 150.75 101.71 150.89 102.09C151.03 102.47 151.19 102.97 151.34 103.41C151.49 103.85 151.6 104.16 151.72 104.54C151.84 104.92 151.99 105.44 152.11 105.9C152.23 106.36 152.34 106.65 152.44 107.04C152.54 107.43 152.66 107.98 152.77 108.45C152.88 108.92 152.95 109.2 153.03 109.59C153.11 109.98 153.21 110.59 153.3 111.06C153.39 111.53 153.44 111.81 153.5 112.18C153.58 112.71 153.64 113.24 153.7 113.77C153.7 114.12 153.8 114.47 153.84 114.82C153.9 115.41 153.93 116 153.97 116.6C153.97 116.9 154.03 117.2 154.04 117.5C154.04 118.4 154.11 119.3 154.11 120.21C154.11 145.47 136.22 160.96 112.42 164.47C116.24 167.84 123.74 168.63 126.09 168.63C132.996 168.632 139.786 166.846 145.797 163.446C151.808 160.046 156.837 155.147 160.393 149.227C163.949 143.307 165.912 136.566 166.09 129.662C166.268 122.758 164.656 115.926 161.41 109.83V109.82Z" fill="#00AF9A"/>
<path d="M150.74 230.1L139.26 206.48L139.94 234.81L150.74 230.1Z" fill="#2E383D"/>
<path d="M51.1001 230.1L62.5801 206.48L61.9001 234.81L51.1001 230.1Z" fill="#2E383D"/>
<path d="M154.11 120.2C154.11 149.11 130.67 165.2 101.76 165.2C72.85 165.2 49.42 149.08 49.42 120.2C49.3242 113.265 50.6073 106.38 53.1949 99.9454C55.7825 93.5106 59.6229 87.6541 64.4931 82.7161C69.3633 77.7781 75.1661 73.8571 81.5646 71.1809C87.963 68.5046 94.8295 67.1265 101.765 67.1265C108.701 67.1265 115.567 68.5046 121.966 71.1809C128.364 73.8571 134.167 77.7781 139.037 82.7161C143.907 87.6541 147.748 93.5106 150.335 99.9454C152.923 106.38 154.206 113.265 154.11 120.2V120.2Z" fill="white" stroke="#384349" stroke-width="2" stroke-miterlimit="10"/>
<path d="M123.65 138.07C125.39 138.07 126.8 136.499 126.8 134.56C126.8 132.621 125.39 131.05 123.65 131.05C121.91 131.05 120.5 132.621 120.5 134.56C120.5 136.499 121.91 138.07 123.65 138.07Z" fill="#384349"/>
<path d="M82.1 138.07C83.8396 138.07 85.25 136.499 85.25 134.56C85.25 132.621 83.8396 131.05 82.1 131.05C80.3603 131.05 78.95 132.621 78.95 134.56C78.95 136.499 80.3603 138.07 82.1 138.07Z" fill="#384349"/>
<path d="M105.17 65.28C106.426 79.3338 112.068 92.6374 121.297 103.311C130.525 113.984 142.875 121.487 156.6 124.76C156.73 123.26 156.81 121.76 156.81 120.21C156.818 106.199 151.479 92.7131 141.882 82.5049C132.286 72.2967 119.155 66.1359 105.17 65.28V65.28Z" fill="#00AF9A"/>
<path d="M126.8 71.18C119.223 67.4366 110.91 65.4215 102.46 65.28C72.06 65.28 47.46 90.28 47.46 120.71C47.46 122.11 47.53 123.49 47.63 124.87C51.7909 125.654 56.0158 126.049 60.25 126.05C93.19 126.05 121.01 102.44 126.8 71.18Z" fill="#00AF9A"/>
<path d="M101.76 165.23C98.57 165.228 95.3834 165.021 92.22 164.61V175.68C92.22 178.211 93.2248 180.639 95.0136 182.429C96.8024 184.22 99.2289 185.227 101.76 185.23C104.293 185.23 106.722 184.224 108.513 182.433C110.304 180.642 111.31 178.213 111.31 175.68V164.61C108.143 165.021 104.953 165.228 101.76 165.23V165.23Z" fill="white" stroke="#384349" stroke-width="2" stroke-miterlimit="10"/>
<path d="M89.9374 119.661L73.6375 121.559L73.5855 121.112C73.5296 120.632 73.6666 120.15 73.9661 119.772C74.2657 119.393 74.7033 119.149 75.1828 119.094L89.6749 117.407C89.9147 117.379 90.1557 117.447 90.3449 117.597C90.5341 117.747 90.6561 117.966 90.6841 118.205L90.7326 118.622C90.7605 118.862 90.6921 119.103 90.5423 119.292C90.3925 119.482 90.1737 119.604 89.9339 119.632L89.9374 119.661Z" fill="#384349"/>
<path d="M117.813 118.163L132.401 118.438C132.883 118.447 133.342 118.648 133.677 118.995C134.012 119.343 134.195 119.81 134.186 120.292L134.178 120.712L117.771 120.403C117.53 120.398 117.3 120.298 117.133 120.124C116.965 119.95 116.874 119.717 116.878 119.476L116.886 119.056C116.891 118.815 116.991 118.585 117.165 118.418C117.339 118.25 117.572 118.159 117.813 118.163V118.163Z" fill="#384349"/>
<path d="M77.8099 147.42C86.8508 147.42 94.1799 140.091 94.1799 131.05C94.1799 122.009 86.8508 114.68 77.8099 114.68C68.769 114.68 61.4399 122.009 61.4399 131.05C61.4399 140.091 68.769 147.42 77.8099 147.42Z" stroke="#F69C1C" stroke-width="2" stroke-miterlimit="10"/>
<path d="M125.72 147.42C134.761 147.42 142.09 140.091 142.09 131.05C142.09 122.009 134.761 114.68 125.72 114.68C116.679 114.68 109.35 122.009 109.35 131.05C109.35 140.091 116.679 147.42 125.72 147.42Z" stroke="#F69C1C" stroke-width="2" stroke-miterlimit="10"/>
<path d="M94.1799 131.05H109.06" stroke="#F69C1C" stroke-width="2" stroke-miterlimit="10"/>
<path d="M100.55 133.5C100.986 133.5 101.418 133.586 101.821 133.753C102.223 133.92 102.589 134.164 102.898 134.472C103.206 134.781 103.45 135.147 103.617 135.549C103.784 135.952 103.87 136.384 103.87 136.82C103.87 137.256 103.784 137.688 103.617 138.09C103.45 138.493 103.206 138.859 102.898 139.168C102.589 139.476 102.223 139.72 101.821 139.887C101.418 140.054 100.986 140.14 100.55 140.14" stroke="#384349" stroke-width="2" stroke-miterlimit="10"/>
<path d="M104.59 146.45C102.469 147.081 100.211 147.081 98.0901 146.45" stroke="#384349" stroke-width="2" stroke-miterlimit="10"/>
<path d="M60.71 119.47C90.15 119.47 115.01 98.37 120.18 70.47" stroke="#384349" stroke-width="2" stroke-miterlimit="10"/>
<path d="M60.71 114.76C73.4353 114.78 85.7692 110.362 95.5876 102.267C105.406 94.1715 112.094 82.9058 114.5 70.41" stroke="#384349" stroke-width="2" stroke-miterlimit="10"/>
<path d="M114.49 87.93C118.673 96.3616 124.659 103.77 132.025 109.63C139.39 115.49 147.954 119.659 157.11 121.84" stroke="#384349" stroke-width="2" stroke-miterlimit="10"/>
<path d="M156.33 159.69C160.535 155.676 163.88 150.849 166.163 145.503C168.446 140.157 169.619 134.403 169.61 128.59" stroke="#384349" stroke-width="2" stroke-miterlimit="10"/>
<path d="M96.27 245.14C86.51 241.67 60.27 232.41 49.72 229.14C42.4752 227.098 35.0975 225.561 27.64 224.54C11.27 222.76 5.45996 235.16 5.45996 237.04C5.45996 240.72 11.79 245.19 16.46 246.88H111.54L96.27 245.14Z" fill="white" stroke="#394349" stroke-width="2" stroke-miterlimit="10"/>
<path d="M107.56 245.14C117.33 241.67 143.56 232.41 154.11 229.14C161.355 227.099 168.733 225.562 176.19 224.54C192.56 222.7 198.38 235.12 198.38 237C198.38 240.68 192.04 245.15 187.38 246.84H92.3401L107.56 245.14Z" fill="white" stroke="#394349" stroke-width="2" stroke-miterlimit="10"/>
<path d="M96.4201 242.69H14.3201V247.55H96.4201V242.69Z" fill="#F39A21" stroke="#394349" stroke-width="2" stroke-miterlimit="10"/>
<path d="M189.39 242.69H107.29V247.55H189.39V242.69Z" fill="#F39A21" stroke="#394349" stroke-width="2" stroke-miterlimit="10"/>
<path d="M96.1499 242.69H107.65V246.74C107.65 247.981 107.157 249.172 106.279 250.049C105.401 250.927 104.211 251.42 102.97 251.42H100.83C99.5887 251.42 98.3983 250.927 97.5206 250.049C96.643 249.172 96.1499 247.981 96.1499 246.74V242.69Z" fill="#F39A21" stroke="#394349" stroke-width="2" stroke-miterlimit="10"/>
<path d="M184.19 242.69V229.12C184.19 229.12 126.26 219.74 102.19 243.06L184.19 242.69Z" fill="white" stroke="#394349" stroke-width="2" stroke-miterlimit="10"/>
<path d="M27.96 214.76C27.96 214.76 77.11 216.54 101.9 243.06" stroke="white" stroke-width="2" stroke-miterlimit="10"/>
<path d="M19.95 242.69V229.12C19.95 229.12 77.88 219.74 101.95 243.06L19.95 242.69Z" fill="white" stroke="#394349" stroke-width="2" stroke-miterlimit="10"/>
</g>
<defs>
<clipPath id="clip0">
<rect width="278.7" height="244.43" fill="white" transform="translate(1 8)"/>
</clipPath>
</defs>
</svg>
