<svg width="280" height="260" viewBox="0 0 280 260" fill="none" xmlns="http://www.w3.org/2000/svg">
<g clip-path="url(#clip0)">
<path d="M20.8401 197.535C40.2382 226.42 98.0354 247.914 148.314 247.008C171.412 246.731 193.911 239.612 212.974 226.549C228.178 216.32 252.629 192.93 257.58 167.144C262.255 142.764 271.002 104.325 237.508 59.8564C205.991 17.9588 140.443 10.8372 83.0065 52.744C40.6631 83.6075 -8.44188 154.056 20.8124 197.582" fill="#ECF0F3"/>
<path d="M23.7898 111.02L167.694 105.535L172.067 220.564C172.11 221.706 171.929 222.846 171.532 223.917C171.136 224.989 170.532 225.972 169.757 226.81C168.981 227.649 168.048 228.326 167.01 228.803C165.973 229.28 164.852 229.548 163.712 229.592L37.1796 234.415C36.0389 234.458 34.9009 234.276 33.8304 233.879C32.76 233.482 31.7781 232.878 30.9408 232.101C30.1036 231.325 29.4273 230.39 28.9507 229.352C28.4741 228.313 28.2064 227.191 28.163 226.049L23.7898 111.02Z" stroke="#394349" stroke-width="2" stroke-miterlimit="10"/>
<path d="M158.687 89.8875L31.4258 94.7247C30.3322 94.764 29.2571 95.0191 28.2622 95.4754C27.2673 95.9317 26.3722 96.5801 25.6281 97.3835C24.8841 98.1869 24.3057 99.1295 23.9263 100.157C23.5469 101.185 23.3739 102.278 23.4171 103.372L23.6573 109.662C23.6786 110.012 23.8332 110.34 24.0893 110.579C24.3454 110.819 24.6834 110.95 25.0337 110.947L166.206 105.574C166.567 105.559 166.908 105.402 167.153 105.137C167.399 104.872 167.53 104.52 167.518 104.159L167.287 97.8693C167.198 95.671 166.243 93.5974 164.632 92.1017C163.02 90.606 160.883 89.8099 158.687 89.8875Z" fill="white" stroke="#394349" stroke-width="2" stroke-miterlimit="10"/>
<path d="M49.3091 104.529C50.6763 104.529 51.7846 103.419 51.7846 102.05C51.7846 100.681 50.6763 99.5711 49.3091 99.5711C47.9418 99.5711 46.8335 100.681 46.8335 102.05C46.8335 103.419 47.9418 104.529 49.3091 104.529Z" fill="#00AF9A"/>
<path d="M40.1272 104.88C41.4944 104.88 42.6028 103.77 42.6028 102.401C42.6028 101.032 41.4944 99.9226 40.1272 99.9226C38.76 99.9226 37.6516 101.032 37.6516 102.401C37.6516 103.77 38.76 104.88 40.1272 104.88Z" fill="#F39922"/>
<path d="M30.9548 105.231C32.322 105.231 33.4304 104.122 33.4304 102.753C33.4304 101.384 32.322 100.274 30.9548 100.274C29.5876 100.274 28.4792 101.384 28.4792 102.753C28.4792 104.122 29.5876 105.231 30.9548 105.231Z" fill="#394349"/>
<path d="M91.5601 163.407L104.187 169.918L92.0866 177.364L91.5601 163.407Z" fill="#394349"/>
<path d="M214.331 27.2064L40.2129 57.0066L66.3584 210.157L240.476 180.357L214.331 27.2064Z" fill="#07C39F"/>
<path d="M36.8389 36.8728L73.7323 252.927L247.854 223.118L210.96 7.06363L36.8389 36.8728ZM240.547 180.314L66.4256 210.123L40.2751 56.9892L214.396 27.18L240.547 180.314Z" fill="white" stroke="#384349" stroke-width="2" stroke-miterlimit="10"/>
<path d="M78.0184 134.07C79.573 135.094 81.4658 135.469 83.2928 135.115C86.7845 134.514 87.7267 130.49 83.6716 130.074L80.3184 129.824C77.4549 129.565 75.2472 128.021 74.7761 125.385C74.1942 122.379 76.9284 119.318 80.4847 118.79C82.8 118.373 85.1883 118.727 87.2833 119.798L85.7776 122.962C84.3439 122.175 82.6803 121.917 81.0759 122.231C78.1385 122.74 77.1593 125.986 80.6417 126.375L83.7916 126.661C86.8122 126.892 89.4725 128.363 89.9898 131.406C90.6179 134.671 87.7914 137.88 83.8563 138.518C81.3209 138.985 78.7024 138.536 76.4665 137.251L78.0184 134.07Z" fill="white"/>
<path d="M101.795 124.34C101.333 124.006 100.809 123.768 100.253 123.641C99.6979 123.514 99.1226 123.5 98.5617 123.6C97.9995 123.696 97.4617 123.903 96.9792 124.207C96.4967 124.512 96.0788 124.909 95.7494 125.375C95.0842 126.317 94.8199 127.485 95.0147 128.622C95.2094 129.759 95.8473 130.772 96.7879 131.438C97.7286 132.104 98.8949 132.368 100.03 132.173C100.587 132.076 101.118 131.869 101.594 131.564C102.07 131.259 102.48 130.863 102.802 130.398L105.665 132.395C104.752 133.667 103.486 134.642 102.025 135.201C100.564 135.761 98.9719 135.88 97.4444 135.543C95.9168 135.207 94.521 134.43 93.4294 133.309C92.3377 132.187 91.5979 130.77 91.3013 129.232C91.131 128.214 91.1634 127.172 91.3966 126.167C91.6297 125.161 92.0591 124.212 92.66 123.373C93.2609 122.534 94.0214 121.822 94.8979 121.279C95.7744 120.735 96.7496 120.37 97.7673 120.205H97.989C99.0046 120.027 100.045 120.053 101.051 120.282C102.056 120.51 103.006 120.937 103.845 121.537L101.795 124.34Z" fill="white"/>
<path d="M128.352 124.525L116.768 126.513C117.186 127.308 117.845 127.95 118.65 128.346C119.455 128.741 120.365 128.87 121.249 128.714C122.04 128.6 122.791 128.292 123.436 127.818C124.08 127.343 124.598 126.718 124.943 125.995L127.955 127.29C127.384 128.502 126.527 129.556 125.459 130.361C124.39 131.167 123.142 131.7 121.821 131.915C120.299 132.158 118.74 131.946 117.338 131.304C115.936 130.662 114.756 129.62 113.944 128.308C113.133 126.996 112.727 125.473 112.777 123.931C112.828 122.389 113.333 120.896 114.229 119.64C115.124 118.384 116.371 117.422 117.812 116.874C119.252 116.326 120.823 116.216 122.325 116.559C123.828 116.903 125.196 117.683 126.256 118.802C127.317 119.922 128.024 121.33 128.287 122.851C128.375 123.404 128.396 123.966 128.352 124.525V124.525ZM124.269 122.175C123.849 121.383 123.189 120.744 122.385 120.349C121.581 119.953 120.672 119.822 119.789 119.974C118.906 120.126 118.093 120.552 117.466 121.193C116.839 121.834 116.43 122.657 116.297 123.544L124.269 122.175Z" fill="white"/>
<path d="M156.063 115.045C155.602 114.71 155.077 114.473 154.522 114.346C153.967 114.219 153.391 114.205 152.83 114.305C152.253 114.385 151.697 114.58 151.197 114.88C150.696 115.179 150.261 115.576 149.917 116.047C149.573 116.518 149.327 117.054 149.193 117.622C149.06 118.19 149.042 118.78 149.14 119.355C149.238 119.93 149.451 120.48 149.766 120.972C150.081 121.463 150.491 121.886 150.972 122.215C151.454 122.545 151.996 122.774 152.568 122.89C153.139 123.005 153.728 123.004 154.299 122.888C154.856 122.789 155.388 122.581 155.864 122.274C156.34 121.968 156.75 121.569 157.07 121.102L159.943 123.1C159.211 124.193 158.218 125.086 157.054 125.697C155.89 126.309 154.592 126.62 153.278 126.602C151.963 126.584 150.674 126.238 149.527 125.595C148.38 124.953 147.412 124.034 146.709 122.921C146.007 121.809 145.593 120.539 145.504 119.226C145.416 117.913 145.657 116.598 146.204 115.402C146.751 114.205 147.588 113.164 148.639 112.374C149.69 111.583 150.921 111.067 152.221 110.873C153.242 110.691 154.29 110.715 155.302 110.944C156.314 111.172 157.27 111.601 158.114 112.205L156.063 115.045Z" fill="white"/>
<path d="M175.785 116.404L164.202 118.393C164.618 119.186 165.276 119.826 166.079 120.222C166.882 120.618 167.79 120.748 168.672 120.594C169.463 120.478 170.214 120.169 170.858 119.695C171.502 119.221 172.021 118.596 172.367 117.875L175.379 119.17C174.803 120.377 173.945 121.428 172.877 122.233C171.809 123.038 170.563 123.574 169.245 123.794C167.723 124.038 166.163 123.825 164.762 123.183C163.36 122.542 162.179 121.499 161.368 120.188C160.556 118.876 160.15 117.353 160.201 115.81C160.252 114.268 160.757 112.775 161.652 111.52C162.548 110.264 163.795 109.301 165.235 108.753C166.676 108.205 168.247 108.096 169.749 108.439C171.252 108.782 172.619 109.562 173.68 110.682C174.741 111.801 175.448 113.21 175.711 114.73C175.797 115.284 175.822 115.845 175.785 116.404V116.404ZM171.693 114.055C171.275 113.261 170.616 112.62 169.812 112.223C169.008 111.827 168.099 111.695 167.216 111.847C166.332 111.999 165.519 112.427 164.893 113.069C164.267 113.711 163.86 114.536 163.73 115.424L171.693 114.055Z" fill="white"/>
<path d="M108.77 118.736L105.31 119.328L107.8 133.915L111.26 133.323L108.77 118.736Z" fill="white"/>
<path d="M108.667 114.924C108.739 115.342 108.686 115.772 108.514 116.16C108.343 116.547 108.06 116.875 107.702 117.102C107.345 117.329 106.928 117.445 106.504 117.434C106.081 117.424 105.67 117.289 105.324 117.045C104.977 116.801 104.711 116.46 104.557 116.065C104.404 115.669 104.372 115.237 104.464 114.824C104.556 114.41 104.768 114.032 105.074 113.739C105.38 113.446 105.766 113.25 106.183 113.176C106.743 113.08 107.32 113.209 107.785 113.537C108.251 113.864 108.568 114.363 108.667 114.924V114.924Z" fill="white"/>
<path d="M135.594 113.722C134.706 113.842 133.853 114.146 133.088 114.614C132.324 115.083 131.665 115.705 131.153 116.441C130.642 117.178 130.289 118.013 130.117 118.893C129.944 119.774 129.957 120.68 130.153 121.556L131.566 129.88L135.03 129.288L133.608 120.964C133.417 120.182 133.54 119.356 133.951 118.664C134.362 117.972 135.029 117.469 135.806 117.264C135.931 117.233 136.057 117.211 136.185 117.2C136.605 117.116 137.038 117.117 137.458 117.202C137.878 117.287 138.278 117.454 138.633 117.693C138.988 117.933 139.293 118.241 139.529 118.599C139.765 118.957 139.929 119.359 140.009 119.78C140.014 119.848 140.014 119.916 140.009 119.983L141.413 128.206L144.868 127.614L143.455 119.29C143.238 117.571 142.349 116.008 140.982 114.945C139.616 113.882 137.884 113.406 136.167 113.62L135.594 113.722Z" fill="white"/>
<path d="M89.9713 99.0439L88.6781 91.4691L86.5443 94.4842C85.2095 93.5199 83.6592 92.8976 82.0288 92.6717C80.3984 92.4458 78.7376 92.6232 77.1915 93.1883C75.6454 93.7534 74.261 94.6891 73.1594 95.9136C72.0579 97.1381 71.2726 98.6141 70.8722 100.213C70.4719 101.811 70.4687 103.484 70.8629 105.084C71.257 106.684 72.0366 108.163 73.1335 109.391C74.2303 110.62 75.6111 111.561 77.155 112.132C78.6989 112.703 80.3591 112.887 81.9903 112.668L82.5538 112.566C84.2296 112.29 85.8074 111.591 87.1378 110.534C88.4681 109.477 89.507 108.098 90.156 106.526L86.923 105.222C86.4038 106.451 85.5183 107.488 84.3877 108.194C83.257 108.899 81.9364 109.238 80.6063 109.163C79.2762 109.088 78.0016 108.604 76.9568 107.777C75.912 106.949 75.1479 105.819 74.7691 104.54C74.3903 103.261 74.4152 101.896 74.8405 100.632C75.2657 99.3682 76.0705 98.2665 77.1448 97.4778C78.2192 96.6891 79.5106 96.2519 80.8425 96.2259C82.1744 96.2 83.4818 96.5866 84.586 97.3329L82.4522 100.348L89.9713 99.0439Z" fill="white"/>
<path d="M100.714 109.393C99.6885 109.602 98.6314 109.602 97.6057 109.394C96.58 109.185 95.6065 108.773 94.743 108.181C93.8795 107.589 93.1436 106.829 92.579 105.946C92.0144 105.064 91.6326 104.077 91.4562 103.044C91.2799 102.011 91.3125 100.953 91.5523 99.933C91.792 98.9129 92.234 97.9515 92.8519 97.1057C93.4699 96.2599 94.2512 95.5469 95.1495 95.0092C96.0479 94.4715 97.045 94.1201 98.0816 93.9756V93.9756C100.108 93.5328 102.226 93.914 103.972 95.0354C105.717 96.1567 106.946 97.9264 107.388 99.955C107.83 101.984 107.45 104.105 106.33 105.852C105.21 107.6 103.442 108.83 101.416 109.273C101.185 109.327 100.95 109.367 100.714 109.393V109.393ZM98.6635 97.3699C97.8149 97.5168 97.0288 97.9125 96.405 98.507C95.7811 99.1016 95.3475 99.8681 95.1591 100.71C94.9707 101.551 95.036 102.43 95.3467 103.234C95.6573 104.038 96.1994 104.732 96.9042 105.228C97.6091 105.723 98.445 105.998 99.306 106.018C100.167 106.037 101.014 105.8 101.741 105.337C102.468 104.874 103.04 104.206 103.387 103.416C103.734 102.627 103.839 101.752 103.689 100.903C103.488 99.7684 102.847 98.7596 101.905 98.0974C100.963 97.4353 99.7975 97.1737 98.6635 97.3699V97.3699Z" fill="white"/>
<path d="M192.172 87.3995L180.588 89.3788C181.003 90.1746 181.66 90.8182 182.463 91.217C183.266 91.6159 184.175 91.7495 185.059 91.5986C185.857 91.481 186.613 91.1655 187.258 90.681C187.904 90.1964 188.418 89.558 188.754 88.8239L191.793 90.1003C191.215 91.3114 190.352 92.3645 189.279 93.1698C188.206 93.975 186.955 94.5085 185.632 94.7247C184.108 94.9705 182.545 94.7594 181.14 94.1179C179.736 93.4763 178.552 92.4331 177.738 91.1194C176.925 89.8058 176.517 88.2805 176.568 86.7356C176.618 85.1906 177.123 83.6951 178.021 82.4373C178.918 81.1794 180.167 80.2155 181.61 79.6669C183.054 79.1182 184.627 79.0093 186.132 79.3539C187.637 79.6986 189.006 80.4812 190.068 81.6035C191.129 82.7258 191.836 84.1374 192.098 85.6607C192.196 86.2349 192.22 86.8191 192.172 87.3995V87.3995ZM188.052 85.0503C187.638 84.2512 186.982 83.6044 186.177 83.2034C185.372 82.8023 184.461 82.6678 183.575 82.8191C182.689 82.9704 181.874 83.3997 181.247 84.0452C180.621 84.6906 180.215 85.5187 180.089 86.4099L188.052 85.0503Z" fill="white"/>
<path d="M195.349 92.6992L193.945 84.4584C193.317 80.8328 194.869 77.716 199.349 76.9576C199.732 76.8799 200.122 76.8366 200.513 76.8281L201.095 80.2502C200.822 80.26 200.551 80.2879 200.282 80.3334C198.037 80.7219 197.114 82.1832 197.511 84.6157L198.795 92.1258L195.349 92.6992Z" fill="white"/>
<path d="M132.98 96.3988L134.901 107.664L138.356 107.072L137.367 101.291C138.02 101.804 138.775 102.171 139.581 102.367C140.388 102.564 141.226 102.585 142.041 102.429C143.039 102.283 143.997 101.942 144.863 101.424C145.728 100.906 146.482 100.223 147.083 99.4123C147.684 98.602 148.119 97.681 148.363 96.702C148.608 95.723 148.657 94.7053 148.508 93.7073L148.452 93.4113C148.177 91.5995 147.258 89.9477 145.866 88.7586C144.473 87.5696 142.699 86.9229 140.868 86.9371C139.806 86.954 138.757 87.1803 137.781 87.6031C136.806 88.0259 135.924 88.637 135.184 89.4014C134.445 90.1658 133.863 91.0685 133.472 92.0581C133.081 93.0476 132.889 94.1046 132.906 95.1686C132.896 95.58 132.92 95.9916 132.98 96.3988V96.3988ZM141.293 98.9237C140.448 99.0641 139.58 98.9509 138.799 98.5983C138.018 98.2457 137.358 97.6696 136.903 96.9424C136.448 96.2152 136.219 95.3695 136.243 94.5119C136.267 93.6542 136.545 92.823 137.04 92.1228C137.535 91.4227 138.226 90.8849 139.026 90.5773C139.826 90.2697 140.699 90.206 141.535 90.3942C142.371 90.5824 143.133 91.0141 143.724 91.6349C144.316 92.2558 144.711 93.038 144.859 93.883C144.958 94.4487 144.944 95.0285 144.819 95.5889C144.693 96.1492 144.457 96.679 144.126 97.1477C143.794 97.6164 143.373 98.0147 142.887 98.3195C142.401 98.6244 141.859 98.8297 141.293 98.9237Z" fill="white"/>
<path d="M159.297 83.8665L160.71 92.135C160.911 92.9099 160.798 93.7328 160.397 94.4253C159.996 95.1178 159.338 95.6241 158.567 95.8345C158.427 95.8712 158.285 95.899 158.142 95.9178C157.304 96.0736 156.438 95.8946 155.73 95.4192C155.023 94.9438 154.529 94.2098 154.355 93.3744C154.35 93.3035 154.35 93.2325 154.355 93.1616L152.96 84.9671L149.524 85.559L150.937 93.883C151.05 94.7408 151.33 95.5679 151.763 96.3167C152.196 97.0656 152.772 97.7214 153.459 98.2465C154.145 98.7716 154.929 99.1557 155.764 99.3767C156.6 99.5976 157.471 99.6511 158.327 99.5341C158.504 99.5123 158.679 99.4814 158.853 99.4416C159.741 99.3202 160.594 99.0151 161.359 98.5459C162.123 98.0767 162.781 97.4536 163.292 96.7161C163.802 95.9786 164.154 95.1428 164.325 94.2618C164.496 93.3808 164.482 92.4739 164.285 91.5986L162.871 83.3208L159.297 83.8665Z" fill="white"/>
<path d="M114.163 106.6L112.639 97.6936C112.463 97.0681 112.542 96.3981 112.859 95.8309C113.176 95.2638 113.705 94.8459 114.33 94.6692L114.708 94.5952C115.044 94.5249 115.39 94.5214 115.727 94.5852C116.063 94.649 116.384 94.7787 116.671 94.9668C116.957 95.155 117.204 95.398 117.397 95.6818C117.589 95.9656 117.724 96.2846 117.794 96.6207C117.798 96.7008 117.798 96.7811 117.794 96.8612L119.309 105.712L122.754 105.12L121.23 96.2138C121.067 95.5712 121.165 94.8902 121.503 94.3199C121.841 93.7496 122.39 93.3365 123.031 93.1709L123.317 93.1154C123.65 93.0464 123.994 93.0439 124.328 93.108C124.662 93.172 124.98 93.3014 125.264 93.4887C125.548 93.6759 125.792 93.9175 125.983 94.1994C126.173 94.4813 126.307 94.7981 126.375 95.1317C126.38 95.2179 126.38 95.3044 126.375 95.3906L127.89 104.242L131.345 103.65L129.793 94.586C129.701 93.8305 129.459 93.101 129.084 92.4395C128.708 91.778 128.205 91.1977 127.603 90.7323C127.002 90.267 126.314 89.9257 125.58 89.7283C124.846 89.5308 124.08 89.4813 123.327 89.5823L122.828 89.6655C121.96 89.7754 121.132 90.098 120.419 90.6045C119.705 91.1111 119.127 91.7861 118.736 92.5697C118.083 91.9629 117.294 91.5226 116.436 91.2859C115.577 91.0492 114.674 91.0232 113.803 91.2101C113.02 91.3184 112.268 91.5887 111.594 92.0038C110.921 92.4189 110.342 92.9698 109.892 93.6213C109.443 94.2729 109.134 95.0108 108.986 95.7883C108.837 96.5658 108.851 97.3659 109.028 98.1376L110.579 107.201L114.163 106.6Z" fill="white"/>
<path d="M174.409 84.5879L173.864 81.3693L170.169 82.0075L169.448 77.7992L165.994 78.3911L166.705 82.5994L164.229 83.0156L164.783 86.2342L167.259 85.818L168.349 92.1997C168.922 95.5293 171.191 96.8551 175.157 96.1768L176.358 95.9733L175.767 92.5142L175.148 92.6252C173.097 92.9767 171.979 92.6252 171.656 90.7754L170.732 85.2261L174.409 84.5879Z" fill="white"/>
<path d="M115.143 153.002L103.55 154.981C103.964 155.776 104.619 156.418 105.421 156.815C106.223 157.212 107.13 157.344 108.011 157.192C108.804 157.08 109.557 156.774 110.202 156.299C110.847 155.824 111.364 155.197 111.706 154.473L114.718 155.767C114.139 156.979 113.277 158.032 112.204 158.837C111.131 159.642 109.88 160.176 108.556 160.392C107.531 160.6 106.474 160.601 105.448 160.392C104.422 160.184 103.449 159.771 102.585 159.179C101.722 158.587 100.986 157.827 100.421 156.945C99.8567 156.062 99.4749 155.075 99.2985 154.042C99.1222 153.009 99.1548 151.952 99.3946 150.931C99.6343 149.911 100.076 148.95 100.694 148.104C101.312 147.258 102.093 146.545 102.992 146.008C103.89 145.47 104.887 145.119 105.924 144.974V144.974C106.936 144.785 107.976 144.799 108.983 145.013C109.99 145.227 110.946 145.638 111.794 146.222C112.643 146.806 113.368 147.552 113.928 148.417C114.488 149.282 114.873 150.249 115.059 151.263V151.319C115.152 151.875 115.18 152.44 115.143 153.002ZM111.014 150.653C110.6 149.854 109.943 149.207 109.139 148.806C108.334 148.405 107.423 148.27 106.537 148.421C105.65 148.573 104.835 149.002 104.209 149.648C103.582 150.293 103.177 151.121 103.051 152.012L111.014 150.653Z" fill="white"/>
<path d="M158.65 145.547L147.066 147.536C147.478 148.347 148.14 149.004 148.953 149.411C149.766 149.817 150.688 149.951 151.583 149.793C152.38 149.671 153.134 149.354 153.779 148.87C154.424 148.386 154.939 147.75 155.278 147.018L158.299 148.313C157.72 149.525 156.856 150.579 155.781 151.384C154.707 152.19 153.453 152.722 152.128 152.937C150.608 153.167 149.053 152.943 147.659 152.292C146.265 151.642 145.094 150.594 144.292 149.279C143.49 147.965 143.094 146.444 143.152 144.905C143.21 143.366 143.72 141.878 144.619 140.629C145.518 139.379 146.764 138.423 148.204 137.879C149.643 137.336 151.21 137.23 152.709 137.574C154.208 137.919 155.572 138.698 156.63 139.815C157.689 140.933 158.395 142.338 158.659 143.855C158.721 144.417 158.718 144.985 158.65 145.547V145.547ZM154.53 143.198C154.112 142.404 153.454 141.763 152.649 141.367C151.845 140.97 150.936 140.838 150.053 140.99C149.169 141.142 148.357 141.57 147.731 142.212C147.105 142.855 146.698 143.679 146.568 144.567L154.53 143.198Z" fill="white"/>
<path d="M161.846 150.856L160.433 142.606C159.814 138.981 161.356 135.864 165.846 135.105C166.229 135.027 166.618 134.984 167.01 134.976L167.592 138.389C167.319 138.398 167.047 138.426 166.779 138.472C164.516 138.851 163.592 140.322 164.007 142.754L165.291 150.264L161.846 150.856Z" fill="white"/>
<path d="M94.3867 149.173C93.5224 148.216 92.3946 147.538 91.1456 147.222C89.8965 146.907 88.5822 146.969 87.3683 147.401C86.1544 147.832 85.0953 148.614 84.3247 149.648C83.5542 150.681 83.1065 151.92 83.0384 153.208C82.9702 154.496 83.2845 155.776 83.9417 156.885C84.5988 157.994 85.5694 158.884 86.7309 159.442C87.8924 159.999 89.1929 160.2 90.4682 160.019C91.7436 159.837 92.9367 159.281 93.8971 158.422C94.6215 157.771 95.1899 156.965 95.5598 156.063L98.8298 157.367C98.191 158.998 97.1406 160.434 95.7812 161.536C94.4218 162.638 92.8001 163.368 91.0745 163.655C89.349 163.941 87.5787 163.774 85.9369 163.17C84.2951 162.566 82.838 161.546 81.7082 160.209C80.5783 158.872 79.8143 157.264 79.4909 155.543C79.1675 153.822 79.2958 152.046 79.8633 150.39C80.4307 148.733 81.4179 147.252 82.7282 146.092C84.0385 144.932 85.6272 144.133 87.3387 143.772C87.5234 143.772 87.7174 143.698 87.9021 143.679C89.5693 143.397 91.2805 143.541 92.8774 144.097C94.4742 144.653 95.9052 145.604 97.0377 146.861L94.3867 149.173Z" fill="white"/>
<path d="M89.5463 156.581C91.2298 156.581 92.5946 155.215 92.5946 153.529C92.5946 151.844 91.2298 150.477 89.5463 150.477C87.8628 150.477 86.498 151.844 86.498 153.529C86.498 155.215 87.8628 156.581 89.5463 156.581Z" fill="white"/>
<path d="M122.412 142.172C121.524 142.293 120.671 142.598 119.907 143.067C119.143 143.536 118.485 144.16 117.974 144.897C117.463 145.635 117.111 146.47 116.94 147.351C116.769 148.232 116.783 149.139 116.981 150.015L118.394 158.339L121.849 157.747L120.436 149.423C120.241 148.643 120.361 147.818 120.769 147.126C121.177 146.434 121.84 145.93 122.616 145.723C122.742 145.685 122.872 145.66 123.004 145.649C123.424 145.566 123.857 145.567 124.277 145.651C124.697 145.736 125.096 145.903 125.452 146.143C125.807 146.383 126.112 146.691 126.348 147.049C126.584 147.407 126.747 147.808 126.828 148.23C126.833 148.3 126.833 148.372 126.828 148.442L128.232 156.655L131.659 156.073L130.246 147.749C130.133 146.891 129.852 146.063 129.42 145.314C128.987 144.565 128.411 143.908 127.724 143.382C127.038 142.856 126.254 142.471 125.419 142.249C124.583 142.027 123.712 141.973 122.856 142.088L122.412 142.172Z" fill="white"/>
<path d="M140.896 142.754L140.342 139.536L136.647 140.165L135.926 135.956L132.509 136.539L133.229 140.747L130.717 141.182L131.262 144.401L133.774 143.966L134.873 150.357C135.44 153.699 137.709 155.024 141.681 154.334L142.882 154.13L142.282 150.662L141.663 150.773C139.612 151.125 138.504 150.773 138.171 148.923L137.247 143.374L140.896 142.754Z" fill="white"/>
<path d="M97.1393 216.93C95.2919 212.787 88.6688 214.664 89.574 219.973C88.6503 214.664 81.7594 215.118 81.4361 219.622C80.8911 227.252 91.5046 231.238 91.5046 231.238C91.5046 231.238 100.188 223.95 97.1393 216.93Z" fill="#F69C1C"/>
<path d="M121.452 224.958C120.823 224.078 120.264 223.151 119.78 222.184C120.52 220.533 120.624 218.666 120.072 216.943C119.521 215.22 118.352 213.761 116.792 212.848C115.232 211.936 113.389 211.633 111.619 211.998C109.849 212.363 108.276 213.37 107.203 214.826C106.13 216.282 105.632 218.084 105.805 219.885C105.979 221.686 106.811 223.36 108.142 224.584C109.474 225.807 111.21 226.495 113.017 226.515C114.824 226.535 116.575 225.885 117.932 224.69C119.111 224.678 120.288 224.768 121.452 224.958V224.958Z" fill="white" stroke="#384349" stroke-width="2" stroke-miterlimit="10"/>
<path d="M126.431 209.855L143.473 206.932L133.081 214.572L126.431 209.855Z" fill="white" stroke="#384349" stroke-width="2" stroke-linejoin="round"/>
<path d="M137.284 222.045L143.473 206.932L133.081 214.572L137.284 222.045Z" fill="white" stroke="#384349" stroke-width="2" stroke-linejoin="round"/>
<path d="M233.425 208.144L226.174 203.797L220.779 210.317L217.953 193.78L230.599 191.616L233.425 208.144Z" fill="#07C39F"/>
<path d="M56.7267 48.9241C59.7876 48.9241 62.269 46.4396 62.269 43.3748C62.269 40.31 59.7876 37.8255 56.7267 37.8255C53.6657 37.8255 51.1843 40.31 51.1843 43.3748C51.1843 46.4396 53.6657 48.9241 56.7267 48.9241Z" fill="#07C39F"/>
<path d="M71.7925 38.7134C72.0353 38.7533 72.2677 38.8413 72.4761 38.9723L72.1897 39.518C72.0348 39.4407 71.8701 39.3847 71.7002 39.3515C71.5319 39.3238 71.3603 39.3238 71.1921 39.3515C71.0279 39.3758 70.8725 39.441 70.7401 39.5412C70.6077 39.6414 70.5027 39.7734 70.4347 39.925C70.2771 40.3418 70.2513 40.797 70.3608 41.229C70.4 41.666 70.5744 42.0799 70.8596 42.4129C70.9793 42.5302 71.1272 42.6147 71.2889 42.6584C71.4506 42.7022 71.6208 42.7036 71.7833 42.6626C71.9447 42.6355 72.1007 42.5824 72.2451 42.5054C72.4001 42.4085 72.5455 42.297 72.6793 42.1725L73.1134 42.6071C72.7948 42.9891 72.3483 43.2422 71.8572 43.3193C71.5954 43.3792 71.3234 43.3777 71.0622 43.3152C70.8011 43.2526 70.5579 43.1306 70.3515 42.9586C69.9026 42.5501 69.6198 41.9903 69.5571 41.3863C69.4686 40.9685 69.4686 40.5369 69.5571 40.1192C69.6458 39.7689 69.8278 39.4492 70.0836 39.1943C70.3357 38.9455 70.6583 38.7808 71.0074 38.7226C71.2664 38.6727 71.5323 38.6697 71.7925 38.7134V38.7134Z" fill="black"/>
<path d="M76.4664 38.4359C76.9139 38.8542 77.1986 39.4179 77.27 40.0267C77.3542 40.4355 77.3542 40.8572 77.27 41.266C77.1837 41.6215 76.994 41.9434 76.725 42.1909C76.4482 42.4462 76.1002 42.6108 75.7274 42.6626C75.4576 42.721 75.1781 42.718 74.9095 42.654C74.641 42.59 74.3902 42.4665 74.1756 42.2927C73.73 41.8729 73.4456 41.3099 73.3719 40.7019C73.2878 40.2899 73.2878 39.8652 73.3719 39.4533C73.4582 39.0978 73.6479 38.7759 73.9169 38.5284C74.1991 38.2757 74.5492 38.1117 74.9238 38.0567C75.1927 37.9962 75.4719 37.999 75.7396 38.0648C76.0072 38.1305 76.256 38.2576 76.4664 38.4359V38.4359ZM74.1756 40.5632C74.3603 41.6823 74.8406 42.1724 75.5981 42.043C76.3555 41.9135 76.6327 41.2845 76.4387 40.1932C76.2447 39.1018 75.7736 38.5746 75.0254 38.7041C74.2772 38.8336 73.9908 39.4348 74.1756 40.5632Z" fill="black"/>
<path d="M83.4776 36.9561C83.7506 37.1934 83.928 37.5222 83.9764 37.881L84.5122 41.0441L83.7455 41.1736L83.2282 38.1214C83.1266 37.5573 82.8772 37.3076 82.4615 37.3815C82.2619 37.4104 82.0788 37.5086 81.9442 37.659C81.7851 37.8639 81.6575 38.0915 81.5655 38.3342L82.092 41.451L81.3253 41.5898L80.8081 38.5377C80.7064 37.9735 80.457 37.7237 80.0414 37.7977C79.8364 37.8244 79.6487 37.9266 79.5149 38.0844C79.3605 38.2875 79.236 38.5118 79.1454 38.7504L79.6811 41.8672L78.9052 41.9967L78.157 37.6035L78.8128 37.4925L78.9976 38.1214C79.0912 37.8822 79.245 37.6714 79.4441 37.5093C79.6432 37.3472 79.8808 37.2395 80.1337 37.1966C80.3786 37.1469 80.6331 37.1787 80.8582 37.2872C81.0833 37.3958 81.2669 37.575 81.3808 37.7977C81.4915 37.5409 81.6516 37.3083 81.8519 37.1133C82.0482 36.9358 82.2923 36.82 82.5539 36.7803C82.7115 36.7419 82.8754 36.7377 83.0348 36.768C83.1941 36.7983 83.3451 36.8625 83.4776 36.9561V36.9561Z" fill="black"/>
<path d="M88.641 36.3272C89.0168 36.7948 89.2537 37.3589 89.3246 37.955C89.4512 38.5408 89.3932 39.1516 89.1583 39.703C89.0505 39.9333 88.8866 40.1329 88.6816 40.2832C88.4766 40.4335 88.2371 40.5298 87.9852 40.5632C87.7708 40.6107 87.5483 40.6078 87.3351 40.5549C87.122 40.5019 86.924 40.4003 86.7566 40.2579L87.1077 42.3389L86.3594 42.5609L85.3064 36.3827L85.9622 36.2717L86.1193 36.8544C86.2358 36.6148 86.4066 36.4057 86.6181 36.2439C86.8182 36.0888 87.0527 35.9842 87.3016 35.9387C87.5394 35.882 87.7878 35.8879 88.0225 35.956C88.2573 36.0241 88.4704 36.152 88.641 36.3272V36.3272ZM88.4932 38.1029C88.3085 36.9746 87.8743 36.4659 87.2185 36.5861C87.0046 36.618 86.8069 36.7186 86.655 36.8728C86.4976 37.0414 86.3696 37.2353 86.2763 37.4463L86.6366 39.592C86.77 39.7415 86.9381 39.8559 87.1261 39.925C87.3142 39.9716 87.5108 39.9716 87.6988 39.925C88.4193 39.8418 88.6872 39.222 88.4932 38.1029Z" fill="black"/>
<path d="M92.262 35.2173C92.5229 35.2659 92.7751 35.3532 93.0102 35.4762L92.7701 36.0219C92.5719 35.9357 92.3641 35.8736 92.1512 35.8369C91.9554 35.8051 91.7558 35.8051 91.56 35.8369C91.3501 35.8635 91.1535 35.9539 90.9965 36.0959C90.9346 36.154 90.8886 36.227 90.8627 36.3079C90.8369 36.3889 90.832 36.4751 90.8487 36.5584C90.8587 36.64 90.8894 36.7178 90.9379 36.7842C90.9864 36.8505 91.0511 36.9033 91.1258 36.9375C91.3774 37.0333 91.6423 37.0895 91.911 37.104C92.3246 37.1127 92.73 37.2205 93.0934 37.4185C93.2341 37.5055 93.3536 37.6229 93.4431 37.7621C93.5326 37.9013 93.5898 38.0589 93.6106 38.2231C93.6514 38.4177 93.6414 38.6195 93.5815 38.8091C93.5216 38.9987 93.414 39.1695 93.2689 39.3053C92.941 39.6003 92.5324 39.7904 92.0957 39.851C91.4955 39.9791 90.8691 39.8767 90.3407 39.5642L90.6732 39.0278C91.0725 39.2391 91.53 39.3138 91.9757 39.2405C92.2203 39.2149 92.4503 39.1112 92.6315 38.9446C92.706 38.8791 92.7616 38.7947 92.7925 38.7004C92.8233 38.606 92.8284 38.5051 92.807 38.4081C92.7933 38.28 92.7381 38.1598 92.65 38.0659C92.5505 37.9685 92.4257 37.9012 92.2897 37.8717C92.0613 37.8223 91.8299 37.7883 91.5969 37.77C91.209 37.7574 90.8307 37.646 90.4977 37.4463C90.3781 37.361 90.2771 37.2522 90.2009 37.1266C90.1247 37.001 90.0748 36.8611 90.0543 36.7156C90.0138 36.4915 90.0496 36.2603 90.1559 36.0589C90.2652 35.8398 90.4352 35.6568 90.6455 35.5317C90.8828 35.3775 91.1507 35.2765 91.4307 35.2358C91.7049 35.1839 91.9858 35.1777 92.262 35.2173Z" fill="black"/>
<path d="M96.4742 34.4866C96.717 34.5265 96.9494 34.6145 97.1577 34.7456L96.8714 35.2913C96.7132 35.2138 96.5455 35.1578 96.3726 35.1248C96.2074 35.0971 96.0389 35.0971 95.8737 35.1248C95.7093 35.1482 95.5535 35.2131 95.4209 35.3134C95.2884 35.4137 95.1836 35.5462 95.1163 35.6982C94.9587 36.1151 94.9329 36.5703 95.0424 37.0023C95.0798 37.4397 95.2544 37.8541 95.5412 38.1862C95.6615 38.3029 95.809 38.3877 95.9703 38.4329C96.1316 38.4781 96.3016 38.4823 96.4649 38.4451C96.6243 38.4164 96.7775 38.3601 96.9176 38.2787C97.0792 38.1875 97.2283 38.0756 97.3609 37.9457L97.7951 38.3804C97.4747 38.762 97.0296 39.0176 96.5388 39.1018C96.277 39.1596 96.0054 39.1571 95.7446 39.0947C95.4838 39.0322 95.2406 38.9113 95.0332 38.7411C94.5837 38.3293 94.3009 37.7664 94.2388 37.1595C94.1502 36.7418 94.1502 36.3102 94.2388 35.8924C94.32 35.5391 94.503 35.2175 94.7653 34.9676C95.0322 34.7138 95.371 34.5491 95.7352 34.4959C95.9793 34.4514 96.2291 34.4483 96.4742 34.4866V34.4866Z" fill="black"/>
<path d="M98.5711 32.1004C98.6837 32.1825 98.7599 32.3052 98.7836 32.4426C98.7976 32.5116 98.7967 32.5829 98.7807 32.6515C98.7648 32.7201 98.7342 32.7845 98.6912 32.8403C98.6493 32.8989 98.5955 32.9481 98.5335 32.9847C98.4715 33.0214 98.4025 33.0447 98.331 33.0531C98.188 33.0823 98.0394 33.0558 97.9153 32.979C97.8585 32.9373 97.8106 32.8848 97.7741 32.8245C97.7377 32.7642 97.7134 32.6973 97.7028 32.6276C97.6811 32.488 97.7142 32.3455 97.7952 32.2299C97.8348 32.1711 97.8868 32.1216 97.9474 32.0849C98.008 32.0482 98.0758 32.025 98.1462 32.0171C98.219 32.0017 98.2941 32.0012 98.3671 32.0155C98.4401 32.0298 98.5095 32.0587 98.5711 32.1004V32.1004ZM98.9037 34.0612L99.6519 38.4544L98.8852 38.5931L98.137 34.1906L98.9037 34.0612Z" fill="black"/>
<path d="M102.811 33.4045C103.051 33.4477 103.283 33.5322 103.494 33.6542L103.208 34.2092C103.052 34.1249 102.884 34.0656 102.709 34.0334C102.544 34.0058 102.376 34.0058 102.211 34.0334C102.045 34.0506 101.888 34.112 101.754 34.2113C101.621 34.3106 101.517 34.4441 101.453 34.5976C101.296 35.0179 101.271 35.4757 101.379 35.9109C101.418 36.3479 101.593 36.7618 101.878 37.0948C101.994 37.2169 102.142 37.3047 102.305 37.3487C102.468 37.3928 102.64 37.3913 102.802 37.3445C102.964 37.3204 103.12 37.2672 103.264 37.1873C103.423 37.0894 103.572 36.9747 103.707 36.8451L104.141 37.289C103.819 37.6666 103.374 37.9186 102.885 38.0012C102.623 38.0596 102.351 38.0575 102.09 37.995C101.829 37.9325 101.586 37.8113 101.379 37.6405C100.93 37.2308 100.645 36.6723 100.576 36.0681C100.491 35.65 100.491 35.2192 100.576 34.8011C100.657 34.4478 100.84 34.1261 101.102 33.8762C101.37 33.6253 101.709 33.4638 102.072 33.4137C102.316 33.3693 102.566 33.3661 102.811 33.4045V33.4045Z" fill="black"/>
<path d="M108.03 35.0322L105.259 35.5132C105.327 35.8989 105.522 36.2507 105.813 36.5121C105.941 36.6139 106.091 36.6851 106.251 36.7203C106.411 36.7556 106.577 36.754 106.737 36.7155C106.934 36.6863 107.124 36.6238 107.3 36.5306C107.487 36.4251 107.658 36.2944 107.808 36.1421L108.224 36.5398C107.851 36.968 107.342 37.2552 106.783 37.3537C106.517 37.4117 106.242 37.4103 105.977 37.3495C105.712 37.2888 105.464 37.1702 105.25 37.0023C104.805 36.5902 104.524 36.0323 104.455 35.4299C104.376 35.0175 104.376 34.5938 104.455 34.1814C104.537 33.8343 104.709 33.5152 104.954 33.2565C105.271 32.9647 105.68 32.7929 106.11 32.771C106.54 32.749 106.964 32.8782 107.309 33.1362C107.725 33.5402 107.986 34.0767 108.048 34.6531C108.051 34.7797 108.045 34.9064 108.03 35.0322V35.0322ZM107.18 34.5421C107.138 34.1969 106.99 33.8735 106.755 33.6172C106.643 33.5156 106.508 33.443 106.361 33.4059C106.215 33.3689 106.061 33.3683 105.915 33.4044C105.286 33.5154 104.991 34.0333 105.129 34.9675L107.189 34.616L107.18 34.5421Z" fill="black"/>
<path d="M111.863 32.1004C112.146 32.3309 112.329 32.6626 112.372 33.0253L112.907 36.1791L112.141 36.3179L111.623 33.2658C111.606 33.0287 111.504 32.8057 111.337 32.6369C111.257 32.5814 111.166 32.5437 111.071 32.5262C110.975 32.5086 110.877 32.5116 110.783 32.5351C110.56 32.5681 110.355 32.6757 110.201 32.8403C110.03 33.0352 109.893 33.2571 109.794 33.497L110.33 36.6231L109.563 36.7526L108.815 32.3594L109.471 32.2392L109.647 32.8865C109.756 32.6321 109.924 32.4071 110.136 32.2299C110.348 32.0606 110.599 31.9463 110.866 31.8969C111.037 31.8587 111.214 31.857 111.386 31.8921C111.558 31.9272 111.721 31.9981 111.863 32.1004V32.1004Z" fill="black"/>
<path d="M116.667 35.3375C116.415 35.5868 116.092 35.7516 115.743 35.8092C115.585 35.8437 115.422 35.8459 115.263 35.8157C115.105 35.7855 114.954 35.7235 114.819 35.6335C114.683 35.5188 114.571 35.3778 114.49 35.2189C114.409 35.06 114.361 34.8865 114.348 34.7086L113.896 32.0542L113.129 32.1837L113.027 31.5917L113.794 31.4622L113.619 30.4819L114.367 30.2599L114.551 31.342L115.595 31.1663V31.7675L114.672 31.9339L115.124 34.5514C115.137 34.7299 115.208 34.8991 115.327 35.0323C115.387 35.0807 115.458 35.1136 115.534 35.1281C115.61 35.1426 115.688 35.1383 115.762 35.1156C115.964 35.0709 116.151 34.9754 116.307 34.8381L116.667 35.3375Z" fill="black"/>
<path d="M120.343 32.9236L117.572 33.4045C117.633 33.7904 117.826 34.1434 118.117 34.4034C118.246 34.5052 118.395 34.5764 118.555 34.6117C118.716 34.6469 118.881 34.6453 119.041 34.6069C119.238 34.5777 119.428 34.5151 119.604 34.4219C119.792 34.3144 119.966 34.1839 120.122 34.0334L120.528 34.4311C120.155 34.8593 119.646 35.1465 119.087 35.245C118.821 35.3031 118.546 35.3016 118.281 35.2409C118.016 35.1801 117.768 35.0615 117.554 34.8936C117.109 34.4815 116.828 33.9236 116.759 33.3213C116.675 32.9093 116.675 32.4846 116.759 32.0726C116.834 31.7249 117.003 31.4048 117.249 31.1477C117.566 30.8536 117.977 30.6805 118.409 30.6585C118.841 30.6365 119.268 30.7671 119.613 31.0276C120.022 31.4364 120.282 31.9703 120.352 32.5443C120.316 32.6553 120.334 32.7848 120.343 32.9236ZM119.493 32.4333C119.452 32.0882 119.303 31.7648 119.068 31.5085C118.957 31.4083 118.824 31.3366 118.679 31.2996C118.534 31.2625 118.383 31.2612 118.237 31.2958C117.609 31.4067 117.313 31.9247 117.443 32.8588L119.503 32.5074L119.493 32.4333Z" fill="black"/>
<path d="M123.502 29.7974V30.5743C123.374 30.5556 123.243 30.5556 123.114 30.5743C122.987 30.5906 122.866 30.6368 122.76 30.7092C122.654 30.7815 122.566 30.8779 122.505 30.9905C122.353 31.3014 122.274 31.6432 122.274 31.9894L122.699 34.5051L121.932 34.6346L121.184 30.2414L121.84 30.1211L122.071 31.046C122.107 30.7411 122.229 30.4526 122.422 30.2136C122.589 30.0162 122.822 29.8851 123.077 29.8437C123.217 29.8158 123.36 29.8004 123.502 29.7974V29.7974Z" fill="black"/>
<path d="M75.2841 200.921C72.9193 197.721 67.571 200.652 69.4 205.027C67.5525 200.652 61.7423 202.4 62.352 206.331C63.3958 212.981 73.2704 214.295 73.2704 214.295C73.2704 214.295 79.2745 206.331 75.2841 200.921Z" fill="#F69C1C"/>
<path d="M83.7454 181.738C83.3297 178.187 77.8613 178.039 77.3348 182.303C77.8613 178.076 72.5314 176.827 71.2567 180.166C69.1044 185.808 76.2078 191.265 76.2078 191.265C76.2078 191.265 84.4382 187.713 83.7454 181.738Z" fill="#F69C1C"/>
<path d="M61.0589 168.475C59.2115 166.311 55.5166 168.697 57.05 171.75C55.5074 168.697 51.406 170.279 52.0619 173.063C53.1611 177.789 60.3754 178.196 60.3754 178.196C60.3754 178.196 64.2365 172.156 61.0589 168.475Z" fill="#F69C1C"/>
<path d="M206.924 130.426H228.982C233.094 130.428 237.036 132.065 239.943 134.977C242.849 137.889 244.482 141.837 244.482 145.954V152.133C244.482 156.249 242.849 160.196 239.942 163.107C237.035 166.017 233.093 167.652 228.982 167.652H213.02L199.054 178.131V166.848C196.811 165.986 194.881 164.464 193.519 162.483C192.157 160.502 191.427 158.154 191.424 155.749V145.964C191.422 143.924 191.822 141.905 192.601 140.02C193.379 138.136 194.52 136.423 195.96 134.98C197.399 133.537 199.108 132.393 200.989 131.611C202.87 130.83 204.887 130.427 206.924 130.426V130.426Z" fill="white" stroke="#394349" stroke-width="2" stroke-miterlimit="10"/>
<path d="M228.64 152.142C229.982 152.142 231.07 151.053 231.07 149.709C231.07 148.366 229.982 147.277 228.64 147.277C227.299 147.277 226.211 148.366 226.211 149.709C226.211 151.053 227.299 152.142 228.64 152.142Z" fill="#00AF9A"/>
<path d="M217.953 152.142C219.295 152.142 220.382 151.053 220.382 149.709C220.382 148.366 219.295 147.277 217.953 147.277C216.611 147.277 215.523 148.366 215.523 149.709C215.523 151.053 216.611 152.142 217.953 152.142Z" fill="#00AF9A"/>
<path d="M207.265 152.142C208.607 152.142 209.695 151.053 209.695 149.709C209.695 148.366 208.607 147.277 207.265 147.277C205.924 147.277 204.836 148.366 204.836 149.709C204.836 151.053 205.924 152.142 207.265 152.142Z" fill="#00AF9A"/>
<path d="M251.576 85.6145H229.518C225.407 85.6145 221.464 87.2496 218.558 90.1601C215.651 93.0706 214.018 97.0181 214.018 101.134V107.312C214.018 111.428 215.651 115.376 218.558 118.287C221.464 121.197 225.407 122.832 229.518 122.832H245.48L259.446 133.32V122.046C261.688 121.183 263.617 119.661 264.979 117.68C266.341 115.699 267.072 113.352 267.076 110.947V101.162C267.08 99.1215 266.682 97.1004 265.904 95.2143C265.127 93.3282 263.986 91.614 262.546 90.1699C261.107 88.7258 259.397 87.5802 257.514 86.7985C255.632 86.0168 253.614 85.6145 251.576 85.6145V85.6145Z" fill="white" stroke="#394349" stroke-width="2" stroke-miterlimit="10"/>
<path d="M229.86 107.322C231.201 107.322 232.289 106.233 232.289 104.889C232.289 103.546 231.201 102.457 229.86 102.457C228.518 102.457 227.43 103.546 227.43 104.889C227.43 106.233 228.518 107.322 229.86 107.322Z" fill="#00AF9A"/>
<path d="M240.547 107.322C241.889 107.322 242.976 106.233 242.976 104.889C242.976 103.546 241.889 102.457 240.547 102.457C239.205 102.457 238.118 103.546 238.118 104.889C238.118 106.233 239.205 107.322 240.547 107.322Z" fill="#00AF9A"/>
<path d="M251.234 107.322C252.576 107.322 253.664 106.233 253.664 104.889C253.664 103.546 252.576 102.457 251.234 102.457C249.893 102.457 248.805 103.546 248.805 104.889C248.805 106.233 249.893 107.322 251.234 107.322Z" fill="#00AF9A"/>
</g>
<defs>
<clipPath id="clip0">
<rect width="256" height="248" fill="white" transform="translate(12 6)"/>
</clipPath>
</defs>
</svg>
