<svg width="280" height="260" viewBox="0 0 280 260" fill="none" xmlns="http://www.w3.org/2000/svg">
<path d="M196.991 13.7856C161.321 1.78562 110.821 -2.52438 68.2608 31.4356C48.6246 46.9242 34.011 67.8773 26.2608 91.6556C19.9608 110.456 15.3508 153.886 28.1008 179.256C40.1008 203.256 67.8108 244.516 115.321 253.736C169.461 264.256 231.651 235.946 253.321 162.146C269.321 107.746 252.761 39.1056 196.991 13.7856Z" fill="#E1E7EB"/>
<path d="M144.411 222.586C192.459 222.586 231.411 183.634 231.411 135.586C231.411 87.5369 192.459 48.5856 144.411 48.5856C96.3619 48.5856 57.4106 87.5369 57.4106 135.586C57.4106 183.634 96.3619 222.586 144.411 222.586Z" fill="#CCF7FF"/>
<path d="M145.751 157.256C120.841 159.256 93.5507 183.256 105.651 193.926C117.751 204.596 162.471 210.586 173.791 202.586C185.111 194.586 162.471 155.926 145.751 157.256Z" fill="#00AF9A"/>
<path d="M143.571 62.3456C148.043 62.6131 152.512 61.7632 156.575 59.8725C160.637 57.9819 164.165 55.1099 166.841 51.5156C152.708 47.7735 137.865 47.6257 123.661 51.0856C125.981 56.5856 131.371 61.9156 143.571 62.3456Z" fill="#00AF9A"/>
<path d="M73.5807 85.0656C62.9341 99.9919 57.2751 117.9 57.4116 136.234C57.5481 154.568 63.473 172.39 74.3407 187.156C72.9907 162.586 86.8907 153.586 89.4007 127.926C91.4707 106.916 81.4707 92.7956 73.5807 85.0656Z" fill="#00AF9A"/>
<path d="M119.371 218.926C135.704 223.806 153.107 223.806 169.441 218.926C164.771 216.346 157.031 213.926 144.441 213.926C131.851 213.926 124.031 216.346 119.371 218.926Z" fill="#00AF9A"/>
<path d="M207.751 75.9656C192.241 67.3756 171.241 62.7156 144.401 65.9656C132.671 67.3256 70.0506 85.4856 102.691 96.5856C126.611 104.726 132.341 138.326 176.141 149.976C178.209 150.53 180.137 151.516 181.796 152.871C183.455 154.225 184.807 155.916 185.764 157.832C186.72 159.748 187.259 161.846 187.345 163.986C187.431 166.126 187.061 168.259 186.261 170.246C185.666 171.748 185.158 173.284 184.741 174.846C182.111 184.466 185.801 198.676 191.661 208.636C209.029 197.383 221.829 180.319 227.771 160.496C228.763 157.187 229.551 153.821 230.131 150.416C232.429 137.12 231.603 123.473 227.719 110.552C223.835 97.6307 216.999 85.79 207.751 75.9656V75.9656Z" fill="#00AF9A"/>
<path d="M179.731 114.336C169.301 99.5556 157.801 86.1657 154.051 68.3357C152.728 62.3747 153.489 56.1405 156.205 50.6723C158.922 45.2041 163.431 40.8323 168.981 38.2857C179.691 33.2857 192.891 36.5557 200.531 46.2857C205.741 52.9257 206.971 60.5957 205.351 68.8057C203.181 79.8657 197.401 89.2157 191.221 98.3457C187.661 103.586 183.821 108.666 179.731 114.336Z" fill="#F39A21"/>
<path d="M166.081 61.5856C166.055 59.7752 166.391 57.9779 167.069 56.2988C167.746 54.6198 168.752 53.0926 170.027 51.8068C171.301 50.5209 172.82 49.5021 174.493 48.8099C176.166 48.1178 177.96 47.7661 179.771 47.7756C182.496 47.7598 185.164 48.5529 187.438 50.0546C189.712 51.5562 191.49 53.6989 192.545 56.2112C193.601 58.7236 193.888 61.4927 193.369 64.168C192.85 66.8432 191.548 69.3043 189.63 71.2397C187.711 73.175 185.262 74.4976 182.591 75.0399C179.92 75.5823 177.149 75.32 174.627 74.2863C172.106 73.2526 169.948 71.494 168.426 69.2331C166.905 66.9722 166.089 64.3108 166.081 61.5856V61.5856Z" fill="white"/>
<path d="M128.981 102.586C123.551 94.8956 117.571 87.9356 115.621 78.6756C114.925 75.5715 115.317 72.3226 116.732 69.4733C118.146 66.624 120.497 64.3476 123.391 63.0256C125.742 61.9915 128.337 61.6359 130.88 61.9991C133.423 62.3623 135.814 63.4298 137.783 65.0808C139.751 66.7319 141.218 68.9006 142.018 71.3419C142.819 73.7833 142.92 76.3997 142.311 78.8956C141.181 84.6456 138.171 89.5156 134.961 94.2656C133.101 96.9656 131.101 99.5856 128.981 102.586Z" fill="#F39A21"/>
<path d="M121.871 75.1157C121.858 74.1728 122.032 73.2368 122.385 72.3624C122.738 71.488 123.262 70.6927 123.926 70.0232C124.59 69.3537 125.381 68.8233 126.252 68.4631C127.123 68.103 128.058 67.9202 129.001 67.9257C130.417 67.9197 131.803 68.3339 132.984 69.1157C134.164 69.8975 135.087 71.0119 135.634 72.3179C136.182 73.624 136.329 75.063 136.059 76.453C135.789 77.8431 135.112 79.1217 134.115 80.1272C133.118 81.1327 131.845 81.82 130.457 82.1021C129.069 82.3842 127.629 82.2484 126.319 81.712C125.008 81.1756 123.886 80.2626 123.094 79.0884C122.303 77.9143 121.877 76.5318 121.871 75.1157V75.1157Z" fill="white"/>
<path d="M145.251 188.026C138.441 178.366 130.931 169.626 128.481 158.026C127.612 154.128 128.107 150.05 129.881 146.472C131.655 142.895 134.602 140.034 138.231 138.366C141.755 136.807 145.7 136.474 149.436 137.42C153.172 138.367 156.483 140.537 158.841 143.586C162.241 147.926 163.041 152.936 161.991 158.296C160.571 165.526 156.791 171.626 152.761 177.586C150.471 181.006 147.921 184.326 145.251 188.026Z" fill="#F39A21"/>
<path d="M136.331 153.586C136.335 151.823 136.86 150.102 137.841 148.637C138.821 147.173 140.213 146.031 141.841 145.357C143.469 144.682 145.261 144.504 146.99 144.845C148.719 145.186 150.308 146.031 151.558 147.274C152.807 148.517 153.661 150.101 154.012 151.828C154.363 153.555 154.195 155.348 153.529 156.979C152.863 158.611 151.73 160.009 150.271 160.998C148.812 161.987 147.093 162.522 145.331 162.536C144.149 162.549 142.977 162.327 141.882 161.882C140.788 161.438 139.793 160.78 138.955 159.947C138.117 159.114 137.454 158.122 137.003 157.03C136.553 155.938 136.324 154.767 136.331 153.586V153.586Z" fill="white"/>
<path d="M212.371 157.156C206.941 149.466 200.961 142.496 199.011 133.246C198.316 130.14 198.709 126.891 200.123 124.04C201.538 121.189 203.888 118.911 206.781 117.586C209.133 116.556 211.726 116.203 214.267 116.568C216.808 116.933 219.197 118 221.165 119.65C223.132 121.301 224.599 123.467 225.4 125.907C226.202 128.346 226.306 130.96 225.701 133.456C224.571 139.216 221.561 144.076 218.351 148.826C216.471 151.586 214.471 154.206 212.371 157.156Z" fill="#F39A21"/>
<path d="M205.261 129.716C205.263 128.312 205.68 126.94 206.46 125.772C207.239 124.605 208.347 123.694 209.643 123.154C210.939 122.614 212.365 122.469 213.743 122.738C215.121 123.006 216.389 123.676 217.387 124.664C218.385 125.651 219.07 126.911 219.354 128.286C219.638 129.661 219.509 131.089 218.983 132.391C218.458 133.693 217.559 134.81 216.401 135.603C215.242 136.396 213.875 136.828 212.471 136.846C211.527 136.86 210.589 136.686 209.713 136.334C208.837 135.982 208.04 135.459 207.368 134.795C206.697 134.131 206.165 133.34 205.803 132.468C205.441 131.595 205.257 130.66 205.261 129.716V129.716Z" fill="white"/>
<path d="M73.5406 143.536C76.5119 143.536 78.9206 142.26 78.9206 140.686C78.9206 139.112 76.5119 137.836 73.5406 137.836C70.5694 137.836 68.1606 139.112 68.1606 140.686C68.1606 142.26 70.5694 143.536 73.5406 143.536Z" fill="#00AF9A"/>
<path d="M179.731 125.376C182.702 125.376 185.111 124.1 185.111 122.526C185.111 120.952 182.702 119.676 179.731 119.676C176.76 119.676 174.351 120.952 174.351 122.526C174.351 124.1 176.76 125.376 179.731 125.376Z" fill="#00AF9A"/>
<path d="M212.381 170.686C215.352 170.686 217.761 169.41 217.761 167.836C217.761 166.262 215.352 164.986 212.381 164.986C209.409 164.986 207.001 166.262 207.001 167.836C207.001 169.41 209.409 170.686 212.381 170.686Z" fill="#00AF9A"/>
<path d="M128.981 111.876C131.952 111.876 134.361 110.6 134.361 109.026C134.361 107.452 131.952 106.176 128.981 106.176C126.01 106.176 123.601 107.452 123.601 109.026C123.601 110.6 126.01 111.876 128.981 111.876Z" fill="#00AF9A"/>
<path d="M145.271 198.626C148.242 198.626 150.651 197.35 150.651 195.776C150.651 194.202 148.242 192.926 145.271 192.926C142.299 192.926 139.891 194.202 139.891 195.776C139.891 197.35 142.299 198.626 145.271 198.626Z" fill="#00AF9A"/>
<path d="M73.5408 134.356C63.1108 119.576 51.6108 106.186 47.8608 88.3556C46.5371 82.3934 47.2982 76.1576 50.0171 70.6888C52.736 65.22 57.2483 60.8491 62.8008 58.3056C73.5008 53.3056 86.7108 56.5756 94.3408 66.3056C99.5608 72.9456 100.781 80.6156 99.1708 88.8256C96.9908 99.8856 91.1708 109.236 85.0408 118.366C81.4708 123.586 77.6308 128.686 73.5408 134.356Z" fill="#F39A21"/>
<path d="M59.8908 81.5856C59.8696 79.7772 60.2084 77.9827 60.8877 76.3066C61.5669 74.6304 62.5729 73.1062 63.847 71.8228C65.1212 70.5393 66.638 69.5223 68.3092 68.8309C69.9803 68.1395 71.7723 67.7876 73.5808 67.7956C76.3068 67.7798 78.9761 68.5734 81.2506 70.0759C83.5251 71.5785 85.3025 73.7223 86.3576 76.2358C87.4127 78.7494 87.698 81.5195 87.1773 84.1953C86.6567 86.8711 85.3536 89.3322 83.433 91.2668C81.5125 93.2013 79.061 94.5224 76.389 95.0624C73.7171 95.6025 70.9449 95.3374 68.4238 94.3006C65.9026 93.2639 63.7459 91.5022 62.2269 89.2386C60.7079 86.9751 59.8948 84.3116 59.8908 81.5856V81.5856Z" fill="white"/>
<path d="M69.4507 76.0256L80.4907 82.2456L69.4507 88.4656V76.0256Z" fill="#394349"/>
<path d="M141.971 149.166L149.741 153.546L141.971 157.926V149.166Z" fill="#394349"/>
<path d="M126.571 71.4456L133.031 75.0856L126.571 78.7256V71.4456Z" fill="#394349"/>
<path d="M208.981 125.146L217.031 129.686L208.981 134.226V125.146Z" fill="#394349"/>
<path d="M175.451 55.3256L186.491 61.5456L175.451 67.7656V55.3256Z" fill="#394349"/>
</svg>
