<svg width="280" height="260" viewBox="0 0 280 260" fill="none" xmlns="http://www.w3.org/2000/svg">
<g clip-path="url(#clip0)">
<path d="M21.5028 130.884C22.9553 130.884 24.1328 129.707 24.1328 128.254C24.1328 126.802 22.9553 125.624 21.5028 125.624C20.0503 125.624 18.8728 126.802 18.8728 128.254C18.8728 129.707 20.0503 130.884 21.5028 130.884Z" fill="#00AF9A"/>
<path d="M33.0726 130.884C34.5251 130.884 35.7026 129.707 35.7026 128.254C35.7026 126.802 34.5251 125.624 33.0726 125.624C31.6201 125.624 30.4426 126.802 30.4426 128.254C30.4426 129.707 31.6201 130.884 33.0726 130.884Z" fill="#00AF9A"/>
<path d="M44.6427 130.884C46.0952 130.884 47.2727 129.707 47.2727 128.254C47.2727 126.802 46.0952 125.624 44.6427 125.624C43.1902 125.624 42.0127 126.802 42.0127 128.254C42.0127 129.707 43.1902 130.884 44.6427 130.884Z" fill="#00AF9A"/>
<path d="M9.58261 199.934C30.5826 231.154 89.2626 243.414 143.713 242.434C171.323 241.934 190.083 240.894 217.613 231.294C236.343 224.774 260.543 194.954 265.903 167.064C270.963 140.714 280.433 99.1442 244.173 51.0642C210.063 5.77423 139.103 -1.93576 76.9127 43.3742C31.0727 76.7542 -22.0874 152.924 9.58261 199.984" fill="#E1E7EB"/>
<path d="M231.149 94.799C235.016 93.741 236.577 87.1268 234.634 80.0257C232.692 72.9247 227.982 68.0259 224.114 69.0839C220.247 70.1419 218.686 76.7562 220.629 83.8572C222.571 90.9582 227.281 95.857 231.149 94.799Z" fill="#F69C1E" stroke="#394349" stroke-width="2" stroke-linecap="round" stroke-linejoin="round"/>
<path d="M229.66 95.2077C232.707 94.3741 233.603 87.9418 231.66 80.8408C229.717 73.7397 225.672 68.659 222.625 69.4926C219.578 70.3262 218.683 76.7585 220.625 83.8595C222.568 90.9605 226.613 96.0413 229.66 95.2077Z" fill="white" stroke="#394349" stroke-width="2" stroke-linecap="round" stroke-linejoin="round"/>
<path d="M273.437 83.2299C277.304 82.1719 278.865 75.5577 276.922 68.4567C274.98 61.3556 270.27 56.4568 266.402 57.5148C262.535 58.5728 260.974 65.1871 262.917 72.2881C264.859 79.3891 269.569 84.2879 273.437 83.2299Z" stroke="#394349" stroke-width="2" stroke-miterlimit="10"/>
<path d="M271.763 82.9469C274.81 82.1133 275.765 75.9013 273.897 69.0719C272.029 62.2426 268.044 57.3821 264.997 58.2157C261.95 59.0493 260.994 65.2613 262.862 72.0907C264.731 78.92 268.715 83.7805 271.763 82.9469Z" fill="#F69C1E" stroke="#394349" stroke-width="2" stroke-linecap="round" stroke-linejoin="round"/>
<path d="M267.153 57.3542L265.963 53.0242C265.349 50.7791 264.299 48.6768 262.873 46.8375C261.447 44.9982 259.672 43.4579 257.651 42.3046C255.629 41.1512 253.4 40.4074 251.091 40.1157C248.782 39.8239 246.438 39.9899 244.193 40.6042L234.133 43.3542C229.601 44.6 225.75 47.5938 223.425 51.6778C221.1 55.7618 220.491 60.6018 221.733 65.1342L226.433 82.3043L221.213 63.2243C220.447 60.4231 220.242 57.4986 220.608 54.618C220.974 51.7374 221.904 48.9572 223.346 46.4364C224.787 43.9157 226.711 41.7039 229.009 39.9276C231.306 38.1512 233.93 36.8452 236.733 36.0843L238.353 35.6342C241.152 34.8684 244.074 34.6616 246.954 35.0256C249.833 35.3897 252.612 36.3175 255.132 37.756C257.652 39.1945 259.865 41.1155 261.642 43.4093C263.42 45.7031 264.729 48.3247 265.493 51.1243L267.203 57.3542" fill="white"/>
<path d="M267.153 57.3542L265.963 53.0242C265.349 50.7791 264.299 48.6768 262.873 46.8375C261.447 44.9982 259.672 43.4579 257.651 42.3046C255.629 41.1512 253.4 40.4074 251.091 40.1157C248.782 39.8239 246.438 39.9899 244.193 40.6042L234.133 43.3542C229.601 44.6 225.75 47.5938 223.425 51.6778C221.1 55.7618 220.491 60.6018 221.733 65.1342L226.433 82.3043L221.213 63.2243C220.447 60.4231 220.242 57.4986 220.608 54.618C220.974 51.7374 221.904 48.9572 223.346 46.4364C224.787 43.9157 226.711 41.7039 229.009 39.9276C231.306 38.1512 233.93 36.8452 236.733 36.0843L238.353 35.6342C241.152 34.8684 244.074 34.6616 246.954 35.0256C249.833 35.3897 252.612 36.3175 255.132 37.756C257.652 39.1945 259.865 41.1155 261.642 43.4093C263.42 45.7031 264.729 48.3247 265.493 51.1243L267.203 57.3542" stroke="#394349" stroke-width="2" stroke-linecap="round" stroke-linejoin="round"/>
<path d="M78.4827 37.1343L100.753 25.0843L109.193 16.1143L79.9827 26.9643L78.4827 37.1343Z" fill="#F69C1E" stroke="#394349" stroke-width="2" stroke-linecap="round" stroke-linejoin="round"/>
<path d="M73.1526 19.0443L109.193 16.1143L91.2726 43.7143L83.1526 32.5143L109.193 16.1143L79.9826 26.9643L73.1526 19.0443Z" fill="white" stroke="#394349" stroke-width="2" stroke-linecap="round" stroke-linejoin="round"/>
<path d="M83.1527 32.5142L78.4827 37.1342" stroke="#394349" stroke-width="2" stroke-linecap="round" stroke-linejoin="round"/>
<path d="M60.7329 220.214C59.9929 227.294 71.7329 236.904 87.0429 238.494C102.353 240.084 115.303 235.644 116.043 228.564C116.783 221.484 105.043 214.444 89.7228 212.854C74.4028 211.264 61.5129 213.134 60.7329 220.214Z" fill="#394349" stroke="#394349" stroke-width="2" stroke-miterlimit="10"/>
<path d="M87.5128 162.564C93.8328 150.974 104.513 144.144 116.513 148.164C119.359 149.118 121.99 150.624 124.255 152.594C126.519 154.565 128.373 156.962 129.712 159.65C131.05 162.337 131.845 165.262 132.053 168.257C132.261 171.251 131.877 174.258 130.923 177.104L111.993 237.534C113.193 226.054 100.323 217.404 84.6328 215.764C72.1228 214.464 65.2828 212.964 60.6328 220.764L87.5128 162.564Z" fill="#394349"/>
<path fill-rule="evenodd" clip-rule="evenodd" d="M245.62 208.661L245.183 204.544C245.267 200.198 241.613 185.608 238.866 174.639C237.675 169.884 236.655 165.809 236.183 163.544C235.033 158.097 232.038 153.214 227.703 149.721C223.368 146.228 217.96 144.339 212.393 144.374C170.763 144.374 110.333 145.504 104.453 147.754L102.923 187.584L91.249 239.08C108.245 241.695 126.198 242.749 143.713 242.434C171.323 241.934 190.083 240.894 217.613 231.294C226.584 228.171 236.81 219.703 245.62 208.661Z" fill="#394349"/>
<path d="M177.133 144.944L173.733 133.514C166.343 141.144 155.343 144.714 144.053 142.954L143.643 142.874C142.753 142.734 141.873 142.564 140.993 142.354L144.563 154.484C146.079 158.49 149.052 161.775 152.887 163.684C156.721 165.592 161.135 165.983 165.245 164.777C169.355 163.572 172.859 160.859 175.055 157.182C177.252 153.505 177.98 149.135 177.093 144.944H177.133Z" fill="white" stroke="#394349" stroke-width="2" stroke-miterlimit="10"/>
<path d="M94.3828 226.544L103.683 187.584L108.953 193.514L111.023 244.534L94.3828 226.544Z" fill="#2E383D"/>
<path d="M141.353 146.124C138.733 146.124 133.273 146.414 130.803 146.464L134.483 157.524C136.839 163.289 141.25 167.975 146.862 170.675C152.474 173.376 158.887 173.899 164.863 172.144C177.063 168.564 184.863 157.594 183.013 145.364C180.043 145.374 141.353 146.124 141.353 146.124Z" fill="#2E383D"/>
<path d="M177.133 144.944L173.733 133.514C166.343 141.144 155.453 138.294 144.163 136.514C144.023 136.514 141.873 142.514 140.993 142.344L144.563 154.474C146.079 158.48 149.052 161.765 152.887 163.674C156.721 165.582 161.135 165.973 165.245 164.767C169.355 163.562 172.859 160.849 175.055 157.172C177.252 153.495 177.98 149.125 177.093 144.934L177.133 144.944Z" fill="white" stroke="#394349" stroke-width="2" stroke-miterlimit="10"/>
<path d="M105.283 81.4443L111.383 91.6043L113.433 82.8643L105.283 81.4443Z" fill="#F69C1E"/>
<path d="M111.033 97.6843C110.924 88.147 114.574 78.9503 121.194 72.0836C127.814 65.217 136.871 61.2324 146.405 60.9919C155.94 60.7514 165.187 64.2743 172.144 70.7985C179.101 77.3227 183.211 86.3236 183.583 95.8543L183.833 106.004C183.953 110.767 183.134 115.507 181.422 119.954C179.71 124.4 177.14 128.466 173.857 131.919C167.226 138.893 158.097 142.947 148.478 143.189C143.715 143.309 138.975 142.49 134.528 140.779C130.082 139.067 126.016 136.496 122.563 133.213C115.589 126.583 111.536 117.454 111.293 107.834L111.033 97.6843Z" fill="white" stroke="#394349" stroke-width="2" stroke-miterlimit="10"/>
<path d="M142.653 119.144C139.813 126.054 129.803 126.314 126.653 119.554" stroke="#394349" stroke-width="2" stroke-miterlimit="10"/>
<path d="M121.023 106.184C120.95 106.526 120.781 106.84 120.538 107.09C120.294 107.341 119.985 107.518 119.646 107.601C119.306 107.684 118.95 107.669 118.619 107.559C118.287 107.449 117.993 107.248 117.771 106.979C117.548 106.71 117.406 106.383 117.36 106.037C117.315 105.69 117.367 105.338 117.513 105.02C117.658 104.703 117.89 104.432 118.182 104.24C118.474 104.048 118.814 103.942 119.163 103.934C119.705 103.992 120.203 104.26 120.551 104.681C120.898 105.101 121.068 105.641 121.023 106.184V106.184Z" fill="#394349"/>
<path d="M147.813 105.504C147.739 105.846 147.571 106.16 147.328 106.41C147.084 106.661 146.775 106.838 146.436 106.921C146.096 107.004 145.74 106.989 145.409 106.879C145.077 106.769 144.783 106.568 144.561 106.299C144.338 106.03 144.196 105.703 144.15 105.357C144.105 105.01 144.158 104.658 144.303 104.34C144.448 104.023 144.68 103.752 144.972 103.56C145.264 103.368 145.604 103.262 145.953 103.254C146.495 103.312 146.993 103.58 147.341 104.001C147.688 104.421 147.858 104.961 147.813 105.504Z" fill="#394349"/>
<path d="M159.453 77.9943C159.49 79.4832 158.935 80.9262 157.91 82.0062C156.884 83.0863 155.472 83.715 153.983 83.7543L113.103 84.7543C108.37 84.9015 103.762 83.2278 100.227 80.078C96.6919 76.9281 94.5 72.5423 94.1028 67.8243C94.1028 67.5343 94.1028 67.2343 94.1028 66.9343L109.003 66.5943C106.781 65.0814 104.954 63.0597 103.672 60.6976C102.39 58.3355 101.691 55.7012 101.633 53.0143L138.003 52.0943L149.213 51.8143C151.812 51.7687 154.324 52.7558 156.196 54.5592C158.069 56.3626 159.15 58.835 159.203 61.4343L159.003 53.4343C164.597 53.3081 170.012 55.4081 174.059 59.2727C178.105 63.1373 180.452 68.4503 180.583 74.0443C180.703 78.8743 174.413 93.6843 171.193 97.3543L168.853 97.4143C164.103 95.7543 159.503 91.0943 159.453 78.0643V77.9943Z" fill="#F69C1E"/>
<path d="M122.733 96.0543L108.043 96.4243C108.029 95.8878 108.123 95.354 108.317 94.8537C108.511 94.3534 108.803 93.8967 109.175 93.5098C109.547 93.123 109.992 92.8137 110.484 92.5999C110.976 92.3861 111.506 92.272 112.043 92.2643L122.683 91.9943C122.952 91.9835 123.221 92.0273 123.473 92.1229C123.725 92.2186 123.955 92.3642 124.149 92.551C124.343 92.7378 124.498 92.962 124.603 93.21C124.709 93.458 124.763 93.7248 124.763 93.9943V93.9943C124.771 94.2645 124.724 94.5335 124.625 94.7851C124.527 95.0368 124.378 95.2658 124.188 95.4583C123.998 95.6509 123.772 95.8029 123.522 95.9054C123.271 96.0078 123.003 96.0585 122.733 96.0543V96.0543Z" fill="#394349"/>
<path d="M157.873 95.1742L143.183 95.5442C142.913 95.555 142.645 95.5113 142.393 95.4156C142.141 95.3199 141.911 95.1743 141.716 94.9875C141.522 94.8007 141.368 94.5766 141.262 94.3286C141.157 94.0805 141.102 93.8138 141.103 93.5442V93.5442C141.092 93.2749 141.136 93.0063 141.231 92.7543C141.327 92.5023 141.473 92.2723 141.659 92.078C141.846 91.8838 142.07 91.7292 142.318 91.6238C142.566 91.5183 142.833 91.464 143.103 91.4642L153.743 91.1942C154.279 91.1823 154.812 91.2765 155.312 91.4713C155.811 91.6661 156.268 91.9577 156.654 92.3294C157.041 92.7012 157.35 93.1456 157.564 93.6372C157.779 94.1289 157.894 94.658 157.903 95.1942L157.873 95.1742Z" fill="#394349"/>
<path d="M134.573 116.734C133.992 116.749 133.415 116.649 132.873 116.44C132.331 116.231 131.836 115.918 131.415 115.517C130.566 114.709 130.072 113.597 130.043 112.424C130.014 111.252 130.451 110.116 131.26 109.267C132.068 108.417 133.181 107.923 134.353 107.894" stroke="#394349" stroke-width="2" stroke-miterlimit="10"/>
<path d="M148.233 60.4343C146.914 60.4647 145.599 60.5716 144.293 60.7543L148.043 62.2143L166.283 83.6743L168.833 96.6743L173.143 96.5643C174.195 96.5363 175.243 96.7164 176.225 97.0941C177.208 97.4717 178.106 98.0396 178.869 98.7652C179.632 99.4907 180.244 100.36 180.67 101.322C181.096 102.285 181.328 103.322 181.353 104.374C181.463 108.794 178.133 112.464 172.543 112.604L177.333 128.794C182.913 122.5 185.897 114.323 185.683 105.914L185.423 95.7743C185.302 91.0116 184.245 86.3194 182.31 81.9656C180.376 77.6118 177.603 73.6817 174.149 70.3999C170.695 67.1181 166.629 64.5489 162.182 62.839C157.736 61.129 152.996 60.3119 148.233 60.4343Z" fill="#F69C1E"/>
<path d="M171.803 112.664H173.543C174.595 112.64 175.632 112.408 176.595 111.981C177.557 111.555 178.426 110.943 179.152 110.18C179.878 109.418 180.445 108.519 180.823 107.537C181.201 106.554 181.381 105.507 181.353 104.454C181.328 103.402 181.096 102.365 180.67 101.402C180.244 100.44 179.632 99.5707 178.869 98.8451C178.106 98.1196 177.208 97.5517 176.225 97.174C175.243 96.7964 174.195 96.6163 173.143 96.6442L165.963 97.0042" stroke="#394349" stroke-width="2" stroke-miterlimit="10"/>
<path d="M174.553 103.194C174.553 103.194 171.553 102.864 171.423 106.464C171.592 106.076 171.857 105.738 172.193 105.481C172.528 105.223 172.924 105.056 173.343 104.994" stroke="#394349" stroke-width="2" stroke-linecap="round" stroke-linejoin="round"/>
<path d="M157.943 100.434L171.053 94.1943C171.053 94.1943 173.763 93.0943 174.053 95.8543" stroke="#30B797" stroke-width="2" stroke-miterlimit="10"/>
<path d="M137.163 104.204C137.239 106.302 137.935 108.331 139.164 110.033C140.393 111.735 142.098 113.036 144.065 113.769C146.033 114.502 148.173 114.636 150.216 114.154C152.26 113.671 154.114 112.594 155.545 111.058C156.976 109.522 157.92 107.596 158.258 105.524C158.595 103.452 158.31 101.326 157.44 99.4157C156.57 97.5051 155.153 95.8954 153.368 94.7898C151.583 93.6843 149.511 93.1325 147.413 93.2043C146.016 93.2507 144.643 93.5724 143.372 94.1509C142.1 94.7294 140.955 95.5533 140.003 96.5753C139.051 97.5973 138.309 98.7974 137.822 100.107C137.335 101.416 137.111 102.808 137.163 104.204V104.204Z" stroke="#30B797" stroke-width="2" stroke-miterlimit="10"/>
<path d="M108.943 104.754C109.019 106.853 109.716 108.881 110.945 110.584C112.174 112.286 113.88 113.586 115.848 114.32C117.816 115.053 119.957 115.186 122 114.702C124.044 114.219 125.898 113.141 127.329 111.604C128.76 110.067 129.703 108.14 130.039 106.067C130.375 103.995 130.089 101.869 129.217 99.9584C128.345 98.0481 126.927 96.4391 125.141 95.3348C123.355 94.2305 121.281 93.6805 119.183 93.7542C117.787 93.8019 116.415 94.1246 115.145 94.7036C113.874 95.2827 112.731 96.1068 111.779 97.1287C110.828 98.1506 110.088 99.3502 109.601 100.659C109.114 101.967 108.891 103.359 108.943 104.754V104.754Z" stroke="#30B797" stroke-width="2" stroke-miterlimit="10"/>
<path d="M137.153 104.214L130.163 104.034" stroke="#30B797" stroke-width="2" stroke-miterlimit="10"/>
<path d="M104.193 57.1842L146.303 55.8742C147.292 55.8422 148.278 56.0054 149.203 56.3545C150.129 56.7037 150.977 57.2318 151.699 57.9089C152.42 58.5859 153.002 59.3985 153.409 60.3003C153.816 61.202 154.042 62.1752 154.073 63.1642L154.163 66.2742C154.133 65.2857 153.909 64.3127 153.502 63.411C153.096 62.5093 152.516 61.6966 151.795 61.0195C151.074 60.3423 150.227 59.814 149.302 59.4648C148.376 59.1155 147.391 58.9522 146.403 58.9842L110.253 60.1042" stroke="#394349" stroke-width="2" stroke-miterlimit="10"/>
<path d="M114.203 68.4543L101.883 68.8443" stroke="#394349" stroke-width="2" stroke-miterlimit="10"/>
<path d="M174.553 139.634L169.803 120.794L150.893 135.374L159.103 149.294L174.553 139.634Z" fill="white"/>
<path d="M142.603 192.854C141.01 192.853 139.444 193.267 138.06 194.056C136.677 194.846 135.523 195.982 134.714 197.354C133.904 198.726 133.467 200.286 133.445 201.878C133.423 203.471 133.817 205.042 134.589 206.436C135.36 207.829 136.482 208.997 137.843 209.824C139.205 210.652 140.759 211.109 142.351 211.151C143.943 211.193 145.519 210.819 146.923 210.066C148.326 209.312 149.508 208.205 150.353 206.854L147.643 205.174C146.983 206.225 146.014 207.046 144.869 207.524C143.724 208.001 142.459 208.112 141.249 207.841C140.038 207.57 138.941 206.93 138.109 206.01C137.277 205.089 136.751 203.934 136.603 202.702C136.455 201.47 136.692 200.222 137.282 199.131C137.873 198.04 138.787 197.159 139.899 196.608C141.011 196.058 142.266 195.866 143.492 196.059C144.717 196.251 145.853 196.819 146.743 197.684L144.363 200.064H151.363V193.064L148.983 195.454C147.275 193.79 144.987 192.858 142.603 192.854Z" fill="#EAEDEF"/>
<path d="M177.483 211.154C179.031 211.158 180.554 210.768 181.91 210.021C183.265 209.274 184.409 208.195 185.233 206.884L182.523 205.204C181.971 206.098 181.195 206.831 180.271 207.331C179.347 207.831 178.308 208.079 177.258 208.051C176.209 208.023 175.184 207.721 174.288 207.173C173.392 206.625 172.655 205.852 172.152 204.93C171.648 204.009 171.395 202.971 171.418 201.921C171.441 200.871 171.74 199.846 172.283 198.947C172.827 198.048 173.597 197.308 174.517 196.801C175.436 196.293 176.473 196.036 177.523 196.054C178.524 196.055 179.508 196.31 180.383 196.796C181.258 197.283 181.994 197.984 182.523 198.834L185.233 197.124C184.397 195.734 183.21 194.588 181.791 193.803C180.372 193.017 178.771 192.618 177.149 192.647C175.527 192.676 173.941 193.132 172.551 193.968C171.161 194.804 170.016 195.991 169.23 197.411C168.445 198.83 168.046 200.431 168.076 202.053C168.105 203.675 168.561 205.26 169.397 206.65C170.234 208.04 171.421 209.185 172.84 209.971C174.26 210.756 175.861 211.154 177.483 211.124V211.154Z" fill="#EAEDEF"/>
<path d="M174.733 202.014C174.733 202.566 174.897 203.105 175.203 203.564C175.51 204.023 175.945 204.381 176.455 204.592C176.965 204.803 177.526 204.858 178.067 204.751C178.608 204.643 179.106 204.377 179.496 203.987C179.886 203.597 180.152 203.1 180.259 202.559C180.367 202.017 180.312 201.456 180.101 200.947C179.889 200.437 179.532 200.001 179.073 199.694C178.614 199.388 178.075 199.224 177.523 199.224C176.783 199.224 176.073 199.518 175.55 200.041C175.027 200.565 174.733 201.274 174.733 202.014V202.014Z" fill="#EAEDEF"/>
<path d="M153.343 197.914C153.343 200.374 155.093 202.094 157.633 202.774L160.633 203.544C164.223 204.544 162.753 208.004 159.513 208.004C157.81 208.044 156.159 207.416 154.913 206.254L153.043 208.894C154.866 210.386 157.157 211.187 159.513 211.154C163.133 211.224 166.213 208.724 166.143 205.694C166.143 202.844 163.973 201.114 161.283 200.444L158.483 199.714C155.403 198.834 156.783 196.054 159.483 196.054C160.978 196.01 162.441 196.495 163.613 197.424L165.463 194.814C163.74 193.501 161.629 192.797 159.463 192.814C156.213 192.784 153.273 195.114 153.343 197.914Z" fill="#EAEDEF"/>
<path d="M147.873 239.404L60.5028 229.034L20.6128 236.704L107.983 247.074L147.873 239.404Z" fill="white" stroke="#394349" stroke-width="2" stroke-linecap="round" stroke-linejoin="round"/>
<path d="M20.6127 236.704L109.053 247.204L97.1726 192.874C96.956 191.868 96.4297 190.954 95.6675 190.262C94.9053 189.569 93.9454 189.133 92.9226 189.014L12.8126 179.504C12.2642 179.439 11.708 179.505 11.1906 179.699C10.6731 179.892 10.2094 180.206 9.83839 180.616C9.46735 181.025 9.19966 181.517 9.05775 182.051C8.91584 182.585 8.90386 183.145 9.02272 183.684L20.6127 236.704Z" fill="#00AF9A"/>
<path d="M64.0655 208.198L50.1038 213.227L52.5845 220.114L66.5463 215.085L64.0655 208.198Z" fill="white" stroke="#394349" stroke-width="2" stroke-linecap="round" stroke-linejoin="round"/>
<path d="M73.1528 208.844L66.5528 215.114L64.0728 208.224L73.1528 208.844Z" fill="white" stroke="#394349" stroke-width="2" stroke-linecap="round" stroke-linejoin="round"/>
<path d="M62.7328 212.604C62.8618 212.965 62.8811 213.356 62.7881 213.728C62.6952 214.1 62.4941 214.436 62.2105 214.693C61.9268 214.951 61.5732 215.119 61.1942 215.176C60.8153 215.233 60.4279 215.176 60.0811 215.013C59.7342 214.85 59.4433 214.588 59.2453 214.26C59.0472 213.932 58.9507 213.553 58.968 213.17C58.9854 212.787 59.1157 212.418 59.3426 212.109C59.5694 211.8 59.8827 211.565 60.2428 211.434C60.7288 211.274 61.2578 211.305 61.721 211.523C62.1842 211.741 62.5463 212.128 62.7328 212.604V212.604Z" fill="#F69C1E"/>
<path d="M50.1127 213.254L41.8127 214.034L46.9627 216.424L41.3027 220.314L47.7527 220.294L45.5327 224.874L52.5927 220.144L50.1127 213.254Z" fill="#F69C1E" stroke="#394349" stroke-width="2" stroke-linecap="round" stroke-linejoin="round"/>
<path d="M45.0128 107.434H21.1328C16.6825 107.434 12.4144 109.202 9.26758 112.349C6.12072 115.496 4.35278 119.764 4.35278 124.214V130.894C4.35278 135.345 6.12039 139.615 9.26697 142.763C12.4135 145.911 16.6816 147.682 21.1328 147.684H38.4227L53.5328 159.014V146.814C55.9619 145.883 58.052 144.238 59.5282 142.096C61.0044 139.954 61.7973 137.416 61.8027 134.814V124.194C61.7948 119.746 60.0224 115.484 56.8745 112.341C53.7266 109.199 49.4606 107.434 45.0128 107.434V107.434Z" fill="white" stroke="#394349" stroke-width="2" stroke-miterlimit="10"/>
<path d="M232.442 222.172V212.964H201.013V250.964H232.452V243.024C235.565 242.827 238.503 240.973 240.656 237.847C242.808 234.721 244.011 230.564 244.013 226.239V222.06L232.442 222.172ZM241.283 226.351C241.277 229.67 240.359 232.861 238.716 235.274C237.073 237.686 234.83 239.138 232.442 239.333V226.016H241.283V226.351Z" fill="#00AF9A"/>
<path d="M168.293 245.204L162.843 247.954L168.263 250.754L168.293 245.204Z" fill="white"/>
<path d="M162.573 248.274C162.527 248.234 162.49 248.185 162.464 248.13C162.439 248.075 162.424 248.015 162.423 247.954C162.423 247.876 162.444 247.799 162.485 247.732C162.526 247.665 162.584 247.611 162.653 247.574L168.103 244.824C168.165 244.787 168.236 244.768 168.308 244.768C168.38 244.768 168.451 244.787 168.513 244.824C168.574 244.863 168.624 244.916 168.659 244.979C168.694 245.042 168.712 245.112 168.713 245.184V250.744C168.715 250.817 168.698 250.889 168.663 250.952C168.629 251.016 168.578 251.069 168.516 251.107C168.454 251.145 168.383 251.165 168.31 251.166C168.238 251.168 168.166 251.15 168.103 251.114L162.683 248.304L162.573 248.274ZM167.863 245.894L163.773 247.954L167.843 250.064L167.863 245.894Z" fill="#394349"/>
<path d="M167.652 249.844L168.152 249.164C168.201 249.092 168.227 249.006 168.227 248.919C168.227 248.832 168.201 248.747 168.152 248.674L167.662 247.964L168.162 247.284C168.211 247.212 168.237 247.126 168.237 247.039C168.237 246.952 168.211 246.867 168.162 246.794L167.672 246.084L168.302 245.214L206.552 245.314V247.074V250.854L168.312 250.744L167.652 249.844Z" fill="white"/>
<path d="M206.113 245.734V247.044C206.103 247.1 206.103 247.158 206.113 247.214V248.924C206.103 248.98 206.103 249.038 206.113 249.094V250.434L168.513 250.354L168.193 249.884L168.513 249.434C168.62 249.29 168.678 249.114 168.678 248.934C168.678 248.754 168.62 248.579 168.513 248.434L168.193 247.974L168.513 247.524C168.62 247.38 168.678 247.204 168.678 247.024C168.678 246.844 168.62 246.669 168.513 246.524L168.193 246.074L168.513 245.614L206.113 245.704V245.734ZM206.823 244.954C206.749 244.894 206.658 244.859 206.563 244.854L168.293 244.764C168.228 244.763 168.164 244.778 168.106 244.807C168.049 244.837 167.999 244.881 167.963 244.934L167.323 245.834C167.277 245.902 167.252 245.982 167.252 246.064C167.252 246.146 167.277 246.226 167.323 246.294L167.813 247.004L167.313 247.714C167.269 247.783 167.246 247.863 167.246 247.944C167.246 248.026 167.269 248.105 167.313 248.174L167.803 248.884L167.313 249.594C167.267 249.662 167.242 249.742 167.242 249.824C167.242 249.906 167.267 249.986 167.313 250.054L167.943 250.954L168.003 251.024C168.076 251.085 168.168 251.117 168.263 251.114L206.523 251.204C206.576 251.206 206.629 251.196 206.679 251.177C206.729 251.157 206.774 251.128 206.812 251.091C206.85 251.053 206.881 251.009 206.901 250.96C206.922 250.91 206.933 250.858 206.933 250.804V245.244C206.933 245.19 206.923 245.137 206.902 245.087C206.882 245.037 206.851 244.992 206.813 244.954H206.823Z" fill="#394349"/>
<path d="M207.299 251.198L207.331 244.898L206.441 244.893L206.409 251.193L207.299 251.198Z" fill="#394349"/>
<path d="M206.253 251.544C206.179 251.462 206.136 251.355 206.133 251.244V244.934C206.135 244.821 206.182 244.713 206.263 244.634C206.345 244.56 206.452 244.518 206.563 244.514H207.453C207.564 244.514 207.671 244.559 207.75 244.637C207.829 244.716 207.873 244.823 207.873 244.934V251.244C207.873 251.3 207.862 251.356 207.84 251.407C207.818 251.459 207.786 251.506 207.746 251.545C207.706 251.584 207.659 251.615 207.607 251.635C207.554 251.656 207.499 251.666 207.443 251.664H206.553C206.497 251.667 206.442 251.658 206.39 251.637C206.338 251.616 206.291 251.585 206.253 251.544V251.544ZM206.983 245.344V250.804V245.344Z" fill="#394349"/>
<path d="M210.006 247.922L210.005 248.212C210.001 248.91 209.721 249.577 209.225 250.068C208.729 250.559 208.059 250.832 207.361 250.829V250.829L207.39 245.269C207.736 245.271 208.078 245.341 208.397 245.475C208.716 245.61 209.006 245.806 209.249 246.052C209.492 246.299 209.684 246.591 209.814 246.912C209.944 247.233 210.009 247.576 210.006 247.922V247.922Z" fill="#F49B20"/>
<path d="M207.203 251.174C207.129 251.091 207.086 250.985 207.083 250.874V245.314C207.083 245.203 207.127 245.096 207.206 245.017C207.285 244.938 207.392 244.894 207.503 244.894H207.593C208.389 244.894 209.152 245.21 209.714 245.773C210.277 246.335 210.593 247.099 210.593 247.894V248.354C210.58 249.141 210.258 249.891 209.697 250.443C209.136 250.995 208.38 251.304 207.593 251.304H207.503C207.447 251.306 207.391 251.295 207.339 251.272C207.287 251.25 207.241 251.216 207.203 251.174ZM207.923 245.754V250.404C208.367 250.341 208.778 250.134 209.093 249.814C209.291 249.619 209.448 249.388 209.557 249.132C209.665 248.876 209.721 248.602 209.723 248.324V247.854C209.726 247.346 209.546 246.854 209.215 246.468C208.884 246.082 208.426 245.829 207.923 245.754Z" fill="#394349"/>
</g>
<defs>
<clipPath id="clip0">
<rect width="280" height="260" fill="white"/>
</clipPath>
</defs>
</svg>
