<svg width="280" height="260" viewBox="0 0 280 260" fill="none" xmlns="http://www.w3.org/2000/svg">
<g clip-path="url(#clip0)">
<path d="M14.0483 199.399C33.9035 228.926 93.0625 250.898 144.525 249.972C168.168 249.689 191.197 242.412 210.709 229.058C226.272 218.601 251.299 194.69 256.367 168.33C261.151 143.408 270.105 104.114 235.821 58.656C203.561 15.8263 136.47 8.5462 77.6795 51.3854C34.3384 82.9357 -15.9236 154.952 14.0199 199.446" fill="#ECF0F3"/>
<path d="M125.748 175.96V236.319C125.748 237.239 125.567 238.15 125.215 239C124.863 239.85 124.346 240.622 123.696 241.273C123.045 241.924 122.273 242.44 121.423 242.792C120.573 243.144 119.662 243.325 118.742 243.325H37.2505C35.3932 243.322 33.6126 242.584 32.2992 241.27C30.9859 239.957 30.247 238.176 30.2445 236.319V175.96H125.738H125.748ZM127.629 174.069H28.3535V236.319C28.3535 237.487 28.5836 238.644 29.0307 239.724C29.4778 240.803 30.1332 241.784 30.9594 242.61C31.7855 243.436 32.7663 244.092 33.8457 244.539C34.9252 244.986 36.0821 245.216 37.2505 245.216H118.713C119.882 245.216 121.039 244.986 122.118 244.539C123.198 244.092 124.179 243.436 125.005 242.61C125.831 241.784 126.486 240.803 126.933 239.724C127.38 238.644 127.611 237.487 127.611 236.319V174.069H127.629Z" fill="#394349"/>
<path d="M119.12 161.722C120.875 161.722 122.559 162.419 123.8 163.66C125.041 164.901 125.738 166.585 125.738 168.34V174.277H30.2445V168.34C30.2445 166.585 30.9418 164.901 32.183 163.66C33.4241 162.419 35.1076 161.722 36.8629 161.722H119.12ZM119.12 159.831H36.8629C34.6061 159.831 32.4416 160.727 30.8458 162.323C29.25 163.919 28.3535 166.083 28.3535 168.34V176.168H127.629V168.34C127.629 166.083 126.733 163.919 125.137 162.323C123.541 160.727 121.377 159.831 119.12 159.831Z" fill="#394349"/>
<path d="M63.2608 25.3472H190.901V132.79C190.901 135.15 189.964 137.413 188.295 139.081C186.627 140.75 184.364 141.687 182.004 141.687H72.1294C69.7698 141.687 67.5068 140.75 65.8383 139.081C64.1698 137.413 63.2324 135.15 63.2324 132.79V25.3472H63.2608Z" fill="#00AF9A"/>
<path d="M182.383 9H71.7608C69.504 9 67.3396 9.89651 65.7438 11.4923C64.148 13.0881 63.2515 15.2524 63.2515 17.5092V25.3377H190.892V17.5092C190.892 15.2524 189.995 13.0881 188.4 11.4923C186.804 9.89651 184.639 9 182.383 9Z" fill="#00AF9A"/>
<path d="M89.7912 19.7027C91.1907 19.7027 92.3251 18.5683 92.3251 17.1689C92.3251 15.7695 91.1907 14.635 89.7912 14.635C88.3918 14.635 87.2573 15.7695 87.2573 17.1689C87.2573 18.5683 88.3918 19.7027 89.7912 19.7027Z" fill="white"/>
<path d="M80.393 19.7027C81.7925 19.7027 82.9269 18.5683 82.9269 17.1689C82.9269 15.7695 81.7925 14.635 80.393 14.635C78.9936 14.635 77.8591 15.7695 77.8591 17.1689C77.8591 18.5683 78.9936 19.7027 80.393 19.7027Z" fill="white"/>
<path d="M70.9948 19.7027C72.3943 19.7027 73.5287 18.5683 73.5287 17.1689C73.5287 15.7695 72.3943 14.635 70.9948 14.635C69.5954 14.635 68.4609 15.7695 68.4609 17.1689C68.4609 18.5683 69.5954 19.7027 70.9948 19.7027Z" fill="white"/>
<path d="M190.901 25.3472H63.2607" stroke="white" stroke-miterlimit="10"/>
<path d="M41.0987 103.244C37.1087 93.1562 38.1299 85.2804 37.9786 79.4469C37.8651 75.4664 38.0447 71.9777 38.9997 69.8409C40.0113 67.5529 42.583 64.083 39.9451 62.7877C38.196 61.9084 35.6621 63.6008 33.9508 65.8983C33.705 66.2292 33.497 66.5412 33.2984 66.8438C31.4736 61.5113 29.5165 55.4981 29.0437 54.0989C27.7011 50.0144 23.9475 49.069 24.7607 54.0989C25.2901 57.408 27.9942 67.8176 28.5426 69.7936H28.0982C27.0771 67.2408 24.9592 59.2422 24.1367 56.6232C23.3141 54.0043 22.0566 46.8755 18.9838 47.9722C15.9109 49.069 18.6812 55.5359 19.8442 60.4618C21.3191 66.7303 21.6028 68.9711 21.8391 70.0584C21.8391 70.238 21.9053 70.4271 21.9242 70.5973L21.4515 70.7107L21.3002 70.3893C20.6005 68.7914 17.4237 52.0283 14.5116 51.5933C11.8548 51.1962 12.1573 54.6094 13.1879 58.4102C14.2185 62.211 14.8331 65.4823 15.6368 69.7558C15.911 71.2118 16.0811 72.1384 16.1378 72.5922L15.9015 72.7151C15.7218 72.318 15.4382 71.6184 15.0789 70.7107C13.9065 67.8082 11.297 59.6298 8.65907 61.1048C6.71138 62.1826 11.8926 71.4387 12.961 78.1232C15.1262 91.6245 18.3408 95.9453 18.3408 95.9453C19.1445 97.4013 21.1773 107.471 22.1228 109.938L43.122 107.679C43.122 107.679 41.6092 104.511 41.0987 103.244Z" fill="white"/>
<path d="M37.9406 84.4106C37.9406 84.4106 37.7043 77.6411 36.5035 75.3909C35.3027 73.1406 29.8851 56.4815 29.0909 54.0894C27.7483 50.005 23.9947 49.0595 24.8078 54.0894C25.394 57.7484 28.6465 70.1057 28.6465 70.1057C28.6465 70.1057 29.0058 71.8642 28.2116 70.0395C27.2661 67.7893 25.0064 59.3273 24.1555 56.6233C23.3045 53.9192 22.0754 46.8755 19.0026 47.9723C15.9297 49.069 18.7 55.536 19.8629 60.4619C21.3379 66.7303 21.6215 68.9711 21.8579 70.0584C22.0564 71.0039 22.0092 71.9493 21.319 70.3893C20.6288 68.8293 17.4425 52.0283 14.5304 51.5934C11.8736 51.1963 12.1761 54.6094 13.2067 58.4102C14.2373 62.211 14.8518 65.4823 15.6555 69.7558C16.601 74.4832 16.2701 73.6795 15.0977 70.758C13.9253 67.8365 11.3158 59.6772 8.67787 61.1521C6.73017 62.2299 11.9114 71.4861 12.9798 78.1705C15.145 91.6718 18.3596 95.9926 18.3596 95.9926C19.1633 97.4486 22.0565 106.393 22.1416 109.986" fill="white"/>
<path d="M37.9406 84.4106C37.9406 84.4106 37.7043 77.6411 36.5035 75.3909C35.3027 73.1406 29.8851 56.4815 29.0909 54.0894C27.7483 50.005 23.9947 49.0595 24.8078 54.0894C25.394 57.7484 28.6465 70.1057 28.6465 70.1057C28.6465 70.1057 29.0058 71.8642 28.2116 70.0395C27.2661 67.7893 25.0064 59.3273 24.1555 56.6233C23.3045 53.9192 22.0754 46.8755 19.0026 47.9723C15.9297 49.069 18.7 55.536 19.8629 60.4619C21.3379 66.7303 21.6215 68.9711 21.8579 70.0584C22.0564 71.0039 22.0092 71.9493 21.319 70.3893C20.6288 68.8293 17.4425 52.0283 14.5304 51.5934C11.8736 51.1963 12.1761 54.6094 13.2067 58.4102C14.2373 62.211 14.8518 65.4823 15.6555 69.7558C16.601 74.4832 16.2701 73.6795 15.0977 70.758C13.9253 67.8365 11.3158 59.6772 8.67787 61.1521C6.73017 62.2299 11.9114 71.4861 12.9798 78.1705C15.145 91.6718 18.3596 95.9926 18.3596 95.9926C19.1633 97.4486 22.0565 106.393 22.1416 109.986" stroke="#394349" stroke-width="2" stroke-miterlimit="10"/>
<path d="M14.7102 73.5567C14.7102 73.5567 20.5155 69.406 31.0671 69.8693L29.838 73.9537L18.3409 77.3858L14.7102 73.5567Z" fill="white"/>
<path d="M13.1311 74.6912C18.7092 71.1438 25.2902 69.5077 31.8801 70.03Z" fill="white"/>
<path d="M13.1311 74.6912C18.7092 71.1438 25.2902 69.5077 31.8801 70.03" stroke="#394349" stroke-width="2" stroke-miterlimit="10"/>
<path d="M43.1408 107.773C43.1408 107.773 41.6091 104.511 41.0985 103.244C37.1086 93.1562 38.1297 85.2804 37.9785 79.4469C37.865 75.4665 38.0446 71.9777 38.9995 69.8409C40.0112 67.5529 42.5829 64.083 39.945 62.7877C38.1959 61.9084 35.662 63.6008 33.9507 65.8983C31.7477 68.8576 31.6815 71.2119 30.5753 73.6228C29.4691 76.0338 23.6165 78.9174 25.5642 86.2353" fill="white"/>
<path d="M43.1408 107.773C43.1408 107.773 41.6091 104.511 41.0985 103.244C37.1086 93.1562 38.1297 85.2804 37.9785 79.4469C37.865 75.4665 38.0446 71.9777 38.9995 69.8409C40.0112 67.5529 42.5829 64.083 39.945 62.7877C38.1959 61.9084 35.662 63.6008 33.9507 65.8983C31.7477 68.8576 31.6815 71.2119 30.5753 73.6228C29.4691 76.0338 23.6165 78.9174 25.5642 86.2353" stroke="#394349" stroke-width="2" stroke-miterlimit="10"/>
<path d="M49.2014 124.877L40.5313 96.3802L18.2651 101.032L31.1805 157.845C32.287 160.318 33.9833 162.481 36.1208 164.146C38.2583 165.81 40.7715 166.924 43.4401 167.391C46.1086 167.858 48.8509 167.663 51.4264 166.822C54.0019 165.982 56.3319 164.523 58.2119 162.573L79.0126 141.829H173.684L171.169 117.719C169.514 101.212 165.08 88.6463 148.477 88.6463H89.4791C85.9135 88.6473 82.3943 89.455 79.1851 91.0088C75.9758 92.5626 73.1597 94.8223 70.9476 97.6188L49.2014 124.877Z" fill="#384349"/>
<path d="M55.4133 137.281L49.2014 124.877" stroke="#19234A" stroke-width="2" stroke-miterlimit="10"/>
<path d="M94.3484 48.3693C94.3484 44.8623 95.0393 41.3895 96.3817 38.1495C97.7241 34.9095 99.6918 31.9657 102.172 29.4862C104.653 27.0068 107.597 25.0402 110.838 23.699C114.078 22.3577 117.551 21.6681 121.058 21.6693C128.14 21.6693 134.931 24.4823 139.938 29.4896C144.946 34.4968 147.759 41.2881 147.759 48.3693V55.8386C147.754 62.9166 144.939 69.703 139.932 74.7061C134.925 79.7093 128.136 82.5197 121.058 82.5197C117.551 82.5209 114.078 81.8312 110.838 80.49C107.597 79.1487 104.653 77.1822 102.172 74.7028C99.6918 72.2233 97.7241 69.2795 96.3817 66.0395C95.0393 62.7995 94.3484 59.3267 94.3484 55.8196V48.3693Z" fill="white" stroke="#384349" stroke-width="2" stroke-miterlimit="10"/>
<path d="M121.172 82.5197C116.477 82.5272 111.862 81.2978 107.793 78.9552V88.9394C108.133 92.2511 109.689 95.3191 112.16 97.5495C114.632 99.7799 117.843 101.014 121.172 101.013C124.499 101.012 127.708 99.7765 130.178 97.5463C132.647 95.3161 134.202 92.2494 134.541 88.9394V78.9552C130.476 81.2987 125.864 82.5282 121.172 82.5197V82.5197Z" fill="white" stroke="#384349" stroke-width="2" stroke-miterlimit="10"/>
<path d="M94.509 45.4857C95.222 38.9421 98.3261 32.8923 103.226 28.4969C108.126 24.1016 114.476 21.6702 121.058 21.6693C127.639 21.6681 133.988 24.0977 138.886 28.4917C143.784 32.8858 146.887 38.9344 147.598 45.4762C147.598 45.1264 147.522 44.7671 147.466 44.4078C148.879 44.4914 150.218 45.0705 151.248 46.0434C150.767 38.3678 147.381 31.1633 141.779 25.8946C136.176 20.6259 128.777 17.6884 121.087 17.6794C113.428 17.6876 106.057 20.5999 100.462 25.8287C94.8661 31.0576 91.4616 38.214 90.9351 45.8543C91.9892 44.9447 93.3251 44.427 94.717 44.3889C94.5941 44.7576 94.5468 45.1169 94.509 45.4857Z" fill="#F69C1C"/>
<path d="M127.072 64.7448C126.552 65.8726 125.72 66.8279 124.675 67.4975C123.629 68.1671 122.413 68.523 121.172 68.523C119.93 68.523 118.714 68.1671 117.669 67.4975C116.623 66.8279 115.791 65.8726 115.272 64.7448" stroke="#384349" stroke-width="2" stroke-miterlimit="10"/>
<path d="M109.975 57.224C111.087 57.224 111.989 56.3224 111.989 55.2101C111.989 54.0979 111.087 53.1963 109.975 53.1963C108.863 53.1963 107.961 54.0979 107.961 55.2101C107.961 56.3224 108.863 57.224 109.975 57.224Z" fill="#384349"/>
<path d="M134.52 57.224C135.632 57.224 136.534 56.3224 136.534 55.2101C136.534 54.0979 135.632 53.1963 134.52 53.1963C133.407 53.1963 132.506 54.0979 132.506 55.2101C132.506 56.3224 133.407 57.224 134.52 57.224Z" fill="#384349"/>
<path d="M106.971 33.1851C106.971 34.2809 107.406 35.3318 108.181 36.1066C108.956 36.8815 110.007 37.3168 111.102 37.3168H141.197C144.688 37.3447 148.056 36.0308 150.605 33.6467C153.155 31.2625 154.691 27.9902 154.897 24.5057C154.897 24.2882 154.897 24.0708 154.897 23.8533C154.897 23.8533 146.965 23.8533 143.93 23.8533C145.536 22.6975 146.844 21.1748 147.743 19.412C148.643 17.6491 149.108 15.6969 149.101 13.7179H114.119C112.2 13.7179 110.36 14.4799 109.004 15.8363C107.648 17.1928 106.886 19.0325 106.886 20.9507V20.9507V15.0226C102.767 15.0326 98.8214 16.6776 95.9156 19.5958C93.0097 22.5141 91.3815 26.4668 91.3891 30.5851C91.355 34.2437 92.6674 37.787 95.0764 40.5408L98.0358 39.4157C101.503 38.1071 104.587 35.9523 107.009 33.1473L106.971 33.1851Z" fill="#F69C1C"/>
<path d="M147.466 44.4078C147.659 45.7195 147.757 47.0435 147.759 48.3693V55.8386C147.759 56.0371 147.759 56.2262 147.759 56.4247C149.237 56.266 150.605 55.5659 151.598 54.4592C152.592 53.3525 153.14 51.9175 153.139 50.4304C153.137 48.8933 152.549 47.4146 151.495 46.2957C150.441 45.1767 149 44.5016 147.466 44.4078V44.4078Z" fill="white" stroke="#384349" stroke-width="2" stroke-miterlimit="10"/>
<path d="M94.3484 55.8386V48.3693C94.3486 47.0399 94.4498 45.7124 94.651 44.3983C93.0849 44.4498 91.6001 45.1077 90.5099 46.2332C89.4197 47.3586 88.8095 48.8636 88.8079 50.4304V50.4304C88.8081 51.9474 89.3808 53.4083 90.4114 54.5213C91.4421 55.6344 92.8548 56.3175 94.3673 56.4341C94.3673 56.2356 94.3484 56.0466 94.3484 55.8386Z" fill="white" stroke="#384349" stroke-width="2" stroke-miterlimit="10"/>
<path d="M113.542 47.3861H102.735C102.735 46.5953 103.048 45.8368 103.607 45.2768C104.165 44.7167 104.922 44.4008 105.713 44.3983H113.542C113.738 44.3983 113.932 44.437 114.113 44.5121C114.295 44.5872 114.459 44.6972 114.598 44.8359C114.737 44.9746 114.847 45.1393 114.922 45.3205C114.997 45.5017 115.036 45.696 115.036 45.8922V45.8922C115.037 46.0887 114.999 46.2835 114.924 46.4653C114.85 46.6472 114.74 46.8123 114.601 46.9513C114.462 47.0903 114.297 47.2002 114.115 47.2749C113.933 47.3495 113.738 47.3873 113.542 47.3861V47.3861Z" fill="#384349"/>
<path d="M139.363 47.3861H128.547C128.15 47.3861 127.77 47.2287 127.49 46.9485C127.21 46.6684 127.053 46.2884 127.053 45.8922V45.8922C127.053 45.496 127.21 45.116 127.49 44.8359C127.77 44.5557 128.15 44.3983 128.547 44.3983H136.375C137.168 44.3983 137.928 44.7131 138.488 45.2734C139.048 45.8337 139.363 46.5937 139.363 47.3861V47.3861Z" fill="#384349"/>
<path d="M108.748 61.6815C113.39 61.6815 117.154 57.9184 117.154 53.2763C117.154 48.6342 113.39 44.8711 108.748 44.8711C104.106 44.8711 100.343 48.6342 100.343 53.2763C100.343 57.9184 104.106 61.6815 108.748 61.6815Z" stroke="#2AB598" stroke-width="2" stroke-miterlimit="10"/>
<path d="M133.359 61.6815C138.001 61.6815 141.764 57.9184 141.764 53.2763C141.764 48.6342 138.001 44.8711 133.359 44.8711C128.717 44.8711 124.954 48.6342 124.954 53.2763C124.954 57.9184 128.717 61.6815 133.359 61.6815Z" stroke="#2AB598" stroke-width="2" stroke-miterlimit="10"/>
<path d="M117.163 53.2763H124.802" stroke="#2AB598" stroke-width="2" stroke-miterlimit="10"/>
<path d="M121.843 62.8255C121.415 62.8255 120.991 62.7411 120.596 62.577C120.201 62.413 119.842 62.1726 119.54 61.8696C119.238 61.5666 118.998 61.2069 118.835 60.8112C118.673 60.4155 118.589 59.9915 118.591 59.5636C118.591 58.701 118.933 57.8738 119.543 57.2638C120.153 56.6539 120.98 56.3113 121.843 56.3113" stroke="#384349" stroke-width="2" stroke-miterlimit="10"/>
<path d="M141.169 16.3841H113.286C112.63 16.3829 111.981 16.5111 111.374 16.7616C110.768 17.012 110.217 17.3797 109.754 17.8435C109.29 18.3073 108.922 18.8581 108.672 19.4643C108.421 20.0705 108.293 20.7203 108.294 21.3762V27.2192C108.293 26.5633 108.421 25.9135 108.672 25.3073C108.922 24.7011 109.29 24.1503 109.754 23.6865C110.217 23.2227 110.768 22.855 111.374 22.6046C111.981 22.3541 112.63 22.2258 113.286 22.2271H137.226" stroke="#384349" stroke-width="2" stroke-miterlimit="10"/>
<path d="M136.829 26.2832H150.747" stroke="#384349" stroke-width="2" stroke-miterlimit="10"/>
<path d="M155.285 30.9916C156.483 29.1328 157.165 26.989 157.261 24.7799V22.3689" stroke="#384349" stroke-width="2" stroke-miterlimit="10"/>
<path d="M128.575 39.7467H142.095C144.135 39.7489 146.148 39.2797 147.976 38.3757" stroke="#384349" stroke-width="2" stroke-miterlimit="10"/>
<path d="M150.283 49.4282C150.283 49.4282 148.09 49.1351 147.91 51.773C148.047 51.4941 148.251 51.2534 148.503 51.072C148.756 50.8906 149.049 50.7741 149.357 50.733" stroke="#384349" stroke-width="2" stroke-linecap="round" stroke-linejoin="round"/>
<path d="M92.0886 49.4283C92.0886 49.4283 94.2916 49.173 94.4145 51.8109C94.2881 51.528 94.0915 51.2822 93.8432 51.0968C93.595 50.9115 93.3034 50.7927 92.9963 50.7519" stroke="#384349" stroke-width="2" stroke-linecap="round" stroke-linejoin="round"/>
<path d="M146.359 118.599H274V226.042C274.004 227.213 273.776 228.373 273.331 229.455C272.885 230.538 272.231 231.522 271.404 232.351C270.578 233.18 269.595 233.838 268.514 234.287C267.433 234.736 266.274 234.967 265.103 234.967H155.256C152.897 234.967 150.634 234.03 148.965 232.361C147.297 230.693 146.359 228.43 146.359 226.07V118.599Z" fill="#F69C1C"/>
<path d="M265.481 102.242H154.859C152.603 102.242 150.438 103.139 148.842 104.734C147.247 106.33 146.35 108.495 146.35 110.751V118.58H273.991V110.751C273.991 108.495 273.094 106.33 271.498 104.734C269.902 103.139 267.738 102.242 265.481 102.242Z" fill="#F69C1C"/>
<path d="M172.89 112.954C174.289 112.954 175.424 111.82 175.424 110.42C175.424 109.021 174.289 107.887 172.89 107.887C171.49 107.887 170.356 109.021 170.356 110.42C170.356 111.82 171.49 112.954 172.89 112.954Z" fill="white"/>
<path d="M163.492 112.954C164.891 112.954 166.026 111.82 166.026 110.42C166.026 109.021 164.891 107.887 163.492 107.887C162.092 107.887 160.958 109.021 160.958 110.42C160.958 111.82 162.092 112.954 163.492 112.954Z" fill="white"/>
<path d="M154.093 112.954C155.493 112.954 156.627 111.82 156.627 110.42C156.627 109.021 155.493 107.887 154.093 107.887C152.694 107.887 151.56 109.021 151.56 110.42C151.56 111.82 152.694 112.954 154.093 112.954Z" fill="white"/>
<path d="M274 118.589H146.359" stroke="white" stroke-miterlimit="10"/>
<path d="M105.174 244.195C105.174 244.195 103.368 226.552 101.6 220.218C100.655 216.928 100.021 212.011 99.2175 207.426C99.0761 206.615 98.7206 205.857 98.1876 205.23C97.6546 204.603 96.9636 204.13 96.1862 203.86C95.4088 203.59 94.5733 203.532 93.7664 203.694C92.9595 203.855 92.2104 204.23 91.5969 204.778C89.4884 206.669 84.033 214.044 83.0875 214.044H72.8857C71.9403 214.044 66.5132 206.735 64.4236 204.835C63.8182 204.29 63.0782 203.916 62.2802 203.753C61.4821 203.59 60.6549 203.642 59.8839 203.905C59.113 204.168 58.4262 204.632 57.8946 205.25C57.3629 205.867 57.0057 206.615 56.8598 207.416C56.0655 211.85 55.2524 215.623 54.3826 220.218C53.1535 226.647 50.8843 244.157 50.8843 244.157L105.174 244.195Z" fill="#F49B20" stroke="#394349" stroke-width="2" stroke-miterlimit="10"/>
<path d="M84.6949 227.564L82.804 226.619C83.3514 225.535 84.1897 224.625 85.225 223.99C86.2603 223.356 87.4517 223.022 88.666 223.026C89.8802 223.022 91.0717 223.356 92.107 223.99C93.1423 224.625 93.9805 225.535 94.528 226.619L92.637 227.564C92.2646 226.823 91.6931 226.201 90.9866 225.767C90.2802 225.332 89.4668 225.104 88.6376 225.106C87.818 225.114 87.0166 225.348 86.3211 225.781C85.6257 226.215 85.063 226.832 84.6949 227.564V227.564Z" fill="#394349"/>
<path d="M71.2879 227.564C70.9139 226.822 70.3407 226.2 69.6326 225.765C68.9246 225.331 68.1096 225.103 67.279 225.106C66.4498 225.104 65.6364 225.332 64.93 225.767C64.2235 226.201 63.6521 226.823 63.2796 227.564L61.3887 226.619C61.937 225.535 62.7755 224.626 63.8106 223.992C64.8456 223.357 66.0366 223.023 67.2506 223.026C68.466 223.022 69.6586 223.356 70.6953 223.991C71.7321 224.625 72.5722 225.535 73.1221 226.619L71.2879 227.564Z" fill="#394349"/>
<path d="M76.6677 229.89L77.9536 231.752L79.3151 229.89" fill="#F49B20"/>
<path d="M77.9536 233.322C77.7041 233.319 77.4588 233.257 77.2384 233.14C77.0179 233.024 76.8288 232.856 76.6866 232.651L75.4007 230.76C75.2834 230.59 75.2006 230.399 75.157 230.198C75.1135 229.996 75.11 229.788 75.1469 229.585C75.1838 229.383 75.2603 229.189 75.3719 229.016C75.4836 228.843 75.6284 228.693 75.7979 228.576C76.1409 228.341 76.5626 228.251 76.9715 228.326C77.3804 228.4 77.7434 228.633 77.982 228.973V228.973L78.0387 228.888C78.286 228.554 78.6549 228.331 79.0655 228.267C79.4762 228.203 79.8954 228.304 80.2322 228.547C80.3986 228.669 80.5394 228.822 80.6466 228.998C80.7537 229.174 80.8251 229.37 80.8567 229.574C80.8883 229.777 80.8795 229.985 80.8308 230.185C80.782 230.386 80.6943 230.574 80.5726 230.741L79.2111 232.632C79.072 232.839 78.8852 233.01 78.6664 233.13C78.4476 233.25 78.2031 233.316 77.9536 233.322V233.322Z" fill="#394349"/>
<path d="M61.0105 212.219L63.0811 213.136L63.2702 210.839" fill="#E08526"/>
<path d="M63.0812 214.649C62.8689 214.653 62.6586 214.607 62.4666 214.517L60.396 213.571C60.2141 213.491 60.0498 213.376 59.9126 213.232C59.7754 213.088 59.6682 212.919 59.5969 212.733C59.5257 212.548 59.492 212.35 59.4977 212.151C59.5034 211.953 59.5484 211.757 59.6302 211.576C59.7101 211.394 59.8253 211.23 59.969 211.093C60.1128 210.956 60.2824 210.848 60.4679 210.777C60.6535 210.706 60.8512 210.672 61.0499 210.678C61.2485 210.683 61.4441 210.728 61.6252 210.81L61.7481 210.867V210.687C61.7636 210.49 61.818 210.297 61.9083 210.121C61.9985 209.944 62.1228 209.787 62.274 209.659C62.4251 209.53 62.6002 209.433 62.789 209.373C62.9778 209.313 63.1768 209.29 63.3743 209.307C63.5729 209.322 63.7663 209.377 63.9435 209.468C64.1207 209.559 64.2781 209.684 64.4065 209.836C64.535 209.988 64.6319 210.165 64.6916 210.354C64.7514 210.544 64.7729 210.744 64.7548 210.943L64.5656 213.24C64.5465 213.481 64.4694 213.713 64.341 213.917C64.2126 214.121 64.0366 214.291 63.8281 214.413C63.6048 214.557 63.3469 214.638 63.0812 214.649V214.649Z" fill="#E08526"/>
<path d="M94.7643 212.219L92.7032 213.136L92.5046 210.839" fill="#E08526"/>
<path d="M92.7033 214.649C92.9155 214.652 93.1255 214.606 93.3178 214.517L95.379 213.571C95.5609 213.491 95.7252 213.376 95.8624 213.232C95.9995 213.088 96.1069 212.919 96.1781 212.733C96.2493 212.548 96.283 212.35 96.2773 212.152C96.2716 211.953 96.2266 211.757 96.1448 211.576C96.0649 211.394 95.9498 211.23 95.806 211.093C95.6622 210.956 95.4926 210.848 95.3071 210.777C95.1216 210.706 94.9238 210.672 94.7251 210.678C94.5265 210.683 94.331 210.729 94.1498 210.81L94.0269 210.867V210.687C94.0102 210.489 93.9547 210.296 93.8634 210.12C93.7722 209.943 93.647 209.786 93.4951 209.658C93.3432 209.53 93.1676 209.433 92.9781 209.373C92.7887 209.313 92.5893 209.29 92.3912 209.307C92.1932 209.324 92.0003 209.379 91.8237 209.471C91.6472 209.562 91.4903 209.687 91.3621 209.839C91.2339 209.991 91.1369 210.166 91.0766 210.356C91.0163 210.545 90.994 210.745 91.0108 210.943L91.1999 213.24C91.2228 213.48 91.3015 213.71 91.4295 213.914C91.5576 214.117 91.7315 214.288 91.9374 214.413C92.1664 214.56 92.4312 214.641 92.7033 214.649V214.649Z" fill="#E08526"/>
<path d="M74.8713 237.028C74.1993 237.03 73.5373 236.866 72.9436 236.551C72.35 236.236 71.8431 235.78 71.4675 235.222L73.2072 234.05C73.3892 234.324 73.6364 234.549 73.9269 234.705C74.2174 234.86 74.5419 234.94 74.8713 234.939C75.4012 234.939 75.9096 234.729 76.2853 234.355C76.6609 233.981 76.8732 233.474 76.8757 232.944H78.9652C78.9627 234.028 78.5303 235.067 77.7628 235.832C76.9953 236.598 75.9554 237.028 74.8713 237.028V237.028Z" fill="#394349"/>
<path d="M80.9602 237.028C79.8777 237.026 78.8403 236.595 78.0748 235.829C77.3094 235.064 76.8782 234.026 76.8757 232.944H78.9653C78.9678 233.472 79.1787 233.978 79.5523 234.352C79.9259 234.725 80.4319 234.936 80.9602 234.939C81.2896 234.94 81.6141 234.86 81.9046 234.705C82.1951 234.549 82.4424 234.324 82.6243 234.05L84.364 235.222C83.9885 235.78 83.4815 236.236 82.8879 236.551C82.2942 236.866 81.6322 237.03 80.9602 237.028V237.028Z" fill="#394349"/>
<path d="M91.0581 230.23L86.8979 232.093L90.2639 233.275" fill="#F49B20"/>
<path d="M90.0938 233.776L85.4893 232.15L90.8502 229.758L91.2756 230.712L88.3068 232.036L90.4341 232.783L90.0938 233.776Z" fill="#394349"/>
<path d="M65.1802 230.23L69.3403 232.093L65.9744 233.275" fill="#F49B20"/>
<path d="M66.1445 233.776L65.7947 232.783L67.9315 232.036L64.9626 230.712L65.3881 229.758L70.7396 232.15L66.1445 233.776Z" fill="#394349"/>
<path d="M73.3398 214.545H75.5617V218.601C75.5617 218.747 75.5328 218.893 75.4767 219.028C75.4207 219.163 75.3385 219.286 75.2349 219.39C75.1313 219.493 75.0083 219.576 74.8729 219.632C74.7376 219.688 74.5925 219.717 74.446 219.717V219.717C74.2995 219.717 74.1544 219.688 74.0191 219.632C73.8837 219.576 73.7607 219.493 73.6571 219.39C73.5535 219.286 73.4713 219.163 73.4153 219.028C73.3592 218.893 73.3303 218.747 73.3303 218.601V214.545H73.3398Z" fill="#E08526"/>
<path d="M76.8 214.545H79.0314V218.601C79.0314 218.747 79.0025 218.893 78.9465 219.028C78.8904 219.163 78.8082 219.286 78.7046 219.39C78.601 219.493 78.478 219.576 78.3427 219.632C78.2073 219.688 78.0622 219.717 77.9157 219.717V219.717C77.7692 219.717 77.6241 219.688 77.4888 219.632C77.3534 219.576 77.2304 219.493 77.1268 219.39C77.0232 219.286 76.941 219.163 76.885 219.028C76.8289 218.893 76.8 218.747 76.8 218.601V214.545V214.545Z" fill="#E08526"/>
<path d="M80.27 214.545H82.5297V218.601C82.5297 218.747 82.5009 218.893 82.4448 219.028C82.3887 219.163 82.3066 219.286 82.203 219.39C82.0994 219.493 81.9764 219.576 81.841 219.632C81.7056 219.688 81.5606 219.717 81.4141 219.717V219.717C81.2675 219.717 81.1225 219.688 80.9871 219.632C80.8517 219.576 80.7288 219.493 80.6252 219.39C80.5216 219.286 80.4394 219.163 80.3833 219.028C80.3272 218.893 80.2984 218.747 80.2984 218.601V214.545H80.27Z" fill="#E08526"/>
<path d="M264.98 234.939H184.51L191.79 191.92C192.399 187.989 194.394 184.405 197.415 181.816C200.435 179.228 204.282 177.804 208.26 177.804H241.229C245.208 177.803 249.056 179.225 252.077 181.814C255.098 184.403 257.092 187.988 257.7 191.92L264.98 234.939Z" fill="#384349"/>
<path d="M259.629 146.811C258.491 145.135 257.864 143.164 257.823 141.139C257.789 134.4 255.657 127.839 251.722 122.367C247.788 116.896 242.246 112.786 235.869 110.609C231.893 109.276 227.696 108.727 223.511 108.993C222.329 108.234 221.059 107.621 219.729 107.168C211.106 104.228 201.462 108.416 195.354 116.859L200.583 118.646L200.678 118.58L201.311 118.173L201.992 117.738L202.654 117.351L203.353 116.954L204.025 116.604L204.753 116.235L205.433 115.914L206.18 115.583L206.88 115.299L207.636 115.006L208.355 114.76H208.478L206.105 127.288L205.377 146.131C207.904 152.613 211.095 158.817 214.898 164.643C215.923 170.466 219.013 175.725 223.601 179.455C228.189 183.185 233.967 185.137 239.877 184.952C245.321 184.771 250.55 182.789 254.744 179.315C258.938 175.841 261.86 171.073 263.051 165.759C263.792 162.533 263.87 159.191 263.282 155.934C262.694 152.678 261.451 149.574 259.629 146.811V146.811Z" fill="#00AF9A"/>
<path d="M232.843 168.671L214.879 164.634C215.922 170.438 219.017 175.674 223.599 179.387C228.181 183.099 233.945 185.041 239.84 184.857C240.398 184.857 240.946 184.791 241.494 184.734C230.442 180.224 232.843 168.671 232.843 168.671Z" fill="#00AF9A"/>
<path d="M214.056 170.581C216.975 170.889 219.92 170.851 222.83 170.467L224.598 177.227C224.911 178.764 224.6 180.362 223.735 181.671C222.87 182.979 221.521 183.891 219.985 184.205V184.205C219.223 184.361 218.439 184.365 217.676 184.218C216.913 184.07 216.187 183.774 215.539 183.345C214.891 182.916 214.333 182.364 213.899 181.72C213.464 181.076 213.161 180.352 213.007 179.591L210.511 170.051C211.693 170.278 212.874 170.448 214.056 170.581Z" fill="white" stroke="#394349" stroke-width="2" stroke-miterlimit="10"/>
<path d="M187.337 134.795C181.55 151.747 190.949 165.513 206.521 170.826C222.093 176.14 237.949 171.006 243.735 154.054C249.521 137.102 241.598 119.071 226.026 113.72C210.454 108.369 193.133 117.833 187.337 134.795Z" fill="white" stroke="#394349" stroke-width="2" stroke-miterlimit="10"/>
<path d="M238.298 155.028L240.605 155.812C241.082 155.971 241.521 156.223 241.899 156.553C242.277 156.883 242.585 157.285 242.806 157.736C243.027 158.186 243.156 158.676 243.186 159.177C243.215 159.678 243.145 160.18 242.979 160.653C242.82 161.129 242.568 161.569 242.238 161.947C241.908 162.325 241.506 162.633 241.055 162.854C240.605 163.075 240.115 163.204 239.614 163.233C239.113 163.263 238.611 163.193 238.138 163.026L237.552 162.818L238.298 155.028Z" fill="white"/>
<path d="M225.194 110.789C221.64 118.779 215.665 125.451 208.114 129.861C200.562 134.272 191.816 136.2 183.111 135.371C183.347 134.426 183.602 133.556 183.905 132.658C186.712 124.444 192.546 117.608 200.218 113.545C207.889 109.482 216.821 108.497 225.194 110.789V110.789Z" fill="#00AF9A"/>
<path d="M211.324 109.938C216.518 109.262 221.797 109.743 226.783 111.347C235.338 114.333 242.364 120.583 246.327 128.731C250.289 136.88 250.867 146.266 247.933 154.839C247.659 155.661 246.553 159.188 246.212 159.973C243.612 157.77 241.891 156.276 239.357 155.415C230.127 152.275 222.279 146.017 217.163 137.718C212.047 129.418 209.982 119.595 211.324 109.938Z" fill="#00AF9A"/>
<path d="M197.539 152.683C197.539 157.316 201.131 158.356 204.497 155.056" stroke="#394349" stroke-width="2" stroke-linejoin="round"/>
<path d="M212.859 141.502L220.992 145.38C221.266 145.51 221.477 145.744 221.578 146.03C221.68 146.316 221.663 146.631 221.533 146.905L221.431 147.118L212.256 142.744C212.118 142.678 212.012 142.56 211.961 142.416C211.91 142.272 211.918 142.113 211.984 141.975L212.086 141.762C212.119 141.694 212.166 141.634 212.223 141.584C212.28 141.534 212.347 141.496 212.418 141.472C212.49 141.448 212.566 141.438 212.642 141.443C212.717 141.448 212.791 141.468 212.859 141.502V141.502Z" fill="#394349"/>
<path d="M198.985 137.609L189.307 134.506L189.379 134.281C189.471 133.992 189.675 133.751 189.945 133.613C190.215 133.474 190.529 133.448 190.818 133.541L199.398 136.292C199.543 136.339 199.664 136.441 199.734 136.577C199.804 136.713 199.817 136.872 199.771 137.017L199.699 137.242C199.652 137.388 199.549 137.509 199.413 137.579C199.277 137.649 199.119 137.662 198.973 137.615L198.985 137.609Z" fill="#394349"/>
<path d="M201.897 145.932C201.381 145.757 200.816 145.793 200.325 146.032C199.835 146.271 199.459 146.694 199.278 147.209C199.104 147.727 199.141 148.292 199.382 148.783C199.622 149.274 200.048 149.649 200.564 149.828" stroke="#394349" stroke-width="2" stroke-miterlimit="10"/>
<path d="M240.899 159.112L238.081 159.774L239.859 160.379" stroke="#394349" stroke-width="2" stroke-linecap="round" stroke-linejoin="round"/>
<path d="M238.298 155.028L240.605 155.812C241.082 155.971 241.521 156.223 241.899 156.553C242.277 156.883 242.585 157.285 242.806 157.736C243.027 158.186 243.156 158.676 243.186 159.177C243.215 159.678 243.145 160.18 242.979 160.653C242.82 161.129 242.568 161.569 242.238 161.947C241.908 162.325 241.506 162.633 241.055 162.854C240.605 163.075 240.115 163.204 239.614 163.233C239.113 163.263 238.611 163.193 238.138 163.026L237.552 162.818" stroke="#394349" stroke-width="2" stroke-miterlimit="10"/>
<path d="M213.461 157.732C217.716 157.732 221.166 154.282 221.166 150.026C221.166 145.77 217.716 142.321 213.461 142.321C209.205 142.321 205.755 145.77 205.755 150.026C205.755 154.282 209.205 157.732 213.461 157.732Z" stroke="#F49B1F" stroke-width="2" stroke-miterlimit="10"/>
<path d="M192.14 148.929C196.396 148.929 199.845 145.48 199.845 141.224C199.845 136.968 196.396 133.518 192.14 133.518C187.884 133.518 184.434 136.968 184.434 141.224C184.434 145.48 187.884 148.929 192.14 148.929Z" stroke="#F49B1F" stroke-width="2" stroke-miterlimit="10"/>
<path d="M206.436 146.868L199.638 143.578" stroke="#F49B1F" stroke-width="2" stroke-miterlimit="10"/>
<path d="M216.042 170.685V175.1L222.944 175.771V172.935L222.443 169.758L216.042 170.685Z" fill="white"/>
<path d="M221.147 149.459L238.299 155.028" stroke="#F49B1F" stroke-width="2" stroke-miterlimit="10"/>
<path d="M184.879 130.19C190.541 130.729 196.249 129.901 201.525 127.777C206.801 125.654 211.491 122.295 215.2 117.984" stroke="#394349" stroke-width="2" stroke-miterlimit="10"/>
<path d="M210.416 116.746C204.899 122.277 197.428 125.418 189.615 125.491" stroke="#394349" stroke-width="2" stroke-miterlimit="10"/>
<path d="M240.653 151.662C232.495 148.891 225.558 143.363 221.038 136.028C216.518 128.693 214.698 120.012 215.89 111.479" stroke="#394349" stroke-width="2" stroke-miterlimit="10"/>
<path d="M260.328 165.39C261.046 162.184 261.112 158.866 260.523 155.634C259.933 152.402 258.7 149.321 256.896 146.575" stroke="#394349" stroke-width="2" stroke-miterlimit="10"/>
<path d="M248.094 114.259C245.128 111.851 241.756 109.991 238.138 108.766" stroke="#394349" stroke-width="2" stroke-miterlimit="10"/>
<path d="M260.12 139.295C260.081 131.727 257.406 124.409 252.556 118.599" stroke="#394349" stroke-width="2" stroke-miterlimit="10"/>
<path d="M213.656 149.904C214.012 149.241 213.819 148.446 213.225 148.127C212.632 147.809 211.862 148.087 211.507 148.75C211.151 149.412 211.344 150.208 211.937 150.526C212.531 150.845 213.3 150.566 213.656 149.904Z" fill="#394349"/>
<path d="M194.459 142.223C195.01 141.197 194.715 139.967 193.799 139.475C192.884 138.984 191.695 139.417 191.144 140.443C190.593 141.469 190.889 142.699 191.804 143.19C192.72 143.682 193.909 143.249 194.459 142.223Z" fill="#394349"/>
<path d="M214.239 150.217C214.79 149.191 214.494 147.961 213.579 147.469C212.663 146.978 211.475 147.411 210.924 148.437C210.373 149.463 210.669 150.693 211.584 151.184C212.5 151.676 213.688 151.243 214.239 150.217Z" fill="#394349"/>
<path d="M211.834 234.126V222.969H159.861V234.126H211.834Z" fill="#50545E" stroke="#394349" stroke-width="2" stroke-linecap="round" stroke-linejoin="round"/>
<path d="M231.68 234.126V222.969H211.834V234.126H231.68Z" fill="white" stroke="#394349" stroke-width="2" stroke-linecap="round" stroke-linejoin="round"/>
<path d="M202.115 222.969V211.813H150.141V222.969H202.115Z" fill="#F39A21" stroke="#394349" stroke-width="2" stroke-miterlimit="10"/>
<path d="M221.97 222.969V211.812H202.124V222.969H221.97Z" fill="white" stroke="#394349" stroke-width="2" stroke-linecap="round" stroke-linejoin="round"/>
<path d="M195.931 222.979V211.822H188.159V222.979H195.931Z" fill="white" stroke="#394349" stroke-width="2" stroke-linecap="round" stroke-linejoin="round"/>
<path d="M208.563 231.327V225.749H163.548V231.327H208.563Z" fill="#00AF9A"/>
<path d="M223.208 42.2521H245.787C249.994 42.2521 254.03 43.9236 257.005 46.8989C259.98 49.8741 261.652 53.9094 261.652 58.1171V64.4328C261.652 68.6405 259.98 72.6758 257.005 75.651C254.03 78.6263 249.994 80.2978 245.787 80.2978H229.449L215.153 91.0289V79.4941C212.858 78.6123 210.884 77.0566 209.49 75.0315C208.096 73.0065 207.348 70.6069 207.343 68.1485V58.1171C207.343 53.9094 209.015 49.8741 211.99 46.8989C214.965 43.9236 219.001 42.2521 223.208 42.2521V42.2521Z" fill="white" stroke="#394349" stroke-width="2" stroke-miterlimit="10"/>
<path d="M245.437 64.4423C246.81 64.4423 247.923 63.329 247.923 61.9557C247.923 60.5824 246.81 59.4691 245.437 59.4691C244.063 59.4691 242.95 60.5824 242.95 61.9557C242.95 63.329 244.063 64.4423 245.437 64.4423Z" fill="#00AF9A"/>
<path d="M234.498 64.4423C235.871 64.4423 236.984 63.329 236.984 61.9557C236.984 60.5824 235.871 59.4691 234.498 59.4691C233.124 59.4691 232.011 60.5824 232.011 61.9557C232.011 63.329 233.124 64.4423 234.498 64.4423Z" fill="#00AF9A"/>
<path d="M223.558 64.4423C224.932 64.4423 226.045 63.329 226.045 61.9557C226.045 60.5824 224.932 59.4691 223.558 59.4691C222.185 59.4691 221.072 60.5824 221.072 61.9557C221.072 63.329 222.185 64.4423 223.558 64.4423Z" fill="#00AF9A"/>
</g>
<defs>
<clipPath id="clip0">
<rect width="269" height="241" fill="white" transform="translate(5 9)"/>
</clipPath>
</defs>
</svg>
