<svg width="390" height="332" viewBox="0 0 390 332" fill="none" xmlns="http://www.w3.org/2000/svg">
<mask id="mask0" style="mask-type:alpha" maskUnits="userSpaceOnUse" x="3" y="3" width="385" height="327">
<path d="M217.8 329.878C185.2 329.878 152.5 321.878 120.4 300.978C88.7 280.278 59.3 251.078 37.9 220.278C16.4 189.578 3 157.578 3 131.578C3 92.5776 32.5 61.2776 72.4 39.1776C112.2 17.1776 161.9 4.67759 201.2 3.17759C307.7 -0.822407 382.9 63.2776 387.1 141.878C391.5 223.278 351.3 263.978 324.9 290.678C324.1 291.478 323.3 292.278 322.5 293.178C308.8 307.078 289.5 316.278 270.2 321.978C250.8 327.678 231.5 329.878 217.8 329.878Z" fill="#E1E7EB"/>
</mask>
<g mask="url(#mask0)">
<path d="M218.733 338C184.474 338 150.109 329.605 116.375 307.675C83.062 285.954 52.1656 255.313 29.6764 222.994C7.08203 190.78 -7 157.202 -7 129.919C-7 88.9958 24.0015 56.152 65.9324 32.962C107.758 9.87687 159.988 -3.23966 201.288 -4.81365C313.209 -9.01094 392.236 58.2506 396.65 140.727C401.274 226.142 359.028 268.85 331.284 296.867C330.444 297.706 329.603 298.545 328.762 299.49C314.365 314.075 294.082 323.729 273.8 329.71C253.413 335.692 233.13 338 218.733 338Z" fill="#E1E7EB"/>
<path d="M302.9 278.478C302 268.378 297.3 259.078 289.9 252.178C282.4 245.378 272.7 241.578 262.5 241.578C226.9 241.578 209.4 241.578 169.5 241.578C159.4 241.578 149.6 245.378 142.1 252.178C134.6 258.978 130 268.378 129.1 278.478L125.2 306.478C152.8 322.478 184.7 332.278 216.6 332.278C248.5 332.278 280.4 327.278 308 311.278L302.9 278.478Z" fill="#384349"/>
<path d="M312 132.378C306.4 121.878 301.4 111.078 298.1 99.6776C290.4 73.2776 270 54.3776 246 54.3776C242.4 54.3776 238.7 54.7776 235.2 55.6776C224 51.0776 211.9 48.9776 199.9 49.5776C187.8 50.0776 176 53.1776 165.2 58.6776C154.4 64.1776 145 71.8776 137.4 81.3776C129.9 90.8776 124.5 101.778 121.6 113.578C119.7 121.678 117 129.478 113.8 137.178C109.6 146.978 107.9 157.678 108.8 168.278C109.7 178.878 113.3 189.078 119.1 197.978C125 206.878 132.9 214.178 142.3 219.278C151.7 224.378 162.2 226.978 172.9 226.978C176 226.978 179.2 226.778 182.3 226.278C190.8 224.578 196.3 222.578 199.5 220.378C160.8 214.978 131.7 189.978 131.7 149.078C131.7 148.978 131.7 148.878 131.7 148.678C131.7 148.478 131.7 148.478 131.7 148.378C131.7 147.778 131.7 147.078 131.8 146.478C131.9 145.878 131.8 145.078 131.9 144.378C132 143.678 132 143.178 132 142.678C132.1 141.778 132.1 140.978 132.2 140.078C132.2 139.878 132.3 139.678 132.3 139.478C134.3 122.178 141.6 105.878 153.2 92.9776C164.8 79.9776 180.2 70.9776 197.2 67.0776L197.6 66.9776C198.7 66.7776 199.7 66.5776 200.8 66.3776L201.9 66.1776C202.8 66.0776 203.7 65.8776 204.6 65.7776L206.3 65.5776C207.1 65.4776 207.8 65.3776 208.6 65.3776C209.4 65.2776 210 65.2776 210.7 65.1776C211.4 65.1776 212.1 65.0776 212.8 65.0776C213.2 65.0776 213.6 65.0776 214 64.9776C214.4 64.9776 214.7 64.9776 215 64.9776C215.3 64.9776 215.7 64.9776 216 64.9776C216.3 64.9776 216.8 64.9776 217.2 64.9776C217.9 64.9776 218.6 64.9776 219.3 64.9776C220 64.9776 220.8 65.0776 221.5 65.0776C222.2 65.0776 222.9 65.1776 223.6 65.2776C224.3 65.3776 225.1 65.3776 225.8 65.4776C226.5 65.5776 227.2 65.6776 227.9 65.7776C228.6 65.8776 229.3 65.9776 230 66.0776L232 66.4776L234.1 66.8776C234.8 66.9776 235.4 67.1776 236.1 67.3776C236.8 67.5776 237.5 67.7776 238.2 67.8776C238.9 68.0776 239.5 68.2776 240.2 68.4776C240.9 68.6776 241.6 68.8776 242.2 69.0776C242.9 69.2776 243.5 69.4776 244.1 69.7776C244.7 69.9776 245.4 70.2776 246.1 70.4776C246.8 70.7776 247.4 70.9776 248 71.1776C248.6 71.4776 249.3 71.7776 249.9 71.9776C250.5 72.2776 251.1 72.4776 251.7 72.7776C252.3 73.0776 253 73.3776 253.6 73.6776C254.2 73.9776 254.8 74.2776 255.4 74.5776C256 74.8776 256.6 75.2776 257.2 75.5776C257.8 75.8776 258.4 76.2776 258.9 76.5776C259.5 76.8776 260.1 77.2776 260.7 77.6776C261.3 78.0776 261.8 78.3776 262.4 78.7776C263 79.1776 263.6 79.5776 264.1 79.9776C264.7 80.3776 265.2 80.7776 265.7 81.1776C266.2 81.5776 266.8 81.9776 267.4 82.4776C268 82.8776 268.4 83.2776 269 83.6776C269.5 84.0776 270.1 84.5776 270.6 85.0776C271.1 85.5776 271.6 85.9776 272.1 86.3776C272.6 86.7776 273.1 87.2776 273.6 87.7776C274.1 88.2776 274.6 88.6776 275 89.1776C275.5 89.6776 276 90.1776 276.5 90.6776C277 91.1776 277.4 91.5776 277.9 92.0776C278.3 92.5776 278.8 93.0776 279.3 93.6776C279.8 94.1776 280.2 94.6776 280.6 95.1776C281 95.6776 281.5 96.2776 281.9 96.7776C282.3 97.3776 282.7 97.7776 283.1 98.3776C283.5 98.9776 283.9 99.4776 284.3 100.078C284.7 100.678 285.1 101.078 285.4 101.678C285.7 102.178 286.2 102.878 286.6 103.478C287 104.078 287.3 104.578 287.7 105.078C288 105.678 288.4 106.278 288.8 106.878C289.2 107.478 289.5 107.978 289.8 108.578C290.1 109.178 290.5 109.878 290.8 110.478C291.1 111.078 291.4 111.578 291.7 112.178C292 112.778 292.3 113.478 292.6 114.178C292.9 114.878 293.1 115.378 293.4 115.978C293.6 116.578 293.9 117.378 294.2 117.978C294.4 118.678 294.7 119.178 294.9 119.778C295.1 120.378 295.4 121.178 295.6 121.878C295.8 122.578 296 123.078 296.2 123.678C296.4 124.278 296.6 125.178 296.8 125.878C297 126.578 297.2 127.078 297.3 127.678C297.5 128.478 297.7 129.178 297.8 129.978C297.9 130.578 298.1 131.178 298.2 131.778C298.4 132.578 298.5 133.378 298.6 134.178C298.7 134.778 298.8 135.378 298.9 135.978C299 136.778 299.1 137.678 299.2 138.478C299.3 139.078 299.4 139.578 299.4 140.178C299.5 141.078 299.6 142.078 299.6 143.078C299.6 143.578 299.7 144.078 299.7 144.578C299.8 145.978 299.8 147.478 299.8 148.978C299.8 189.578 271 214.478 232.7 220.178C238.9 225.578 250.9 226.878 254.7 226.878C265.8 226.878 276.7 223.978 286.4 218.578C296.1 213.078 304.2 205.278 309.9 195.678C315.6 186.178 318.8 175.278 319.1 164.178C319.8 153.078 317.2 142.178 312 132.378Z" fill="#07C39F"/>
<path d="M300.3 148.978C300.3 195.478 262.6 221.378 216.1 221.378C169.6 221.378 131.9 195.478 131.9 148.978C132.1 126.778 141.1 105.578 156.9 89.9776C172.7 74.3776 194 65.5776 216.2 65.5776C238.4 65.5776 259.7 74.3776 275.5 89.9776C291.1 105.578 300 126.778 300.3 148.978Z" fill="white" stroke="#384349" stroke-width="3" stroke-miterlimit="10"/>
<path d="M216 221.378C210.9 221.378 205.7 221.078 200.6 220.378V241.478C200.6 245.578 202.2 249.478 205.1 252.378C208 255.278 211.9 256.878 216 256.878C220.1 256.878 224 255.278 226.9 252.378C229.8 249.478 231.4 245.578 231.4 241.478V220.378C226.3 221.078 221.2 221.378 216 221.378Z" fill="white" stroke="#384349" stroke-width="3" stroke-miterlimit="10"/>
<path d="M221.5 60.6776C223.5 83.2776 232.6 104.678 247.5 121.778C262.4 138.978 282.2 150.978 304.3 156.278C304.5 153.878 304.6 151.478 304.6 148.978C304.6 126.478 296 104.778 280.6 88.3776C265.1 71.9776 244 62.0776 221.5 60.6776Z" fill="#07C39F"/>
<path d="M256.3 70.1776C244.7 64.5776 230.9 60.6776 217.1 60.6776C168.2 60.6776 128.6 100.978 128.6 149.778C128.6 151.978 128.7 154.278 128.9 156.478C135.6 157.778 142.4 158.378 149.2 158.378C202.2 158.378 247 120.478 256.3 70.1776Z" fill="#07C39F"/>
<path d="M214.1 170.378C215.5 170.378 216.9 170.978 217.9 171.978C218.9 172.978 219.5 174.378 219.5 175.778C219.5 177.178 218.9 178.578 217.9 179.578C216.9 180.578 215.5 181.178 214.1 181.178" stroke="#384349" stroke-width="3" stroke-miterlimit="10"/>
<path d="M225.4 189.478C222.7 197.178 209.5 197.178 206.3 189.478" stroke="#384349" stroke-width="3" stroke-miterlimit="10"/>
<path d="M149.9 147.778C197.3 147.778 237.3 113.878 245.6 68.8776" stroke="#384349" stroke-width="3" stroke-miterlimit="10"/>
<path d="M149.9 140.278C192.8 140.278 228.9 109.578 236.5 68.9775" stroke="#384349" stroke-width="3" stroke-miterlimit="10"/>
<path d="M236.5 97.0776C243.2 110.678 252.8 122.578 264.7 131.978C276.5 141.378 290.3 148.078 305 151.578" stroke="#384349" stroke-width="3" stroke-miterlimit="10"/>
<path d="M205.4 270.578C204.3 270.578 203.3 270.878 202.4 271.378C201.5 271.878 200.7 272.678 200.2 273.578C199.7 274.478 199.4 275.478 199.4 276.578C199.4 277.578 199.6 278.678 200.2 279.578C200.7 280.478 201.5 281.278 202.4 281.778C203.3 282.278 204.4 282.578 205.4 282.678C206.5 282.678 207.5 282.478 208.5 281.978C209.4 281.478 210.2 280.778 210.8 279.878L209 278.778C208.6 279.478 207.9 279.978 207.2 280.278C206.4 280.578 205.6 280.678 204.8 280.478C204 280.278 203.3 279.878 202.7 279.278C202.1 278.678 201.8 277.978 201.7 277.178C201.6 276.378 201.8 275.578 202.1 274.878C202.5 274.178 203.1 273.578 203.8 273.278C204.5 272.878 205.4 272.778 206.2 272.878C207 272.978 207.8 273.378 208.4 273.878L206.8 275.478H211.5V270.878L209.9 272.478C208.5 271.178 207 270.578 205.4 270.578Z" fill="#07C39F"/>
<path d="M227.3 282.578C228.3 282.578 229.3 282.378 230.1 281.878C231 281.378 231.7 280.678 232.2 279.878L230.5 278.778C230.2 279.278 229.7 279.778 229.1 280.078C228.5 280.378 227.9 280.578 227.3 280.578C226.6 280.578 226 280.378 225.4 280.078C224.8 279.778 224.3 279.278 224 278.678C223.7 278.078 223.5 277.478 223.5 276.778C223.5 276.078 223.7 275.478 224 274.878C224.3 274.278 224.8 273.778 225.4 273.478C226 273.178 226.6 272.978 227.3 272.878C228 272.878 228.6 272.978 229.2 273.378C229.8 273.678 230.3 274.178 230.6 274.678L232.3 273.578C231.8 272.678 231 271.978 230.1 271.478C229.2 270.978 228.2 270.678 227.1 270.678C226.1 270.678 225 270.978 224.2 271.478C223.3 271.978 222.6 272.778 222.1 273.678C221.6 274.578 221.3 275.578 221.4 276.678C221.4 277.678 221.7 278.778 222.2 279.678C222.7 280.578 223.5 281.278 224.4 281.778C225.3 282.278 226.3 282.578 227.4 282.478V282.578H227.3Z" fill="#07C39F"/>
<path d="M225.3 276.578C225.3 276.978 225.4 277.378 225.6 277.678C225.8 277.978 226.1 278.278 226.5 278.378C226.9 278.578 227.3 278.578 227.7 278.478C228.1 278.378 228.4 278.178 228.7 277.978C229 277.778 229.2 277.378 229.2 276.978C229.3 276.578 229.2 276.178 229.1 275.778C228.9 275.378 228.7 275.078 228.4 274.878C228.1 274.678 227.7 274.578 227.3 274.578C226.8 274.578 226.3 274.778 225.9 275.178C225.5 275.578 225.3 276.078 225.3 276.578Z" fill="#07C39F"/>
<path d="M212.5 273.878C212.5 274.678 212.8 275.378 213.3 275.978C213.8 276.578 214.4 276.978 215.1 277.078L216.9 277.578C219.1 278.178 218.2 280.478 216.2 280.478C215.2 280.478 214.2 280.078 213.4 279.378L212.3 281.078C213.4 282.078 214.8 282.578 216.2 282.578C218.4 282.578 220.3 280.978 220.3 278.978C220.3 276.978 219 275.978 217.3 275.578L215.6 275.078C213.7 274.478 214.5 272.678 216.2 272.678C217.1 272.678 218 272.978 218.7 273.578L219.8 271.878C218.7 270.978 217.5 270.578 216.1 270.578C214.3 270.478 212.5 272.078 212.5 273.878Z" fill="#07C39F"/>
<path d="M195.5 168.478C190.8 159.278 177.3 159.378 172.6 168.478H166.8" stroke="#384349" stroke-width="3" stroke-miterlimit="10"/>
<path d="M168.8 164.178L173.5 166.978" stroke="#384349" stroke-width="3" stroke-miterlimit="10"/>
<path d="M236.6 168.478C241.3 159.278 254.8 159.378 259.5 168.478H265.3" stroke="#384349" stroke-width="3" stroke-miterlimit="10"/>
<path d="M263.2 164.178L258.5 166.978" stroke="#384349" stroke-width="3" stroke-miterlimit="10"/>
<path d="M167.7 154.678C167.4 154.278 167.2 153.878 167.1 153.478C167 152.978 167 152.578 167.1 152.078C167.2 151.578 167.4 151.178 167.6 150.778C167.9 150.378 168.2 150.078 168.6 149.878C173 147.378 181.5 143.878 191.1 146.778C191.3 146.878 191.6 146.978 191.7 147.078C191.9 147.278 192 147.478 192.2 147.678C192.3 147.878 192.4 148.178 192.4 148.378C192.4 148.578 192.4 148.878 192.3 149.078C192.1 149.478 191.8 149.878 191.4 149.978C191 150.178 190.5 150.178 190.1 150.078C178.3 146.578 167.8 154.578 167.7 154.678Z" fill="#384349"/>
<path d="M265.1 154.378C265.4 153.978 265.6 153.578 265.7 153.178C265.8 152.678 265.8 152.278 265.7 151.778C265.6 151.278 265.4 150.878 265.1 150.478C264.8 150.078 264.5 149.778 264.1 149.578C259.7 147.178 251.1 143.778 241.5 146.878C241.3 146.978 241 147.078 240.9 147.278C240.7 147.478 240.6 147.678 240.5 147.878C240.4 148.078 240.3 148.378 240.3 148.578C240.3 148.778 240.3 149.078 240.4 149.278C240.6 149.678 240.9 149.978 241.3 150.178C241.7 150.378 242.2 150.378 242.6 150.278C254.4 146.478 265 154.278 265.1 154.378Z" fill="#384349"/>
<path d="M177.5 192.778C192.1 192.778 203.8 180.978 203.8 166.478C203.8 151.978 192 140.178 177.5 140.178C162.9 140.178 151.2 151.978 151.2 166.478C151.1 180.978 162.9 192.778 177.5 192.778Z" stroke="#F69C1C" stroke-width="3" stroke-miterlimit="10"/>
<path d="M254.6 192.778C269.2 192.778 280.9 180.978 280.9 166.478C280.9 151.978 269.1 140.178 254.6 140.178C240 140.178 228.3 151.978 228.3 166.478C228.2 180.978 240 192.778 254.6 192.778Z" stroke="#F69C1C" stroke-width="3" stroke-miterlimit="10"/>
<path d="M203.8 166.478H227.7" stroke="#F69C1C" stroke-width="3" stroke-miterlimit="10"/>
<path d="M166.2 327.878C166.7 320.378 169.2 314.678 172.2 313.678C186.9 309.178 189.5 301.078 194.3 300.278C209.5 297.778 212.3 309.278 215.2 305.478C216.8 299.278 216.3 294.478 206.3 288.978C201.3 286.278 194.6 285.778 191.5 284.178C185.7 281.278 185.8 275.278 185.2 269.078C184.7 263.378 188.2 259.678 191.6 255.978C193.6 253.778 200.5 254.078 203.4 254.278C206.1 254.478 208.5 262.578 210.5 262.978C212.5 263.378 217.7 264.878 219.7 262.678C221.7 260.478 217.8 256.478 217.8 256.478C207.1 246.778 204.3 243.178 200.3 243.178C197 243.278 193.7 243.678 190.4 244.078C190.4 244.078 174.8 248.578 169.6 251.878C164.3 255.178 134.5 318.378 134.5 318.378" fill="white"/>
<path d="M166.2 327.878C166.7 320.378 169.2 314.678 172.2 313.678C186.9 309.178 189.5 301.078 194.3 300.278C209.5 297.778 212.3 309.278 215.2 305.478C216.8 299.278 216.3 294.478 206.3 288.978C201.3 286.278 194.6 285.778 191.5 284.178C185.7 281.278 185.8 275.278 185.2 269.078C184.7 263.378 188.2 259.678 191.6 255.978C193.6 253.778 200.5 254.078 203.4 254.278C206.1 254.478 208.5 262.578 210.5 262.978C212.5 263.378 217.7 264.878 219.7 262.678C221.7 260.478 217.8 256.478 217.8 256.478C207.1 246.778 204.3 243.178 200.3 243.178C197 243.278 193.7 243.678 190.4 244.078C190.4 244.078 174.8 248.578 169.6 251.878C164.3 255.178 134.5 318.378 134.5 318.378" stroke="#394349" stroke-width="3" stroke-miterlimit="10"/>
<path d="M297.6 318.578C297.6 318.578 267.8 255.278 262.5 252.078C257.2 248.778 241.7 244.278 241.7 244.278C238.4 243.778 235.1 243.478 231.8 243.378C227.9 243.378 225.1 246.978 214.3 256.678C214.3 256.678 210.3 260.678 212.4 262.878C214.5 265.078 219.6 263.578 221.6 263.178C223.6 262.778 226 254.778 228.7 254.478C231.7 254.178 238.5 253.978 240.5 256.178C243.9 259.878 247.4 263.678 246.9 269.278C246.3 275.478 246.4 281.478 240.6 284.378C237.5 285.878 230.8 286.378 225.8 289.178C215.8 294.678 215.3 299.378 216.9 305.678C219.8 309.478 222.6 297.878 237.8 300.478C242.6 301.278 245.2 309.378 259.9 313.878C262.9 314.878 265.3 320.578 265.9 328.078" fill="white"/>
<path d="M297.6 318.578C297.6 318.578 267.8 255.278 262.5 252.078C257.2 248.778 241.7 244.278 241.7 244.278C238.4 243.778 235.1 243.478 231.8 243.378C227.9 243.378 225.1 246.978 214.3 256.678C214.3 256.678 210.3 260.678 212.4 262.878C214.5 265.078 219.6 263.578 221.6 263.178C223.6 262.778 226 254.778 228.7 254.478C231.7 254.178 238.5 253.978 240.5 256.178C243.9 259.878 247.4 263.678 246.9 269.278C246.3 275.478 246.4 281.478 240.6 284.378C237.5 285.878 230.8 286.378 225.8 289.178C215.8 294.678 215.3 299.378 216.9 305.678C219.8 309.478 222.6 297.878 237.8 300.478C242.6 301.278 245.2 309.378 259.9 313.878C262.9 314.878 265.3 320.578 265.9 328.078" stroke="#394349" stroke-width="3" stroke-miterlimit="10"/>
<path d="M174 300.278C180.4 295.278 179.8 280.678 182.1 273.778C184.7 265.978 187.1 260.278 190.2 258.378C191.3 257.678 192.6 257.378 193.9 257.478C195.2 257.578 196.5 258.078 197.5 258.878C199.9 260.878 202.5 262.578 205.3 263.978C207.8 264.978 210.5 265.178 213.1 264.478C215 263.778 215.8 261.578 214.6 260.278L199.9 247.478C199.3 246.878 198.5 246.478 197.7 246.178C196.9 245.978 194.9 245.578 194 245.778C189 246.678 174 252.478 170.8 254.178" fill="white"/>
<path d="M174 300.278C180.4 295.278 179.8 280.678 182.1 273.778C184.7 265.978 187.1 260.278 190.2 258.378C191.3 257.678 192.6 257.378 193.9 257.478C195.2 257.578 196.5 258.078 197.5 258.878C199.9 260.878 202.5 262.578 205.3 263.978C207.8 264.978 210.5 265.178 213.1 264.478C215 263.778 215.8 261.578 214.6 260.278L199.9 247.478C199.3 246.878 198.5 246.478 197.7 246.178C196.9 245.978 194.9 245.578 194 245.778C189 246.678 174 252.478 170.8 254.178C167.2 257.478 159.7 264.278 158.5 265.578" stroke="#394349" stroke-width="3" stroke-miterlimit="10"/>
<path d="M259.8 300.378C253.2 295.478 253.6 280.978 251.2 274.078C248.4 266.278 245.9 260.678 242.8 258.878C241.7 258.178 240.4 257.878 239 257.978C237.7 258.078 236.4 258.578 235.4 259.378C233 261.378 230.4 263.178 227.7 264.678C225.2 265.678 222.5 265.978 219.9 265.278C218 264.678 217.1 262.378 218.3 261.078L232.8 248.078C233.4 247.478 234.2 246.978 235 246.778C235.8 246.478 237.8 246.178 238.7 246.278C243.8 247.078 258.9 252.578 262.1 254.178" fill="white"/>
<path d="M258.8 300.378C252.2 295.478 252.6 280.978 250.2 274.078C247.4 266.278 244.9 260.678 241.8 258.878C240.7 258.178 239.4 257.878 238 257.978C236.7 258.078 235.4 258.578 234.4 259.378C232 261.378 229.4 263.178 226.7 264.678C224.2 265.678 221.5 265.978 218.9 265.278C217 264.678 216.1 262.378 217.3 261.078L231.8 248.078C232.4 247.478 233.2 246.978 234 246.778C234.8 246.478 236.8 246.178 237.7 246.278C242.8 247.078 257.9 252.578 261.1 254.178C264.9 257.478 271.9 263.478 273.7 265.378" stroke="#394349" stroke-width="3" stroke-miterlimit="10"/>
</g>
</svg>
