<svg width="187" height="74" viewBox="0 0 187 74" fill="none" xmlns="http://www.w3.org/2000/svg">
<path d="M109.268 6.35516C109.866 4.50406 111.182 1.28892 112.815 2.45857C114.062 3.35761 112.487 5.37549 110.924 6.58931C112.721 7.08964 113.735 8.40618 113.905 10.8062C114.203 14.9988 110.774 16.7903 110.092 16.9858C109.626 17.1194 109.111 16.9416 108.889 16.9416H108.9C108.679 16.9482 108.164 17.1084 107.697 16.9692C107.019 16.766 103.603 14.9336 103.946 10.7399C104.205 7.56898 105.908 6.34633 108.941 6.34964C109.053 6.34964 109.161 6.35075 109.268 6.35516ZM26.3386 46.1981C26.3386 45.7033 26.1898 45.4227 25.888 45.3543C25.5056 45.2813 25.1168 45.2483 24.7277 45.256H2.18713V44.3636C3.13416 44.3636 3.60877 44.0664 3.60877 43.4733V20.9939C3.60877 20.3997 3.13416 20.1037 2.18713 20.1037V19.1991H10.3331V20.0893C9.44733 20.0893 9.00553 20.3864 9.00553 20.9796V40.7H24.7277C25.14 40.7188 25.5479 40.5962 25.888 40.3521C26.034 40.2454 26.1516 40.1038 26.2302 39.9399C26.3088 39.7761 26.3461 39.5952 26.3386 39.4133H27.1915V46.1992H26.3386V46.1981ZM55.5587 24.5492C55.5676 24.3894 55.5352 24.2301 55.4646 24.0868C55.394 23.9435 55.2878 23.8212 55.1562 23.7319C54.8883 23.5508 54.4236 23.4602 53.7587 23.4602H38.4039V29.6011H47.6861C48.1891 29.6287 48.6911 29.5348 49.1548 29.3294C49.5014 29.1483 49.6753 28.6778 49.6753 27.9168H50.5261V35.6459H49.6753C49.6753 34.8871 49.5014 34.4001 49.1548 34.1836C48.7031 33.9442 48.1954 33.8335 47.6861 33.8633H38.4137V40.6989H54.2377C54.6499 40.7177 55.0578 40.5951 55.3968 40.351C55.6899 40.1367 55.8594 39.7833 55.8485 39.4122H56.6993V46.1981H55.8485C55.8485 45.7033 55.6976 45.4227 55.3979 45.3543C55.0155 45.2814 54.6267 45.2484 54.2377 45.256H32.1684V44.3636C32.3849 44.3658 32.5949 44.2862 32.7611 44.1404C32.851 44.0559 32.921 43.9521 32.9661 43.8367C33.0111 43.7212 33.03 43.5971 33.0214 43.4733V20.9939C33.0305 20.8696 33.0118 20.7448 32.9668 20.6288C32.9217 20.5127 32.8514 20.4084 32.7611 20.3235C32.5973 20.1783 32.3863 20.0989 32.1684 20.1004V19.1991H53.7685C54.4334 19.1991 54.8993 19.092 55.1661 18.8755C55.2965 18.7719 55.4003 18.6381 55.4688 18.4855C55.5373 18.3329 55.5685 18.1659 55.5598 17.9986H56.4106V24.5327L55.5587 24.5492ZM86.4356 27.2221L85.4874 26.9261C85.5498 26.735 85.5815 26.534 85.5815 26.3319C85.5815 25.837 85.2895 25.3908 84.7044 24.9932C84.0138 24.5529 83.2644 24.2145 82.479 23.9881C81.5201 23.6969 80.5381 23.4899 79.5439 23.3696C78.5467 23.242 77.5428 23.1756 76.5377 23.1708C75.3599 23.173 74.1865 23.3476 73.0558 23.691C71.936 24.0222 70.8905 24.5699 69.9774 25.3036C69.049 26.0659 68.3041 27.0312 67.799 28.1266C67.213 29.4497 66.93 30.8892 66.9712 32.338C66.9365 33.7741 67.2193 35.2 67.799 36.5118C68.3002 37.6172 69.0454 38.5919 69.9774 39.3614C70.8906 40.0944 71.9361 40.6413 73.0558 40.9717C74.1876 41.3141 75.3599 41.4897 76.5377 41.4908C78.1678 41.5088 79.7951 41.351 81.392 41.0203C82.6353 40.7614 83.8608 40.422 85.0609 40.0042V35.7442H79.0004C78.6435 35.7164 78.289 35.823 78.0052 36.0435C77.7843 36.239 77.6411 36.6698 77.5788 37.328H76.7258V30.9883H77.5788C77.6411 31.5516 77.7843 31.905 78.0052 32.0553C78.3114 32.2242 78.6548 32.3016 79.0004 32.2784H90.8383V33.1686C90.2062 33.2691 89.8136 33.3839 89.655 33.5143C89.4954 33.6446 89.4177 33.9284 89.4177 34.3581V39.9556C89.3816 40.2096 89.4932 40.4636 89.702 40.6006L90.3647 40.9463V41.7393C89.3368 42.4904 88.2323 43.1232 87.0731 43.6224C85.938 44.1106 84.7657 44.4994 83.5704 44.7855C82.4035 45.0635 81.2145 45.2372 80.0174 45.3046C78.8342 45.3708 77.6739 45.404 76.5377 45.4062C74.4923 45.4308 72.4553 45.138 70.4979 44.5381C68.7822 44.0151 67.1936 43.1359 65.8338 41.9569C64.5354 40.8162 63.5073 39.3954 62.8254 37.7996C62.089 36.0373 61.7255 34.139 61.7581 32.2264C61.7263 30.314 62.0898 28.4158 62.8254 26.6533C63.5099 25.0519 64.5365 23.6232 65.8317 22.4695C67.1919 21.2754 68.7784 20.3732 70.4946 19.8176C72.4465 19.187 74.4863 18.8782 76.5355 18.9031C77.8696 18.8976 79.2027 18.997 80.5226 19.1991C82.4891 19.4952 84.4288 19.9506 86.3229 20.561C86.7144 20.7123 87.119 20.8194 87.5313 20.8813C87.7675 20.8967 88.0015 20.826 88.194 20.6824C88.3449 20.5565 88.5024 20.4406 88.6686 20.3379L89.2351 20.6836L86.4356 27.2221ZM94.8648 44.3636C95.2617 44.3072 95.615 44.072 95.8326 43.7207C96.0896 43.3253 96.3192 42.9112 96.5204 42.4826L105.282 23.2128C105.501 22.7821 105.698 22.3856 105.873 22.0222C106.028 21.7339 106.116 21.4114 106.134 21.0812C106.147 20.9458 106.123 20.8093 106.065 20.6868C106.007 20.5642 105.916 20.4603 105.803 20.3864C105.58 20.2555 105.341 20.1556 105.092 20.0893V19.1991H113.096V20.0893C112.868 20.16 112.647 20.2506 112.434 20.3622C112.317 20.4373 112.223 20.5448 112.164 20.672C112.105 20.7992 112.083 20.9408 112.102 21.0801C112.102 21.354 112.16 21.6246 112.268 21.8731C112.377 22.1448 112.543 22.485 112.764 22.9124L122.615 43.0757C122.744 43.4016 122.968 43.6777 123.255 43.8621C123.555 44.0433 123.862 44.2078 124.177 44.3547V45.2482H115.849V44.3547C116.015 44.3437 116.177 44.2929 116.323 44.2078C116.408 44.1701 116.481 44.1075 116.531 44.0281C116.582 43.9487 116.608 43.8559 116.606 43.7616C116.572 43.3099 116.443 42.8708 116.227 42.4738L114.428 38.8069H102.873L101.166 42.3236C100.849 43.0183 100.692 43.5142 100.695 43.8091C100.695 44.1736 100.993 44.3536 101.591 44.3536V45.2471H94.8648V44.3624V44.3636ZM112.718 35.15L108.738 25.9353L104.288 35.15H112.718ZM153.672 41.6841C153.586 41.6852 153.499 41.6775 153.413 41.6598C153.328 41.6427 153.24 41.6346 153.153 41.6355C152.962 41.6355 152.512 41.8343 151.802 42.2286C151.092 42.6251 150.193 43.0702 149.104 43.565C147.901 44.1007 146.657 44.5325 145.388 44.8561C143.964 45.2229 142.5 45.4059 141.031 45.4007C139.095 45.4079 137.167 45.1402 135.305 44.6054C133.545 44.1154 131.896 43.2833 130.452 42.1557C129.044 41.0493 127.901 39.6367 127.108 38.0227C126.285 36.3727 125.874 34.4409 125.876 32.2264C125.837 30.2273 126.259 28.247 127.108 26.4544C127.899 24.8267 129.039 23.3975 130.446 22.2707C131.891 21.125 133.538 20.2673 135.299 19.7436C137.156 19.1781 139.086 18.8938 141.025 18.8998C142.495 18.8873 143.962 19.0205 145.405 19.2974C146.713 19.5603 147.859 19.8408 148.841 20.139C149.63 20.3677 150.405 20.6493 151.159 20.9829C151.487 21.1618 151.837 21.2943 152.201 21.3772C152.285 21.376 152.367 21.3525 152.439 21.3091C152.511 21.2656 152.571 21.2038 152.612 21.1298C152.721 20.9663 152.809 20.8327 152.872 20.7355L153.583 21.3286L149.887 27.3181L149.413 26.9835C149.412 26.8837 149.404 26.7841 149.39 26.6853C149.368 26.5699 149.344 26.455 149.317 26.3407C149.254 25.9784 148.939 25.6051 148.37 25.2274C147.711 24.8023 147.003 24.4603 146.261 24.209C145.395 23.9038 144.51 23.6555 143.612 23.4657C142.763 23.2794 141.899 23.181 141.031 23.1719C139.737 23.1668 138.45 23.368 137.218 23.7684C136.058 24.1316 134.981 24.7207 134.046 25.5024C133.139 26.2709 132.403 27.2248 131.887 28.3011C131.335 29.4847 131.06 30.7811 131.084 32.0895C131.06 33.3986 131.335 34.6957 131.887 35.8801C132.403 36.9563 133.138 37.9101 134.045 38.6788C134.982 39.4586 136.059 40.0475 137.218 40.4128C138.453 40.8104 139.738 41.0115 141.031 41.007C142.098 41.0004 143.162 40.876 144.202 40.6359C145.237 40.4109 146.25 40.0956 147.231 39.6938C148.051 39.3699 148.824 38.9372 149.53 38.4071C150.146 37.9278 150.454 37.4738 150.454 37.0453C150.46 36.8304 150.393 36.6199 150.264 36.4489L150.928 36.0546L154.051 41.303L153.674 41.6841H153.672ZM166.454 19.1991V20.0893C166.181 20.0875 165.91 20.13 165.65 20.2153C165.526 20.2577 165.419 20.3426 165.35 20.4555C165.281 20.5683 165.252 20.7021 165.27 20.8338C165.27 21.0304 165.499 21.502 165.958 22.2464C166.416 22.9897 166.953 23.8324 167.568 24.7723C168.182 25.7144 168.822 26.6798 169.487 27.6694C170.047 28.4941 170.582 29.3365 171.09 30.1953L176.628 22.2188C176.881 21.8234 177.087 21.5097 177.244 21.28C177.386 21.0955 177.468 20.8702 177.482 20.6339C177.482 20.4052 177.331 20.2561 177.031 20.191C176.76 20.1263 176.482 20.0922 176.203 20.0893V19.1991H184.489V20.0893C184.25 20.088 184.012 20.1128 183.778 20.1633C183.528 20.2288 183.293 20.3474 183.092 20.5113C182.808 20.741 182.554 21.0083 182.335 21.3043C182.068 21.6489 181.744 22.1194 181.364 22.7147L173.315 34.6541V43.4733C173.315 44.0664 173.677 44.3636 174.402 44.3636V45.256H166.925V44.3636C167.179 44.3735 167.428 44.2951 167.636 44.1427C167.733 44.062 167.809 43.9592 167.859 43.8428C167.908 43.7263 167.929 43.5997 167.921 43.4733V34.6552L158.783 21.28C158.519 20.9197 158.169 20.6337 157.765 20.4494C157.408 20.2488 157.012 20.1307 156.604 20.1037V19.1991H166.454ZM105.444 11.1254H105.438C105.621 9.71388 106.106 8.1157 107.653 7.06755C105.91 7.50934 104.912 8.74746 104.725 11.0481C104.586 12.4555 104.97 13.8651 105.803 15.0021C105.61 13.7209 105.241 12.6739 105.444 11.1254ZM108.803 6.23478H108.801C108.733 5.43252 108.479 4.65768 108.06 3.97281L108.82 3.47137C109.194 4.18266 108.92 5.52681 108.89 6.23478H108.803ZM5.78497 69.9245H11.2965V71.537H3.80561V55.4337H11.2965V57.0419H5.78278V62.3345H10.6207V63.9437H5.78388V69.9245H5.78497ZM16.1225 71.537H14.1431V60.0339H15.7944L15.9037 60.7231H16.0131C16.3084 60.4204 16.6638 60.1896 17.0542 60.0449C17.461 59.8848 17.8929 59.8019 18.3293 59.8019C18.8061 59.7964 19.2807 59.8461 19.7476 59.9521C20.1402 60.0405 20.5066 60.2272 20.8139 60.4967C21.1223 60.7838 21.3552 61.1505 21.4886 61.5592C21.6658 62.107 21.7467 62.6846 21.7303 63.2634V71.5447H19.752V63.2545C19.7611 62.914 19.7093 62.5747 19.5989 62.2528C19.5077 62.0042 19.3566 61.7826 19.1593 61.6078C18.9664 61.4503 18.7399 61.3403 18.4977 61.2864C18.2239 61.2214 17.9434 61.1903 17.6622 61.1936C17.3713 61.1958 17.0826 61.2422 16.8038 61.3327C16.5621 61.4012 16.3313 61.5095 16.1225 61.653V71.537ZM30.7325 70.8445C30.4373 71.1471 30.0808 71.378 29.6914 71.5227C29.2835 71.685 28.8494 71.7667 28.4142 71.7656C27.8872 71.7745 27.364 71.676 26.8755 71.4763C26.4063 71.2733 26.0082 70.9328 25.7327 70.4988C25.3832 69.9367 25.1437 69.312 25.0274 68.6588C24.7047 66.756 24.7047 64.8116 25.0274 62.9088C25.1455 62.2528 25.385 61.6276 25.7327 61.0688C26.0127 60.6314 26.4107 60.2912 26.8755 60.0913C27.364 59.8919 27.8873 59.7939 28.4142 59.803C28.8111 59.7975 29.207 59.8516 29.5897 59.9632C29.9397 60.0736 30.2831 60.2117 30.6122 60.3774V55.4326H32.5938V71.5359H30.9425L30.8331 70.8445H30.7325ZM30.6199 61.6431C30.4117 61.4986 30.1811 61.3904 29.9375 61.3228C29.6608 61.2322 29.3721 61.1849 29.0812 61.1825C28.751 61.1781 28.4251 61.2488 28.1233 61.3902C27.8167 61.5491 27.5648 61.7978 27.4004 62.1037C27.1689 62.542 27.0121 63.0166 26.9367 63.5075C26.8152 64.2561 26.7603 65.0142 26.7727 65.7727C26.7618 66.5359 26.8165 67.2991 26.9367 68.0513C27.0111 68.5483 27.1686 69.0254 27.4004 69.465C27.5634 69.7765 27.816 70.0261 28.1233 70.1785C28.4262 70.3111 28.7521 70.3784 29.0812 70.374C29.3721 70.3718 29.6608 70.3254 29.9375 70.2348C30.1815 70.1685 30.4123 70.0601 30.6199 69.9145V61.642V61.6431ZM43.8269 65.7849C43.8455 66.7347 43.758 67.6846 43.5666 68.6157C43.4355 69.2805 43.1696 69.9107 42.7858 70.4668C42.461 70.9196 42.0181 71.2675 41.5107 71.4652C40.3794 71.8654 39.147 71.8654 38.0157 71.4652C37.5042 71.2635 37.0614 70.9168 36.7406 70.4668C36.3568 69.9107 36.0909 69.2805 35.9598 68.6157C35.6058 66.7458 35.6058 64.8251 35.9598 62.9552C36.091 62.287 36.3567 61.6564 36.7406 61.1041C37.0612 60.6532 37.504 60.3053 38.0157 60.1024C39.147 59.7021 40.3794 59.7021 41.5107 60.1024C42.0181 60.3012 42.4621 60.6491 42.7858 61.1041C43.1686 61.6564 43.4354 62.287 43.5666 62.9552C43.758 63.8841 43.8455 64.8328 43.8269 65.7838V65.7849ZM41.8475 65.7849C41.8602 65.0175 41.8016 64.2506 41.6726 63.4942C41.588 62.9915 41.4318 62.5038 41.2089 62.0462C41.062 61.7371 40.8344 61.4744 40.5506 61.2864C40.0585 60.9959 39.457 60.9959 38.9649 61.2864C38.6805 61.4734 38.453 61.7365 38.3077 62.0462C38.0847 62.5038 37.9286 62.9915 37.844 63.4942C37.6115 65.0116 37.6115 66.556 37.844 68.0734C37.9282 68.5781 38.0846 69.0663 38.3077 69.5224C38.4531 69.835 38.6817 70.099 38.966 70.2812C39.4581 70.5717 40.0596 70.5717 40.5506 70.2812C40.8338 70.0979 41.0624 69.835 41.2089 69.5224C41.432 69.0663 41.5884 68.5781 41.6726 68.0734C41.8038 67.3179 41.8661 66.5514 41.8574 65.7838H41.8464L41.8475 65.7849ZM52.1555 65.3243L50.2199 71.537H47.8086L45.8292 60.0339H47.6992L49.2171 68.7758H49.3264L51.3277 62.3345H53.0872L55.0885 68.7758H55.1978L56.7146 60.0339H58.5835L56.6052 71.537H54.1863L52.2528 65.3243H52.1566H52.1555ZM68.2911 71.537H66.3106V63.2534C66.3198 62.9129 66.2679 62.5736 66.1575 62.2517C66.0704 62.0115 65.9353 61.7919 65.7606 61.6067C65.6043 61.4495 65.4108 61.3354 65.1985 61.2753C64.7223 61.1362 64.2149 61.1525 63.7484 61.3217C63.5248 61.3962 63.3136 61.5042 63.1218 61.642V71.5359H61.1337V60.0339H62.7839L62.8932 60.7231H63.0048C63.2824 60.4166 63.6232 60.1754 64.0032 60.0164C64.3832 59.8574 64.7931 59.7846 65.2039 59.803C65.6741 59.7992 66.1417 59.8727 66.5884 60.0206C67.0149 60.1686 67.39 60.4447 67.6656 60.8159C67.8515 60.6402 68.0592 60.4933 68.2823 60.3774C68.7355 60.1396 69.2202 59.9689 69.7215 59.8704C69.9353 59.8291 70.1523 59.8066 70.37 59.803C70.7811 59.7986 71.1912 59.8483 71.5904 59.9521C71.9545 60.0471 72.2903 60.2349 72.5691 60.4967C72.8666 60.7871 73.0897 61.1505 73.2198 61.5536C73.3882 62.1037 73.4648 62.6802 73.4494 63.2579V71.5392H71.4701V63.2556C71.4793 62.9148 71.4275 62.575 71.317 62.2528C71.2305 62.0128 71.0961 61.7932 70.9222 61.6078C70.7682 61.456 70.5792 61.3455 70.3721 61.2864C70.1618 61.2246 69.9438 61.1933 69.7248 61.1936C69.4004 61.1918 69.0775 61.2387 68.7668 61.3327C68.5199 61.3995 68.2858 61.5078 68.0746 61.653C68.1445 61.8706 68.1959 62.0948 68.2277 62.3213C68.2758 62.6338 68.2976 62.9497 68.2955 63.2656L68.2911 71.537ZM84.1664 66.4752H78.4405C78.4285 67.1048 78.4864 67.7343 78.6155 68.3484C78.7029 68.7858 78.8888 69.1955 79.1535 69.5467C79.405 69.8505 79.7331 70.0725 80.1005 70.1884C80.5609 70.3298 81.0399 70.3961 81.5189 70.385H83.718V71.3051C83.3129 71.4458 82.897 71.5529 82.4747 71.6254C82.0143 71.7159 81.5473 71.7623 81.0793 71.7656C80.3644 71.781 79.6515 71.6833 78.9665 71.4763C78.4024 71.2997 77.9021 70.9598 77.5274 70.4988C77.1164 69.9586 76.8373 69.3282 76.7127 68.6588C76.5244 67.7126 76.4372 66.7487 76.4524 65.7838C76.436 64.8196 76.5169 63.8554 76.6941 62.9088C76.8108 62.2523 77.0578 61.6264 77.4202 61.0688C77.7181 60.6282 78.1397 60.2878 78.6308 60.0913C79.7119 59.7073 80.8905 59.7073 81.9716 60.0913C82.4593 60.2846 82.8793 60.6248 83.1822 61.0688C83.5431 61.6232 83.7902 62.2506 83.9083 62.9088C84.0855 63.8554 84.1664 64.8196 84.15 65.7838L84.1664 66.4752ZM82.1903 65.0979C82.2013 64.4463 82.1499 63.7946 82.0372 63.154C81.9625 62.726 81.8258 62.3114 81.6315 61.9236C81.4969 61.6534 81.2905 61.4263 81.0355 61.2676C80.8189 61.139 80.5722 61.0712 80.3209 61.0712C80.0696 61.0712 79.8229 61.139 79.6062 61.2676C79.3525 61.4271 79.147 61.6541 79.0124 61.9236C78.8167 62.3091 78.68 62.7244 78.6078 63.154C78.4935 63.7953 78.4418 64.4464 78.4536 65.0979H82.1903ZM89.1104 71.537H87.1333V60.0339H88.7823L88.8917 60.7231H89.0011C89.2963 60.4204 89.6528 60.1885 90.0421 60.0449C90.45 59.8848 90.882 59.8019 91.3172 59.8019C91.794 59.7964 92.2697 59.8461 92.7356 59.9521C93.1293 60.0405 93.4945 60.2272 93.8029 60.4967C94.1135 60.7816 94.3475 61.1461 94.4853 61.5536C94.6614 62.1015 94.7434 62.6791 94.7259 63.2579V71.5392H92.7487V63.2556C92.7583 62.9145 92.7053 62.5745 92.5923 62.2528C92.5021 62.0037 92.3508 61.7818 92.1527 61.6078C91.9622 61.4465 91.7366 61.333 91.4944 61.2764C91.2207 61.2111 90.9401 61.1796 90.6589 61.1825C90.368 61.1847 90.0793 61.2322 89.8005 61.3217C89.5569 61.3893 89.3262 61.4975 89.1181 61.642L89.1104 71.537ZM100.561 61.7569V67.8558C100.55 68.2865 100.598 68.7162 100.702 69.1326C100.774 69.4142 100.902 69.676 101.077 69.9035C101.218 70.0714 101.4 70.1984 101.602 70.2702C101.77 70.3364 101.946 70.3718 102.123 70.374H104.101V71.294C103.934 71.3689 103.759 71.4263 103.581 71.4652C103.367 71.5205 103.149 71.5724 102.92 71.6154C102.69 71.6596 102.469 71.6972 102.251 71.7193C102.06 71.7413 101.869 71.7524 101.678 71.7546C101.265 71.7575 100.855 71.7032 100.457 71.5933C100.086 71.4885 99.7482 71.2866 99.4785 71.008C99.1715 70.6709 98.9494 70.264 98.8311 69.8218C98.6598 69.1775 98.5817 68.5116 98.5993 67.8447V61.7469H97.2794V60.2515H98.5993V57.5013H100.561V60.2625H103.641V61.2864C102.789 61.5782 101.898 61.7336 100.999 61.7469L100.561 61.758V61.7569ZM112.882 59.3425C112.882 57.9486 113.219 56.9093 113.894 56.2256C114.569 55.5409 115.625 55.1996 117.062 55.2018C117.694 55.1996 118.327 55.246 118.954 55.341C119.431 55.4036 119.901 55.5109 120.359 55.6613V56.6962H117.496C115.737 56.6962 114.857 57.5786 114.857 59.3425C114.827 59.9411 114.989 60.532 115.318 61.0213C115.638 61.4465 116.034 61.801 116.483 62.0672C116.97 62.361 117.473 62.6239 117.99 62.8514C118.524 63.0889 119.029 63.3893 119.497 63.7471C119.975 64.1204 120.372 64.5965 120.663 65.141C120.999 65.8422 121.158 66.6169 121.124 67.3952C121.137 68.0529 121.049 68.7087 120.863 69.3391C120.702 69.8648 120.409 70.3342 120.016 70.7009C119.574 71.0941 119.051 71.3747 118.488 71.5182C117.733 71.7115 116.957 71.8032 116.179 71.7899C115.545 71.7922 114.914 71.7458 114.288 71.6508C113.809 71.5891 113.338 71.4819 112.879 71.3305V70.2702H115.742C117.002 70.2702 117.885 70.036 118.392 69.5677C118.898 69.0994 119.152 68.3749 119.152 67.3897C119.185 66.8223 119.021 66.2609 118.688 65.8026C118.364 65.4044 117.969 65.072 117.522 64.8229C117.031 64.5443 116.528 64.2871 116.015 64.052C115.479 63.8068 114.974 63.4979 114.511 63.1319C114.024 62.744 113.626 62.2537 113.345 61.695C113.007 60.9593 112.849 60.1527 112.882 59.3425ZM131.429 66.4752H125.704C125.694 67.1048 125.753 67.7343 125.882 68.3484C125.97 68.7858 126.155 69.1955 126.42 69.5467C126.671 69.8505 126.999 70.0725 127.368 70.1884C127.827 70.3298 128.306 70.3961 128.786 70.385H130.984V71.3051C130.58 71.4464 130.164 71.5536 129.743 71.6254C129.283 71.7159 128.815 71.7623 128.345 71.7656C127.631 71.781 126.919 71.6834 126.235 71.4763C125.67 71.2996 125.169 70.9598 124.794 70.4988C124.383 69.9584 124.105 69.328 123.981 68.6588C123.793 67.7126 123.706 66.7487 123.721 65.7838C123.713 64.8229 123.801 63.862 123.983 62.9199C124.1 62.2633 124.348 61.6374 124.71 61.0798C125.008 60.6395 125.429 60.2991 125.92 60.1024C127.002 59.7173 128.183 59.7173 129.265 60.1024C129.751 60.2967 130.171 60.6358 130.472 61.0798C130.833 61.6343 131.08 62.2605 131.199 62.9199C131.376 63.8664 131.457 64.8306 131.44 65.7948L131.429 66.4752ZM129.45 65.0979C129.461 64.4463 129.408 63.7946 129.294 63.154C129.221 62.7253 129.084 62.3104 128.887 61.9236C128.752 61.6542 128.547 61.4273 128.294 61.2676C128.077 61.139 127.831 61.0712 127.579 61.0712C127.328 61.0712 127.081 61.139 126.865 61.2676C126.612 61.4233 126.405 61.6508 126.269 61.9236C126.075 62.3102 125.938 62.7244 125.864 63.154C125.75 63.7946 125.699 64.4463 125.71 65.0979H129.45ZM136.369 71.537H134.394V60.0339H136.065L136.176 60.9539H136.286C136.61 60.6877 136.969 60.4735 137.353 60.3199C137.883 60.1192 138.447 60.0264 139.013 60.0471H140.12V61.7701H137.908C137.634 61.7701 137.361 61.8055 137.095 61.8739C136.834 61.9424 136.587 62.0639 136.369 62.2307V71.537ZM145.096 71.537L142.127 60.0339H143.994L146.48 69.5788H146.569L149.054 60.0339H150.922L147.953 71.537H145.096ZM155.513 55.8932V58.4225H153.537V55.8932H155.514H155.513ZM155.513 71.537H153.537V60.0339H155.514V71.537H155.513ZM163.149 61.1825C162.776 61.1749 162.406 61.2456 162.061 61.3902C161.734 61.5452 161.461 61.7977 161.28 62.1136C161.035 62.5481 160.871 63.0243 160.796 63.5185C160.672 64.2669 160.617 65.0252 160.63 65.7838C160.618 66.547 160.673 67.3102 160.796 68.0623C160.871 68.5649 161.043 69.0453 161.301 69.4761C161.507 69.8041 161.809 70.0537 162.161 70.1884C162.553 70.3276 162.966 70.3939 163.381 70.385H165.579V71.3051C165.17 71.4487 164.749 71.5591 164.323 71.632C163.863 71.7204 163.396 71.7679 162.928 71.7712C162.274 71.7863 161.623 71.6884 161.002 71.4818C160.473 71.2942 160.011 70.9544 159.672 70.5043C159.282 69.9558 159.015 69.3278 158.891 68.6643C158.555 66.7627 158.555 64.8159 158.891 62.9144C159.017 62.2517 159.275 61.6243 159.649 61.0743C159.966 60.6298 160.406 60.2898 160.914 60.0968C161.49 59.8925 162.097 59.7949 162.707 59.8086C163.176 59.8108 163.644 59.8572 164.104 59.9466C164.525 60.0206 164.941 60.1289 165.345 60.268V61.1881L163.149 61.1825ZM175.173 66.4752H169.447C169.435 67.1048 169.493 67.7343 169.622 68.3484C169.71 68.7858 169.896 69.1955 170.16 69.5467C170.412 69.8505 170.74 70.0725 171.107 70.1884C171.568 70.3298 172.047 70.3961 172.526 70.385H174.732V71.3051C174.327 71.4458 173.911 71.5529 173.489 71.6254C173.03 71.7159 172.562 71.7623 172.094 71.7656C171.379 71.781 170.666 71.6833 169.981 71.4763C169.417 71.2997 168.916 70.9598 168.542 70.4988C168.131 69.9586 167.852 69.3282 167.727 68.6588C167.541 67.7133 167.454 66.7491 167.467 65.7838C167.45 64.8229 167.53 63.8631 167.706 62.9199C167.823 62.2634 168.07 61.6375 168.432 61.0798C168.73 60.6393 169.152 60.2989 169.643 60.1024C170.724 59.7183 171.903 59.7183 172.984 60.1024C173.476 60.2901 173.903 60.6259 174.212 61.0688C174.573 61.6232 174.821 62.2506 174.938 62.9088C175.116 63.8554 175.197 64.8196 175.181 65.7838L175.173 66.4752ZM173.193 65.0979C173.204 64.4463 173.151 63.7946 173.04 63.154C172.966 62.7256 172.829 62.3109 172.633 61.9236C172.498 61.6534 172.292 61.4263 172.037 61.2676C171.82 61.1392 171.573 61.0716 171.322 61.0716C171.071 61.0716 170.824 61.1392 170.607 61.2676C170.354 61.4273 170.149 61.6542 170.015 61.9236C169.818 62.3091 169.681 62.7244 169.609 63.154C169.495 63.7954 169.444 64.4464 169.456 65.0979H173.193ZM179.645 62.7951C179.623 63.1971 179.762 63.5903 180.026 63.8841C180.307 64.1713 180.63 64.4076 180.984 64.5865C181.389 64.7964 181.802 64.9841 182.225 65.1498C182.665 65.3221 183.083 65.5496 183.47 65.828C183.853 66.1052 184.176 66.4608 184.425 66.8728C184.702 67.3798 184.836 67.9585 184.81 68.5417C184.824 69.0762 184.735 69.6086 184.549 70.1067C184.392 70.5074 184.12 70.8517 183.769 71.0952C183.352 71.3636 182.884 71.5401 182.395 71.6132C181.739 71.7204 181.077 71.7712 180.415 71.7623C179.946 71.7595 179.479 71.7129 179.019 71.6232C178.596 71.5508 178.18 71.4437 177.775 71.3029V70.3817H179.974C180.972 70.3817 181.698 70.2481 182.152 69.9797C182.605 69.7069 182.835 69.2331 182.835 68.5417C182.853 68.1385 182.714 67.7464 182.45 67.4527C182.171 67.1668 181.847 66.9295 181.492 66.7502C181.087 66.5404 180.673 66.3526 180.251 66.1869C179.81 66.0135 179.392 65.7857 179.006 65.5088C178.622 65.2274 178.297 64.871 178.051 64.4606C177.773 63.952 177.64 63.3755 177.666 62.7951C177.666 61.6442 177.996 60.8567 178.655 60.4337C179.314 60.0118 180.304 59.8008 181.624 59.803C182.093 59.8053 182.561 59.8516 183.022 59.9411C183.443 60.0162 183.858 60.1233 184.263 60.2625V61.1825H182.065C181.446 61.1476 180.828 61.2742 180.271 61.5503C179.849 61.8044 179.605 62.2881 179.644 62.7951H179.645Z" fill="#B0956C"/>
</svg>
