<svg width="124" height="124" viewBox="0 0 124 124" fill="none" xmlns="http://www.w3.org/2000/svg">
<path d="M80 72.3C80 77.4 73.3 81.5 65 81.5C56.7 81.5 50 77.4 50 72.3V76.6C50 81.7 56.7 85.8 65 85.8C73.3 85.8 80 81.7 80 76.6V72.3Z" fill="#D67500" stroke="white" stroke-width="0.1313" stroke-miterlimit="10"/>
<path d="M65 82C73.2843 82 80 77.7467 80 72.5C80 67.2533 73.2843 63 65 63C56.7157 63 50 67.2533 50 72.5C50 77.7467 56.7157 82 65 82Z" fill="#F59D20" stroke="white" stroke-width="0.1309" stroke-miterlimit="10"/>
<path d="M80 69C80 74.1 73.3 78.2 65 78.2C56.7 78.2 50 74.1 50 69V73.3C50 78.4 56.7 82.5 65 82.5C73.3 82.5 80 78.4 80 73.3V69V69Z" fill="#D67500" stroke="white" stroke-width="0.1313" stroke-miterlimit="10"/>
<path d="M65 79C73.2843 79 80 74.7467 80 69.5C80 64.2533 73.2843 60 65 60C56.7157 60 50 64.2533 50 69.5C50 74.7467 56.7157 79 65 79Z" fill="#F59D20" stroke="white" stroke-width="0.1309" stroke-miterlimit="10"/>
<path d="M80 65.7C80 70.8 73.3 74.9 65 74.9C56.7 74.9 50 70.8 50 65.7V70C50 75.1 56.7 79.2 65 79.2C73.3 79.2 80 75.1 80 70V65.7V65.7Z" fill="#D67500" stroke="white" stroke-width="0.1313" stroke-miterlimit="10"/>
<path d="M65 76C73.2843 76 80 71.7467 80 66.5C80 61.2533 73.2843 57 65 57C56.7157 57 50 61.2533 50 66.5C50 71.7467 56.7157 76 65 76Z" fill="#F59D20" stroke="white" stroke-width="0.1309" stroke-miterlimit="10"/>
<path d="M80 62.3999C80 67.4999 73.3 71.5999 65 71.5999C56.7 71.5999 50 67.4999 50 62.3999V66.6999C50 71.7999 56.7 75.8999 65 75.8999C73.3 75.8999 80 71.7999 80 66.6999V62.3999Z" fill="#D67500" stroke="white" stroke-width="0.1313" stroke-miterlimit="10"/>
<path d="M65 72C73.2843 72 80 67.7467 80 62.5C80 57.2533 73.2843 53 65 53C56.7157 53 50 57.2533 50 62.5C50 67.7467 56.7157 72 65 72Z" fill="#F59D20" stroke="white" stroke-width="0.1309" stroke-miterlimit="10"/>
<path d="M80 59.1C80 64.2 73.3 68.3 65 68.3C56.7 68.3 50 64.1 50 59.1V63.4C50 68.5 56.7 72.6 65 72.6C73.3 72.6 80 68.5 80 63.4V59.1Z" fill="#D67500" stroke="white" stroke-width="0.1313" stroke-miterlimit="10"/>
<path d="M65 69C73.2843 69 80 64.7467 80 59.5C80 54.2533 73.2843 50 65 50C56.7157 50 50 54.2533 50 59.5C50 64.7467 56.7157 69 65 69Z" fill="#F59D20" stroke="white" stroke-width="0.1309" stroke-miterlimit="10"/>
<path d="M80 55.8C80 60.9 73.3 65 65 65C56.7 65 50 60.9 50 55.8V60.1C50 65.2 56.7 69.3 65 69.3C73.3 69.3 80 65.2 80 60.1V55.8Z" fill="#D67500" stroke="white" stroke-width="0.1313" stroke-miterlimit="10"/>
<path d="M65 66C73.2843 66 80 61.7467 80 56.5C80 51.2533 73.2843 47 65 47C56.7157 47 50 51.2533 50 56.5C50 61.7467 56.7157 66 65 66Z" fill="#F59D20" stroke="white" stroke-width="0.1309" stroke-miterlimit="10"/>
<path d="M80 52.3999C80 57.4999 73.3 61.5999 65 61.5999C56.7 61.5999 50 57.4999 50 52.3999V56.6999C50 61.7999 56.7 65.8999 65 65.8999C73.3 65.8999 80 61.7999 80 56.6999V52.3999Z" fill="#D67500" stroke="white" stroke-width="0.1313" stroke-miterlimit="10"/>
<path d="M65 62C73.2843 62 80 57.7467 80 52.5C80 47.2533 73.2843 43 65 43C56.7157 43 50 47.2533 50 52.5C50 57.7467 56.7157 62 65 62Z" fill="#F59D20" stroke="white" stroke-width="0.1309" stroke-miterlimit="10"/>
<path d="M80 49.1C80 54.2 73.3 58.3 65 58.3C56.7 58.3 50 54.2 50 49.1V53.4C50 58.5 56.7 62.6 65 62.6C73.3 62.6 80 58.5 80 53.4V49.1Z" fill="#D67500" stroke="white" stroke-width="0.1313" stroke-miterlimit="10"/>
<path d="M65 59C73.2843 59 80 54.7467 80 49.5C80 44.2533 73.2843 40 65 40C56.7157 40 50 44.2533 50 49.5C50 54.7467 56.7157 59 65 59Z" fill="#F59D20" stroke="white" stroke-width="0.1309" stroke-miterlimit="10"/>
<path d="M80 45.8C80 50.9 73.3 55 65 55C56.7 55 50 50.9 50 45.8V50.1C50 55.2 56.7 59.3 65 59.3C73.3 59.3 80 55.2 80 50.1V45.8Z" fill="#D67500" stroke="white" stroke-width="0.1313" stroke-miterlimit="10"/>
<path d="M65 56C73.2843 56 80 51.7467 80 46.5C80 41.2533 73.2843 37 65 37C56.7157 37 50 41.2533 50 46.5C50 51.7467 56.7157 56 65 56Z" fill="#F59D20" stroke="white" stroke-width="0.1309" stroke-miterlimit="10"/>
<path d="M80 42.5C80 47.6 73.3 51.7 65 51.7C56.7 51.7 50 47.6 50 42.5V46.8C50 51.9 56.7 56 65 56C73.3 56 80 51.9 80 46.8V42.5V42.5Z" fill="#D67500" stroke="white" stroke-width="0.1313" stroke-miterlimit="10"/>
<path d="M65 52C73.2843 52 80 47.7467 80 42.5C80 37.2533 73.2843 33 65 33C56.7157 33 50 37.2533 50 42.5C50 47.7467 56.7157 52 65 52Z" fill="#F59D20" stroke="white" stroke-width="0.1309" stroke-miterlimit="10"/>
<path d="M80 39.2C80 44.3 73.3 48.4 65 48.4C56.7 48.4 50 44.3 50 39.2V43.5C50 48.6 56.7 52.6999 65 52.6999C73.3 52.6999 80 48.6 80 43.5V39.2V39.2Z" fill="#D67500" stroke="white" stroke-width="0.1313" stroke-miterlimit="10"/>
<path d="M65 49C73.2843 49 80 44.7467 80 39.5C80 34.2533 73.2843 30 65 30C56.7157 30 50 34.2533 50 39.5C50 44.7467 56.7157 49 65 49Z" fill="#F59D20" stroke="white" stroke-width="0.1309" stroke-miterlimit="10"/>
<path d="M80 35.9C80 41 73.3 45.1 65 45.1C56.7 45.1 50 41 50 35.9V40.2C50 45.3 56.7 49.4 65 49.4C73.3 49.4 80 45.3 80 40.2V35.9V35.9Z" fill="#D67500" stroke="white" stroke-width="0.1313" stroke-miterlimit="10"/>
<path d="M65 46C73.2843 46 80 41.7467 80 36.5C80 31.2533 73.2843 27 65 27C56.7157 27 50 31.2533 50 36.5C50 41.7467 56.7157 46 65 46Z" fill="#F59D20" stroke="white" stroke-width="0.1309" stroke-miterlimit="10"/>
<path d="M80 32.6C80 37.7 73.3 41.8 65 41.8C56.7 41.8 50 37.7 50 32.6V36.9C50 42 56.7 46.1 65 46.1C73.3 46.1 80 42 80 36.9V32.6Z" fill="#D67500" stroke="white" stroke-width="0.1313" stroke-miterlimit="10"/>
<path d="M65 43C73.2843 43 80 38.7467 80 33.5C80 28.2533 73.2843 24 65 24C56.7157 24 50 28.2533 50 33.5C50 38.7467 56.7157 43 65 43Z" fill="#F59D20" stroke="white" stroke-width="0.1309" stroke-miterlimit="10"/>
<path d="M80 29.6C80 34.7 73.3 38.8 65 38.8C56.7 38.8 50 34.7 50 29.6V33.9C50 39 56.7 43.1 65 43.1C73.3 43.1 80 39 80 33.9V29.6Z" fill="#D67500" stroke="white" stroke-width="0.1313" stroke-miterlimit="10"/>
<path d="M65 40C73.2843 40 80 35.7467 80 30.5C80 25.2533 73.2843 21 65 21C56.7157 21 50 25.2533 50 30.5C50 35.7467 56.7157 40 65 40Z" fill="#FFB743" stroke="white" stroke-width="0.1309" stroke-miterlimit="10"/>
<path d="M65 39C72.732 39 79 35.0601 79 30.2C79 25.3399 72.732 21.4 65 21.4C57.268 21.4 51 25.3399 51 30.2C51 35.0601 57.268 39 65 39Z" fill="#F59D20" stroke="white" stroke-width="0.134" stroke-miterlimit="10"/>
<path d="M107 84C107 89.1 100.3 93.2 92 93.2C83.7 93.2 77 89.1 77 84V88.3C77 93.4 83.7 97.5 92 97.5C100.3 97.5 107 93.4 107 88.3V84Z" fill="#D67500" stroke="white" stroke-width="0.1313" stroke-miterlimit="10"/>
<path d="M92 94C100.284 94 107 89.7467 107 84.5C107 79.2533 100.284 75 92 75C83.7157 75 77 79.2533 77 84.5C77 89.7467 83.7157 94 92 94Z" fill="#F59D20" stroke="white" stroke-width="0.1309" stroke-miterlimit="10"/>
<path d="M107 80.7C107 85.8 100.3 89.9 92 89.9C83.7 89.9 77 85.8 77 80.7V85C77 90.1 83.7 94.2 92 94.2C100.3 94.2 107 90.1 107 85V80.7Z" fill="#D67500" stroke="white" stroke-width="0.1313" stroke-miterlimit="10"/>
<path d="M92 91C100.284 91 107 86.7467 107 81.5C107 76.2533 100.284 72 92 72C83.7157 72 77 76.2533 77 81.5C77 86.7467 83.7157 91 92 91Z" fill="#F59D20" stroke="white" stroke-width="0.1309" stroke-miterlimit="10"/>
<path d="M107 77.4C107 82.5 100.3 86.6 92 86.6C83.7 86.6 77 82.5 77 77.4V81.7C77 86.8 83.7 90.9 92 90.9C100.3 90.9 107 86.8 107 81.7V77.4Z" fill="#D67500" stroke="white" stroke-width="0.1313" stroke-miterlimit="10"/>
<path d="M92 87C100.284 87 107 82.7467 107 77.5C107 72.2533 100.284 68 92 68C83.7157 68 77 72.2533 77 77.5C77 82.7467 83.7157 87 92 87Z" fill="#F59D20" stroke="white" stroke-width="0.1309" stroke-miterlimit="10"/>
<path d="M107 74.1C107 79.2 100.3 83.3 92 83.3C83.7 83.3 77 79.1 77 74.1V78.4C77 83.5 83.7 87.6 92 87.6C100.3 87.6 107 83.5 107 78.4V74.1Z" fill="#D67500" stroke="white" stroke-width="0.1313" stroke-miterlimit="10"/>
<path d="M92 84C100.284 84 107 79.7467 107 74.5C107 69.2533 100.284 65 92 65C83.7157 65 77 69.2533 77 74.5C77 79.7467 83.7157 84 92 84Z" fill="#F59D20" stroke="white" stroke-width="0.1309" stroke-miterlimit="10"/>
<path d="M107 70.8C107 75.9 100.3 80 92 80C83.7 80 77 75.9 77 70.8V75.1C77 80.2 83.7 84.3 92 84.3C100.3 84.3 107 80.2 107 75.1V70.8Z" fill="#D67500" stroke="white" stroke-width="0.1313" stroke-miterlimit="10"/>
<path d="M92 81C100.284 81 107 76.7467 107 71.5C107 66.2533 100.284 62 92 62C83.7157 62 77 66.2533 77 71.5C77 76.7467 83.7157 81 92 81Z" fill="#F59D20" stroke="white" stroke-width="0.1309" stroke-miterlimit="10"/>
<path d="M107 67.5C107 72.6 100.3 76.7 92 76.7C83.7 76.7 77 72.6 77 67.5V71.8C77 76.9 83.7 81 92 81C100.3 81 107 76.9 107 71.8V67.5V67.5Z" fill="#D67500" stroke="white" stroke-width="0.1313" stroke-miterlimit="10"/>
<path d="M92 77C100.284 77 107 72.7467 107 67.5C107 62.2533 100.284 58 92 58C83.7157 58 77 62.2533 77 67.5C77 72.7467 83.7157 77 92 77Z" fill="#F59D20" stroke="white" stroke-width="0.1309" stroke-miterlimit="10"/>
<path d="M107 64.2C107 69.3 100.3 73.4 92 73.4C83.7 73.4 77 69.3 77 64.2V68.5C77 73.6 83.7 77.7 92 77.7C100.3 77.7 107 73.6 107 68.5V64.2V64.2Z" fill="#D67500" stroke="white" stroke-width="0.1313" stroke-miterlimit="10"/>
<path d="M92 74C100.284 74 107 69.7467 107 64.5C107 59.2533 100.284 55 92 55C83.7157 55 77 59.2533 77 64.5C77 69.7467 83.7157 74 92 74Z" fill="#F59D20" stroke="white" stroke-width="0.1309" stroke-miterlimit="10"/>
<path d="M107 60.8C107 65.9 100.3 70 92 70C83.7 70 77 65.9 77 60.8V65.1C77 70.2 83.7 74.3 92 74.3C100.3 74.3 107 70.2 107 65.1V60.8Z" fill="#D67500" stroke="white" stroke-width="0.1313" stroke-miterlimit="10"/>
<path d="M92 71C100.284 71 107 66.7467 107 61.5C107 56.2533 100.284 52 92 52C83.7157 52 77 56.2533 77 61.5C77 66.7467 83.7157 71 92 71Z" fill="#F59D20" stroke="white" stroke-width="0.1309" stroke-miterlimit="10"/>
<path d="M107 57.5C107 62.6 100.3 66.7 92 66.7C83.7 66.7 77 62.6 77 57.5V61.8C77 66.9 83.7 71 92 71C100.3 71 107 66.9 107 61.8V57.5V57.5Z" fill="#D67500" stroke="white" stroke-width="0.1313" stroke-miterlimit="10"/>
<path d="M92 67C100.284 67 107 62.7467 107 57.5C107 52.2533 100.284 48 92 48C83.7157 48 77 52.2533 77 57.5C77 62.7467 83.7157 67 92 67Z" fill="#F59D20" stroke="white" stroke-width="0.1309" stroke-miterlimit="10"/>
<path d="M107 54.2C107 59.3 100.3 63.4 92 63.4C83.7 63.4 77 59.3 77 54.2V58.5C77 63.6 83.7 67.7 92 67.7C100.3 67.7 107 63.6 107 58.5V54.2V54.2Z" fill="#D67500" stroke="white" stroke-width="0.1313" stroke-miterlimit="10"/>
<path d="M92 64C100.284 64 107 59.7467 107 54.5C107 49.2533 100.284 45 92 45C83.7157 45 77 49.2533 77 54.5C77 59.7467 83.7157 64 92 64Z" fill="#F59D20" stroke="white" stroke-width="0.1309" stroke-miterlimit="10"/>
<path d="M107 50.9C107 56 100.3 60.1 92 60.1C83.7 60.1 77 56 77 50.9V55.2C77 60.3 83.7 64.4 92 64.4C100.3 64.4 107 60.3 107 55.2V50.9Z" fill="#D67500" stroke="white" stroke-width="0.1313" stroke-miterlimit="10"/>
<path d="M92 61C100.284 61 107 56.7467 107 51.5C107 46.2533 100.284 42 92 42C83.7157 42 77 46.2533 77 51.5C77 56.7467 83.7157 61 92 61Z" fill="#F59D20" stroke="white" stroke-width="0.1309" stroke-miterlimit="10"/>
<path d="M107 47.6C107 52.7 100.3 56.8 92 56.8C83.7 56.8 77 52.7 77 47.6V51.9C77 57 83.7 61.1 92 61.1C100.3 61.1 107 57 107 51.9V47.6Z" fill="#D67500" stroke="white" stroke-width="0.1313" stroke-miterlimit="10"/>
<path d="M92 58C100.284 58 107 53.7467 107 48.5C107 43.2533 100.284 39 92 39C83.7157 39 77 43.2533 77 48.5C77 53.7467 83.7157 58 92 58Z" fill="#F59D20" stroke="white" stroke-width="0.1309" stroke-miterlimit="10"/>
<path d="M107 44.3C107 49.4 100.3 53.5 92 53.5C83.7 53.5 77 49.4 77 44.3V48.6C77 53.7 83.7 57.8 92 57.8C100.3 57.8 107 53.7 107 48.6V44.3Z" fill="#D67500" stroke="white" stroke-width="0.1313" stroke-miterlimit="10"/>
<path d="M92 54C100.284 54 107 49.7467 107 44.5C107 39.2533 100.284 35 92 35C83.7157 35 77 39.2533 77 44.5C77 49.7467 83.7157 54 92 54Z" fill="#F59D20" stroke="white" stroke-width="0.1309" stroke-miterlimit="10"/>
<path d="M107 41.3C107 46.4 100.3 50.5 92 50.5C83.7 50.5 77 46.4 77 41.3V45.6C77 50.7 83.7 54.8 92 54.8C100.3 54.8 107 50.7 107 45.6V41.3Z" fill="#D67500" stroke="white" stroke-width="0.1313" stroke-miterlimit="10"/>
<path d="M92 51C100.284 51 107 46.7467 107 41.5C107 36.2533 100.284 32 92 32C83.7157 32 77 36.2533 77 41.5C77 46.7467 83.7157 51 92 51Z" fill="#FFB743" stroke="white" stroke-width="0.1309" stroke-miterlimit="10"/>
<path d="M92 50C99.732 50 106 46.0601 106 41.2C106 36.3399 99.732 32.4 92 32.4C84.268 32.4 78 36.3399 78 41.2C78 46.0601 84.268 50 92 50Z" fill="#F59D20" stroke="white" stroke-width="0.134" stroke-miterlimit="10"/>
<path d="M79 90.1C79 95.2 72.3 99.3 64 99.3C55.7 99.3 49 95.2 49 90.1V94.4C49 99.5 55.7 103.6 64 103.6C72.3 103.6 79 99.5 79 94.4V90.1Z" fill="#D67500" stroke="white" stroke-width="0.1313" stroke-miterlimit="10"/>
<path d="M64 100C72.2843 100 79 95.7467 79 90.5C79 85.2533 72.2843 81 64 81C55.7157 81 49 85.2533 49 90.5C49 95.7467 55.7157 100 64 100Z" fill="#FFB743" stroke="white" stroke-width="0.1309" stroke-miterlimit="10"/>
<path d="M64.5 99C71.9558 99 78 95.1944 78 90.5C78 85.8056 71.9558 82 64.5 82C57.0442 82 51 85.8056 51 90.5C51 95.1944 57.0442 99 64.5 99Z" fill="#F59D20" stroke="white" stroke-width="0.129" stroke-miterlimit="10"/>
<path d="M49 84.8C49 89.9 42.3 94.0001 34 94.0001C25.7 94.0001 19 89.9 19 84.8V89.1001C19 94.2001 25.7 98.3 34 98.3C42.3 98.3 49 94.2001 49 89.1001V84.8Z" fill="#D67500" stroke="white" stroke-width="0.1313" stroke-miterlimit="10"/>
<path d="M34 95C42.2843 95 49 90.7467 49 85.5C49 80.2533 42.2843 76 34 76C25.7157 76 19 80.2533 19 85.5C19 90.7467 25.7157 95 34 95Z" fill="#F59D20" stroke="white" stroke-width="0.1309" stroke-miterlimit="10"/>
<path d="M55 80.9C55 86 48.3 90.1 40 90.1C31.7 90.1 25 86 25 80.9V85.2C25 90.3 31.7 94.4 40 94.4C48.3 94.4 55 90.3 55 85.2V80.9Z" fill="#D67500" stroke="white" stroke-width="0.1313" stroke-miterlimit="10"/>
<path d="M40 91C48.2843 91 55 86.7467 55 81.5C55 76.2533 48.2843 72 40 72C31.7157 72 25 76.2533 25 81.5C25 86.7467 31.7157 91 40 91Z" fill="#F59D20" stroke="white" stroke-width="0.1309" stroke-miterlimit="10"/>
<path d="M53 77.6C53 82.7 46.3 86.8 38 86.8C29.7 86.8 23 82.7 23 77.6V81.9C23 87 29.7 91.1 38 91.1C46.3 91.1 53 87 53 81.9V77.6Z" fill="#D67500" stroke="white" stroke-width="0.1313" stroke-miterlimit="10"/>
<path d="M38 88C46.2843 88 53 83.7467 53 78.5C53 73.2533 46.2843 69 38 69C29.7157 69 23 73.2533 23 78.5C23 83.7467 29.7157 88 38 88Z" fill="#F59D20" stroke="white" stroke-width="0.1309" stroke-miterlimit="10"/>
<path d="M46 74.2C46 79.3 39.3 83.4 31 83.4C22.7 83.4 16 79.3 16 74.2V78.5C16 83.6 22.7 87.7 31 87.7C39.3 87.7 46 83.6 46 78.5V74.2Z" fill="#D67500" stroke="white" stroke-width="0.1313" stroke-miterlimit="10"/>
<path d="M31 84C39.2843 84 46 79.7467 46 74.5C46 69.2533 39.2843 65 31 65C22.7157 65 16 69.2533 16 74.5C16 79.7467 22.7157 84 31 84Z" fill="#F59D20" stroke="white" stroke-width="0.1309" stroke-miterlimit="10"/>
<path d="M50 70.2C50 75.3 43.3 79.4 35 79.4C26.7 79.4 20 75.3 20 70.2V74.5C20 79.6 26.7 83.7 35 83.7C43.3 83.7 50 79.6 50 74.5V70.2V70.2Z" fill="#D67500" stroke="white" stroke-width="0.1313" stroke-miterlimit="10"/>
<path d="M35 80C43.2843 80 50 75.7467 50 70.5C50 65.2533 43.2843 61 35 61C26.7157 61 20 65.2533 20 70.5C20 75.7467 26.7157 80 35 80Z" fill="#F59D20" stroke="white" stroke-width="0.1309" stroke-miterlimit="10"/>
<path d="M50 66.9C50 72 43.3 76.1 35 76.1C26.7 76.1 20 72 20 66.9V71.2C20 76.3 26.7 80.4 35 80.4C43.3 80.4 50 76.3 50 71.2V66.9Z" fill="#D67500" stroke="white" stroke-width="0.1313" stroke-miterlimit="10"/>
<path d="M35 77C43.2843 77 50 72.7467 50 67.5C50 62.2533 43.2843 58 35 58C26.7157 58 20 62.2533 20 67.5C20 72.7467 26.7157 77 35 77Z" fill="#F59D20" stroke="white" stroke-width="0.1309" stroke-miterlimit="10"/>
<path d="M50 63.7C50 68.8 43.3 72.9 35 72.9C26.7 72.9 20 68.8 20 63.7V68C20 73.1 26.7 77.2 35 77.2C43.3 77.2 50 73.1 50 68V63.7V63.7Z" fill="#D67500" stroke="white" stroke-width="0.1313" stroke-miterlimit="10"/>
<path d="M35 74C43.2843 74 50 69.7467 50 64.5C50 59.2533 43.2843 55 35 55C26.7157 55 20 59.2533 20 64.5C20 69.7467 26.7157 74 35 74Z" fill="#F59D20" stroke="white" stroke-width="0.1309" stroke-miterlimit="10"/>
<path d="M50 60.4C50 65.5 43.3 69.6 35 69.6C26.7 69.6 20 65.5 20 60.4V64.7C20 69.8 26.7 73.9 35 73.9C43.3 73.9 50 69.8 50 64.7V60.4Z" fill="#D67500" stroke="white" stroke-width="0.1313" stroke-miterlimit="10"/>
<path d="M35 70C43.2843 70 50 65.7467 50 60.5C50 55.2533 43.2843 51 35 51C26.7157 51 20 55.2533 20 60.5C20 65.7467 26.7157 70 35 70Z" fill="#F59D20" stroke="white" stroke-width="0.1309" stroke-miterlimit="10"/>
<path d="M53 57.1C53 62.2 46.3 66.3 38 66.3C29.7 66.3 23 62.2 23 57.1V61.4C23 66.5 29.7 70.6 38 70.6C46.3 70.6 53 66.5 53 61.4V57.1Z" fill="#D67500" stroke="white" stroke-width="0.1313" stroke-miterlimit="10"/>
<path d="M38 67C46.2843 67 53 62.7467 53 57.5C53 52.2533 46.2843 48 38 48C29.7157 48 23 52.2533 23 57.5C23 62.7467 29.7157 67 38 67Z" fill="#FFB743" stroke="white" stroke-width="0.1309" stroke-miterlimit="10"/>
<path d="M38 66C45.732 66 52 62.0601 52 57.2C52 52.3399 45.732 48.4 38 48.4C30.268 48.4 24 52.3399 24 57.2C24 62.0601 30.268 66 38 66Z" fill="#F59D20" stroke="white" stroke-width="0.134" stroke-miterlimit="10"/>
</svg>
