<svg width="124" height="124" viewBox="0 0 124 124" fill="none" xmlns="http://www.w3.org/2000/svg">
<g clip-path="url(#clip0)">
<path d="M20.6299 70.41L50.5299 44.73C51.6825 43.6364 53.1682 42.9605 54.7499 42.81L65.6399 41.81C66.8763 41.7024 68.1192 41.9232 69.243 42.45C70.3668 42.9767 71.3316 43.7908 72.0399 44.81L88.2799 67.91C88.5448 68.2898 88.6781 68.7459 88.6593 69.2086C88.6405 69.6713 88.4708 70.1151 88.176 70.4723C87.8813 70.8294 87.4777 71.0802 87.0269 71.1863C86.5761 71.2925 86.103 71.2481 85.6799 71.06C85.21 70.8437 84.7585 70.5895 84.3299 70.3C79.8499 67.39 71.9199 59.81 71.9199 59.81L80.5699 74.33C80.7789 74.6803 80.8823 75.0835 80.8679 75.4912C80.8534 75.8989 80.7216 76.2938 80.4883 76.6284C80.255 76.9631 79.9301 77.2233 79.5525 77.3779C79.175 77.5325 78.7609 77.5749 78.3599 77.5C76.4699 77.13 71.5799 71.5 68.7299 65.3L72.7299 76.12C72.8311 76.5022 72.8244 76.905 72.7106 77.2837C72.5967 77.6624 72.3802 78.0022 72.085 78.2653C71.7898 78.5284 71.4274 78.7045 71.0382 78.7742C70.649 78.8439 70.248 78.8043 69.8799 78.66C67.8099 77.81 67.0499 74.66 64.8099 69.66C60.9063 74.485 55.8654 78.2648 50.1399 80.66C44.9399 82.86 36.5699 83.58 36.5699 83.58L31.6399 87.17L20.6299 70.41Z" fill="white" stroke="#212426" stroke-miterlimit="10"/>
<path d="M108.602 30.5758L59.7223 30.499C58.5293 30.4971 57.5607 31.4627 57.5589 32.6556L57.511 63.1256C57.5091 64.3185 58.4747 65.2871 59.6676 65.289L108.548 65.3657C109.74 65.3676 110.709 64.4021 110.711 63.2091L110.759 32.7392C110.761 31.5462 109.795 30.5777 108.602 30.5758Z" fill="white" stroke="#212426" stroke-miterlimit="10"/>
<path d="M69.2337 35.9739L64.3737 35.9662C62.9377 35.964 61.7719 37.1262 61.7696 38.5622L61.7665 40.5422C61.7642 41.9781 62.9265 43.144 64.3624 43.1462L69.2224 43.1539C70.6583 43.1561 71.8242 41.9939 71.8265 40.558L71.8296 38.578C71.8318 37.142 70.6696 35.9761 69.2337 35.9739Z" fill="#07C39F" stroke="#383838" stroke-width="0.99" stroke-miterlimit="10"/>
<path d="M110.37 58.31L57.3799 58.38L57.3899 53.31L110.38 53.24L110.37 58.31Z" fill="#07C39F" stroke="#383838" stroke-width="0.99" stroke-miterlimit="10"/>
<path d="M104.15 35.36C105.116 36.7763 105.632 38.4508 105.632 40.165C105.632 41.8792 105.116 43.5536 104.15 44.97" fill="white"/>
<path d="M104.15 35.36C105.116 36.7763 105.632 38.4508 105.632 40.165C105.632 41.8792 105.116 43.5536 104.15 44.97" stroke="#212426" stroke-miterlimit="10"/>
<path d="M102.04 37.33C102.614 38.1639 102.921 39.1525 102.921 40.165C102.921 41.1774 102.614 42.166 102.04 43" fill="white"/>
<path d="M102.04 37.33C102.614 38.1639 102.921 39.1525 102.921 40.165C102.921 41.1774 102.614 42.166 102.04 43" stroke="#212426" stroke-miterlimit="10"/>
<path d="M100.04 38.8101C100.316 39.2138 100.463 39.6912 100.463 40.1801C100.463 40.6689 100.316 41.1463 100.04 41.5501" fill="white"/>
<path d="M100.04 38.8101C100.316 39.2138 100.463 39.6912 100.463 40.1801C100.463 40.6689 100.316 41.1463 100.04 41.5501" stroke="#212426" stroke-miterlimit="10"/>
<path d="M48.5801 54.34C53.8701 55.74 58.1101 53.53 61.7601 52.68C66.0701 51.68 68.8701 50.85 72.6901 48.08C74.9401 46.46 78.4701 43.43 80.5101 45.91C82.2301 48.01 81.6401 51.06 78.7101 54.28C76.7901 56.39 70.9101 58.28 68.6301 60.16C66.3501 62.04 67.9501 69.07 57.6301 76.38" fill="white"/>
<path d="M48.5801 54.34C53.8701 55.74 58.1101 53.53 61.7601 52.68C66.0701 51.68 68.8701 50.85 72.6901 48.08C74.9401 46.46 78.4701 43.43 80.5101 45.91C82.2301 48.01 81.6401 51.06 78.7101 54.28C76.7901 56.39 70.9101 58.28 68.6301 60.16C66.3501 62.04 67.9501 69.07 57.6301 76.38" stroke="#212426" stroke-miterlimit="10"/>
<path d="M33.5199 90.06L19.0899 68.16L13.6599 72.77L27.9199 94.06L33.5199 90.06Z" fill="white" stroke="#212426" stroke-miterlimit="10"/>
</g>
<defs>
<clipPath id="clip0">
<rect width="98.26" height="64.77" fill="white" transform="translate(13 30)"/>
</clipPath>
</defs>
</svg>
