<svg width="124" height="124" viewBox="0 0 124 124" fill="none" xmlns="http://www.w3.org/2000/svg">
<g clip-path="url(#clip0)">
<path d="M52.75 70.24C52.75 70.24 45.91 66.44 41.66 63.56C37.41 60.68 34.66 63.68 34.66 63.68L45.87 70.98L35.81 64.5C31.25 61.44 28.97 59.5 26.72 59.5C25.13 59.55 23.56 61.43 25.66 63.17L38.52 73.76C32.9511 70.3861 27.0788 67.5404 20.98 65.26C18.13 64.42 17.13 67.92 19.63 69.42L37.92 79.8C37.92 79.8 24.22 74.41 18.92 74.32C18.4122 74.3053 17.9042 74.3287 17.4 74.39C16.9358 74.447 16.5035 74.6558 16.1703 74.984C15.8372 75.3122 15.6219 75.7413 15.558 76.2046C15.4941 76.6678 15.5851 77.1392 15.817 77.5454C16.0489 77.9515 16.4085 78.2696 16.84 78.45L41.28 88.78C42.2893 89.2114 43.358 89.4879 44.45 89.6L60.09 91.28C62.19 91.58 63.24 91.67 64.72 91.09L102.05 78.45L98.05 58.78L92.18 60.27C87.8017 59.3457 83.3443 58.8467 78.87 58.78C77.42 58.78 73.13 59.6 73.13 59.6" fill="white"/>
<path d="M52.75 70.24C52.75 70.24 45.91 66.44 41.66 63.56C37.41 60.68 34.66 63.68 34.66 63.68L45.87 70.98L35.81 64.5C31.25 61.44 28.97 59.5 26.72 59.5C25.13 59.55 23.56 61.43 25.66 63.17L38.52 73.76C32.9511 70.3861 27.0788 67.5404 20.98 65.26C18.13 64.42 17.13 67.92 19.63 69.42L37.92 79.8C37.92 79.8 24.22 74.41 18.92 74.32C18.4122 74.3053 17.9042 74.3287 17.4 74.39C16.9358 74.447 16.5035 74.6558 16.1703 74.984C15.8372 75.3122 15.6219 75.7413 15.558 76.2046C15.4941 76.6678 15.5851 77.1392 15.817 77.5454C16.0489 77.9515 16.4085 78.2696 16.84 78.45L41.28 88.78C42.2893 89.2114 43.358 89.4879 44.45 89.6L60.09 91.28C62.19 91.58 63.24 91.67 64.72 91.09L102.05 78.45L98.05 58.78L92.18 60.27C87.8017 59.3457 83.3443 58.8467 78.87 58.78C77.42 58.78 73.13 59.6 73.13 59.6" stroke="#212426" stroke-miterlimit="10"/>
<path d="M70.18 81.11C68.18 81.11 58.79 80.5 57.25 80.56C52.89 80.73 50.25 80.35 45.42 80.73C42.65 80.95 36.5 81.73 35.83 80.15C34.83 77.64 37.25 73.48 42.14 71.7C44.83 70.7 50.89 70.89 53.7 70.01C56.51 69.13 60.85 62.54 73.13 59.6" fill="white"/>
<path d="M70.18 81.11C68.18 81.11 58.79 80.5 57.25 80.56C52.89 80.73 50.25 80.35 45.42 80.73C42.65 80.95 36.5 81.73 35.83 80.15C34.83 77.64 37.25 73.48 42.14 71.7C44.83 70.7 50.89 70.89 53.7 70.01C56.51 69.13 60.85 62.54 73.13 59.6" stroke="#212426" stroke-miterlimit="10"/>
<path d="M97.4399 55.39L102.64 81.1L109.39 78.86L104.12 53.78L97.4399 55.39Z" fill="white" stroke="#212426" stroke-miterlimit="10"/>
<path d="M67.0499 36.07C65.3399 29.07 54.3699 30.23 54.3599 38.8C54.3599 30.23 43.3599 29.07 41.6899 36.04C38.7499 47.86 54.3399 56.98 54.3399 56.98C54.3399 56.98 69.9299 47.89 67.0499 36.07Z" fill="#07C39F" stroke="#383838" stroke-width="0.99" stroke-miterlimit="10"/>
</g>
<defs>
<clipPath id="clip0">
<rect width="94.97" height="61.01" fill="white" transform="translate(15 31)"/>
</clipPath>
</defs>
</svg>
