<svg width="124" height="124" viewBox="0 0 124 124" fill="none" xmlns="http://www.w3.org/2000/svg">
<g clip-path="url(#clip0)">
<path d="M22.7799 49.7H102.08C102.596 49.695 103.096 49.5218 103.505 49.2066C103.913 48.8914 104.208 48.4515 104.343 47.9537C104.479 47.4559 104.449 46.9274 104.257 46.4484C104.065 45.9695 103.722 45.5663 103.28 45.3L63.6799 23.8C63.3106 23.603 62.8984 23.5 62.4799 23.5C62.0613 23.5 61.6492 23.603 61.2799 23.8L21.6799 45.3C21.2371 45.5568 20.8897 45.9507 20.6903 46.4222C20.4909 46.8937 20.4502 47.4172 20.5744 47.9139C20.6985 48.4105 20.9808 48.8533 21.3786 49.1755C21.7765 49.4977 22.2683 49.6818 22.7799 49.7V49.7Z" fill="#F3F6F7" stroke="#212426" stroke-miterlimit="10"/>
<path d="M30.1201 89.7C29.7529 89.6881 29.3925 89.8014 29.0981 90.0213C28.8038 90.2411 28.5929 90.5545 28.5001 90.91C28.4648 91.142 28.4823 91.3789 28.5513 91.6032C28.6203 91.8274 28.739 92.0332 28.8985 92.2053C29.0581 92.3773 29.2544 92.5111 29.4728 92.5968C29.6912 92.6824 29.9261 92.7177 30.1601 92.7H41.5701C41.9373 92.712 42.2977 92.5987 42.592 92.3788C42.8864 92.1589 43.0973 91.8455 43.1901 91.49C43.2262 91.2554 43.2082 91.0156 43.1376 90.7889C43.0669 90.5622 42.9455 90.3547 42.7825 90.182C42.6195 90.0094 42.4193 89.8763 42.197 89.7927C41.9748 89.7092 41.7364 89.6775 41.5001 89.7H39.8401V52.7H41.5701C41.9373 52.712 42.2977 52.5987 42.592 52.3788C42.8864 52.1589 43.0973 51.8455 43.1901 51.49C43.2262 51.2554 43.2082 51.0156 43.1376 50.7889C43.0669 50.5622 42.9455 50.3547 42.7825 50.182C42.6195 50.0094 42.4193 49.8763 42.197 49.7927C41.9748 49.7092 41.7364 49.6775 41.5001 49.7H30.1201C29.7529 49.6881 29.3925 49.8014 29.0981 50.0213C28.8038 50.2411 28.5929 50.5545 28.5001 50.91C28.4648 51.142 28.4823 51.3789 28.5513 51.6032C28.6203 51.8274 28.739 52.0332 28.8985 52.2053C29.0581 52.3773 29.2544 52.5111 29.4728 52.5968C29.6912 52.6825 29.9261 52.7177 30.1601 52.7H31.8401V89.7H30.1201ZM57.1201 89.7C56.7529 89.6881 56.3925 89.8014 56.0981 90.0213C55.8038 90.2411 55.5929 90.5545 55.5001 90.91C55.4648 91.142 55.4823 91.3789 55.5513 91.6032C55.6203 91.8274 55.739 92.0332 55.8985 92.2053C56.0581 92.3773 56.2544 92.5111 56.4728 92.5968C56.6912 92.6824 56.9261 92.7177 57.1601 92.7H68.5701C68.9373 92.712 69.2977 92.5987 69.592 92.3788C69.8864 92.1589 70.0973 91.8455 70.1901 91.49C70.2262 91.2554 70.2082 91.0156 70.1376 90.7889C70.0669 90.5622 69.9455 90.3547 69.7825 90.182C69.6195 90.0094 69.4193 89.8763 69.197 89.7927C68.9748 89.7092 68.7364 89.6775 68.5001 89.7H66.8401V52.7H68.5701C68.9373 52.712 69.2977 52.5987 69.592 52.3788C69.8864 52.1589 70.0973 51.8455 70.1901 51.49C70.2262 51.2554 70.2082 51.0156 70.1376 50.7889C70.0669 50.5622 69.9455 50.3547 69.7825 50.182C69.6195 50.0094 69.4193 49.8763 69.197 49.7927C68.9748 49.7092 68.7364 49.6775 68.5001 49.7H57.1201C56.7529 49.6881 56.3925 49.8014 56.0981 50.0213C55.8038 50.2411 55.5929 50.5545 55.5001 50.91C55.4648 51.142 55.4823 51.3789 55.5513 51.6032C55.6203 51.8274 55.739 52.0332 55.8985 52.2053C56.0581 52.3773 56.2544 52.5111 56.4728 52.5968C56.6912 52.6825 56.9261 52.7177 57.1601 52.7H58.8401V89.7H57.1201ZM84.0701 89.7C83.685 89.6869 83.3081 89.8132 83.0086 90.0557C82.7092 90.2982 82.5073 90.6406 82.4401 91.02C82.4233 91.2467 82.456 91.4743 82.5358 91.687C82.6156 91.8998 82.7406 92.0928 82.9022 92.2525C83.0639 92.4122 83.2583 92.535 83.472 92.6123C83.6857 92.6895 83.9137 92.7195 84.1401 92.7H95.6201C96.0052 92.7132 96.3821 92.5869 96.6815 92.3444C96.981 92.1019 97.1829 91.7595 97.2501 91.38C97.2668 91.1534 97.2342 90.9258 97.1544 90.713C97.0746 90.5003 96.9496 90.3073 96.7879 90.1476C96.6263 89.9878 96.4319 89.8651 96.2182 89.7878C96.0045 89.7106 95.7765 89.6806 95.5501 89.7H93.8401V52.7H95.6201C96.0052 52.7132 96.3821 52.5869 96.6815 52.3444C96.981 52.1019 97.1829 51.7595 97.2501 51.38C97.2668 51.1534 97.2342 50.9258 97.1544 50.713C97.0746 50.5003 96.9496 50.3073 96.7879 50.1476C96.6263 49.9878 96.4319 49.8651 96.2182 49.7878C96.0045 49.7106 95.7765 49.6806 95.5501 49.7H84.0701C83.685 49.6869 83.3081 49.8132 83.0086 50.0557C82.7092 50.2982 82.5073 50.6406 82.4401 51.02C82.4233 51.2467 82.456 51.4743 82.5358 51.687C82.6156 51.8998 82.7406 52.0928 82.9022 52.2525C83.0639 52.4122 83.2583 52.535 83.472 52.6123C83.6857 52.6895 83.9137 52.7195 84.1401 52.7H85.8401V89.7H84.0701ZM20.8401 92.7H102.84V99.7H20.8401V92.7Z" fill="#F3F6F7" stroke="#212426" stroke-miterlimit="10"/>
<path d="M62.98 43.2C63.9689 43.2 64.9356 42.9067 65.7578 42.3573C66.5801 41.8079 67.2209 41.027 67.5994 40.1134C67.9778 39.1997 68.0768 38.1944 67.8839 37.2245C67.691 36.2546 67.2148 35.3637 66.5155 34.6644C65.8163 33.9652 64.9253 33.489 63.9554 33.296C62.9855 33.1031 61.9802 33.2021 61.0666 33.5806C60.1529 33.959 59.372 34.5999 58.8226 35.4221C58.2732 36.2443 57.98 37.211 57.98 38.2C57.98 39.526 58.5068 40.7978 59.4444 41.7355C60.3821 42.6732 61.6539 43.2 62.98 43.2V43.2Z" fill="#07C39F" stroke="#383838" stroke-width="0.99" stroke-miterlimit="10"/>
<path d="M22.7799 49.7H102.08C102.596 49.695 103.096 49.5218 103.505 49.2066C103.913 48.8914 104.208 48.4515 104.343 47.9537C104.479 47.4559 104.449 46.9274 104.257 46.4484C104.065 45.9695 103.722 45.5663 103.28 45.3L63.6799 23.8C63.3106 23.603 62.8984 23.5 62.4799 23.5C62.0613 23.5 61.6492 23.603 61.2799 23.8L21.6799 45.3C21.2371 45.5568 20.8897 45.9507 20.6903 46.4222C20.4909 46.8937 20.4502 47.4172 20.5744 47.9139C20.6985 48.4105 20.9808 48.8533 21.3786 49.1755C21.7765 49.4977 22.2683 49.6818 22.7799 49.7V49.7Z" fill="white" stroke="#212426" stroke-miterlimit="10"/>
<path d="M30.1201 89.7C29.7529 89.6881 29.3925 89.8014 29.0981 90.0213C28.8038 90.2411 28.5929 90.5545 28.5001 90.91C28.4648 91.142 28.4823 91.3789 28.5513 91.6032C28.6203 91.8274 28.739 92.0332 28.8985 92.2053C29.0581 92.3773 29.2544 92.5111 29.4728 92.5968C29.6912 92.6824 29.9261 92.7177 30.1601 92.7H41.5701C41.9373 92.712 42.2977 92.5987 42.592 92.3788C42.8864 92.1589 43.0973 91.8455 43.1901 91.49C43.2262 91.2554 43.2082 91.0156 43.1376 90.7889C43.0669 90.5622 42.9455 90.3547 42.7825 90.182C42.6195 90.0094 42.4193 89.8763 42.197 89.7927C41.9748 89.7092 41.7364 89.6775 41.5001 89.7H39.8401V52.7H41.5701C41.9373 52.712 42.2977 52.5987 42.592 52.3788C42.8864 52.1589 43.0973 51.8455 43.1901 51.49C43.2262 51.2554 43.2082 51.0156 43.1376 50.7889C43.0669 50.5622 42.9455 50.3547 42.7825 50.182C42.6195 50.0094 42.4193 49.8763 42.197 49.7927C41.9748 49.7092 41.7364 49.6775 41.5001 49.7H30.1201C29.7529 49.6881 29.3925 49.8014 29.0981 50.0213C28.8038 50.2411 28.5929 50.5545 28.5001 50.91C28.4648 51.142 28.4823 51.3789 28.5513 51.6032C28.6203 51.8274 28.739 52.0332 28.8985 52.2053C29.0581 52.3773 29.2544 52.5111 29.4728 52.5968C29.6912 52.6825 29.9261 52.7177 30.1601 52.7H31.8401V89.7H30.1201ZM57.1201 89.7C56.7529 89.6881 56.3925 89.8014 56.0981 90.0213C55.8038 90.2411 55.5929 90.5545 55.5001 90.91C55.4648 91.142 55.4823 91.3789 55.5513 91.6032C55.6203 91.8274 55.739 92.0332 55.8985 92.2053C56.0581 92.3773 56.2544 92.5111 56.4728 92.5968C56.6912 92.6824 56.9261 92.7177 57.1601 92.7H68.5701C68.9373 92.712 69.2977 92.5987 69.592 92.3788C69.8864 92.1589 70.0973 91.8455 70.1901 91.49C70.2262 91.2554 70.2082 91.0156 70.1376 90.7889C70.0669 90.5622 69.9455 90.3547 69.7825 90.182C69.6195 90.0094 69.4193 89.8763 69.197 89.7927C68.9748 89.7092 68.7364 89.6775 68.5001 89.7H66.8401V52.7H68.5701C68.9373 52.712 69.2977 52.5987 69.592 52.3788C69.8864 52.1589 70.0973 51.8455 70.1901 51.49C70.2262 51.2554 70.2082 51.0156 70.1376 50.7889C70.0669 50.5622 69.9455 50.3547 69.7825 50.182C69.6195 50.0094 69.4193 49.8763 69.197 49.7927C68.9748 49.7092 68.7364 49.6775 68.5001 49.7H57.1201C56.7529 49.6881 56.3925 49.8014 56.0981 50.0213C55.8038 50.2411 55.5929 50.5545 55.5001 50.91C55.4648 51.142 55.4823 51.3789 55.5513 51.6032C55.6203 51.8274 55.739 52.0332 55.8985 52.2053C56.0581 52.3773 56.2544 52.5111 56.4728 52.5968C56.6912 52.6825 56.9261 52.7177 57.1601 52.7H58.8401V89.7H57.1201ZM84.0701 89.7C83.685 89.6869 83.3081 89.8132 83.0086 90.0557C82.7092 90.2982 82.5073 90.6406 82.4401 91.02C82.4233 91.2467 82.456 91.4743 82.5358 91.687C82.6156 91.8998 82.7406 92.0928 82.9022 92.2525C83.0639 92.4122 83.2583 92.535 83.472 92.6123C83.6857 92.6895 83.9137 92.7195 84.1401 92.7H95.6201C96.0052 92.7132 96.3821 92.5869 96.6815 92.3444C96.981 92.1019 97.1829 91.7595 97.2501 91.38C97.2668 91.1534 97.2342 90.9258 97.1544 90.713C97.0746 90.5003 96.9496 90.3073 96.7879 90.1476C96.6263 89.9878 96.4319 89.8651 96.2182 89.7878C96.0045 89.7106 95.7765 89.6806 95.5501 89.7H93.8401V52.7H95.6201C96.0052 52.7132 96.3821 52.5869 96.6815 52.3444C96.981 52.1019 97.1829 51.7595 97.2501 51.38C97.2668 51.1534 97.2342 50.9258 97.1544 50.713C97.0746 50.5003 96.9496 50.3073 96.7879 50.1476C96.6263 49.9878 96.4319 49.8651 96.2182 49.7878C96.0045 49.7106 95.7765 49.6806 95.5501 49.7H84.0701C83.685 49.6869 83.3081 49.8132 83.0086 50.0557C82.7092 50.2982 82.5073 50.6406 82.4401 51.02C82.4233 51.2467 82.456 51.4743 82.5358 51.687C82.6156 51.8998 82.7406 52.0928 82.9022 52.2525C83.0639 52.4122 83.2583 52.535 83.472 52.6123C83.6857 52.6895 83.9137 52.7195 84.1401 52.7H85.8401V89.7H84.0701ZM20.8401 92.7H102.84V99.7H20.8401V92.7Z" fill="white" stroke="#212426" stroke-miterlimit="10"/>
<path d="M62.98 43.2C63.9689 43.2 64.9356 42.9067 65.7578 42.3573C66.5801 41.8079 67.2209 41.027 67.5994 40.1134C67.9778 39.1997 68.0768 38.1944 67.8839 37.2245C67.691 36.2546 67.2148 35.3637 66.5155 34.6644C65.8163 33.9652 64.9253 33.489 63.9554 33.296C62.9855 33.1031 61.9802 33.2021 61.0666 33.5806C60.1529 33.959 59.372 34.5999 58.8226 35.4221C58.2732 36.2443 57.98 37.211 57.98 38.2C57.98 39.526 58.5068 40.7978 59.4444 41.7355C60.3821 42.6732 61.6539 43.2 62.98 43.2V43.2Z" fill="#07C39F" stroke="#383838" stroke-width="0.99" stroke-miterlimit="10"/>
</g>
<defs>
<clipPath id="clip0">
<rect width="84.92" height="77.2" fill="white" transform="translate(20 23)"/>
</clipPath>
</defs>
</svg>
