<svg xmlns="http://www.w3.org/2000/svg" width="95" height="124" preserveAspectRatio="xMinYMin meet">
    <g fill="none" fill-rule="evenodd">
        <path fill="#32B494"
              d="M1 113.494V31.506c0-.28.227-.506.506-.506h17.988c.279 0 .506.226.506.506v81.988a.507.507 0 01-.506.506H1.506a.507.507 0 01-.506-.506"/>
        <path fill="#3A4349"
              d="M19.99 31H2.01c-.558 0-1.01.453-1.01 1.012v81.976c0 .559.452 1.012 1.01 1.012h17.977c.56 0 1.012-.453 1.012-1.012V32.011A1.01 1.01 0 0019.99 31zM2 114h18V32H2v82z"/>
        <path fill="#FEFEFE"
              d="M1 31.497V.503C1 .225 1.226 0 1.503 0h17.993c.278 0 .504.226.504.503v30.994a.504.504 0 01-.504.503H1.503A.503.503 0 011 31.497"/>
        <path fill="#3A4349"
              d="M19.994 0H2.007C1.45 0 1 .451 1 1.006v30.988C1 32.549 1.45 33 2.007 33h17.986C20.55 33 21 32.549 21 31.994V1.006C21 .45 20.55 0 19.994 0zM2 32h18V1H2v31z"/>
        <path fill="#FEFEFE"
              d="M10.746 110.235a4.62 4.62 0 01-4.615-4.616 4.62 4.62 0 014.615-4.615 4.62 4.62 0 014.616 4.615 4.622 4.622 0 01-4.616 4.616"/>
        <path fill="#3A4349"
              d="M10.746 100.503a5.122 5.122 0 00-5.115 5.116 5.12 5.12 0 005.115 5.115 5.12 5.12 0 005.116-5.115 5.122 5.122 0 00-5.116-5.116m0 1a4.116 4.116 0 110 8.233 4.116 4.116 0 010-8.233"/>
        <path fill="#FEFEFE"
              d="M7 93.425v-53.85A2.576 2.576 0 019.576 37h1.849A2.575 2.575 0 0114 39.575v53.85A2.575 2.575 0 0111.424 96H9.575A2.575 2.575 0 017 93.425"/>
        <path fill="#3A4349"
              d="M11.926 37h-1.848A3.078 3.078 0 007 40.078v53.844C7 95.622 8.378 97 10.078 97h1.844c1.7 0 3.078-1.378 3.078-3.078V40.078A3.079 3.079 0 0011.926 37m0 1c1.146 0 2.074.928 2.074 2.074v53.852A2.073 2.073 0 0111.927 96h-1.854A2.074 2.074 0 018 93.926V40.074C8 38.928 8.929 38 10.073 38H12"/>
        <path fill="#FEFEFE" d="M7 32v-9"/>
        <path fill="#3A4349" d="M6.5 32a.5.5 0 01-.5-.5v-9a.5.5 0 011 0v9a.5.5 0 01-.5.5"/>
        <path fill="#FEFEFE" d="M16 32V18"/>
        <path fill="#3A4349" d="M15.5 32a.5.5 0 01-.5-.5v-14a.5.5 0 011 0v14a.5.5 0 01-.5.5"/>
        <path fill="#FEFEFE" d="M11 1v23"/>
        <path fill="#3A4349" d="M10.5 24a.5.5 0 01-.5-.5V.5a.5.5 0 011 0v23a.5.5 0 01-.5.5"/>
        <path fill="#50545E"
              d="M36 113.494V31.506c0-.28.227-.506.506-.506h17.988c.279 0 .506.226.506.506v81.988a.507.507 0 01-.506.506H36.506a.507.507 0 01-.506-.506"/>
        <path fill="#3A4349"
              d="M54.99 31H37.01c-.558 0-1.01.453-1.01 1.012v81.976c0 .559.452 1.012 1.01 1.012h17.977c.56 0 1.012-.453 1.012-1.012V32.011A1.01 1.01 0 0054.99 31zM37 114h18V32H37v82z"/>
        <path fill="#FEFEFE"
              d="M36 31.497V.503c0-.277.226-.503.504-.503h17.992c.278 0 .504.226.504.503v30.994a.504.504 0 01-.504.503H36.503a.503.503 0 01-.503-.503"/>
        <path fill="#3A4349"
              d="M54.994 0H37.007C36.45 0 36 .451 36 1.006v30.988c0 .555.45 1.006 1.007 1.006h17.986C55.55 33 56 32.549 56 31.994V1.006C56 .45 55.55 0 54.994 0zM37 32h18V1H37v31z"/>
        <path fill="#FEFEFE" d="M42 32V13"/>
        <path fill="#3A4349" d="M41.5 32a.5.5 0 01-.5-.5v-19a.5.5 0 011 0v19a.5.5 0 01-.5.5"/>
        <path fill="#FEFEFE" d="M51 32V19"/>
        <path fill="#3A4349" d="M50.5 32a.5.5 0 01-.5-.5v-13a.5.5 0 011 0v13a.5.5 0 01-.5.5"/>
        <path fill="#FEFEFE" d="M46 1v25"/>
        <path fill="#3A4349" d="M45.5 26a.5.5 0 01-.5-.5V.5a.5.5 0 011 0v25a.5.5 0 01-.5.5"/>
        <path fill="#F29A22" d="M19 114h19V31H19z"/>
        <path fill="#3A4349" d="M39 31H19V115h20V31zm-19 83h18V32H20v82z"/>
        <path fill="#FEFEFE"
              d="M19 31.497V.503c0-.277.226-.503.504-.503h17.992c.278 0 .504.226.504.503v30.994a.504.504 0 01-.504.503H19.503a.503.503 0 01-.503-.503"/>
        <path fill="#3A4349"
              d="M37.994 0H20.007C19.45 0 19 .451 19 1.006v30.988c0 .555.45 1.006 1.007 1.006h17.986C38.55 33 39 32.549 39 31.994V1.006C39 .45 38.55 0 37.994 0zM20 32h18V1H20v31z"/>
        <path fill="#FEFEFE" d="M25 32V10"/>
        <path fill="#3A4349" d="M24.5 32a.5.5 0 01-.5-.5v-22a.5.5 0 011 0v22a.5.5 0 01-.5.5"/>
        <path fill="#FEFEFE" d="M34 32V18"/>
        <path fill="#3A4349" d="M33.5 32a.5.5 0 01-.5-.5v-14a.5.5 0 011 0v14a.5.5 0 01-.5.5"/>
        <path fill="#FEFEFE" d="M29 1v16"/>
        <path fill="#3A4349" d="M28.5 17a.5.5 0 01-.5-.5V.5a.5.5 0 011 0v16a.5.5 0 01-.5.5"/>
        <path fill="#FEFEFE" d="M20 54.5v-12a.5.5 0 01.5-.5h18a.5.5 0 01.5.5v12a.5.5 0 01-.5.5h-18a.5.5 0 01-.5-.5"/>
        <path fill="#3A4349"
              d="M38 40.999H20A1 1 0 0018.999 42v12A1 1 0 0020 55.001h18A1 1 0 0039.001 54V42A1 1 0 0038 40.999zM20 54h18V42H20v12z"/>
        <path fill="#32B494"
              d="M41 107.494V36.506c0-.28.227-.506.506-.506h8.988c.279 0 .506.226.506.506v70.988a.507.507 0 01-.506.506h-8.988a.507.507 0 01-.506-.506"/>
        <path fill="#3A4349"
              d="M50.991 36h-8.979c-.559 0-1.012.453-1.012 1.011v70.978c0 .558.453 1.011 1.012 1.011h8.976c.56 0 1.012-.453 1.012-1.011V37.011A1.01 1.01 0 0050.991 36zm-8.99 72h9V37h-9v71z"/>
        <path fill="#34B495"
              d="M52.426 90.028a1.285 1.285 0 00-.994.462 1.36 1.36 0 00-.301 1.102c.689 4.178 2.619 11.102 7.869 11.516V90l-6.574.028zM59 117v-7.188c-7.446-.343-13-8.319-13-18.822v-.128A4.863 4.863 0 0150.864 86H59V76h36v41H59z"/>
        <path fill="#3A4349"
              d="M58 103.011c-4.51-.82-6.237-7.15-6.876-11.028a.861.861 0 01.189-.698.795.795 0 01.614-.285L58 90.974v12.037zm37-28.01H58v10h-7.638A5.368 5.368 0 0045 90.362v.127c0 10.557 5.521 18.627 13 19.29V117h37V75zm-36 29V90l-7.076.03c-1.133.002-1.971 1.026-1.786 2.145 1.053 6.4 3.725 11.954 8.862 11.954V104zm35-28v40H59v-7.178c-7.789 0-13-8.489-13-18.333v-.127A4.362 4.362 0 0150.362 86H59V76h35z"/>
        <path fill="#EBEDEE"
              d="M74.702 102.053c-.203.5-.713 0-.713 0h-6.826s-3.999-1.046-3.999-4.111a5.52 5.52 0 014-5.332c.665-2.369 2.865-4.058 5.345-4.058a5.47 5.47 0 013.01.899 5.469 5.469 0 013.007-.899c2.481 0 4.681 1.689 5.347 4.058a5.52 5.52 0 014 5.332c0 2.785-4 4.425-4 4.425l-3.795-.314h-5.376z"/>
        <path fill="#3A4349"
              d="M75.518 88.864a5.963 5.963 0 00-3.009-.812c-2.61 0-4.936 1.716-5.747 4.16a6.016 6.016 0 00-4.098 5.73c0 3.34 1.437 5.166 4.864 5.166l1.498-.097H71.1l7.993.097 4.934-.097c3.012-.387 4.345-2.033 4.345-5.07a6.017 6.017 0 00-4.099-5.73c-.81-2.443-3.137-4.16-5.747-4.16a5.959 5.959 0 00-3.008.813zm7.943 4.156a5.025 5.025 0 013.911 4.922c0 2.569-1.928 4.693-4.41 4.058h-14.24c-2.789 0-5.058-1.27-5.058-4.058a5.025 5.025 0 013.912-4.922c.504-2.286 2.563-3.968 4.933-3.968 1.117 0 2.161.376 3.01 1.009a5.024 5.024 0 013.007-1.01c2.37 0 4.43 1.683 4.935 3.969z"/>
    </g>
</svg>
