<svg xmlns="http://www.w3.org/2000/svg" width="157" height="124" preserveAspectRatio="xMinYMin meet">
    <g fill="none" fill-rule="evenodd">
        <path fill="#FEFEFE"
              d="M35.862 111.939a.498.498 0 01-.482-.37L13.911 31.616a.498.498 0 01.352-.613l69.386-18.63a.498.498 0 01.612.353l21.468 79.953a.5.5 0 01-.352.613l-69.385 18.63a.489.489 0 01-.13.017"/>
        <path fill="#3A4349"
              d="M83.78 11.856c-.088 0-.175.01-.26.034L14.133 30.52a1 1 0 00-.706 1.226l21.468 79.953c.07.256.237.474.466.607a1.004 1.004 0 00.76.099l69.385-18.631a1 1 0 00.706-1.225L84.745 12.596a1.005 1.005 0 00-.466-.607 1.004 1.004 0 00-.5-.133m0 1l21.468 79.953-69.385 18.63-21.469-79.953 69.386-18.63"/>
        <path fill="#FEFEFE"
              d="M22.469 109.084a.493.493 0 01-.482-.37L.517 28.761a.5.5 0 01.354-.613l69.385-18.63a.497.497 0 01.612.353l21.468 79.952a.5.5 0 01-.352.613l-69.385 18.631a.527.527 0 01-.13.017"/>
        <path fill="#3A4349"
              d="M70.386 9c-.087 0-.174.012-.26.035L.74 27.665a1 1 0 00-.706 1.226l21.468 79.953c.069.256.237.474.466.607a1.004 1.004 0 00.759.099l69.386-18.632a1 1 0 00.706-1.225L71.352 9.743A1 1 0 0070.386 9m0 1l21.468 79.954-69.385 18.63L1 28.63 70.386 10"/>
        <path fill="#FEFEFE" d="M69.501 77.478L24.833 89.472"/>
        <path fill="#3A4349"
              d="M24.833 89.972a.5.5 0 01-.13-.983L69.37 76.995a.5.5 0 11.26.966L24.963 89.955a.489.489 0 01-.13.017"/>
        <path fill="#FEFEFE" d="M77.881 67.624L22.673 82.147"/>
        <path fill="#3A4349"
              d="M22.673 82.647a.498.498 0 01-.483-.373.498.498 0 01.356-.61L77.754 67.14a.5.5 0 11.254.966L22.8 82.63a.462.462 0 01-.127.017"/>
        <path fill="#FEFEFE" d="M75.721 60.299L20.513 74.822"/>
        <path fill="#3A4349"
              d="M20.512 75.322a.498.498 0 01-.483-.373.498.498 0 01.357-.61l55.208-14.523c.263-.07.54.09.61.356a.498.498 0 01-.356.61L20.638 75.305a.462.462 0 01-.127.017"/>
        <path fill="#FEFEFE" d="M73.559 52.975L18.352 67.497"/>
        <path fill="#3A4349"
              d="M18.352 67.997a.498.498 0 01-.483-.373.498.498 0 01.356-.61l55.207-14.523a.5.5 0 01.254.967L18.48 67.98a.462.462 0 01-.127.017"/>
        <path fill="#FEFEFE" d="M71.399 45.649L16.192 60.172"/>
        <path fill="#3A4349"
              d="M16.192 60.672a.498.498 0 01-.483-.373.498.498 0 01.356-.61l55.207-14.523a.5.5 0 01.254.966L16.32 60.655a.462.462 0 01-.127.017"/>
        <path fill="#FEFEFE" d="M69.811 38.149L14.032 52.847"/>
        <path fill="#3A4349"
              d="M14.032 53.348a.499.499 0 01-.127-.983l55.78-14.7a.5.5 0 11.254.967l-55.78 14.699a.462.462 0 01-.127.017"/>
        <path fill="#FEFEFE" d="M67.651 30.824l-55.78 14.698"/>
        <path fill="#3A4349"
              d="M11.87 46.022a.5.5 0 01-.126-.983l55.78-14.699a.5.5 0 11.254.967l-55.78 14.698a.475.475 0 01-.127.017"/>
        <path fill="#FEFEFE" d="M65.491 23.499L9.711 38.198"/>
        <path fill="#3A4349"
              d="M9.71 38.698a.5.5 0 01-.127-.983l55.781-14.7a.5.5 0 01.254.968L9.838 38.68a.475.475 0 01-.128.017m79.948 36.255l-30.896-.006v19.719c0 3.39 1.831 6.457 5 8.958v-.234c.184.133.408.25.601.382.427.287.86.57 1.326.842.298.173.611.339.924.504.466.248.947.486 1.446.717.33.153.661.304 1.004.449a38.22 38.22 0 001.756.679c.311.113.607.232.926.338a44.3 44.3 0 002.85.847c.245.063.505.114.753.174.781.19 1.574.369 2.393.527.401.077.814.143 1.225.212a57.732 57.732 0 005.851.698c.41.029.814.065 1.23.087a69.41 69.41 0 003.63.105l.076.002h.017l.077-.002a69.41 69.41 0 003.63-.105c.415-.022.82-.058 1.23-.087a66.695 66.695 0 002.361-.21 57.732 57.732 0 003.489-.489c.411-.068.824-.134 1.225-.211a50.769 50.769 0 002.393-.527c.248-.06.508-.111.753-.174a44.3 44.3 0 002.85-.847c.32-.106.615-.225.926-.338.6-.218 1.19-.441 1.756-.68a33.24 33.24 0 002.452-1.165c.312-.166.624-.331.921-.503.467-.272.9-.556 1.327-.843.193-.131.417-.25.602-.382v-.07s5.235-5.566 5-8.957v-20.41l-31.104 1z"/>
        <path fill="#3A4349"
              d="M64.063 102.8a28.511 28.511 0 003.899 2.172c.321.147.641.293.975.432.48.2 1.022.407 1.711.654l.35.128c.181.067.362.135.551.197.932.307 1.87.583 2.79.819.127.033.261.06.394.09.115.026.23.05.344.079.85.204 1.617.37 2.348.51.294.056.594.106.895.156l.308.05a58.053 58.053 0 003.433.475c.694.075 1.456.14 2.325.203l.381.029c.275.02.55.042.831.057 1.272.067 2.443.1 3.578.102h.171a69.817 69.817 0 003.577-.102c.282-.015.556-.036.831-.057l.38-.03a66.93 66.93 0 002.327-.201 58.755 58.755 0 003.433-.475l.312-.052c.3-.05.597-.1.89-.155a49.673 49.673 0 002.348-.51c.114-.028.23-.053.345-.078.132-.03.266-.058.394-.092.918-.235 1.857-.51 2.788-.817.191-.063.371-.131.553-.198l.351-.13a34.468 34.468 0 001.71-.652c.34-.142.666-.29.993-.44.464-.213.93-.44 1.383-.678.333-.174.618-.323.89-.48.475-.273.91-.557 1.274-.8.096-.064.2-.125.302-.187l.108-.064.165-.127c3.31-2.372 5.06-5.178 5.06-8.114V74.953l-30.103 1-30.897-.006v18.567c0 2.936 1.75 5.742 5.061 8.114l.241.173zm25.916 8.247l-.1-.003a69.648 69.648 0 01-3.656-.105 34.332 34.332 0 01-.87-.061l-.37-.028a63.103 63.103 0 01-2.385-.212 61.898 61.898 0 01-3.526-.496l-.303-.051c-.314-.053-.629-.105-.936-.165a52.674 52.674 0 01-2.425-.536c-.1-.025-.202-.047-.305-.07-.154-.035-.309-.07-.457-.107a44.869 44.869 0 01-2.897-.866c-.21-.07-.414-.147-.615-.223l-.327-.121a38.196 38.196 0 01-1.793-.697c-.352-.15-.69-.305-1.027-.462a30.24 30.24 0 01-1.486-.74c-.32-.171-.643-.342-.95-.521a23.612 23.612 0 01-1.372-.875 4.815 4.815 0 00-.225-.141 6.07 6.07 0 01-.398-.258l-.378-.302c-3.546-2.706-5.417-5.954-5.417-9.418V73.953h64v20.636c0 3.464-1.726 6.712-5 9.418v.007l-.378.295a5.872 5.872 0 01-.396.257 6.274 6.274 0 00-.227.143c-.387.262-.853.57-1.372.874-.29.17-.595.333-.9.496-.535.285-1.035.533-1.536.765-.337.157-.674.312-1.026.46a35.64 35.64 0 01-1.792.698l-.329.122c-.2.076-.403.153-.614.223a44.35 44.35 0 01-2.897.865c-.149.039-.303.073-.458.108-.102.023-.205.045-.305.07a52.36 52.36 0 01-2.424.536c-.307.06-.619.112-.933.165l-.305.05a56.972 56.972 0 01-3.527.497 63.17 63.17 0 01-2.385.212l-.37.028c-.289.023-.577.045-.872.06a69.6 69.6 0 01-3.658.106l-.078.003z"/>
        <path fill="#2E383D" d="M90.21 36.318l-.348-.142-66.1 25.267v1.737L89.89 90.175l66.064-26.995.172-1.733z"/>
        <path fill="#3A4349" d="M90.017 34.586l-.347-.142-66.101 27.003 66.128 26.996 66.064-26.996z"/>
        <path fill="#F59D22"
              d="M135.235 114.028c-.507 0-.917-.411-1.474-.917V69.369l-40.217-7.021a.918.918 0 01.311-1.808l41.535 7.153c.441.076.762.457.371.904v44.514c.391.506-.019.917-.526.917"/>
        <path fill="#F59D22"
              d="M145.743 111.126a.912.912 0 01-.648-.27l-9.86-9.858-9.859 9.858a.916.916 0 11-1.296-1.295l10.507-10.509a.917.917 0 011.297 0l10.507 10.508a.916.916 0 01-.648 1.566M89.697 58.358a3.089 3.089 0 00-3.086 3.086 3.089 3.089 0 003.086 3.085 3.09 3.09 0 003.086-3.085 3.09 3.09 0 00-3.086-3.086m0 8.005a4.925 4.925 0 01-4.92-4.92 4.925 4.925 0 014.92-4.92 4.925 4.925 0 014.92 4.92 4.925 4.925 0 01-4.92 4.92"/>
    </g>
</svg>
