<svg xmlns="http://www.w3.org/2000/svg" width="146" height="71" viewBox="0 0 146 71">
  <g fill="none" fill-rule="evenodd" transform="translate(7 7)">
    <path fill="#27488C" d="M41.4947047,19.5908472 C41.4947047,20.5439671 40.7219048,21.3167671 39.7680488,21.3167671 C38.8141928,21.3167671 38.0413929,20.5439671 38.0413929,19.5908472 C38.0413929,18.6369912 38.8141928,17.8634553 39.7680488,17.8634553 C40.7219048,17.8634553 41.4947047,18.6369912 41.4947047,19.5908472 Z M129.225901,54.3109097 C128.797549,54.8776297 128.173421,55.1654057 127.371917,55.1654057 C126.578509,55.1654057 125.959533,54.8776297 125.531181,54.3109097 C125.099149,53.7390378 124.880557,52.9934698 124.880557,52.0948138 C124.880557,51.1961579 125.099149,50.4505899 125.531181,49.8787179 C125.959533,49.311998 126.578509,49.024222 127.371917,49.024222 C128.173421,49.024222 128.797549,49.311998 129.225901,49.8787179 C129.657197,50.4505899 129.876525,51.1954219 129.876525,52.0948138 C129.876525,52.9942058 129.657197,53.7397738 129.225901,54.3109097 Z M130.469741,48.851262 C129.741101,48.004126 128.699661,47.574302 127.371917,47.574302 C126.044909,47.574302 125.004205,48.004126 124.280717,48.851998 C123.557965,49.6961899 123.191437,50.7876779 123.191437,52.0948138 C123.191437,53.4107818 123.557965,54.5037417 124.280717,55.3449897 C125.004941,56.1877097 126.044909,56.6153257 127.371917,56.6153257 C128.698925,56.6153257 129.741101,56.1877097 130.469741,55.3449897 C131.196909,54.5037417 131.564909,53.4107818 131.564909,52.0948138 C131.564909,50.7876779 131.196909,49.6961899 130.469741,48.851262 Z M120.524173,47.700894 C120.212845,47.700894 119.948621,47.869438 119.738125,48.203582 L117.263694,52.1993258 L114.73995,48.216094 C114.529454,47.873854 114.251246,47.700894 113.91563,47.700894 C113.691886,47.700894 113.509358,47.770814 113.369518,47.910654 C113.229678,48.050494 113.159022,48.263934 113.159022,48.545086 L113.159022,55.6703017 C113.159022,56.2134697 113.413678,56.4894697 113.91563,56.4894697 C114.417582,56.4894697 114.672238,56.2134697 114.672238,55.6703017 L114.672238,50.7854699 L116.44011,53.5572458 C116.634414,53.8656298 116.88539,54.0223978 117.188622,54.0223978 C117.483022,54.0223978 117.731054,53.8612138 117.924622,53.5447338 L119.667469,50.7273259 L119.667469,55.6703017 C119.667469,55.9087657 119.739597,56.1074857 119.882381,56.2591017 C120.025901,56.4121897 120.224621,56.4894697 120.473389,56.4894697 C120.730989,56.4894697 120.932653,56.4114537 121.071757,56.2583657 C121.210125,56.1067497 121.280045,55.9087657 121.280045,55.6703017 L121.280781,48.532574 C121.280781,48.286014 121.215277,48.08435 121.085741,47.931998 C120.954733,47.77891 120.765581,47.700894 120.524173,47.700894 Z M111.070254,47.700894 L105.103502,47.700894 C104.87387,47.700894 104.68619,47.76419 104.54635,47.890046 C104.405774,48.016638 104.334382,48.195486 104.334382,48.41923 C104.334382,48.634142 104.405774,48.812254 104.545614,48.946942 C104.684718,49.082366 104.872398,49.150078 105.103502,49.150078 L107.279854,49.150078 L107.279854,55.6703017 C107.279854,55.9087657 107.35051,56.1067497 107.488878,56.2583657 C107.628718,56.4114537 107.829646,56.4894697 108.08651,56.4894697 C108.34411,56.4894697 108.545774,56.4114537 108.684878,56.2583657 C108.823246,56.1067497 108.893902,55.9087657 108.893902,55.6703017 L108.893902,49.150078 L111.070254,49.150078 C111.31019,49.150078 111.502286,49.082366 111.64139,48.946942 C111.78123,48.811518 111.851886,48.634142 111.851886,48.41923 C111.851886,48.195486 111.780494,48.016638 111.639918,47.890046 C111.500078,47.76419 111.308718,47.700894 111.070254,47.700894 Z M102.926414,55.6703017 L102.926414,48.532574 C102.926414,47.980574 102.668078,47.700894 102.15803,47.700894 C101.865102,47.700894 101.605294,47.851774 101.385966,48.149854 L97.4130384,53.6485098 L97.4130384,48.532574 C97.4130384,48.29411 97.3431184,48.094654 97.2054864,47.937886 C97.0656464,47.780382 96.8639824,47.700894 96.6063824,47.700894 C96.3399505,47.700894 96.1360785,47.781118 96.0006545,47.938622 C95.8674385,48.094654 95.7997265,48.294846 95.7997265,48.532574 L95.7997265,55.6703017 C95.7997265,55.9256937 95.8681745,56.1280937 96.0021265,56.2716137 C96.1375505,56.4158697 96.3281745,56.4894697 96.5681104,56.4894697 C96.8279184,56.4894697 97.0788944,56.3341737 97.3151504,56.0272617 L101.313102,50.5654059 L101.313102,55.6703017 C101.313102,55.9006697 101.383758,56.0964457 101.52139,56.2517417 C101.660494,56.4092457 101.866574,56.4894697 102.13227,56.4894697 C102.390606,56.4894697 102.589326,56.4114537 102.725486,56.2576297 C102.858702,56.1067497 102.926414,55.9087657 102.926414,55.6703017 Z M90.8677907,48.41923 C90.8677907,48.195486 90.7963987,48.016638 90.6550867,47.890046 C90.5159827,47.76419 90.3246227,47.700894 90.0861587,47.700894 L84.118671,47.700894 C83.889039,47.700894 83.701359,47.76419 83.562255,47.890046 C83.421679,48.016638 83.349551,48.195486 83.349551,48.41923 C83.349551,48.634142 83.420943,48.812254 83.560783,48.946942 C83.699887,49.082366 83.888303,49.150078 84.118671,49.150078 L86.2957589,49.150078 L86.2957589,55.6703017 C86.2957589,55.9087657 86.3656789,56.1067497 86.5040469,56.2583657 C86.6438869,56.4114537 86.8448148,56.4894697 87.1024148,56.4894697 C87.3600148,56.4894697 87.5609428,56.4114537 87.7007828,56.2583657 C87.8391508,56.1067497 87.9090708,55.9087657 87.9090708,55.6703017 L87.9090708,49.150078 L90.0861587,49.150078 C90.3253587,49.150078 90.5174547,49.082366 90.6565587,48.946942 C90.7963987,48.811518 90.8677907,48.634142 90.8677907,48.41923 Z M81.991631,55.0395497 L78.4051032,55.0395497 L78.4051032,52.7005418 L81.1606871,52.7005418 C81.3998871,52.7005418 81.5919831,52.6320938 81.7310871,52.4966698 C81.8709271,52.3619818 81.9423191,52.1838698 81.9423191,51.9689578 C81.9423191,51.7444779 81.8709271,51.5671019 81.7303511,51.4397739 C81.5905111,51.3139179 81.3998871,51.2506219 81.1606871,51.2506219 L78.4051032,51.2506219 L78.4051032,49.150078 L81.8657751,49.150078 C82.096879,49.150078 82.283823,49.084574 82.422927,48.954302 C82.563503,48.822558 82.634159,48.64739 82.634159,48.431742 C82.634159,48.207998 82.563503,48.028414 82.422927,47.897406 C82.283823,47.766398 82.096143,47.700894 81.8657751,47.700894 L77.6109592,47.700894 C77.3540952,47.700894 77.1502233,47.780382 77.0067033,47.937886 C76.8639193,48.093182 76.7910553,48.293374 76.7910553,48.532574 L76.7910553,55.6570537 C76.7910553,55.8962537 76.8661273,56.0971817 77.0133273,56.2532137 C77.1612633,56.4092457 77.3658712,56.4894697 77.6234712,56.4894697 L81.991631,56.4894697 C82.221999,56.4894697 82.409679,56.4232297 82.549519,56.2929577 C82.689359,56.1619497 82.760751,55.9860457 82.760751,55.7703977 C82.760751,55.5473897 82.689359,55.3678057 82.549519,55.2360617 C82.409679,55.1057897 82.221999,55.0395497 81.991631,55.0395497 Z M75.3845593,48.41923 C75.3845593,48.195486 75.3124313,48.016638 75.1718553,47.890046 C75.0320153,47.76419 74.8406553,47.700894 74.6021914,47.700894 L68.6354396,47.700894 C68.4058076,47.700894 68.2181276,47.76419 68.0782876,47.890046 C67.9377116,48.016638 67.8663196,48.195486 67.8663196,48.41923 C67.8663196,48.634142 67.9377116,48.812254 68.0768156,48.946942 C68.2166556,49.082366 68.4043356,49.150078 68.6354396,49.150078 L70.8125275,49.150078 L70.8125275,55.6703017 C70.8125275,55.9087657 70.8824475,56.1067497 71.0208155,56.2583657 C71.1599195,56.4114537 71.3615835,56.4894697 71.6184475,56.4894697 C71.8760475,56.4894697 72.0777115,56.4114537 72.2168155,56.2583657 C72.3551834,56.1067497 72.4258394,55.9087657 72.4258394,55.6703017 L72.4258394,49.150078 L74.6021914,49.150078 C74.8413913,49.150078 75.0342233,49.082366 75.1733273,48.946942 C75.3131673,48.811518 75.3845593,48.634142 75.3845593,48.41923 Z M65.6899677,47.700894 C65.3970397,47.700894 65.1372317,47.851774 64.9186398,48.149854 L60.9449759,53.6485098 L60.9449759,48.532574 C60.9449759,48.29411 60.8750559,48.094654 60.7374239,47.937886 C60.5968479,47.780382 60.3959199,47.700894 60.13832,47.700894 C59.872624,47.700894 59.668752,47.781118 59.532592,47.938622 C59.399376,48.094654 59.331664,48.29411 59.331664,48.532574 L59.331664,55.6703017 C59.331664,55.9256937 59.400112,56.1280937 59.5348,56.2716137 C59.669488,56.4158697 59.860848,56.4894697 60.100784,56.4894697 C60.3598559,56.4894697 60.6100959,56.3341737 60.8470879,56.0272617 L64.8457758,50.5654059 L64.8457758,55.6703017 C64.8457758,55.9006697 64.9156958,56.0964457 65.0533278,56.2517417 C65.1931677,56.4092457 65.3985117,56.4894697 65.6649437,56.4894697 C65.9225437,56.4894697 66.1219997,56.4114537 66.2574237,56.2576297 C66.3913757,56.1067497 66.4590877,55.9087657 66.4590877,55.6703017 L66.4590877,48.532574 C66.4590877,47.980574 66.2000157,47.700894 65.6899677,47.700894 Z M56.4487521,54.6310697 C55.8474401,54.9858217 55.2549602,55.1654057 54.6882402,55.1654057 C53.9765282,55.1654057 53.3818402,54.8901417 52.9203683,54.3462377 C52.4566883,53.8001258 52.2211683,53.0391018 52.2211683,52.0823018 C52.2211683,51.1586219 52.4397603,50.4093739 52.8717923,49.8544299 C53.5717282,48.953566 54.7257762,48.776926 56.2809441,49.373822 C56.8042401,49.5688619 57.1486881,49.4886379 57.3025121,49.145662 C57.4820961,48.760734 57.3746401,48.429534 56.9830881,48.163102 C56.4229921,47.772286 55.6295841,47.574302 54.6249442,47.574302 C53.3479842,47.574302 52.3352483,47.989406 51.6147043,48.806366 C50.8971043,49.6225899 50.5320484,50.7287979 50.5320484,52.0948138 C50.5320484,53.4777578 50.8757603,54.5876457 51.5514083,55.3943017 C52.2300003,56.2046377 53.2471522,56.6153257 54.5748962,56.6153257 C55.6214881,56.6153257 56.4958561,56.3621417 57.1737121,55.8623977 C57.3923041,55.6953257 57.5277281,55.5039657 57.5763041,55.2912617 C57.6256161,55.0748777 57.5910241,54.8871977 57.4740001,54.7348457 C57.2502561,54.4117417 56.9028641,54.3727337 56.4487521,54.6310697 Z M44.8950246,49.131678 C45.2446246,49.086046 45.5964326,49.061758 45.9386725,49.061758 C47.0986085,49.061758 47.6623845,49.5357419 47.6623845,50.5087339 C47.6623845,51.5501739 47.0691685,52.0558058 45.8503525,52.0558058 C45.4514406,52.0558058 45.1305446,52.0410858 44.8950246,52.0123818 L44.8950246,49.131678 Z M49.3507684,50.4711979 C49.3507684,49.5018859 49.0460644,48.778398 48.4432804,48.321342 C47.8449125,47.86723 47.0154405,47.637598 45.9762085,47.637598 C45.2372646,47.637598 44.5822246,47.692798 44.0280166,47.802462 C43.5319526,47.899614 43.2809767,48.21315 43.2809767,48.734238 L43.2817127,55.6703017 C43.2817127,55.9087657 43.3516327,56.1067497 43.4900006,56.2583657 C43.6298406,56.4114537 43.8307686,56.4894697 44.0876326,56.4894697 C44.3364006,56.4894697 44.5358566,56.4121897 44.6793766,56.2591017 C44.8221606,56.1074857 44.8950246,55.9095017 44.8950246,55.6703017 L44.8950246,53.4137258 C45.1460006,53.4497898 45.4963366,53.4681898 45.9386725,53.4681898 C46.9447845,53.4681898 47.7727845,53.2142698 48.4005924,52.7137898 C49.0313444,52.2111018 49.3507684,51.4559659 49.3507684,50.4711979 Z M41.4733607,56.2929577 C41.6139367,56.1619497 41.6853287,55.9860457 41.6853287,55.7703977 C41.6853287,55.5473897 41.6139367,55.3678057 41.4733607,55.2360617 C41.3342567,55.1057897 41.1465767,55.0395497 40.9162088,55.0395497 L37.3296809,55.0395497 L37.3296809,52.7005418 L40.0852648,52.7005418 C40.3252008,52.7005418 40.5165608,52.6320938 40.6564008,52.4966698 C40.7955048,52.3619818 40.8668968,52.1838698 40.8668968,51.9689578 C40.8668968,51.7444779 40.7955048,51.5671019 40.6549288,51.4397739 C40.5150888,51.3139179 40.3237288,51.2506219 40.0852648,51.2506219 L37.3296809,51.2506219 L37.3296809,49.150078 L40.7903528,49.150078 C41.0207207,49.150078 41.2084007,49.084574 41.3475047,48.954302 C41.4880807,48.822558 41.5587367,48.64739 41.5587367,48.431742 C41.5587367,48.207998 41.4880807,48.028414 41.3475047,47.897406 C41.2084007,47.766398 41.0207207,47.700894 40.7903528,47.700894 L36.5355369,47.700894 C36.2779369,47.700894 36.074801,47.780382 35.930545,47.937886 C35.788497,48.093182 35.716369,48.293374 35.716369,48.532574 L35.716369,55.6570537 C35.716369,55.8962537 35.790705,56.0971817 35.937905,56.2532137 C36.085841,56.4092457 36.2911849,56.4894697 36.5480489,56.4894697 L40.9162088,56.4894697 C41.1465767,56.4894697 41.3342567,56.4232297 41.4733607,56.2929577 Z M31.7044331,54.8975017 C31.4004651,55.0999017 30.9375212,55.2029417 30.3295852,55.2029417 C29.7842092,55.2029417 29.3102252,55.1793897 28.9201453,55.1337577 L28.9201453,52.6122218 L30.3170732,52.6122218 C31.5528171,52.6122218 32.1533931,53.0317418 32.1533931,53.8950698 C32.1533931,54.3609577 32.0025131,54.6987817 31.7044331,54.8975017 Z M30.1529452,51.3764779 L28.9201453,51.3764779 L28.9201453,49.057342 C29.3028652,49.018334 29.6752812,48.999198 30.0270892,48.999198 C31.1781932,48.999198 31.7382891,49.365726 31.7382891,50.1186539 C31.7382891,50.9650539 31.2194092,51.3764779 30.1529452,51.3764779 Z M32.3278251,51.7834859 C32.6354731,51.6200939 32.8857131,51.3831019 33.0733931,51.0769259 C33.2831531,50.7339499 33.3898731,50.3607979 33.3898731,49.9677739 C33.3898731,48.421438 32.3042731,47.637598 30.1661932,47.637598 C29.4117932,47.637598 28.7265773,47.688382 28.1304173,47.78995 C27.6255213,47.877534 27.3701293,48.178558 27.3701293,48.683454 L27.3701293,55.5569577 C27.3701293,56.0544937 27.6225773,56.3422697 28.1186413,56.4129257 C28.7133293,56.5056617 29.4360812,56.5520297 30.2662892,56.5520297 C32.6141291,56.5520297 33.804977,55.6371817 33.804977,53.8317738 C33.804977,53.3276138 33.6614571,52.8874858 33.3780971,52.5231658 C33.1197611,52.1890218 32.7664811,51.9417258 32.3278251,51.7834859 Z M18.7228657,56.4894697 C18.9826737,56.4894697 19.2329137,56.3341737 19.4699056,56.0272617 L23.4678575,50.5654059 L23.4678575,55.6703017 C23.4678575,55.9006697 23.5377775,56.0964457 23.6761455,56.2517417 C23.8152495,56.4092457 24.0205935,56.4894697 24.2870254,56.4894697 C24.5446254,56.4894697 24.7440814,56.4114537 24.8795054,56.2576297 C25.0134574,56.1067497 25.0811694,55.9087657 25.0811694,55.6703017 L25.0811694,48.532574 C25.0811694,47.980574 24.8220974,47.700894 24.3127854,47.700894 C24.0198575,47.700894 23.7600495,47.851774 23.5407215,48.149854 L19.5677936,53.6485098 L19.5677936,48.532574 C19.5677936,48.29411 19.4978736,48.094654 19.3595056,47.937886 C19.2196657,47.780382 19.0187377,47.700894 18.7611377,47.700894 C18.4947057,47.700894 18.2908337,47.781118 18.1554097,47.938622 C18.0221937,48.094654 17.9537457,48.29411 17.9537457,48.532574 L17.9537457,55.6703017 C17.9537457,55.9256937 18.0221937,56.1280937 18.1568817,56.2716137 C18.2923057,56.4158697 18.4829297,56.4894697 18.7228657,56.4894697 Z M9.34475406,56.4894697 C9.59352205,56.4894697 9.79224204,56.4121897 9.93649804,56.2591017 C10.078546,56.1074857 10.15141,55.9095017 10.15141,55.6703017 L10.15141,52.7255658 L14.0522099,52.7255658 L14.0522099,55.6703017 C14.0522099,55.9087657 14.1221299,56.1067497 14.2604979,56.2583657 C14.3996019,56.4114537 14.6012658,56.4894697 14.8588658,56.4894697 C15.1076338,56.4894697 15.3063538,56.4121897 15.4498738,56.2591017 C15.5926578,56.1074857 15.6647858,55.9095017 15.6647858,55.6703017 L15.6647858,48.532574 C15.6647858,48.29411 15.5926578,48.093918 15.4506098,47.937886 C15.3063538,47.780382 15.1076338,47.700894 14.8588658,47.700894 C14.6012658,47.700894 14.3996019,47.780382 14.2597619,47.937886 C14.1221299,48.093918 14.0522099,48.29411 14.0522099,48.532574 L14.0522099,51.2756459 L10.15141,51.2756459 L10.15141,48.532574 C10.15141,48.293374 10.079282,48.093182 9.93649804,47.937886 C9.79224204,47.780382 9.59425805,47.700894 9.34475406,47.700894 C9.08789007,47.700894 8.88622608,47.780382 8.74565009,47.937886 C8.60801809,48.094654 8.5380981,48.29411 8.5380981,48.532574 L8.5380981,55.6703017 C8.5380981,55.9087657 8.60801809,56.1067497 8.74712209,56.2583657 C8.88622608,56.4114537 9.08715407,56.4894697 9.34475406,56.4894697 Z M6.97557016,48.891742 C7.11025815,48.567902 7.13601815,48.302942 7.05137816,48.104958 C6.98661016,47.954078 6.85781017,47.839998 6.66865817,47.766398 C6.20718619,47.597854 5.84139421,47.817918 5.59630622,48.412606 L3.87406629,52.5894058 L1.49825839,48.32355 C1.35841839,48.059326 1.1891384,47.880478 0.995570408,47.792894 C0.799058416,47.703102 0.582674425,47.71635 0.351570435,47.836318 C0.136658444,47.956286 0.0196344487,48.141022 0.00270644936,48.385374 C-0.0142215499,48.623102 0.0483384475,48.86083 0.188178442,49.091198 L3.10715432,54.1637098 C2.97835433,54.4978537 2.84072233,54.7495657 2.69793834,54.9122217 C2.55515434,55.0741417 2.39102635,55.1528937 2.19525036,55.1528937 C2.10619436,55.1528937 2.02302637,55.1447977 1.94721837,55.1286057 C1.87067437,55.1131497 1.78088238,55.0837097 1.67931438,55.0432297 C1.57038638,54.9998057 1.49605039,54.9740457 1.45557039,54.9659497 C1.01691441,54.8231657 0.71736242,54.9468137 0.573106426,55.3243817 C0.411922432,55.7534697 0.568690426,56.1008617 1.03678641,56.3569897 C1.34517039,56.5284777 1.76027438,56.6153257 2.27032236,56.6153257 C2.83777833,56.6153257 3.31029031,56.3996777 3.6753463,55.9742697 C4.03377828,55.5562217 4.41576227,54.8761577 4.81025825,53.9532138 L6.97557016,48.891742 Z M100.238542,4.7251198 C100.238542,5.28227178 99.7866383,5.73491176 99.2294863,5.73491176 C98.6715984,5.73491176 98.2204304,5.28227178 98.2204304,4.7251198 C98.2204304,4.16796783 98.6715984,3.71606385 99.2294863,3.71606385 C99.7866383,3.71606385 100.238542,4.16796783 100.238542,4.7251198 Z M92.8056786,1.00905596 C92.8056786,1.56694394 92.3545106,2.01811192 91.7973586,2.01811192 C91.2387347,2.01811192 90.7875667,1.56694394 90.7875667,1.00905596 C90.7875667,0.451903981 91.2387347,-5.22959432e-15 91.7973586,-5.22959432e-15 C92.3545106,-5.22959432e-15 92.8056786,0.451903981 92.8056786,1.00905596 Z M70.5078235,4.7251198 C70.5078235,5.28227178 70.0559195,5.73491176 69.4987676,5.73491176 C68.9408796,5.73491176 68.4889756,5.28227178 68.4889756,4.7251198 C68.4889756,4.16796783 68.9408796,3.71606385 69.4987676,3.71606385 C70.0559195,3.71606385 70.5078235,4.16796783 70.5078235,4.7251198 Z M93.5225426,15.8740473 C93.5225426,16.8279033 92.7504786,17.6007033 91.7966226,17.6007033 C90.8435027,17.6007033 90.0699667,16.8279033 90.0699667,15.8740473 C90.0707027,14.9209274 90.8435027,14.1481274 91.7966226,14.1481274 C92.7504786,14.1481274 93.5225426,14.9209274 93.5225426,15.8740473 Z M92.8056786,23.306175 C92.8056786,23.864063 92.3545106,24.315967 91.7966226,24.315967 C91.2387347,24.315967 90.7875667,23.864063 90.7875667,23.306911 C90.7875667,22.7497591 91.2387347,22.2978551 91.7966226,22.2978551 C92.3545106,22.2978551 92.8056786,22.7497591 92.8056786,23.306175 Z M86.9537428,12.1579835 C86.9537428,13.5880314 85.7938069,14.7479674 84.363759,14.7479674 C82.933711,14.7479674 81.7745111,13.5880314 81.7745111,12.1579835 C81.7745111,10.7286716 82.933711,9.5687356 84.363759,9.5687356 C85.7945429,9.5687356 86.9537428,10.7286716 86.9537428,12.1579835 Z M94.3866065,8.44191965 C94.3866065,9.87196759 93.2266706,11.0311675 91.7966226,11.0311675 C90.3665747,11.0311675 89.2066388,9.87196759 89.2066388,8.44191965 C89.2066388,7.01187171 90.3658387,5.85193576 91.7966226,5.85193576 C93.2266706,5.85193576 94.3866065,7.01187171 94.3866065,8.44191965 Z M85.3735509,27.0229749 C85.3735509,27.5808629 84.9216469,28.0327668 84.363759,28.0327668 C83.807343,28.0327668 83.354703,27.5808629 83.354703,27.0229749 C83.354703,26.4658229 83.807343,26.0139189 84.363759,26.0139189 C84.9223829,26.0139189 85.3735509,26.4658229 85.3735509,27.0229749 Z M100.238542,12.1579835 C100.238542,12.7151355 99.7866383,13.1670395 99.2294863,13.1670395 C98.6723344,13.1670395 98.2204304,12.7151355 98.2204304,12.1579835 C98.2204304,11.6008315 98.6723344,11.1489275 99.2294863,11.1489275 C99.7866383,11.1489275 100.238542,11.6008315 100.238542,12.1579835 Z M55.6428321,4.7251198 C55.6428321,5.28227178 55.1909282,5.73491176 54.6330402,5.73491176 C54.0758882,5.73491176 53.6247202,5.28227178 53.6247202,4.7251198 C53.6247202,4.16796783 54.0758882,3.71606385 54.6330402,3.71606385 C55.1909282,3.71606385 55.6420961,4.16796783 55.6428321,4.7251198 Z M40.7778408,4.7251198 C40.7778408,5.28227178 40.3259368,5.73491176 39.7680488,5.73491176 C39.2101608,5.73491176 38.7589928,5.28227178 38.7589928,4.7251198 C38.7589928,4.16796783 39.2101608,3.71606385 39.7680488,3.71606385 C40.3259368,3.71606385 40.7778408,4.16796783 40.7778408,4.7251198 Z M63.0227038,30.7397747 C63.0227038,31.2969267 62.5707999,31.7488307 62.0136479,31.7488307 C61.4557599,31.7488307 61.0038559,31.2969267 61.0038559,30.7397747 C61.0038559,30.1826227 61.4557599,29.7299828 62.0136479,29.7299828 C62.5707999,29.7299828 63.0227038,30.1826227 63.0227038,30.7397747 Z M48.2099685,1.00905596 C48.2099685,1.56694394 47.7580645,2.01811192 47.2009125,2.01811192 C46.6437605,2.01811192 46.1918565,1.56694394 46.1918565,1.00905596 C46.1918565,0.451903981 46.6430245,-5.22959432e-15 47.2009125,-5.22959432e-15 C47.7588005,-5.22959432e-15 48.2099685,0.451903981 48.2099685,1.00905596 Z M48.2099685,23.254655 C48.2099685,23.811807 47.7580645,24.263711 47.2009125,24.263711 C46.6437605,24.263711 46.1918565,23.811807 46.1918565,23.254655 C46.1918565,22.6967671 46.6430245,22.2448631 47.2009125,22.2448631 C47.7588005,22.2448631 48.2099685,22.6967671 48.2099685,23.254655 Z M33.3449771,15.8740473 C33.3449771,16.4311993 32.8923371,16.8838393 32.3351851,16.8838393 C31.7780331,16.8838393 31.3261292,16.4311993 31.3261292,15.8740473 C31.3261292,15.3161594 31.7780331,14.8649914 32.3351851,14.8649914 C32.8923371,14.8649914 33.3449771,15.3161594 33.3449771,15.8740473 Z M33.3449771,23.306175 C33.3449771,23.864063 32.8923371,24.315967 32.3351851,24.315967 C31.7780331,24.315967 31.3261292,23.864063 31.3261292,23.306911 C31.3261292,22.7497591 31.7780331,22.2978551 32.3351851,22.2978551 C32.8923371,22.2978551 33.3449771,22.7497591 33.3449771,23.306175 Z M49.7901604,15.8740473 C49.7901604,17.3048313 48.6309604,18.4640312 47.2009125,18.4640312 C45.7708646,18.4640312 44.6109286,17.3048313 44.6109286,15.8740473 C44.6109286,14.4439994 45.7708646,13.2840634 47.2009125,13.2840634 C48.6309604,13.2840634 49.7901604,14.4439994 49.7901604,15.8740473 Z M56.3596961,27.0229749 C56.3596961,27.9768308 55.5876321,28.7496308 54.6337762,28.7496308 C53.6799202,28.7496308 52.9071203,27.9768308 52.9071203,27.0229749 C52.9071203,26.0698549 53.6799202,25.2970544 54.6337762,25.2970544 C55.5876321,25.296319 56.3596961,26.0698549 56.3596961,27.0229749 Z M63.7925598,8.44191965 C63.7925598,9.39503961 63.0197598,10.1678396 62.0666399,10.1678396 C61.1127839,10.1678396 60.3392479,9.39503961 60.3392479,8.44191965 C60.3392479,7.48806369 61.1127839,6.7152632 62.0666399,6.7152632 C63.0197598,6.71452772 63.7925598,7.48806369 63.7925598,8.44191965 Z M86.0904149,19.5908472 C86.0904149,20.5439671 85.3168789,21.3167671 84.363759,21.3167671 C83.410639,21.3167671 82.637103,20.5439671 82.637103,19.5908472 C82.637103,18.6369912 83.410639,17.8641913 84.363759,17.8641913 C85.3168789,17.8641913 86.0904149,18.6369912 86.0904149,19.5908472 Z M86.0904149,4.7251198 C86.0904149,5.67897576 85.3168789,6.45177573 84.363759,6.45177573 C83.409903,6.45177573 82.637103,5.67897576 82.637103,4.7251198 C82.637103,3.77199984 83.409903,2.99919988 84.363759,2.99919988 C85.3168789,2.99919988 86.0904149,3.77199984 86.0904149,4.7251198 Z M79.5208792,8.44191965 C79.5208792,9.87196759 78.3616792,11.0311675 76.9308953,11.0311675 C75.5015833,11.0311675 74.3416474,9.87196759 74.3416474,8.44191965 C74.3416474,7.01113571 75.5015833,5.85193576 76.9308953,5.85193576 C78.3616792,5.85193576 79.5208792,7.01113571 79.5208792,8.44191965 Z M63.7925598,23.306175 C63.7925598,24.260031 63.0197598,25.033567 62.0666399,25.033567 C61.1127839,25.033567 60.3392479,24.260031 60.3392479,23.306911 C60.3392479,22.3530551 61.1127839,21.5802551 62.0666399,21.5802551 C63.0197598,21.5802551 63.7925598,22.3530551 63.7925598,23.306175 Z M72.0880155,12.1579835 C72.0880155,13.5880314 70.9280795,14.7479674 69.4980316,14.7479674 C68.0679836,14.7479674 66.9087837,13.5880314 66.9087837,12.1579835 C66.9087837,10.7271996 68.0679836,9.5687356 69.4980316,9.5687356 C70.9280795,9.5687356 72.0880155,10.7271996 72.0880155,12.1579835 Z M79.5208792,15.8740473 C79.5208792,17.3048313 78.3609432,18.4632952 76.9316313,18.4632952 C75.5015833,18.4632952 74.3416474,17.3048313 74.3416474,15.8740473 C74.3416474,14.4439994 75.5015833,13.2847994 76.9316313,13.2847994 C78.3609432,13.2847994 79.5208792,14.4439994 79.5208792,15.8740473 Z M78.6582872,23.306175 C78.6582872,24.260031 77.8847512,25.033567 76.9316313,25.033567 C75.9777753,25.033567 75.2049753,24.260031 75.2049753,23.306911 C75.2049753,22.3537911 75.9777753,21.5802551 76.9316313,21.5802551 C77.8847512,21.5802551 78.6582872,22.3537911 78.6582872,23.306175 Z M71.2254235,27.0229749 C71.2254235,27.9768308 70.4518875,28.7496308 69.4980316,28.7496308 C68.5456476,28.7496308 67.7713756,27.9768308 67.7713756,27.0229749 C67.7713756,26.0698549 68.5456476,25.2970544 69.4980316,25.2970544 C70.4518875,25.296319 71.2254235,26.0698549 71.2254235,27.0229749 Z M72.0880155,19.5908472 C72.0880155,21.0208951 70.9280795,22.1808311 69.4980316,22.1808311 C68.0679836,22.1808311 66.9087837,21.0208951 66.9087837,19.5908472 C66.9087837,18.1607992 68.0679836,17.0008633 69.4980316,17.0008633 C70.9280795,17.0008633 72.0880155,18.1607992 72.0880155,19.5908472 Z M57.2230241,19.5908472 C57.2230241,21.0208951 56.0638241,22.1808311 54.6337762,22.1808311 C53.2037282,22.1808311 52.0437923,21.0208951 52.0437923,19.5908472 C52.0437923,18.1607992 53.2037282,17.0008633 54.6337762,17.0008633 C56.0638241,17.0008633 57.2230241,18.1607992 57.2230241,19.5908472 Z M64.6558878,15.8740473 C64.6558878,17.3048313 63.4959518,18.4640312 62.0666399,18.4640312 C60.6358559,18.4640312 59.476656,17.3048313 59.476656,15.8740473 C59.476656,14.4439994 60.6358559,13.2840634 62.0666399,13.2840634 C63.4966878,13.2840634 64.6558878,14.4439994 64.6558878,15.8740473 Z M57.2230241,12.1579835 C57.2230241,13.5880314 56.0638241,14.7479674 54.6337762,14.7479674 C53.2037282,14.7479674 52.0437923,13.5880314 52.0437923,12.1579835 C52.0437923,10.7279356 53.2037282,9.5679996 54.6337762,9.5679996 C56.0638241,9.5679996 57.2230241,10.7279356 57.2230241,12.1579835 Z M49.7901604,8.44191965 C49.7901604,9.87196759 48.6302244,11.0319035 47.2009125,11.0319035 C45.7708646,11.0319035 44.6109286,9.87196759 44.6109286,8.44191965 C44.6109286,7.01113571 45.7708646,5.85193576 47.2009125,5.85193576 C48.6302244,5.85193576 49.7901604,7.01113571 49.7901604,8.44191965 L49.7901604,8.44191965 Z"/>
    <path fill="#D91F43" d="M42.3580327,12.1579835 C42.3580327,13.5880314 41.1988327,14.7479674 39.7680488,14.7479674 C38.3387369,14.7479674 37.1780649,13.5880314 37.1780649,12.1579835 C37.1780649,10.7279356 38.3380009,9.5687356 39.7680488,9.5687356 C41.1988327,9.5687356 42.3580327,10.7279356 42.3580327,12.1579835"/>
  </g>
</svg>
