<svg xmlns="http://www.w3.org/2000/svg" xmlns:xlink="http://www.w3.org/1999/xlink" width="103" height="71" viewBox="0 0 103 71">
  <defs>
    <polygon id="logo-shad-a" points="0 40.79 95.19 40.79 95.19 0 0 0"/>
    <polygon id="logo-shad-c" points="0 40.79 95.19 40.79 95.19 0 0 0"/>
    <polygon id="logo-shad-e" points="0 40.79 95.19 40.79 95.19 0 0 0"/>
    <polygon id="logo-shad-g" points="0 40.79 95.19 40.79 95.19 0 0 0"/>
    <polygon id="logo-shad-i" points="0 40.79 95.19 40.79 95.19 0 0 0"/>
    <polygon id="logo-shad-k" points="0 40.79 95.19 40.79 95.19 0 0 0"/>
    <polygon id="logo-shad-m" points="0 40.79 95.19 40.79 95.19 0 0 0"/>
    <polygon id="logo-shad-o" points="0 40.79 95.19 40.79 95.19 0 0 0"/>
    <polygon id="logo-shad-q" points="0 40.79 95.19 40.79 95.19 0 0 0"/>
    <polygon id="logo-shad-s" points="0 40.79 95.19 40.79 95.19 0 0 0"/>
    <polygon id="logo-shad-u" points="0 40.79 95.19 40.79 95.19 0 0 0"/>
    <polygon id="logo-shad-w" points="0 40.79 95.19 40.79 95.19 0 0 0"/>
    <polygon id="logo-shad-y" points="0 40.79 95.19 40.79 95.19 0 0 0"/>
    <polygon id="logo-shad-A" points="0 40.79 95.19 40.79 95.19 0 0 0"/>
    <polygon id="logo-shad-C" points="0 40.79 95.19 40.79 95.19 0 0 0"/>
    <polygon id="logo-shad-E" points="0 40.79 95.19 40.79 95.19 0 0 0"/>
    <polygon id="logo-shad-G" points="0 40.79 95.19 40.79 95.19 0 0 0"/>
    <polygon id="logo-shad-I" points="0 40.79 95.19 40.79 95.19 0 0 0"/>
    <polygon id="logo-shad-K" points="0 40.79 95.19 40.79 95.19 0 0 0"/>
    <polygon id="logo-shad-M" points="0 40.79 95.19 40.79 95.19 0 0 0"/>
  </defs>
  <g fill="none" fill-rule="evenodd" transform="translate(4 15)">
    <path fill="#DA3229" fill-rule="nonzero" d="M48.4948697,1.07114951 C41.4796976,1.07114951 35.792715,6.75573857 35.792715,13.7679582 C35.792715,20.7809444 41.4796976,26.4655335 48.4948697,26.4655335 C55.5100418,26.4655335 61.1970244,20.7809444 61.1970244,13.7679582 C61.1970244,6.75573857 55.5100418,1.07114951 48.4948697,1.07114951"/>
    <mask id="logo-shad-b" fill="#fff">
      <use xlink:href="#logo-shad-a"/>
    </mask>
    <polygon fill="#000" fill-rule="nonzero" points="71.281 25.541 94.886 25.541 94.886 1.944 71.281 1.944" mask="url(#logo-shad-b)"/>
    <mask id="logo-shad-d" fill="#fff">
      <use xlink:href="#logo-shad-c"/>
    </mask>
    <polygon fill="#FACB26" fill-rule="nonzero" points="7.635 12.75 .252 25.541 29.746 25.541 22.375 12.75 15.005 0" mask="url(#logo-shad-d)"/>
    <mask id="logo-shad-f" fill="#fff">
      <use xlink:href="#logo-shad-e"/>
    </mask>
    <polygon fill="#000" fill-rule="nonzero" points="2.355 39.15 2.355 34.957 3.017 34.957 3.017 39.15 4.71 39.15 4.71 34.957 5.372 34.957 5.372 39.679 0 39.679 0 34.918 .662 34.918 .662 39.15" mask="url(#logo-shad-f)"/>
    <mask id="logo-shad-h" fill="#fff">
      <use xlink:href="#logo-shad-g"/>
    </mask>
    <path fill="#000" fill-rule="nonzero" d="M7.58202995,36.9012309 L7.74076854,36.9012309 C7.99383007,36.9142619 8.24459103,36.8445076 8.45547563,36.7026996 C8.60424513,36.5340628 8.72464107,36.3416637 8.81206232,36.133934 L8.95776441,35.7108093 C9.00684301,35.4900485 9.11190188,35.2853849 9.26220509,35.1159817 C9.48689305,34.9182168 9.78596576,34.8269998 10.0827379,34.8645598 L10.0827379,35.3804347 C9.93166784,35.3858004 9.78749946,35.4417571 9.6724715,35.5391064 C9.56587892,35.652553 9.49762899,35.7958942 9.47385654,35.9492002 L9.27524159,36.4114181 C9.20469111,36.5846539 9.10116594,36.7417925 8.97156777,36.8751689 C8.83506791,37.0177435 8.65179002,37.1074275 8.45547563,37.1265908 C8.68399785,37.1649173 8.89564931,37.2706985 9.06359014,37.4301369 C9.21235964,37.59954 9.33275557,37.7919391 9.42094368,37.9996689 L9.72538436,38.660418 C9.77446296,38.8313543 9.86035051,38.9892596 9.97691218,39.1234024 C10.0773699,39.2046545 10.2054344,39.2429811 10.3342657,39.2291836 L10.3342657,39.7979491 C10.0766031,39.858505 9.80590394,39.8163458 9.57968227,39.6791368 C9.42707851,39.4790725 9.31895222,39.2491134 9.26220509,39.0045902 L8.95776441,38.2372933 C8.86650889,38.0318632 8.74687981,37.8402306 8.60117772,37.6685277 C8.40639703,37.534385 8.1748074,37.4646307 7.9393835,37.4699964 L7.63494282,37.4699964 L7.63494282,39.6791368 L6.97314859,39.6791368 L6.97314859,34.9174503 L7.63494282,34.9174503 L7.63494282,36.9012309 L7.58202995,36.9012309 Z" mask="url(#logo-shad-h)"/>
    <mask id="logo-shad-j" fill="#fff">
      <use xlink:href="#logo-shad-i"/>
    </mask>
    <path fill="#000" fill-rule="nonzero" d="M14.7402202,39.2554755 C14.3406897,39.6326085 13.8077268,39.8372721 13.2578932,39.8242411 C12.7034584,39.8686999 12.1589927,39.6594371 11.776333,39.2554755 C10.8890839,38.1110458 10.8890839,36.5120634 11.776333,35.3676336 C12.1697286,34.9966329 12.6911887,34.7927358 13.2318202,34.7988681 C13.7862549,34.7544094 14.3314875,34.9629056 14.7141472,35.3676336 C15.6013962,36.5120634 15.6013962,38.1110458 14.7141472,39.2554755 M12.2924251,35.8298515 C11.9580772,36.248377 11.7932037,36.7772829 11.8292458,37.3115546 C11.817743,37.8419936 11.9803159,38.3624677 12.2924251,38.7924913 C12.7878122,39.329829 13.6252158,39.3635563 14.162013,38.8676112 C14.188086,38.8438487 14.2133921,38.8193198 14.2371646,38.7924913 C14.5715125,38.3747321 14.7371528,37.8458262 14.7003438,37.3115546 C14.7118466,36.780349 14.5492738,36.2598749 14.2371646,35.8298515 C13.9825693,35.5630989 13.6275164,35.4136254 13.2578932,35.4197577 C12.8852026,35.391396 12.5201805,35.5439356 12.2793886,35.8298515" mask="url(#logo-shad-j)"/>
    <mask id="logo-shad-l" fill="#fff">
      <use xlink:href="#logo-shad-k"/>
    </mask>
    <path fill="#000" fill-rule="nonzero" d="M17.8233531,35.5260755 L17.8233531,35.7108093 L17.8233531,37.2982936 C17.8302548,38.0655904 17.614769,38.8198564 17.2014352,39.4675745 C16.9376377,39.7151638 16.5841185,39.8447074 16.2221638,39.8240111 L16.1163381,39.2552456 C16.3210879,39.2452807 16.518936,39.176293 16.6853431,39.0567142 C17.0641685,38.497147 17.2459127,37.8271996 17.2014352,37.1526528 L17.2014352,35.6709497 L17.2014352,34.9036528 L19.9137946,34.9036528 L19.9137946,39.6791368 L19.2520004,39.6791368 L19.2520004,35.4731848 L17.8233531,35.4731848 L17.8233531,35.5260755 Z" mask="url(#logo-shad-l)"/>
    <mask id="logo-shad-n" fill="#fff">
      <use xlink:href="#logo-shad-m"/>
    </mask>
    <path fill="#000" fill-rule="nonzero" d="M21.6606093,39.6791368 L20.9459022,39.6791368 L22.9443214,34.9174503 L23.5133264,34.9174503 L25.4979422,39.6791368 L24.7832351,39.6791368 L24.267143,38.3561054 L22.1767014,38.3561054 L21.6606093,39.6791368 Z M23.1950823,35.7108093 L22.3753164,37.813402 L24.0156152,37.813402 L23.1950823,35.7108093 Z" mask="url(#logo-shad-n)"/>
    <mask id="logo-shad-p" fill="#fff">
      <use xlink:href="#logo-shad-o"/>
    </mask>
    <path fill="#000" fill-rule="nonzero" d="M28.77946,39.6791368 L28.01184,39.6791368 L30.0094923,34.9174503 L30.5792642,34.9174503 L32.56388,39.6791368 L31.8491729,39.6791368 L31.3330808,38.3561054 L29.2426392,38.3561054 L28.77946,39.6791368 Z M30.313933,35.7108093 L29.4941671,37.813402 L31.1344658,37.813402 L30.313933,35.7108093 Z" mask="url(#logo-shad-p)"/>
    <mask id="logo-shad-r" fill="#fff">
      <use xlink:href="#logo-shad-q"/>
    </mask>
    <polygon fill="#000" fill-rule="nonzero" points="34.258 39.679 33.596 39.679 33.596 34.917 34.258 34.917 34.258 36.915 36.454 36.915 36.454 34.957 37.116 34.957 37.116 39.679 36.454 39.679 36.454 37.523 34.258 37.523" mask="url(#logo-shad-r)"/>
    <mask id="logo-shad-t" fill="#fff">
      <use xlink:href="#logo-shad-s"/>
    </mask>
    <path fill="#000" fill-rule="nonzero" d="M38.8619678,39.6791368 L38.1472607,39.6791368 L40.1456799,34.9174503 L40.7146849,34.9174503 L42.6993007,39.6791368 L41.9845936,39.6791368 L41.4685015,38.3561054 L39.37806,38.3561054 L38.8619678,39.6791368 Z M40.3964409,35.7108093 L39.5766749,37.813402 L41.2169737,37.813402 L40.3964409,35.7108093 Z" mask="url(#logo-shad-t)"/>
    <mask id="logo-shad-v" fill="#fff">
      <use xlink:href="#logo-shad-u"/>
    </mask>
    <path fill="#000" fill-rule="nonzero" d="M44.9882039,35.5260755 L44.9882039,35.7108093 L44.9882039,37.2982936 C45.0165774,38.0694232 44.8187293,38.8321208 44.4191989,39.4936365 C44.1561682,39.7419923 43.8018821,39.8707695 43.4399274,39.8508397 L43.3341017,39.2820741 C43.5388515,39.2721093 43.7366996,39.2031215 43.9031067,39.0843094 C44.2612271,38.5209095 44.4238,37.8563277 44.366286,37.1925124 L44.366286,35.7108093 L44.366286,34.9435124 L47.1054853,34.9435124 L47.1054853,39.6791368 L46.443691,39.6791368 L46.443691,35.4731848 L44.9882039,35.4731848 L44.9882039,35.5260755 Z" mask="url(#logo-shad-v)"/>
    <mask id="logo-shad-x" fill="#fff">
      <use xlink:href="#logo-shad-w"/>
    </mask>
    <polygon fill="#000" fill-rule="nonzero" points="51.459 35.42 51.459 34.957 52.121 34.957 52.121 39.679 51.459 39.679 51.459 36.293 49.302 39.256 49.302 39.771 48.641 39.771 48.641 35.011 49.302 35.011 49.302 38.436" mask="url(#logo-shad-x)"/>
    <mask id="logo-shad-z" fill="#fff">
      <use xlink:href="#logo-shad-y"/>
    </mask>
    <path fill="#000" fill-rule="nonzero" d="M53.5097055,35.3674037 C53.9322416,34.9925703 54.4797747,34.7894398 55.0441786,34.7986382 C55.5226949,34.7557125 55.9981438,34.9036528 56.367767,35.2087318 C56.6024241,35.4586207 56.7304885,35.791295 56.7251206,36.133934 C56.7473593,36.4229159 56.6353988,36.7065322 56.4206799,36.9012309 C56.2619413,37.0522373 56.0656269,37.1572521 55.8516749,37.2055435 C56.0932336,37.2546014 56.3194553,37.3588495 56.5134691,37.509856 C56.72282,37.7298502 56.83248,38.0264975 56.8171429,38.3292769 C56.8248115,38.748569 56.6338651,39.1463983 56.3018177,39.4016529 C55.9091889,39.6569075 55.4460096,39.7818519 54.9782292,39.758856 C54.5971032,39.7665214 54.2175109,39.7128642 53.8540226,39.5994178 C53.6101633,39.504368 53.3854753,39.3656259 53.1922284,39.189324 L53.5495819,38.7271061 C53.7274918,38.8627821 53.9184382,38.9823608 54.1185869,39.0843094 C54.3800838,39.1854914 54.6576846,39.239915 54.9383529,39.2429811 C55.2098189,39.2705762 55.4820517,39.2000554 55.7059728,39.0444498 C55.9061215,38.861249 56.0173152,38.6006286 56.0104135,38.3292769 C56.018082,38.0885865 55.9038209,37.8601604 55.7059728,37.7214184 C55.3555209,37.5573809 54.9674933,37.4899262 54.5809993,37.5236535 L54.4222607,37.5236535 L54.4222607,37.0338407 L54.5809993,37.0338407 C54.8808389,37.0476382 55.1799116,36.9939811 55.4552118,36.8751689 C55.720543,36.7663216 55.8861833,36.5003355 55.8647114,36.2136532 C55.8593434,36.0074565 55.7496834,35.8188901 55.5740741,35.7108093 C55.3593552,35.5781995 55.1116617,35.5099783 54.859367,35.5122779 C54.4176596,35.5230094 53.9889887,35.6663506 53.6285678,35.9231382 L53.5097055,35.3674037 Z" mask="url(#logo-shad-z)"/>
    <mask id="logo-shad-B" fill="#fff">
      <use xlink:href="#logo-shad-A"/>
    </mask>
    <path fill="#000" fill-rule="nonzero" d="M58.3261565,39.6791368 L57.6114494,39.6791368 L59.5431523,34.9573099 L60.1129242,34.9573099 L62.1903292,39.6791368 L61.4748553,39.6791368 L60.95953,38.3561054 L58.8292121,38.3561054 L58.3261565,39.6791368 Z M59.9135424,35.7108093 L59.0937764,37.813402 L60.7340752,37.813402 L59.9135424,35.7108093 Z" mask="url(#logo-shad-B)"/>
    <mask id="logo-shad-D" fill="#fff">
      <use xlink:href="#logo-shad-C"/>
    </mask>
    <path fill="#000" fill-rule="nonzero" d="M65.1934027,39.1634153 C65.4188575,38.7448897 65.5929331,38.3010686 65.7094948,37.8403839 C65.859798,37.1405417 65.9219131,36.4261354 65.8950732,35.7109626 L65.8950732,34.9436657 L68.6074326,34.9436657 L68.6074326,39.1496177 L69.1764376,39.1496177 L69.1764376,40.7899926 L68.5675563,40.7899926 L68.5675563,39.6792902 L65.3391047,39.6792902 L65.3391047,40.7501331 L64.7302234,40.7501331 L64.7302234,39.1496177 L65.1934027,39.1634153 Z M66.5169911,35.5262287 L66.5169911,35.7109626 C66.5407635,36.4836251 66.4740473,37.2555213 66.3183761,38.0120866 C66.2087162,38.4206474 66.0538118,38.816177 65.8551969,39.1894773 L67.9057621,39.1894773 L67.9057621,35.5262287 L66.5169911,35.5262287 Z" mask="url(#logo-shad-D)"/>
    <mask id="logo-shad-F" fill="#fff">
      <use xlink:href="#logo-shad-E"/>
    </mask>
    <path fill="#000" fill-rule="nonzero" d="M70.459843,39.6791368 L69.7451359,39.6791368 L71.7427882,34.9174503 L72.3125601,34.9174503 L74.2971759,39.6791368 L73.5824688,39.6791368 L73.0663767,38.3561054 L70.9628986,38.3561054 L70.459843,39.6791368 Z M72.0472289,35.7108093 L71.2266961,37.813402 L72.8677617,37.813402 L72.0472289,35.7108093 Z" mask="url(#logo-shad-F)"/>
    <mask id="logo-shad-H" fill="#fff">
      <use xlink:href="#logo-shad-G"/>
    </mask>
    <polygon fill="#000" fill-rule="nonzero" points="75.991 39.679 75.329 39.679 75.329 34.917 75.991 34.917 75.991 36.915 78.187 36.915 78.187 34.957 78.849 34.957 78.849 39.679 78.187 39.679 78.187 37.523 75.991 37.523" mask="url(#logo-shad-H)"/>
    <mask id="logo-shad-J" fill="#fff">
      <use xlink:href="#logo-shad-I"/>
    </mask>
    <polygon fill="#000" fill-rule="nonzero" points="81.006 39.679 80.344 39.679 80.344 34.917 81.006 34.917 81.006 36.915 83.202 36.915 83.202 34.957 83.864 34.957 83.864 39.679 83.202 39.679 83.202 37.523 81.006 37.523" mask="url(#logo-shad-J)"/>
    <mask id="logo-shad-L" fill="#fff">
      <use xlink:href="#logo-shad-K"/>
    </mask>
    <path fill="#000" fill-rule="nonzero" d="M86.0074061,36.7956796 L86.8808518,36.7956796 C87.3931097,36.7351237 87.9076681,36.8822976 88.3094991,37.2057734 C88.5679286,37.4794247 88.6982936,37.8488924 88.6668527,38.2237257 C88.6844903,38.597026 88.5564258,38.9618944 88.3094991,39.2424445 C87.8892636,39.569753 87.3563007,39.7176933 86.8279389,39.6525382 L85.4115613,39.6525382 L85.4115613,34.8916183 L86.0074061,34.8916183 L86.0074061,36.7818822 L86.0074061,36.7956796 Z M86.8938883,39.1496944 C87.2221014,39.1757564 87.5503146,39.0876054 87.8202468,38.8982724 C87.9789854,38.7350015 88.0687073,38.5173068 88.0710078,38.2896473 C88.096314,38.0428245 88.0027579,37.7983014 87.8202468,37.6288981 C87.5449466,37.4502966 87.2213346,37.3629122 86.8938883,37.3774762 L86.0074061,37.3774762 L86.0074061,39.1496944 L86.8938883,39.1496944 Z M89.4076328,39.6793669 L90.069427,39.6793669 L90.069427,34.9575398 L89.4076328,34.9575398 L89.4076328,39.6793669 Z" mask="url(#logo-shad-L)"/>
    <mask id="logo-shad-N" fill="#fff">
      <use xlink:href="#logo-shad-M"/>
    </mask>
    <polygon fill="#000" fill-rule="nonzero" points="93.139 37.722 91.816 39.718 91.048 39.718 92.689 37.206 91.3 34.958 92.014 34.958 93.139 36.703 94.263 34.958 94.978 34.958 93.55 37.206 95.19 39.679 94.422 39.679" mask="url(#logo-shad-N)"/>
  </g>
</svg>
