<svg xmlns="http://www.w3.org/2000/svg" width="103" height="71" viewBox="0 0 103 71">
  <g fill="none" fill-rule="evenodd" transform="translate(2 9)">
    <path fill="#010101" fill-rule="nonzero" d="M58.8819756 26.5215325L60.9286141 26.5215325 63.6485939 26.5215325C63.5882682 26.9939612 63.5714125 27.4716391 63.5998011 27.9475672L63.3673696 27.9475672C63.3682568 27.9230709 63.3682568 27.8994495 63.3673696 27.8749531 63.387774 27.6256158 63.387774 27.3754036 63.3673696 27.1251914 63.108324 27.0263313 62.835084 26.969465 62.5582954 26.9563419L61.7740612 26.9563419 60.8301412 26.9563419 60.8301412 29.4698373 61.7616412 29.4698373 62.4846626 29.4698373C62.5982168 29.48471 62.7135454 29.48471 62.8279868 29.4698373 62.8670212 29.4400918 62.8927482 29.3972233 62.9016196 29.3491055 62.9104912 29.2484958 62.9104912 29.147011 62.9016196 29.0472761L62.9016196 28.75682 63.1216311 28.75682 63.1216311 29.7602935 63.1216311 30.7996365 62.9016196 30.7996365 62.9016196 30.5214285C62.9087168 30.392823 62.9087168 30.2633426 62.9016196 30.1347369 62.8865382 30.0901187 62.8554882 30.0516245 62.8155668 30.0262533 62.7073354 29.981635 62.5902326 29.9562639 62.4722426 29.9536393L61.7004283 29.9536393 60.8789341 29.9536393 60.8789341 31.2344459 60.8789341 32.6482324 61.7368012 32.6482324 63.1588911 32.6482324C63.344304 32.6298602 63.5252811 32.5852419 63.6982739 32.5152524 63.7515025 32.352527 63.7967468 32.187177 63.8331196 32.0200772 63.8934454 31.7663655 63.9307053 31.5966412 63.9431253 31.5362753L64.1640239 31.5362753C64.1223282 31.7646158 64.0939396 31.994706 64.0779711 32.2256712L64.0779711 33.0707936 61.7492212 33.0707936 60.5240769 33.0707936 59.6049969 33.0707936 59.6049969 32.9141922 59.9234813 32.7453427C59.9758227 32.478508 59.9971141 32.2064241 59.9846941 31.935215L59.9846941 30.7270225 59.9846941 27.9475672 59.9846941 27.3911512C59.9935655 27.2905414 59.9935655 27.1899317 59.9846941 27.0893218 59.9926783 27.0455784 59.9926783 27.0000853 59.9846941 26.9563419L59.8871083 26.895976 59.6537898 26.895976 59.2989327 26.895976 59.2989327 26.5215325 58.8819756 26.5215325zM55.3653415 26.5215325L55.9535171 26.5215325 56.7004914 26.5215325 58.0365284 26.5215325 58.0365284 26.7507479 57.5335184 26.7507479C57.443917 26.7559972 57.3560899 26.7804934 57.276247 26.8233619 57.2070499 26.8854776 57.1662414 26.9729644 57.1662414 27.0657004 57.1547085 27.2380494 57.1547085 27.4121481 57.1662414 27.584497L57.1662414 31.6692553C57.1538214 31.8949711 57.1538214 32.120687 57.1662414 32.3464029 57.1671285 32.4190169 57.1884199 32.4898813 57.2274542 32.5519969 57.2744728 32.5957403 57.3347984 32.6254858 57.3995599 32.6359842 57.6071514 32.6534816 57.816517 32.6534816 58.0241084 32.6359842L58.0241084 32.8651996 57.2026142 32.8651996 56.6880714 32.8651996 55.3529215 32.8651996 55.3529215 32.6359842 55.9286771 32.6359842C55.9987614 32.6281105 56.0661843 32.6036141 56.1247357 32.5633701 56.1699799 32.5126279 56.2001428 32.4496374 56.2107885 32.3822725 56.2258699 32.1696797 56.2258699 31.955337 56.2107885 31.7418692L56.2107885 27.8382087C56.2223214 27.6133676 56.2223214 27.3876518 56.2107885 27.1619359 56.2099014 27.0893218 56.1886099 27.0175827 56.1486885 26.9563419 56.1016699 26.9117237 56.0422314 26.882853 55.9774699 26.8714797 55.7698785 26.8557321 55.5605129 26.8557321 55.3529215 26.8714797L55.3529215 26.5215325 55.3653415 26.5215325zM54.5935271 32.2492926L54.4214215 32.6727287C53.7392086 33.0165517 52.9824758 33.1950248 52.2159844 33.1924002 51.2161745 33.2343939 50.2376559 32.8975697 49.4826974 32.2492926 48.7942746 31.6316359 48.4101418 30.7506439 48.4287718 29.8329075 48.3879632 29.1758817 48.5503102 28.5232303 48.8945217 27.9598154 49.2272002 27.43227 49.7089188 27.0123334 50.2793517 26.7507479 50.8888187 26.4847881 51.5497401 26.352683 52.2159844 26.3640563 52.6276186 26.3658061 53.0383658 26.4112991 53.4411286 26.4970362 53.7862272 26.5687755 54.1224543 26.6737596 54.4462615 26.8119886 54.3335943 27.2258012 54.2679457 27.6518619 54.2502029 28.0805471L54.0293043 28.0805471 54.0293043 27.2949158C53.7826786 27.1094438 53.505003 26.9703398 53.20781 26.8837279 52.8831158 26.7857427 52.5433401 26.73675 52.2035644 26.7393747 51.7120873 26.7323757 51.2277073 26.8487332 50.7938945 27.0770736 50.3804859 27.2966655 50.0442588 27.6334896 49.8260217 28.0438026 49.5838317 28.5241051 49.4658417 29.05515 49.4826974 29.5905691 49.4720517 30.1522342 49.6113331 30.7069005 49.8872345 31.1985762 50.1462802 31.6482584 50.5277517 32.0165777 50.9899531 32.2615407 51.4973987 32.5196268 52.0625087 32.6482324 52.6320544 32.6359842 52.8999716 32.6351094 53.1670016 32.6071136 53.4287086 32.5519969 53.6478329 32.5108781 53.8616344 32.445263 54.0656772 32.3577762 54.23867 32.2816627 54.4027915 32.1889267 54.5562672 32.0804431L54.64232 32.1766786 54.5935271 32.2492926zM43.2088234 31.4400398L43.442142 31.4400398C43.442142 31.6823782 43.4625462 31.9255915 43.5033548 32.1653053 43.5556962 32.2825376 43.6461848 32.3805228 43.7606262 32.4426385 43.9327319 32.5546215 44.1234676 32.6368591 44.3239619 32.6841019 44.5555062 32.7470924 44.7950347 32.7794626 45.0345633 32.7812123 45.3388533 32.7847117 45.6395947 32.7225962 45.9172703 32.6001147 46.1709933 32.4872567 46.3847947 32.3017847 46.5293989 32.0681949 46.6766647 31.8363549 46.7529589 31.5686454 46.7502975 31.2948117 46.7547332 31.1119644 46.7174732 30.9299918 46.6402918 30.762892 46.5764175 30.6185389 46.4752832 30.4934328 46.3457603 30.4006968 46.2171247 30.306211 46.0716333 30.2370965 45.9172703 30.1951028 45.6786289 30.1347369 45.4373261 30.0866192 45.194249 30.0498748L44.4712276 29.9168948C44.2893633 29.8757761 44.1128219 29.8154101 43.9442648 29.7357972 43.7774819 29.6605586 43.6275548 29.5538246 43.5033548 29.4217196 43.3791548 29.2834905 43.2833434 29.1233896 43.2212434 28.9501658 43.1493848 28.7611943 43.1121248 28.5608495 43.1112376 28.3587551 43.094382 27.8268354 43.3135062 27.3150377 43.7109462 26.9563419 44.1607276 26.5705252 44.7453547 26.3710553 45.3406275 26.4008008 45.6378203 26.4025505 45.9332389 26.4349207 46.2233347 26.4970362 46.5249632 26.5574022 46.8168332 26.6545124 47.0936218 26.7874924 47.0137789 27.1855573 46.9720832 27.5897462 46.9711961 27.9956849L46.7254575 27.9956849 46.7254575 27.3062891C46.7254575 27.2223017 46.5790789 27.0893218 46.2969675 26.9563419 46.0255019 26.8128636 45.7229861 26.7384998 45.4142604 26.7393747 45.1614247 26.7384998 44.9103633 26.7918667 44.6797061 26.895976 44.4508233 26.9965858 44.2654104 27.1715594 44.1518562 27.3911512 44.039189 27.6037442 43.9806376 27.8399584 43.9806376 28.0805471 43.9779762 28.2476468 44.0161233 28.4138718 44.0915304 28.5634742 44.157179 28.6929546 44.2538776 28.8049377 44.3736419 28.8897999 44.4916319 28.9729123 44.6247033 29.0341531 44.7648719 29.0717724 44.9121376 29.0717724 45.194249 29.1557598 45.5863661 29.2161256 46.0050975 29.2554947 46.4176189 29.3491055 46.8115103 29.4943336 47.0607975 29.6028173 47.2701632 29.7839149 47.412106 30.0140052 47.567356 30.2738409 47.6436503 30.5704211 47.6321174 30.8722505 47.6551832 31.5336507 47.3491189 32.1661802 46.8115103 32.5633701 46.2579333 33.0051784 45.5624133 33.2370184 44.8509247 33.2160217 44.268959 33.2291447 43.690542 33.1136621 43.1600304 32.8783227 43.1600304 32.6841019 43.1600304 32.2370444 43.2336634 31.5240271L43.2088234 31.4400398zM92.5685627 15.366967L93.8921799 15.366967 95.3133826 15.366967 95.7915526 15.366967C96.3575498 15.3031017 96.9270954 15.4544538 97.3848611 15.790403 97.6554397 16.055488 97.8053668 16.4168084 97.8018182 16.7930016 97.7982697 17.0607112 97.7272982 17.3222967 97.5933397 17.5541367 97.4487354 17.8130976 97.2429182 18.0326894 96.9918568 18.19454 96.6547426 18.3983842 96.2803682 18.5339888 95.8891383 18.5934798L96.3548882 19.2102616 97.0166968 20.068507 97.7033454 20.9748702C97.8390782 21.1752149 97.9996511 21.3571874 98.1806282 21.5181631 98.2374053 21.5522829 98.3003925 21.5767792 98.3651539 21.5907772L98.6100053 21.5907772 98.6100053 21.8086192 98.0830425 21.8086192 97.3600211 21.8086192C97.147994 21.5505332 96.8082182 21.1034757 96.3433554 20.4674467 95.8776054 19.830543 95.3302383 19.1498958 94.7003669 18.4246303L94.7003669 18.2794022 95.0809512 18.2794022C95.5227483 18.2951497 95.955674 18.1586704 96.3060954 17.8927105 96.6148212 17.6258758 96.7824912 17.2339351 96.7594254 16.829746 96.7842654 16.4771744 96.6334512 16.1342261 96.3548882 15.9111348 96.0328554 15.6889184 95.645174 15.578685 95.2521698 15.5970572 94.9407827 15.5944327 94.6311698 15.6399258 94.3330899 15.7300371 94.2532469 16.3022008 94.2292941 16.8804884 94.2594569 17.4579012L94.2594569 20.47882C94.2479241 20.7045359 94.2479241 20.9302519 94.2594569 21.1559678 94.2656669 21.2294567 94.2913941 21.300321 94.3330899 21.3615617 94.3809955 21.4053052 94.4404341 21.4350506 94.5051955 21.4455491 94.7083512 21.4630464 94.9141683 21.4630464 95.1173241 21.4455491L95.1173241 21.6756393 94.2967169 21.6756393 93.7821741 21.6756393 92.446137 21.6756393 92.446137 21.4455491 93.0218927 21.4455491C93.0928641 21.4385502 93.160287 21.4140538 93.2179513 21.372935 93.2640827 21.3221927 93.2942455 21.2592022 93.3040041 21.1918374 93.3208599 20.9792444 93.3208599 20.7649019 93.3040041 20.5514341L93.3040041 16.6608966 93.3040041 15.9837489C93.303117 15.9111348 93.2818255 15.8402705 93.2427913 15.7781548 93.1948855 15.7335367 93.135447 15.704666 93.0715727 15.6941676 92.8630941 15.6775451 92.6537284 15.6775451 92.446137 15.6941676L92.446137 15.4640773 92.5685627 15.366967zM86.6495458 15.366967L88.6961843 15.366967 91.4170514 15.366967C91.3176914 15.8210234 91.2609142 16.2812039 91.2449456 16.7448839L91.0125142 16.7448839 91.0125142 16.6722698C91.0338056 16.4229325 91.0338056 16.1727203 91.0125142 15.9233829 90.7534685 15.823648 90.4811157 15.7667816 90.20344 15.7536586L89.4192057 15.7536586 88.4752857 15.7536586 88.4752857 18.3038985 89.4067857 18.3038985 90.1298071 18.3038985C90.2442485 18.3187713 90.3595771 18.3187713 90.4731314 18.3038985 90.5121657 18.274153 90.53878 18.2304095 90.5467642 18.1831667 90.5556357 18.0825569 90.5556357 17.9810722 90.5467642 17.8813373L90.5467642 17.5908811 90.7667756 17.5908811 90.7667756 18.5934798 90.7667756 19.6328228 90.5591842 19.6328228 90.5591842 19.3554897C90.5662814 19.2268841 90.5662814 19.0974037 90.5591842 18.968798 90.5441028 18.923305 90.51394 18.8848107 90.4731314 18.8594396 90.3640128 18.8148213 90.2477971 18.790325 90.1298071 18.7877004L89.3579929 18.7877004 88.5373857 18.7877004 88.5373857 20.068507 88.5373857 21.4936668 89.3952529 21.4936668 90.8164556 21.4936668C91.0018685 21.4761694 91.1837328 21.4315511 91.3549514 21.3615617 91.4099542 21.1988363 91.4543114 21.0334863 91.4906842 20.8655117 91.551897 20.6117999 91.58827 20.4429504 91.60069 20.3825846L91.8207014 20.3825846C91.7798928 20.6100502 91.7515042 20.8401405 91.7355356 21.0711056L91.7355356 21.9171029 89.4067857 21.9171029 88.1816415 21.9171029 87.2625616 21.9171029 87.2625616 21.6878874 87.5810458 21.5181631C87.6342744 21.2522032 87.6546786 20.9801194 87.6422586 20.7089103L87.6422586 19.5007177 87.6422586 16.7693802 87.6422586 16.2129642C87.6520172 16.1132293 87.6520172 16.0117447 87.6422586 15.9111348 87.6511301 15.8673914 87.6511301 15.8218983 87.6422586 15.7781548L87.544673 15.717789 87.3113544 15.717789 86.9564972 15.717789 86.9564972 15.4885737 86.6495458 15.366967zM85.8413587 15.366967L85.8413587 16.8052498 85.6577202 16.8052498 85.6577202 16.3826886C85.6648173 16.2453344 85.6648173 16.1088549 85.6577202 15.9715007 85.6461873 15.9277573 85.6204602 15.8892631 85.5840873 15.8630171 85.4820659 15.84377 85.3791573 15.84377 85.2771359 15.8630171L84.7013802 15.8630171 83.8195603 15.8630171 83.8195603 17.0712096 83.8195603 20.6966622 83.8195603 21.372935C83.8213345 21.4455491 83.8426259 21.5164134 83.8807731 21.578529 83.9286788 21.6213975 83.9881173 21.651143 84.0519917 21.6633911 84.2595831 21.6808885 84.4689487 21.6808885 84.6774273 21.6633911L84.6774273 21.8926066 83.3413903 21.8926066 82.0177732 21.8926066 82.0177732 21.6633911 82.594416 21.6633911C82.6645003 21.6555174 82.7319232 21.6310211 82.7895874 21.5907772 82.8348317 21.5391599 82.8641074 21.4761694 82.8756403 21.4096795 82.8942703 21.1970866 82.8942703 20.9818691 82.8756403 20.7692761L82.8756403 17.1438236 82.8756403 15.9347562 81.9814004 15.9347562 81.2459589 15.9347562C81.0374804 15.9347562 80.9150546 15.9347562 80.8902146 16.0318666 80.8352118 16.1910925 80.8068232 16.3590671 80.8041618 16.5270418L80.7553689 16.8533675 80.5353575 16.8533675 80.5353575 15.4159596 83.2313845 15.4159596 85.9398316 15.4159596 85.8413587 15.366967zM72.6921278 15.366967L74.0281649 15.366967 75.364202 15.366967 75.364202 15.6451749 74.8611921 15.6451749C74.7715907 15.6504241 74.6837635 15.6757954 74.6039207 15.717789 74.5347235 15.7790297 74.4939149 15.8673914 74.4939149 15.9592525 74.4832692 16.1324763 74.4832692 16.3057002 74.4939149 16.4789241L74.4939149 18.9924194 74.4939149 20.0562589C74.5081091 20.2513544 74.5542407 20.4429504 74.6287607 20.6240481 74.6970707 20.7797746 74.8017535 20.916254 74.9348249 21.0229879 75.1095921 21.1542181 75.3100863 21.2487038 75.5230006 21.3011959 75.8068863 21.3764345 76.0996434 21.4131789 76.3932877 21.4096795 76.7170948 21.4105544 77.0400148 21.3615617 77.3487406 21.2644514 77.6077862 21.1918374 77.8411048 21.0492339 78.022969 20.8532635 78.1879776 20.6520439 78.2944348 20.4097054 78.3290333 20.1524943 78.3849233 19.7526797 78.4097633 19.3484907 78.4026662 18.9443017L78.4026662 17.5541367 78.4026662 16.5637863C78.4310547 16.3223227 78.4310547 16.0791094 78.4026662 15.8385208 78.370729 15.7720308 78.3130648 15.7204136 78.2438676 15.6941676 78.0238562 15.6661718 77.8011834 15.6661718 77.582059 15.6941676L77.582059 15.4763254 78.6847776 15.4763254 79.7874961 15.4763254 79.7874961 15.6451749 79.2117405 15.6451749C79.1452047 15.6539236 79.0822175 15.6784199 79.0272147 15.717789 78.9899547 15.7624073 78.9642276 15.8166491 78.954469 15.8752652 78.9402747 16.0764849 78.9402747 16.2777044 78.954469 16.4789241L78.954469 18.896184C78.9615661 19.3362426 78.9411619 19.7763011 78.8932561 20.2137351 78.8630933 20.498942 78.761959 20.7727757 78.5987247 21.0107397 78.451459 21.2137091 78.2695948 21.3895575 78.060229 21.5304112 77.8162648 21.6852629 77.5465734 21.7954962 77.2635748 21.856737 76.9335576 21.9302258 76.5964434 21.9669704 76.258442 21.9652206 75.8689863 21.9695949 75.4813049 21.9206024 75.1069306 21.8199925 74.8221577 21.7491282 74.5551277 21.6213975 74.3218092 21.4455491 74.1479292 21.3125692 74.0059863 21.1437197 73.9057392 20.9503739 73.8179121 20.7596527 73.7646835 20.5549335 73.7460535 20.3458402L73.7460535 19.2706274 73.7460535 16.611904 73.7460535 15.9347562C73.7442792 15.8630171 73.7229878 15.7921528 73.6848407 15.7300371 73.6094335 15.6591729 73.5056378 15.6285525 73.4036164 15.6451749 73.1951378 15.6294274 72.9857721 15.6294274 72.7781807 15.6451749L72.7781807 15.4159596 72.6921278 15.366967zM66.822791 15.366967L68.3176266 15.366967 69.2979194 15.366967 70.0085209 15.366967C70.3731365 15.3590931 70.7359779 15.4037114 71.0872865 15.4999468 71.3685108 15.5856839 71.6169108 15.7545334 71.7978878 15.9837489 71.9886236 16.2295867 72.0879836 16.532291 72.0791122 16.8419942 72.078225 17.1184525 72.0116893 17.3922861 71.8839408 17.6389989 71.7499822 17.8935854 71.5619079 18.1166768 71.3321379 18.2916503 71.1192236 18.4604998 70.8788079 18.5908551 70.6215365 18.678342 70.3802337 18.7579549 70.1282851 18.7990737 69.8736751 18.7990737 69.6563251 18.7981988 69.4389751 18.7780769 69.2242865 18.7387078L69.1506537 18.4613747C69.3360665 18.5042433 69.5250279 18.5287395 69.7148765 18.5331138 70.0857023 18.5541107 70.4467693 18.4071329 70.6951693 18.135049 70.9453436 17.8550913 71.0766408 17.492021 71.0624465 17.1193273 71.0801893 16.7518828 70.9435693 16.3923121 70.6827493 16.1289769 70.3607165 15.8560181 69.9419851 15.7212885 69.5188179 15.7536586 69.202108 15.7597826 68.8880594 15.8122747 68.587318 15.9111348L68.587318 17.6267508 68.587318 20.6485445C68.5740109 20.8733854 68.5740109 21.0999762 68.587318 21.3248173 68.5890923 21.3974314 68.6103837 21.4682957 68.6485309 21.5304112 68.6964366 21.5741546 68.7558751 21.6030253 68.8206366 21.6152734 69.028228 21.6327708 69.2367065 21.6327708 69.4451851 21.6152734L69.4451851 21.8444888 68.109148 21.8444888 66.7739981 21.8444888 66.7739981 21.6152734 67.3497538 21.6152734C67.419838 21.6073997 67.487261 21.5820284 67.5458124 21.5426593 67.5910566 21.4910422 67.6212194 21.4280517 67.630978 21.3615617 67.6469466 21.148094 67.6469466 20.9337514 67.630978 20.7211584L67.630978 16.6608966C67.642511 16.4351806 67.642511 16.2085898 67.630978 15.9837489 67.630978 15.9111348 67.6096866 15.8393956 67.5697652 15.7781548 67.5227466 15.7335367 67.463308 15.704666 67.3985466 15.6941676 67.1909552 15.6775451 66.9815895 15.6775451 66.7739981 15.6941676L66.7739981 15.4640773 66.822791 15.366967zM66.0509767 15.366967L66.0509767 15.6451749C65.8389495 15.6241781 65.6251481 15.6241781 65.413121 15.6451749 65.3421495 15.6617974 65.2809367 15.7055409 65.2419025 15.7659067 65.2170625 15.8770149 65.2170625 15.9933723 65.2419025 16.1044807L65.2419025 17.506019 65.2419025 19.6214495 65.2419025 20.6599177C65.2135139 20.8847587 65.2135139 21.1122244 65.2419025 21.3370654 65.2747267 21.4000559 65.3323911 21.4490485 65.4015881 21.4700454 65.6207125 21.4954165 65.8433853 21.4954165 66.0625095 21.4700454L66.0625095 21.6992607 64.7397796 21.6992607 63.4410025 21.6992607 63.4410025 21.6878874C63.6521425 21.7071346 63.8659439 21.7071346 64.0779711 21.6878874 64.1489425 21.6703902 64.2101553 21.6275216 64.2491896 21.5662809 64.2740296 21.4551726 64.2740296 21.3396901 64.2491896 21.2285818L64.2491896 19.8261686 64.2491896 16.3100746 62.717094 19.6328228C62.3169926 20.4385761 61.965684 21.2198332 61.6640554 21.9774687L61.4795297 21.9774687C61.3083112 21.578529 61.1610455 21.2644514 61.0510397 21.035236L58.8207627 16.4666759 58.8207627 19.6818154 58.8207627 20.7211584C58.7905998 20.9451247 58.7905998 21.1725903 58.8207627 21.3974314 58.8553613 21.4595469 58.9121384 21.5067898 58.9795613 21.5304112 59.1995727 21.5566573 59.4222455 21.5566573 59.6413698 21.5304112L59.6413698 21.7473785 59.3477255 21.7473785 58.5510713 21.7473785 57.4359328 21.7473785 57.4359328 21.5304112C57.6479598 21.5505332 57.8617614 21.5505332 58.0729014 21.5304112 58.1429856 21.512039 58.2041984 21.4691705 58.245007 21.4096795 58.269847 21.3020707 58.269847 21.1909625 58.245007 21.0833537L58.245007 19.6695672 58.245007 17.578633 58.245007 16.5637863C58.2716213 16.3345708 58.2716213 16.1036057 58.245007 15.8752652 58.213957 15.8070255 58.1562928 15.7554083 58.0853214 15.7300371 57.884827 15.6775451 57.679897 15.6495493 57.4731928 15.6451749L57.4731928 15.4037114 58.3425928 15.4037114 59.2368327 15.4037114C59.4985398 15.9994964 59.7478269 16.5349156 59.9846941 17.0108437L61.7492212 20.6362962 63.3425296 17.3607909C63.7754554 16.4754246 64.0655511 15.8385208 64.2128168 15.4518291L65.0946367 15.4518291 66.0137167 15.4518291 66.0509767 15.366967zM50.7451017 18.3520162C50.7504245 18.7614544 50.8116373 19.168268 50.9287401 19.5602087 51.0369716 19.9635229 51.2241587 20.3414658 51.480543 20.6721659 51.7058773 20.962622 51.9950858 21.1979614 52.3259901 21.3615617 53.0907072 21.6957613 53.9689786 21.6598917 54.7035329 21.2644514 55.09565 21.0291119 55.3972785 20.6721659 55.5613999 20.2496047 55.7636685 19.7588037 55.8639157 19.2321333 55.8550443 18.7028383 55.8665771 18.1263002 55.7530229 17.5541367 55.5241399 17.0230919 55.3369529 16.5664108 55.0007257 16.1832187 54.5686872 15.9347562 54.1401972 15.7221634 53.6629144 15.6224283 53.1838572 15.6451749 52.5122901 15.6101802 51.8584658 15.8665166 51.3944901 16.3459441 50.9296273 16.9189826 50.6971959 17.6433732 50.7451017 18.3765126L50.7451017 18.3520162zM49.7772288 18.6538456C49.7727931 18.2199112 49.8393288 17.7877264 49.9732873 17.3730391 50.1170045 16.9618511 50.3512102 16.5865328 50.6590487 16.27333 50.9855173 15.9321316 51.3820701 15.6635472 51.8229801 15.4885737 52.3144572 15.2943529 52.8387586 15.2007421 53.3674958 15.2103657 54.2892372 15.1657474 55.1932357 15.472826 55.8914171 16.0677361 56.5372571 16.6722698 56.8823556 17.5243912 56.8353371 18.400134 56.8442085 19.0492859 56.6836356 19.6905641 56.3695871 20.2618528 56.0608614 20.8156441 55.5915629 21.2653263 55.0220171 21.5549076 54.4267443 21.8672353 53.7605 22.0247116 53.0853844 22.0142132 52.6081016 22.0177126 52.1343673 21.9311007 51.6890216 21.7605015 51.2702901 21.5977761 50.8976901 21.3414398 50.5978359 21.0107397 50.2908845 20.6616674 50.0690987 20.2487298 49.9484473 19.8025472 49.8224731 19.4114813 49.7559373 19.0037927 49.7523888 18.5934798L49.7772288 18.6538456zM49.0542074 21.0711056L48.8829888 21.4936668C48.1998888 21.8383647 47.443156 22.0168378 46.6766647 22.0142132 45.6954847 22.0474581 44.7373704 21.7150084 43.9930576 21.0833537 43.3028604 20.4665719 42.9187276 19.584705 42.939132 18.6660937 42.926712 18.0195664 43.1094634 17.3844123 43.4660948 16.8419942 43.7987734 16.3144489 44.2804919 15.8945123 44.8509247 15.6329268 45.4603919 15.366967 46.1213133 15.2348619 46.7875575 15.2462352 47.1991918 15.2479849 47.6099389 15.2926032 48.0127018 15.3792152 48.3569132 15.4509543 48.6940274 15.5559384 49.0169474 15.6941676 48.9051674 16.1079801 48.8395188 16.5331658 48.821776 16.962726L48.6008774 16.962726 48.6008774 16.1770946C48.3551388 15.9916226 48.076576 15.8525186 47.7793832 15.7659067 47.4538018 15.6679215 47.1149132 15.6189289 46.7751375 15.6215535 46.2836603 15.6154294 45.7983933 15.7317868 45.3654675 15.9592525 44.952059 16.1788443 44.6149447 16.5156685 44.3975947 16.9259816 44.1554048 17.4062841 44.0374148 17.9373288 44.0542704 18.472748 44.0436248 19.0344132 44.1829062 19.5890794 44.4588076 20.0798803 44.7178533 20.5304372 45.0993247 20.8987567 45.5615261 21.1437197 46.0689719 21.4018056 46.6331947 21.5304112 47.2036275 21.5181631 47.4706574 21.5207877 47.7376874 21.4962913 48.0002818 21.4455491 48.219406 21.4053052 48.4332074 21.3405649 48.6372502 21.2530782 48.809356 21.1760897 48.9743646 21.0824789 49.1278402 20.9748702L49.2014731 21.0711056 49.0542074 21.0711056zM65.1439619 43.7903748C65.3843775 43.8454915 65.6318905 43.8752371 65.8794033 43.8752371 66.237809 43.8936093 66.5962147 43.822745 66.920909 43.669643 67.163099 43.5340385 67.356496 43.3275697 67.4727118 43.0773575 67.5942504 42.8245207 67.6572374 42.5480624 67.6563504 42.2681047 67.6767546 41.8770388 67.5410218 41.4947215 67.275766 41.2042654 66.7984832 40.8744401 66.212969 40.7318366 65.6336647 40.8053256L65.1315419 40.8053256 65.1315419 43.7781267 65.1439619 43.7903748zM65.1439619 40.4431303L65.6709247 40.4431303C66.1464333 40.491248 66.6246032 40.372266 67.0184946 40.1045565 67.275766 39.8630929 67.4150474 39.5236442 67.399079 39.1745718 67.4079504 38.9777266 67.3662546 38.7817562 67.275766 38.6059078 67.1719704 38.4344336 67.0113975 38.3032035 66.8224361 38.2314642 66.5518575 38.1326042 66.2653104 38.087111 65.976989 38.0984843 65.7214919 38.0967346 65.467769 38.1212309 65.2175947 38.1710984L65.2175947 39.6093812 65.2175947 40.4308822 65.1439619 40.4431303zM63.4646005 38.0258703L63.4646005 37.79578 64.6906319 37.79578 65.976989 37.79578 66.5039518 37.79578C66.8392918 37.7844067 67.1746318 37.8255255 67.4966646 37.9173867 67.7326446 37.9996242 67.9384618 38.1518512 68.0848404 38.352196 68.2329932 38.5604146 68.3101746 38.8106268 68.3048518 39.0652134 68.3030774 39.4125359 68.1717803 39.7476103 67.9375746 40.0083209 67.610219 40.3442702 67.1799546 40.5647369 66.7124304 40.6364761 66.9936546 40.6565981 67.2722174 40.7012163 67.5454574 40.769456 67.7495004 40.8201984 67.9411232 40.9111846 68.1096804 41.0354159 68.2738018 41.1578974 68.4050989 41.3206228 68.4893774 41.5069696 68.5825274 41.7160631 68.6286589 41.9426538 68.6242232 42.1709943 68.6206746 42.3765884 68.5878503 42.5795577 68.5266374 42.775528 68.4538917 43.001244 68.337676 43.2112123 68.182426 43.391435 68.0138689 43.5970291 67.8107132 43.7720026 67.5827174 43.9111066 67.3582704 44.0502106 67.1151932 44.1560696 66.8596961 44.2251842 66.5580675 44.2951736 66.2493418 44.3275437 65.9406161 44.3214196L65.2663875 44.3214196 64.5921591 44.3214196 63.8203448 44.3214196 63.8203448 44.0440865C63.9294633 44.0003431 64.0323719 43.9434767 64.1272962 43.8752371 64.1831862 43.6084023 64.2071391 43.3363184 64.2000419 43.0651093L64.2000419 41.8569168 64.2000419 39.1255792 64.2000419 38.5691632C64.2062519 38.4694283 64.2062519 38.3688185 64.2000419 38.2682087 64.2133491 38.2244653 64.2133491 38.1780973 64.2000419 38.1343539L64.0900362 38.0748629 63.8567176 38.0748629 63.5018605 38.0748629 63.4646005 38.0258703zM55.7695237 37.7599105L57.1046736 37.7599105 58.4407108 37.7599105 58.4407108 37.9900008 57.9385878 37.9900008C57.8480994 37.9952499 57.7602722 38.0197463 57.6813164 38.0617399 57.6112322 38.1229806 57.5713108 38.2113423 57.5704236 38.3040783 57.560665 38.4773021 57.560665 38.6505259 57.5704236 38.8237498L57.5704236 41.3372453 57.5704236 42.4002098C57.585505 42.5961801 57.6307494 42.7877762 57.7052694 42.9688739 57.7735794 43.1237255 57.8791494 43.2610798 58.0113336 43.3678136 58.1869878 43.4990438 58.386595 43.5926547 58.6003964 43.6451468 58.883395 43.7203854 59.1761521 43.7571298 59.4697964 43.7545053 59.7944907 43.7553801 60.1165235 43.7055126 60.4261363 43.6092772 60.6851821 43.5357883 60.9176135 43.3940597 61.0994777 43.1980893 61.2653735 42.9968696 61.3718306 42.7536563 61.4064292 42.4964452 61.4623192 42.0966305 61.486272 41.6933165 61.480062 41.2891275L61.480062 39.9112106 61.480062 38.9208602C61.5075634 38.6793966 61.5075634 38.4361833 61.480062 38.1947198 61.4472377 38.1282298 61.3904606 38.0766126 61.3203763 38.0494918 61.1003649 38.0223708 60.8785792 38.0223708 60.6585677 38.0494918L60.6585677 37.8325246 61.7612863 37.8325246 62.864892 37.8325246 62.864892 38.0494918 62.2882492 38.0494918C62.2226006 38.0582404 62.1587262 38.0836116 62.1046106 38.1221057 62.0620277 38.1658492 62.032752 38.2209658 62.0194448 38.2795819 62.0052506 38.4816765 62.0052506 38.6828961 62.0194448 38.8841158L62.0194448 41.3005008C62.0256548 41.7405593 62.0052506 42.1806179 61.958232 42.6180518 61.9280692 42.9032588 61.8269348 43.1779672 61.6637006 43.4150565 61.5164349 43.6189007 61.3336835 43.7947492 61.1243177 43.9356029 60.8803535 44.0895796 60.6106621 44.2006879 60.3276635 44.2619286 59.9985335 44.3354175 59.6614193 44.372162 59.3225307 44.3704123 58.9339621 44.3747865 58.5462807 44.325794 58.1710193 44.2251842 57.8871336 44.153445 57.6201036 44.0265892 57.386785 43.8507407 57.212905 43.7177607 57.070075 43.5489112 56.9707151 43.3555655 56.8828879 43.1639694 56.8287722 42.9601252 56.8110294 42.7519066L56.8110294 41.6758191 56.8110294 39.0170956 56.8110294 38.3408227C56.8083679 38.2682087 56.7879636 38.1964695 56.7498165 38.1343539 56.7019108 38.0906105 56.6424722 38.0617399 56.5785979 38.0494918 56.3701194 38.0337441 56.1616408 38.0337441 55.9531623 38.0494918L55.9531623 37.8211513 55.7695237 37.7599105zM49.7280811 37.7599105L51.0632311 37.7599105 52.3992681 37.7599105 52.3992681 37.9900008 51.8971453 37.9900008C51.8066567 37.9952499 51.7188296 38.0197463 51.6398739 38.0617399 51.5697896 38.1229806 51.5298681 38.2113423 51.528981 38.3040783 51.5183353 38.4773021 51.5183353 38.6505259 51.528981 38.8237498L51.528981 41.9172827 51.528981 42.9802471 51.528981 43.7781267 52.5713738 43.7781267 53.9925766 43.7781267C54.1779895 43.7588795 54.3589666 43.7142613 54.5319595 43.6451468 54.5931723 43.4719229 54.6419651 43.2943248 54.6792251 43.114102 54.7395509 42.835894 54.7768109 42.6784178 54.7768109 42.6303L55.0216623 42.6303C55.0216623 42.7519066 55.0216623 42.9924953 54.9480295 43.3433173 54.8743966 43.6941393 54.9480295 43.9837206 54.9480295 44.2015628L52.6201666 44.2015628 51.1989639 44.2015628 50.2426239 44.2015628 50.2426239 44.0440865 50.5619953 43.8629888C50.5806253 43.6652687 50.5806253 43.4675485 50.5619953 43.2707032L50.5619953 41.9172827 50.5619953 39.0048474 50.5619953 38.3285746C50.5611081 38.2550857 50.5398167 38.1842214 50.4998953 38.1221057 50.4528767 38.0783624 50.3934381 38.0494918 50.3286767 38.0381185 50.1246339 38.0223708 49.9197039 38.0223708 49.7156611 38.0381185L49.7156611 37.8080282 49.7280811 37.7599105zM49.0538526 43.4404277L48.882634 43.8629888C48.199534 44.2076868 47.4436883 44.3861598 46.6771969 44.3826604 45.6942427 44.4124059 44.7361284 44.0755817 43.9935899 43.4404277 43.3025056 42.8236457 42.9183728 41.941779 42.9396642 41.0231677 42.926357 40.3766403 43.1099956 39.7406114 43.46574 39.1981932 43.7984184 38.670648 44.280137 38.2507113 44.8505699 37.9900008 45.4600369 37.723166 46.1209583 37.5919358 46.7872026 37.6033091 47.1988369 37.6050588 47.609584 37.6488023 48.0123468 37.736289 48.3574454 37.8071533 48.6945597 37.9121375 49.0174797 38.0494918 48.9048126 38.4650539 48.839164 38.8902397 48.8214212 39.318925L48.6005226 39.318925 48.6005226 38.5332937C48.354784 38.3486965 48.0762212 38.2095925 47.7799154 38.1221057 47.454334 38.0241205 47.1154455 37.9760028 46.7747826 37.9768777 46.2833055 37.9716285 45.7989255 38.087111 45.3659999 38.3154516 44.9525913 38.5359183 44.615477 38.8727425 44.3972399 39.2830554 44.1550499 39.7624831 44.0370599 40.2944027 44.0548028 40.8298218 44.0432699 41.3914871 44.1834384 41.9461534 44.4593399 42.4369542 44.7183856 42.8866363 45.099857 43.2549557 45.5620583 43.4999187 46.0686169 43.7588795 46.6328398 43.8866102 47.2032726 43.8752371 47.4711898 43.8734872 47.7382198 43.8446166 47.9999268 43.7903748 48.2190512 43.749256 48.4328526 43.6845158 48.6377826 43.5970291 48.8098882 43.5200406 48.9740097 43.4273046 49.1274854 43.3188211L49.2011182 43.4150565 49.0538526 43.4404277zM80.1304655 26.5694753L82.177104 26.5694753 84.8979711 26.5694753C84.7986111 27.0226569 84.7409467 27.4837122 84.7258653 27.9473922L84.4934339 27.9473922C84.4943211 27.9228959 84.4943211 27.8992745 84.4934339 27.8747782 84.5138383 27.6254409 84.5138383 27.3752287 84.4934339 27.1258913 84.2343883 27.0261563 83.9611483 26.96929 83.6843597 26.9561669L82.9001254 26.9561669 81.9570926 26.9561669 81.9570926 29.4696623 82.8877054 29.4696623 83.6107268 29.4696623C83.7251683 29.4845351 83.8404968 29.4845351 83.9540511 29.4696623 83.9930853 29.4407917 84.0188125 29.3970484 84.0276839 29.3489306 84.0365553 29.2483208 84.0365553 29.147711 84.0276839 29.0471011L84.0276839 28.756645 84.2485825 28.756645 84.2485825 29.7601185 84.2485825 30.7994616 84.0276839 30.7994616 84.0276839 30.5212536C84.0347811 30.392648 84.0347811 30.2640424 84.0276839 30.134562 84.0126025 30.0899437 83.9824397 30.0514495 83.9416311 30.0260783 83.8325125 29.9814601 83.7171839 29.9560889 83.5983068 29.9534643L82.8264926 29.9534643 82.0058854 29.9534643 82.0058854 31.2342709 82.0058854 32.6480574 82.8637526 32.6480574 84.2849553 32.6480574C84.4703683 32.63056 84.6522325 32.5850669 84.8243382 32.5150775 84.8775667 32.352352 84.9228111 32.187002 84.9582967 32.0199022 85.0203967 31.7661905 85.0567696 31.5964662 85.0691896 31.5369752L85.2892011 31.5369752C85.2483925 31.7644408 85.2200039 31.9945311 85.2040353 32.2254962L85.2040353 33.0714935 82.8752854 33.0714935 81.6501412 33.0714935 80.7310612 33.0714935 80.7310612 32.9140172 81.0495455 32.7451677C81.102774 32.478333 81.1231784 32.2062491 81.1116455 31.93504L81.1116455 30.7268475 81.1116455 27.9473922 81.1116455 27.3909762C81.1205169 27.2912413 81.1205169 27.1897567 81.1116455 27.0891468 81.1196298 27.0454035 81.1196298 27.0007852 81.1116455 26.9561669L80.7559012 26.895801 80.5225827 26.895801 80.1677255 26.895801 80.1677255 26.5213576 80.1304655 26.5694753zM79.2850185 32.2499925L79.1137999 32.6725537C78.431587 33.0172517 77.6748542 33.1948498 76.9074756 33.1922252 75.9085529 33.2342189 74.9300343 32.8973947 74.1750757 32.2499925 73.486653 31.6323357 73.1025201 30.750469 73.1211501 29.8327326 73.1060687 29.1818309 73.2897072 28.5414275 73.6481129 27.9955099 73.9807915 27.4688395 74.4616229 27.0489029 75.0329429 26.7873174 75.64241 26.5213576 76.3033314 26.3892525 76.9695756 26.4006258 77.38121 26.4023755 77.791957 26.4469938 78.1947199 26.5336058 78.5398185 26.60447 78.8760456 26.710329 79.1998527 26.8476833 79.0871855 27.2623707 79.021537 27.6875564 79.0037941 28.1162417L78.7828956 28.1162417 78.7828956 27.3314852C78.5362699 27.1460132 78.2585942 27.0069092 77.9614014 26.9202973 77.636707 26.8214372 77.2978186 26.7733195 76.9571556 26.7750692 76.4656786 26.7680703 75.9804114 26.8853026 75.5474857 27.1136432 75.1340771 27.3332349 74.7969629 27.6700591 74.5796129 28.0803722 74.3374229 28.5597997 74.2194329 29.0917194 74.2362887 29.6271386 74.2256429 30.1888038 74.3649243 30.7425951 74.6408257 31.2342709 74.8998715 31.6848278 75.2822301 32.0531473 75.7435443 32.2981102 76.25099 32.5561962 76.8152128 32.6848018 77.3856456 32.6725537 77.6535628 32.6716788 77.9205928 32.6428082 78.1822999 32.5876915 78.4014242 32.5465728 78.6152256 32.4818324 78.8201556 32.3943457 78.9913741 32.3173573 79.1554955 32.2246213 79.3098585 32.1170126L79.3834913 32.213248 79.2850185 32.2499925zM64.9230633 33.0592453L64.9230633 32.8055336 65.3763933 32.8055336C65.4597847 32.8002844 65.5378533 32.7661645 65.5972919 32.7084232 65.6345519 32.6463077 65.6549561 32.5754434 65.6585047 32.5037042L65.6585047 31.862426 65.6585047 31.1494087 65.6585047 27.3673548C65.6682633 27.2439984 65.6381005 27.121517 65.5724519 27.0174077 65.5156747 26.9412942 65.4331705 26.889677 65.3400205 26.8721796 65.1723505 26.8581818 65.0046805 26.8581818 64.8378975 26.8721796L64.8378975 26.6543374 65.6824575 26.6543374 66.455159 26.6543374 67.9375746 28.5519259 70.1190589 31.2587672C70.3807659 31.5885924 70.6504573 31.8991705 70.9281331 32.1887517L70.9281331 28.5274297 70.9281331 27.8266604 70.9281331 27.1372646C70.9210359 27.0655254 70.8908731 26.9981606 70.8420802 26.9447937 70.7764317 26.9019251 70.7001373 26.8774288 70.6211817 26.8721796L70.1802717 26.8721796 70.1802717 26.6543374 71.2590373 26.6543374 72.1781172 26.5213576 72.1781172 26.7391997C72.0193188 26.7269515 71.8587458 26.7269515 71.6999473 26.7391997 71.6201044 26.7418243 71.5446973 26.776819 71.4914688 26.8354352 71.4772744 26.9036748 71.4772744 26.9727894 71.4914688 27.0410291L71.4914688 27.6691842 71.4914688 28.3944497 71.4914688 31.8388046 71.4914688 33.0469972C71.2253259 32.968259 70.9556345 32.9035188 70.6823945 32.8536514L70.3523773 32.4669597 69.3587774 31.2587672 66.1978875 27.3673548 66.1978875 30.8956971 66.1978875 31.6454588C66.1854675 31.862426 66.1854675 32.0802681 66.1978875 32.2981102 66.1863547 32.3497275 66.1863547 32.4030944 66.1978875 32.4547116 66.2422447 32.4958304 66.2972475 32.5255759 66.3566861 32.5395737 66.5279047 32.557946 66.7008975 32.557946 66.8721161 32.5395737L66.8721161 32.7574159C66.610409 32.7416682 66.3487018 32.7416682 66.0869947 32.7574159L64.8618505 32.7574159 64.9230633 33.0592453zM19.4846726 16.237548C17.2402013 14.131741 14.1893172 13.0757755 11.1029473 13.337361 4.17968469 14.0503783-.649033687 21.9171903.307306273 30.8837114 1.26275909 39.8511072 7.65905882 46.5945889 14.5707886 45.832579 15.9600542 45.7153466 17.3031885 45.2814122 18.4919598 44.5631456 17.6216727 45.0670695 16.6192013 45.302409 15.6122942 45.2402934 10.4162987 45.3855215 5.98058461 38.4731903 5.08634465 30.0263408 4.19121754 21.5786165 6.31148888 14.2550974 11.6174901 14.0503783 14.4261842 13.7695457 17.238427 14.5516776 19.4846726 16.237548"/>
    <path stroke="#010101" stroke-width=".552" d="M19.4846726,16.237548 C17.2402013,14.131741 14.1893172,13.0757755 11.1029473,13.337361 C4.17968469,14.0503783 -0.649033687,21.9171903 0.307306273,30.8837114 C1.26275909,39.8511072 7.65905882,46.5945889 14.5707886,45.832579 C15.9600542,45.7153466 17.3031885,45.2814122 18.4919598,44.5631456 C17.6216727,45.0670695 16.6192013,45.302409 15.6122942,45.2402934 C10.4162987,45.3855215 5.98058461,38.4731903 5.08634465,30.0263408 C4.19121754,21.5786165 6.31148888,14.2550974 11.6174901,14.0503783 C14.4261842,13.7695457 17.238427,14.5516776 19.4846726,16.237548 Z"/>
    <path fill="#010101" fill-rule="nonzero" d="M24.9621586,13.5181087 C26.6592627,13.6099698 28.3226556,14.0202829 29.8636226,14.7263012 C35.5129481,17.3255337 38.4422936,23.7663111 37.6695923,30.9078577 C36.6405067,39.8140128 30.2681597,46.5452463 23.3573172,45.8567253 C21.9831329,45.7246202 20.6577416,45.2828119 19.4849388,44.5636706 C20.3552259,45.0667196 21.3576973,45.3029339 22.3646043,45.2399434 C27.5605999,45.3851715 31.9963139,38.4728403 32.891441,30.0259908 C33.5772024,23.5607172 32.4860168,17.7480949 28.7369512,15.2582209 C27.4825313,14.4472184 26.0205199,14.0036604 24.5212486,13.9774143 C19.778583,13.7481989 17.573146,10.5575557 17.7692045,6.72650925 C17.9652631,2.89546277 20.4652316,0.0442683151 23.3697372,0.188621516 C24.6658528,0.279607778 25.8617213,0.913012129 26.6530527,1.92873375 C25.8351071,1.08623597 24.72263,0.580562331 23.5409558,0.514947239 C21.3355187,0.261235551 19.9622216,3.14917445 19.7670502,6.71513596 C19.5701044,10.2793477 20.9921944,13.4218732 24.9621586,13.5181087"/>
    <path stroke="#010101" stroke-width=".552" d="M24.9621586,13.5181087 C26.6592627,13.6099698 28.3226556,14.0202829 29.8636226,14.7263012 C35.5129481,17.3255337 38.4422936,23.7663111 37.6695923,30.9078577 C36.6405067,39.8140128 30.2681597,46.5452463 23.3573172,45.8567253 C21.9831329,45.7246202 20.6577416,45.2828119 19.4849388,44.5636706 C20.3552259,45.0667196 21.3576973,45.3029339 22.3646043,45.2399434 C27.5605999,45.3851715 31.9963139,38.4728403 32.891441,30.0259908 C33.5772024,23.5607172 32.4860168,17.7480949 28.7369512,15.2582209 C27.4825313,14.4472184 26.0205199,14.0036604 24.5212486,13.9774143 C19.778583,13.7481989 17.573146,10.5575557 17.7692045,6.72650925 C17.9652631,2.89546277 20.4652316,0.0442683151 23.3697372,0.188621516 C24.6658528,0.279607778 25.8617213,0.913012129 26.6530527,1.92873375 C25.8351071,1.08623597 24.72263,0.580562331 23.5409558,0.514947239 C21.3355187,0.261235551 19.9622216,3.14917445 19.7670502,6.71513596 C19.5701044,10.2793477 20.9921944,13.4218732 24.9621586,13.5181087 Z"/>
  </g>
</svg>
