<svg width="136" height="71" viewBox="0 0 136 71" xmlns="http://www.w3.org/2000/svg" xmlns:xlink="http://www.w3.org/1999/xlink">
  <defs>
    <path id="a" d="M0 .0834535h63.1470386v29.8951643H0z"/>
    <path id="c" d="M.0253763.031074h3.7150418v22.3152753H.0253763z"/>
  </defs>
  <g fill="none" fill-rule="evenodd">
    <path d="M80.7733729 30.5247553c.5509842-2.6750741.8140861-3.3440024 1.3777836-3.8891183.4255744-.4208772.9263516-.6190624 1.6529525-.6190624.6511827 0 1.1648887.1981852 1.4777667.5821957.2378907.2972778.3755829.7801678.3755829 1.2383379 0 .1858252 0 .3469306-.0372782.5698357h-1.3277921c.0377091-.1858252.0377091-.3343576.0377091-.495463 0-.3963704-.1376921-.7183681-.6261869-.7183681-.2753843 0-.4757814.0867327-.6384693.260198-.3508026.3590775-.513706.8916203-.9647071 3.0714445-.2251774 1.1273116-.3755829 2.0436518-.3755829 2.5761946 0 .4831031.1878992.755448.6386848.755448.3130935 0 .5259884-.1238125.6888918-.3219977.2003971-.2352651.3255914-.5199698.4130765-.9039803h1.34029c-.1878992.8916203-.463499 1.4490961-.976774 1.8949063-.3882963.3343576-.8392974.507823-1.5904631.507823-.7765925 0-1.2525893-.2599849-1.540687-.7060082-.2253929-.3590775-.3003801-.6812883-.3003801-1.2138311 0-.5325429.1376921-1.3870834.3755828-2.5885546M87.9447645 27.870714H86.533682l.2372217-1.1027582h4.1462234l-.2372218 1.1027582h-1.4115122l-1.5359248 7.1624352h-1.3236285zM92.9414591 30.7033151c.6413055 0 .9447016-.3715052 1.1545907-1.4163139.0463522-.2320909.0933063-.5107199.0933063-.7196416 0-.4643816-.1866126-.6964726-.7113354-.6964726h-.6415062l-.5714763 2.8324281h.6764209zm-1.1196762-3.9353593h1.8775645c.6531444 0 1.0380079.12763 1.3412034.4296279.279919.2784292.3848636.6846882.3848636 1.1259006 0 .2902136-.0232765.5920117-.0933064.9635169-.40814 2.0314947-1.189706 2.5190455-2.4490407 2.5190455h-.839757l-.6413056 3.2271025h-1.2362588l1.656037-8.2651934zM96.4271852 26.7679558h3.5065165l-.2347308 1.1027315H97.501636l-.5189568 2.449538h1.8893172l-.2347308 1.0911469h-1.8891047l-.5306402 2.5188457h2.1973348l-.2345183 1.1029313h-3.5063041zM101.729887 26.7679558h1.214432l.708202 4.2719112 2.580343-4.2719112h1.21465l-1.796185 8.2651934h-1.341099l1.113229-5.1309672-1.871923 3.2852251h-.746289l-.404811-3.3083942-1.125853 5.1541363h-1.3408813zM109.175395 26.7679558h1.289891l-1.046401 4.9683837 2.944705-4.9683837h1.094974l-1.727882 8.2651934H110.441l1.034258-4.9569989-2.896132 4.9569989h-1.131612zM114.503367 26.7679558h1.214433l.708201 4.2719112 2.580343-4.2719112h1.21465l-1.796185 8.2651934h-1.341099l1.11323-5.1309672-1.871924 3.2852251h-.746288l-.404811-3.3083942-1.125853 5.1541363h-1.340882zM120.596562 30.5247553c.551177-2.6750741.814053-3.3440024 1.377727-3.8891183.425557-.4208772.926529-.6190624 1.652885-.6190624.651371 0 1.164841.1981852 1.477922.5821957.237665.2972778.375567.7801678.375567 1.2383379 0 .1858252 0 .3469306-.037492.5698357h-1.327522c.037492-.1858252.037492-.3343576.037492-.495463 0-.3963704-.137687-.7183681-.625946-.7183681-.275589 0-.475977.0867327-.638659.260198-.350572.3590775-.513685.8916203-.964452 3.0714445-.225383 1.1273116-.375567 2.0436518-.375567 2.5761946 0 .4831031.187891.755448.638443.755448.313296 0 .526182-.1238125.688863-.3219977.200389-.2352651.325578-.5199698.413276-.9039803h1.340019c-.187891.8916203-.46348 1.4490961-.976734 1.8949063-.38828.3343576-.839263.507823-1.590398.507823-.77656 0-1.252538-.2599849-1.540624-.7060082-.225383-.3590775-.300368-.6812883-.300368-1.2138311 0-.5325429.137687-1.3870834.375568-2.5885546" fill="#0078C1"/>
    <path d="M126.970245 29.8440594c0 .499335.223865.6964725.790897.6964725h.725121l.606272-2.6698446h-.751205c-.725121 0-1.054454.3249673-1.278772 1.3350222-.052847.2205063-.092313.4410127-.092313.6383499zm-.738276 1.4742368c-.527114-.2902135-.685429-.7661797-.685429-1.311853 0-.2087221.039465-.4641819.118623-.8007337.461564-2.0083256 1.173304-2.4377537 2.8211-2.4377537h2.254068l-1.885043 8.2651934h-1.397395l.791124-3.4362241h-.738276l-2.003667 3.4362241h-1.529173l2.254068-3.714853zM80.511375 42.8065981l2.8514024-4.0165429h1.5432999l-2.9558345 4.0049574 1.2423823 4.260236h-1.5171919l-1.1640582-4.2486505zm-.5104571-4.0165429h1.3868768l-1.8572715 8.2651934h-1.3868768l1.8572715-8.2651934zM87.7799028 45.9524372c.6341135 0 .9224912-.3599468 1.1418012-1.4162169.0460452-.2205223.080579-.5107569.080579-.7312792 0-.4644153-.1728678-.6965231-.6918684-.6965231h-.6460217l-.5650457 2.8440192h.6805556zm-.4844666-7.162382h3.6216909l-.21931 1.1028115h-2.3989138l-.4153989 2.1127399h.6458233c.6460217 0 1.0266882.1392247 1.3265772.4410447.2768665.2786491.3806666.6733522.3806666 1.1259822 0 .2902346-.0347324.6617668-.0922888.9635868-.4036892 2.0314422-1.1765335 2.5190283-2.4221348 2.5190283h-2.0646893l1.6379776-8.2651934zM95.6039081 39.983158c0-.4458418-.1625239-.7678623-.6621344-.7678623-.2498052 0-.4499503.0867388-.624728.2602164-.3248328.3218074-.5122942.9040444-.9495609 3.0714492-.2246527 1.1146045-.3871766 2.0435836-.3871766 2.5638034 0 .4458418.1625239.7678623.6621344.7678623.2500202 0 .4497354-.0867388.624728-.2602165.3248328-.3218074.5122942-.9040443.9493459-3.0714492.2248677-1.1148175.3873916-2.0435835.3873916-2.5638033m-2.1863332-1.3375254c.4372666-.4211201.9368771-.6069586 1.6491015-.6069586.7997207 0 1.2866474.2725773 1.5618201.7307799.2248677.3467421.2996803.6564018.2996803 1.1766216 0 .5449414-.1373714 1.3995426-.3873916 2.6008858-.5494855 2.6876246-.787037 3.3440265-1.3741437 3.9013287-.4247979.4213333-.9244084.6069586-1.6364178.6069586-.8124045 0-1.2993312-.2723641-1.5745039-.7307798-.2123989-.3467422-.2872115-.6564019-.2872115-1.1766217 0-.5449414.1373714-1.3995425.3749228-2.6008858.5621693-2.6876246.7992908-3.3440264 1.3741438-3.9013287" fill="#0078C1"/>
    <path d="M95.6531876 45.9524372h.1200761c.6952861 0 1.1508326-.4178739 1.5948254-2.5771552l.9589584-4.5852268h3.8607975l-1.702522 8.2651934h-1.2830816l1.4749556-7.1623819h-1.3550858l-.7311851 3.5289567c-.647627 3.1574245-1.3072204 3.6334252-2.7819696 3.6334252h-.3835421l.2277732-1.1028114zM104.625503 45.9524372c.728584 0 1.059821-.3599468 1.311725-1.4162169.052661-.2205223.092555-.5107569.092555-.7312792 0-.4644153-.198787-.6965231-.794923-.6965231h-.741806l-.649252 2.8440192h.781701zm-.556469-7.162382h1.404508l-.728812 3.2155514h.741807c.742034 0 1.179276.1392247 1.523735.4410447.318015.2786491.437242.6733522.437242 1.1259822 0 .2902346-.039895.6617668-.106233.9635868-.463458 2.0314422-1.351392 2.5190283-2.781889 2.5190283h-2.371547l1.881189-8.2651934zM109.138545 38.7900552h1.262536l-1.464795 7.162382h1.393277l1.464795-7.162382h1.262536l-1.465 7.162382h1.393277l1.465-7.162382h1.262536l-1.691441 8.2651934h-6.573752zM117.466001 38.7900552h3.506375l-.234538 1.1028115h-2.197512l-.518786 2.4493161h1.889045l-.23475 1.091226h-1.888833l-.530683 2.5190284h2.1973l-.234325 1.1028114h-3.506587zM122.017284 38.7900552h1.214285l.708242 4.2718214 2.580493-4.2718214h1.214503l-1.796072 8.2651934h-1.341177l1.113295-5.1309397-1.872033 3.2850638h-.746331l-.404835-3.3082346-1.1257 5.1541105h-1.34096zM127.952698 45.9524372c.713609 0 1.027855-.1857661 1.318169-.8473332l.338595-.7430644-.616838-5.5719844h1.306098l.229962 3.9002892 1.850514-3.9002892h1.366658l-3.483137 6.6747959c-.665536 1.2769921-.943571 1.5903975-2.527912 1.5903975l.217891-1.1028114zM134.661585 38.7900552H136l-1.244272 5.9666874h-1.17437l1.080227-5.9666874zm-1.385285 6.8489766h1.350133l-.281623 1.4162168h-1.350335l.281825-1.4162168z" fill="#0078C1"/>
    <g transform="translate(0 17)">
      <mask id="b" fill="#fff">
        <use xlink:href="#a"/>
      </mask>
      <path d="M42.784753 25.2902676c.238262 0 .3228408.0520928.3228408.3207487v1.4558672c0 .2655051-.0845788.3323015-.3228408.3323015h-.1659778v-2.1089174h.1659778zm17.0944503 1.4086056c.238262 0 .311394.0586044.311394.3175979v.5471842c0 .2571031-.073132.3173879-.311394.3173879h-.238262v-1.18217h.238262zm-18.7913251-1.0779845c0-.2640348.0879704-.3306211.3222049-.3306211h.1708533v2.1089174h-.1708533c-.2342345 0-.3222049-.0619652-.3222049-.3274703v-1.450826zm-20.0385968 4.3577291h42.0977572v-6.9552263H21.0492814v6.9552263zm4.5710691-5.8266195H24.552199v1.7472087h-.54902v-1.7472087h-1.0673035v4.5287111h1.0673035v-1.9818362h.54902v1.9818362h1.0681515v-4.5287111zm8.8487622-.0033608h-2.5611045v4.5354327h2.5611045v-.859951H33.009016v-1.0666416h1.3064134v-.8582706H33.009016v-.8922989h1.4600967v-.8582706zm9.6729282 1.5031288c0-.925067-.4542664-1.1594845-1.5232657-1.1594845v-.3402835h-1.0378388v.3402835c-1.071331 0-1.5292011.2344175-1.5292011 1.1594845v1.4151172c0 .9185553.4773719 1.165996 1.5292011 1.165996v.4478299h1.0378388v-.4478299c1.0518292 0 1.5232657-.2474407 1.5232657-1.165996v-1.4151172zm8.208804-1.5031288h-2.6876546v.8582706h.8667734v3.6771621h1.0147332v-3.6771621h.806148v-.8582706zm8.905572 2.8987112c0-.9055322-.3879176-1.1481417-1.4355073-1.1481417h-.1799683v-1.7472087h-1.0675155v4.5287111h1.0675155c1.1601493 0 1.6154756-.1758131 1.6154756-1.1674664v-.4658943zm-43.0230362-7.4990498v7.1358707c-1.9211463 2.0242666-4.6550119 3.2944482-7.6911565 3.2944482-5.8200368 0-10.5422454-4.659153-10.5422454-10.4042725 0-5.7419687 4.7222086-10.4009117 10.5422454-10.4009117v7.8214789c-1.5143628 0-3.0295734.5698698-4.1848473 1.7098194-.2759939.2703364-.5176475.5618879-.7270806.8696134-1.5506108 2.2717073-1.309805 5.3821504.7270806 7.3915034 1.155274 1.1367989 2.6704845 1.7100295 4.1848473 1.7100295 1.5069435 0 3.0157948-.5650386 4.1702208-1.6970063.0057234-.0065116.0116587-.0096624.018018-.0144936v-.0033608l.0148384-.0113428c1.1578176-1.1416301 1.1578176-2.9963851 0-4.1346544-1.1578176-1.1433105-3.032117-1.1433105-4.1890868 0-.0074192.0031508-.0105988.0065116-.0139904.0113428v-3.2780642h7.6911565zM16.9220918 5.4767366c.6359306 2.7701597.6242719 4.4734675.348278 6.4162342-.5004774 3.4979881-2.1036584 6.1717341-2.7978826 7.0690743-.476736-.6089394-1.2061484-1.8516043-1.6926353-3.0108787 0 0-.9204035-2.2065914-1.163541-4.3562588-.2433494-2.1511377-.1388448-4.3365139.5702178-6.7972676.6499211-2.2112125 1.9251739-4.19809 2.2745117-4.7141865.2191841.3663298 1.8223651 2.6218632 2.4610514 5.3932831zm-2.4610514 12.7965495c.3253845-.5978067.8841555-1.9085282.8347649-3.574447-.0680445-1.7001571-.6482252-2.9459727-.8233181-3.2440358-.1996822.2980631-.8718608 1.7262035-.8604141 3.395483.0479068 1.7211623.5358775 2.8384264.8489673 3.4229998zm2.2768435-8.0934956c.0197139-1.0569793-.0830949-2.85313-.603922-4.7274198-.522523-1.8745-1.5357724-3.6574173-1.6852161-3.8888941-.1488078.2314768-.9509282 1.679152-1.6591429 3.945818-.1865397.6790966-.522523 2.1530282-.5808166 3.5891506-.0682566 1.7423774.1700054 3.4702613.2662429 3.9588412 0-.5763814.0114468-2.4979328.3713835-4.084242.3605726-1.58946 1.0458938-3.4181686 1.6023331-4.3478567.6039221.9786301 1.3606795 3.0906983 1.6252266 4.3577291.2687867 1.2668208.4082674 2.8871584.3508217 4.0353.1611024-.6660734.2885005-1.781447.3130898-2.8384263zm43.7789458-1.0601301h2.6302089v10.4303189h-2.024591v-6.5416349h-.0699524l-1.0418663 6.5416349h-1.6171715l-1.0393225-6.5416349h-.0691045v6.5416349h-2.0254389V9.1196603h2.6261813l1.3112889 7.3297483 1.319768-7.3297482zm-14.4494029 5.7354571c.2200319 0 .3771068-.1921972.3771068-.5211379v-3.3986338c0-.3272603-.1570749-.5209278-.3771068-.5209278h-.5324859v4.4406995h.5324859zm-2.5530494-5.7354571h3.1758374c1.4166414 0 1.6409129 1.133438 1.6409129 1.862947v3.1560243c0 .7326598-.2242715 1.8660978-1.6409129 1.8660978h-1.1552739v3.5452498h-2.0205635V9.1196603zm-6.1422416 0h4.6787533v10.4303189h-1.886594V10.414418h-.907049v9.1355613h-1.8851103V9.1196603zm-3.9860129 6.7775227v1.9625115c0 .2703363.1990462.3451147.3164814.3451147.1856917 0 .3154216-.1644704.3154216-.3451147v-2.4248349c0-.3257899-.0559619-.6839278-.8084798-.6839278h-.8216223v-1.1464612h.8504512c.5776369 0 .7796509-.138424.7796509-.7736198v-2.074679c0-.1789639-.1297299-.3417539-.3154216-.3417539-.1174352 0-.3164814.0747784-.3164814.3417539v1.7001571h-2.025439v-1.4737216c0-.729509.0896662-1.862947 1.502916-1.862947h1.676949c1.4149455 0 1.50228 1.133438 1.50228 1.862947v1.6707499c0 1.1302873-.7675682 1.4411636-1.3748819 1.4119664v.1056559c1.3574998-.0323479 1.3748819 1.0422758 1.3748819 1.4153273v2.0990449c0 .7311894-.0873345 1.8646275-1.50228 1.8646275h-1.676949c-1.4132498 0-1.502916-1.1334381-1.502916-1.8646275v-1.7881687h2.025439zm-5.1364114-.2669755l-.3467942-5.2157896h-.1117118l-.3499738 5.2157896h.8084798zm-1.9917346-6.5105472H29.43551l1.0550089 10.4303189h-1.978592l-.1873876-2.7733104h-.953048l-.1914151 2.7733104h-1.9745645l1.0524652-10.430319zm-5.2086955 0h3.8579789v1.2947576h-1.8365676v9.1355613h-2.0214113V9.1196603zm31.5118446 0c1.4166414 0 1.5054597 1.133438 1.5054597 1.862947v6.7027444c0 .7311894-.0888183 1.8646275-1.5054597 1.8646275h-1.6729214c-1.4140977 0-1.4995243-1.1334381-1.4995243-1.8646275v-6.7027444c0-.729509.0854266-1.862947 1.4995243-1.862947h1.6729214zm-.833917 9.1406025c.2439854 0 .4468472-.1856856.4468472-.4152719l-.0006359-.0130232v-7.0220227l-.0033916-.032558c-.0214097-.20354-.2134607-.3663299-.4462113-.3663299-.2316907 0-.4173825.1627899-.4445155.3663299v7.0545807l-.0031797.0130232c0 .2295863.202014.4152719.4510868.4152719z" fill="#0078C1" mask="url(#b)"/>
    </g>
    <path fill="#0078C1" d="M60.359847 26.7679558h2.7561751v10.519337h-2.1215529V30.689828h-.0733025l-1.0917635 6.5974648H58.134782l-1.0890978-6.5974648h-.0724141v6.5974648h-2.1224414v-10.519337h2.7519547l1.3740892 7.3923044z"/>
    <g transform="translate(69.878453 25.265193)">
      <mask id="d" fill="#fff">
        <use xlink:href="#c"/>
      </mask>
      <path fill="#0078C1" mask="url(#d)" d="M.0253763.031074l2.5405161 11.1575744L.0253763 22.3464336h1.1747662l2.5402756-11.1577852L1.2001425.0310741z"/>
    </g>
  </g>
</svg>
