<svg xmlns="http://www.w3.org/2000/svg" xmlns:xlink="http://www.w3.org/1999/xlink" width="103" height="71" viewBox="0 0 103 71">
  <defs>
    <path id="a" d="M0 .107h14.565v21.767H0z"/>
    <path id="c" d="M.13.049h15.353v19.355H.13z"/>
    <path id="e" d="M.037-.001h11.318V16.38H.037z"/>
  </defs>
  <g fill="none" fill-rule="evenodd">
    <g transform="translate(7 22.025)">
      <mask id="b" fill="#fff">
        <use xlink:href="#a"/>
      </mask>
      <path fill="#FC3F1D" d="M10.75 3.051H9.048c-3.121 0-4.76 1.566-4.76 3.884 0 2.63 1.135 3.852 3.468 5.418l1.922 1.284-5.548 8.237H0l4.981-7.36C2.112 12.478.504 10.505.504 7.154.504 2.957 3.436.107 9.017.107h5.548v21.767H10.75V3.051z" mask="url(#b)"/>
    </g>
    <g transform="translate(38.68 28.097)">
      <mask id="d" fill="#fff">
        <use xlink:href="#c"/>
      </mask>
      <path fill="#000" d="M10.06 12.858H4.765c1.04-2.38 1.324-6.67 1.324-9.396v-.47h3.973v9.866zM13.813.048H2.872v1.347c0 3.853-.252 8.832-1.576 11.463H.13v6.546h3.468v-3.602h8.417v3.602h3.468v-6.546h-1.67V.048z" mask="url(#d)"/>
    </g>
    <path fill="#000" d="M33.482 34.378h-5.013v-6.233h-3.751v15.754h3.751v-6.577h5.013v6.577h3.752V28.145h-3.752z"/>
    <g transform="translate(83.824 27.833)">
      <mask id="f" fill="#fff">
        <use xlink:href="#e"/>
      </mask>
      <path fill="#000" d="M7.73 2.943c1.45 0 2.868.502 3.625.971V.751C10.566.313 9.179 0 7.319 0 2.527 0 .037 3.413.037 8.205c0 5.262 2.427 8.175 7.44 8.175 1.734 0 2.963-.314 3.878-.971V12.37c-.946.657-2.081 1.064-3.657 1.064-2.68 0-3.783-2.067-3.783-5.324 0-3.414 1.355-5.168 3.814-5.168" mask="url(#f)"/>
    </g>
    <path fill="#000" d="M83.356 28.145h-3.783l-5.296 7.266v-7.266h-3.752v15.754h3.752v-7.736l5.548 7.736h4.256l-6.021-8.488zM64.188 34.597h-5.233c.095-2.505 1.009-3.82 2.806-3.82 1.86 0 2.427 1.534 2.427 3.507v.313zm-2.364-6.765c-4.571 0-6.746 3.477-6.746 8.237 0 5.481 2.71 8.143 7.503 8.143 2.396 0 4.161-.626 5.264-1.378v-3.038c-1.166.783-3.12 1.472-4.95 1.472-2.742 0-3.782-1.284-3.94-3.915h9.048V35.38c0-5.48-2.427-7.548-6.179-7.548z"/>
  </g>
</svg>
