<svg xmlns="http://www.w3.org/2000/svg" width="146" height="71" viewBox="0 0 146 71">
  <g fill="none" transform="translate(9 18)">
    <path fill="#434343" d="M42.2095982 8.60383964L42.2095982 1.50879994 41.7311983 1.50879994 41.7311983 4.7692798 37.4403184 4.7692798 37.4403184 1.50879994 36.9619185 1.50879994 36.9619185 8.60383964 37.4403184 8.60383964 37.4403184 5.23295978 41.7311983 5.23295978 41.7311983 8.60383964 42.2095982 8.60383964zM46.5225581 3.45179786C45.091543 3.45997082 43.9365344 4.62376292 43.93924 6.05479848 43.9419551 7.48583404 45.1013638 8.64524271 46.5323993 8.6479578 47.9634349 8.65066338 49.127227 7.49565477 49.1354 6.06463975 49.1393021 5.37048051 48.8652925 4.70361053 48.3744399 4.2127579 47.8835873 3.72190527 47.2167173 3.44789567 46.5225581 3.45179786zM46.5225581 3.89343984C47.7146077 3.88152495 48.6917555 4.83599631 48.7078284 6.02799717 48.7239013 7.21999802 47.7728443 8.20046924 46.5809067 8.22069996 45.3889692 8.24093069 44.4051865 7.29329946 44.3807982 6.10143975 44.3729196 5.52832605 44.5950857 4.97596724 44.9976007 4.56791938 45.4001157 4.15987153 45.9493902 3.93018569 46.5225581 3.93023984L46.5225581 3.89343984zM50.7839979 3.54015985L50.7839979 8.60383964 53.4556778 8.60383964C54.7068777 8.60383964 55.2441577 8.09599966 55.2441577 7.2054397 55.2778211 6.5892096 54.8384665 6.04797569 54.2284778 5.95423975 54.6996037 5.77920844 54.9992043 5.31482755 54.9644777 4.8134398 54.9644777 4.12159983 54.5302377 3.54015985 53.3894378 3.54015985L50.7839979 3.54015985zM51.2403179 3.93759984L53.4483178 3.93759984C54.2947177 3.93759984 54.5743977 4.35711982 54.5743977 4.8649598 54.5743977 5.37279978 54.2947177 5.78495976 53.4483178 5.78495976L51.2403179 5.78495976 51.2403179 3.93759984zM51.2403179 8.20639966L51.2403179 6.13823975 53.4483178 6.13823975C54.4124777 6.13823975 54.7510377 6.54303973 54.7510377 7.1539197 54.7510377 7.76479968 54.4124777 8.19167966 53.4262378 8.19167966L51.2403179 8.20639966zM59.2185575 3.46651786C57.7865637 3.47063953 56.6278794 4.63265384 56.6278794 6.06465351 56.6278794 7.49665318 57.7866122 8.65864581 59.2186062 8.66270932 60.6506001 8.66675157 61.8158783 7.5113364 61.8240394 6.07935975 61.8279416 5.38520051 61.553932 4.71833053 61.0630794 4.2274779 60.5722268 3.73662527 59.9053568 3.46261567 59.2111975 3.46651786L59.2185575 3.46651786zM59.2185575 3.90815984C60.4106072 3.89624495 61.387755 4.85071631 61.4038279 6.04271717 61.4199008 7.23471802 60.4688437 8.21518924 59.2769062 8.23541996 58.0849687 8.25565069 57.1011859 7.30801946 57.0767976 6.11615975 57.068919 5.54304605 57.2910852 4.99068724 57.6936002 4.58263938 58.0961152 4.17459153 58.6453897 3.94490569 59.2185575 3.94495984L59.2185575 3.90815984zM65.7542373 3.46655986C64.5538281 3.4751205 63.5155793 4.30497484 63.2427 5.47398828 62.9698208 6.64300171 63.5333697 7.84675887 64.6059323 8.38589247 65.6784949 8.92502606 66.9807718 8.65914374 67.7561572 7.74271968L67.4617572 7.43359969C67.0412289 7.94295236 66.4147538 8.23728766 65.7542373 8.23583966 65.1836982 8.23786856 64.6362628 8.01060345 64.2349095 7.60509822 63.8335562 7.199593 63.611937 6.64984773 63.6198374 6.07935975 63.6079344 5.50634286 63.8277815 4.95277104 64.2295745 4.54405058 64.6313675 4.13533011 65.1811006 3.90605304 65.7542373 3.90815984 66.4198984 3.90228269 67.0526823 4.197041 67.4764772 4.7103998L67.7708772 4.41599982C67.2793877 3.81574081 66.5447615 3.4673335 65.7689573 3.46655986L65.7542373 3.46655986zM73.8502369 8.61855964L73.8502369 3.54015985 73.5999969 3.54015985 69.8316771 7.78687968 69.8316771 3.54015985 69.3827171 3.54015985 69.3827171 8.60383964 69.6329571 8.60383964 73.386557 4.35711982 73.386557 8.60383964 73.8502369 8.61855964zM79.8191967 1.52351994C79.8191967 1.93567992 79.5395167 2.06079991 78.5164767 2.06079991 76.6323168 2.06079991 75.4988769 2.90719988 75.4988769 4.65887981L75.4988769 6.04991975C75.4988769 7.48479965 76.6620769 8.64799964 78.0969568 8.64799964 79.5318367 8.64799964 80.6950367 7.48479965 80.6950367 6.04991975 80.7030111 5.37016477 80.4364997 4.71592163 79.9558073 4.2352292 79.4751149 3.75453677 78.8208717 3.48802536 78.1411168 3.49599986 77.1906455 3.48970805 76.325501 4.04340056 75.9331169 4.9091198L75.9331169 4.54111981C75.9331169 3.06911987 76.8899168 2.4508799 78.4575967 2.4508799L78.5974367 2.4508799C79.7676767 2.4508799 80.2607967 2.20063991 80.2607967 1.50879994L79.8191967 1.52351994zM78.0969568 3.96703984C78.967527 3.9640635 79.7538942 4.4865857 80.0884233 5.29032172 80.4229525 6.09405775 80.2395512 7.02021475 79.6239615 7.63580445 79.0083718 8.25139415 78.0822148 8.43479546 77.2784787 8.10026631 76.4747427 7.76573717 75.9522205 6.97936996 75.9551969 6.10879975 75.9512437 5.53956702 76.1756231 4.99250214 76.5781411 4.58998411 76.9806592 4.18746609 77.527724 3.96308669 78.0969568 3.96703984zM86.8479964 8.60383964L86.8479964 3.54015985 86.6051164 3.54015985 82.8367966 7.78687968 82.8367966 3.54015985 82.3731166 3.54015985 82.3731166 8.60383964 82.6380766 8.60383964 86.3916764 4.35711982 86.3916764 8.60383964 86.8479964 8.60383964zM91.4700762 3.45183986C90.5210601 3.46464583 89.6630987 4.01946086 89.2620763 4.8796798L89.2620763 3.52543985 88.9014363 3.52543985 88.9014363 10.4511996 89.3503963 10.4511996 89.3503963 7.3084797C89.7464644 8.13928104 90.5865045 8.6668148 91.5068762 8.66271964 92.1912877 8.66471181 92.8480277 8.39270183 93.330597 7.90736704 93.8131664 7.42203225 94.0814191 6.76374867 94.0755161 6.07935975 94.0873608 5.39049521 93.8219751 4.72574927 93.3389718 4.23444229 92.8559686 3.7431353 92.1958426 3.46645803 91.5068762 3.46655986L91.4700762 3.45183986zM91.4700762 3.89342118C92.0497899 3.89101362 92.6053778 4.1253103 93.0082952 4.54212138 93.4112126 4.95893246 93.6265466 5.52214122 93.6044761 6.10143975 93.6509923 6.89255703 93.2553588 7.64432047 92.576936 8.05392129 91.8985132 8.46352211 91.0489992 8.46352211 90.3705764 8.05392129 89.6921536 7.64432047 89.2965201 6.89255703 89.3430363 6.10143975 89.3331843 5.53028673 89.5526894 4.97901893 89.9524446 4.57096429 90.3521998 4.16290964 90.8988413 3.93212466 91.4700762 3.93023984L91.4700762 3.89342118zM98.0057559 3.45183986C96.8053467 3.4604005 95.767098 4.29025485 95.4942187 5.45926828 95.2213394 6.62828171 95.7848884 7.83203887 96.857451 8.37117247 97.9300135 8.91030606 99.2322905 8.64442374 100.007676 7.72799968L99.7132759 7.41887969C99.2927476 7.92823236 98.6662725 8.22256766 98.0057559 8.22111966 96.8107002 8.22111966 95.841916 7.25233553 95.841916 6.05727975 95.841916 4.86222397 96.8107002 3.89343984 98.0057559 3.89343984 98.6479942 3.91290907 99.2498949 4.21117236 99.6543959 4.7103998L99.9487959 4.41599982C99.4573064 3.81574081 98.7226801 3.4673335 97.9468759 3.46655986L98.0057559 3.45183986zM105.483516 8.60383964L105.983996 8.60383964 105.034556 7.1318397C104.600316 6.46943973 104.357436 6.08671975 103.893756 5.94687975 104.261756 5.79231976 104.511996 5.42431978 104.894716 4.8281598L105.755836 3.53279985 105.218556 3.53279985 104.511996 4.61471981C103.952636 5.46111977 103.775996 5.77023976 102.922236 5.77023976L102.075836 5.77023976 102.075836 3.56223985 101.567996 3.56223985 101.567996 8.62591964 102.024316 8.62591964 102.024316 6.20447974 103.039996 6.20447974C103.886396 6.20447974 104.085116 6.49151973 104.629756 7.35999969L105.483516 8.60383964zM111.842555 8.60383964L111.842555 3.54015985 111.592315 3.54015985 107.823996 7.78687968 107.823996 3.54015985 107.360316 3.54015985 107.360316 8.60383964 107.610556 8.60383964 111.378875 4.35711982 111.378875 8.60383964 111.842555 8.60383964zM116.030395 2.87775988C116.375334 2.90196022 116.715631 2.78724294 116.975519 2.55914964 117.235407 2.33105633 117.393311 2.00852259 117.414075 1.66335993L117.023995 1.66335993C117.005467 1.91576512 116.885381 2.14986923 116.691184 2.31216256 116.496987 2.47445588 116.245279 2.55106526 115.993595 2.5244799 115.743429 2.55107308 115.493286 2.47406092 115.301395 2.31137074 115.109504 2.14868055 114.992607 1.91450612 114.977915 1.66335993L114.602555 1.66335993C114.623258 2.00989549 114.78219 2.33361973 115.043706 2.56192782 115.305223 2.79023591 115.647436 2.90401974 115.993595 2.87775988L116.030395 2.87775988zM118.275195 8.60383964L118.275195 3.54015985 118.024955 3.54015985 114.256635 7.78687968 114.256635 3.54015985 113.792955 3.54015985 113.792955 8.60383964 114.057915 8.60383964 117.759995 4.35711982 117.759995 8.60383964 118.275195 8.60383964zM37.3151985 13.2479995L40.8111983 13.2479995 40.8111983 12.8063995 36.8588785 12.8063995 36.8588785 17.8847993 37.3151985 17.8847993 37.3151985 13.2479995zM44.2262382 12.7401169C43.1717714 12.7371807 42.219477 13.3700837 41.8138844 14.3434303 41.4082918 15.3167769 41.6293818 16.4386281 42.37395 17.1853055 43.1185181 17.9319829 44.2397394 18.1562456 45.2142295 17.7534081 46.1887195 17.3505705 46.8243139 16.4000703 46.8243181 15.3455994 46.8302401 14.654073 46.5586549 13.9890433 46.0703461 13.4993512 45.5820373 13.0096591 44.9177786 12.7361936 44.2262382 12.7401169L44.2262382 12.7401169zM44.2262382 13.1743995C45.3703471 13.2412105 46.263934 14.1885014 46.263934 15.3345594 46.263934 16.4806174 45.3703471 17.4279082 44.2262382 17.4947193 43.0821292 17.4279082 42.1885423 16.4806174 42.1885423 15.3345594 42.1885423 14.1885014 43.0821292 13.2412105 44.2262382 13.1743995L44.2262382 13.1743995zM50.7839979 12.7254395C49.5714137 12.7175937 48.5137233 13.5473307 48.2326557 14.7269166 47.9515881 15.9065025 48.5214588 17.1240492 49.6072879 17.6638614 50.6931169 18.2036735 52.007806 17.9230222 52.7785578 16.9868793L52.5062378 16.6851193C52.0765499 17.1898823 51.4468834 17.4804976 50.7839979 17.4799993 49.6438698 17.4133069 48.7534471 16.4692764 48.7534471 15.3271994 48.7534471 14.1851223 49.6438698 13.2410918 50.7839979 13.1743995 51.4457327 13.1747607 52.0724191 13.4718965 52.4915178 13.9839994L52.7638378 13.6969594C52.2856149 13.0893321 51.557216 12.7319022 50.7839979 12.7254395L50.7839979 12.7254395zM59.1228775 12.7916795L58.6444776 12.7916795 58.6444776 15.1247994C58.6444776 16.5967993 57.8422376 17.4505593 56.6278377 17.4505593 55.5532777 17.4505593 54.8467177 16.8175993 54.8467177 15.4854394L54.8467177 12.7916795 54.3830377 12.7916795 54.3830377 15.5148794C54.3830377 17.0383993 55.2441577 17.8995193 56.5910377 17.8995193 57.4859703 17.9119565 58.2998831 17.3829132 58.6518376 16.5599993L58.6518376 17.2959993C58.6518376 18.6207992 58.0041576 19.3567992 56.7014376 19.3715192 56.0256474 19.378135 55.3681565 19.1520413 54.8393577 18.7311992L54.5596777 19.0182392C55.1436092 19.5288359 55.8964268 19.804257 56.6719977 19.7910392 58.2543976 19.7910392 59.1007975 18.7900792 59.1007975 17.2371193L59.1228775 12.7916795zM66.2399973 19.0844792L66.2399973 17.4211193 65.5923173 17.4211193 63.4431974 12.7916795 63.2003174 12.7916795 61.0879975 17.4211193 60.4476775 17.4211193 60.4476775 19.0844792 60.9039975 19.0844792 60.9039975 17.8700793 65.7983973 17.8700793 65.7983973 19.0844792 66.2399973 19.0844792zM63.2959974 13.5571194L65.0771173 17.4211193 61.5369574 17.4211193 63.2959974 13.5571194zM72.127997 17.8700793L72.127997 12.7916795 71.759997 12.7916795 71.759997 14.1459194C71.3624838 13.2836583 70.5014667 12.7297373 69.5519971 12.7254395 68.1688011 12.7990335 67.0849859 13.9420469 67.0849859 15.3271994 67.0849859 16.7123518 68.1688011 17.8553652 69.5519971 17.9289593 70.4976546 17.9188611 71.354746 17.3703226 71.759997 16.5158393L71.759997 17.8700793 72.127997 17.8700793zM69.5593571 17.4799993C68.4152482 17.4131882 67.5216612 16.4658974 67.5216612 15.3198394 67.5216612 14.1737814 68.4152482 13.2264905 69.5593571 13.1596795 70.703466 13.2264905 71.597053 14.1737814 71.597053 15.3198394 71.597053 16.4658974 70.703466 17.4131882 69.5593571 17.4799993zM76.7427168 12.7254395C75.7948529 12.7351273 74.9364695 13.2873539 74.5347169 14.1459194L74.5347169 12.7916795 74.1814369 12.7916795 74.1814369 19.7247992 74.6377569 19.7247992 74.6377569 16.5599993C75.0323851 17.3940497 75.8715416 17.9267565 76.7942368 17.9289593 78.1774328 17.8553652 79.261248 16.7123518 79.261248 15.3271994 79.261248 13.9420469 78.1774328 12.7990335 76.7942368 12.7254395L76.7427168 12.7254395zM76.7427168 13.1743995C77.6162463 13.1684367 78.4070836 13.6900487 78.7455087 14.4953796 79.0839337 15.3007104 78.9030856 16.2306549 78.2875115 16.8504597 77.6719375 17.4702644 76.7432536 17.6574777 75.9356236 17.3245765 75.1279937 16.9916753 74.6009773 16.2044292 74.6009569 15.3308794 74.5889182 14.7579022 74.8102133 14.2046267 75.2140686 13.7979958 75.6179238 13.3913649 76.1696707 13.1662855 76.7427168 13.1743995L76.7427168 13.1743995zM83.2783965 12.7254218C82.0667026 12.7210082 81.0118909 13.5524943 80.733252 14.7317237 80.454613 15.9109531 81.0257045 17.1266222 82.1112329 17.6649993 83.1967613 18.2033764 84.5101588 17.9223358 85.2803165 16.9868793L84.9859165 16.6851193C84.5639655 17.1917241 83.9376996 17.4832617 83.2783965 17.4799993 82.1382684 17.4133069 81.2478458 16.4692764 81.2478458 15.3271994 81.2478458 14.1851223 82.1382684 13.2410918 83.2783965 13.1743995 83.9246235 13.1877931 84.5325303 13.4836769 84.9417565 13.9839994L85.2361565 13.6969594C84.7458918 13.0960441 84.0097564 12.7496274 83.2342365 12.7548795L83.2783965 12.7254218zM88.7468763 13.2332795L90.7414362 13.2332795 90.7414362 12.7916795 86.3254364 12.7916795 86.3254364 13.2479995 88.3126363 13.2479995 88.3126363 17.8847993 88.7763163 17.8847993 88.7763163 13.2479995 88.7468763 13.2332795zM92.1103962 12.7916795L92.1103962 17.8700793 94.7894361 17.8700793C96.055356 17.8700793 96.577916 17.3401593 96.577916 16.4495993 96.6120683 15.8398185 96.17993 15.3028232 95.576956 15.2057594 96.0513562 15.0348245 96.3527644 14.5676417 96.312956 14.0649594 96.312956 13.3731194 95.871356 12.7916795 94.7452761 12.7916795L92.1103962 12.7916795zM92.5887962 13.2038395L94.7967961 13.2038395C95.643196 13.2038395 95.922876 13.6159994 95.922876 14.1091194 95.922876 14.6022394 95.643196 15.0364794 94.7967961 15.0364794L92.5887962 15.0364794 92.5887962 13.2038395zM92.5887962 17.4505593L92.5887962 15.4044794 94.7967961 15.4044794C95.768316 15.4044794 96.106876 15.8166393 96.106876 16.4348793 96.106876 17.0531193 95.768316 17.4505593 94.7967961 17.4505593L92.5887962 17.4505593zM100.544956 12.7254395C99.8390891 12.6901882 99.1506168 12.9515774 98.6460033 13.4464063 98.1413897 13.9412351 97.8665713 14.6244578 97.8879959 15.3308794 97.8632501 16.0441725 98.142478 16.7344376 98.6561968 17.2299095 99.1699156 17.7253815 99.8698235 17.9794741 100.581756 17.9289593 101.359989 17.9296748 102.112454 17.6501132 102.701436 17.1414393L102.443836 16.8691193C101.916026 17.2926024 101.258439 17.5213281 100.581756 17.5167993 99.9999232 17.56336 99.4259032 17.3592089 99.0041331 16.9557154 98.5823629 16.5522219 98.3529994 15.9878028 98.3737559 15.4044794L102.878076 15.4044794C102.951418 15.0220756 102.915711 14.6267526 102.775036 14.2636794 102.418782 13.3114587 101.494865 12.6925528 100.478716 12.7254395L100.544956 12.7254395zM100.544956 13.1449595C101.372793 13.1133744 102.128294 13.614079 102.421756 14.3887994 102.503594 14.6048181 102.541139 14.8350929 102.532156 15.0659194L98.4399959 15.0659194C98.5071132 13.9619118 99.4394286 13.1110925 100.544956 13.1449595L100.544956 13.1449595zM109.104635 17.8700793L109.104635 12.7916795 108.640955 12.7916795 108.640955 15.0953594 105.027196 15.0953594 105.027196 12.7916795 104.578236 12.7916795 104.578236 17.8700793 105.027196 17.8700793 105.027196 15.5295994 108.611515 15.5295994 108.611515 17.8700793 109.104635 17.8700793zM115.537275 17.8700793L115.537275 12.7916795 115.088315 12.7916795 115.088315 15.0953594 111.503995 15.0953594 111.503995 12.7916795 111.055035 12.7916795 111.055035 17.8700793 111.503995 17.8700793 111.503995 15.5295994 115.088315 15.5295994 115.088315 17.8700793 115.537275 17.8700793zM117.951355 14.5286394L117.951355 12.7916795 117.487675 12.7916795 117.487675 17.8700793 119.967995 17.8700793C121.439995 17.8700793 121.940475 17.0383993 121.940475 16.1919993 121.940475 15.3455994 121.439995 14.5286394 119.967995 14.5286394L117.951355 14.5286394zM123.103355 17.8700793L123.103355 12.7916795 122.639675 12.7916795 122.639675 17.8700793 123.103355 17.8700793zM117.951355 17.4358393L117.951355 14.9555194 119.967995 14.9555194C121.079355 14.9555194 121.439995 15.5295994 121.439995 16.1919993 121.439995 16.8543993 121.086715 17.4358393 119.967995 17.4358393L117.951355 17.4358393zM127.276475 12.1292795C127.621637 12.155536 127.962613 12.040129 128.220876 11.8096363 128.479139 11.5791437 128.632425 11.2534347 128.645435 10.9075195L128.292155 10.9075195C128.275528 11.1612423 128.156256 11.3972425 127.961836 11.5611104 127.767417 11.7249784 127.514629 11.802571 127.261755 11.7759995 127.009314 11.800462 126.757673 11.7221057 126.563745 11.5586525 126.369817 11.3951992 126.249987 11.1604577 126.231355 10.9075195L125.855995 10.9075195C125.874867 11.2539926 126.031955 11.5784095 126.292058 11.8080748 126.552161 12.0377402 126.893531 12.1534513 127.239675 12.1292795L127.276475 12.1292795zM129.521275 17.8700793L129.521275 12.7916795 129.263675 12.7916795 125.495355 17.0383993 125.495355 12.7916795 125.046395 12.7916795 125.046395 17.8700793 125.289275 17.8700793 129.050235 13.6159994 129.050235 17.8700793 129.521275 17.8700793zM41.5987183 22.0799991L41.1203183 22.0799991 41.1203183 24.420479C41.1203183 25.8924789 40.3180783 26.7315189 39.1036784 26.7315189 38.0217584 26.7315189 37.3151985 26.1132789 37.3151985 24.773759L37.3151985 22.0799991 36.8588785 22.0799991 36.8588785 24.788479C36.8588785 26.3119989 37.7199984 27.1731189 39.0668784 27.1731189 39.9618111 27.1855561 40.7757239 26.6565128 41.1276783 25.8335989L41.1276783 26.5695989C41.1276783 27.8796788 40.4799983 28.6156788 39.1699184 28.6303988 38.4889145 28.6324644 37.8282558 28.3983727 37.3004785 27.9679988L37.0281585 28.2623988C37.6213379 28.7729164 38.3799784 29.0502126 39.1625584 29.0425588 40.7670383 29.0425588 41.5913583 28.0268788 41.5913583 26.4739189L41.5913583 22.0799991 41.5987183 22.0799991zM47.979838 27.1436789L47.979838 22.0799991 47.538238 22.0799991 47.538238 24.376319 43.9465582 24.376319 43.9465582 22.0799991 43.4902382 22.0799991 43.4902382 27.1436789 43.9465582 27.1436789 43.9465582 24.773759 47.538238 24.773759 47.538238 27.1142389 47.979838 27.1436789zM54.4124777 27.1436789L54.4124777 22.0799991 54.1695978 22.0799991 50.3939179 26.3119989 50.3939179 22.0799991 49.9375979 22.0799991 49.9375979 27.1436789 50.1951979 27.1436789 53.9561578 22.8969591 53.9561578 27.1436789 54.4124777 27.1436789zM56.3702377 22.0799991L56.3702377 27.1436789 59.0492776 27.1436789C60.3078375 27.1436789 60.8303975 26.6211189 60.8303975 25.7305589 60.8684681 25.118042 60.435372 24.5766719 59.8294375 24.479359 60.3010387 24.3091571 60.6018078 23.8459726 60.5654375 23.345919 60.5654375 22.6540791 60.1311975 22.0799991 58.9903976 22.0799991L56.3702377 22.0799991zM56.8486376 22.4847991L59.0124776 22.4847991C59.8735975 22.4847991 60.1385575 22.8969591 60.1385575 23.390079 60.1385575 23.883199 59.8735975 24.287999 59.0124776 24.287999L56.8486376 24.287999 56.8486376 22.4847991zM56.8486376 26.7315189L56.8486376 24.655999 59.0566376 24.655999C60.0060775 24.655999 60.3446375 25.068159 60.3446375 25.6863989 60.3446375 26.3046389 60.0060775 26.7020789 59.0419176 26.7020789L56.8486376 26.7315189zM64.8047973 22.0063991C64.1121417 21.9921525 63.4437413 22.2615457 62.9545516 22.7521252 62.4653619 23.2427046 62.1978659 23.9118665 62.2140774 24.604479 62.1869733 25.3184559 62.4654623 26.0101408 62.9797345 26.5061466 63.4940068 27.0021523 64.1953068 27.2554552 64.9078373 27.2025589 65.6808291 27.211813 66.4329136 26.9515761 67.0348772 26.4665589L66.7699172 26.1721589C66.243914 26.5988963 65.5851237 26.8280407 64.9078373 26.8198389 64.3267392 26.8686367 63.7525609 26.6662605 63.3304854 26.2638819 62.90841 25.8615034 62.6788452 25.2976444 62.6998374 24.714879L67.2115172 24.714879C67.2769257 24.3248089 67.2414545 23.9244906 67.1084772 23.551999 66.742192 22.6044444 65.8203797 21.9889212 64.8047973 22.0137591L64.8047973 22.0063991zM64.8047973 22.4332791C65.6338731 22.4050978 66.3887355 22.9083393 66.6815972 23.684479 66.7588876 23.90153 66.7938651 24.1313822 66.7846372 24.361599L62.7219174 24.361599C62.7736401 23.2521901 63.7096824 22.3916881 64.8195173 22.4332791L64.8047973 22.4332791zM71.863037 22.0063991C70.9168549 22.0147362 70.0589087 22.5638218 69.6550371 23.419519L69.6550371 22.0799991 69.3017571 22.0799991 69.3017571 29.0057588 69.7654371 29.0057588 69.7654371 25.8041589C70.1473759 26.6459179 70.9902511 27.1828179 71.914557 27.1731189 73.3494369 27.1731189 74.5126369 26.0099189 74.5126369 24.575039 74.5126369 23.1401591 73.3494369 21.9769591 71.914557 21.9769591L71.863037 22.0063991zM71.863037 22.4479991C72.7365665 22.4420363 73.5274038 22.9636483 73.8658289 23.7689792 74.2042539 24.5743101 74.0234058 25.5042545 73.4078317 26.1240593 72.7922577 26.7438641 71.8635738 26.9310774 71.0559438 26.5981761 70.2483139 26.2652749 69.7212975 25.4780288 69.7212771 24.604479 69.7153646 24.0333068 69.9386385 23.4835969 70.3411542 23.0783147 70.74367 22.6730325 71.2918377 22.4459988 71.863037 22.4479991L71.863037 22.4479991zM78.4060767 22.0063991C76.9711968 22.0063991 75.8079969 23.1695991 75.8079969 24.604479 75.8079969 26.0393589 76.9711968 27.2025589 78.4060767 27.2025589 79.1724155 27.2019223 79.8984462 26.8591494 80.3859167 26.2678389L80.1135967 25.9587189C79.6930684 26.4680716 79.0665933 26.7624069 78.4060767 26.7609589 77.2150858 26.7609589 76.2495968 25.7954699 76.2495968 24.604479 76.2495968 23.413488 77.2150858 22.4479991 78.4060767 22.4479991 79.064171 22.4429171 79.6902297 22.7316597 80.1135967 23.235519L80.3859167 22.941119C79.8984462 22.3498085 79.1724155 22.0070357 78.4060767 22.0063991L78.4060767 22.0063991zM86.4652764 27.1583989L86.4652764 22.0799991 86.2223964 22.0799991 82.4319966 26.2825589 82.4319966 22.0799991 81.9683166 22.0799991 81.9683166 27.1436789 82.2259166 27.1436789 85.9868764 22.8969591 85.9868764 27.1436789 86.4652764 27.1583989zM90.2998363 22.5289591L92.3017562 22.5289591 92.3017562 22.0799991 87.8342364 22.0799991 87.8342364 22.5142391 89.7919963 22.5142391 89.7919963 27.1436789 90.2556763 27.1436789 90.2998363 22.5289591zM95.944956 22.0211191C95.2529424 22.0067936 94.5852352 22.2764079 94.0971952 22.7672287 93.6091552 23.2580496 93.343339 23.9272779 93.3615961 24.619199 93.334492 25.3331759 93.612981 26.0248608 94.1272532 26.5208666 94.6415255 27.0168723 95.3428255 27.2701752 96.055356 27.2172789 96.8281487 27.225307 97.5798311 26.9652093 98.1823959 26.4812789L97.9174359 26.1868789C97.389626 26.610362 96.7320397 26.8390877 96.055356 26.8345589 95.474258 26.8833567 94.9000796 26.6809805 94.4780041 26.2786019 94.0559287 25.8762234 93.8263639 25.3123644 93.8473561 24.729599L98.3516759 24.729599C98.4242243 24.3471561 98.3885375 23.9520528 98.2486359 23.588799 97.8923823 22.6365783 96.9684654 22.0176724 95.952316 22.0505591L95.944956 22.0211191zM95.944956 22.4479991C96.7753389 22.4151964 97.5326573 22.9200753 97.8217559 23.699199 97.9047942 23.9148943 97.9423796 24.1454179 97.9321559 24.376319L93.8547161 24.376319C93.8757607 23.8432749 94.1079157 23.3404793 94.5000094 22.9787591 94.892103 22.6170389 95.4119468 22.4260891 95.944956 22.4479991L95.944956 22.4479991zM101.700476 22.5289591L103.702396 22.5289591 103.702396 22.0799991 99.2422359 22.0799991 99.2422359 22.5142391 101.244156 22.5142391 101.244156 27.1436789 101.700476 27.1436789 101.700476 22.5289591zM12.0335995 37.9481584L12.0335995 31.5449587 11.0399995 31.5449587 11.0399995 34.2534386 8.09599966 34.2534386 8.09599966 31.5449587 7.10975971 31.5449587 7.10975971 37.9481584 8.09599966 37.9481584 8.09599966 35.1955185 11.0399995 35.1955185 11.0399995 37.9481584 12.0335995 37.9481584zM14.9775994 36.5203185L17.4726393 36.5203185 18.0540793 37.9481584 19.1359992 37.9481584 16.5158393 31.5449587 15.9343993 31.5449587 13.2479995 37.9481584 14.3446394 37.9481584 14.9775994 36.5203185zM16.1919993 33.3481586L17.0972793 35.5561585 15.3087994 35.5561585 16.1919993 33.3481586zM22.7423991 31.4860787C20.9958655 31.5689422 19.6224149 33.0091004 19.6224149 34.7575986 19.6224149 36.5060967 20.9958655 37.9462549 22.7423991 38.0291184 23.6614546 38.0191657 24.5364046 37.6335495 25.163839 36.9619185L24.516159 36.3657585C24.0467823 36.8379187 23.4081681 37.1029038 22.7423991 37.1017585 21.4538526 37.1017584 20.4092793 36.0571851 20.4092793 34.7686386 20.4092793 33.4800921 21.4538526 32.4355187 22.7423991 32.4355187 23.4086582 32.4318901 24.0481942 32.6972578 24.516159 33.1715186L25.163839 32.5679986C24.535647 31.8983667 23.6605387 31.5153406 22.7423991 31.5081587L22.7423991 31.4860787zM28.9174388 32.4870387L30.7942387 32.4870387 30.7942387 31.5449587 26.0691189 31.5449587 26.0691189 32.4870387 27.9679988 32.4870387 27.9679988 37.9481584 28.9542388 37.9481584 28.9542388 32.4870387 28.9174388 32.4870387zM34.9011186 31.4860787C33.5750872 31.4860921 32.3799098 32.285671 31.8738457 33.5113374 31.3677816 34.7370039 31.6507023 36.1468732 32.5904575 37.0824047 33.5302127 38.0179363 34.9413421 38.2945034 36.1647165 37.7829235 37.388091 37.2713435 38.1822781 36.0725765 38.1763517 34.7465586 38.178302 33.8786633 37.8334003 33.0459579 37.2183235 32.4336454 36.6032466 31.821333 35.768996 31.4801857 34.9011186 31.4860787zM34.9011186 32.4207987C35.8515712 32.3908044 36.7251229 32.9406417 37.1091317 33.8105827 37.4931405 34.6805236 37.3107567 35.6964714 36.6481335 36.37852 35.9855103 37.0605687 34.9752548 37.2722235 34.0945843 36.9135044 33.2139138 36.5547854 32.639072 35.697481 32.6415986 34.7465586 32.623689 34.1359038 32.8538147 33.5440205 33.2795136 33.1058418 33.7052124 32.6676632 34.2902012 32.4205361 34.9011186 32.4207987L34.9011186 32.4207987zM44.1599982 37.9481584L44.1599982 31.5449587 42.0550383 31.5449587C40.3327983 31.5449587 39.2876784 32.5164787 39.2876784 33.9148786 39.2622313 34.8470528 39.8659257 35.6801511 40.7596783 35.9462385 40.3278971 36.2128694 39.9767974 36.5919554 39.7439984 37.0428785L39.1551984 37.9481584 40.2665583 37.9481584 40.7302383 37.2121585C41.2527983 36.4099185 41.4662383 36.2700785 42.1286383 36.2553585L43.1443182 36.2553585 43.1443182 37.9334384 44.1599982 37.9481584zM43.1737582 32.4870387L43.1737582 35.3279985 41.9519983 35.3279985C40.9804783 35.3279985 40.1929583 34.8937586 40.1929583 33.8559986 40.1929583 32.8182386 40.9951983 32.4870387 41.9519983 32.4870387L43.1737582 32.4870387zM54.6332777 39.1110384L54.6332777 37.0281585 53.8163178 37.0281585 53.8163178 31.5449587 52.8300778 31.5449587 52.8300778 37.0281585 50.4307179 37.0281585 50.4307179 31.5449587 49.4444779 31.5449587 49.4444779 37.0281585 47.059838 37.0281585 47.059838 31.5449587 46.0735981 31.5449587 46.0735981 37.9481584 53.6617578 37.9481584 53.6617578 39.1331184 54.6332777 39.1110384zM57.2828776 36.4982385L59.7779175 36.4982385 60.3519975 37.9481584 61.4339175 37.9481584 58.8137576 31.5449587 58.2470376 31.5449587 55.5974377 37.9481584 56.6940776 37.9481584 57.2828776 36.4982385zM58.5340776 33.3260786L59.4393575 35.5340785 57.6287976 35.5340785 58.5340776 33.3260786zM67.2409572 37.9260784L67.2409572 31.5228787 65.1433573 31.5228787C63.4284774 31.5228787 62.3686374 32.4943987 62.3686374 33.8927986 62.3503436 34.8344871 62.9706242 35.6695966 63.8774374 35.9241585 63.4501719 36.1962396 63.1003363 36.5739607 62.8617574 37.0207985L62.2803174 37.9260784 63.3843174 37.9260784 63.8627174 37.1900785C64.3852773 36.3878385 64.5987173 36.2479985 65.2611173 36.2332785L66.2399973 36.2332785 66.2399973 37.9113584 67.2409572 37.9260784zM66.2399973 32.4870387L66.2399973 35.3279985 65.0476773 35.3279985C64.0908773 35.3279985 63.2959974 34.8937586 63.2959974 33.8559986 63.2959974 32.8182386 64.0908773 32.4281587 65.0476773 32.4281587L66.2399973 32.4870387zM77.0591968 37.9481584L77.0591968 31.5449587 76.0729568 31.5449587 76.0729568 34.2534386 73.128957 34.2534386 73.128957 31.5449587 72.127997 31.5449587 72.127997 37.9481584 73.114237 37.9481584 73.114237 35.1955185 76.0582368 35.1955185 76.0582368 37.9481584 77.0591968 37.9481584zM80.0031967 36.5203185L82.4982366 36.5203185 83.0796766 37.9481584 84.1763165 37.9481584 81.5635166 31.5449587 80.9599966 31.5449587 78.3103968 37.9481584 79.4070367 37.9481584 80.0031967 36.5203185zM81.2691166 33.3481586L82.1596766 35.5561585 80.3564767 35.5561585 81.2691166 33.3481586zM86.7302364 37.9481584L90.4543962 31.5449587 89.3283163 31.5449587 87.5177564 34.6435186 85.6851164 31.5449587 84.5590365 31.5449587 86.9436764 35.6591985 85.5894365 37.9481584 86.7302364 37.9481584zM95.930236 37.9481584L97.056316 37.9481584 95.532796 35.5929585C95.1500761 34.9967985 94.9439961 34.7759986 94.6716761 34.6876786 95.0024337 34.4607906 95.2768574 34.1611904 95.473916 33.8118386L96.945916 31.5449587 95.805116 31.5449587 94.5759961 33.5027186C94.2079961 34.0399986 94.0534361 34.2387186 93.5161561 34.2387186L92.7801562 34.2387186 92.7801562 31.5449587 91.7939162 31.5449587 91.7939162 37.9481584 92.7359962 37.9481584 92.7359962 35.1807985 93.5529561 35.1807985C94.1123161 35.1807985 94.2889561 35.3647985 94.6127961 35.9167985L95.930236 37.9481584zM99.5513559 36.5203185L102.039036 36.5203185 102.613116 37.9481584 103.702396 37.9481584 101.089596 31.5449587 100.515516 31.5449587 97.8879959 37.9481584 98.9772759 37.9481584 99.5513559 36.5203185zM100.831996 33.3481586L101.737276 35.5561585 99.9267159 35.5561585 100.831996 33.3481586z"/>
    <polygon fill="#1DBFEA" points="23.302 4.953 26.982 6.168 24.774 9.215 26.79 10.687 28.962 7.743 31.052 10.635 33.083 9.163 30.912 6.109 34.467 4.953 33.731 2.583 30.132 3.739 30.132 0 27.622 0 27.622 3.739 24.082 2.583"/>
    <polygon fill="#434343" points="5.8 32.796 3.879 33.407 5.034 35.012 3.989 35.748 2.848 34.224 1.752 35.696 .736 34.967 1.877 33.392 0 32.796 .397 31.545 2.245 32.148 2.245 30.176 3.555 30.176 3.555 32.119 5.402 31.516"/>
    <polygon fill="#434343" points="20.807 27.114 20.807 1.509 14.588 1.509 14.588 15.588 3.989 1.509 .25 1.509 .25 27.114 6.462 27.114 6.462 13.035 17.068 27.114"/>
  </g>
</svg>
