<svg xmlns="http://www.w3.org/2000/svg" width="96" height="71" viewBox="0 0 96 71">
  <g fill="#1D1D1D" transform="translate(12 9)">
    <g transform="translate(22.374 8.243)">
      <path d="M20.1620002 10.27363L20.2526159 10.3653589 20.886926 10.7781387C22.0196227 11.6036982 23.242935 12.566851 24.602171 12.9337664 25.5083283 13.1630884 25.8254833 13.0254952 26.641025 12.8420376 26.5504092 12.7503087 26.3238699 12.6585799 26.0067148 12.3375289 25.7801755 12.1540712 25.598944 12.016478 25.3724047 11.8330204 24.4662474 11.0991896 23.6053979 10.5029521 22.3820856 10.27363 21.4759282 10.0901724 20.886926 10.1819012 20.1620002 10.27363zM.317155059 4.08193337L1.63108315 3.89847569 1.4498517 4.21952662C1.26862024 4.44884873.951465176 4.95335734.860849445 5.22854386L1.99354608 4.72403525 1.81231462 6.05410342 2.12946967 5.64132364C2.22008541 5.5495948 2.31070114 5.3202727 2.44662474 5.3202727L2.53724047 6.65034087C2.7637798 6.42101878 2.7637798 6.32928993 2.85439553 6.00823899 2.85439553 5.82478132 3.03562699 5.36613713 3.08093485 5.27440828L3.39808991 6.00823899 3.62462925 6.60447645C3.62462925 6.6962053 3.71524497 6.6962053 3.71524497 6.78793414 3.8058607 6.6962053 3.8058607 6.6962053 3.8058607 6.60447645 3.8058607 6.42101878 3.8058607 6.19169668 3.8058607 6.09996784 3.8058607 5.91651016 3.71524497 5.59545922 3.8058607 5.36613713 4.03240003 5.5495948 4.62140229 6.00823899 4.93855734 6.09996784L4.34955509 5.0909506 5.48225172 5.41200154 5.30102026 5.18267944C5.11978881 4.99922176 4.80263374 4.67817082 4.71201801 4.44884873L5.5275596 4.44884873C5.5275596 4.35711988 5.5275596 4.35711988 5.5275596 4.35711988 5.43694386 4.26539104 5.34632813 4.17366221 5.30102026 4.12779779 5.21040454 4.03606894 4.9838652 3.9443401 4.89324947 3.80674685 5.21040454 3.80674685 5.79940678 3.89847569 6.11656185 3.80674685 6.2977933 3.80674685 6.34310117 3.80674685 6.4337169 3.715018L6.34310117 3.62328917C6.02594612 3.43983149 5.11978881 3.43983149 4.9838652 3.21050939 5.30102026 2.88945845 5.16509667 3.02705171 5.57286746 2.79772961 5.75409892 2.70600077 6.07125398 2.56840751 6.16186971 2.38494983 6.07125398 2.38494983 5.02917307 2.61427193 4.93855734 2.61427193 4.75732588 2.61427193 4.75732588 2.52254309 4.75732588 2.52254309L5.39163599 1.19247492 5.07448094 1.28420376C4.66671015 1.46766144 4.48547868 2.01803447 4.03240003 1.88044122 4.03240003 1.55939028 4.53078655.871423977 4.34955509.642101878 4.12301577.871423977 4.12301577.963152817 3.9417843 1.28420376 3.85116857 1.46766144 3.71524497 1.88044122 3.44339778 1.88044122L3.21685845.963152817C3.12624273.779695137 3.03562699.229322099 2.80908766.229322099L2.71847193 1.69698353C2.62785619 1.78871238 2.62785619 1.69698353 2.62785619 1.69698353 2.40131687 1.69698353 1.63108315.871423977 1.58577529.779695137 1.81231462 1.19247492 1.90293035 1.37593259 2.17477755 1.78871238 2.26539328 1.97217005 2.35600901 1.97217005 2.35600901 2.10976332L1.54046742 2.10976332C1.35923597 2.10976332.90615731 1.92630563.815541579 1.92630563 1.04208091 2.10976332 1.85762249 2.56840751 1.85762249 2.84359403L.135923597 2.93532287.770233714 3.25637381C.951465176 3.34810264 1.35923597 3.43983149 1.40454383 3.48569591 1.22331237 3.57742475.589002251 3.89847569.40777079 3.99020452.317155059 4.08193337.317155059 4.03606894.317155059 4.08193337zM2.94501126 2.29322099C3.66993711 2.10976332 4.25893936 2.70600077 4.30424722 3.30223823 4.48547868 4.03606894 3.98709216 4.6323064 3.39808991 4.76989967 2.67316407 4.95335734 2.08416181 4.44884873 2.03885394 3.76088243 1.94823822 3.02705171 2.35600901 2.47667867 2.94501126 2.29322099z" transform="translate(5.437)"/>
      <path d="M7.47579781,11.7412915 L7.47579781,10.3194945 L1.3139281,10.3194945 C3.48870564,8.48491767 5.89002251,6.60447645 6.88679555,3.80674685 C6.97741129,3.48569591 7.02271916,3.11878055 7.02271916,2.7518652 C7.02271916,1.88044122 6.7055641,1.23833934 6.07125398,0.779695137 C5.43694386,0.321050939 4.53078655,0.0458644198 3.48870564,0.0458644198 C3.03562699,0.0458644198 2.53724047,0.0917288396 2.12946967,0.27518652 C1.72169889,0.412779779 1.35923597,0.642101878 1.04208091,0.871423977 C0.724925848,1.1466105 0.49838652,1.42179701 0.362462925,1.65111911 C0.226539328,1.92630563 0.090615731,2.24735657 0.090615731,2.52254309 C0.090615731,2.84359403 0.135923597,3.11878055 0.317155059,3.25637381 C0.453078655,3.39396706 0.679617982,3.53156033 0.951465176,3.53156033 C1.26862024,3.53156033 1.54046742,3.43983149 1.67639102,3.30223823 C1.81231462,3.16464497 1.94823822,2.98118729 1.94823822,2.7518652 C1.94823822,2.52254309 1.90293035,2.29322099 1.85762249,2.06389889 C1.81231462,1.8345768 1.76700676,1.65111911 1.72169889,1.42179701 C1.85762249,1.1466105 2.08416181,1.00901724 2.40131687,0.825559558 C2.71847193,0.687966297 3.03562699,0.596237457 3.39808991,0.596237457 C3.98709216,0.596237457 4.39486295,0.733830718 4.75732588,1.05488166 C5.11978881,1.37593259 5.30102026,1.8345768 5.30102026,2.56840751 C5.30102026,3.02705171 5.2557124,3.34810264 5.21040454,3.62328917 C4.93855734,6.4668832 1.3139281,9.08115513 0.0453078655,10.5488166 L0.0453078655,11.6495626 L7.52110568,11.6495626 L7.52110568,11.7412915 L7.47579781,11.7412915 Z" transform="translate(0 31.188)"/>
      <path d="M15.4499822,4.67817082 C15.4499822,3.39396706 15.2234428,2.43081426 14.8156721,1.69698353 C14.4079012,1.00901724 13.8642069,0.642101878 13.1845888,0.642101878 C12.5502787,0.642101878 12.0065844,0.917288396 11.6441214,1.51352586 C11.2816585,2.06389889 11.0551192,2.84359403 11.0551192,3.80674685 C11.0551192,4.67817082 11.2816585,5.41200154 11.6441214,5.96237457 C12.0518923,6.51274762 12.5955867,6.74206972 13.2298968,6.74206972 C13.6376675,6.74206972 14.0001304,6.6962053 14.4079012,6.51274762 C14.7703641,6.37515436 15.0875193,6.09996784 15.3593664,5.7789169 C15.3593664,5.7789169 15.3593664,5.73305248 15.3593664,5.68718805 C15.3593664,5.64132364 15.3593664,5.5495948 15.3593664,5.41200154 C15.3593664,5.36613713 15.3593664,5.27440828 15.3593664,5.13681502 C15.4499822,4.90749292 15.4499822,4.81576408 15.4499822,4.67817082 Z M17.171681,4.81576408 C17.171681,5.7789169 17.0357575,6.65034087 16.7639102,7.47590043 C16.4467552,8.34732441 16.0389843,9.03529071 15.49529,9.67739259 C14.9515956,10.3194945 14.2719776,10.7781387 13.5470517,11.2367829 C12.7768181,11.6495626 11.9159686,11.9247492 10.9645035,12.016478 L10.8285799,11.2826473 L11.5535057,11.1909184 C12.7315102,10.8240031 13.5923597,10.27363 14.2266698,9.4939349 C14.8609799,8.76010419 15.2687507,7.79695137 15.49529,6.60447645 C15.0875193,6.97139181 14.5891327,7.24657833 14.1813619,7.47590043 C13.7735911,7.61349369 13.2298968,7.75108695 12.6862024,7.75108695 C11.780045,7.75108695 11.0551192,7.43003601 10.4208091,6.74206972 C9.78649895,6.05410342 9.46934389,5.18267944 9.46934389,4.12779779 C9.46934389,3.02705171 9.83180681,2.06389889 10.5567327,1.28420376 C11.2816585,0.550373038 12.2331237,0.0917288396 13.2752046,0.0917288396 C14.498517,0.0917288396 15.4499822,0.504508619 16.1296001,1.37593259 C16.7639102,2.10976332 17.171681,3.30223823 17.171681,4.81576408 Z M0.135923597,9.58566375 C0.135923597,9.90671469 0.226539328,10.1819012 0.40777079,10.5029521 C0.543694386,10.7781387 0.770233714,11.0533252 1.08738877,11.2367829 C1.40454383,11.4202405 1.76700676,11.6036982 2.12946967,11.7871559 C2.53724047,11.8788847 3.03562699,12.016478 3.48870564,12.016478 C4.71201801,12.016478 5.75409892,11.6954271 6.61494837,11.0533252 C7.47579781,10.4112233 7.83826073,9.53979932 7.83826073,8.53078209 C7.83826073,7.98040906 7.747645,7.56762927 7.56641354,7.20071391 C7.43048994,6.83379855 7.15864275,6.55861203 6.88679555,6.32928993 C6.61494837,6.09996784 6.2977933,5.96237457 5.98063824,5.87064574 C5.66348319,5.7789169 5.30102026,5.73305248 5.02917307,5.64132364 L5.02917307,5.5495948 C5.48225172,5.45786596 5.89002251,5.22854386 6.20717758,4.99922176 C6.52433264,4.76989967 6.79617982,4.58644198 6.93210342,4.31125546 C7.06802702,4.08193337 7.24925848,3.85261127 7.29456634,3.57742475 C7.33987421,3.30223823 7.38518207,3.02705171 7.38518207,2.79772961 C7.38518207,2.56840751 7.33987421,2.33908541 7.24925848,2.01803447 C7.15864275,1.69698353 6.97741129,1.42179701 6.79617982,1.1466105 C6.52433264,0.871423977 6.20717758,0.596237457 5.79940678,0.458644198 C5.39163599,0.229322099 4.84794161,0.137593259 4.16832363,0.137593259 C3.57932137,0.137593259 3.12624273,0.18345768 2.62785619,0.366915358 C2.22008541,0.504508619 1.85762249,0.733830718 1.54046742,1.00901724 C1.22331237,1.28420376 0.996773041,1.55939028 0.860849445,1.78871238 C0.724925848,2.06389889 0.634310117,2.38494983 0.634310117,2.66013635 C0.634310117,2.93532287 0.679617982,3.11878055 0.860849445,3.34810264 C0.951465176,3.57742475 1.1780045,3.66915358 1.49515956,3.66915358 C1.81231462,3.66915358 2.08416181,3.62328917 2.22008541,3.39396706 C2.35600901,3.25637381 2.4919326,3.07291612 2.4919326,2.84359403 C2.4919326,2.61427193 2.44662474,2.38494983 2.40131687,2.15562774 C2.35600901,1.88044122 2.31070114,1.69698353 2.26539328,1.51352586 C2.31070114,1.46766144 2.35600901,1.42179701 2.4919326,1.28420376 C2.58254833,1.19247492 2.71847193,1.1466105 2.80908766,1.00901724 C2.89970339,0.963152817 3.08093485,0.917288396 3.21685845,0.779695137 C3.35278205,0.733830718 3.62462925,0.687966297 3.89647643,0.687966297 C4.48547868,0.687966297 4.89324947,0.825559558 5.21040454,1.23833934 C5.5275596,1.55939028 5.66348319,2.10976332 5.66348319,2.79772961 C5.66348319,3.66915358 5.5275596,4.21952662 5.21040454,4.67817082 C4.89324947,5.0909506 4.34955509,5.3202727 3.62462925,5.3202727 L2.94501126,5.3202727 L2.94501126,6.2375611 L3.98709216,6.2375611 C4.39486295,6.2375611 4.75732588,6.28342551 5.07448094,6.37515436 C5.34632813,6.4668832 5.61817533,6.65034087 5.75409892,6.83379855 C5.89002251,7.06312066 6.02594612,7.29244275 6.07125398,7.56762927 C6.11656185,7.84281579 6.16186971,8.16386673 6.16186971,8.43905325 C6.16186971,8.98942629 6.11656185,9.40220607 5.93533038,9.76912142 C5.84471465,10.0901724 5.61817533,10.4112233 5.39163599,10.6405454 C5.16509667,10.8698675 4.93855734,11.0533252 4.62140229,11.1909184 C4.30424722,11.3285117 4.03240003,11.3285117 3.66993711,11.3285117 C3.35278205,11.3285117 3.03562699,11.3285117 2.89970339,11.2826473 C2.67316407,11.2367829 2.53724047,11.1909184 2.35600901,11.0533252 C2.22008541,11.0074608 2.08416181,10.9157319 1.99354608,10.8240031 C1.90293035,10.7322742 1.85762249,10.6864098 1.76700676,10.594681 C1.81231462,10.5029521 1.81231462,10.27363 1.85762249,9.99844353 C1.90293035,9.72325701 1.94823822,9.53979932 1.94823822,9.35634165 C1.94823822,9.12701955 1.85762249,8.98942629 1.67639102,8.80596861 C1.54046742,8.66837535 1.26862024,8.53078209 0.951465176,8.53078209 C0.679617982,8.53078209 0.49838652,8.62251093 0.317155059,8.85183303 C0.226539328,9.12701955 0.135923597,9.31047723 0.135923597,9.58566375 Z" transform="translate(8.608 31.188)"/>
    </g>
    <path d="M48.9481504 19.9411835C48.8560561 19.7586555 48.2113956 19.0285435 48.1193013 18.8916475 47.0602162 17.8421115 45.4946121 17.2488955 43.9290081 17.7508475 43.9290081 18.2527995 44.4355271 18.6634875 44.6657629 18.8003835 44.9880931 19.0285435 45.4025178 19.3023355 45.8169424 19.5304955 46.8299803 19.8499195 47.796971 20.0324475 48.9481504 19.9411835zM48.3034899 16.7469436C49.6388582 17.0663675 51.4346981 17.1576315 52.8621607 16.9751035 54.2896232 16.7925756 55.7631328 16.6556796 57.0064067 16.0624636 56.5919821 15.8799356 55.532897 15.2410876 54.9342837 15.0585596 53.2765853 14.7391356 51.158415 15.8799356 49.4086223 16.3818876L48.3034899 16.7469436zM39.8768564 11.9099517L39.3703374 12.3206397C39.1861488 12.4119037 38.8638185 12.5487997 38.7717241 12.7313277L40.4294225 12.5031677 40.3373282 12.6856957C40.2452338 12.8682237 39.6926677 13.5983356 39.7387148 13.8264956L40.3373282 13.3245436C40.4294225 13.2332796 40.7517527 12.9138557 40.9819887 12.9138557L41.074083 14.2828156C41.3043189 13.8721276 41.2582717 13.9633916 41.3964132 13.5527036 41.4885077 13.3701756 41.580602 12.9138557 41.6266491 12.7313277L41.9489794 12.9594877C42.1331682 13.1420157 42.363404 13.8721276 42.5936399 13.8721276L42.5015456 12.5487997C42.8238758 12.5487997 43.1462061 13.4614396 43.5145835 13.2789116 43.6066778 13.1876476 43.5145835 13.0963837 43.5145835 13.0507517 43.3303947 12.6400637 42.9159701 12.0468477 42.9159701 11.8186877L44.2513383 12.1381117C44.0211024 11.9555837 43.1001589 11.4992637 43.1001589 11.4079997L44.6657629 10.8147837 43.1922532 10.7235197C43.5145835 10.5409917 43.8369137 10.4040957 44.2052911 10.1303037L43.0541116 10.0390397 43.4685363 9.53708775C43.652725 9.35455975 43.7908666 9.21766376 43.7908666 9.03513576L42.7317814 9.26329575C42.9159701 9.08076776 43.3303947 8.62444777 43.3303947 8.44191978 43.0080645 8.62444777 42.7317814 8.67007977 42.4094511 8.94387176 42.0871209 9.17203176 41.9950266 9.26329575 41.9029322 9.26329575 41.8108379 8.94387176 42.0871209 8.25939178 41.9029322 7.93996779L41.3043189 9.30892775C41.1201301 8.89823976 41.074083 8.67007977 40.8898943 8.25939178 40.7977999 8.07686379 40.7977999 8.03123179 40.6596584 8.03123179L40.5675641 9.40019175 40.1531394 8.98950376C40.0610451 8.80697577 39.9689507 8.57881577 39.8308091 8.57881577L40.0610451 9.81087974 38.9098657 9.21766376 39.2321959 9.94777574C39.4163846 10.1759357 39.6466205 10.4497277 39.5545262 10.5866237L38.219158 10.4040957 39.2782431 10.9973117 38.0349692 11.5905277 39.8768564 11.9099517zM41.2582717 10.2215677C41.9950266 10.0390397 42.5015456 10.7235197 42.5936399 11.2711037 42.6857342 12.0012157 42.1792153 12.5944317 41.580602 12.6400637 40.8438472 12.7313277 40.3373282 12.1381117 40.2452338 11.5905277 40.1991867 10.8604157 40.7057056 10.2671997 41.2582717 10.2215677zM46.8299803 16.3362556C48.579773 15.7430396 50.0532828 14.6935036 51.3886509 13.5527036 51.2965566 13.4614396 50.9742264 13.4614396 50.7900376 13.4614396 48.7179146 13.4614396 46.3234613 14.8303996 44.9880931 16.2449916 44.9880931 16.4275196 44.8039045 16.4731516 44.7578573 16.6556796 45.218329 16.8382076 46.4155557 16.5187836 46.8299803 16.3362556z"/>
    <path d="M71.0047488,8.07686379 L69.2089089,7.89433579 C69.3010033,7.80307179 69.3930976,7.7118078 69.4391449,7.6661758 C69.9456638,7.16422381 70.5903243,6.34284783 71.0047488,5.79526385 C71.2349848,5.47583985 71.6494093,4.79135987 71.5112679,4.33503988 C71.4191735,4.10687989 71.2810319,3.9243519 71.0047488,3.8330879 L70.0838054,3.8330879 C70.1758997,3.6049279 70.4061356,3.23987191 70.5903243,3.01171192 C70.9126545,2.41849594 71.4191735,1.77964795 71.4191735,1.14079997 C71.4191735,0.730111981 71.1889376,0.410687989 70.8205602,0.319423992 C70.1758997,0.136895996 69.0707675,0.501951987 68.6102956,0.730111981 L67.4591161,1.23206397 C64.1437193,2.78355193 60.9204168,4.83699187 57.7892087,6.79916782 C57.2826897,7.11859181 56.8682652,7.20985581 56.4077933,7.4380158 C54.6119534,8.25939178 52.6319248,9.08076776 50.9742264,10.1303037 C49.5007166,11.0885757 48.4416315,11.8186877 47.6127823,13.4158076 C47.520688,13.4614396 47.4746408,13.4614396 47.3825465,13.5070716 C47.2444049,13.5983356 47.1062634,13.6439676 47.014169,13.6895996 C47.014169,13.6895996 46.9681218,13.6895996 46.9681218,13.7352316 C46.9681218,13.6895996 46.9681218,13.6439676 46.9681218,13.5983356 C47.1523105,12.1381117 47.0602162,10.4040957 46.231367,9.17203176 C46.001131,8.76134377 45.7248481,8.57881577 45.4946121,8.35065578 C45.3104234,8.16812778 45.1722819,8.03123179 44.8959988,7.93996779 C44.8039045,7.93996779 44.8039045,7.93996779 44.8039045,7.93996779 C44.71181,7.84870379 44.6197157,7.84870379 44.5736686,7.75743979 L41.9950266,7.25548781 C42.3173568,6.61663982 45.5406593,5.20204786 45.8629895,4.88262387 L46.2774141,4.47193588 C46.0932255,4.24377589 45.218329,4.24377589 44.8959988,4.24377589 C42.7317814,4.24377589 40.291281,5.15641586 38.6335826,6.29721583 C37.712639,6.93606382 37.6205447,7.11859181 36.9758842,7.93996779 C36.8837897,7.84870379 36.3312237,7.30111981 36.1470349,7.11859181 C35.8247047,6.79916782 35.5484216,6.52537583 35.2260913,6.29721583 C33.8907232,5.24767986 32.3251191,4.42630388 30.6213735,4.10687989 C30.1148546,4.01561589 29.6083356,3.9243519 29.1478639,3.8787199 L27.628307,3.8787199 C27.628307,4.19814389 28.2729675,4.60883188 28.5492505,4.79135987 C29.2860054,5.29331186 30.0227602,5.79526385 30.713468,6.25158383 C30.8055623,6.34284783 30.8976566,6.34284783 30.9437038,6.43411183 C31.0357981,6.43411183 31.1278925,6.52537583 31.1739397,6.61663982 C31.3581285,6.70790382 31.4041756,6.84479982 31.5883643,7.02732781 C31.4041756,7.02732781 31.1739397,7.11859181 30.9897509,7.11859181 C29.7464771,7.30111981 28.411109,7.84870379 27.5822598,8.67007977 C27.4901655,8.76134377 27.4901655,8.76134377 27.398071,8.85260776 C27.1678352,9.12639976 26.8915521,9.62835174 26.6613162,10.0390397 C25.4180424,12.5031677 26.4310803,16.1993596 27.4901655,18.7091195 C27.5822598,18.8916475 27.9966844,19.7586555 27.9966844,19.8499195 C27.9966844,19.9411835 27.90459,20.0324475 27.90459,20.0780795 L27.8124957,20.6712955 C27.628307,20.6712955 27.4901655,20.3518715 27.398071,20.2606075 C27.0757408,19.7586555 26.7994577,19.0285435 26.5692219,18.5265915 C26.2468916,17.7964795 25.8324671,17.1576315 25.556184,16.2449916 C25.049665,14.3740796 24.7273347,13.0507517 23.4840609,11.6817917 C23.2538251,11.3623677 22.977542,11.0885757 22.6552117,10.8604157 C22.3328815,10.6322557 22.0105512,10.4497277 21.6421738,10.2215677 C19.9844753,9.17203176 19.0635318,8.67007977 17.3597862,7.93996779 C16.2086068,7.3467518 14.9653329,6.93606382 13.8141534,6.47974383 C13.6299648,6.38847983 13.4918233,6.25158383 13.3076345,6.16031984 C11.8341248,5.15641586 10.2685207,4.28940789 8.7029167,3.37676791 C7.13731264,2.46412793 3.72982144,0.593215984 2.02607584,0.182527995 C0.874896387,-0.0456319988 0.0460471783,0.36505599 0.552566139,1.55148796 C0.736754853,1.87091195 0.966990743,2.28159994 1.15117946,2.60102393 L1.79583995,3.6049279 C1.38141534,3.6049279 0.782802031,3.51366391 0.460471783,3.8330879 C0.368377426,3.9243519 0.368377426,4.01561589 0.27628307,4.15251189 L0.27628307,4.47193588 L0.368377426,4.70009588 C0.690707675,5.61273585 1.93398148,6.84479982 2.57864198,7.5749118 C1.98002867,7.5749118 1.33536817,7.4836478 0.828849209,7.75743979 C0.322330248,8.07686379 0.322330248,8.57881577 0.644660495,9.08076776 C1.0590851,9.71961574 1.98002867,10.4497277 2.62468916,10.9516797 C2.21026456,11.1342077 1.4735097,11.0429437 1.28932099,11.6817917 C1.10513228,12.3206397 1.79583995,12.8225917 2.02607584,13.0051197 C2.53259481,13.4158076 3.1772553,13.9177596 3.8219158,14.2371836 C3.91401015,14.3284476 4.05215169,14.3284476 4.14424604,14.4197116 C4.2363404,14.4197116 4.2363404,14.5109756 4.32843476,14.5109756 C4.51262347,14.6022396 4.42052911,14.5109756 4.51262347,14.6022396 C3.91401015,14.6935036 3.26934966,14.8303996 2.85492505,15.1954556 C2.34840609,15.6061436 2.67073634,16.3362556 3.1772553,16.5644156 L6.21636906,17.8877435 C5.89403882,18.0702715 4.42052911,18.3896955 4.55867065,19.2567035 C4.650765,19.4848635 4.78890654,19.7586555 5.06518961,19.8499195 C5.98613317,20.3518715 7.55173723,20.4887675 8.51872798,20.6712955 C8.42663362,20.7625594 7.78197312,21.1732474 7.59778442,21.2645114 C7.50569006,21.3557754 7.4135957,21.4470394 7.36754853,21.4926714 C7.04521828,21.9033594 6.95312392,22.4965754 7.55173723,22.7247354 C8.38058645,23.0441594 10.1764264,23.0441594 11.1894643,22.9528954 C10.7750397,23.2723194 10.0382849,23.7742714 9.94619051,24.3218554 C9.76200179,25.3257593 11.1894643,25.1432313 11.7420305,25.1432313 C12.2485495,25.1432313 12.8011155,25.0519673 13.3076345,24.9607033 C13.0773986,25.0519673 12.0643607,26.1927673 12.9853043,26.6034553 C13.5839176,26.9228793 15.3797575,26.4209273 16.024418,26.1927673 L16.6690785,25.9646073 C16.5769842,26.1471353 16.4848898,26.1927673 16.4388427,26.2840313 C16.2086068,26.6034553 15.9323237,26.8772473 15.7941822,27.2879353 C15.5639463,28.0180473 16.024418,28.3374712 16.8072201,28.2005753 C17.4058333,28.0180473 17.8663052,27.8811513 18.3728242,27.6073593 C18.8793431,27.3791993 19.2937677,27.0141433 19.7542395,26.7859833 C19.7542395,26.8772473 19.6621452,27.0141433 19.5700507,27.1054073 C19.5700507,27.1966713 19.4779564,27.3335673 19.3858621,27.4248313 C19.2937677,27.6073593 19.1556262,27.8355193 19.0635318,28.0636793 C18.8332959,28.6568952 19.1556262,29.2957432 19.892381,29.0675832 C20.8133246,28.7481592 21.688221,28.0636793 22.471023,27.5160953 C22.2868342,28.0180473 21.8263625,28.5656312 21.9645041,29.1588472 C22.0565984,29.3870072 22.2868342,29.6607992 22.6091646,29.5695352 C23.0235892,29.5695352 23.6682496,29.0675832 23.9905799,28.8394232 C24.1747686,28.6568952 24.4050045,28.5199992 24.5891932,28.3374712 C24.7733819,28.1093113 24.9115235,28.0180473 25.0957121,27.7442553 L25.6022311,27.1510393 C25.4180424,27.6529913 24.5891932,29.1132152 25.0957121,29.6151672 C25.6943255,30.2540152 27.0757408,28.7025272 27.398071,28.2462072 C27.7204013,27.7442553 27.9966844,27.2423033 28.2269203,26.6947193 C28.4571561,25.8733433 28.6413449,24.9607033 28.8255336,24.0936954 L29.3320525,24.3218554 C29.3320525,25.2344953 29.3320525,25.8733433 29.5622885,26.6947193 C29.7925244,27.6073593 30.1609018,28.2462072 30.5753264,28.9763192 C30.8055623,29.2044792 30.8516094,29.2044792 30.8516094,29.4326392 C30.8516094,29.8433272 30.9437038,30.1627512 31.0818454,30.4821752 C31.1739397,30.8015992 31.3120812,31.0753912 31.4962699,31.3948152 L31.9106945,32.3074551 C31.8186002,32.3987191 31.7265059,32.4899831 31.6804586,32.5356151 C31.3581285,32.7637751 31.0818454,33.0375671 30.8516094,33.2657271 C30.5292792,33.6764151 30.206949,33.9958391 30.0227602,34.5890551 C30.0227602,34.7715831 29.8385715,35.3191671 29.9306659,35.5016951 C30.0227602,35.7298551 30.2529961,36.094911 30.4371849,36.094911 C31.0818454,36.094911 31.5883643,35.5929591 32.002789,35.5016951 C32.0948833,35.6842231 32.2330248,35.912383 32.4172135,36.003647 C32.6014022,36.186175 32.9237324,36.186175 33.1539684,36.094911 C33.5683929,35.866751 33.8907232,35.5016951 34.1670063,35.1822711 C34.2591006,35.1822711 34.3972422,35.3647991 34.4893365,35.4104311 C34.8116668,35.6385911 34.9958555,36.049279 35.4102801,36.231807 C36.0088934,36.414335 36.2391292,35.7298551 36.2391292,35.3191671 L36.2391292,34.8172151 L36.423318,34.8172151 C36.423318,34.9997431 36.2391292,35.3191671 36.2391292,35.6385911 C36.2391292,35.958015 36.423318,36.231807 36.7456483,36.140543 C37.0679785,36.049279 37.5744975,35.5016951 37.8047333,35.2279031 C38.1270636,35.3191671 38.4033467,36.140543 38.7256769,36.140543 C39.4624317,36.049279 39.4624317,35.6385911 39.784762,35.4104311 C40.291281,35.5016951 40.9359415,36.003647 41.5345548,35.912383 C41.7647906,35.912383 42.0410737,35.6842231 41.9489794,35.3191671 C41.9489794,34.0871031 41.2122246,33.1744631 39.6466205,32.1249271 C39.7387148,31.9423992 40.2452338,31.1210232 40.3833753,30.3909112 L40.7977999,28.3374712 C40.8898943,28.2462072 41.0280358,28.1549433 41.1201301,28.0180473 C41.4424604,27.6986233 41.8568851,27.1054073 41.9489794,26.6490873 L42.2713096,24.0936954 L42.5936399,23.8655354 C42.6857342,24.0480634 42.7778287,24.4587514 42.7778287,24.6869113 C42.7778287,25.0063353 42.869923,25.2801273 42.9620173,25.5995513 C43.1462061,26.6034553 43.6987721,27.7898873 44.3434326,28.4743672 C44.6657629,28.7937912 44.9880931,29.1132152 45.4946121,29.4782712 C46.1392726,29.8889592 46.6457915,29.4782712 46.50765,28.6568952 C46.4155557,28.4287352 46.2774141,28.0636793 46.1853198,27.8355193 C46.001131,27.4248313 46.001131,27.3335673 45.9550839,27.1966713 C46.4616029,28.0180473 47.1983577,28.7481592 48.579773,29.3870072 C48.8100089,29.5695352 49.4086223,29.8889592 49.7309525,29.6151672 C50.1453771,29.3870072 49.9611885,28.7025272 49.8230469,28.3831032 L49.5007166,27.7442553 C49.5928109,27.8355193 49.5928109,27.8355193 49.6849054,27.9267833 C50.3295659,28.5199992 51.4346981,29.0675832 52.1714529,29.2957432 C52.5858776,29.3870072 52.8161134,29.2044792 52.9082079,28.8850552 C53.0923965,28.2462072 52.5858776,27.5160953 52.1714529,26.9228793 C52.2635474,27.0141433 52.3556417,27.1054073 52.4937832,27.1510393 C52.8161134,27.4704633 54.4738118,28.1549433 54.8882365,28.2005753 C55.3026611,28.3831032 55.7170857,28.4287352 55.9473216,28.2005753 C56.2696518,27.9724153 56.1775575,27.6073593 56.0394159,27.2879353 C55.7170857,26.7859833 55.7170857,26.6947193 55.3026611,26.2383993 C55.9473216,26.5578233 58.2036333,27.2879353 59.0324826,26.9685113 C59.6771431,26.7403513 59.3548127,26.0558713 59.0324826,25.6451833 C58.8482938,25.4626553 58.8482938,25.4626553 58.7101523,25.3257593 C59.4469072,25.3257593 60.690181,25.9646073 61.8413604,25.3257593 C62.5781152,24.7325433 61.6571717,23.9567994 61.1966999,23.5917434 L60.5980866,23.1810554 C61.3348415,23.1810554 61.6111246,23.2723194 62.5781152,23.2723194 C63.1767285,23.2723194 63.9134835,23.2723194 64.3739552,23.0441594 C65.0186157,22.7247354 64.8804741,22.1315194 64.4660495,21.7208314 L63.1306814,20.8994554 C63.4530116,20.8081914 63.7753419,20.8081914 64.1437193,20.8081914 C64.9725685,20.7169274 66.123748,20.4887675 66.7684084,20.1693435 C67.4130689,19.8499195 67.5051634,19.2567035 66.9525972,18.8460155 L65.4790875,18.1159035 C66.123748,17.8877435 66.400031,17.8877435 67.2288803,17.5226875 C67.8274936,17.2945275 69.0247202,16.7925756 69.3010033,16.1993596 C69.3930976,15.8799356 69.2089089,15.5605116 69.0707675,15.3779836 C68.6563428,15.0585596 68.0116823,14.8760316 67.5051634,14.7847676 L67.3209746,14.6935036 L67.4130689,14.6935036 L68.0116823,14.3740796 C68.6563428,14.0546556 69.3470504,13.5527036 69.8996166,13.1420157 C70.1298525,12.9138557 70.8205602,12.4119037 70.6363714,11.8186877 L69.2549561,11.0885757 L69.4391449,10.9973117 C69.8535694,10.6778877 70.1758997,10.3584637 70.5903243,9.99340773 C70.9126545,9.76524774 71.0968433,9.58271975 71.3270791,9.26329575 C71.5112679,8.89823976 71.5112679,8.30502378 71.0047488,8.07686379 Z M26.7534105,24.0936954 L26.9836465,24.0936954 C26.8915521,24.2762234 26.7994577,24.4131194 26.7534105,24.5956473 C26.6613162,24.8238073 26.5231747,25.0975993 26.4310803,25.1888633 L26.7534105,24.0936954 Z M0.966990743,0.730111981 C2.34840609,0.501951987 7.92011467,3.7418239 8.97919976,4.42630388 L11.6959833,6.06905584 C12.2945966,6.38847983 12.2945966,6.38847983 12.4327381,6.79916782 C13.0773986,8.16812778 13.6760119,9.40019175 14.4127668,10.7235197 C13.9983422,10.6322557 12.6169269,10.1303037 12.2025023,10.0846717 C11.4657474,9.85651174 10.8210869,9.58271975 10.0382849,9.26329575 C9.39362437,8.94387176 8.65686951,8.67007977 8.0582562,8.25939178 C7.13731264,7.6661758 6.26241625,7.20985581 5.43356703,6.47974383 C4.83495372,5.97779184 4.05215169,5.24767986 3.54563273,4.70009588 C3.13120812,4.19814389 2.94701941,4.06124789 2.53259481,3.46803191 C2.21026456,3.01171192 0.966990743,1.27769597 0.966990743,0.730111981 Z M2.62468916,6.66227182 L1.98002867,5.93215984 C1.79583995,5.74963185 0.920943565,4.60883188 0.920943565,4.28940789 C1.15117946,4.10687989 1.93398148,4.28940789 2.16421738,4.38067188 C2.39445327,4.47193588 2.39445327,4.56319988 2.57864198,4.70009588 C2.99306659,5.29331186 3.63772708,5.84089584 4.14424604,6.34284783 C4.46657629,6.66227182 4.74285936,6.93606382 5.15728397,7.16422381 C8.0582562,9.44582375 11.2815587,10.6778877 14.8271914,11.6817917 C15.241616,11.7730557 15.0574273,11.6817917 15.4718519,12.4119037 C14.2746253,12.3206397 11.6959833,11.7730557 10.7289925,11.4079997 C8.65686951,10.8147837 6.67684084,9.94777574 4.92704808,8.71571177 C4.69681218,8.53318377 4.32843476,8.30502378 4.09819887,8.07686379 C3.63772708,7.5749118 3.13120812,7.25548781 2.62468916,6.66227182 Z M0.966990743,8.39628778 C1.38141534,8.16812778 2.71678352,8.39628778 3.1772553,8.39628778 C3.40749119,8.39628778 3.68377426,8.71571177 3.91401015,8.89823976 C4.14424604,9.08076776 4.42052911,9.21766376 4.650765,9.40019175 C6.86102956,10.8604157 9.02524693,11.7730557 11.6499361,12.3662717 C13.0313514,12.6856957 14.3667196,12.9594877 15.8402294,13.0963837 L16.0704652,13.4158076 C13.1694929,13.5983356 9.71595462,13.3245436 6.99917109,12.3662717 C5.66380292,11.8643197 4.60471783,11.3623677 3.5916799,10.6322557 C3.26934966,10.6322557 0.966990743,8.89823976 0.966990743,8.39628778 Z M3.86796297,13.3245436 C3.36144401,13.0051197 2.07212302,12.1837437 1.88793431,11.8643197 C2.1181702,11.7730557 3.26934966,11.5448957 3.54563273,11.6817917 C3.96005733,11.9099517 4.28238758,12.1837437 4.78890654,12.4119037 C5.70985011,12.8225917 6.53869931,13.2332796 7.59778442,13.5527036 L14.5509084,14.4653436 L16.7151257,14.3740796 L17.0374559,14.8760316 L11.9262192,15.3779836 C9.76200179,15.3779836 7.96616184,15.0585596 6.12427471,14.3740796 C5.24937832,14.0546556 4.51262347,13.7352316 3.86796297,13.3245436 Z M4.05215169,16.1537276 C3.72982144,15.9255676 3.54563273,15.8343036 3.31539684,15.6517756 C3.72982144,15.3323516 5.52566139,15.0585596 5.80194446,15.0585596 C5.98613317,15.1498236 6.30846342,15.2410876 6.53869931,15.2867196 C8.84105823,16.0168316 11.4197002,16.1993596 13.8141534,15.9255676 C14.4127668,15.8343036 15.0574273,15.8343036 15.6099934,15.7430396 L17.4058333,15.5148796 L17.6360693,15.8343036 C17.4518806,16.0168316 16.3007011,16.3362556 15.9783708,16.4275196 C12.8471628,17.4770555 9.66990743,17.9790075 6.44660495,17.0663675 C5.61775575,16.8382076 4.78890654,16.5187836 4.05215169,16.1537276 Z M7.27545417,19.6217595 L5.2954255,19.0285435 C5.2954255,18.9372795 5.2954255,18.9372795 5.38751986,18.9372795 L5.47961422,18.8460155 C5.98613317,18.5265915 6.81498239,18.2527995 7.36754853,18.1159035 C7.68987878,18.0246395 7.59778442,18.0246395 7.96616184,18.0246395 C10.1303792,18.3440635 12.3406438,18.1159035 14.3206724,17.6139515 C15.6560406,17.2945275 16.8072201,16.8838396 18.0965411,16.4731516 L18.3267769,16.8838396 C18.1425883,17.0663675 16.5769842,17.7964795 16.4388427,17.8877435 C14.3667196,19.0285435 12.0643607,19.8499195 9.57781307,19.8499195 C8.8871054,19.8499195 7.82802031,19.7586555 7.27545417,19.6217595 Z M9.99223768,22.2227834 C9.80804897,22.2227834 8.10430337,22.0402554 7.82802031,21.9946234 C8.01220901,21.6751994 9.99223768,20.6712955 10.3145679,20.6256635 C11.4657474,20.5343995 12.5248324,20.3975035 13.6299648,20.0324475 L19.0174847,17.6595835 L19.4319093,18.1615355 C19.2016733,18.3896955 17.7742108,19.3935995 17.5439749,19.6217595 C16.8993144,20.0324475 16.2086068,20.5343995 15.4718519,20.8538234 C13.7681063,21.6751994 12.0643607,22.2227834 9.99223768,22.2227834 Z M10.8671341,24.3674874 L10.6368982,24.3674874 C10.8210869,24.0480634 12.7090212,22.7247354 12.9392571,22.5878394 C13.1694929,22.4965754 13.5839176,22.4053114 13.9983422,22.2684154 C15.3337103,21.7664634 16.5769842,21.1276154 17.6360693,20.3975035 C18.0504938,20.1693435 18.3728242,19.8955515 18.6951543,19.6673915 C19.2016733,19.2567035 19.2016733,19.2567035 19.7542395,18.9372795 L20.1686641,19.5304955 L19.2477205,20.4431355 C17.6821164,21.9946234 16.1165124,23.3179514 13.8141534,24.0480634 C13.2155402,24.1849594 11.8801719,24.4587514 10.8671341,24.3674874 Z M16.1625596,25.1888633 C15.4258047,25.5995513 14.2746253,25.8277113 13.445776,25.9189753 C13.5378704,25.5995513 14.5969555,24.7781753 14.9192858,24.4587514 C15.0113801,24.3674874 15.0113801,24.3674874 15.1495217,24.2762234 C16.3927954,23.6830074 17.7281637,22.9072634 18.6951543,21.9946234 C18.8793431,21.8120954 19.0174847,21.7664634 19.109579,21.5839354 C19.2937677,21.4014074 19.8463338,20.8538234 20.0305226,20.7625594 L21.0896077,20.1237115 C21.181702,20.3062395 21.4119379,20.4431355 21.5040322,20.5343995 C21.4119379,20.7169274 20.4909943,21.7664634 20.4449472,21.9033594 L20.0305226,22.3140474 C19.9384282,22.4053114 19.9384282,22.4965754 19.8463338,22.5422074 C19.5240036,22.9528954 18.6951543,23.5917434 18.2807297,23.9111674 C17.7281637,24.4587514 16.9914088,24.8694393 16.1625596,25.1888633 Z M18.6491072,26.5578233 C18.1425883,26.7403513 17.2676918,27.1966713 16.5769842,27.2879353 C16.6690785,27.0597753 17.313739,26.2840313 17.4979278,26.0558713 C17.5900221,25.9646073 17.5900221,25.8733433 17.6821164,25.8733433 C17.7742108,25.7820793 17.8663052,25.7820793 17.8663052,25.6908153 C18.3728242,25.0975993 20.3528528,23.2266874 20.9975133,22.6791034 C21.0896077,22.5878394 21.0896077,22.5878394 21.181702,22.4965754 C21.2737963,22.4053114 21.3658907,22.4053114 21.3658907,22.3140474 C21.688221,21.9946234 22.0105512,21.7208314 22.3789287,21.4926714 L22.7933532,21.8120954 C22.7012589,22.0402554 21.7803153,23.3635834 21.7342682,23.5917434 C20.8593717,24.7781753 19.8002867,25.9189753 18.6491072,26.5578233 Z M22.6091646,26.1471353 C22.0105512,26.7859833 21.4579851,27.3791993 20.6291358,27.7898873 C20.4449472,27.8811513 19.9844753,28.2005753 19.8002867,28.2005753 C20.0305226,27.3791993 22.1947399,24.8238073 22.8394004,24.0480634 C23.1617306,23.6373754 23.5761552,23.1354234 23.8984856,22.7247354 L24.3129101,22.9528954 C24.3129101,23.1810554 23.7142968,24.3218554 23.5761552,24.6869113 C23.3459194,25.2801273 22.9314947,25.7364473 22.6091646,26.1471353 Z M25.6022311,25.5995513 C25.1878066,26.6490873 24.7733819,27.1510393 24.0366271,27.9724153 C23.7142968,27.9724153 23.1156835,28.4743672 22.7933532,28.6112632 C22.8854476,28.2918392 23.2998722,27.6073593 23.4380137,27.3791993 C23.6682496,26.9685113 23.9445327,26.5578233 24.1747686,26.2383993 C24.6812876,25.4170233 25.1878066,24.6869113 25.7403726,23.9567994 L26.0627029,24.1393274 C26.0627029,24.4587514 25.6482783,25.2801273 25.6022311,25.5995513 Z M27.628307,25.5995513 C27.398071,26.4209273 27.0296936,27.1510393 26.5692219,27.7898873 C26.338986,28.1093113 25.9706086,28.4287352 25.7403726,28.6112632 C25.9245614,27.7898873 27.5362126,24.9150713 27.90459,24.1849594 C27.90459,24.5043833 27.7204013,25.2801273 27.628307,25.5995513 Z M57.2826897,10.1303037 C57.8813031,9.12639976 58.5259636,7.75743979 58.9403882,6.75353582 C59.1706241,6.11468784 59.1245769,6.25158383 59.5850486,5.93215984 C59.9073789,5.74963185 60.183662,5.52147185 60.5059922,5.33894386 C61.1046056,5.01951987 61.7492661,4.60883188 62.3018322,4.28940789 C63.545106,3.55929591 64.6962855,2.92044792 66.0316536,2.23596794 L70.2219469,0.684479982 C70.3140412,1.27769597 68.426107,3.7874559 68.0116823,4.28940789 C65.4330403,7.30111981 61.979502,9.21766376 58.2036333,10.3584637 C57.8813031,10.3584637 57.4668785,10.5409917 57.0524538,10.5866237 C57.1445483,10.4497277 57.2366426,10.2671997 57.2826897,10.1303037 Z M56.4077933,11.8186877 C56.5919821,11.5905277 56.4998878,11.5905277 56.822218,11.4992637 C57.1445483,11.4079997 57.5589728,11.3167357 57.8813031,11.1798397 C61.0125112,10.2671997 63.821389,9.03513576 66.3079367,7.02732781 C66.400031,6.93606382 66.9525972,6.43411183 67.0446915,6.38847983 L67.7814465,5.74963185 C68.195871,5.33894386 68.5182013,4.92825587 68.9326259,4.42630388 C69.0247202,4.33503988 69.0247202,4.33503988 69.1628618,4.33503988 L70.4061356,4.24377589 C70.4061356,4.56319988 69.8075223,5.24767986 69.5772864,5.56710385 C69.3470504,5.79526385 68.8405315,6.47974383 68.5642484,6.70790382 C68.4721541,6.79916782 68.4721541,6.79916782 68.3800597,6.89043182 C65.5711819,9.90214374 61.3808886,11.4079997 57.2366426,12.1381117 C57.0064067,12.1381117 56.4998878,12.3206397 56.0854632,12.3206397 C56.2236047,12.1837437 56.315699,11.9099517 56.4077933,11.8186877 Z M41.2122246,7.6661758 C43.3764419,7.4836478 45.0801876,9.21766376 45.1722819,11.1798397 C45.2643762,13.2332796 43.6987721,15.1041916 41.7187435,15.1954556 C39.5545262,15.3779836 37.9428749,13.6439676 37.7586862,11.6817917 C37.5744975,9.53708775 39.2321959,7.84870379 41.2122246,7.6661758 Z M36.4693652,12.2293757 L36.6996011,12.5487997 L37.7586862,14.4197116 C37.9428749,14.7391356 37.9428749,14.6022396 37.6665918,15.2410876 C37.6205447,15.2867196 37.5744975,15.4236156 37.4363559,15.6974076 L36.8377426,17.3401595 C36.5614595,18.0246395 36.3312237,18.6634875 36.2851765,18.7091195 C36.1930821,18.6178555 34.9498084,15.5148796 34.9037611,15.2867196 C34.6735253,14.6478716 34.7195724,14.9672956 35.5023744,13.7352316 C35.6865632,13.5070716 35.8247047,13.2332796 36.0088934,13.0051197 L36.4693652,12.2293757 Z M31.3581285,7.4836478 C33.5683929,7.25548781 35.2260913,8.94387176 35.5023744,10.9060477 C35.7326103,13.0963837 34.1209591,14.8303996 32.0948833,15.0129276 C29.8846187,15.3323516 28.134826,13.6439676 27.9506372,11.6361597 C27.8124957,9.53708775 29.4701941,7.75743979 31.3581285,7.4836478 Z M28.6413449,19.3023355 C28.411109,19.4848635 28.411109,19.4848635 28.134826,19.3023355 C27.90459,19.1198075 27.5362126,18.8003835 27.5362126,18.3896955 C27.7204013,18.2984315 28.8715808,17.7508475 29.193911,17.5683195 C30.3450904,16.9751035 31.6804586,16.4275196 32.9237324,16.2449916 L35.133997,16.0168316 L35.5484216,17.1576315 C35.133997,17.0663675 33.5683929,17.3857915 33.061874,17.4770555 C32.3251191,17.6595835 31.5883643,17.8877435 30.8976566,18.1159035 C30.2529961,18.3440635 29.5622885,18.7091195 29.0097223,19.0285435 C28.8715808,19.1198075 28.7334392,19.2110715 28.6413449,19.3023355 Z M34.9958555,35.5929591 C34.7656196,35.3647991 34.351195,34.7715831 33.9828175,34.7715831 C33.6604874,34.7715831 33.3381571,35.4104311 33.061874,35.5929591 C32.9697796,35.6842231 32.7395438,35.6842231 32.6474493,35.5929591 C32.4632607,35.5929591 32.2330248,35.0910071 32.1409304,34.9541111 C31.9106945,34.7259511 31.6344114,34.9541111 31.4041756,35.1366391 C31.2199869,35.2279031 31.2199869,35.3191671 31.0818454,35.3647991 C30.9897509,35.3647991 30.7595151,35.5929591 30.6674207,35.5929591 C30.3450904,35.4104311 30.5753264,34.9541111 30.6674207,34.7715831 C31.0818454,33.9502071 32.4172135,32.7181431 33.5683929,33.1288311 C33.7986289,33.2200951 34.1670063,33.4482551 34.3051479,33.5395191 C34.7195724,33.8589431 35.0419027,34.2696311 35.3642329,34.8628471 C35.4563273,35.0453751 35.4563273,35.0453751 35.4563273,35.2735351 C35.4102801,35.6385911 35.3181858,35.912383 34.9958555,35.5929591 Z M36.0549406,30.1627512 C35.2260913,29.1132152 35.0419027,32.9463031 33.5683929,31.3948152 C33.061874,30.8928632 32.8316381,30.1627512 32.5093079,29.5239032 C32.4172135,29.2957432 32.2790719,29.1132152 32.2790719,28.7937912 C32.2790719,27.7442553 33.6144401,29.1132152 33.7525817,29.3870072 C34.2591006,29.9802232 34.5814308,28.7937912 35.2260913,28.2462072 C35.7326103,27.8355193 36.2391292,28.4287352 36.4693652,28.6568952 C36.6996011,28.9763192 37.0679785,29.4782712 37.2982144,29.7064312 C37.8968278,30.2083832 38.1270636,29.5239032 38.3572995,29.1132152 C38.5875354,28.9306872 39.00196,28.2918392 39.4163846,28.2918392 C39.9229036,28.7937912 38.6796297,30.6647032 38.495441,30.9841272 C37.3903088,32.7181431 36.8837897,31.1666552 36.0549406,30.1627512 Z M41.1201301,35.5016951 C41.1201301,35.7298551 40.3833753,35.4104311 40.1991867,35.3191671 C39.9689507,35.1366391 39.6926677,34.9084791 39.6005733,34.8172151 C39.3703374,34.7259511 38.9559128,35.821119 38.5414883,35.7298551 C38.3572995,35.7298551 38.3112523,35.5473271 38.3112523,35.5016951 C38.219158,35.4104311 38.1270636,35.3191671 38.0810164,35.2735351 C37.4363559,34.5434231 37.2521673,35.0910071 36.929837,35.3647991 C36.929837,35.5473271 36.6075068,35.866751 36.423318,35.866751 C36.2391292,35.2735351 36.7456483,34.4977911 37.0219313,34.1327351 C37.2521673,33.7220471 37.8507805,33.3113591 38.5875354,33.3113591 C39.00196,33.3113591 39.2321959,33.4026231 39.6005733,33.4938871 C40.291281,33.6764151 41.2582717,34.6803191 41.1201301,35.5016951 Z M38.8638185,27.6529913 C38.0349692,26.9228793 37.9428749,23.9111674 36.6535539,26.7403513 C36.423318,27.3791993 35.916799,28.2005753 35.2721385,27.3335673 C35.0419027,27.0141433 34.7656196,26.4209273 34.5353837,26.0102393 C34.1209591,25.2801273 33.7065345,25.9189753 33.5223458,26.4209273 C33.3381571,26.7403513 33.2000155,27.0597753 33.0158269,27.3335673 C32.4172135,27.9267833 31.772553,27.1510393 31.4502228,26.6034553 C31.2199869,26.4209273 30.4371849,25.1432313 30.4371849,24.8238073 C30.3450904,23.6830074 31.5883643,24.8238073 31.8186002,25.0519673 C32.2330248,25.4626553 32.1409304,25.6451833 32.9697796,24.8238073 C33.7065345,23.9111674 34.0288648,23.5917434 34.7656196,24.9150713 C35.7786575,26.5578233 36.0088934,25.8277113 36.8377426,24.7325433 C37.0219313,24.5500153 37.3442616,24.1393274 37.5744975,24.0936954 C38.4033467,23.7742714 38.5875354,25.1432313 39.0480072,25.2344953 C39.3703374,25.3257593 39.6926677,24.8238073 39.8768564,24.7325433 C39.9689507,24.6412793 40.6136112,24.0936954 40.7977999,24.4131194 C41.1201301,24.9150713 39.6926677,28.2918392 38.8638185,27.6529913 Z M42.0871209,21.3101434 C41.9029322,21.8120954 41.6726963,22.3140474 41.4424604,22.6334714 C41.2122246,22.9528954 40.8438472,23.4548474 40.3833753,23.5461114 C39.7387148,23.6373754 39.1401015,22.5422074 38.9098657,22.0858874 C38.8177712,21.8577274 38.6796297,21.4470394 38.4033467,21.6751994 C37.8968278,22.0858874 37.3903088,24.2305914 36.5154123,23.3179514 C35.8707518,22.6791034 35.6865632,20.7169274 34.7656196,22.2684154 C34.5814308,22.5878394 34.2591006,23.3179514 33.844676,23.3179514 C33.0158269,23.3179514 32.6014022,20.7625594 31.8646474,21.9489914 C31.6344114,22.3596794 31.4502228,22.9528954 31.2199869,23.2723194 C30.713468,23.9111674 30.3911376,23.2723194 30.0688075,22.9528954 C29.8385715,22.6334714 29.4701941,22.2227834 29.3320525,21.7208314 C29.3320525,21.4926714 28.917628,20.4887675 29.1478639,20.1693435 C29.3780997,20.1693435 29.6543828,20.5800315 29.7925244,20.7625594 C30.1148546,21.0819834 30.6213735,21.6751994 31.0357981,20.6712955 C31.266034,20.1693435 31.6344114,19.1198075 32.1869776,19.4392315 C32.7855909,19.7586555 33.3381571,20.8994554 33.6604874,21.4014074 C34.0749119,21.9946234 34.6735253,20.3975035 34.7195724,20.0780795 C34.8116668,19.7586555 35.2260913,19.1654395 35.640516,19.4848635 C36.3772708,20.0780795 36.7916954,22.4965754 37.4363559,21.0363514 C37.6205447,20.5343995 38.0810164,19.7130235 38.495441,19.4848635 C39.2321959,19.1654395 39.2321959,20.8081914 40.2452338,21.0363514 C40.7517527,21.1276154 41.1661774,20.8538234 41.4885077,20.5343995 C42.0871209,20.0324475 41.6726963,20.3062395 42.4094511,19.7130235 C42.5936399,20.1237115 42.2713096,20.9450874 42.0871209,21.3101434 Z M42.4094511,18.2984315 C42.3173568,18.2071675 42.2252625,18.1159035 42.0871209,18.0702715 C41.6726963,17.8421115 41.074083,17.5683195 40.6136112,17.4314235 L37.0219313,17.0663675 C37.0679785,16.9294716 37.1600728,16.7925756 37.2521673,16.6100476 C37.3442616,16.3818876 37.3903088,16.1993596 37.4363559,16.0168316 C37.4363559,15.9711996 37.4363559,15.9711996 37.4363559,15.9255676 C38.0349692,15.9255676 38.9559128,16.1080956 39.4163846,16.1993596 C40.0610451,16.2906236 40.7977999,16.5187836 41.4885077,16.7013116 C42.1331682,16.8838396 42.0871209,16.9294716 42.4094511,16.7925756 C43.3303947,16.2906236 43.8829609,15.8799356 44.71181,15.2410876 C45.3564705,14.6935036 46.0471783,14.2371836 46.8760275,13.8264956 C46.9681218,13.7808636 47.1523105,13.6895996 47.3364993,13.6439676 C47.6127823,13.5070716 47.8890654,13.4158076 47.8890654,13.4158076 C47.8890654,13.4158076 47.9351125,13.4158076 47.9351125,13.4158076 C49.5007166,12.9138557 50.8360848,12.7769597 52.4937832,12.8225917 C52.5858776,13.9633916 51.4807453,14.4653436 50.6058489,14.8760316 L49.9611885,15.1954556 C50.1914243,15.4236156 50.1453771,15.4236156 50.0532828,15.5148796 C50.4677074,15.4236156 51.7109812,14.9216636 52.1254058,14.7847676 C53.8751986,14.1459196 54.9342837,14.0546556 56.6840764,14.9672956 C57.0064067,15.1498236 57.2826897,15.3779836 57.5129257,15.5605116 C57.7431616,15.7430396 58.111539,15.9711996 58.3417748,16.1993596 C58.2496805,16.4275196 57.5129257,16.9294716 57.1905954,17.1119995 C56.6840764,17.3401595 56.1315103,17.4314235 55.532897,17.5226875 C54.2896232,17.7052155 52.9082079,17.7052155 51.664934,17.7508475 C52.7240191,17.8421115 53.8751986,18.5722235 54.5659063,19.0741755 C54.9803308,19.3935995 55.3026611,19.7130235 55.7170857,20.0780795 C56.2236047,20.3975035 56.3617462,20.6712955 56.8682652,21.0819834 C56.5459349,21.2645114 54.9803308,21.6751994 54.5659063,21.6751994 C53.6449627,21.7664634 52.8161134,21.5839354 52.0793586,21.2645114 C51.0663207,20.7625594 50.2835187,20.1237115 49.4546694,19.4848635 L48.5337259,18.8460155 C48.6258203,19.0285435 49.1783864,19.4848635 49.2704808,19.6673915 L49.9151413,20.5800315 C49.6849054,20.7625594 48.5337259,20.8994554 48.1193013,20.8994554 C47.4746408,20.8994554 46.7839331,20.8081914 46.231367,20.6712955 C44.6657629,20.0324475 43.422489,19.3023355 42.4094511,18.2984315 Z M44.8959988,25.1888633 C44.8039045,25.0975993 44.8039045,24.9607033 44.71181,24.8694393 C44.5276214,24.6412793 44.4815742,24.4587514 44.2973855,24.2305914 C44.3894799,24.2305914 44.4815742,24.2305914 44.5276214,24.2305914 C44.6657629,24.5043833 44.8499516,24.8694393 44.8959988,25.1888633 Z M44.6657629,27.6986233 C44.4355271,27.4704633 44.2513383,27.0597753 44.0671495,26.6947193 C43.7448194,25.8733433 43.5606306,25.2344953 43.422489,24.2305914 C43.6066778,24.3218554 44.3434326,25.9646073 44.4815742,26.1927673 C44.9880931,27.1966713 45.1262347,27.5160953 45.4946121,28.4743672 C45.218329,28.3831032 44.8499516,27.9724153 44.6657629,27.6986233 Z M47.3825465,27.6529913 C46.737886,27.0141433 46.231367,26.2840313 45.9090367,25.3713913 C45.8169424,25.1432313 45.7248481,24.8694393 45.6788008,24.7325433 C45.5867065,24.5500153 45.448565,24.1393274 45.448565,24.0024314 L45.6327536,23.9111674 C46.1392726,24.5500153 47.4285936,26.6034553 47.8430182,27.2879353 L48.4876787,28.5199992 C48.1193013,28.2918392 47.5667351,27.7898873 47.3825465,27.6529913 Z M49.9611885,27.2423033 C48.7179146,26.3296633 47.7509239,24.5500153 47.2444049,22.9985274 L47.4285936,22.9072634 C47.520688,22.9985274 47.520688,22.9985274 47.6127823,23.0897914 C47.7048767,23.1810554 47.7048767,23.1810554 47.796971,23.2723194 C47.8890654,23.3635834 47.9811598,23.4548474 48.027207,23.5917434 C48.5337259,24.2305914 49.086292,24.8238073 49.5928109,25.4626553 C49.9151413,25.8733433 50.2374714,26.2840313 50.6058489,26.7859833 L51.5267924,28.1549433 C51.0202735,28.0636793 50.1914243,27.4704633 49.9611885,27.2423033 Z M52.7700663,26.4209273 C52.2635474,26.1015033 51.6188869,25.5995513 51.2044623,25.0975993 C50.6979433,24.5043833 50.4677074,24.1849594 49.9611885,23.5461114 C49.6388582,22.9528954 49.316528,22.5422074 48.9481504,22.0858874 C48.8560561,21.9033594 48.7639618,21.9033594 48.7639618,21.8577274 L48.9481504,21.6751994 L49.3625751,21.9946234 C49.5467638,22.0858874 49.5928109,22.2227834 49.7769997,22.3140474 C49.9611885,22.4053114 50.0072356,22.5422074 50.1914243,22.6334714 C50.2835187,22.7247354 50.4216602,22.8616314 50.6058489,22.9528954 C50.6979433,23.0441594 50.6979433,23.0441594 50.7900376,23.1354234 C51.5267924,23.7742714 53.5068212,25.6908153 54.0133401,26.2383993 C54.4277647,26.7403513 54.4277647,26.6490873 54.7500949,27.2423033 C54.0593873,27.1510393 53.2305381,26.6490873 52.7700663,26.4209273 Z M55.3947554,25.1888633 C54.6580006,24.8694393 54.0133401,24.3674874 53.4147268,23.9567994 C53.3226324,23.8655354 53.2305381,23.8655354 53.1844908,23.7742714 C53.0923965,23.6830074 53.0003022,23.6830074 52.954255,23.5917434 C52.7240191,23.4092154 51.9412171,22.5878394 51.7109812,22.4509434 L50.2374714,20.7169274 L50.5598018,20.5343995 L50.4677074,20.3518715 C50.5598018,20.3518715 51.2965566,20.8538234 51.4807453,20.9450874 C52.4937832,21.5839354 52.6319248,21.9946234 53.5528684,22.6791034 C53.8751986,22.9072634 54.7961422,23.4092154 55.1184723,23.6830074 L56.1775575,24.2762234 C56.4077933,24.4587514 56.822218,24.8694393 57.0985011,25.0063353 C57.1905954,25.0975993 57.2826897,25.0975993 57.3287369,25.1888633 L57.9273502,25.8277113 C57.1445483,25.8277113 55.9933687,25.4170233 55.3947554,25.1888633 Z M60.690181,24.2762234 C59.6310958,24.3674874 57.8813031,23.9567994 56.9603595,23.5461114 C56.315699,23.2266874 55.4868498,22.8159994 54.7961422,22.3140474 C54.6119534,22.2227834 54.3817175,22.0858874 54.1975288,21.9033594 C54.3817175,21.9033594 54.6119534,21.9033594 54.7961422,21.8120954 C55.4408027,21.7208314 56.1775575,21.4926714 56.2696518,21.4926714 C56.3617462,21.4926714 56.9143123,21.8120954 57.0985011,21.8120954 C57.60502,22.0402554 58.9864353,22.8616314 59.3087656,23.1810554 L60.690181,24.2762234 Z M63.4990588,21.9033594 C63.268823,22.0858874 62.1636906,22.0858874 61.8413604,22.0858874 C61.2427471,22.0858874 60.690181,22.0858874 60.0915677,21.9033594 C59.3548127,21.8120954 58.6180579,21.5839354 57.9273502,21.3101434 L57.2826897,20.9907194 C57.3747842,20.9907194 57.3747842,20.9907194 57.4668785,20.8994554 L57.5589728,20.8994554 L57.6510672,20.8081914 C57.4668785,20.7169274 57.4208313,20.6256635 57.3287369,20.5800315 C57.0985011,20.3518715 56.315699,19.7586555 56.1775575,19.5304955 L55.6710385,19.1198075 C55.3487083,19.0285435 55.1645196,18.8916475 54.8421893,18.6178555 C55.1645196,18.7091195 55.4868498,18.8460155 55.9012744,19.0285435 C56.9143123,19.4392315 58.2036333,19.8499195 59.3087656,20.0780795 C59.5390015,20.1693435 59.7231902,20.1693435 59.9073789,20.2606075 C60.0915677,20.2606075 60.3218036,20.3518715 60.5520394,20.3518715 C60.6441337,20.3518715 61.472983,20.7625594 61.6111246,20.7625594 L63.4990588,21.9033594 Z M65.9856065,19.0285435 L62.2097378,19.6673915 C60.8743696,19.6673915 59.5850486,19.4392315 58.3417748,19.0741755 C57.60502,18.8460155 56.5919821,18.4809595 55.8552273,18.1615355 C55.7631328,18.0702715 55.2105668,17.9333755 55.1184723,17.8421115 C55.7170857,17.7508475 56.1775575,17.7508475 56.7761708,17.6139515 C57.1905954,17.5226875 57.0064067,17.4314235 57.5129257,17.5226875 C57.7431616,17.6139515 58.0194446,17.6139515 58.3417748,17.7052155 L61.8874076,18.0246395 C63.0385871,18.0246395 63.1306814,17.8421115 64.1897665,18.2071675 L65.9856065,19.0285435 Z M67.9656351,15.6061436 C67.5512105,16.0168316 65.8935121,16.6100476 65.2488516,16.8382076 C64.0976721,17.1576315 62.9464927,17.3401595 61.7032189,17.3401595 C60.6441337,17.3401595 59.6310958,17.2488955 58.5720107,17.0207355 C58.3878221,17.0207355 58.2496805,17.0207355 58.1575862,16.9294716 C58.2496805,16.8382076 58.3417748,16.7469436 58.3878221,16.7013116 C58.5720107,16.5187836 58.894341,16.1080956 59.0324826,15.8799356 L59.4469072,15.8799356 C61.0125112,15.8799356 62.4399737,15.6974076 63.9134835,15.3779836 C64.2358137,15.2867196 64.558144,15.1954556 64.9265214,15.1498236 C65.340946,14.9672956 65.4330403,14.9672956 65.9856065,15.1498236 L67.9656351,15.6061436 Z M69.2089089,11.6817917 C69.0247202,12.0012157 67.8274936,12.8225917 67.3209746,13.0507517 C65.0186157,14.6022396 62.5320681,15.1041916 59.4929543,15.1041916 L58.5720107,15.1041916 C57.9273502,15.1041916 58.1575862,15.0129276 57.3287369,14.5109756 L56.7301237,14.1915516 C58.894341,14.1002876 60.8743696,13.9633916 62.8543983,13.4614396 C64.1897665,13.1420157 65.4330403,12.7313277 66.5842198,12.0924797 C66.7684084,12.0012157 67.6433049,11.4992637 67.7353992,11.4992637 L69.2089089,11.6817917 Z M69.7614751,8.98950376 C69.5312392,9.21766376 68.7023899,9.90214374 68.426107,10.1303037 C67.2749275,11.0429437 65.847465,11.7730557 64.2818609,12.2750077 C61.7032189,13.2789116 58.0654918,13.5983356 55.3487083,13.5070716 L55.5789442,13.0963837 C55.9012744,13.0051197 56.315699,13.0051197 56.6380292,12.9138557 C56.9603595,12.8225917 57.2826897,12.8225917 57.6510672,12.7313277 C61.2887942,12.0924797 64.6502383,10.9516797 67.5512105,8.62444777 C67.7353992,8.44191978 67.7353992,8.44191978 67.9656351,8.39628778 L70.1758997,8.30502378 C70.267994,8.48755177 69.8535694,8.89823976 69.7614751,8.98950376 Z"/>
  </g>
</svg>
