<svg xmlns="http://www.w3.org/2000/svg" width="71" height="71" viewBox="0 0 71 71">
  <defs>
    <linearGradient id="logo-jetbrains-a" x1="9.612%" x2="89.899%" y1="85.627%" y2="14.383%">
      <stop offset="0%" stop-color="#FCEE39"/>
      <stop offset="100%" stop-color="#F37B3D"/>
    </linearGradient>
    <linearGradient id="logo-jetbrains-b" x1="8.602%" x2="99.641%" y1="9.463%" y2="95.276%">
      <stop offset="0%" stop-color="#EF5A6B"/>
      <stop offset="57%" stop-color="#F26F4E"/>
      <stop offset="100%" stop-color="#F37B3D"/>
    </linearGradient>
    <linearGradient id="logo-jetbrains-c" x1="90.119%" x2="17.938%" y1="91.33%" y2="26.418%">
      <stop offset="0%" stop-color="#7C59A4"/>
      <stop offset="38.5%" stop-color="#AF4C92"/>
      <stop offset="76.5%" stop-color="#DC4183"/>
      <stop offset="95.7%" stop-color="#ED3D7D"/>
    </linearGradient>
    <linearGradient id="logo-jetbrains-d" x1="91.376%" x2="18.896%" y1="7.597%" y2="77.772%">
      <stop offset="0%" stop-color="#EF5A6B"/>
      <stop offset="36.4%" stop-color="#EE4E72"/>
      <stop offset="100%" stop-color="#ED3D7D"/>
    </linearGradient>
  </defs>
  <g fill="none" transform="translate(3)">
    <path fill="url(#logo-jetbrains-a)" d="M64.1962234,38.952921 C64.6793851,38.5235446 64.9478082,37.933152 65.0014928,37.2354154 C65.0551775,35.8399421 64.0351695,34.7128291 62.6393691,34.6054849 C61.9951537,34.5518128 61.3509381,34.8201731 60.8677764,35.1958774 L15.8800573,59.8313489 C14.8600493,60.2607253 13.9474107,61.012134 13.3568797,62.031903 C11.8000254,64.6081615 12.6589795,67.9358287 15.2895263,69.4923181 C17.1148037,70.5657591 19.3158735,70.458415 21.0337817,69.384974 C21.1411509,69.2776299 21.3022048,69.2239579 21.409574,69.1166138 L63.2835847,39.7043298 C63.4983232,39.5433136 64.0888542,39.1139372 64.1962234,38.952921 Z"/>
    <path fill="url(#logo-jetbrains-b)" d="M64.2565342,34.5925507 L30.2154574,1.32843897 C29.4684745,0.531375588 28.4013561,0 27.17417,0 C24.8798654,0 23.0657641,1.85981456 23.0657641,4.09159202 C23.0657641,5.20748076 23.4926115,6.16395682 24.1862385,6.90788264 C24.3996621,7.12043287 24.6130858,7.27984555 24.8265095,7.43925823 L60.7883995,38.0996296 C61.2152467,38.4715925 61.748806,38.7372804 62.389077,38.7904179 C63.7763309,38.8435555 64.8968052,37.8339418 65.0035171,36.4523653 C65.0035171,35.761577 64.7367375,35.0707887 64.2565342,34.5925507 Z"/>
    <path fill="url(#logo-jetbrains-c)" d="M31.6171146,32.5520351 C31.5635807,32.5520351 10.5247766,15.8236455 10.0965058,15.5538328 L9.13289643,15.0681698 C6.02793298,13.8809938 2.6017664,15.4998703 1.42402165,18.629698 C0.406878446,21.3817878 1.53108935,24.4036905 3.88657886,25.8606793 C4.26131584,26.0765294 4.58251895,26.2384171 4.95725593,26.3463422 C5.17139133,26.4542673 29.261625,36.4913011 29.261625,36.4913011 C30.2252344,36.9230014 31.3494453,36.6531887 31.9918516,35.8437505 C32.7948593,34.8184621 32.6342577,33.3614732 31.6171146,32.5520351 Z"/>
    <path fill="url(#logo-jetbrains-d)" d="M26.2531374,0 C25.3482724,0 24.4966346,0.322741345 23.804679,0.806853362 L2.62019236,15.2226334 C2.56696501,15.2764237 2.51373765,15.2764237 2.51373765,15.3302139 L2.4605103,15.3302139 C1.55564529,15.9756965 0.81046234,16.9439206 0.384643512,18.0735153 C-0.786358264,21.1933483 0.81046234,24.6897129 3.89764885,25.8193076 C5.81383358,26.5723707 7.88970035,26.1958392 9.43329361,25.0662444 C9.80588508,24.7972933 10.1252492,24.5283422 10.391386,24.2056009 L28.8080503,7.42305094 C29.7661427,6.66998779 30.4048709,5.48660286 30.4048709,4.14184726 C30.4048709,1.88265784 28.5419135,0 26.2531374,0 Z"/>
    <polygon fill="#000" points="18.872 19.92 46.132 19.92 46.132 47.18 18.872 47.18"/>
    <polygon fill="#FFF" points="20.969 41.938 31.453 41.938 31.453 44.035 20.969 44.035"/>
    <g fill="#FFF" transform="translate(20.969 23.066)">
      <path d="M0.429130496,4.08893091 L1.23375018,3.35502024 C1.44831542,3.61713119 1.66288067,3.77439777 1.93108723,3.77439777 C2.2529351,3.77439777 2.41385903,3.564709 2.41385903,3.14533147 L2.41385903,0.366955338 L3.64760921,0.366955338 L3.64760921,3.14533147 C3.64760921,3.66955338 3.48668528,4.08893091 3.21847871,4.35104187 C2.95027216,4.61315283 2.52114166,4.7704194 1.98472855,4.7704194 C1.18010887,4.82284159 0.750978367,4.50830844 0.429130496,4.08893091 Z M3.91581577,0.41937753 L7.50978367,0.41937753 L7.50978367,1.41539916 L5.14956595,1.41539916 L5.14956595,2.09688765 L7.29521842,2.09688765 L7.29521842,3.04048709 L5.14956595,3.04048709 L5.14956595,3.72197557 L7.56342498,3.72197557 L7.56342498,4.7704194 L3.96945708,4.7704194 L3.91581577,0.41937753 Z M9.11902303,1.46782135 L7.77799023,1.46782135 L7.77799023,0.41937753 L11.693806,0.41937753 L11.693806,1.46782135 L10.3527732,1.46782135 L10.3527732,4.7704194 L9.11902303,4.7704194 L9.11902303,1.46782135 Z M0.536413119,5.76644103 L2.84298953,5.76644103 C3.37940265,5.76644103 3.80853315,5.9237076 4.0767397,6.13339637 C4.23766365,6.29066294 4.34494627,6.5527739 4.34494627,6.86730705 C4.34494627,7.39152896 4.0767397,7.65363991 3.64760921,7.86332868 C4.18402233,8.02059525 4.5058702,8.3351284 4.5058702,8.9117725 C4.5058702,9.64568318 3.86217446,10.1174829 2.84298953,10.1174829 L0.536413119,10.1174829 L0.536413119,5.76644103 Z M3.11119609,7.129418 C3.11119609,6.86730705 2.89663085,6.76246266 2.57478297,6.76246266 L1.77016329,6.76246266 L1.77016329,7.54879553 L2.52114166,7.54879553 C2.89663085,7.49637334 3.11119609,7.39152896 3.11119609,7.129418 Z M2.68206559,8.38755059 L1.71652198,8.38755059 L1.71652198,9.17388346 L2.68206559,9.17388346 C3.05755478,9.17388346 3.27212002,9.01661689 3.27212002,8.75450593 C3.27212002,8.49239497 3.05755478,8.38755059 2.68206559,8.38755059 Z M4.72043545,5.76644103 L6.81244662,5.76644103 C7.50978367,5.76644103 7.93891416,5.9237076 8.26076204,6.23824075 C8.52896859,6.50035171 8.63625122,6.81488486 8.63625122,7.23426238 C8.63625122,7.91575087 8.26076204,8.3351284 7.72434892,8.59723936 L8.79717515,10.1174829 L7.40250105,10.1174829 L6.49059874,8.80692812 L5.95418563,8.80692812 L5.95418563,10.1174829 L4.72043545,10.1174829 L4.72043545,5.76644103 Z M6.7588053,7.86332868 C7.18793579,7.86332868 7.40250105,7.65363991 7.40250105,7.33910677 C7.40250105,6.97215143 7.13429448,6.81488486 6.7588053,6.81488486 L5.95418563,6.81488486 L5.95418563,7.86332868 L6.7588053,7.86332868 Z"/>
      <path d="M10.0845666,5.76644103 L11.2646755,5.76644103 L13.1421214,10.1699051 L11.8010887,10.1699051 L11.4792407,9.38357222 L9.76271877,9.38357222 L9.44087089,10.1699051 L8.15347942,10.1699051 L10.0845666,5.76644103 Z M11.1573929,8.38755059 L10.674621,7.18184019 L10.1918493,8.38755059 L11.1573929,8.38755059 Z M13.3030454,5.76644103 L14.5367956,5.76644103 L14.5367956,10.1174829 L13.3030454,10.1174829 L13.3030454,5.76644103 Z M14.8586434,5.76644103 L15.9851109,5.76644103 L17.8089155,8.07301744 L17.8089155,5.76644103 L19.0426657,5.76644103 L19.0426657,10.1174829 L17.9698395,10.1174829 L16.0923936,7.7584843 L16.0923936,10.1699051 L14.8586434,10.1699051 L14.8586434,5.76644103 Z M19.1499484,9.48841661 L19.8472855,8.70208374 C20.2764159,9.06903908 20.7591877,9.22630565 21.2956008,9.22630565 C21.6174488,9.22630565 21.8320139,9.12146127 21.8320139,8.9117725 C21.8320139,8.70208374 21.67109,8.64966155 21.0810355,8.49239497 C20.115492,8.28270621 19.4181549,8.02059525 19.4181549,7.129418 C19.4181549,6.34308513 20.0618506,5.71401884 21.1346769,5.71401884 C21.8856553,5.71401884 22.4757097,5.9237076 22.9584815,6.29066294 L22.3147857,7.129418 C21.8856553,6.86730705 21.4565248,6.71004047 21.0810355,6.71004047 C20.7591877,6.71004047 20.6519051,6.81488486 20.6519051,6.97215143 C20.6519051,7.18184019 20.812829,7.23426238 21.4028835,7.39152896 C22.4220684,7.60121772 23.0657641,7.91575087 23.0657641,8.75450593 C23.0657641,9.64568318 22.368427,10.1699051 21.2419595,10.1699051 C20.4373399,10.2223273 19.6863615,9.96021633 19.1499484,9.48841661 Z"/>
    </g>
  </g>
</svg>
