<svg xmlns="http://www.w3.org/2000/svg" width="146" height="71" viewBox="0 0 146 71">
  <g fill="none" fill-rule="evenodd" transform="translate(7 16)">
    <polygon fill="#000" points="16.687 0 0 9.645 0 29.546 16.687 39.191 33.373 29.546 33.373 9.645"/>
    <polygon fill="#006CA7" points=".306 9.874 5.511 6.812 5.511 12.936 .306 15.998"/>
    <polygon fill="#006CA7" points="5.817 19.672 11.022 16.61 11.022 22.734 5.817 25.795"/>
    <polygon fill="#006CA7" points="5.817 26.255 11.022 23.193 11.022 29.469 5.817 32.378"/>
    <polygon fill="#006CA7" points="22.351 29.469 27.556 26.408 27.556 32.531 22.351 35.593"/>
    <polygon fill="#006CA7" points="27.862 26.255 33.067 23.193 33.067 29.469 27.862 32.378"/>
    <polygon fill="#006CA7" points="22.351 16.457 27.556 13.395 27.556 19.519 22.351 22.58"/>
    <polygon fill="#006CA7" points="22.351 9.874 27.556 6.812 27.556 12.936 22.351 15.998"/>
    <polygon fill="#006CA7" points="11.329 16.457 16.534 13.395 16.534 19.519 11.329 22.58"/>
    <polygon fill="#006CA7" points="5.817 6.659 11.022 3.598 11.022 9.721 5.817 12.783"/>
    <polygon fill="#48B8B2" points=".459 16.304 5.664 13.319 10.869 16.304 5.664 19.289"/>
    <polygon fill="#48B8B2" points="11.482 22.887 16.687 19.901 21.892 22.887 16.687 25.872"/>
    <polygon fill="#48B8B2" points="16.993 26.102 22.198 23.116 27.403 26.102 22.198 29.087"/>
    <polygon fill="#48B8B2" points="22.504 22.887 27.709 19.901 32.914 22.887 27.709 25.872"/>
    <polygon fill="#48B8B2" points="5.97 13.089 11.175 10.104 16.38 13.089 11.175 16.074"/>
    <polygon fill="#48B8B2" points="11.482 3.291 16.687 .306 21.892 3.291 16.687 6.277"/>
    <polygon fill="#48B8B2" points="16.993 6.506 22.198 3.521 27.403 6.506 22.198 9.491"/>
    <polygon fill="#E98537" points="5.511 19.672 .306 16.61 .306 22.734 5.511 25.795"/>
    <polygon fill="#E98537" points="5.511 26.255 .306 23.193 .306 29.469 5.511 32.378"/>
    <polygon fill="#E98537" points="16.534 26.255 11.329 23.193 11.329 29.469 16.534 32.378"/>
    <polygon fill="#E98537" points="22.045 29.469 16.84 26.408 16.84 32.531 22.045 35.593"/>
    <polygon fill="#E98537" points="33.067 16.457 27.862 13.395 27.862 19.519 33.067 22.58"/>
    <polygon fill="#E98537" points="22.045 16.457 16.84 13.395 16.84 19.519 22.045 22.58"/>
    <polygon fill="#E98537" points="22.045 9.874 16.84 6.812 16.84 12.936 22.045 15.998"/>
    <polygon fill="#E98537" points="16.534 6.659 11.329 3.598 11.329 9.721 16.534 12.783"/>
    <polygon fill="#E98537" points="33.067 9.874 27.862 6.812 27.862 12.936 33.067 15.998"/>
    <polygon fill="#48B8B2" points="5.97 32.684 11.175 29.699 16.38 32.684 11.175 35.67"/>
    <polygon fill="#48B8B2" points="11.482 35.899 16.687 32.914 21.892 35.899 16.687 38.884"/>
    <polygon fill="#000" points="44.159 25.411 44.159 14.694 45.276 14.694 49.15 19.884 53.023 14.694 54.125 14.694 54.125 25.411 53.008 25.411 53.008 16.409 49.502 21.093 48.813 21.093 45.276 16.409 45.276 25.411"/>
    <polygon fill="#000" points="58.053 14.694 58.053 19.348 63.013 14.694 64.514 14.694 59.247 19.593 65.325 25.411 63.733 25.411 58.053 19.961 58.053 25.411 56.92 25.411 56.92 14.694"/>
    <polygon fill="#000" points="67.034 25.411 67.034 14.694 68.167 14.694 68.167 19.149 74.536 19.149 74.536 14.694 75.669 14.694 75.669 25.411 74.536 25.411 74.536 20.175 68.167 20.175 68.167 25.411"/>
    <path fill="#000" d="M83.8431693,24.033008 C82.802171,22.9920097 82.2813656,21.659838 82.2813656,20.0524141 C82.2813656,18.4449902 82.802171,17.1281273 83.8431693,16.0874352 C84.8994764,15.031128 86.2007244,14.5103227 87.7778368,14.5103227 C88.9413056,14.5103227 89.9363775,14.7705723 90.7783614,15.3063802 L90.7783614,16.4701551 C89.8448309,15.873112 88.8494528,15.566936 87.7928395,15.566936 C86.5531329,15.566936 85.5271372,15.9952762 84.6851532,16.8528751 C83.8431693,17.6948591 83.4295256,18.766475 83.4295256,20.0524141 C83.4295256,21.353662 83.8431693,22.4255841 84.6851532,23.2675681 C85.5271372,24.109552 86.5834443,24.5381984 87.8237632,24.5381984 C89.0637759,24.5381984 90.1200831,24.186096 91.0079934,23.4662763 L91.0079934,24.64536 C90.1353919,25.2730208 89.0637759,25.5948117 87.7778368,25.5948117 C86.2007244,25.5948117 84.8994764,25.0740064 83.8431693,24.033008"/>
    <polygon fill="#000" points="92.982 25.411 92.982 14.694 101.387 14.694 101.387 25.411 100.254 25.411 100.254 15.72 94.115 15.72 94.115 25.411"/>
    <path fill="#000" d="M105.307208,24.3852329 L108.445818,24.3852329 C110.20633,24.3852329 111.217017,23.5429428 111.217017,22.0732981 C111.217017,20.6189622 110.20633,19.7769782 108.445818,19.7769782 L105.307208,19.7769782 L105.307208,24.3852329 Z M104.174357,25.4109224 L104.174357,14.6941508 L111.492269,14.6941508 L111.492269,15.7198403 L105.307208,15.7198403 L105.307208,18.7512887 L108.552979,18.7512887 C109.747066,18.7512887 110.680902,19.0574647 111.339181,19.6698166 C112.012768,20.2821686 112.349868,21.0935349 112.349868,22.0886069 C112.349868,24.0943657 110.941152,25.4109224 108.552979,25.4109224 L104.174357,25.4109224 Z"/>
    <polygon fill="#000" points="114.425 25.411 114.425 14.694 121.605 14.694 121.605 15.72 115.558 15.72 115.558 25.411"/>
    <path fill="#000" d="M123.936393,25.3803048 L123.936393,24.3239977 C124.288496,24.4617769 124.686525,24.5383209 125.100168,24.5383209 C125.635976,24.5383209 126.049008,24.3543091 126.416725,23.8647337 C126.600124,23.6194868 126.737904,23.4054698 126.845371,23.221458 C126.952533,23.0380586 127.090312,22.762194 127.273712,22.3947828 L122.95663,14.6941508 L124.211952,14.6941508 L127.825135,21.2313141 L130.841274,14.6941508 L132.050669,14.6941508 L128.100693,23.144914 C127.258709,24.9363497 126.370493,25.594628 125.283568,25.594628 C124.717142,25.594628 124.273493,25.518084 123.936393,25.3803048"/>
  </g>
</svg>
